<svg xmlns="http://www.w3.org/2000/svg" fill="none" viewBox="0 0 299 211"><g filter="url(#a)"><g fill="#FEFEFE" opacity=".4"><path d="M209.419 140.639a.22.22 0 0 1-.108 0L66.179 70.482a.198.198 0 0 1-.079-.064.158.158 0 0 1-.03-.09c0-.031.01-.063.03-.091a.203.203 0 0 1 .079-.067l73.184-35.862a.25.25 0 0 1 .164-.018.214.214 0 0 1 .131.085.158.158 0 0 1 .022.14.19.19 0 0 1-.101.111L66.712 70.33l142.707 69.919 36.484-17.879a.239.239 0 0 1 .164-.018.202.202 0 0 1 .131.085.16.16 0 0 1-.015.204.217.217 0 0 1-.064.047L209.52 140.64a.192.192 0 0 1-.101 0Z"/><path d="M172.38 175.742a.22.22 0 0 1-.108 0l-43.692-21.408a.2.2 0 0 1-.079-.067.162.162 0 0 1 0-.184.2.2 0 0 1 .079-.067l54.344-26.625a.253.253 0 0 1 .165-.019.22.22 0 0 1 .131.086.157.157 0 0 1 .021.139.192.192 0 0 1-.1.112l-54.056 26.466 43.374 21.249a.193.193 0 0 1 .064.048.167.167 0 0 1 .036.065.142.142 0 0 1 .003.071.158.158 0 0 1-.031.067.205.205 0 0 1-.067.048.24.24 0 0 1-.084.019Zm-82.17-38.747a.255.255 0 0 1-.102 0l-59.005-25.878a.176.176 0 0 1-.075-.054.126.126 0 0 1-.028-.076.13.13 0 0 1 .027-.078.192.192 0 0 1 .076-.058l51.732-22.696a.274.274 0 0 1 .156-.014c.052.01.097.036.126.071a.13.13 0 0 1 .025.057c.004.02.002.04-.005.06a.141.141 0 0 1-.036.053.193.193 0 0 1-.06.039l-51.458 22.566 58.573 25.695 140.542-61.661a.26.26 0 0 1 .153-.015c.026.005.05.014.07.026a.16.16 0 0 1 .051.046.123.123 0 0 1 .021.119.14.14 0 0 1-.036.054.198.198 0 0 1-.06.04L90.314 136.975a.252.252 0 0 1-.103.021Z"/></g><path fill="#FEFEFE" d="M193.505 141.251a3.172 3.172 0 0 1-1.362-.275l-55.375-27.134a1.147 1.147 0 0 1-.478-.358.914.914 0 0 1-.192-.516 1.15 1.15 0 0 1 .262-.622c.151-.183.356-.33.595-.424l4.728-2.312a3.88 3.88 0 0 1 3.064-.092l55.367 27.127c.193.081.356.204.473.357.116.153.182.33.19.512a1.155 1.155 0 0 1-.262.621c-.151.184-.356.33-.596.425l-4.72 2.318a4.011 4.011 0 0 1-1.694.373Zm-1.175-.557c.427.16.891.235 1.357.219a3.488 3.488 0 0 0 1.331-.31l4.728-2.319c.181-.067.338-.172.455-.306a.888.888 0 0 0 .216-.458.639.639 0 0 0-.141-.363.813.813 0 0 0-.342-.249l-55.375-27.133a3.369 3.369 0 0 0-1.358-.227 3.331 3.331 0 0 0-1.33.325l-4.721 2.312c-.18.067-.336.173-.454.307a.893.893 0 0 0-.216.457c.004.13.051.255.135.364a.796.796 0 0 0 .34.248l55.375 27.133Z"/><path fill="url(#b)" d="m156.43 101.585 50.928 24.986c.763.373 1.383 0 1.383-.887V27.341a2.488 2.488 0 0 0-.377-1.264 3.022 3.022 0 0 0-1.006-.987L156.43.14c-.771-.378-1.391 0-1.391.888V99.34c.008.44.138.873.38 1.263.241.39.588.726 1.011.982Z" opacity=".2" style="mix-blend-mode:lighten"/><path fill="url(#c)" d="m153.302 103.218 50.927 24.956c.772.373 1.391 0 1.391-.893V28.968a2.484 2.484 0 0 0-.379-1.263 3.007 3.007 0 0 0-1.012-.981L153.302 1.792c-.764-.373-1.384 0-1.384.893v98.282c.007.441.136.874.376 1.265.241.391.586.729 1.008.986Z" opacity=".4" style="mix-blend-mode:lighten"/><path fill="url(#d)" d="m150.181 104.851 50.928 24.95c.764.379 1.384 0 1.384-.887V30.601a2.49 2.49 0 0 0-.377-1.262 3 3 0 0 0-1.007-.982L150.181 3.4c-.764-.373-1.384 0-1.384.887V102.6c.008.441.137.874.378 1.265.24.391.585.728 1.006.986Z" opacity=".6" style="mix-blend-mode:lighten"/><path fill="url(#e)" d="m139.738 8.123 5.917-2.893a1.017 1.017 0 0 1 .879.067l50.928 24.95c.422.257.767.595 1.007.985a2.5 2.5 0 0 1 .377 1.266v98.318a.891.891 0 0 1-.094.53 1.085 1.085 0 0 1-.396.418l-5.911 2.887-.129-5.462-45.782-22.436a3.008 3.008 0 0 1-1.011-.981 2.476 2.476 0 0 1-.38-1.264v-93.81a4.37 4.37 0 0 1-.223.563c-.044.024-5.182-3.138-5.182-3.138Z"/><path fill="url(#f)" d="m198.809 32.143-15.387 7.572-2.321-1.138 16.577-8.135c.596.44.995 1.04 1.131 1.7Z"/><path fill="url(#g)" d="m140.653 109.628 50.928 24.95c.771.379 1.391 0 1.391-.887V35.378a2.467 2.467 0 0 0-.379-1.264 2.988 2.988 0 0 0-1.012-.98L140.653 8.178c-.764-.373-1.384 0-1.384.887v98.312c.008.441.137.874.377 1.265.241.391.585.728 1.007.986Z"/><path fill="#023597" d="m139.269 102.001 53.703 26.313V40.761l-53.703-26.307V102Z"/><path fill="url(#h)" d="m139.269 102.001 53.703 26.313V40.761l-53.703-26.307V102Z"/><path fill="#03112D" d="m139 100.776 53.703 26.314V40.308L139 14v86.776Z" opacity=".1"/><path fill="#080F5A" d="m161.915 23.035 9.715 4.771c.281.141.526.184.627-.043a.63.63 0 0 0 .058-.275 1.233 1.233 0 0 0-.186-.625 1.492 1.492 0 0 0-.499-.488l-9.823-4.814s-.058-.043-.087-.037c-.31.074-.36.129-.36.52l.043.11a.768.768 0 0 0 .098.507.958.958 0 0 0 .414.374Z"/><path fill="#BCBEFF" d="M161.742 21.53a.625.625 0 0 0-.051.276c.003.218.066.433.185.626.119.194.29.36.5.487l9.817 4.808.086.036a.33.33 0 0 1-.098.14.416.416 0 0 1-.164.084.464.464 0 0 1-.365-.058l-9.824-4.814a1.5 1.5 0 0 1-.497-.488 1.233 1.233 0 0 1-.187-.625c0-.392.259-.588.598-.471Z"/><path fill="#E9E9FD" d="m196.107 43.538.108-.055a.526.526 0 0 1 .468 0l.418.202h-.201a.758.758 0 0 1 .057.3v5.694c.002.238-.062.472-.188.685a1.592 1.592 0 0 1-.533.539l-.108.055-.151.055.101.195-.44-.22a.584.584 0 0 1-.214-.223.473.473 0 0 1-.052-.285v-5.694a1.33 1.33 0 0 1 .188-.7 1.61 1.61 0 0 1 .547-.548Z"/><path fill="#BCBEFF" d="m196.51 51.123.116-.055a1.6 1.6 0 0 0 .532-.539c.126-.212.19-.447.188-.685V44.15c0-.465-.331-.68-.72-.477l-.116.055a1.613 1.613 0 0 0-.533.538 1.325 1.325 0 0 0-.187.685v5.695c0 .465.324.69.72.477Z"/><path fill="#E9E9FD" d="m196.107 52.23.108-.055a.542.542 0 0 1 .468-.037l.418.202h-.201a.74.74 0 0 1 .057.3v5.694c.002.238-.063.472-.188.685a1.602 1.602 0 0 1-.533.538l-.108.055-.151.056.101.19-.44-.215a.595.595 0 0 1-.212-.224.479.479 0 0 1-.054-.283V53.44c.002-.237.07-.47.198-.68.128-.21.311-.392.537-.531Z"/><path fill="#BCBEFF" d="m196.51 59.808.116-.055a1.61 1.61 0 0 0 .533-.538c.125-.213.189-.448.187-.685v-5.695c0-.465-.331-.672-.72-.477l-.116.055a1.614 1.614 0 0 0-.531.54c-.125.212-.19.446-.189.684v5.688c0 .471.324.685.72.483Z"/><path fill="#FEFEFE" d="m186.982 46.743.923.453v-.52l-.923-.453v.52Zm0 3.547.923.453v-3.07l-.923-.453v3.07Zm0 1.695.923.453V51.22l-.923-.453v1.217Zm0 1.755.923.453v-1.217l-.923-.453v1.218Zm-1.369-5.975.922.452V47l-.922-.453v1.218Zm0 2.33.922.453v-1.792l-.922-.453v1.792Zm0 2.141.922.453v-1.536l-.922-.452v1.535Zm1.369 3.26.923.453V54.73l-.923-.452v1.217Zm-1.369-9.426.922.453v-.526l-.922-.447v.52Zm.684 10.796 1.608.79v-.508l-1.608-.79v.508Z"/><g clip-path="url(#i)"><g opacity=".3"><path fill="url(#j)" d="m118.316 132.62 6.003-3.611 8.34 1.07 2.341 4.684-6.003 3.611-8.34-1.07-2.341-4.684Z"/><path fill="#fff" d="m118.476 132.524 2.251 4.502 8.34 1.074 5.844-3.515.089.178-6.003 3.611-8.34-1.07-2.341-4.684.16-.096Z"/><path fill="url(#k)" d="m131.722 145.553 5.999-3.611 8.344 1.07 2.337 4.684-5.999 3.61-8.345-1.073-2.336-4.68Z"/><path fill="#fff" d="m131.881 145.457 2.252 4.502 8.34 1.07 5.844-3.511.085.178-5.999 3.61-8.345-1.073-2.336-4.68.159-.096Z"/><path fill="url(#l)" d="m145.143 159.301 6.003-3.611 8.34 1.074 2.341 4.68-6.003 3.61-8.34-1.069-2.341-4.684Z"/><path fill="#fff" d="m145.303 159.205 2.251 4.502 8.344 1.074 5.84-3.515.089.178-6.003 3.61-8.34-1.069-2.341-4.684.16-.096Z"/><path fill="url(#m)" d="m158.474 169.103 6.004-3.61 8.34 1.069 2.337 4.681-6 3.61-8.344-1.07-2.337-4.68Z"/><path fill="#fff" d="m158.634 169.003 2.252 4.507 8.34 1.069 5.843-3.514.086.178-6 3.61-8.344-1.07-2.337-4.68.16-.1Z"/><path fill="url(#n)" d="m171.855 181.132 6.003-3.61 8.34 1.07 2.341 4.684-6.003 3.61-8.34-1.073-2.341-4.681Z"/><path fill="#fff" d="m172.019 181.037 2.247 4.502 8.344 1.069 5.84-3.51.089.178-6.003 3.61-8.34-1.073-2.341-4.681.164-.095Z"/></g><path fill="url(#o)" d="m120.935 127.87-2.817-3.573 3.001 32.435 8.34 1.074 5.343-31.366-13.867 1.43Z"/><path fill="url(#p)" d="m118.118 124.297 6.003-3.61 8.34 1.069 2.341 4.684-6.003 3.611-8.34-1.074-2.341-4.68Z"/><path fill="#fff" d="m118.278 124.201 2.251 4.503 8.341 1.069 5.843-3.51.089.177-6.003 3.611-8.34-1.074-2.341-4.68.16-.096Z"/><path fill="url(#q)" d="m120.459 128.977.66 27.755 8.34 1.074-.66-27.755-8.34-1.074Z"/><path fill="url(#r)" d="m118.118 124.297.66 27.755 2.341 4.68-.66-27.755-2.341-4.68Z"/><path fill="url(#s)" d="m134.802 126.44.66 27.755-6.003 3.611-.66-27.755 6.003-3.611Z"/><path fill="url(#t)" d="m134.341 140.803-2.817-3.573 2.862 26.798 8.345 1.074 5.473-25.729-13.863 1.43Z"/><path fill="url(#u)" d="m131.524 137.23 5.999-3.611 8.344 1.07 2.337 4.684-5.999 3.607-8.344-1.07-2.337-4.68Z"/><path fill="#fff" d="m131.684 137.134 2.251 4.502 8.34 1.07 5.844-3.511.085.178-5.999 3.607-8.344-1.07-2.337-4.68.16-.096Z"/><path fill="url(#v)" d="m133.861 141.91.525 22.118 8.345 1.074-.526-22.122-8.344-1.07Z"/><path fill="url(#w)" d="m131.524 137.23.525 22.118 2.337 4.68-.525-22.118-2.337-4.68Z"/><path fill="url(#x)" d="m148.204 139.373.526 22.114-5.999 3.615-.526-22.122 5.999-3.607Z"/><path fill="url(#y)" d="m147.762 154.555-2.817-3.577 2.713 20.346 8.341 1.074 5.63-19.277-13.867 1.434Z"/><path fill="url(#z)" d="m144.945 150.978 6.003-3.611 8.34 1.07 2.341 4.684-6.003 3.611-8.34-1.07-2.341-4.684Z"/><path fill="#fff" d="m145.105 150.882 2.251 4.502 8.345 1.074 5.839-3.515.089.178-6.003 3.611-8.34-1.07-2.341-4.684.16-.096Z"/><path fill="url(#A)" d="m147.286 155.662.372 15.662 8.341 1.074-.373-15.666-8.34-1.07Z"/><path fill="url(#B)" d="m144.945 150.978.372 15.666 2.341 4.68-.372-15.662-2.341-4.684Z"/><path fill="url(#C)" d="m161.63 153.121.372 15.662-6.003 3.615-.373-15.666 6.004-3.611Z"/><path fill="url(#D)" d="m161.094 164.353-2.818-3.572 2.65 17.839 8.344 1.074 5.687-16.774-13.863 1.433Z"/><path fill="url(#E)" d="m158.276 160.781 6.004-3.615 8.34 1.074 2.337 4.68-5.999 3.61-8.345-1.069-2.337-4.68Z"/><path fill="url(#F)" d="m161.017 161.131 4.029-2.423 5.6.718 1.57 3.143-4.029 2.424-5.599-.719-1.571-3.143Z" opacity=".3"/><path fill="#fff" d="m158.436 160.681 2.252 4.506 8.34 1.07 5.844-3.515.085.178-5.999 3.61-8.345-1.069-2.337-4.68.16-.1Z"/><path fill="url(#G)" d="m160.613 165.461.313 13.159 8.344 1.074-.312-13.164-8.345-1.069Z"/><path fill="url(#H)" d="m158.276 160.781.313 13.159 2.337 4.68-.313-13.159-2.337-4.68Z"/><path fill="url(#I)" d="m174.957 162.92.313 13.16-6 3.614-.312-13.164 5.999-3.61Z"/><path fill="url(#J)" d="m160.912 156.706-2.817-3.577 2.417 8.078 8.344 1.07 5.919-7.004-13.863 1.433Z"/><path fill="url(#K)" d="m158.095 153.129 6.003-3.61 8.34 1.074 2.337 4.68-5.999 3.61-8.344-1.07-2.337-4.684Z"/><path fill="#fff" d="m158.254 153.033 2.252 4.507 8.34 1.069 5.844-3.514.085.178-5.999 3.61-8.344-1.07-2.337-4.684.159-.096Z"/><path fill="url(#L)" d="m160.432 157.813.08 3.394 8.345 1.07-.081-3.394-8.344-1.07Z"/><path fill="url(#M)" d="m158.095 153.129.08 3.398 2.337 4.68-.08-3.394-2.337-4.684Z"/><path fill="url(#N)" d="m174.775 155.273.081 3.394-5.999 3.61-.081-3.394 5.999-3.61Z"/><path fill="url(#O)" d="m174.474 176.383-2.817-3.573 2.541 13.107 8.34 1.069 5.803-12.033-13.867 1.43Z"/><path fill="url(#P)" d="m171.657 172.81 6.003-3.611 8.34 1.07 2.341 4.684-6.003 3.61-8.34-1.073-2.341-4.68Z"/><path fill="#fff" d="m171.821 172.714 2.247 4.502 8.345 1.07 5.839-3.515.089.178-6.003 3.614-8.34-1.073-2.341-4.68.164-.096Z"/><path fill="url(#Q)" d="m173.998 177.49.2 8.426 8.34 1.07-.2-8.423-8.34-1.073Z"/><path fill="url(#R)" d="m171.657 172.81.2 8.426 2.341 4.681-.2-8.427-2.341-4.68Z"/><path fill="url(#S)" d="m188.341 174.953.2 8.423-6.003 3.61-.2-8.423 6.003-3.61Z"/></g><g clip-path="url(#T)"><path fill="#3141BA" d="m244 135-19-11.028 19-11.027 19 11.027L244 135Z"/><path fill="#3141BA" d="M244 131.828 225 120.8l19-11.027 19 11.027-19 11.028Z"/><path fill="url(#U)" d="m244 129.314-14.668-8.514L244 112.286l14.668 8.514L244 129.314Z" opacity=".7" style="mix-blend-mode:lighten"/><path fill="url(#V)" d="M263 120.8v3.172L244 135v-3.172l19-11.028Z"/><path fill="#3141BA" d="M225 120.8v3.172L244 135v-3.172L225 120.8Z"/><path fill="url(#W)" d="M225 120.8v3.172L244 135v-3.172L225 120.8Z" opacity=".7" style="mix-blend-mode:lighten"/><path fill="#3141BA" d="M244 87.558 225 76.53l19-11.027 19 11.027-19 11.028Z"/><path fill="#3141BA" d="m244 84.386-19-11.028 19-11.027 19 11.027-19 11.028Z"/><path fill="url(#X)" d="m244 84.386-19-11.028 19-11.027 19 11.027-19 11.028Z" opacity=".7" style="mix-blend-mode:lighten"/><path fill="#fff" d="m244 77.442-7.034-4.084L244 69.275l7.034 4.083L244 77.442Z" opacity=".3"/><path fill="#fff" d="m244 72.045 4.645 2.699 2.389-1.386L244 69.275l-7.034 4.083 2.386 1.386L244 72.045Z" opacity=".3"/><path fill="#D2D2D2" d="m244 72.045 4.645 2.699 2.389-1.386L244 69.275l-7.034 4.083 2.386 1.386L244 72.045Z"/><path fill="url(#Y)" d="M263 73.358v3.172l-19 11.028v-3.172l19-11.028Z"/><path fill="#3141BA" d="M225 73.358v3.172l19 11.028v-3.172l-19-11.028Z"/><path fill="url(#Z)" d="M225 73.358v3.172l19 11.028v-3.172l-19-11.028Z" opacity=".7" style="mix-blend-mode:lighten"/><path fill="#fff" d="M244 87.558v44.27L225 120.8V76.53l19 11.028Z" opacity=".3"/><path fill="#fff" d="M229.332 79.044V120.8L244 129.314l14.668-8.514V79.044L244 87.558l-14.668-8.514Z" opacity=".3"/><path fill="#fff" d="M244 87.558v41.756l-14.668-8.514V79.044L244 87.558Z" opacity=".3"/><g opacity=".7"><path fill="url(#aa)" d="m244 112.236-14.668-8.514L244 95.212l14.668 8.513L244 112.236Z"/><path fill="url(#ab)" d="M258.668 103.725V120.8L244 129.314v-17.078l14.668-8.511Z"/><path fill="url(#ac)" d="M229.332 103.725V120.8L244 129.314v-17.078l-14.668-8.511Z"/></g><path fill="url(#ad)" d="m225.45 73.358 18.773-10.897-.223-.13-19 11.027 19 11.028.223-.13-18.773-10.898Z" style="mix-blend-mode:lighten"/><path fill="#fff" d="M225 76.53v44.27l.263.152v-44.27L225 76.53Zm38 0v44.27l-.263.152v-44.27l.263-.152Zm-19 11.028-.45-.26v44.27l.45.26.446-.26v-44.27l-.446.26Z" opacity=".5"/><path fill="url(#ae)" d="M251.226 73.358 250.967 34H237l.158 39.358 7.034 4.084 7.034-4.084Z" opacity=".7" style="mix-blend-mode:lighten"/><path fill="#fff" d="M245.479 68.859a.547.547 0 0 1-.651.535.545.545 0 1 1 .493-.92c.101.102.158.24.158.385Z" opacity=".9"/><path fill="#fff" d="M238.427 64.53a.334.334 0 0 1-.663.066.34.34 0 0 1 .143-.346.331.331 0 0 1 .421.043.34.34 0 0 1 .099.237Z" opacity=".3"/><path fill="#fff" d="M240.773 60.718a.36.36 0 0 1-.607.28.36.36 0 0 1 .247-.624.337.337 0 0 1 .253.094.336.336 0 0 1 .107.25Zm9.901-1.252a.223.223 0 0 1-.036.12.215.215 0 0 1-.392-.078.217.217 0 0 1 .212-.26.217.217 0 0 1 .216.218Zm-.561-1.136a.457.457 0 0 1-.543.447.45.45 0 0 1-.356-.36.458.458 0 0 1 .622-.508.448.448 0 0 1 .244.247.471.471 0 0 1 .033.174Zm-10.61 1.92a.22.22 0 0 0 .219-.22.22.22 0 1 0-.439 0c0 .122.099.22.22.22Z" opacity=".2"/><path fill="#fff" d="M239.456 70.693a.343.343 0 0 1-.21.314.336.336 0 0 1-.46-.25.34.34 0 0 1 .573-.304.34.34 0 0 1 .097.24Z" opacity=".3"/><path fill="#fff" d="M241.802 66.877a.343.343 0 0 1-.577.249.34.34 0 0 1-.086-.368.342.342 0 0 1 .663.119Zm-1.274-.467a.22.22 0 0 0 0-.44.22.22 0 0 0-.219.22c0 .122.098.22.219.22Z" opacity=".2"/><path fill="#fff" d="M243.701 63.423a.486.486 0 0 0 .394.37.472.472 0 0 0 .485-.23.482.482 0 0 0-.168-.665.479.479 0 0 0-.711.525Z" opacity=".9"/><path fill="#fff" d="M248.821 58.16a.302.302 0 0 0 .245.226.296.296 0 0 0 .301-.142.304.304 0 0 0-.016-.334.299.299 0 0 0-.53.25Z" opacity=".3"/><path fill="#fff" d="M245.968 55.38a.302.302 0 0 0 .36.216.302.302 0 0 0 .217-.37.304.304 0 0 0-.368-.22.302.302 0 0 0-.209.373Zm-8.789 1.11a.194.194 0 0 0 .022.081.198.198 0 0 0 .133.098.189.189 0 0 0 .209-.111.199.199 0 0 0 .017-.084.196.196 0 0 0-.022-.082.189.189 0 0 0-.234-.138.192.192 0 0 0-.125.236Zm.233-1.1a.404.404 0 1 0 .288-.492.397.397 0 0 0-.297.334.417.417 0 0 0 .009.158Zm9.312-.846a.194.194 0 0 0 .161.144.194.194 0 0 0 .194-.094.201.201 0 0 0 .027-.11.204.204 0 0 0-.039-.107.192.192 0 0 0-.203-.072.196.196 0 0 0-.145.162.197.197 0 0 0 .005.077Zm2.335 16.355a.22.22 0 0 1-.156.053.212.212 0 0 1-.147-.075.216.216 0 0 1-.058-.16.21.21 0 0 1 .075-.154.214.214 0 0 1 .311.032.207.207 0 0 1 .052.157.195.195 0 0 1-.024.082.204.204 0 0 1-.053.065Zm.5-1.165a.452.452 0 0 1-.691-.122.458.458 0 0 1 .256-.657.452.452 0 0 1 .59.47.462.462 0 0 1-.155.31Z" opacity=".2"/><path fill="#fff" d="M248.864 68.624a.303.303 0 0 0 .072.42.298.298 0 0 0 .425-.404.297.297 0 0 0-.497-.016Z" opacity=".3"/><path fill="#fff" d="M249.116 64.649a.311.311 0 0 0-.011.342.307.307 0 0 0 .311.14.304.304 0 0 0 .247-.235.31.31 0 0 0-.122-.32.305.305 0 0 0-.425.073Zm1.115.047a.206.206 0 0 0-.037.07.215.215 0 0 0-.006.08.221.221 0 0 0 .026.076.197.197 0 0 0 .208.09.198.198 0 0 0 .126-.092.197.197 0 0 0-.116-.303.19.19 0 0 0-.201.08Z" opacity=".2"/><path fill="#fff" d="M242.388 74.39a.487.487 0 0 0 .395.361.481.481 0 0 0 .555-.497.487.487 0 0 0-.312-.435.478.478 0 0 0-.581.2.48.48 0 0 0-.057.37Zm1.396-2.623a.339.339 0 0 0 .584.147.342.342 0 0 0-.077-.526.34.34 0 0 0-.497.18.348.348 0 0 0-.01.199Zm1.695-9.107a.547.547 0 0 1-.651.535.545.545 0 0 1-.192-.991.541.541 0 0 1 .803.247c.027.066.04.137.04.209Z" opacity=".9"/><path fill="#fff" d="M238.427 58.33a.333.333 0 0 1-.571.238.336.336 0 0 1 .236-.574.335.335 0 0 1 .335.336Z" opacity=".3"/><path fill="#fff" d="M240.773 54.515a.37.37 0 0 1-.051.325.36.36 0 0 1-.455.11.36.36 0 0 1-.192-.267.37.37 0 0 1 .014-.168.345.345 0 0 1 .342-.344.34.34 0 0 1 .342.344Zm9.901-1.252a.217.217 0 0 1-.369.153.22.22 0 0 1 0-.306.217.217 0 0 1 .306 0 .22.22 0 0 1 .063.153Zm-1.015-.676a.455.455 0 0 0 0-.912.454.454 0 0 0-.453.456c0 .252.203.456.453.456Zm-10.156 1.461a.22.22 0 0 0 .219-.22.22.22 0 1 0-.439 0c0 .121.099.22.22.22Z" opacity=".2"/><path fill="#fff" d="M239.456 64.49a.34.34 0 0 1-.403.337.337.337 0 0 1-.247-.465.34.34 0 0 1 .552-.11.336.336 0 0 1 .098.238Z" opacity=".3"/><path fill="#fff" d="M241.802 60.692a.36.36 0 0 1-.178.435.36.36 0 0 1-.506-.435.345.345 0 0 1 .342-.343.34.34 0 0 1 .342.343Zm-1.274-.481a.22.22 0 0 0 0-.441.22.22 0 0 0-.219.22.22.22 0 0 0 .219.221Z" opacity=".2"/><path fill="#fff" d="M243.701 57.224a.487.487 0 0 0 .395.362.48.48 0 0 0 .555-.497.486.486 0 0 0-.312-.436.48.48 0 0 0-.582.2.475.475 0 0 0-.056.371Z" opacity=".9"/><path fill="#fff" d="M248.821 51.94a.302.302 0 0 0 .246.251.295.295 0 0 0 .313-.157.297.297 0 0 0 .017-.243.301.301 0 0 0-.355-.187.299.299 0 0 0-.221.336Z" opacity=".3"/><path fill="#fff" d="M245.968 49.176a.302.302 0 1 0 .567-.202.304.304 0 0 0-.288-.177.3.3 0 0 0-.271.202.306.306 0 0 0-.008.177Zm-8.789 1.111a.189.189 0 0 0 .158.145.186.186 0 0 0 .075-.004.195.195 0 0 0 .105-.304.185.185 0 0 0-.126-.077.192.192 0 0 0-.076.005.195.195 0 0 0-.136.235Zm.233-1.1a.398.398 0 0 0 .785-.125.401.401 0 0 0-.497-.367.408.408 0 0 0-.288.492Zm9.312-.832a.194.194 0 0 0 .356.051.197.197 0 0 0-.068-.269.195.195 0 0 0-.288.218Zm2.335 16.345a.209.209 0 0 1-.303-.025.223.223 0 0 1-.068-.165.224.224 0 0 1 .021-.088.208.208 0 0 1 .056-.072.213.213 0 0 1 .254-.017.216.216 0 0 1 .065.063.207.207 0 0 1 .052.157.195.195 0 0 1-.024.082.204.204 0 0 1-.053.065Zm.5-1.161a.454.454 0 1 1-.594-.677.451.451 0 0 1 .627.063.456.456 0 0 1-.041.632l.008-.018Z" opacity=".2"/><path fill="#fff" d="M248.864 62.425a.303.303 0 0 0 .072.416.3.3 0 0 0 .221.052.291.291 0 0 0 .193-.121.3.3 0 0 0 .052-.224.29.29 0 0 0-.041-.11.287.287 0 0 0-.079-.086.303.303 0 0 0-.418.073Z" opacity=".3"/><path fill="#fff" d="M249.116 58.45a.303.303 0 1 0 .548.124.307.307 0 0 0-.123-.197.305.305 0 0 0-.425.073Zm1.115.043a.198.198 0 0 0-.009.219.196.196 0 0 0 .358-.136.196.196 0 0 0-.079-.126.191.191 0 0 0-.27.043Z" opacity=".2"/><path fill="#fff" d="M242.388 68.19a.487.487 0 0 0 .394.362.484.484 0 1 0-.336-.732.497.497 0 0 0-.058.37Zm1.396-2.622c.011.044.03.085.056.121a.339.339 0 0 0 .607-.157.343.343 0 0 0-.163-.34.335.335 0 0 0-.374.02.342.342 0 0 0-.126.356Zm1.695-9.111a.55.55 0 0 1-.649.54.549.549 0 0 1-.396-.747.548.548 0 0 1 .505-.336.54.54 0 0 1 .54.543Z" opacity=".9"/><path fill="#fff" d="M238.427 52.131a.333.333 0 0 1-.571.238.337.337 0 0 1 .236-.574.335.335 0 0 1 .335.336Z" opacity=".3"/><path fill="#fff" d="M240.773 48.315a.36.36 0 1 1-.692-.138.36.36 0 0 1 .332-.223.34.34 0 0 1 .338.22.358.358 0 0 1 .022.141Zm9.901-1.251a.223.223 0 0 1-.036.12.217.217 0 0 1-.392-.078.216.216 0 0 1 .013-.125.216.216 0 0 1 .199-.134.217.217 0 0 1 .216.217Zm-1.015-.676a.455.455 0 0 0 0-.912.454.454 0 0 0-.453.456c0 .252.203.456.453.456Zm-9.937 1.24a.222.222 0 0 1-.135.204.219.219 0 0 1-.299-.16.214.214 0 0 1 .012-.128.224.224 0 0 1 .081-.1.217.217 0 0 1 .277.028.222.222 0 0 1 .064.156Z" opacity=".2"/><path fill="#fff" d="M239.456 58.29a.34.34 0 0 1-.403.337.335.335 0 0 1-.267-.267.342.342 0 0 1 .146-.35.337.337 0 0 1 .524.28Z" opacity=".3"/><path fill="#fff" d="M241.802 54.475a.345.345 0 0 1-.342.343.341.341 0 0 1-.342-.343.345.345 0 0 1 .342-.344.34.34 0 0 1 .342.344Zm-1.274-.467a.22.22 0 0 0 0-.441.22.22 0 0 0-.219.22.22.22 0 0 0 .219.221Z" opacity=".2"/><path fill="#fff" d="M243.701 51.02a.487.487 0 0 0 .395.363.48.48 0 0 0 .555-.497.486.486 0 0 0-.312-.436.477.477 0 0 0-.452.06.476.476 0 0 0-.195.32.475.475 0 0 0 .009.19Z" opacity=".9"/><path fill="#fff" d="M248.821 45.74a.3.3 0 0 0 .546.084.297.297 0 0 0 .042-.17.296.296 0 0 0-.372-.275.3.3 0 0 0-.216.361Z" opacity=".3"/><path fill="#fff" d="M245.968 42.97a.306.306 0 0 0 .597-.029.313.313 0 0 0-.023-.179.307.307 0 0 0-.568.027.308.308 0 0 0-.006.18Zm-8.789 1.117c.02.039.052.07.091.087a.19.19 0 0 0 .23-.06.188.188 0 0 0 .038-.12.189.189 0 0 0-.153-.182.19.19 0 0 0-.206.275Zm.233-1.099a.397.397 0 0 0 .731.1.402.402 0 0 0-.443-.593.396.396 0 0 0-.246.187.412.412 0 0 0-.042.306Zm9.312-.836a.195.195 0 0 0 .089.12.197.197 0 0 0 .148.021.192.192 0 0 0 .143-.162.196.196 0 0 0-.203-.222.195.195 0 0 0-.177.243Zm2.335 16.348a.22.22 0 0 1-.159.051.214.214 0 0 1-.147-.076.22.22 0 0 1-.028-.24.215.215 0 0 1 .211-.117.22.22 0 0 1 .201.234.234.234 0 0 1-.024.082.225.225 0 0 1-.054.066Zm.5-1.164a.451.451 0 0 1-.691-.123.458.458 0 0 1 .256-.657.452.452 0 0 1 .572.294.463.463 0 0 1-.137.486Z" opacity=".2"/><path fill="#fff" d="M248.864 56.225a.303.303 0 0 0 .297.473.303.303 0 0 0 .254-.346.307.307 0 0 0-.351-.257.296.296 0 0 0-.2.13Z" opacity=".3"/><path fill="#fff" d="M249.116 52.247a.311.311 0 0 0-.011.342.307.307 0 0 0 .311.14.304.304 0 0 0 .247-.235.31.31 0 0 0-.122-.32.31.31 0 0 0-.425.073Zm1.115.047a.198.198 0 0 0 .044.275.196.196 0 0 0 .328-.108.199.199 0 0 0-.001-.084.197.197 0 0 0-.037-.076.193.193 0 0 0-.064-.054.193.193 0 0 0-.27.047Z" opacity=".2"/><path fill="#fff" d="M242.388 61.987a.487.487 0 0 0 .395.362.482.482 0 0 0 .464-.762.479.479 0 0 0-.802.03.481.481 0 0 0-.057.37Zm1.396-2.619a.341.341 0 0 0 .28.251.337.337 0 0 0 .338-.164.338.338 0 0 0-.178-.493.334.334 0 0 0-.315.048.34.34 0 0 0-.125.358Z" opacity=".9"/><path fill="#DCDCDC" d="M225 76v44.27l19 11.028 19-11.028V76l-19 11.028L225 76Z" opacity=".5"/></g><path fill="#fff" d="M147.92 70.69 145 69v5.62l2.92 1.68v-5.61Z" opacity=".4" style="mix-blend-mode:lighten"/><path fill="#fff" d="m153.13 83.97-2.92-1.68v-4.66l2.92 1.69v4.65Z" opacity=".6" style="mix-blend-mode:lighten"/><path fill="#fff" d="m158.34 78.2-2.92-1.68v4.12l2.92 1.69V78.2Z" opacity=".8" style="mix-blend-mode:lighten"/><path fill="#fff" d="m163.56 77.04-2.92-1.69v8.3l2.92 1.68v-8.29Zm5.21-.63-2.92-1.68v11.93l2.92 1.69V76.41Z" style="mix-blend-mode:lighten"/><path fill="#fff" d="m173.98 83.06-2.91-1.68v8.29l2.91 1.69v-8.3Z" opacity=".8" style="mix-blend-mode:lighten"/><path fill="#fff" d="m179.2 83.93-2.92-1.69v10.44l2.92 1.69V83.93Z" opacity=".6" style="mix-blend-mode:lighten"/><path fill="#fff" d="m184.41 82.45-2.92-1.69v14.93l2.92 1.69V82.45Z" opacity=".4" style="mix-blend-mode:lighten"/><path fill="#001459" d="m77.116 91.568-.052.23-.066-.156a3.25 3.25 0 0 0-.052 1.803c.392.781.857 1.524 1.39 2.217.635.842 1.655 2.594 1.928 2.956a6.577 6.577 0 0 0 3.776 1.84c1.944.2 2.447-.916 2.284-1.515a13.553 13.553 0 0 0-2.35-3.51 17.13 17.13 0 0 1-2.017-2.956l-4.84-.909Zm5.861-5.291a8.664 8.664 0 0 0 .066 1.758c.133.518 2.993.68 4.013.806 1.157.241 2.281.62 3.347 1.13.555.274 4.272.666 4.73-.701.458-1.367-1.87-2.52-3.444-2.882-1.574-.363-4.138-1.153-4.138-1.153l-4.574 1.042Z"/><path fill="#023597" d="M73.044 61.52a34.739 34.739 0 0 0 1.072 8.343 32.93 32.93 0 0 1 1.027 8.226s-1.227 5.475-.148 9.215c1.08 3.74 1.988 4.781 1.988 4.781a3.222 3.222 0 0 0 4.974.296 44.74 44.74 0 0 1-1.774-9.216 27.729 27.729 0 0 0 1.877-5.682s.406 4.256.65 5.978c0 0-.243 2.527.429 3.547.672 1.02 3.695 1.316 4.678-.458.983-1.773-.806-.909-.274-9.067 0 0 2.801-3.489 3.2-9.896.4-6.407.362-8.956 0-10.205-.362-1.25-6.555-5.75-6.555-5.75l-3.495 4.434-7.649 5.454Z"/><path fill="url(#af)" d="m73.044 61.52 7.649-5.424 3.495-4.434.266.2-3.177 4.057-7.649 5.424a35.19 35.19 0 0 0 1.072 8.343 32.933 32.933 0 0 1 1.027 8.225s-1.22 5.476-.148 9.216c1.072 3.739 1.988 4.78 1.988 4.78s1.323 1.738 3.252 1.272c-2.217 1.035-3.836-1.064-3.836-1.064s-.916-1.05-1.988-4.781c-1.071-3.732.148-9.216.148-9.216a32.928 32.928 0 0 0-1.027-8.225 34.738 34.738 0 0 1-1.072-8.373Z"/><path fill="#001459" d="M86.834 68.674c1.005-1.212 1.574-4.996 1.574-4.996s-1.574 3.185-2.705 4.109a7.687 7.687 0 0 0-2.298 3.99c-.2 1.213-1.345 5.706-1.345 5.706s.406 4.256.65 5.978c0 0-.243 2.528.429 3.547.17.228.396.407.658.518 0-.052-.17-5.639 0-8.004.17-2.365 2.032-9.636 3.037-10.848ZM63.74 35.663s-2.667 5.217-2.956 5.624c-.288.406-5.269 6.769-5.75 10.456 0 0-.376 1.42 1.346 2.683 1.722 1.264 10.398 6.777 10.937 6.858.54.081 3.695-1.478 3.82-4.892 0 0-6.805-3.17-8.284-4.76 0 0 2.654-4.433 3.947-5.756.365-.476.58-1.05.62-1.648a8.935 8.935 0 0 0-2.904-7.84l-.776-.725Zm19.968-12.231s2.956 3.267 4.434 3.444c1.478.177 4.774 1.39 7.5 1.3 2.728-.088 13.185 2.306 14.589 2.957 0 0 0 .059-.274.044a1.928 1.928 0 0 0-2.084.51 3.81 3.81 0 0 0-.805 2.69c.111.17.399-.163 1.478-.11a3.83 3.83 0 0 1 1.618.354l.118.598.045.414a2.343 2.343 0 0 1-2.343.554c-1.227-.524-10.457-1.285-11.01-1.389-.555-.103-8.344-.657-9.763-.842a15.56 15.56 0 0 0-2.63-.126s-2.44-4.434-2.558-4.434c-.118 0 1.685-5.964 1.685-5.964Z"/><path fill="#023597" d="M107.001 34.414s.532 2.505 3.296.923c2.764-1.58-1.596-1.987-1.596-1.987l-1.7 1.064Z"/><path fill="#FCD1C5" d="M120.887 33.572c-.126-.459-4.094-1.257-4.094-1.257a4.306 4.306 0 0 0-1.072-.739c-.591-.273-2.756.119-3.443.096a8.504 8.504 0 0 1-2.018-.561c-3.384-.954-3.414 3.288-3.259 3.31.155.023 1.271-.11 1.604-.118.287.022.571.081.842.178.278.4.587.778.924 1.13.603.44 1.33.675 2.077.673a5.548 5.548 0 0 1 2.084.606c.044.074.206.295.206.295a.742.742 0 0 0 .134.614c.229.229.879-.288 1.034-.296.279-.014.555-.066.82-.155a13.06 13.06 0 0 0 1.478-2.291c.111-.384-.45-1.175-.45-1.175s2.254.355 2.431.4c.177.043.82-.215.702-.71Zm-5.262 1.81a4.912 4.912 0 0 0-.739-.17 1.964 1.964 0 0 1-.938-.192s-.059-.739.318-.828c.376-.088.672-.125.672-.125s.525.155.554.096a.531.531 0 0 0 .51.31 1.093 1.093 0 0 0 .488.784c-.283.079-.572.13-.865.155v-.03Z"/><path fill="#001459" d="M90.743 57.382c-.362-1.25-6.555-5.75-6.555-5.75l-1.736 2.217-1.478 5.794-7.915 2.461s.421 3.961 6.865 3.503c6.444-.458 7.206-5.454 7.206-5.454s.739 1.64 3.894 2.07a17.74 17.74 0 0 0-.28-4.841Z"/><path fill="#021539" d="m71.581 26.684-1.086 2.8s-5.247 4.538-6.755 6.179a31.543 31.543 0 0 1 3.075 10.213 32.222 32.222 0 0 1 3.126 2.852c.739.902 2.556 5.07 3.148 6.437.59 1.367-1.05 5.505-1.05 5.505s2.217 4.117 5.816 3.984c3.6-.133 6.038-2.32 6.496-6.223.458-3.902.318-4.434.318-4.434s1.61 4.789 4.057 4.789c2.446 0 6.333-4.153 6.333-4.153s2.624-2.38 2.38-3.459c-.244-1.079-6.171-10.346-6.489-11.905-.318-1.56-1.655-7.013-1.655-7.013l-5.587-8.794-3.407.163-8.72 3.059Z"/><path fill="url(#ag)" d="M78.003 63.67c3.436-.125 5.801-2.157 6.4-5.741 0 .162-.037.325-.052.502-.458 3.902-2.904 6.09-6.496 6.223-3.591.133-5.816-3.984-5.816-3.984s.118-.303.274-.739c.524.82 2.601 3.858 5.69 3.74Z"/><path fill="#F0F6FF" d="M71.581 26.684a9.657 9.657 0 0 0 .628 3.325c.658 1.648 2.808 10.967 7.693 14.152l1.87 1.19v-5.912a22.385 22.385 0 0 0-.865-5.964 17.08 17.08 0 0 1-.805-5.136s-1.368-.377-1.368-.347c0 .03-7.153-1.308-7.153-1.308Z"/><path fill="#FCD1C5" d="M77.59 31.014s.871.355 1.24-.214c.424-.662.652-1.43.658-2.217 0 0 2.306.111 2.764-1.094a2.009 2.009 0 0 0-.118-1.906 9.423 9.423 0 0 0-.45-2.077v-.31s.472-.407.25-.828c-.221-.421-1.477-1.744-1.603-1.966-.126-.221.037-1.854-.458-2.667a19.296 19.296 0 0 0-1.434-1.936s-4.922-3.843-8.794 0c-3.872 3.842 1.966 10.892 1.966 10.892s.465 2.284 1.596 3.193c1.13.909 4.382 1.13 4.382 1.13Z"/><path fill="#AA8383" d="M73.99 21.674a1.137 1.137 0 0 0-.059-.422 2.04 2.04 0 0 1 .79-2.416c1.479-1.072 4.087-2.04 4.006-3.119-.081-1.079-4.19-3.732-7.227-2.305-3.037 1.426-5.912 5.025-3.82 8.868 2.09 3.842 3.901 4.433 3.901 4.433s.614-.125.06-.739c-.555-.613-1.56-2.216-.74-2.741.82-.525 2.291.584 2.483.828.074.096.148.214.215.317a.406.406 0 0 0 .524.17l.067-.037a.407.407 0 0 0 .258-.546l-.362-.99a1.226 1.226 0 0 1-.081-.459l-.015-.842Z"/><path fill="#C4CCD6" d="M77.463 32.093a5.794 5.794 0 0 0-1.736 2.27 7.694 7.694 0 0 1 1.832-1.479s1.294.599 1.294 1.005a26.59 26.59 0 0 0 .421 4.124 45.81 45.81 0 0 1 .266 5.867l.82.54.385-2.003-.148-4.271-.74-3.895s-.14-1.478-.199-1.551c-.059-.074-2.195-.607-2.195-.607Z"/><path fill="#023597" d="M77.464 32.094s1.256-1.33 1.884-1.36a1.05 1.05 0 0 1 .983.391c0 .074.606 2.158.606 2.158a25.944 25.944 0 0 1 1.057 7.863c-.119 4.235-.222 4.205-.222 4.205l-1.544-.983c.227-2.188.082-4.4-.43-6.54-.849-3.51-.103-4.027-.502-4.397-.399-.37-2.025-.909-1.832-1.337ZM69.94 48.728c.74.902 2.52 5.062 3.104 6.43.115.273.17.568.163.864l.244.155.783-.739s-.702-2.542-1.832-5.683c-1.131-3.14-5.587-3.85-5.587-3.85a32.231 32.231 0 0 1 3.126 2.823Z"/><path fill="#FCD1C5" d="M71.153 56.48a13.99 13.99 0 0 1 1.677-2.091s-.096.525.628.842c.725.318 4.523 1.796 4.656 1.966.133.17 0 .384-.251.436.358.127.73.214 1.108.259.325 0 .74.406.54.739-.2.332-.4.325-.4.325s.097.392-.14.473a3.52 3.52 0 0 1-.798.103s.11.392-.2.547c-.608.156-1.228.262-1.854.318 0 0-1.205-.126-1.552-.133-.85.155-1.71.25-2.572.28a19.358 19.358 0 0 1-3.082-1.004c-.221-.104 2.24-3.06 2.24-3.06Z"/><path fill="#023597" d="m70.244 30.394.162 2.498 1.345.42-.901.74s3.658 8.328 8.336 10.96c0 0-4.435-1.582-8.684-10.886 0 0 .444-.525.584-.673l-.946-.414.104-2.645Zm11.956-.266s1.656 8.49.244 14.89c0 0 1.7-3.074.163-14.89H82.2Z"/><path fill="#E2B1A6" d="M118.204 34.857a3.022 3.022 0 0 0-.458-.975s-1.899-.17-2.217-.185c-.015 0 1.685.665 2.675 1.16Zm-11.203-.443c.247 0 .494-.018.739-.052-.318-1.936 1.877-3.37 1.885-3.377-2.749-.296-2.764 3.414-2.624 3.429ZM68.913 59.57a20.81 20.81 0 0 0 2.32.82c.278-1 .432-2.03.459-3.067-.133-.74-.458-.946-.458-.946l-.081.118s-2.461 2.941-2.24 3.074Z"/><path fill="#001459" d="M71.152 56.392a2.669 2.669 0 0 1-.51 2.35l-.997 1.16h-1.027a11.003 11.003 0 0 1-.451-1.663 362.89 362.89 0 0 0 2.985-1.847Z"/><path fill="#023597" d="M80.745 32.61s.99 5.824.739 7.96a37.308 37.308 0 0 0-.14 4.434l.31.273.088.06s.104 0 .222-4.206a25.945 25.945 0 0 0-1.057-7.863s-.051-.28-.162-.657Z"/><path fill="#001459" d="M81.1 93.024c.32-.178.617-.394.886-.643a44.74 44.74 0 0 1-1.773-9.215 27.727 27.727 0 0 0 1.877-5.683c-.133.532-1.76 3.407-2.49 6.355-.732 2.949 1.5 9.186 1.5 9.186Z"/><path fill="#E2B1A6" d="M73.857 25.746a8.441 8.441 0 0 0 1.286 3.192 26.414 26.414 0 0 1 1.537 1.98c.54.075.91.097.91.097s.871.354 1.24-.215c.424-.662.652-1.43.658-2.217 0 0-3.118-.325-4.308-1.152a2.956 2.956 0 0 1-1.323-1.685Z"/><path fill="#4574A0" d="M72.727 54.419s.17.354.2.384c.029.03.073-.274.073-.274s-.14-.288-.148-.288c-.007 0-.125.178-.125.178Z"/><path fill="#023597" d="M81.772 45.351s2.172 6.94 2.897 8.617l-.045 1.67s-2.786-8.617-2.852-10.287Z"/><path fill="#023597" d="M83.87 47.827a.739.739 0 0 1-.45.938.773.773 0 0 1-.45-1.478.74.74 0 0 1 .9.54Zm1.11 2.993a.74.74 0 1 1-1.434.362.74.74 0 0 1 1.433-.362Z"/><path fill="#936D6D" d="M74.057 22.96a1.226 1.226 0 0 1-.082-.459v-.827a1.139 1.139 0 0 0-.059-.422 2.658 2.658 0 0 1-.11-.517s-3.385 2.468-5.528 2.564c1.803 2.883 3.288 3.385 3.288 3.385s.614-.126.06-.739c-.555-.613-1.56-2.217-.74-2.742.82-.524 2.291.584 2.484.828.073.096.147.214.214.318a.407.407 0 0 0 .525.17l.066-.037a.405.405 0 0 0 .273-.517l-.391-1.006Z"/><path fill="#001459" d="M67.65 113.73c.988.233 1.994.379 3.007.436 1.478.06 5.499.865 5.402 2.365-.096 1.5-2.217 3.695-4.833 3.991-2.616.295-6.022-.436-7.744-.392a2.404 2.404 0 0 1-2.03-1.089 2.407 2.407 0 0 1-.187-2.295c.657-1.671 6.385-3.016 6.385-3.016Zm-8.876-4.042s-.561.909-.288 1.478c.274.569 1.02 1.944 3.422.599 2.401-1.345 7.028-3.237 7.028-3.237s2.645-1.411 2.505-3.082c-.14-1.67-2.587-1.404-2.587-1.404l-10.08 5.646Z"/><path fill="#023597" d="M74.404 86.085s-1.027 10.811-3.2 14.905c-2.172 4.094-2.815 11.824-3.274 13.25-.458 1.427-1.899 3.57-4.153 4.021-2.254.45-2.623-1.087-2.512-2.011.11-.923.739-2.401.739-3.399a10.285 10.285 0 0 0-.259-1.914s-2.587.739-2.956-1.241c.107-.286.189-.58.244-.88.037-.295-.222-7.538-.28-8.417.084-2.679.46-5.34 1.122-7.937.74-2.313.48-7.227.48-7.227l7.354-1.028 6.695 1.878Z"/><path fill="url(#ah)" d="M59.86 92.462c.74-2.313.48-7.227.48-7.227l.644-.089c0 .68.177 4.996-.473 7.117a36.746 36.746 0 0 0-1.116 7.936c.066.872.325 8.129.295 8.403a5.694 5.694 0 0 1-.243.879c.391 2.003 2.956 1.242 2.956 1.242.141.629.228 1.269.258 1.914 0 .997-.635 2.483-.739 3.399-.103.916.259 2.454 2.513 2.003a.92.92 0 0 0 .2-.059 4.234 4.234 0 0 1-.88.28c-2.254.444-2.623-1.086-2.513-2.01.111-.923.74-2.401.74-3.399a12.25 12.25 0 0 0-.26-2.003s-2.586.85-2.955-1.153c.107-.285.188-.579.244-.879.037-.296-.222-7.538-.281-8.417a36.87 36.87 0 0 1 1.13-7.937Z"/><path fill="#001459" d="M62.514 86.04a8.24 8.24 0 0 0 .739 3.104s0 5.75.576 8.661c0 0-.953 5.846-1.552 7.686-.598 1.84-.525 5.468-.525 5.468a2.478 2.478 0 0 1-.739.126c-.42 0-.45-7.146.2-8.41.65-1.264 1.13-6.836.887-8.535-.244-1.7-.163-6.526-.48-7.39a1.078 1.078 0 0 1 .399-1.3l.495.59Zm6.192-39.026a5.276 5.276 0 0 1 2.025 4.212l-1.581-.34s.465-2.956-.444-3.872Z"/><path fill="#001459" d="M67.871 88.376c-4.87.147-7.5-2.01-7.5-2.01v-1.131l7.352-1.028 6.71 1.878s-.206 2.128-.62 4.862c-1.197.126-2.365-2.808-2.365-2.808l-3.348.207s4.649-.089-.229.03Z"/><path fill="#021539" d="M73.458 86.24s-10.59 4.33-15.718-3.88a1.477 1.477 0 0 1-.2-.805l.067-1.915a2.046 2.046 0 0 0-.104-.739 3.155 3.155 0 0 1-.11-1.53c.398-2.135 1.477-7.943 1.729-9.562.303-1.966-.74-9.836-2.498-13.243-1.759-3.406 2.72-10.915 2.72-10.915a2.89 2.89 0 0 1 3.229-1.16s-2.04 1.426-.924 2.956 4.47 2.727 4.47 2.727 6.194 3.207 8.315 7.124c.485 1.488.754 3.039.798 4.604.059 2.601-.23 8.868-.118 9.71.11.843.435 6.814.406 7.095-.03.28-2.062 9.533-2.062 9.533Z"/><path fill="#1E3EE3" d="M61.575 43.622a1.537 1.537 0 0 1 .037-1.205 3.26 3.26 0 0 1 .96.111c-.4.297-.738.668-.997 1.094Z"/><path fill="#023597" d="M70.25 87.126s-6.244-16.849-5.911-22.968c.288-5.963 9.104 12.083 9.104 12.083l.045 9.999c-1.05.39-2.134.687-3.237.886Z"/><path fill="url(#ai)" d="M57.673 77.283c.083.237.118.488.104.74l-.067 1.898c-.011.281.06.559.207.798 5.106 8.13 15.667 3.858 15.667 3.858s1.478-6.651 1.906-8.78v.954c-.037.28-2.061 9.518-2.061 9.518s-10.59 4.33-15.719-3.88a1.478 1.478 0 0 1-.2-.805l.067-1.914a2.048 2.048 0 0 0-.103-.739 3.156 3.156 0 0 1-.111-1.53c.044-.221.096-.495.148-.79.026.23.081.455.162.672Z"/><path fill="url(#aj)" d="M56.794 53.11c1.751 3.393 2.793 11.211 2.49 13.162 0 .177-.066.421-.118.695 0-2.823-.983-9.341-2.542-12.364a5.675 5.675 0 0 1-.215-3.576 4.265 4.265 0 0 0 .385 2.084Z"/><path fill="#001459" d="M73.613 67.218a27.763 27.763 0 0 1-.37-4.131c0-2.394-.701-6.37-5.04-5.683-6.126.976-3.502 9.563-2.83 11.085.673 1.522 3.355 8.314 3.496 8.698.14.384 4.375 8.868 5.912 10.893a.362.362 0 0 0 .547.066c.613-.524 1.995-1.766 2.172-2.556.237-1.013-.65-4.686-.65-4.686s-2.387-9.178-2.586-9.607c-.2-.428-.281-1.847-.65-4.079Z"/><path fill="#FCD1C5" d="M68.603 47.206a2.172 2.172 0 0 1 1.61-1.227c1.124-.11 1.76-.421 1.878-.842a8.245 8.245 0 0 1 .384-1.538c.236-.706.404-1.434.503-2.172 0 0 .85-.296.887-.673.037-.377-.4-1.714-.348-1.818a3.45 3.45 0 0 0 .444-1.566 8.07 8.07 0 0 0-.488-2.343c-.34-.783-2.72-5.535-8.92-3.089-6.2 2.446-1.478 7.73-2.12 11.144 0 0-.555.74.465 1.936 1.02 1.198 3.99 1.493 5.705 2.188Z"/><path fill="#E2B1A6" d="M62.898 45.018c-1.02-1.219-.466-1.936-.466-1.936a4.587 4.587 0 0 0 0-1.522l2.454.473s3.62-3.222 3.37-1.478c-.252 1.744.62 2.04.62 2.04l-.739.945c-.192.244-.074.525.082.791 1.027 1.781 3.54 1.25 3.547 1.25a3.562 3.562 0 0 1-1.53.42 2.173 2.173 0 0 0-1.611 1.227c-1.737-.717-4.7-.983-5.727-2.21Z"/><path fill="#AA8383" d="M73.71 33.217s.435 1.27-.267 1.81-1.337 1.042-1.337 1.042v1.611c0 .231-.067.457-.192.65l-.88 1.368a1.626 1.626 0 0 0-.266.886v.658a.377.377 0 0 1-.332.377h-.23a.378.378 0 0 1-.413-.34l-.097-.916s-.458-.74-1.477.14l-.917.377a.968.968 0 0 0-.554.576c-.259.703-.806 2.1-1.212 2.328-.554.318-2.697-.79-2.956-1.285-.259-.496-1.012-3.755-1.478-5.314-.466-1.56-.185-5.38 4.434-6.355 4.619-.976 7.567 1.005 8.173 2.387Z"/><path fill="#936D6D" d="M62.573 42.528c-.289-.488-1.013-3.754-1.478-5.313a11.267 11.267 0 0 0 4.101 1.544c2.32.355 6.917-2.261 6.917-2.261v1.182c0 .231-.067.457-.192.65l-.88 1.368a1.625 1.625 0 0 0-.266.886v.658a.377.377 0 0 1-.332.377h-.23a.378.378 0 0 1-.413-.34l-.096-.916s-.458-.74-1.478.14l-1.323.547s-.805 2.424-1.36 2.734c-.554.31-2.682-.76-2.97-1.256Z"/><path fill="#F0F6FF" d="M62.477 42.683s-1.796 1.109-.895 2.675c.902 1.567 7.39 4.383 7.73 4.804 0 0 .259-2.357-.606-3.148 0 0-4.988-.976-5.756-2.217a2.593 2.593 0 0 1-.473-2.114Z"/><path fill="#C4CCD6" d="M62.477 42.683a2.595 2.595 0 0 0 .473 2.084c.583.961 3.576 1.752 5.003 2.077a5.263 5.263 0 0 0-1.42 1.81c-1.995-1.034-4.433-2.372-4.95-3.296-.902-1.566.894-2.675.894-2.675Z"/><path fill="#023597" d="M61.265 47.701s2.904 1.663 4.316 2.417a48.708 48.708 0 0 1 2.956 1.751l.539-.54.65 1.434c1.171.7 2.266 1.52 3.267 2.446a11.36 11.36 0 0 1 1.95 2.92s-2.778-3.651-4.973-4.73l-.584-.296-.332-1.138-.54.57s-6.362-3.844-7.25-4.834Z"/><path fill="url(#ak)" d="M68.743 96.903c.074-.238.209-.452.392-.62l11.964-10.021c.31-.266.614-.06.673.45l1.397 11.655a1.841 1.841 0 0 1-.466 1.478l-10.013 8.668.28 3.392-2.956-1.404a.74.74 0 0 1-.258-.569L68.64 97.746c-.025-.285.01-.572.103-.843Z"/><path fill="#021539" d="m84.307 87.415-2.816-1.22-.096-.044a.4.4 0 0 0-.333.11L69.135 96.276a1.404 1.404 0 0 0-.392.621l.429.207 2.424 1.175 10.457-8.934 2.254-1.93Z"/><path fill="#023597" d="M85.6 101.153 73.406 111.78c-.332.295-.65.066-.702-.496l-1.212-12.245a1.92 1.92 0 0 1 .496-1.478l11.927-10.043c.31-.266.613-.066.68.451l1.478 11.713a1.839 1.839 0 0 1-.473 1.471Z"/><path fill="#001459" d="m71.19 110.568-1.176-12.216a1.914 1.914 0 0 1 .503-1.478L82.43 86.838a.437.437 0 0 1 .28-.118.386.386 0 0 0-.384.096L70.414 96.852a1.935 1.935 0 0 0-.503 1.478l1.145 12.215c.037.385.193.629.4.636-.134-.067-.237-.296-.267-.613Z"/><path fill="#001459" d="m75.557 92.588-.628-.318a.628.628 0 0 0-.385-.066h-.051c-.067 0-.096.074-.089.17v.118l1.759.872v-.111a.518.518 0 0 0-.133-.288l-.06-.06a1.39 1.39 0 0 0-.413-.317Z"/><path fill="#001459" d="m75.335 94.095.843-.716-1.745-1.124-.827.695 1.73 1.145Z"/><path fill="url(#al)" d="m74.715 93.297-.629-.317a.63.63 0 0 0-.384-.067h-.052c-.066 0-.096.081-.088.177v.119l1.758.879v-.118a.495.495 0 0 0-.132-.281l-.06-.066a1.387 1.387 0 0 0-.413-.326Z"/><path fill="#722318" d="m74.338 93.593-.052-.51.052.022.051.517-.051-.03Zm-.052-.51.864-.702.045.022-.857.702-.052-.022Z"/><path fill="#001459" d="m79.34 89.395-.62-.303a.54.54 0 0 0-.385-.066h-.051c-.06 0-.096.081-.082.177v.111l1.745.865v-.111a.583.583 0 0 0-.133-.281l-.06-.067a1.546 1.546 0 0 0-.413-.325Z"/><path fill="#001459" d="m79.133 90.888.836-.702-1.744-1.116-.82.687 1.728 1.131Z"/><path fill="url(#am)" d="m78.513 90.097-.628-.303a.584.584 0 0 0-.385-.073h-.051c-.06 0-.09.08-.082.17V90l1.752.872v-.11a.473.473 0 0 0-.133-.281l-.06-.067a1.516 1.516 0 0 0-.413-.318Z"/><path fill="#722318" d="m78.143 90.393-.059-.502.052.022.06.51-.053-.03Zm-.059-.503.858-.694.044.022-.85.695-.052-.022Z"/><path fill="#021539" d="m73.946 90.637.229 2.18.562-.48-.222-2.107a1.146 1.146 0 0 1 .34-.894l2.431-2.025c.214-.184.414-.08.45.222l.23 2.091.562-.472-.244-2.144c-.074-.665-.525-.886-.998-.487l-2.594 2.157a2.521 2.521 0 0 0-.746 1.959Z"/><path fill="#021539" d="m78.144 87.163-1.006-.103-2.896 2.675-.126 1.663.06 1.397.642.317v-1.729l.037-1.19.599-.857s1.086-.872 1.093-.901c.008-.03 1.597-1.272 1.597-1.272Zm.472 2.779-.642-.318-.178-1.544.62.052.186.03.014 1.78Zm-.022-3.252-.694-.34.184.37.23.082.28-.111Z"/><path fill="#001459" d="m74.596 90.962.222 2.173.569-.473-.2-2.114a1.118 1.118 0 0 1 .34-.887l2.424-2.032c.222-.185.421-.081.458.222l.237 2.091.554-.473-.244-2.143c-.074-.672-.525-.894-.997-.495l-2.624 2.165a2.505 2.505 0 0 0-.739 1.966Z"/><path fill="#FCD1C5" d="M77.308 85.479c.188.874.287 1.766.296 2.66a3.555 3.555 0 0 1-1.744 1.752c-.614.192-.37-.54-.503-.998a6.537 6.537 0 0 1-.118-1.478l2.07-1.936Z"/><path fill="#E2B1A6" d="m75.24 87.437 2.068-1.958s.082.436.163.96a5.129 5.129 0 0 1-2.165 2.217 8.269 8.269 0 0 1-.067-1.219Z"/><path fill="#001459" d="M77.463 85.641s-.739 2.284-2.571 2.505l.628-2.505s1.544-.443 1.596-.443c.052 0 .347.443.347.443Z"/><path fill="url(#an)" d="M65.521 58.757c-1.7 5.173 2.557 13.228 3.17 15.578.614 2.35 7.095 13.36 7.095 13.368l.067.111c-.137.105-.28.202-.43.288a1.48 1.48 0 0 1-.287.111.376.376 0 0 1-.37-.155c-1.515-2.04-5.757-10.53-5.912-10.893-.155-.362-2.823-7.19-3.495-8.698-.517-1.204-2.328-6.99.162-9.71Z"/></g><defs><linearGradient id="b" x1="224.834" x2="170.889" y1="82.256" y2="82.256" gradientUnits="userSpaceOnUse"><stop offset=".67" stop-color="#1A1A63"/><stop offset=".81" stop-color="#19105D"/><stop offset="1" stop-color="#180D5B"/></linearGradient><linearGradient id="c" x1="221.698" x2="167.747" y1="83.878" y2="83.878" gradientUnits="userSpaceOnUse"><stop stop-color="#326BFE"/><stop offset="1" stop-color="#180D5B"/></linearGradient><linearGradient id="d" x1="218.563" x2="164.612" y1="85.493" y2="85.493" gradientUnits="userSpaceOnUse"><stop stop-color="#118EFA"/><stop offset="1" stop-color="#180D5B"/></linearGradient><linearGradient id="e" x1="169.295" x2="169.295" y1="134.657" y2="5.169" gradientUnits="userSpaceOnUse"><stop stop-color="#5761D7"/><stop offset=".18" stop-color="#5C66D9"/><stop offset=".39" stop-color="#6A73DF"/><stop offset=".61" stop-color="#8289E8"/><stop offset=".85" stop-color="#A3A7F5"/><stop offset="1" stop-color="#BCBEFF"/></linearGradient><linearGradient id="f" x1="189.952" x2="189.952" y1="39.685" y2="30.412" gradientUnits="userSpaceOnUse"><stop stop-color="#C0BFF6"/><stop offset=".29" stop-color="#C5C4F7"/><stop offset=".64" stop-color="#D3D2F9"/><stop offset="1" stop-color="#E9E9FD"/></linearGradient><linearGradient id="g" x1="182.019" x2="221.828" y1="127.593" y2="45.971" gradientUnits="userSpaceOnUse"><stop stop-color="#C0BFF6"/><stop offset=".29" stop-color="#C5C4F7"/><stop offset=".64" stop-color="#D3D2F9"/><stop offset="1" stop-color="#E9E9FD"/></linearGradient><linearGradient id="h" x1="103" x2="217.5" y1="25" y2="87.5" gradientUnits="userSpaceOnUse"><stop stop-color="#0E3787"/><stop offset="1" stop-color="#3772E7"/></linearGradient><linearGradient id="j" x1="128.873" x2="123.172" y1="130.171" y2="140.806" gradientUnits="userSpaceOnUse"><stop stop-color="#C0BFF6"/><stop offset=".29" stop-color="#C5C4F7"/><stop offset=".64" stop-color="#D3D2F9"/><stop offset="1" stop-color="#E9E9FD"/></linearGradient><linearGradient id="k" x1="142.336" x2="136.637" y1="143.102" y2="153.734" gradientUnits="userSpaceOnUse"><stop stop-color="#C0BFF6"/><stop offset=".29" stop-color="#C5C4F7"/><stop offset=".64" stop-color="#D3D2F9"/><stop offset="1" stop-color="#E9E9FD"/></linearGradient><linearGradient id="l" x1="155.818" x2="150.119" y1="156.849" y2="167.481" gradientUnits="userSpaceOnUse"><stop stop-color="#C0BFF6"/><stop offset=".29" stop-color="#C5C4F7"/><stop offset=".64" stop-color="#D3D2F9"/><stop offset="1" stop-color="#E9E9FD"/></linearGradient><linearGradient id="m" x1="169.211" x2="163.512" y1="166.648" y2="177.28" gradientUnits="userSpaceOnUse"><stop stop-color="#C0BFF6"/><stop offset=".29" stop-color="#C5C4F7"/><stop offset=".64" stop-color="#D3D2F9"/><stop offset="1" stop-color="#E9E9FD"/></linearGradient><linearGradient id="n" x1="182.652" x2="176.952" y1="178.676" y2="189.311" gradientUnits="userSpaceOnUse"><stop stop-color="#C0BFF6"/><stop offset=".29" stop-color="#C5C4F7"/><stop offset=".64" stop-color="#D3D2F9"/><stop offset="1" stop-color="#E9E9FD"/></linearGradient><linearGradient id="o" x1="135.143" x2="118.519" y1="140.783" y2="141.179" gradientUnits="userSpaceOnUse"><stop stop-color="#C0BFF6"/><stop offset=".29" stop-color="#C5C4F7"/><stop offset=".64" stop-color="#D3D2F9"/><stop offset="1" stop-color="#E9E9FD"/></linearGradient><linearGradient id="p" x1="128.675" x2="122.975" y1="121.848" y2="132.483" gradientUnits="userSpaceOnUse"><stop stop-color="#C0BFF6"/><stop offset=".29" stop-color="#C5C4F7"/><stop offset=".64" stop-color="#D3D2F9"/><stop offset="1" stop-color="#E9E9FD"/></linearGradient><linearGradient id="q" x1="129.114" x2="120.8" y1="143.295" y2="143.492" gradientUnits="userSpaceOnUse"><stop stop-color="#C0BFF6"/><stop offset=".29" stop-color="#C5C4F7"/><stop offset=".64" stop-color="#D3D2F9"/><stop offset="1" stop-color="#E9E9FD"/></linearGradient><linearGradient id="r" x1="120.728" x2="118.504" y1="140.49" y2="140.543" gradientUnits="userSpaceOnUse"><stop stop-color="#E9E9FD"/><stop offset=".36" stop-color="#D3D2F9"/><stop offset=".71" stop-color="#C5C4F7"/><stop offset="1" stop-color="#C0BFF6"/></linearGradient><linearGradient id="s" x1="135.173" x2="129.088" y1="142.051" y2="142.195" gradientUnits="userSpaceOnUse"><stop stop-color="#5761D7"/><stop offset=".18" stop-color="#5C66D9"/><stop offset=".39" stop-color="#6A73DF"/><stop offset=".61" stop-color="#8289E8"/><stop offset=".85" stop-color="#A3A7F5"/><stop offset="1" stop-color="#BCBEFF"/></linearGradient><linearGradient id="t" x1="148.478" x2="131.854" y1="150.894" y2="151.289" gradientUnits="userSpaceOnUse"><stop stop-color="#C0BFF6"/><stop offset=".29" stop-color="#C5C4F7"/><stop offset=".64" stop-color="#D3D2F9"/><stop offset="1" stop-color="#E9E9FD"/></linearGradient><linearGradient id="u" x1="142.138" x2="136.439" y1="134.78" y2="145.411" gradientUnits="userSpaceOnUse"><stop stop-color="#C0BFF6"/><stop offset=".29" stop-color="#C5C4F7"/><stop offset=".64" stop-color="#D3D2F9"/><stop offset="1" stop-color="#E9E9FD"/></linearGradient><linearGradient id="v" x1="142.449" x2="134.139" y1="153.409" y2="153.607" gradientUnits="userSpaceOnUse"><stop stop-color="#C0BFF6"/><stop offset=".29" stop-color="#C5C4F7"/><stop offset=".64" stop-color="#D3D2F9"/><stop offset="1" stop-color="#E9E9FD"/></linearGradient><linearGradient id="w" x1="134.067" x2="131.839" y1="150.604" y2="150.657" gradientUnits="userSpaceOnUse"><stop stop-color="#E9E9FD"/><stop offset=".36" stop-color="#D3D2F9"/><stop offset=".71" stop-color="#C5C4F7"/><stop offset="1" stop-color="#C0BFF6"/></linearGradient><linearGradient id="x" x1="148.508" x2="142.423" y1="152.165" y2="152.31" gradientUnits="userSpaceOnUse"><stop stop-color="#5761D7"/><stop offset=".18" stop-color="#5C66D9"/><stop offset=".39" stop-color="#6A73DF"/><stop offset=".61" stop-color="#8289E8"/><stop offset=".85" stop-color="#A3A7F5"/><stop offset="1" stop-color="#BCBEFF"/></linearGradient><linearGradient id="y" x1="161.827" x2="145.203" y1="161.42" y2="161.815" gradientUnits="userSpaceOnUse"><stop stop-color="#C0BFF6"/><stop offset=".29" stop-color="#C5C4F7"/><stop offset=".64" stop-color="#D3D2F9"/><stop offset="1" stop-color="#E9E9FD"/></linearGradient><linearGradient id="z" x1="155.621" x2="149.922" y1="148.526" y2="159.158" gradientUnits="userSpaceOnUse"><stop stop-color="#C0BFF6"/><stop offset=".29" stop-color="#C5C4F7"/><stop offset=".64" stop-color="#D3D2F9"/><stop offset="1" stop-color="#E9E9FD"/></linearGradient><linearGradient id="A" x1="155.797" x2="147.487" y1="163.931" y2="164.129" gradientUnits="userSpaceOnUse"><stop stop-color="#C0BFF6"/><stop offset=".29" stop-color="#C5C4F7"/><stop offset=".64" stop-color="#D3D2F9"/><stop offset="1" stop-color="#E9E9FD"/></linearGradient><linearGradient id="B" x1="147.416" x2="145.187" y1="161.127" y2="161.18" gradientUnits="userSpaceOnUse"><stop stop-color="#E9E9FD"/><stop offset=".36" stop-color="#D3D2F9"/><stop offset=".71" stop-color="#C5C4F7"/><stop offset="1" stop-color="#C0BFF6"/></linearGradient><linearGradient id="C" x1="161.857" x2="155.771" y1="162.687" y2="162.832" gradientUnits="userSpaceOnUse"><stop stop-color="#5761D7"/><stop offset=".18" stop-color="#5C66D9"/><stop offset=".39" stop-color="#6A73DF"/><stop offset=".61" stop-color="#8289E8"/><stop offset=".85" stop-color="#A3A7F5"/><stop offset="1" stop-color="#BCBEFF"/></linearGradient><linearGradient id="D" x1="175.124" x2="158.504" y1="169.968" y2="170.363" gradientUnits="userSpaceOnUse"><stop stop-color="#C0BFF6"/><stop offset=".29" stop-color="#C5C4F7"/><stop offset=".64" stop-color="#D3D2F9"/><stop offset="1" stop-color="#E9E9FD"/></linearGradient><linearGradient id="E" x1="169.013" x2="163.314" y1="158.325" y2="168.957" gradientUnits="userSpaceOnUse"><stop stop-color="#C0BFF6"/><stop offset=".29" stop-color="#C5C4F7"/><stop offset=".64" stop-color="#D3D2F9"/><stop offset="1" stop-color="#E9E9FD"/></linearGradient><linearGradient id="F" x1="167.031" x2="163.205" y1="159.512" y2="166.649" gradientUnits="userSpaceOnUse"><stop stop-color="#5761D7"/><stop offset=".18" stop-color="#5C66D9"/><stop offset=".39" stop-color="#6A73DF"/><stop offset=".61" stop-color="#8289E8"/><stop offset=".85" stop-color="#A3A7F5"/><stop offset="1" stop-color="#BCBEFF"/></linearGradient><linearGradient id="G" x1="169.099" x2="160.785" y1="172.479" y2="172.676" gradientUnits="userSpaceOnUse"><stop stop-color="#C0BFF6"/><stop offset=".29" stop-color="#C5C4F7"/><stop offset=".64" stop-color="#D3D2F9"/><stop offset="1" stop-color="#E9E9FD"/></linearGradient><linearGradient id="H" x1="160.714" x2="158.489" y1="169.674" y2="169.727" gradientUnits="userSpaceOnUse"><stop stop-color="#E9E9FD"/><stop offset=".36" stop-color="#D3D2F9"/><stop offset=".71" stop-color="#C5C4F7"/><stop offset="1" stop-color="#C0BFF6"/></linearGradient><linearGradient id="I" x1="175.154" x2="169.073" y1="171.235" y2="171.379" gradientUnits="userSpaceOnUse"><stop stop-color="#5761D7"/><stop offset=".18" stop-color="#5C66D9"/><stop offset=".39" stop-color="#6A73DF"/><stop offset=".61" stop-color="#8289E8"/><stop offset=".85" stop-color="#A3A7F5"/><stop offset="1" stop-color="#BCBEFF"/></linearGradient><linearGradient id="J" x1="174.826" x2="158.206" y1="157.435" y2="157.83" gradientUnits="userSpaceOnUse"><stop stop-color="#C0BFF6"/><stop offset=".29" stop-color="#C5C4F7"/><stop offset=".64" stop-color="#D3D2F9"/><stop offset="1" stop-color="#E9E9FD"/></linearGradient><linearGradient id="K" x1="168.831" x2="163.132" y1="150.678" y2="161.31" gradientUnits="userSpaceOnUse"><stop stop-color="#C0BFF6"/><stop offset=".29" stop-color="#C5C4F7"/><stop offset=".64" stop-color="#D3D2F9"/><stop offset="1" stop-color="#E9E9FD"/></linearGradient><linearGradient id="L" x1="168.801" x2="160.487" y1="159.946" y2="160.144" gradientUnits="userSpaceOnUse"><stop stop-color="#C0BFF6"/><stop offset=".29" stop-color="#C5C4F7"/><stop offset=".64" stop-color="#D3D2F9"/><stop offset="1" stop-color="#E9E9FD"/></linearGradient><linearGradient id="M" x1="160.416" x2="158.191" y1="157.142" y2="157.195" gradientUnits="userSpaceOnUse"><stop stop-color="#E9E9FD"/><stop offset=".36" stop-color="#D3D2F9"/><stop offset=".71" stop-color="#C5C4F7"/><stop offset="1" stop-color="#C0BFF6"/></linearGradient><linearGradient id="N" x1="174.857" x2="168.775" y1="158.703" y2="158.847" gradientUnits="userSpaceOnUse"><stop stop-color="#5761D7"/><stop offset=".18" stop-color="#5C66D9"/><stop offset=".39" stop-color="#6A73DF"/><stop offset=".61" stop-color="#8289E8"/><stop offset=".85" stop-color="#A3A7F5"/><stop offset="1" stop-color="#BCBEFF"/></linearGradient><linearGradient id="O" x1="188.453" x2="171.828" y1="179.63" y2="180.025" gradientUnits="userSpaceOnUse"><stop stop-color="#C0BFF6"/><stop offset=".29" stop-color="#C5C4F7"/><stop offset=".64" stop-color="#D3D2F9"/><stop offset="1" stop-color="#E9E9FD"/></linearGradient><linearGradient id="P" x1="182.454" x2="176.755" y1="170.353" y2="180.985" gradientUnits="userSpaceOnUse"><stop stop-color="#C0BFF6"/><stop offset=".29" stop-color="#C5C4F7"/><stop offset=".64" stop-color="#D3D2F9"/><stop offset="1" stop-color="#E9E9FD"/></linearGradient><linearGradient id="Q" x1="182.423" x2="174.113" y1="182.141" y2="182.339" gradientUnits="userSpaceOnUse"><stop stop-color="#C0BFF6"/><stop offset=".29" stop-color="#C5C4F7"/><stop offset=".64" stop-color="#D3D2F9"/><stop offset="1" stop-color="#E9E9FD"/></linearGradient><linearGradient id="R" x1="174.042" x2="171.813" y1="179.337" y2="179.39" gradientUnits="userSpaceOnUse"><stop stop-color="#E9E9FD"/><stop offset=".36" stop-color="#D3D2F9"/><stop offset=".71" stop-color="#C5C4F7"/><stop offset="1" stop-color="#C0BFF6"/></linearGradient><linearGradient id="S" x1="188.483" x2="182.397" y1="180.897" y2="181.042" gradientUnits="userSpaceOnUse"><stop stop-color="#5761D7"/><stop offset=".18" stop-color="#5C66D9"/><stop offset=".39" stop-color="#6A73DF"/><stop offset=".61" stop-color="#8289E8"/><stop offset=".85" stop-color="#A3A7F5"/><stop offset="1" stop-color="#BCBEFF"/></linearGradient><linearGradient id="U" x1="269.149" x2="230" y1="134.664" y2="113.307" gradientUnits="userSpaceOnUse"><stop stop-color="#182484"/><stop offset=".09" stop-color="#1A2D89"/><stop offset=".25" stop-color="#1E4496"/><stop offset=".44" stop-color="#256AAB"/><stop offset=".66" stop-color="#2F9EC9"/><stop offset=".9" stop-color="#3CE1EE"/><stop offset="1" stop-color="#42FFFF"/></linearGradient><linearGradient id="V" x1="237.682" x2="264.846" y1="127.9" y2="127.9" gradientUnits="userSpaceOnUse"><stop stop-color="#2B3AA5"/><stop offset="1" stop-color="#182484"/></linearGradient><linearGradient id="W" x1="245.986" x2="221.188" y1="134.465" y2="120.439" gradientUnits="userSpaceOnUse"><stop stop-color="#0C21CC"/><stop offset="1" stop-color="#426CFF"/></linearGradient><linearGradient id="X" x1="256.668" x2="224.703" y1="81.63" y2="60.977" gradientUnits="userSpaceOnUse"><stop stop-color="#5E90F0"/><stop offset="1" stop-color="#164093"/></linearGradient><linearGradient id="Y" x1="237.682" x2="264.846" y1="80.458" y2="80.458" gradientUnits="userSpaceOnUse"><stop stop-color="#2B3AA5"/><stop offset="1" stop-color="#182484"/></linearGradient><linearGradient id="Z" x1="242.824" x2="220.504" y1="85.175" y2="72.656" gradientUnits="userSpaceOnUse"><stop stop-color="#040C51"/><stop offset="1" stop-color="#3F6DE3"/></linearGradient><linearGradient id="aa" x1="281.374" x2="226.707" y1="111.451" y2="100.266" gradientUnits="userSpaceOnUse"><stop stop-color="#182484"/><stop offset="1" stop-color="#062678"/></linearGradient><linearGradient id="ab" x1="264.741" x2="227.503" y1="125.271" y2="101.214" gradientUnits="userSpaceOnUse"><stop stop-color="#1127D9"/><stop offset="1" stop-color="#174294"/></linearGradient><linearGradient id="ac" x1="254.34" x2="224.25" y1="125.994" y2="110.031" gradientUnits="userSpaceOnUse"><stop stop-color="#182484"/><stop offset="1" stop-color="#1240B7"/></linearGradient><linearGradient id="ad" x1="250.332" x2="224.699" y1="74.794" y2="69.037" gradientUnits="userSpaceOnUse"><stop stop-color="#0D1874"/><stop offset="1" stop-color="#0C1887"/></linearGradient><linearGradient id="ae" x1="244.113" x2="244.113" y1="77.442" y2="42.08" gradientUnits="userSpaceOnUse"><stop stop-color="#2C7FFB"/><stop offset=".832" stop-color="#182484" stop-opacity=".15"/></linearGradient><linearGradient id="af" x1="84.454" x2="73.037" y1="72.531" y2="72.531" gradientUnits="userSpaceOnUse"><stop stop-color="#5761D7"/><stop offset="1" stop-color="#2112CB"/></linearGradient><linearGradient id="ag" x1="84.403" x2="72.032" y1="61.291" y2="61.291" gradientUnits="userSpaceOnUse"><stop stop-color="#0B1264"/><stop offset="1" stop-color="#0C12A4"/></linearGradient><linearGradient id="ah" x1="65.057" x2="57.563" y1="102.716" y2="102.041" gradientUnits="userSpaceOnUse"><stop stop-color="#5761D7"/><stop offset="1" stop-color="#1E4FCD"/></linearGradient><linearGradient id="ai" x1="74.156" x2="56.147" y1="82.481" y2="80.861" gradientUnits="userSpaceOnUse"><stop stop-color="#1121D9"/><stop offset="1" stop-color="#172284"/></linearGradient><linearGradient id="aj" x1="58.998" x2="54.741" y1="59.61" y2="59.227" gradientUnits="userSpaceOnUse"><stop stop-color="#06129B"/><stop offset="1" stop-color="#061A60"/></linearGradient><linearGradient id="ak" x1="82.151" x2="67.586" y1="100.179" y2="98.868" gradientUnits="userSpaceOnUse"><stop stop-color="#5761D7"/><stop offset="1" stop-color="#0B135C"/></linearGradient><linearGradient id="al" x1="74.445" x2="72.59" y1="94.174" y2="94.007" gradientUnits="userSpaceOnUse"><stop stop-color="#5761D7"/><stop offset="1" stop-color="#030F4D"/></linearGradient><linearGradient id="am" x1="78.264" x2="76.417" y1="90.972" y2="90.805" gradientUnits="userSpaceOnUse"><stop stop-color="#5761D7"/><stop offset=".07" stop-color="#5472D8"/><stop offset=".28" stop-color="#4E9CDB"/><stop offset=".48" stop-color="#49BDDD"/><stop offset=".67" stop-color="#45D5DF"/><stop offset=".85" stop-color="#43E3E0"/><stop offset="1" stop-color="#42E8E0"/></linearGradient><linearGradient id="an" x1="76.168" x2="62.386" y1="74.609" y2="73.369" gradientUnits="userSpaceOnUse"><stop stop-color="#05084D"/><stop offset="1" stop-color="#0F148E"/></linearGradient><clipPath id="i"><path fill="#fff" d="m118.036 120.831 68.98-1.64 1.949 81.977-68.98 1.64z"/></clipPath><clipPath id="T"><path fill="#fff" d="M225 34h38v101h-38z"/></clipPath><filter id="a" width="307" height="210.814" x="-4" y="-.006" color-interpolation-filters="sRGB" filterUnits="userSpaceOnUse"><feFlood flood-opacity="0" result="BackgroundImageFix"/><feColorMatrix in="SourceAlpha" result="hardAlpha" values="0 0 0 0 0 0 0 0 0 0 0 0 0 0 0 0 0 0 127 0"/><feOffset dy="4"/><feGaussianBlur stdDeviation="2"/><feComposite in2="hardAlpha" operator="out"/><feColorMatrix values="0 0 0 0 0 0 0 0 0 0 0 0 0 0 0 0 0 0 0.25 0"/><feBlend in2="BackgroundImageFix" result="effect1_dropShadow_186_20575"/><feBlend in="SourceGraphic" in2="effect1_dropShadow_186_20575" result="shape"/></filter></defs></svg>