<svg xmlns="http://www.w3.org/2000/svg" xmlns:xlink="http://www.w3.org/1999/xlink" fill="none" viewBox="0 0 287 193"><defs><path id="reuse-0" fill="#858585" d="M252.241 103.415c0-4.139-2.923-9.172-6.525-11.24-1.807-1.04-3.443-1.136-4.626-.453l-1.232.72.373.034c-.649.79-1.03 1.956-1.03 3.445 0 4.138 2.923 9.172 6.529 11.243 1.24.709 2.397.98 3.383.858l-.026.33 1.25-.743.052-.029c1.132-.709 1.852-2.146 1.852-4.165Z"/></defs><path fill="#0B0244" d="m168.98 181.692-153-88.36c-1.77-1-1.55-2.82.5-4l91.22-52.67a7.72 7.72 0 0 1 6.94-.28l153 88.361c1.78 1 1.56 2.819-.49 4l-91.23 52.669a7.72 7.72 0 0 1-6.94.28Z" opacity=".3"/><path fill="#F7F7F7" d="M172.24 192.112a7.545 7.545 0 0 1-3.72-.86L1.61 94.842a2.83 2.83 0 0 1-1.61-2.4 3.75 3.75 0 0 1 2.19-3l106.14-61.28c2.5-1.44 6.32-1.6 8.51-.33l166.91 96.41a2.827 2.827 0 0 1 1.61 2.41 3.744 3.744 0 0 1-2.19 3l-106.14 61.27a9.803 9.803 0 0 1-4.79 1.19Zm-3.28-1.6c1.94 1.12 5.37 1 7.63-.34l106.14-61.28a2.919 2.919 0 0 0 1.76-2.25 2.005 2.005 0 0 0-1.18-1.65l-166.9-96.42c-1.94-1.13-5.37-1-7.63.33L2.63 90.182a2.93 2.93 0 0 0-1.76 2.26 2 2 0 0 0 1.18 1.64l166.91 96.43Z"/><path fill="#312A91" d="m275.23 101.842-6.33 1.11-150-86.61a7.999 7.999 0 0 0-7.24.3l-85.79 49.53-11.12 2v3.62a2.11 2.11 0 0 0 1.25 1.85l155 89.55a7.992 7.992 0 0 0 7.24-.3l95.15-54.93a2.994 2.994 0 0 0 1.76-2.35l.08-3.77Z"/><path fill="url(#a)" d="m275.23 101.842-6.33 1.11-150-86.61a7.999 7.999 0 0 0-7.24.3l-85.79 49.53-11.12 2v3.62a2.11 2.11 0 0 0 1.25 1.85l155 89.55a7.992 7.992 0 0 0 7.24-.3l95.15-54.93a2.994 2.994 0 0 0 1.76-2.35l.08-3.77Z" opacity=".5" style="mix-blend-mode:lighten"/><path fill="url(#b)" d="m273.46 105.682-95.15 54.93a8.068 8.068 0 0 1-7.24.3l-155-89.55a2.13 2.13 0 0 1-1.25-1.86v.95a2.14 2.14 0 0 0 1.25 1.86l155 89.55a8.072 8.072 0 0 0 7.24-.3l95.15-54.94a2.994 2.994 0 0 0 1.76-2.35v-.95a2.993 2.993 0 0 1-1.76 2.36Z"/><path fill="#312A91" d="m171.07 159.452-155-89.55c-1.86-1.07-1.63-2.94.52-4.18l95.14-54.93a7.999 7.999 0 0 1 7.24-.3l155.05 89.55c1.85 1.07 1.62 2.94-.52 4.18l-95.19 54.93a8.068 8.068 0 0 1-7.24.3Z"/><path fill="url(#c)" d="m171.07 159.452-155-89.55c-1.86-1.07-1.63-2.94.52-4.18l95.14-54.93a7.999 7.999 0 0 1 7.24-.3l155.05 89.55c1.85 1.07 1.62 2.94-.52 4.18l-95.19 54.93a8.068 8.068 0 0 1-7.24.3Z" opacity=".7" style="mix-blend-mode:lighten"/><g opacity=".4"><path fill="url(#d)" d="m275.23 101.092-6.33 1.11-150-86.62a8 8 0 0 0-7.24.3L25.9 65.412l-11.12 1.95v.68a2.13 2.13 0 0 0 1.25 1.86l155 89.55a8.072 8.072 0 0 0 7.24-.3l95.15-54.93a2.993 2.993 0 0 0 1.76-2.36l.05-.77Z" opacity=".5"/><path fill="url(#e)" d="m171.07 158.693-155-89.55c-1.86-1.07-1.63-2.94.52-4.18l95.14-54.93a8.068 8.068 0 0 1 7.24-.3l155.05 89.55c1.85 1.07 1.62 2.94-.52 4.18l-95.19 54.93a8 8 0 0 1-7.24.3Z" opacity=".7" style="mix-blend-mode:lighten"/><path fill="#312A91" d="m171.07 158.693-155-89.55c-1.86-1.07-1.63-2.94.52-4.18l95.14-54.93a8.068 8.068 0 0 1 7.24-.3l155.05 89.55c1.85 1.07 1.62 2.94-.52 4.18l-95.19 54.93a8 8 0 0 1-7.24.3Z"/></g><path fill="url(#f)" d="m171.07 158.693-155-89.55c-1.86-1.07-1.63-2.94.52-4.18l95.14-54.93a8.068 8.068 0 0 1 7.24-.3l155.05 89.55c1.85 1.07 1.62 2.94-.52 4.18l-95.19 54.93a8 8 0 0 1-7.24.3Z" opacity=".5"/><path fill="url(#g)" d="m171.07 158.693-155-89.55c-1.86-1.07-1.63-2.94.52-4.18l95.14-54.93a8.068 8.068 0 0 1 7.24-.3l155.05 89.55c1.85 1.07 1.62 2.94-.52 4.18l-95.19 54.93a8 8 0 0 1-7.24.3Z" opacity=".5"/><path fill="url(#h)" d="m171.93 158.662-155-89.55c-2-1.22-2.38-2.51.52-4.18l95.14-54.93a8.08 8.08 0 0 1 3.33-1 8.419 8.419 0 0 0-4.19 1l-95.14 54.93c-2.15 1.24-2.38 3.11-.52 4.18l155 89.55a6.902 6.902 0 0 0 3.91.69 6.344 6.344 0 0 1-3.05-.69Z" opacity=".9"/><path fill="#FCCC6B" d="M260.75 105.812a.621.621 0 0 1 0 1.17 2.226 2.226 0 0 1-2 0 .616.616 0 0 1-.3-.943.621.621 0 0 1 .3-.227 2.238 2.238 0 0 1 2 0Z" opacity=".2"/><path fill="#FCCC6B" d="M263.92 103.983a.616.616 0 0 1 .3.943.621.621 0 0 1-.3.227 2.238 2.238 0 0 1-2 0 .621.621 0 0 1 0-1.17 2.226 2.226 0 0 1 2 0Z" opacity=".6"/><path fill="#FCCC6B" d="M267.09 102.143c.57.33.57.86 0 1.18a2.278 2.278 0 0 1-2 0c-.57-.33-.57-.85 0-1.18a2.265 2.265 0 0 1 2 0Z"/><path fill="#180D5B" d="M212.82 141.192c0 .39.28.54.61.35a1.334 1.334 0 0 0 .61-1c0-.39-.27-.55-.61-.35a1.345 1.345 0 0 0-.61 1Zm-2.41 1.381c0 .39.27.55.61.35a1.348 1.348 0 0 0 .6-1.051c0-.39-.27-.539-.6-.349a1.313 1.313 0 0 0-.61 1.05Zm-2.38 1.38c0 .39.28.55.61.36a1.359 1.359 0 0 0 .61-1.06c0-.38-.27-.54-.61-.35a1.374 1.374 0 0 0-.61 1.05Zm37.76-21.791c0 .39.27.54.6.35a1.338 1.338 0 0 0 .61-1.05c0-.39-.27-.55-.61-.35a1.348 1.348 0 0 0-.6 1.05Zm-2.38 1.35c0 .39.27.55.61.35a1.347 1.347 0 0 0 .61-1.05c0-.39-.28-.54-.61-.35a1.325 1.325 0 0 0-.61 1.05Zm-2.41 1.411c0 .39.27.55.6.35a1.325 1.325 0 0 0 .61-1.05c0-.38-.27-.54-.61-.35a1.362 1.362 0 0 0-.6 1.05Zm-16.26 9.39c0 .48.3.7.65.49l4.25-2.45a1.58 1.58 0 0 0 .65-1.25c0-.48-.29-.7-.65-.49l-4.23 2.45a1.588 1.588 0 0 0-.67 1.25Z"/><path fill="#D8D8D8" d="m137.81 49.362 8.75 5.36c4.59-3 4.43-7.49-.48-10.33-3.52-2-8.55-2.66-13-1.87l4.73 6.84Z"/><path fill="#D8D8D8" d="M127.64 51.382c3.14-.82 6.3-1.62 7.84-2l-4.42-6.39c-1.18.33-2.315.804-3.38 1.41-3.64 2.1-4.67 5.14-3.09 7.78l3.05-.8Zm8.98-.929c-3.4.86-7.73 2-11.14 2.86.65.667 1.39 1.24 2.2 1.7 4.73 2.73 12.19 2.92 17.3.56l-8.36-5.12Z" opacity=".4"/><path stroke="#D8D8D8" d="m163.07 78.023-33.163 18.721m60.977-5.349-33.163 18.721M124.558 70 91.395 88.72m74.884-3.743-33.163 18.721m-8.558-24.07-33.163 18.72"/><path stroke="#6889BC" d="m132.047 116 37.441-21.93m-72.744 12.302 37.442-21.93M70 92.465l37.442-21.93"/><path fill="#D8D8D8" d="m93.646 90.86-5.46-3.21 12.726-7.487 5.46 3.21-12.726 7.487Zm53.489 8.558-5.461-3.21L154.4 88.72l5.46 3.21-12.725 7.487Zm23.856 6.419-5.782-3.211 13.475-7.486 5.781 3.21-13.474 7.487ZM106.538 93l-5.515-3.094 21.229-11.883 5.515 3.086L106.538 93Z"/><path fill="#6889BC" d="m106.625 103.698-5.602-3.267 20.073-11.71 5.602 3.267-20.073 11.71Zm36.372 8.558-5.602-3.267 20.073-11.71 5.602 3.267-20.073 11.71Z"/><path fill="#D8D8D8" d="m125.851 102.628-5.572-3.265 25.451-14.921 5.572 3.265-25.451 14.921Z"/><path fill="#6889BC" d="m80.894 88.72-5.545-3.14 26.548-15.045 5.545 3.141-26.548 15.045Z"/><path fill="#1A2279" d="M115.406 40.38 92.249 27.09a.493.493 0 0 1-.182-.673.493.493 0 0 1 .182-.18l23.157-13.28a2.203 2.203 0 0 1 2.189 0l23.16 13.282a.501.501 0 0 1 .247.427.495.495 0 0 1-.247.427l-23.157 13.286a2.207 2.207 0 0 1-2.192 0Z" opacity=".67"/><path fill="url(#i)" d="M116.5 38.858a1.78 1.78 0 0 1-.874-.23L95.774 27.24a.668.668 0 0 1-.335-.577.662.662 0 0 1 .335-.577l19.85-11.384a1.764 1.764 0 0 1 1.749 0l19.853 11.384a.67.67 0 0 1 0 1.156l-19.85 11.384a1.765 1.765 0 0 1-.876.231Zm-.568-.757a1.149 1.149 0 0 0 1.136 0l19.852-11.384a.06.06 0 0 0 .029-.05.062.062 0 0 0-.007-.031.06.06 0 0 0-.022-.023L117.07 15.23a1.14 1.14 0 0 0-1.138 0l-19.85 11.395a.055.055 0 0 0-.03.05.057.057 0 0 0 .03.053l19.852 11.385-.002-.01Z" opacity=".5" style="mix-blend-mode:lighten"/><path fill="#216EC3" d="m116.502 36.196-16.616-9.53 16.616-9.53 16.614 9.53-16.614 9.53Z" opacity=".9"/><path fill="#2B237C" d="m115.602 34.157-12.287-7.046c-.497-.285-.436-.785.138-1.114l12.015-6.878c.574-.33 1.443-.366 1.94-.081l12.287 7.047c.499.286.436.783-.138 1.113l-12.014 6.888c-.575.322-1.45.356-1.941.07Z" opacity=".66"/><path fill="url(#j)" d="m115.602 34.157-12.287-7.046c-.497-.285-.436-.785.138-1.114l12.015-6.878c.574-.33 1.443-.366 1.94-.081l12.287 7.047c.499.286.436.783-.138 1.113l-12.014 6.888c-.575.322-1.45.356-1.941.07Z" opacity=".66"/><path fill="#1B1568" d="m103.315 27.111 1.079.62 11.067-6.35c.575-.329 1.444-.365 1.941-.08l11.2 6.43.941-.541c.574-.33.637-.827.138-1.113l-12.287-7.047c-.497-.286-1.366-.25-1.941.08l-12.014 6.878c-.56.338-.621.838-.124 1.123Z"/><mask id="k" width="29" height="55" x="102" y="-20" maskUnits="userSpaceOnUse" style="mask-type:luminance"><path fill="#fff" d="m129.329-20 .354 46.078c.497.285.434.782-.14 1.112l-12.015 6.888c-.574.33-1.441.364-1.94.079L103.3 27.11c-.496-.285-.433-.785.141-1.114L104.325-20h25.004Z"/></mask><g mask="url(#k)"><path fill="url(#l)" d="m118.302.45-.126-.073c-.471-.27-.849.016-.849.637v36.511c0 .621.378 1.343.849 1.618l.126.073c.47.27.849-.016.849-.637V2.062c-.004-.621-.379-1.343-.849-1.612Z" opacity=".66"/><path fill="url(#m)" d="m121.725 8.23-.126-.073c-.468-.27-.849.016-.849.639v30.693c0 .621.381 1.344.849 1.619l.126.072c.471.27.851-.016.851-.639V9.834c0-.607-.374-1.335-.851-1.604Z" opacity=".66"/><path fill="url(#n)" d="m125.15 17.42-.128-.071c-.468-.271-.849.016-.849.637v11.502c0 .621.381 1.343.849 1.619l.128.072c.469.27.849-.016.849-.637V19.034c0-.623-.38-1.345-.849-1.614Z" opacity=".66"/><path fill="url(#o)" d="m128.543 22.465-.127-.073c-.47-.27-.849.016-.849.637v4.404c0 .623.379 1.345.849 1.618l.127.073c.468.27.849-.018.849-.64v-4.407c0-.621-.381-1.343-.849-1.612Z" opacity=".66"/><path fill="url(#p)" d="m114.7.45.126-.073c.47-.27.849.016.849.637v36.511c0 .621-.379 1.343-.849 1.618l-.126.073c-.469.27-.849-.016-.849-.637V2.062c.002-.621.38-1.343.849-1.612Z" opacity=".66"/><path fill="url(#q)" d="m111.277 8.23.126-.073c.468-.27.849.016.849.639v30.693c0 .621-.381 1.344-.849 1.619l-.126.072c-.471.27-.851-.016-.851-.639V9.834c0-.607.372-1.335.851-1.604Z" opacity=".66"/><path fill="url(#r)" d="m107.852 17.42.128-.071c.468-.271.849.016.849.637v11.502c0 .621-.381 1.343-.849 1.619l-.128.072c-.469.27-.85-.016-.85-.637V19.034c0-.623.381-1.345.85-1.614Z" opacity=".66"/><path fill="url(#s)" d="m104.459 22.465.126-.073c.471-.27.85.016.85.637v4.404c0 .623-.379 1.345-.85 1.618l-.126.073c-.468.27-.849-.018-.849-.64v-4.407c0-.621.381-1.343.849-1.612Z" opacity=".66"/></g><path fill="#1C48E3" d="m188.696 55.099-1.187.48 4.096 10.127 1.187-.48-4.096-10.127Z"/><path fill="url(#t)" d="M168.386 53.677a3.978 3.978 0 0 0 1.074-5.52 3.973 3.973 0 0 0-5.517-1.074 3.977 3.977 0 0 0 4.443 6.594Z"/><path fill="url(#u)" d="M186.69 56.257c0 7.718-4.595 13.975-10.258 13.975-5.663 0-10.259-6.258-10.259-13.975s4.596-10.028 10.259-10.028 10.258 2.309 10.258 10.028Z"/><path fill="#393091" d="M176.427 54.42c3.868 0 7.003-1.811 7.003-4.044 0-2.234-3.135-4.045-7.003-4.045-3.868 0-7.004 1.811-7.004 4.044 0 2.234 3.136 4.044 7.004 4.044Z"/><path fill="#453C9E" d="M171.475 48.594c2.735-1.582 7.169-1.582 9.904 0 1.131.65 1.793 1.471 1.989 2.32.279-1.206-.383-2.472-1.989-3.398-2.735-1.581-7.169-1.581-9.904 0-1.606.933-2.266 2.192-1.989 3.398.199-.849.858-1.67 1.989-2.32Z"/><path fill="url(#v)" d="m168.356 40.769 1.266-2.183a7.063 7.063 0 0 0 1.643-2.834l1.283-2.21-1.861-1.066a1.483 1.483 0 0 0-.186-.108c-.525-.25-1.222-.181-1.989.26-1.625.941-2.954 3.243-2.954 5.11 0 .932.331 1.604.865 1.912l1.933 1.119Z"/><path fill="#BCBEFF" d="M172.507 38.342c1.153-2 1.153-4.16-.001-4.827-1.154-.666-3.025.414-4.179 2.413-1.154 1.999-1.153 4.16.001 4.826 1.154.667 3.025-.413 4.179-2.412Z"/><path fill="url(#w)" d="M180.731 50.445c5.364-2.153 7.968-8.248 5.816-13.614-2.152-5.367-8.245-7.972-13.61-5.819-5.364 2.153-7.968 8.249-5.816 13.615s8.245 7.971 13.61 5.818Z"/><path fill="url(#x)" d="M180.731 50.445c5.364-2.153 7.968-8.248 5.816-13.614-2.152-5.367-8.245-7.972-13.61-5.819-5.364 2.153-7.968 8.249-5.816 13.615s8.245 7.971 13.61 5.818Z"/><path fill="url(#y)" d="m182.691 47.8 1.269-2.182a7.098 7.098 0 0 0 1.648-2.834l1.282-2.21-1.846-1.06a1.147 1.147 0 0 0-.184-.107c-.525-.25-1.222-.182-1.987.259-1.632.933-2.954 3.235-2.954 5.12 0 .932.331 1.601.865 1.912l1.907 1.103Z"/><path fill="#BCBEFF" d="M186.855 45.382c1.154-2 1.154-4.16 0-4.827-1.155-.666-3.025.414-4.179 2.413-1.154 1.999-1.153 4.16.001 4.826 1.154.667 3.025-.414 4.178-2.412Z"/><path fill="#fff" d="M181.948 45.9c0-1.884 1.324-4.177 2.953-5.13a2.477 2.477 0 0 1 1.544-.388c-.466-.107-1.054 0-1.679.364-1.632.933-2.954 3.235-2.954 5.119 0 1.231.565 1.982 1.413 2.099-.771-.159-1.277-.898-1.277-2.064Z"/><path fill="#393091" d="M186.439 44.723c.825-1.435.823-2.985-.005-3.46-.828-.476-2.168.302-2.992 1.737-.825 1.435-.823 2.985.005 3.46.828.477 2.168-.301 2.992-1.737Z"/><path fill="#453C9E" d="M185.981 41.469c.245.327.367.73.345 1.138 0 1.346-.947 2.985-2.112 3.657a1.69 1.69 0 0 1-1.213.259c.378.445 1.026.508 1.765.081 1.166-.674 2.113-2.31 2.113-3.659 0-.816-.357-1.339-.898-1.476Z"/><path fill="#393091" d="M172.352 47.646c1.356-.564 1.662-2.925.686-5.272-.977-2.347-2.868-3.793-4.223-3.228-1.355.564-1.662 2.924-.685 5.272.977 2.347 2.867 3.792 4.222 3.228Z"/><path fill="#1C48E3" d="M172.207 43.897c-.098.748-.662.984-1.261.524a2.619 2.619 0 0 1-.909-2.183c.098-.748.662-.984 1.261-.527a2.611 2.611 0 0 1 .909 2.186Z"/><path fill="#453C9E" d="M170.892 46.833c-1.65-1.26-2.769-3.965-2.501-6.01.107-.84.431-1.444.886-1.782-.861.082-1.514.814-1.679 2.08-.268 2.06.853 4.75 2.502 6.013.976.746 1.918.823 2.58.335-.536.042-1.156-.17-1.788-.636Z"/><path fill="#1C48E3" d="M170.242 47.066c-1.649-1.262-2.77-3.965-2.502-6.01.124-.954.522-1.605 1.08-1.903-.63.261-1.087.933-1.222 1.968-.268 2.06.853 4.75 2.502 6.013.885.676 1.741.802 2.387.466-.634.238-1.425.086-2.245-.534Z"/><path fill="url(#z)" d="M190.366 58.608a3.977 3.977 0 0 0-4.522-6.54 3.977 3.977 0 0 0 4.522 6.54Z"/><path fill="url(#A)" d="M190.366 58.608a3.977 3.977 0 0 0-4.522-6.54 3.977 3.977 0 0 0 4.522 6.54Z" style="mix-blend-mode:lighten"/><path fill="url(#B)" d="M194.444 68.506c-.233 1.89-1.893 5.469-3.404 5.287-1.511-.182-2.289-4.05-2.063-5.94.226-1.89 1.632-3.265 3.14-3.095 1.509.17 2.551 1.859 2.327 3.748Z"/><path fill="url(#C)" d="M194.444 68.506c-.233 1.89-1.893 5.469-3.404 5.287-1.511-.182-2.289-4.05-2.063-5.94.226-1.89 1.632-3.265 3.14-3.095 1.509.17 2.551 1.859 2.327 3.748Z" style="mix-blend-mode:lighten"/><path fill="#1C48E3" d="M155.647 56.35a.64.64 0 0 1-.296-1.208l8.207-4.296a.638.638 0 1 1 .592 1.134l-8.207 4.298a.638.638 0 0 1-.296.073Z"/><path fill="url(#D)" d="M155.792 58.727c-1.667.917-5.549 1.633-6.279.303-.729-1.33 1.966-4.216 3.633-5.13 1.667-.915 3.613-.577 4.343.757s-.028 3.163-1.697 4.07Z"/><path fill="url(#E)" d="M155.792 58.727c-1.667.917-5.549 1.633-6.279.303-.729-1.33 1.966-4.216 3.633-5.13 1.667-.915 3.613-.577 4.343.757s-.028 3.163-1.697 4.07Z" style="mix-blend-mode:lighten"/><g clip-path="url(#F)"><path fill="#858585" d="m202.989 108.63.504-.067c.052-.037.112-.074.175-.111l38.826-22.272c1.004-.579 2.755-.504 3.912.16l22.642 12.992c.268.144.504.34.694.575l.265-.078v.78a1.144 1.144 0 0 1-.675.969l-38.826 22.271c-1.004.576-2.755.505-3.912-.159l-22.642-12.992c-.646-.371-.971-.85-.956-1.299l-.007-.769Z"/><path fill="#D8D8D8" d="m230.514 123.088 38.825-22.271c1.004-.576.878-1.582-.28-2.246l-22.642-12.992c-1.157-.668-2.908-.742-3.912-.163l-38.826 22.272c-1.004.579-.877 1.581.28 2.249l22.642 12.992c1.158.649 2.894.724 3.913.159Z"/><path fill="url(#G)" d="m230.514 123.088 38.825-22.271c1.004-.576.878-1.582-.28-2.246l-22.642-12.992c-1.157-.668-2.908-.742-3.912-.163l-38.826 22.272c-1.004.579-.877 1.581.28 2.249l22.642 12.992c1.158.649 2.894.724 3.913.159Z"/><path fill="#453C9E" d="m224.249 121.563 42.443-24.365-4.506-2.584-42.443 24.365 4.506 2.584Z" opacity=".7"/><path fill="#fff" d="m269.324 100.316-38.825 22.271c-1.004.579-2.755.505-3.913-.159l-22.642-12.992a1.825 1.825 0 0 1-.922-1.025c-.138.505.176 1.077.922 1.507l22.642 12.992c1.158.665 2.909.743 3.913.164l38.825-22.272c.556-.319.747-.769.646-1.221-.109.32-.341.584-.646.735Z"/><path fill="#fff" d="m224.918 110.82 12.778-7.334-3.117-1.79-12.779 7.335 3.118 1.789Z" opacity=".8"/><g opacity=".1"><use xlink:href="#reuse-0"/><path fill="#D8D8D8" d="M249.079 108.33c2.549-1.464 2.55-6.21 0-10.6-2.549-4.391-6.683-6.764-9.233-5.3-2.549 1.464-2.55 6.21 0 10.6 2.549 4.391 6.683 6.763 9.233 5.3Z"/></g><path fill="#D8D8D8" d="M244.887 110.152c-4.503 0-9.005-.983-12.436-2.969-3.333-1.916-5.166-4.455-5.166-7.179 0-2.725 1.833-5.26 5.166-7.175 6.858-3.935 18.017-3.935 24.871 0 3.334 1.915 5.17 4.454 5.17 7.178 0 2.725-1.836 5.264-5.17 7.194-3.427 1.968-7.929 2.951-12.435 2.951Zm0-20.13c-4.48 0-8.96.98-12.368 2.936-3.293 1.89-5.108 4.4-5.108 7.053 0 2.654 1.815 5.175 5.108 7.053 6.82 3.916 17.919 3.916 24.74 0 3.292-1.889 5.103-4.399 5.103-7.053s-1.811-5.197-5.103-7.052c-3.413-1.957-7.892-2.937-12.372-2.937Z" opacity=".4"/><path fill="#D8D8D8" d="M244.887 112.866c-5.712 0-11.428-1.248-15.781-3.746-4.226-2.427-6.555-5.657-6.555-9.098 0-3.44 2.329-6.681 6.555-9.094 8.702-4.996 22.859-4.996 31.561 0 4.23 2.428 6.555 5.657 6.555 9.098 0 3.441-2.325 6.682-6.555 9.094-4.349 2.498-10.065 3.746-15.78 3.746Zm0-25.557c-5.69 0-11.383 1.243-15.713 3.712-4.189 2.401-6.493 5.594-6.493 8.983 0 3.389 2.308 6.585 6.493 8.986 8.664 4.974 22.772 4.974 31.429 0 4.185-2.401 6.492-5.594 6.492-8.983 0-3.389-2.307-6.585-6.492-8.986-4.334-2.454-10.023-3.712-15.716-3.712Z" opacity=".2"/><path fill="#D8D8D8" d="M244.887 108.014c-3.547 0-7.093-.776-9.8-2.327-2.613-1.511-4.077-3.519-4.077-5.665 0-2.145 1.449-4.15 4.077-5.66 5.406-3.104 14.186-3.104 19.599 0 2.614 1.51 4.081 3.519 4.081 5.664 0 2.146-1.449 4.15-4.081 5.661-2.699 1.551-6.249 2.327-9.799 2.327Zm0-15.854c-3.525 0-7.049.773-9.733 2.313-2.591 1.485-4.017 3.456-4.017 5.568 0 2.112 1.426 4.083 4.017 5.568 5.368 3.081 14.1 3.081 19.469 0 2.587-1.485 4.013-3.456 4.013-5.55 0-2.093-1.426-4.083-4.013-5.567-2.684-1.56-6.208-2.332-9.736-2.332Z"/><mask id="H" width="22" height="29" x="234" y="76" maskUnits="userSpaceOnUse" style="mask-type:luminance"><path fill="#fff" d="m255.108 101.756-4.103 2.353-16.34-9.38V76.69l20.443 11.737v13.33Z"/></mask><g mask="url(#H)"><use xlink:href="#reuse-0"/><path fill="#FBFBFB" d="M249.079 108.33c2.549-1.464 2.55-6.21 0-10.6-2.549-4.391-6.683-6.764-9.233-5.3-2.549 1.464-2.55 6.21 0 10.6 2.549 4.391 6.683 6.763 9.233 5.3Z"/><path fill="#182A68" d="M247.093 108.018a5.44 5.44 0 0 1-2.673-.813c-3.266-1.875-5.925-6.452-5.925-10.204 0-1.838.628-3.211 1.766-3.865 1.139-.653 2.651-.508 4.252.409 3.267 1.878 5.925 6.455 5.925 10.204 0 1.837-.627 3.211-1.77 3.864a3.1 3.1 0 0 1-1.575.405Zm-5.253-15.1a2.96 2.96 0 0 0-1.493.37c-1.079.62-1.672 1.938-1.672 3.713 0 3.693 2.613 8.196 5.831 10.044 1.538.884 2.987 1.028 4.062.409 1.075-.62 1.676-1.934 1.676-3.712 0-3.69-2.613-8.196-5.831-10.041a5.287 5.287 0 0 0-2.573-.783Z"/></g></g><defs><radialGradient id="a" cx="0" cy="0" r="1" gradientTransform="translate(-24.4 110.452) scale(205.01)" gradientUnits="userSpaceOnUse"><stop stop-color="#42E8E0"/><stop offset=".02" stop-color="#40D8D7"/><stop offset=".06" stop-color="#3AAFC0"/><stop offset=".11" stop-color="#3589AC"/><stop offset=".17" stop-color="#30699A"/><stop offset=".23" stop-color="#2C4D8B"/><stop offset=".3" stop-color="#29377F"/><stop offset=".38" stop-color="#272675"/><stop offset=".47" stop-color="#251B6F"/><stop offset=".61" stop-color="#24146B"/><stop offset="1" stop-color="#24126A"/></radialGradient><radialGradient id="b" cx="0" cy="0" r="1" gradientTransform="translate(106.37 170.922) scale(363.12)" gradientUnits="userSpaceOnUse"><stop stop-color="#1766FF"/><stop offset="1" stop-color="#180D5B"/></radialGradient><radialGradient id="d" cx="0" cy="0" r="1" gradientTransform="translate(12.19 109.732) scale(104.94)" gradientUnits="userSpaceOnUse"><stop stop-color="#42E8E0"/><stop offset=".1" stop-color="#3CCACE"/><stop offset=".34" stop-color="#2F87A5"/><stop offset=".56" stop-color="#255385"/><stop offset=".75" stop-color="#1E2D6E"/><stop offset=".91" stop-color="#1A1660"/><stop offset="1" stop-color="#180D5B"/></radialGradient><radialGradient id="e" cx="0" cy="0" r="1" gradientTransform="translate(18.06 85.573) scale(216.39)" gradientUnits="userSpaceOnUse"><stop stop-color="#42E8E0"/><stop offset=".1" stop-color="#3CCACE"/><stop offset=".34" stop-color="#2F87A5"/><stop offset=".56" stop-color="#255385"/><stop offset=".75" stop-color="#1E2D6E"/><stop offset=".91" stop-color="#1A1660"/><stop offset="1" stop-color="#180D5B"/></radialGradient><radialGradient id="f" cx="0" cy="0" r="1" gradientTransform="translate(35.23 95.963) scale(177.09)" gradientUnits="userSpaceOnUse"><stop stop-color="#42E8E0"/><stop offset=".1" stop-color="#3CCACE"/><stop offset=".34" stop-color="#2F87A5"/><stop offset=".56" stop-color="#255385"/><stop offset=".75" stop-color="#1E2D6E"/><stop offset=".91" stop-color="#1A1660"/><stop offset="1" stop-color="#180D5B"/></radialGradient><radialGradient id="g" cx="0" cy="0" r="1" gradientTransform="translate(12.19 96.863) scale(250.31)" gradientUnits="userSpaceOnUse"><stop stop-color="#0F73EA"/><stop offset="1" stop-color="#090846"/></radialGradient><radialGradient id="h" cx="0" cy="0" r="1" gradientTransform="translate(12.34 95.963) scale(317.78)" gradientUnits="userSpaceOnUse"><stop stop-color="#5942E8"/><stop offset="1" stop-color="#180D5B"/></radialGradient><radialGradient id="j" cx="0" cy="0" r="1" gradientTransform="matrix(11.0409 0 0 10.9681 116.502 32.69)" gradientUnits="userSpaceOnUse"><stop stop-color="#081591"/><stop offset="1" stop-color="#5761D7"/></radialGradient><radialGradient id="t" cx="0" cy="0" r="1" gradientTransform="matrix(22.50635 4.45793 -4.45937 22.5136 185.179 37.679)" gradientUnits="userSpaceOnUse"><stop stop-color="#C0BFF6"/><stop offset="1" stop-color="#393091"/></radialGradient><radialGradient id="u" cx="0" cy="0" r="1" gradientTransform="matrix(17.6794 0 0 24.0342 182.886 54.225)" gradientUnits="userSpaceOnUse"><stop stop-color="#C0BFF6"/><stop offset="1" stop-color="#393091"/></radialGradient><radialGradient id="v" cx="0" cy="0" r="1" gradientTransform="matrix(12.4194 0 0 12.4237 166.094 24.47)" gradientUnits="userSpaceOnUse"><stop stop-color="#C0BFF6"/><stop offset="1" stop-color="#393091"/></radialGradient><radialGradient id="w" cx="0" cy="0" r="1" gradientTransform="matrix(17.6906 0 0 17.6968 183.371 39.171)" gradientUnits="userSpaceOnUse"><stop stop-color="#C0BFF6"/><stop offset="1" stop-color="#393091"/></radialGradient><radialGradient id="y" cx="0" cy="0" r="1" gradientTransform="matrix(8.40235 0 0 8.40528 183.225 38.98)" gradientUnits="userSpaceOnUse"><stop stop-color="#C0BFF6"/><stop offset="1" stop-color="#393091"/></radialGradient><radialGradient id="z" cx="0" cy="0" r="1" gradientTransform="matrix(8.13485 1.6113 -1.61182 8.13747 190.459 52.745)" gradientUnits="userSpaceOnUse"><stop stop-color="#C0BFF6"/><stop offset="1" stop-color="#393091"/></radialGradient><radialGradient id="B" cx="0" cy="0" r="1" gradientTransform="rotate(6.895 -448.704 1657.616) scale(7.04149 11.6096)" gradientUnits="userSpaceOnUse"><stop stop-color="#C0BFF6"/><stop offset="1" stop-color="#393091"/></radialGradient><radialGradient id="D" cx="0" cy="0" r="1" gradientTransform="matrix(3.38006 6.1477 -10.21382 5.61565 163.589 54.682)" gradientUnits="userSpaceOnUse"><stop stop-color="#C0BFF6"/><stop offset="1" stop-color="#393091"/></radialGradient><radialGradient id="G" cx="0" cy="0" r="1" gradientTransform="matrix(104.907 0 0 104.31 249.072 93.096)" gradientUnits="userSpaceOnUse"><stop offset=".02" stop-color="#4382E0"/><stop offset="1" stop-color="#5351AF"/></radialGradient><linearGradient id="c" x1="14.77" x2="275.23" y1="84.972" y2="84.972" gradientUnits="userSpaceOnUse"><stop stop-color="#178BF7"/><stop offset="1" stop-color="#5942E8"/></linearGradient><linearGradient id="i" x1="95.44" x2="137.562" y1="26.664" y2="26.664" gradientUnits="userSpaceOnUse"><stop stop-color="#1A1660"/><stop offset=".5" stop-color="#EAEAEA"/><stop offset="1" stop-color="#180D5B"/></linearGradient><linearGradient id="l" x1="118.066" x2="135.236" y1="35.813" y2="25.015" gradientUnits="userSpaceOnUse"><stop stop-color="#fff"/><stop offset=".526" stop-color="#A0A8F3"/><stop offset="1" stop-color="#E6E7ED"/></linearGradient><linearGradient id="m" x1="121.49" x2="136.993" y1="38.299" y2="26.83" gradientUnits="userSpaceOnUse"><stop stop-color="#fff"/><stop offset=".526" stop-color="#A0A8F3"/><stop offset="1" stop-color="#E6E7ED"/></linearGradient><linearGradient id="n" x1="124.913" x2="130.81" y1="30.021" y2="19.692" gradientUnits="userSpaceOnUse"><stop stop-color="#fff"/><stop offset=".526" stop-color="#A0A8F3"/><stop offset="1" stop-color="#E6E7ED"/></linearGradient><linearGradient id="o" x1="128.307" x2="130.077" y1="28.603" y2="22.335" gradientUnits="userSpaceOnUse"><stop stop-color="#fff"/><stop offset=".526" stop-color="#A0A8F3"/><stop offset="1" stop-color="#E6E7ED"/></linearGradient><linearGradient id="p" x1="114.59" x2="131.76" y1="35.813" y2="25.015" gradientUnits="userSpaceOnUse"><stop stop-color="#fff"/><stop offset=".526" stop-color="#A0A8F3"/><stop offset="1" stop-color="#E6E7ED"/></linearGradient><linearGradient id="q" x1="111.166" x2="126.668" y1="38.299" y2="26.83" gradientUnits="userSpaceOnUse"><stop stop-color="#fff"/><stop offset=".526" stop-color="#A0A8F3"/><stop offset="1" stop-color="#E6E7ED"/></linearGradient><linearGradient id="r" x1="107.743" x2="113.64" y1="30.021" y2="19.692" gradientUnits="userSpaceOnUse"><stop stop-color="#fff"/><stop offset=".526" stop-color="#A0A8F3"/><stop offset="1" stop-color="#E6E7ED"/></linearGradient><linearGradient id="s" x1="104.349" x2="106.119" y1="28.603" y2="22.335" gradientUnits="userSpaceOnUse"><stop stop-color="#fff"/><stop offset=".526" stop-color="#A0A8F3"/><stop offset="1" stop-color="#E6E7ED"/></linearGradient><linearGradient id="x" x1="175.381" x2="178.297" y1="51.091" y2="30.354" gradientUnits="userSpaceOnUse"><stop stop-color="#A4A3F9"/><stop offset="1" stop-color="#393091"/></linearGradient><linearGradient id="A" x1="184.889" x2="191.322" y1="57.678" y2="53.005" gradientUnits="userSpaceOnUse"><stop stop-color="#1D2A9D"/><stop offset="1" stop-color="#393091"/></linearGradient><linearGradient id="C" x1="188.443" x2="193.903" y1="69.026" y2="69.696" gradientUnits="userSpaceOnUse"><stop stop-color="#2A27B6"/><stop offset="1" stop-color="#393091"/></linearGradient><linearGradient id="E" x1="158.238" x2="152.157" y1="59.748" y2="58.16" gradientUnits="userSpaceOnUse"><stop stop-color="#3A10E3"/><stop offset="1" stop-color="#393091"/></linearGradient><clipPath id="F"><path fill="#fff" d="M203 85h67v55h-67z"/></clipPath></defs></svg>