<svg xmlns="http://www.w3.org/2000/svg" xmlns:xlink="http://www.w3.org/1999/xlink" fill="none" viewBox="0 0 505 478">
    <defs>
      <path id="j" fill="#1A4BC9" d="m252.873 163.552-38.759-22.38v44.76l38.759 22.354 38.759-22.354v-44.76l-38.759 22.38Z"/>
      <path id="k" fill="#1A4BC9" d="m252.873 208.286-38.759-22.354v-44.76l38.759 22.38v44.734Z"/>
      <path id="l" fill="#4183E8" d="m291.632 185.932-38.759 22.354v-44.734l38.759-22.38v44.76Z"/>
      <path id="m" fill="#1A4BC9" d="m252.873 163.552-38.759-22.38 38.759-22.379 38.759 22.379-38.759 22.38Z"/>
      <path id="n" fill="#1A4BC9" d="m303.206 192.26-38.759-22.38v44.76l38.759 22.379 38.759-22.379v-44.76l-38.759 22.38Z"/>
      <path id="o" fill="#1A4BC9" d="m303.206 237.019-38.759-22.379v-44.76l38.759 22.38v44.759Z"/>
      <path id="p" fill="#4183E8" d="m341.965 214.64-38.759 22.379V192.26l38.759-22.38v44.76Z"/>
      <path id="q" fill="#1A4BC9" d="m202.54 194.215-38.759-22.38v44.76l38.759 22.379 38.759-22.379v-44.76l-38.759 22.38Z"/>
      <path id="r" fill="#1A4BC9" d="m202.54 238.974-38.759-22.379v-44.76l38.759 22.38v44.759Z"/>
      <path id="s" fill="#4183E8" d="m241.299 216.595-38.759 22.379v-44.759l38.759-22.38v44.76Z"/>
      <path id="t" fill="#1A4BC9" d="m202.54 194.215-38.759-22.38 38.759-22.38 38.733 22.38-38.733 22.38Z"/>
      <path id="u" fill="#1A4BC9" d="m252.873 222.948-38.759-22.379v44.733l38.759 22.38 38.759-22.38v-44.733l-38.759 22.379Z"/>
      <path id="v" fill="#1A4BC9" d="m252.873 267.682-38.759-22.38v-44.733l38.759 22.379v44.734Z"/>
      <path id="w" fill="#4183E8" d="m291.632 245.302-38.759 22.38v-44.734l38.759-22.379v44.733Z"/>
      <path id="x" fill="#1A4BC9" d="m252.873 222.948-38.759-22.379 38.759-22.38 38.759 22.38-38.759 22.379Z"/>
    </defs>
    <g clip-path="url(#a)">
      <g opacity=".2">
        <path fill="#1A4BC9" d="m304.723 477.897-26.928-15.434a18.68 18.68 0 0 1-8.41-14.586v-6.508a17.725 17.725 0 0 0-8.025-13.891l-5.504-3.344.412-.694 5.632 3.267a18.569 18.569 0 0 1 8.411 14.585v6.508a17.725 17.725 0 0 0 8.024 13.865l27.031 15.615-.643.617Z" style="mix-blend-mode:lighten"/>
        <path fill="#1A4BC9" d="m315.345 471.929-27.031-15.614a18.57 18.57 0 0 1-8.41-14.586v-6.508a17.722 17.722 0 0 0-8.024-13.865l-5.736-3.267.386-.72 5.658 3.267a18.671 18.671 0 0 1 8.41 14.585v6.508a17.729 17.729 0 0 0 8.025 13.891l27.031 15.615-.309.694Z" style="mix-blend-mode:lighten"/>
        <path fill="#1A4BC9" d="m325.865 465.858-27.032-15.588a18.684 18.684 0 0 1-8.436-14.586v-6.534a17.69 17.69 0 0 0-7.998-13.865l-5.633-3.267.386-.694 5.658 3.267a18.625 18.625 0 0 1 8.411 14.559v6.534a17.753 17.753 0 0 0 7.998 13.865l27.057 15.615-.411.694Z" style="mix-blend-mode:lighten"/>
        <path fill="#1A4BC9" d="m336.384 459.89-27.057-15.614a18.62 18.62 0 0 1-8.41-14.585v-6.586a17.788 17.788 0 0 0-7.999-13.891l-5.658-3.241.411-.72 5.659 3.267a18.677 18.677 0 0 1 8.41 14.585v6.508a17.798 17.798 0 0 0 7.998 13.891l27.032 15.589-.386.797Z" style="mix-blend-mode:lighten"/>
        <path fill="#1A4BC9" d="m346.877 453.742-27.031-15.614a18.622 18.622 0 0 1-8.41-14.56v-6.533a17.745 17.745 0 0 0-7.999-13.737l-5.658-3.267.411-.694 5.633 3.241a18.68 18.68 0 0 1 8.436 14.585v6.534a17.698 17.698 0 0 0 7.999 13.865l27.031 15.614-.412.566Z" style="mix-blend-mode:lighten"/>
        <path fill="#1A4BC9" d="m357.396 447.697-26.953-15.614a18.68 18.68 0 0 1-8.411-14.585v-6.483a17.72 17.72 0 0 0-8.024-13.891l-5.633-3.241.412-.72 5.632 3.267a18.588 18.588 0 0 1 8.308 14.585v6.508a17.705 17.705 0 0 0 7.998 13.865l27.083 15.641-.412.668Z" style="mix-blend-mode:lighten"/>
        <path fill="#1A4BC9" d="m367.916 441.626-27.031-15.614a18.572 18.572 0 0 1-8.411-14.585v-6.508a17.73 17.73 0 0 0-8.024-13.866l-5.633-3.189.412-.695 5.632 3.241a18.588 18.588 0 0 1 5.95 6.287 18.588 18.588 0 0 1 2.461 8.299v6.508a17.72 17.72 0 0 0 8.024 13.891l27.031 15.614-.411.617Z" style="mix-blend-mode:lighten"/>
        <path fill="#1A4BC9" d="m378.435 435.556-27.031-15.589a18.594 18.594 0 0 1-8.41-14.585v-6.534a17.722 17.722 0 0 0-8.025-13.865l-5.632-3.267.385-.695 5.659 3.267a18.622 18.622 0 0 1 8.41 14.56v6.534a17.725 17.725 0 0 0 8.024 13.865l27.031 15.614-.411.695Z" style="mix-blend-mode:lighten"/>
        <path fill="#1A4BC9" d="m388.954 429.511-27.031-15.615a18.595 18.595 0 0 1-8.436-14.585v-6.508a17.689 17.689 0 0 0-7.999-13.865l-5.658-3.267.412-.721 5.658 3.267a18.63 18.63 0 0 1 8.41 14.586v6.508a17.777 17.777 0 0 0 7.999 13.891l27.031 15.614-.386.695Z" style="mix-blend-mode:lighten"/>
        <path fill="#1A4BC9" d="m399.448 423.44-27.031-15.615a18.615 18.615 0 0 1-8.411-14.559v-6.534a17.745 17.745 0 0 0-7.998-13.865l-5.659-3.267.412-.695 5.658 3.267a18.619 18.619 0 0 1 8.41 14.56v6.534a17.7 17.7 0 0 0 7.999 13.865l27.057 15.614-.437.695Z" style="mix-blend-mode:lighten"/>
        <path fill="#1A4BC9" d="m409.967 417.395-27.031-15.615a18.61 18.61 0 0 1-5.947-6.288 18.612 18.612 0 0 1-2.463-8.297v-6.508a17.812 17.812 0 0 0-7.999-13.891l-5.658-3.241.411-.721 5.633 3.267a18.608 18.608 0 0 1 8.436 14.586v6.508a17.772 17.772 0 0 0 7.998 13.891l27.031 15.588-.411.721Z" style="mix-blend-mode:lighten"/>
        <path fill="#1A4BC9" d="m420.46 411.324-27.031-15.615a18.622 18.622 0 0 1-8.41-14.559v-6.534a17.725 17.725 0 0 0-8.024-13.865l-5.633-3.267.412-.695 5.632 3.242a18.645 18.645 0 0 1 8.41 14.585v6.534a17.726 17.726 0 0 0 8.025 13.865l27.031 15.614-.412.695Z" style="mix-blend-mode:lighten"/>
        <path fill="#1A4BC9" d="m431.005 405.279-27.031-15.615a18.604 18.604 0 0 1-8.41-14.585v-6.508a17.729 17.729 0 0 0-8.024-13.891l-5.659-3.267.386-.694 5.658 3.266a18.632 18.632 0 0 1 8.411 14.586v6.431a17.725 17.725 0 0 0 8.024 13.865l27.031 15.614-.386.798Z" style="mix-blend-mode:lighten"/>
        <path fill="#1A4BC9" d="m441.525 399.208-27.032-15.614a18.608 18.608 0 0 1-8.436-14.586V362.5a17.695 17.695 0 0 0-7.998-13.865l-5.658-3.267.411-.72 5.658 3.267a18.683 18.683 0 0 1 8.411 14.585v6.508a17.78 17.78 0 0 0 7.998 13.891l27.031 15.614-.385.695Z" style="mix-blend-mode:lighten"/>
        <path fill="#1A4BC9" d="m452.018 393.137-27.031-15.563a18.693 18.693 0 0 1-8.41-14.585v-6.534a17.746 17.746 0 0 0-7.999-13.865l-5.658-3.267.411-.695 5.659 3.267a18.625 18.625 0 0 1 8.41 14.56v6.534a17.737 17.737 0 0 0 2.348 7.885 17.74 17.74 0 0 0 5.651 5.98l27.031 15.614-.412.669Zm10.519-6.045-27.031-15.614a18.63 18.63 0 0 1-8.41-14.586v-6.508a17.848 17.848 0 0 0-7.999-13.891l-5.658-3.241.411-.72 5.633 3.267a18.595 18.595 0 0 1 8.436 14.585v6.611a17.691 17.691 0 0 0 7.999 13.891l27.031 15.589-.412.617Z" style="mix-blend-mode:lighten"/>
        <path fill="#1A4BC9" d="m473.057 381.021-27.032-15.614a18.622 18.622 0 0 1-8.41-14.56v-6.534a17.725 17.725 0 0 0-8.024-13.865l-5.633-3.267.412-.694 5.632 3.267a18.54 18.54 0 0 1 8.411 14.559v6.534a17.725 17.725 0 0 0 8.024 13.865l27.031 15.615-.411.694Zm10.519-6.019-27.108-15.64a18.579 18.579 0 0 1-5.95-6.287 18.588 18.588 0 0 1-2.461-8.299v-6.508a17.72 17.72 0 0 0-8.024-13.891l-5.633-3.241.386-.72 5.658 3.267a18.632 18.632 0 0 1 8.411 14.585v6.508a17.795 17.795 0 0 0 8.024 13.891l27.031 15.589-.334.746Z" style="mix-blend-mode:lighten"/>
        <path fill="#1A4BC9" d="m494.095 368.905-27.031-15.614a18.574 18.574 0 0 1-8.436-14.56v-6.534a17.692 17.692 0 0 0-2.343-7.888 17.689 17.689 0 0 0-5.656-5.977l-5.632-3.267.385-.694 5.659 3.241a18.697 18.697 0 0 1 8.41 14.585v6.534a17.741 17.741 0 0 0 7.999 13.865l27.056 15.615-.411.694Z" style="mix-blend-mode:lighten"/>
        <path fill="#1A4BC9" d="m504.614 362.86-27.057-15.614a18.706 18.706 0 0 1-8.41-14.586v-6.533a17.704 17.704 0 0 0-7.999-13.866l-5.658-3.267.412-.694 5.658 3.267a18.622 18.622 0 0 1 8.41 14.56v6.533a17.75 17.75 0 0 0 7.999 13.866L505 362.14l-.386.72Zm-304.44 115.037-.386-.72 27.031-15.615a17.746 17.746 0 0 0 7.999-13.865v-6.508a18.624 18.624 0 0 1 8.41-14.585l5.658-3.267.412.694-5.658 3.267a17.702 17.702 0 0 0-7.999 13.891v6.508a18.634 18.634 0 0 1-2.474 8.302 18.633 18.633 0 0 1-5.962 6.284l-27.031 15.614Z" style="mix-blend-mode:lighten"/>
        <path fill="#1A4BC9" d="m189.68 471.929-.411-.694L216.3 455.62a17.7 17.7 0 0 0 7.999-13.891v-6.508a18.67 18.67 0 0 1 8.41-14.585l5.658-3.267.412.72-5.659 3.267a17.747 17.747 0 0 0-7.998 13.865v6.508a18.628 18.628 0 0 1-8.411 14.586l-27.031 15.614Z" style="mix-blend-mode:lighten"/>
        <path fill="#1A4BC9" d="m179.161 465.858-.411-.694 27.031-15.563a17.695 17.695 0 0 0 7.998-13.865v-6.534a18.574 18.574 0 0 1 8.436-14.56l5.633-3.267.411.695-5.658 3.267a17.756 17.756 0 0 0-5.651 5.979 17.756 17.756 0 0 0-2.347 7.886v6.534a18.713 18.713 0 0 1-8.411 14.585l-27.031 15.537Z" style="mix-blend-mode:lighten"/>
        <path fill="#1A4BC9" d="m168.642 459.89-.412-.72 27.032-15.588a17.751 17.751 0 0 0 8.024-13.891v-6.586a18.607 18.607 0 0 1 8.41-14.585l5.633-3.267.411.72-5.607 3.241a17.806 17.806 0 0 0-8.024 13.891v6.508a18.628 18.628 0 0 1-8.41 14.586l-27.057 15.691Z" style="mix-blend-mode:lighten"/>
        <path fill="#1A4BC9" d="m158.123 453.742-.412-.694 27.031-15.614a17.728 17.728 0 0 0 8.025-13.866v-6.533a18.695 18.695 0 0 1 8.41-14.586l5.658-3.241.386.694-5.633 3.396a17.722 17.722 0 0 0-8.024 13.865v6.534a18.543 18.543 0 0 1-8.41 14.56l-27.031 15.485Z" style="mix-blend-mode:lighten"/>
        <path fill="#1A4BC9" d="m147.604 447.697-.386-.72 27.031-15.614a17.75 17.75 0 0 0 7.999-13.865v-6.483a18.62 18.62 0 0 1 8.41-14.585l5.658-3.267.412.72-5.659 3.241a17.702 17.702 0 0 0-7.998 13.891v6.508a18.622 18.622 0 0 1-8.436 14.586l-27.031 15.588Z" style="mix-blend-mode:lighten"/>
        <path fill="#1A4BC9" d="m137.11 441.626-.412-.694 27.032-15.614a17.699 17.699 0 0 0 7.998-13.891v-6.508a18.679 18.679 0 0 1 8.411-14.586l5.658-3.241.411.695-5.658 3.266a17.759 17.759 0 0 0-7.999 13.866v6.508a18.624 18.624 0 0 1-8.41 14.585l-27.031 15.614Z" style="mix-blend-mode:lighten"/>
        <path fill="#1A4BC9" d="m126.591 435.556-.412-.695 27.031-15.614a17.701 17.701 0 0 0 7.999-13.865v-6.534a18.574 18.574 0 0 1 8.436-14.56l5.633-3.267.411.695-5.658 3.267a17.746 17.746 0 0 0-7.999 13.865v6.534a18.682 18.682 0 0 1-8.41 14.585l-27.031 15.589Z" style="mix-blend-mode:lighten"/>
        <path fill="#1A4BC9" d="m116.072 429.511-.412-.695 27.031-15.614a17.723 17.723 0 0 0 8.025-13.891v-6.508a18.572 18.572 0 0 1 8.41-14.586l5.632-3.267.412.721-5.633 3.267a17.725 17.725 0 0 0-8.024 13.865v6.508a18.624 18.624 0 0 1-8.41 14.585l-27.031 15.615Z" style="mix-blend-mode:lighten"/>
        <path fill="#1A4BC9" d="m105.552 423.44-.411-.695 27.031-15.614a17.728 17.728 0 0 0 7.947-13.865v-6.534a18.622 18.622 0 0 1 8.41-14.56l5.659-3.267.385.695-5.632 3.267a17.715 17.715 0 0 0-8.025 13.865v6.534a18.54 18.54 0 0 1-8.41 14.559l-26.954 15.615Z" style="mix-blend-mode:lighten"/>
        <path fill="#1A4BC9" d="m95.033 417.395-.411-.721 27.056-15.588a17.853 17.853 0 0 0 7.999-13.891v-6.508a18.628 18.628 0 0 1 8.41-14.586l5.659-3.267.385.721-5.632 3.241a17.715 17.715 0 0 0-7.999 13.891v6.508a18.601 18.601 0 0 1-8.436 14.585l-27.03 15.615Z" style="mix-blend-mode:lighten"/>
        <path fill="#1A4BC9" d="m84.514 411.324-.386-.695 27.031-15.614a17.75 17.75 0 0 0 7.999-13.865v-6.534a18.695 18.695 0 0 1 8.41-14.585l5.658-3.242.412.695-5.658 3.267a17.698 17.698 0 0 0-7.999 13.865v6.534a18.626 18.626 0 0 1-8.41 14.559l-27.057 15.615Z" style="mix-blend-mode:lighten"/>
        <path fill="#1A4BC9" d="m74.02 405.279-.411-.721 27.031-15.614a17.695 17.695 0 0 0 7.999-13.865v-6.508a18.596 18.596 0 0 1 8.436-14.586l5.632-3.266.412.694-5.659 3.267a17.782 17.782 0 0 0-7.998 13.891v6.431a18.67 18.67 0 0 1-8.411 14.585l-27.03 15.692Z" style="mix-blend-mode:lighten"/>
        <path fill="#1A4BC9" d="m63.501 399.208-.411-.695 27.03-15.614a17.691 17.691 0 0 0 8-13.891V362.5a18.624 18.624 0 0 1 8.435-14.585l5.633-3.267.411.72-5.632 3.267a17.725 17.725 0 0 0-8.025 13.865v6.508a18.629 18.629 0 0 1-8.41 14.586l-27.03 15.614Z" style="mix-blend-mode:lighten"/>
        <path fill="#1A4BC9" d="m52.982 393.137-.412-.694 27.032-15.615a17.715 17.715 0 0 0 8.024-13.865v-6.534a18.553 18.553 0 0 1 8.41-14.559l5.633-3.267.411.694-5.684 3.267a17.724 17.724 0 0 0-8.024 13.865v6.534a18.65 18.65 0 0 1-8.41 14.585l-26.98 15.589Z" style="mix-blend-mode:lighten"/>
        <path fill="#1A4BC9" d="m42.386 387.092-.412-.72 27.031-15.589a17.725 17.725 0 0 0 8.025-13.891v-6.508a18.624 18.624 0 0 1 8.41-14.585l5.658-3.267.386.72-5.556 3.164a17.799 17.799 0 0 0-8.024 13.891v6.688a18.576 18.576 0 0 1-8.41 14.586l-27.108 15.511Z" style="mix-blend-mode:lighten"/>
        <path fill="#1A4BC9" d="m31.944 381.021-.386-.694 27.03-15.615a17.75 17.75 0 0 0 8-13.865v-6.534a18.625 18.625 0 0 1 8.41-14.559l5.658-3.267.411.694-5.658 3.267a17.699 17.699 0 0 0-7.999 13.865v6.534a18.573 18.573 0 0 1-8.435 14.56l-27.032 15.614Z" style="mix-blend-mode:lighten"/>
        <path fill="#1A4BC9" d="m21.45 375.002-.412-.72 27.031-15.589a17.774 17.774 0 0 0 8-13.891v-6.508a18.628 18.628 0 0 1 8.41-14.585l5.658-3.267.411.72-5.658 3.241a17.779 17.779 0 0 0-7.999 13.891v6.508a18.675 18.675 0 0 1-8.41 14.585L21.45 375.002Z" style="mix-blend-mode:lighten"/>
        <path fill="#1A4BC9" d="m10.93 368.905-.41-.694 27.03-15.615a17.697 17.697 0 0 0 7.999-13.865v-6.534a18.678 18.678 0 0 1 8.436-14.585l5.633-3.241.411.694-5.658 3.267a17.744 17.744 0 0 0-7.999 13.865v6.534a18.622 18.622 0 0 1-8.41 14.56L10.93 368.905Z" style="mix-blend-mode:lighten"/>
        <path fill="#1A4BC9" d="M.412 362.86 0 362.14l26.954-15.614a17.733 17.733 0 0 0 8.024-13.866v-6.533a18.55 18.55 0 0 1 8.41-14.56l5.633-3.267.412.694-5.633 3.267a17.733 17.733 0 0 0-8.024 13.866v6.533a18.703 18.703 0 0 1-8.41 14.586L.411 362.86Z" style="mix-blend-mode:lighten"/>
        <path fill="url(#b)" d="M460.608 318.667v24l-207.735 119.95-207.736-119.95v-24.026l415.471.026Z"/>
        <path fill="#BCBEFF" d="M252.873 438.617 45.137 318.641l207.736-119.95 207.735 119.976-207.735 119.95Z"/>
        <path fill="#fff" d="M252.873 435.813 47.581 317.252l-2.444 1.389 207.736 119.976 207.735-119.95-2.443-1.415-205.292 118.561Z"/>
      </g>
      <path fill="#1A4BC9" d="M231.243 164.427a7.921 7.921 0 0 1-3.858-1.184l-27.057-15.614.412-.695 27.031 15.589a4.602 4.602 0 0 0 7.477-1.445 4.607 4.607 0 0 0 .239-2.928v-6.534a5.4 5.4 0 0 1 8.821-5.145l5.659 3.267-.412.695-5.658-3.241a5.352 5.352 0 0 0-5.401-.592 5.426 5.426 0 0 0-2.186 4.965v6.534a6.12 6.12 0 0 1-2.572 5.659 4.56 4.56 0 0 1-2.495.669Z" style="mix-blend-mode:lighten"/>
      <path fill="#1A4BC9" d="M220.724 170.472a7.995 7.995 0 0 1-3.858-1.184l-27.031-15.511.386-.695 27.056 15.512a4.602 4.602 0 0 0 7.304-1.557 4.615 4.615 0 0 0 .284-2.842v-6.534a5.4 5.4 0 0 1 8.821-5.144l5.659 3.266-.412.721-5.658-3.267a5.48 5.48 0 0 0-5.401-.592 5.426 5.426 0 0 0-2.186 4.965v6.534a6.106 6.106 0 0 1-2.572 5.659c-.72.44-1.548.672-2.392.669Z" style="mix-blend-mode:lighten"/>
      <path fill="#1A4BC9" d="M210.204 176.517a7.717 7.717 0 0 1-3.857-1.183l-27.031-15.615.411-.694 27.031 15.614a4.601 4.601 0 0 0 5.536.745 4.606 4.606 0 0 0 2.18-5.144v-6.508a6.147 6.147 0 0 1 2.572-5.685 6.069 6.069 0 0 1 6.198.592l5.658 3.241-.411.72-5.633-3.267a5.393 5.393 0 0 0-5.401-.566 5.33 5.33 0 0 0-2.212 4.965v6.508a6.176 6.176 0 0 1-2.571 5.685 4.882 4.882 0 0 1-2.47.592Z" style="mix-blend-mode:lighten"/>
      <path fill="#1A4BC9" d="M199.711 182.562a7.721 7.721 0 0 1-3.884-1.183l-27.031-15.615.412-.694 27.031 15.614a4.605 4.605 0 0 0 5.536.746 4.608 4.608 0 0 0 2.18-5.145v-6.508a5.404 5.404 0 0 1 2.577-5.748 5.404 5.404 0 0 1 6.27.603l5.633 3.242-.412.72-5.632-3.267a4.636 4.636 0 0 0-5.503-.686 4.633 4.633 0 0 0-2.213 5.085v6.508a6.17 6.17 0 0 1-2.572 5.685 4.794 4.794 0 0 1-2.392.643Z" style="mix-blend-mode:lighten"/>
      <path fill="#1A4BC9" d="M189.192 188.607a7.721 7.721 0 0 1-3.884-1.183l-27.031-15.64.412-.721 27.031 15.615a4.63 4.63 0 0 0 7.715-4.399v-6.508a5.407 5.407 0 0 1 2.578-5.718 5.399 5.399 0 0 1 6.244.573l5.633 3.267-.412.695-5.632-3.164a4.631 4.631 0 0 0-5.503-.686 4.629 4.629 0 0 0-2.213 5.084v6.508a6.174 6.174 0 0 1-2.572 5.685c-.72.41-1.538.615-2.366.592Z" style="mix-blend-mode:lighten"/>
      <path fill="#1A4BC9" d="M178.698 194.678a8.03 8.03 0 0 1-3.883-1.183l-26.98-15.615.411-.72 27.032 15.614a5.348 5.348 0 0 0 5.401.592 5.436 5.436 0 0 0 2.211-4.965v-6.534a5.408 5.408 0 0 1 2.578-5.717 5.4 5.4 0 0 1 6.244.573l5.633 3.267-.386.694-5.658-3.267a4.601 4.601 0 0 0-5.536-.745 4.6 4.6 0 0 0-2.18 5.144v6.534a6.174 6.174 0 0 1-2.572 5.659 4.552 4.552 0 0 1-2.315.669Z" style="mix-blend-mode:lighten"/>
      <path fill="#1A4BC9" d="M168.153 200.723a7.926 7.926 0 0 1-3.858-1.183l-27.031-15.615.386-.694 27.031 15.588a4.602 4.602 0 0 0 7.477-1.445 4.607 4.607 0 0 0 .239-2.928v-6.533a5.403 5.403 0 0 1 8.822-5.145l5.658 3.267-.412.694-5.658-3.241a5.348 5.348 0 0 0-5.401-.592 5.426 5.426 0 0 0-2.186 4.965v6.534a6.13 6.13 0 0 1-2.572 5.659 4.551 4.551 0 0 1-2.495.669Z" style="mix-blend-mode:lighten"/>
      <path fill="#1A4BC9" d="M157.634 206.768a8.004 8.004 0 0 1-3.858-1.183l-27.031-15.615.412-.694 27.031 15.614a4.6 4.6 0 0 0 5.399.571 4.607 4.607 0 0 0 2.188-4.97v-6.533a5.403 5.403 0 0 1 8.822-5.145l5.658 3.267-.412.72-5.658-3.267a5.3 5.3 0 0 0-5.375-.592 5.379 5.379 0 0 0-2.212 4.965v6.534a6.096 6.096 0 0 1-2.572 5.659 4.48 4.48 0 0 1-2.392.669Z" style="mix-blend-mode:lighten"/>
      <path fill="#1A4BC9" d="M147.141 212.942a7.713 7.713 0 0 1-3.884-1.184l-27.031-15.614.411-.694 27.031 15.614a4.6 4.6 0 0 0 5.537.745 4.606 4.606 0 0 0 2.179-5.144v-6.585a5.407 5.407 0 0 1 2.578-5.718 5.397 5.397 0 0 1 6.244.573l5.658 3.241-.411.721-5.633-3.267a4.624 4.624 0 0 0-5.502-.686 4.629 4.629 0 0 0-2.214 5.084v6.509a6.217 6.217 0 0 1-2.572 5.685 4.863 4.863 0 0 1-2.391.72Z" style="mix-blend-mode:lighten"/>
      <path fill="#1A4BC9" d="M136.621 218.858a7.705 7.705 0 0 1-3.883-1.183l-27.031-15.614.411-.695 27.031 15.614a4.627 4.627 0 0 0 5.503.686 4.629 4.629 0 0 0 2.213-5.084v-6.508a5.403 5.403 0 0 1 8.822-5.145l5.632 3.267-.411.694-5.633-3.267a4.63 4.63 0 0 0-7.716 4.399v6.508a6.176 6.176 0 0 1-2.571 5.685 4.787 4.787 0 0 1-2.367.643Z" style="mix-blend-mode:lighten"/>
      <path fill="#1A4BC9" d="M126.102 224.903a7.711 7.711 0 0 1-3.884-1.183l-27.03-15.589.41-.72 27.032 15.614a4.625 4.625 0 0 0 7.454-1.488 4.63 4.63 0 0 0 .262-2.91v-6.508a5.403 5.403 0 0 1 8.822-5.145l5.632 3.267-.386.694-5.658-3.267a4.63 4.63 0 0 0-7.716 4.399v6.508a6.174 6.174 0 0 1-2.572 5.685 4.518 4.518 0 0 1-2.366.643Z" style="mix-blend-mode:lighten"/>
      <path fill="#1A4BC9" d="M115.583 230.948a7.862 7.862 0 0 1-3.858-1.157l-27.031-15.615.386-.72 27.031 15.615a4.6 4.6 0 0 0 5.517.742 4.603 4.603 0 0 0 2.199-5.115v-6.611a5.403 5.403 0 0 1 5.791-6.431 5.4 5.4 0 0 1 3.03 1.286l5.659 3.267-.412.694-5.658-3.267a4.607 4.607 0 0 0-5.536-.745 4.6 4.6 0 0 0-2.18 5.144v6.534a6.12 6.12 0 0 1-2.572 5.659 4.519 4.519 0 0 1-2.366.72Z" style="mix-blend-mode:lighten"/>
      <path fill="#1A4BC9" d="M105.064 237.019a7.99 7.99 0 0 1-3.858-1.183l-27.031-15.614.411-.695 26.954 15.589a5.35 5.35 0 0 0 5.401.591 5.43 5.43 0 0 0 2.186-4.964v-6.534a5.407 5.407 0 0 1 2.578-5.718 5.405 5.405 0 0 1 3.213-.713 5.406 5.406 0 0 1 3.031 1.286l5.658 3.267-.411.694-5.658-3.241a5.35 5.35 0 0 0-5.402-.591 5.436 5.436 0 0 0-2.186 4.964v6.534a6.124 6.124 0 0 1-2.572 5.659 4.548 4.548 0 0 1-2.314.669Z" style="mix-blend-mode:lighten"/>
      <path fill="#1A4BC9" d="M94.57 243.064a8.022 8.022 0 0 1-3.883-1.183l-27.031-15.614.411-.695 27.031 15.666a4.608 4.608 0 0 0 5.399.57 4.601 4.601 0 0 0 2.188-4.969v-6.534a5.403 5.403 0 0 1 5.791-6.43 5.4 5.4 0 0 1 3.031 1.286l5.658 3.267-.411.72-5.633-3.344a4.599 4.599 0 0 0-7.477 1.445 4.607 4.607 0 0 0-.239 2.928v6.534a6.146 6.146 0 0 1-2.572 5.659 4.6 4.6 0 0 1-2.263.694Z" style="mix-blend-mode:lighten"/>
      <path fill="#1A4BC9" d="M84.05 249.109a7.71 7.71 0 0 1-3.883-1.183l-27.03-15.614.41-.695 27.032 15.615a4.632 4.632 0 0 0 5.502.686 4.63 4.63 0 0 0 2.214-5.085v-6.508a6.177 6.177 0 0 1 2.572-5.685 6.12 6.12 0 0 1 6.224.591l5.632 3.242-.411.72-5.633-3.267a4.632 4.632 0 0 0-7.454 1.488 4.633 4.633 0 0 0-.262 2.911v6.508a6.226 6.226 0 0 1-2.572 5.685 4.774 4.774 0 0 1-2.34.591Z" style="mix-blend-mode:lighten"/>
      <path fill="#1A4BC9" d="M73.532 255.155a7.72 7.72 0 0 1-3.884-1.184l-27.031-15.614.412-.695 27.03 15.615a4.632 4.632 0 0 0 5.503.686 4.63 4.63 0 0 0 2.213-5.085v-6.508a6.178 6.178 0 0 1 2.572-5.685 6.121 6.121 0 0 1 6.224.591l5.633 3.267-.386.695-5.658-3.267a4.632 4.632 0 0 0-7.454 1.488 4.633 4.633 0 0 0-.262 2.911v6.585a6.173 6.173 0 0 1-2.572 5.685 4.797 4.797 0 0 1-2.34.515Z" style="mix-blend-mode:lighten"/>
      <path fill="#1A4BC9" d="M62.961 261.2a7.722 7.722 0 0 1-3.858-1.184l-27.005-15.588.411-.721 27.031 15.538a4.632 4.632 0 0 0 5.503.686 4.629 4.629 0 0 0 2.213-5.085v-6.508a5.401 5.401 0 0 1 8.822-5.145l5.632 3.267-.385.694-5.659-3.266a4.6 4.6 0 0 0-5.536-.746 4.603 4.603 0 0 0-2.18 5.144v6.508a6.147 6.147 0 0 1-2.571 5.685 4.52 4.52 0 0 1-2.418.721Z" style="mix-blend-mode:lighten"/>
      <path fill="#1A4BC9" d="M52.493 267.27a7.992 7.992 0 0 1-3.858-1.183l-27.03-15.614.385-.72 27.057 15.614a5.35 5.35 0 0 0 5.4.592 5.431 5.431 0 0 0 2.187-4.965v-6.534a5.402 5.402 0 0 1 8.822-5.145l5.658 3.267-.411.695-5.659-3.267a4.606 4.606 0 0 0-5.536-.746 4.607 4.607 0 0 0-2.18 5.145v6.533a6.125 6.125 0 0 1-2.571 5.66 4.55 4.55 0 0 1-2.264.668Z" style="mix-blend-mode:lighten"/>
      <path fill="#1A4BC9" d="M41.974 273.316a8.004 8.004 0 0 1-3.858-1.184l-27.03-15.614.41-.695 27.032 15.589a5.35 5.35 0 0 0 5.4.592 5.425 5.425 0 0 0 2.187-4.965v-6.534a5.403 5.403 0 0 1 8.822-5.145l5.658 3.267-.412.695-5.632-3.241a5.48 5.48 0 0 0-5.401-.592 5.378 5.378 0 0 0-2.212 4.965v6.508a6.176 6.176 0 0 1-2.572 5.659 4.63 4.63 0 0 1-2.392.695Z" style="mix-blend-mode:lighten"/>
      <path fill="#1A4BC9" d="M31.48 279.361a8.023 8.023 0 0 1-3.883-1.184L.566 262.563l.411-.695 27.031 15.615a4.599 4.599 0 0 0 5.537.745 4.606 4.606 0 0 0 2.18-5.144v-6.534a5.429 5.429 0 0 1 8.847-5.145l5.632 3.267-.411.721-5.633-3.267a4.599 4.599 0 0 0-5.517-.743 4.605 4.605 0 0 0-2.199 5.116v6.534a6.147 6.147 0 0 1-2.572 5.659c-.72.44-1.548.672-2.392.669Zm242.843-114.446a4.55 4.55 0 0 1-2.341-.617 6.154 6.154 0 0 1-2.571-5.659v-6.534a4.607 4.607 0 0 0-5.083-5.673 4.602 4.602 0 0 0-2.633 1.3l-5.633 3.241-.411-.694 5.632-3.267a5.4 5.4 0 0 1 8.822 5.144v6.534a4.634 4.634 0 0 0 2.213 5.085 4.63 4.63 0 0 0 5.503-.686l26.902-15.666.412.695-27.031 15.614a8.027 8.027 0 0 1-3.781 1.183Z" style="mix-blend-mode:lighten"/>
      <path fill="#1A4BC9" d="M284.842 170.96a4.77 4.77 0 0 1-2.34-.591 6.177 6.177 0 0 1-2.572-5.685v-6.508a4.635 4.635 0 0 0-2.214-5.085 4.625 4.625 0 0 0-5.502.686l-5.658 3.267-.412-.695 5.633-3.241a6.12 6.12 0 0 1 6.224-.592 6.177 6.177 0 0 1 2.572 5.685v6.509a4.624 4.624 0 0 0 2.213 5.084 4.628 4.628 0 0 0 5.503-.686l27.031-15.614.411.695-27.031 15.614a7.707 7.707 0 0 1-3.858 1.157Z" style="mix-blend-mode:lighten"/>
      <path fill="#1A4BC9" d="M295.361 176.928a4.773 4.773 0 0 1-2.34-.591 6.145 6.145 0 0 1-2.572-5.685v-6.508a4.604 4.604 0 0 0-7.716-4.399l-5.658 3.267-.386-.695 5.633-3.267a5.395 5.395 0 0 1 6.244-.572 5.399 5.399 0 0 1 2.577 5.717v6.508a5.353 5.353 0 0 0 2.212 4.965 5.395 5.395 0 0 0 5.401-.566l27.031-15.614.412.694-27.057 15.615a7.722 7.722 0 0 1-3.781 1.131Z" style="mix-blend-mode:lighten"/>
      <path fill="#1A4BC9" d="M305.881 183.051a4.524 4.524 0 0 1-2.341-.592 6.153 6.153 0 0 1-2.572-5.685v-6.508a4.61 4.61 0 0 0-.22-2.941 4.608 4.608 0 0 0-7.496-1.458l-5.658 3.267-.411-.694 5.658-3.267a5.4 5.4 0 0 1 8.822 5.144v6.509a4.605 4.605 0 0 0 7.587 4.398l27.057-15.614.385.72-26.825 15.537a7.71 7.71 0 0 1-3.986 1.184Z" style="mix-blend-mode:lighten"/>
      <path fill="#1A4BC9" d="M316.4 189.122a4.478 4.478 0 0 1-2.341-.618 6.128 6.128 0 0 1-2.572-5.659v-6.534a4.63 4.63 0 0 0-7.715-4.399l-5.633 3.267-.411-.694 5.658-3.267a5.4 5.4 0 0 1 8.822 5.144v6.534a4.601 4.601 0 0 0 4.988 5.533 4.597 4.597 0 0 0 2.599-1.16l27.031-15.614.411.72-27.082 15.563a8.012 8.012 0 0 1-3.755 1.184Z" style="mix-blend-mode:lighten"/>
      <path fill="#1A4BC9" d="M326.893 195.167a4.556 4.556 0 0 1-2.34-.618 6.17 6.17 0 0 1-2.572-5.659v-6.534a4.607 4.607 0 0 0-2.199-5.115 4.6 4.6 0 0 0-5.517.742l-5.632 3.241-.412-.694 5.633-3.267a5.427 5.427 0 0 1 8.847 5.145v6.533a5.43 5.43 0 0 0 2.186 4.965 5.348 5.348 0 0 0 5.401-.592l27.031-15.588.412.694-27.031 15.615a8.035 8.035 0 0 1-3.807 1.132Z" style="mix-blend-mode:lighten"/>
      <path fill="#1A4BC9" d="M337.413 201.212a4.548 4.548 0 0 1-2.341-.618 6.145 6.145 0 0 1-2.572-5.659v-6.534a4.631 4.631 0 0 0-5.087-5.623 4.625 4.625 0 0 0-2.629 1.25l-5.555 3.19-.412-.72 5.633-3.267a5.4 5.4 0 0 1 8.822 5.145v6.559a4.627 4.627 0 0 0 5.078 5.657 4.636 4.636 0 0 0 2.638-1.258l27.031-15.614.411.694-27.134 15.666a7.712 7.712 0 0 1-3.883 1.132Z" style="mix-blend-mode:lighten"/>
      <path fill="#1A4BC9" d="M347.932 207.257a4.788 4.788 0 0 1-2.341-.592 6.118 6.118 0 0 1-2.572-5.685v-6.508a4.63 4.63 0 0 0-7.715-4.399l-5.659 3.267-.386-.72 5.633-3.241a6.123 6.123 0 0 1 6.224-.592 6.17 6.17 0 0 1 2.572 5.685v6.508a4.63 4.63 0 0 0 7.716 4.399l27.031-15.589.411.695-27.031 15.614a7.715 7.715 0 0 1-3.883 1.158Z" style="mix-blend-mode:lighten"/>
      <path fill="#1A4BC9" d="M358.451 213.302a4.788 4.788 0 0 1-2.341-.592 6.15 6.15 0 0 1-2.571-5.685v-6.508a4.607 4.607 0 0 0-5.074-5.707c-1 .135-1.929.594-2.642 1.308l-5.659 3.267-.411-.694 5.658-3.267a5.403 5.403 0 0 1 8.822 5.145v6.508a5.355 5.355 0 0 0 2.212 4.964 5.395 5.395 0 0 0 5.401-.566l27.031-15.614.386.72-27.031 15.589a7.712 7.712 0 0 1-3.781 1.132Z" style="mix-blend-mode:lighten"/>
      <path fill="#1A4BC9" d="M369.022 219.347a4.474 4.474 0 0 1-2.341-.592 6.146 6.146 0 0 1-2.572-5.685v-6.508a4.607 4.607 0 0 0-2.179-5.144 4.6 4.6 0 0 0-5.537.745l-5.658 3.267-.411-.694 5.658-3.267a5.4 5.4 0 0 1 8.822 5.145v6.508a4.598 4.598 0 0 0 .284 2.841 4.597 4.597 0 0 0 4.696 2.724 4.606 4.606 0 0 0 2.607-1.166l27.031-15.615.411.721-27.005 15.46a7.954 7.954 0 0 1-3.806 1.26Z" style="mix-blend-mode:lighten"/>
      <path fill="#1A4BC9" d="M379.464 225.418a4.6 4.6 0 0 1-2.341-.618 6.17 6.17 0 0 1-2.572-5.659v-6.534a4.624 4.624 0 0 0-2.213-5.084 4.628 4.628 0 0 0-5.503.686l-5.529 3.266-.412-.694 5.659-3.267a5.404 5.404 0 0 1 6.244-.573 5.406 5.406 0 0 1 2.577 5.718v6.534a5.428 5.428 0 0 0 2.186 4.964 5.351 5.351 0 0 0 5.402-.591l27.005-15.769.411.72-27.031 15.615a8.02 8.02 0 0 1-3.883 1.286Z" style="mix-blend-mode:lighten"/>
      <path fill="#1A4BC9" d="M389.983 231.463a4.559 4.559 0 0 1-2.341-.617 6.182 6.182 0 0 1-2.571-5.66v-6.534a4.604 4.604 0 0 0-7.716-4.373l-5.633 3.242-.411-.695 5.632-3.267a5.398 5.398 0 0 1 6.245-.573 5.406 5.406 0 0 1 2.577 5.718v6.534a4.607 4.607 0 0 0 2.198 5.115 4.604 4.604 0 0 0 5.518-.742l26.979-15.64.412.694-27.031 15.615a8.026 8.026 0 0 1-3.858 1.183Z" style="mix-blend-mode:lighten"/>
      <path fill="#1A4BC9" d="M400.502 237.508a4.555 4.555 0 0 1-2.34-.617 6.148 6.148 0 0 1-2.572-5.66v-6.508a4.63 4.63 0 0 0-7.716-4.399l-5.658 3.267-.386-.72 5.632-3.267a5.401 5.401 0 0 1 8.822 5.145v6.508a4.635 4.635 0 0 0 2.214 5.085 4.625 4.625 0 0 0 5.502-.686l27.031-15.614.412.694-27.032 15.614a7.704 7.704 0 0 1-3.909 1.158Z" style="mix-blend-mode:lighten"/>
      <path fill="#1A4BC9" d="M411.021 243.553a4.774 4.774 0 0 1-2.34-.592 6.142 6.142 0 0 1-2.572-5.684v-6.509a4.6 4.6 0 0 0-2.18-5.144 4.6 4.6 0 0 0-5.536.746l-5.658 3.267-.412-.721 5.659-3.241a5.404 5.404 0 0 1 6.244-.573 5.406 5.406 0 0 1 2.577 5.718v6.508a5.353 5.353 0 0 0 2.212 4.965 5.405 5.405 0 0 0 5.401-.566l27.031-15.615.386.695-27.031 15.614a7.712 7.712 0 0 1-3.781 1.132Z" style="mix-blend-mode:lighten"/>
      <path fill="#1A4BC9" d="M421.541 249.598a4.728 4.728 0 0 1-2.341-.591 6.16 6.16 0 0 1-2.061-2.492 6.157 6.157 0 0 1-.511-3.193v-6.509a4.608 4.608 0 0 0-2.179-5.144 4.607 4.607 0 0 0-5.537.746l-5.658 3.267-.411-.695 5.658-3.267a5.398 5.398 0 0 1 6.244-.573 5.408 5.408 0 0 1 2.578 5.718v6.508a4.609 4.609 0 0 0 .283 2.842 4.607 4.607 0 0 0 7.304 1.557l27.031-15.615.411.695-27.031 15.614a7.706 7.706 0 0 1-3.78 1.132Z" style="mix-blend-mode:lighten"/>
      <path fill="#1A4BC9" d="M432.034 255.643a4.593 4.593 0 0 1-2.34-.591 6.177 6.177 0 0 1-2.572-5.685v-6.508a5.357 5.357 0 0 0-2.212-4.965 5.395 5.395 0 0 0-5.401.566l-5.633 3.267-.411-.695 5.658-3.267a5.398 5.398 0 0 1 6.244-.573 5.408 5.408 0 0 1 2.578 5.718v6.508a4.606 4.606 0 0 0 7.716 4.399l27.031-15.614.411.72-27.211 15.563a7.977 7.977 0 0 1-3.858 1.157Z" style="mix-blend-mode:lighten"/>
      <path fill="#1A4BC9" d="M442.553 261.817a4.555 4.555 0 0 1-2.34-.617 6.174 6.174 0 0 1-2.572-5.66v-6.585a5.434 5.434 0 0 0-2.212-4.965 5.356 5.356 0 0 0-5.401.592l-5.633 3.241-.411-.694 5.632-3.267a5.403 5.403 0 0 1 8.822 5.145v6.533a5.431 5.431 0 0 0 2.212 4.965 5.346 5.346 0 0 0 5.401-.592l27.031-15.588.412.694-27.057 15.512a8.027 8.027 0 0 1-3.884 1.286Z" style="mix-blend-mode:lighten"/>
      <path fill="#1A4BC9" d="M453.073 267.759a4.556 4.556 0 0 1-2.341-.617 6.177 6.177 0 0 1-2.572-5.659v-6.534a5.422 5.422 0 0 0-2.212-4.965 5.346 5.346 0 0 0-5.401.592l-5.658 3.241-.386-.695 5.633-3.267a5.405 5.405 0 0 1 6.244-.572 5.399 5.399 0 0 1 2.577 5.717v6.534a4.635 4.635 0 0 0 2.214 5.085 4.625 4.625 0 0 0 5.502-.686l27.031-15.615.412.695-27.031 15.614a8.017 8.017 0 0 1-4.012 1.132Z" style="mix-blend-mode:lighten"/>
      <path fill="#1A4BC9" d="M463.592 273.804a4.547 4.547 0 0 1-2.341-.617 6.096 6.096 0 0 1-2.572-5.659v-6.508a4.607 4.607 0 0 0-2.188-4.97 4.602 4.602 0 0 0-5.399.571l-5.658 3.267-.386-.721 5.633-3.266a5.397 5.397 0 0 1 6.244-.573 5.399 5.399 0 0 1 2.577 5.717v6.508a5.357 5.357 0 0 0 2.212 4.965 5.395 5.395 0 0 0 5.401-.566l27.031-15.614.412.694-27.057 15.615a7.716 7.716 0 0 1-3.909 1.157Z" style="mix-blend-mode:lighten"/>
      <path fill="#1A4BC9" d="M474.111 279.824a4.782 4.782 0 0 1-2.34-.592 6.145 6.145 0 0 1-2.572-5.685v-6.585a4.607 4.607 0 0 0-2.189-4.969 4.602 4.602 0 0 0-5.399.57l-5.658 3.267-.411-.72 5.658-3.242a5.405 5.405 0 0 1 6.244-.572 5.4 5.4 0 0 1 2.578 5.717v6.508a4.607 4.607 0 0 0 2.188 4.97 4.602 4.602 0 0 0 5.399-.571l27.057-15.614.385.694-27.031 15.615a7.72 7.72 0 0 1-3.909 1.209Z" style="mix-blend-mode:lighten"/>
      <path fill="url(#c)" d="M460.608 267.914v24.026L252.873 411.89 45.137 291.94v-24.026h415.471Z"/>
      <path fill="#BCBEFF" d="M252.873 387.864 45.137 267.914l207.736-119.951 207.735 119.951-207.735 119.95Z"/>
      <path fill="#fff" d="M252.873 385.06 47.581 266.524l-2.444 1.39 207.736 119.95 207.735-119.95-2.443-1.39L252.873 385.06Z"/>
      <path fill="#0F054C" d="M252.873 360.211 93.104 267.939l159.769-92.245 159.769 92.245-159.769 92.272Z"/>
      <path fill="url(#d)" d="M252.873 360.211 93.104 267.939l159.769-92.245 159.769 92.271-159.769 92.246Z" opacity=".5"/>
      <path fill="url(#e)" d="m252.873 152.414 159.769 92.271v23.254l-159.769-92.245v-23.28Z" opacity=".5"/>
      <path fill="url(#f)" d="M252.873 175.694 93.104 267.939v-23.254l159.769-92.271v23.28Z" opacity=".5"/>
      <path fill="url(#g)" d="M252.873 336.956 93.104 244.685l159.769-92.271 159.769 92.271-159.769 92.271Z" opacity=".5"/>
      <path fill="#1A4BC9" d="m252.873 281.547-63.836-36.862 63.836-36.862 63.835 36.862-63.835 36.862Z" opacity=".5"/>
      <path fill="#1A4BC9" d="m252.873 211.218 60.903 35.165 2.932-1.698-63.835-36.862-63.836 36.862 2.932 1.698 60.904-35.165Z" opacity=".5"/>
      <path fill="url(#h)" d="M252.873 336.956v23.255l159.769-92.272v-23.254l-159.769 92.271Z" opacity=".5"/>
      <path fill="url(#i)" d="M93.104 244.685v23.254l159.769 92.272v-23.255L93.104 244.685Z" opacity=".5"/>
      <path fill="#1A4BC9" d="M252.873 334.41 95.29 243.424l-2.186 1.261 159.769 92.271 159.769-92.271-2.186-1.261-157.583 90.986Z" opacity=".8"/>
      <path fill="#1A4BC9" d="m304.723 440.083-27.031-15.614a18.63 18.63 0 0 1-8.41-14.586v-6.585a17.726 17.726 0 0 0-8.025-13.865l-5.401-3.19.412-.72 5.632 3.267a18.594 18.594 0 0 1 8.411 14.585v6.508a17.716 17.716 0 0 0 8.024 13.891l26.903 15.537-.515.772Z" style="mix-blend-mode:lighten"/>
      <path fill="#1A4BC9" d="m315.345 434.012-27.031-15.588a18.655 18.655 0 0 1-8.41-14.586v-6.534a17.722 17.722 0 0 0-8.024-13.865l-5.736-3.292.386-.695 5.658 3.267a18.625 18.625 0 0 1 8.41 14.56v6.533a17.734 17.734 0 0 0 8.025 13.866l27.031 15.614-.309.72Z" style="mix-blend-mode:lighten"/>
      <path fill="#1A4BC9" d="m325.865 427.967-27.032-15.614a18.608 18.608 0 0 1-8.436-14.586v-6.508a17.776 17.776 0 0 0-7.998-13.891l-5.633-3.241.386-.72 5.658 3.267a18.671 18.671 0 0 1 8.411 14.585v6.508a17.86 17.86 0 0 0 7.998 13.891l27.057 15.615-.411.694Z" style="mix-blend-mode:lighten"/>
      <path fill="#1A4BC9" d="m336.384 421.896-27.057-15.614a18.619 18.619 0 0 1-8.41-14.56v-6.431a17.692 17.692 0 0 0-2.343-7.888 17.689 17.689 0 0 0-5.656-5.977l-5.658-3.267.411-.694 5.659 3.241a18.703 18.703 0 0 1 8.41 14.585v6.534a17.745 17.745 0 0 0 7.998 13.865l27.032 15.615-.386.591Z" style="mix-blend-mode:lighten"/>
      <path fill="#1A4BC9" d="m346.877 415.851-27.031-15.614a18.68 18.68 0 0 1-8.41-14.586v-6.508a17.777 17.777 0 0 0-7.999-13.89l-5.658-3.113.411-.72 5.633 3.267a18.597 18.597 0 0 1 8.436 14.585v6.508a17.781 17.781 0 0 0 7.999 13.891l27.031 15.589-.412.591Z" style="mix-blend-mode:lighten"/>
      <path fill="#1A4BC9" d="m357.396 409.78-26.953-15.614a18.615 18.615 0 0 1-8.411-14.56v-6.533a17.73 17.73 0 0 0-8.024-13.866l-5.633-3.267.412-.694 5.632 3.241a18.624 18.624 0 0 1 8.436 14.586v6.533a17.705 17.705 0 0 0 7.999 13.865l27.031 15.615-.489.694Z" style="mix-blend-mode:lighten"/>
      <path fill="#1A4BC9" d="m367.916 403.71-27.031-15.589a18.594 18.594 0 0 1-8.411-14.585v-6.534a17.721 17.721 0 0 0-8.024-13.865l-5.633-3.267.412-.695 5.632 3.267a18.542 18.542 0 0 1 8.411 14.56v6.534a17.729 17.729 0 0 0 8.024 13.865l27.031 15.614-.411.695Z" style="mix-blend-mode:lighten"/>
      <path fill="#1A4BC9" d="m378.435 397.664-27.031-15.614a18.572 18.572 0 0 1-8.41-14.585v-6.508a17.73 17.73 0 0 0-8.025-13.866l-5.632-3.266.385-.721 5.659 3.267a18.63 18.63 0 0 1 8.41 14.586v6.508a17.725 17.725 0 0 0 8.024 13.891l27.031 15.614-.411.694Z" style="mix-blend-mode:lighten"/>
      <path fill="#1A4BC9" d="m388.954 391.594-27.031-15.589a18.672 18.672 0 0 1-8.436-14.585v-6.534a17.698 17.698 0 0 0-7.999-13.865l-5.658-3.267.412-.695 5.658 3.267a18.622 18.622 0 0 1 8.41 14.56v6.534a17.75 17.75 0 0 0 7.999 13.865l27.031 15.614-.386.695Z" style="mix-blend-mode:lighten"/>
      <path fill="#1A4BC9" d="m399.448 385.549-27.031-15.692a18.632 18.632 0 0 1-8.411-14.585v-6.508a17.798 17.798 0 0 0-7.998-13.891l-5.659-3.242.412-.72 5.658 3.267a18.62 18.62 0 0 1 8.41 14.586v6.508a17.728 17.728 0 0 0 7.999 13.89l27.057 15.666-.437.721Z" style="mix-blend-mode:lighten"/>
      <path fill="#1A4BC9" d="m409.967 379.478-27.031-15.615a18.625 18.625 0 0 1-8.41-14.559v-6.534a17.756 17.756 0 0 0-7.999-13.865l-5.658-3.267.411-.695 5.633 3.241a18.688 18.688 0 0 1 8.436 14.586v6.508a17.695 17.695 0 0 0 7.998 13.865l27.031 15.615-.411.72Z" style="mix-blend-mode:lighten"/>
      <path fill="#1A4BC9" d="m420.46 373.433-27.031-15.615a18.67 18.67 0 0 1-8.41-14.585v-6.508a17.729 17.729 0 0 0-8.024-13.891l-5.633-3.267.412-.695 5.632 3.267a18.572 18.572 0 0 1 8.41 14.586v6.508a17.726 17.726 0 0 0 8.025 13.865l27.031 15.614-.412.721Z" style="mix-blend-mode:lighten"/>
      <path fill="#1A4BC9" d="m431.005 367.285-27.031-15.435a18.566 18.566 0 0 1-8.41-14.585v-6.508a17.714 17.714 0 0 0-2.357-7.891 17.712 17.712 0 0 0-5.667-5.974l-5.659-3.37.386-.695 5.658 3.242a18.683 18.683 0 0 1 8.411 14.585v6.508a17.732 17.732 0 0 0 2.35 7.906 17.738 17.738 0 0 0 5.674 5.985l27.031 15.614-.386.618Z" style="mix-blend-mode:lighten"/>
      <path fill="#1A4BC9" d="m441.525 361.291-27.032-15.589a18.682 18.682 0 0 1-8.436-14.585v-6.534a17.695 17.695 0 0 0-7.998-13.865l-5.658-3.267.411-.694 5.658 3.266a18.628 18.628 0 0 1 8.411 14.56v6.534a17.756 17.756 0 0 0 2.347 7.886 17.756 17.756 0 0 0 5.651 5.979l27.031 15.614-.385.695Z" style="mix-blend-mode:lighten"/>
      <path fill="#1A4BC9" d="m452.018 355.246-27.031-15.614a18.62 18.62 0 0 1-8.41-14.586v-6.508a17.861 17.861 0 0 0-7.999-13.891l-5.658-3.241.411-.72 5.659 3.267a18.67 18.67 0 0 1 8.41 14.585v6.508a17.769 17.769 0 0 0 7.999 13.891l27.031 15.486-.412.823Z" style="mix-blend-mode:lighten"/>
      <path fill="#1A4BC9" d="m462.537 349.278-27.031-15.614a18.634 18.634 0 0 1-8.41-14.56v-6.534a17.758 17.758 0 0 0-7.999-13.865l-5.658-3.267.411-.695 5.633 3.267a18.578 18.578 0 0 1 8.436 14.56v6.534a17.696 17.696 0 0 0 7.999 13.865l27.031 15.614-.412.695Z" style="mix-blend-mode:lighten"/>
      <path fill="#1A4BC9" d="m473.057 343.13-27.032-15.614a18.677 18.677 0 0 1-8.41-14.586v-6.508a17.72 17.72 0 0 0-8.024-13.891l-5.633-3.241.412-.72 5.632 3.267a18.569 18.569 0 0 1 8.411 14.585v6.508a17.805 17.805 0 0 0 8.024 13.891l27.031 15.589-.411.72Z" style="mix-blend-mode:lighten"/>
      <path fill="#1A4BC9" d="m483.576 337.059-27.108-15.614a18.542 18.542 0 0 1-8.411-14.56v-6.482a17.721 17.721 0 0 0-8.024-13.865l-5.633-3.267.386-.695 5.658 3.241a18.709 18.709 0 0 1 8.411 14.586v6.534a17.725 17.725 0 0 0 8.024 13.865l27.108 15.614-.411.643Z" style="mix-blend-mode:lighten"/>
      <path fill="#1A4BC9" d="M494.095 331.014 467.064 315.4a18.624 18.624 0 0 1-8.436-14.586v-6.534a17.692 17.692 0 0 0-2.343-7.888 17.689 17.689 0 0 0-5.656-5.977l-5.632-3.164.385-.694 5.659 3.267a18.622 18.622 0 0 1 8.41 14.559v6.534a17.741 17.741 0 0 0 7.999 13.865l27.056 15.615-.411.617Z" style="mix-blend-mode:lighten"/>
      <path fill="#1A4BC9" d="m504.614 324.943-27.057-15.614a18.63 18.63 0 0 1-8.41-14.585v-6.509a17.704 17.704 0 0 0-7.999-13.865l-5.658-3.267.412-.72 5.658 3.267a18.68 18.68 0 0 1 8.41 14.585v6.509a17.766 17.766 0 0 0 7.999 13.89L505 324.249l-.386.694Zm-304.44 115.14-.386-.694 27.031-15.512a17.775 17.775 0 0 0 7.999-13.891v-6.688a18.682 18.682 0 0 1 8.41-14.585l5.658-3.267.412.72-5.658 3.267a17.698 17.698 0 0 0-7.999 13.865v6.508a18.597 18.597 0 0 1-8.436 14.586l-27.031 15.691Z" style="mix-blend-mode:lighten"/>
      <path fill="#1A4BC9" d="m189.68 434.012-.411-.694 27.031-15.615a17.709 17.709 0 0 0 7.999-13.865v-6.534a18.624 18.624 0 0 1 8.41-14.585l5.658-3.267.412.695-5.659 3.267a17.744 17.744 0 0 0-7.998 13.865v6.533a18.708 18.708 0 0 1-8.411 14.586l-27.031 15.614Z" style="mix-blend-mode:lighten"/>
      <path fill="#1A4BC9" d="m179.161 427.967-.411-.694 27.031-15.615a17.776 17.776 0 0 0 7.998-13.891v-6.508a18.605 18.605 0 0 1 8.436-14.585l5.633-3.267.411.72-5.658 3.241a17.872 17.872 0 0 0-5.646 5.997 17.864 17.864 0 0 0-2.352 7.894v6.508a18.63 18.63 0 0 1-8.411 14.586l-27.031 15.614Z" style="mix-blend-mode:lighten"/>
      <path fill="#1A4BC9" d="m168.642 421.896-.412-.694 27.032-15.615a17.712 17.712 0 0 0 5.667-5.974 17.71 17.71 0 0 0 2.357-7.891v-6.431a18.653 18.653 0 0 1 8.41-14.585l5.581-3.421.412.694-5.556 3.344a17.722 17.722 0 0 0-8.024 13.865v6.534a18.622 18.622 0 0 1-8.41 14.56l-27.057 15.614Z" style="mix-blend-mode:lighten"/>
      <path fill="#1A4BC9" d="m158.123 415.851-.412-.72 27.031-15.589a17.795 17.795 0 0 0 8.025-13.891v-6.508a18.624 18.624 0 0 1 8.41-14.585l5.658-3.267.386.72-5.633 3.242a17.717 17.717 0 0 0-8.024 13.89v6.508a18.604 18.604 0 0 1-8.41 14.586l-27.031 15.614Z" style="mix-blend-mode:lighten"/>
      <path fill="#1A4BC9" d="m147.604 409.78-.386-.694 27.031-15.615a17.746 17.746 0 0 0 7.999-13.865v-6.533a18.674 18.674 0 0 1 8.41-14.586l5.658-3.241.412.694-5.659 3.267a17.708 17.708 0 0 0-7.998 13.866v6.533a18.578 18.578 0 0 1-8.436 14.56l-27.031 15.614Z" style="mix-blend-mode:lighten"/>
      <path fill="#1A4BC9" d="m137.11 403.71-.412-.695 27.032-15.614a17.708 17.708 0 0 0 7.998-13.865v-6.534a18.622 18.622 0 0 1 8.411-14.56l5.658-3.267.411.695-5.658 3.267a17.756 17.756 0 0 0-7.999 13.865v6.534a18.67 18.67 0 0 1-8.41 14.585L137.11 403.71Z" style="mix-blend-mode:lighten"/>
      <path fill="#1A4BC9" d="m126.591 397.664-.412-.694 27.031-15.614a17.702 17.702 0 0 0 7.999-13.891v-6.508a18.597 18.597 0 0 1 8.436-14.586l5.633-3.267.411.721-5.658 3.266a17.749 17.749 0 0 0-7.999 13.866v6.508a18.624 18.624 0 0 1-8.41 14.585l-27.031 15.614Zm-21.039-12.115-.411-.721 27.031-15.588a17.754 17.754 0 0 0 8.024-13.891v-6.508a18.628 18.628 0 0 1 8.411-14.586l5.658-3.267.386.721-5.633 3.241a17.749 17.749 0 0 0-8.024 13.891v6.508a18.576 18.576 0 0 1-8.411 14.585l-27.031 15.615Z" style="mix-blend-mode:lighten"/>
      <path fill="#1A4BC9" d="m95.033 379.478-.411-.695 27.056-15.614a17.74 17.74 0 0 0 5.651-5.98 17.737 17.737 0 0 0 2.348-7.885v-6.534a18.708 18.708 0 0 1 8.41-14.586l5.659-3.241.385.695-5.632 3.267a17.696 17.696 0 0 0-7.999 13.865v6.508a18.574 18.574 0 0 1-8.436 14.56l-27.03 15.64Z" style="mix-blend-mode:lighten"/>
      <path fill="#1A4BC9" d="m84.514 373.433-.386-.721 27.031-15.717a17.746 17.746 0 0 0 7.999-13.865v-6.508a18.628 18.628 0 0 1 8.41-14.586l5.658-3.266.412.694-5.658 3.267a17.693 17.693 0 0 0-7.999 13.891v6.508a18.67 18.67 0 0 1-8.41 14.585l-27.057 15.718Z" style="mix-blend-mode:lighten"/>
      <path fill="#1A4BC9" d="m74.02 367.285-.411-.695 27.031-15.614a17.702 17.702 0 0 0 7.999-13.891v-6.508a18.625 18.625 0 0 1 8.436-14.586l5.632-3.241.412.695-5.659 3.267a17.753 17.753 0 0 0-7.998 13.865v6.508a18.624 18.624 0 0 1-8.411 14.585l-27.03 15.615Z" style="mix-blend-mode:lighten"/>
      <path fill="#1A4BC9" d="m63.501 361.291-.411-.695 27.03-15.614a17.696 17.696 0 0 0 8-13.865v-6.534a18.574 18.574 0 0 1 8.435-14.56l5.633-3.266.411.694-5.632 3.241a17.718 17.718 0 0 0-7.999 13.891v6.534a18.707 18.707 0 0 1-8.41 14.585L63.5 361.291Z" style="mix-blend-mode:lighten"/>
      <path fill="#1A4BC9" d="m52.982 355.246-.309-.823 26.928-15.435a17.717 17.717 0 0 0 8.025-13.89v-6.509a18.605 18.605 0 0 1 8.41-14.585l5.633-3.267.411.72-5.684 3.19a17.808 17.808 0 0 0-8.024 13.891v6.508a18.578 18.578 0 0 1-8.41 14.586l-26.98 15.614Z" style="mix-blend-mode:lighten"/>
      <path fill="#1A4BC9" d="m42.386 349.278-.412-.695 27.031-15.614a17.724 17.724 0 0 0 8.025-13.865v-6.534a18.628 18.628 0 0 1 8.41-14.56l5.658-3.267.386.695-5.633 3.267a17.724 17.724 0 0 0-8.024 13.865v6.534a18.55 18.55 0 0 1-8.41 14.56l-27.032 15.614Z" style="mix-blend-mode:lighten"/>
      <path fill="#1A4BC9" d="m31.944 343.13-.386-.72 27.03-15.589a17.845 17.845 0 0 0 8-13.891v-6.508a18.623 18.623 0 0 1 8.41-14.585l5.658-3.267.411.72-5.658 3.241a17.7 17.7 0 0 0-7.999 13.891v6.508a18.628 18.628 0 0 1-8.435 14.586L31.942 343.13Z" style="mix-blend-mode:lighten"/>
      <path fill="#1A4BC9" d="m21.45 337.059-.412-.694L48.07 320.75a17.695 17.695 0 0 0 8-13.865v-6.482a18.701 18.701 0 0 1 8.41-14.586l5.658-3.241.411.695-5.658 3.267a17.75 17.75 0 0 0-7.999 13.865v6.534a18.627 18.627 0 0 1-8.41 14.559L21.45 337.059Z" style="mix-blend-mode:lighten"/>
      <path fill="#1A4BC9" d="m10.93 331.014-.41-.72 27.03-15.615a17.688 17.688 0 0 0 7.999-13.865v-6.534a18.577 18.577 0 0 1 8.436-14.559l5.633-3.267.411.694-5.658 3.267a17.744 17.744 0 0 0-7.999 13.865v6.534a18.682 18.682 0 0 1-8.41 14.586L10.93 331.014Z" style="mix-blend-mode:lighten"/>
      <path fill="#1A4BC9" d="M.412 324.943 0 324.249l26.954-15.615a17.716 17.716 0 0 0 8.024-13.89v-6.509a18.605 18.605 0 0 1 8.41-14.585l5.633-3.267.412.72-5.633 3.267a17.724 17.724 0 0 0-8.024 13.865v6.509a18.63 18.63 0 0 1-8.41 14.585L.411 324.943Zm115.66 67.011-.412-.72 27.031-15.615a17.715 17.715 0 0 0 8.025-13.865v-6.534a18.54 18.54 0 0 1 8.41-14.559l5.632-3.267.412.694-5.633 3.267a17.725 17.725 0 0 0-8.024 13.865v6.534a18.708 18.708 0 0 1-8.41 14.585l-27.031 15.615Z" style="mix-blend-mode:lighten"/>
      <use xlink:href="#j"/>
      <use xlink:href="#k"/>
      <use xlink:href="#l"/>
      <use xlink:href="#m"/>
      <path fill="#fff" d="m252.873 163.552-37.062-21.428-1.697.978 38.759 22.379 38.759-22.379-1.697-.952-37.062 21.402Z"/>
      <use xlink:href="#n"/>
      <use xlink:href="#o"/>
      <use xlink:href="#p"/>
      <path fill="#1A4BC9" d="m303.206 192.26-38.759-22.38 38.759-22.38 38.759 22.38-38.759 22.38Z"/>
      <path fill="#fff" d="m303.206 192.26-37.062-21.402-1.697.977 38.759 22.38 38.759-22.38-1.672-.977-37.087 21.402Z"/>
      <path fill="#1A4BC9" d="m353.539 220.993-38.734-22.379v44.759l38.734 22.38 38.759-22.38v-44.759l-38.759 22.379Z"/>
      <path fill="#1A4BC9" d="m353.539 265.753-38.734-22.38v-44.759l38.734 22.379v44.76Z"/>
      <path fill="#4183E8" d="m392.298 243.373-38.759 22.38v-44.76l38.759-22.379v44.759Z"/>
      <path fill="#1A4BC9" d="m353.539 220.993-38.734-22.379 38.734-22.38 38.759 22.38-38.759 22.379Z"/>
      <path fill="#fff" d="m353.539 220.993-37.062-21.402-1.672.978 38.734 22.379 38.759-22.379v-1.955l-38.759 22.379Z"/>
      <use xlink:href="#q"/>
      <use xlink:href="#r"/>
      <use xlink:href="#s"/>
      <use xlink:href="#t"/>
      <path fill="#fff" d="m202.54 194.215-37.087-21.402-1.672.951 38.759 22.38 38.733-22.38-1.671-.951-37.062 21.402Z"/>
      <use xlink:href="#u"/>
      <use xlink:href="#v"/>
      <use xlink:href="#w"/>
      <use xlink:href="#x"/>
      <path fill="#fff" d="m252.873 222.948-37.062-21.428-1.697.978 38.759 22.38 38.759-22.38-1.697-.978-37.062 21.428Z"/>
      <path fill="#1A4BC9" d="m303.206 251.656-38.759-22.38v44.76l38.759 22.38 38.759-22.38v-44.76l-38.759 22.38Z"/>
      <path fill="#1A4BC9" d="m303.206 296.416-38.759-22.38v-44.76l38.759 22.38v44.76Z"/>
      <path fill="#4183E8" d="m341.965 274.036-38.759 22.38v-44.76l38.759-22.38v44.76Z"/>
      <path fill="#1A4BC9" d="m303.206 251.656-38.759-22.38 38.759-22.379 38.759 22.379-38.759 22.38Z"/>
      <path fill="#fff" d="m303.206 251.656-37.062-21.402-1.697.977 38.759 22.38 38.759-22.38v-1.955l-38.759 22.38Z"/>
      <path fill="#1A4BC9" d="m152.207 224.878-38.759-22.38v44.759l38.759 22.38 38.734-22.38v-44.759l-38.734 22.38Z"/>
      <path fill="#1A4BC9" d="m152.207 269.637-38.759-22.38v-44.759l38.759 22.38v44.759Z"/>
      <path fill="#4183E8" d="m190.941 247.257-38.734 22.38v-44.759l38.734-22.38v44.759Z"/>
      <path fill="#1A4BC9" d="m152.207 224.878-38.759-22.38 38.759-22.38 38.734 22.38-38.734 22.38Z"/>
      <path fill="#fff" d="m152.207 224.878-38.759-22.38v1.929l38.759 22.38 38.734-22.354-1.672-.978-37.062 21.403Z"/>
      <path fill="#1A4BC9" d="m202.54 253.611-38.759-22.38v44.76l38.759 22.354 38.759-22.354v-44.76l-38.759 22.38Z"/>
      <path fill="#1A4BC9" d="m202.54 298.371-38.759-22.38v-44.76l38.759 22.38v44.76Z"/>
      <path fill="#4183E8" d="m241.299 275.991-38.759 22.38v-44.76l38.759-22.38v44.76Z"/>
      <path fill="#1A4BC9" d="m202.54 253.611-38.759-22.38 38.759-22.379 38.733 22.379-38.733 22.38Z"/>
      <path fill="#fff" d="m202.54 253.611-38.759-22.38v1.93l38.759 22.379 38.733-22.379-1.671-.952-37.062 21.402Z"/>
      <path fill="#1A4BC9" d="m252.873 282.319-38.759-22.354v44.734l38.759 22.379 38.759-22.379v-44.734l-38.759 22.354Z"/>
      <path fill="#1A4BC9" d="m252.873 327.078-38.759-22.379v-44.734l38.759 22.354v44.759Z"/>
      <path fill="#4183E8" d="m291.632 304.699-38.759 22.379v-44.759l38.759-22.354v44.734Z"/>
      <path fill="#1A4BC9" d="m252.873 282.319-38.759-22.354 38.759-22.38 38.759 22.38-38.759 22.354Z"/>
      <path fill="#fff" d="m252.873 282.319-38.759-22.354v1.929l38.759 22.38 38.759-22.38v-1.929l-38.759 22.354Z"/>
      <path fill="#1A4BC9" d="m252.873 104.156-38.759-22.38v44.759l38.759 22.354 38.759-22.354V81.776l-38.759 22.38Z"/>
      <path fill="#1A4BC9" d="m252.873 148.889-38.759-22.354V81.776l38.759 22.38v44.733Z"/>
      <path fill="#4183E8" d="m291.632 126.535-38.759 22.354v-44.733l38.759-22.38v44.759Z"/>
      <path fill="#1A4BC9" d="m252.873 104.156-38.759-22.38 38.759-22.38 38.759 22.38-38.759 22.38Z"/>
      <path fill="#fff" d="m252.873 104.156-37.062-21.428-1.697.977 38.759 22.38 38.759-22.38-1.697-.951-37.062 21.402Z"/>
      <path fill="#022F65" d="m252.873 275.039-26.44-15.254 26.44-15.28 26.439 15.28-26.439 15.254Zm-50.333-28.733-26.439-15.255 26.439-15.254 26.44 15.254-26.44 15.255Zm100.666-1.93-26.44-15.28 26.44-15.254 26.439 15.254-26.439 15.28Zm50.435-30.328-26.439-15.254 26.439-15.255 26.44 15.255-26.44 15.254Zm-201.434 3.55-26.439-15.28 26.439-15.254 26.414 15.254-26.414 15.28Z" opacity=".7"/>
      <path fill="#1A4BC9" d="m303.206 132.889-38.759-22.405v44.759l38.759 22.38 38.759-22.38v-44.759l-38.759 22.405Z"/>
      <path fill="#1A4BC9" d="m303.206 177.623-38.759-22.38v-44.759l38.759 22.405v44.734Z"/>
      <path fill="#4183E8" d="m341.965 155.243-38.759 22.38v-44.734l38.759-22.405v44.759Z"/>
      <path fill="#1A4BC9" d="m303.206 132.889-38.759-22.405 38.759-22.354 38.759 22.38-38.759 22.379Z"/>
      <path fill="#fff" d="m303.206 132.889-37.062-21.428-1.697.978 38.759 22.38 38.759-22.38-1.672-.978-37.087 21.428Z"/>
      <path fill="#1A4BC9" d="m353.539 161.597-38.734-22.38v44.76l38.734 22.379 38.759-22.379v-44.76l-38.759 22.38Z"/>
      <path fill="#1A4BC9" d="m353.539 206.356-38.734-22.379v-44.76l38.734 22.38v44.759Z"/>
      <path fill="#4183E8" d="m392.298 183.977-38.759 22.379v-44.759l38.759-22.38v44.76Z"/>
      <path fill="#1A4BC9" d="m353.539 161.597-38.734-22.38 38.734-22.379 38.759 22.379-38.759 22.38Z"/>
      <path fill="#fff" d="m353.539 161.597-37.062-21.402-1.672.977 38.734 22.38 38.759-22.38v-1.955l-38.759 22.38Z"/>
      <path fill="#1A4BC9" d="m202.54 134.819-38.759-22.38v44.759l38.759 22.38 38.759-22.38v-44.759l-38.759 22.38Z"/>
      <path fill="#1A4BC9" d="m202.54 179.578-38.759-22.38v-44.759l38.759 22.38v44.759Z"/>
      <path fill="#4183E8" d="m241.299 157.198-38.759 22.38v-44.759l38.759-22.38v44.759Z"/>
      <path fill="#1A4BC9" d="m202.54 134.819-38.759-22.38 38.759-22.38 38.733 22.38-38.733 22.38Z"/>
      <path fill="#fff" d="m202.54 134.819-37.087-21.403-1.672.978 38.759 22.354 38.733-22.354-1.671-.978-37.062 21.403Z"/>
      <use xlink:href="#j"/>
      <use xlink:href="#k"/>
      <use xlink:href="#l"/>
      <use xlink:href="#m"/>
      <path fill="#fff" d="m252.873 163.552-37.062-21.402-1.697.952 38.759 22.379 38.759-22.379-1.697-.952-37.062 21.402Z"/>
      <use xlink:href="#n"/>
      <use xlink:href="#o"/>
      <use xlink:href="#p"/>
      <path fill="#1A4BC9" d="m303.206 192.26-38.759-22.38 38.759-22.38 38.759 22.406-38.759 22.354Z"/>
      <path fill="#fff" d="m303.206 192.26-37.062-21.402-1.697.977 38.759 22.38 38.759-22.38v-1.955l-38.759 22.38Z"/>
      <path fill="#1A4BC9" d="m152.207 165.481-38.759-22.379v44.759l38.759 22.38 38.734-22.38v-44.759l-38.734 22.379Z"/>
      <path fill="#1A4BC9" d="m152.207 210.241-38.759-22.38v-44.759l38.759 22.379v44.76Z"/>
      <path fill="#4183E8" d="m190.941 187.861-38.734 22.38v-44.76l38.734-22.379v44.759Z"/>
      <path fill="#1A4BC9" d="m152.207 165.481-38.759-22.379 38.759-22.38 38.734 22.38-38.734 22.379Z"/>
      <path fill="#fff" d="m152.207 165.481-37.087-21.402-1.672.978 38.759 22.379 38.734-22.379-1.672-.978-37.062 21.402Z"/>
      <use xlink:href="#q"/>
      <use xlink:href="#r"/>
      <use xlink:href="#s"/>
      <use xlink:href="#t"/>
      <path fill="#fff" d="m202.54 194.215-38.759-22.38v1.929l38.759 22.38 38.733-22.38-1.671-.951-37.062 21.402Z"/>
      <use xlink:href="#u"/>
      <use xlink:href="#v"/>
      <use xlink:href="#w"/>
      <use xlink:href="#x"/>
      <path fill="#fff" d="m252.873 222.948-38.759-22.379v1.929l38.759 22.38 38.759-22.38v-1.929l-38.759 22.379Z"/>
      <path fill="#022F65" d="m353.641 154.935-26.439-15.28 26.439-15.255 26.44 15.255-26.44 15.28Zm-201.434 3.524-26.439-15.255 26.439-15.279 26.414 15.279-26.414 15.255Z" opacity=".7"/>
      <path fill="#1A4BC9" d="m252.873 44.76-38.759-22.38v44.76l38.759 22.379 38.759-22.38V22.38l-38.759 22.38Z"/>
      <path fill="#1A4BC9" d="m252.873 89.519-38.759-22.38V22.38l38.759 22.38v44.76Z"/>
      <path fill="#4183E8" d="m291.632 67.14-38.759 22.379v-44.76l38.759-22.38v44.76Z"/>
      <path fill="#1A4BC9" d="m252.873 44.76-38.759-22.38L252.873 0l38.759 22.38-38.759 22.38Z"/>
      <path fill="#fff" d="m252.873 44.76-38.759-22.38v1.929l38.759 22.38 38.759-22.38v-1.93l-38.759 22.38Z"/>
      <path fill="#1A4BC9" d="m303.206 73.493-38.759-22.38v44.734l38.759 22.38 38.759-22.38V51.113l-38.759 22.38Z"/>
      <path fill="#1A4BC9" d="m303.206 118.227-38.759-22.38V51.113l38.759 22.38v44.734Z"/>
      <path fill="#4183E8" d="m341.965 95.847-38.759 22.38V73.493l38.759-22.38v44.734Z"/>
      <path fill="#1A4BC9" d="m303.206 73.493-38.759-22.38 38.759-22.38 38.759 22.38-38.759 22.38Z"/>
      <path fill="#fff" d="m303.206 73.493-38.759-22.38v1.93l38.759 22.38 38.759-22.38v-1.93l-38.759 22.38Z"/>
      <path fill="#1A4BC9" d="m353.539 102.201-38.734-22.38v44.759l38.734 22.38 38.759-22.38V79.821l-38.759 22.38Z"/>
      <path fill="#1A4BC9" d="m353.539 146.96-38.734-22.38V79.821l38.734 22.38v44.759Z"/>
      <path fill="#4183E8" d="m392.298 124.58-38.759 22.38v-44.759l38.759-22.38v44.759Z"/>
      <path fill="#1A4BC9" d="m353.539 102.201-38.734-22.38 38.734-22.38 38.759 22.38-38.759 22.38Z"/>
      <path fill="#fff" d="m353.539 102.201-38.734-22.38v1.955l38.734 22.38 38.759-22.38v-1.955l-38.759 22.38Z"/>
      <path fill="#1A4BC9" d="m202.54 75.422-38.759-22.38v44.76l38.759 22.38 38.759-22.38v-44.76l-38.759 22.38Z"/>
      <path fill="#1A4BC9" d="m202.54 120.182-38.759-22.38v-44.76l38.759 22.38v44.76Z"/>
      <path fill="#4183E8" d="m241.299 97.802-38.759 22.38v-44.76l38.759-22.38v44.76Z"/>
      <path fill="#1A4BC9" d="m202.54 75.422-38.759-22.38 38.759-22.38 38.733 22.38-38.733 22.38Z"/>
      <path fill="#fff" d="m202.54 75.422-38.759-22.38v1.956l38.759 22.354 38.733-22.355.026-1.955-38.759 22.38Z"/>
      <path fill="#1A4BC9" d="m152.207 106.085-38.759-22.38v44.76l38.759 22.379 38.734-22.379v-44.76l-38.734 22.38Z"/>
      <path fill="#1A4BC9" d="m152.207 150.844-38.759-22.379v-44.76l38.759 22.38v44.759Z"/>
      <path fill="#4183E8" d="m190.941 128.465-38.734 22.379v-44.759l38.734-22.38v44.76Z"/>
      <path fill="#1A4BC9" d="m152.207 106.085-38.759-22.38 38.759-22.38 38.734 22.38-38.734 22.38Z"/>
      <path fill="#fff" d="m152.207 106.085-38.759-22.38v1.955l38.759 22.38 38.734-22.38v-1.955l-38.734 22.38Z"/>
    </g>
    <defs>
      <linearGradient id="b" x1="-57.56" x2="474.805" y1="390.642" y2="390.642" gradientUnits="userSpaceOnUse">
        <stop stop-color="#5761D7"/>
        <stop offset=".16" stop-color="#5E67DA"/>
        <stop offset=".41" stop-color="#727AE2"/>
        <stop offset=".69" stop-color="#9297EE"/>
        <stop offset="1" stop-color="#BCBEFF"/>
      </linearGradient>
      <linearGradient id="c" x1="-57.56" x2="474.805" y1="339.915" y2="339.915" gradientUnits="userSpaceOnUse">
        <stop stop-color="#5761D7"/>
        <stop offset=".16" stop-color="#5E67DA"/>
        <stop offset=".41" stop-color="#727AE2"/>
        <stop offset=".69" stop-color="#9297EE"/>
        <stop offset="1" stop-color="#BCBEFF"/>
      </linearGradient>
      <linearGradient id="d" x1="93.104" x2="412.642" y1="267.939" y2="267.939" gradientUnits="userSpaceOnUse">
        <stop stop-color="#09175F"/>
        <stop offset="1" stop-color="#5761D7"/>
      </linearGradient>
      <linearGradient id="e" x1="252.873" x2="412.642" y1="210.189" y2="210.189" gradientUnits="userSpaceOnUse">
        <stop stop-color="#1840D1"/>
        <stop offset="1" stop-color="#5761D7"/>
      </linearGradient>
      <linearGradient id="f" x1="93.104" x2="252.873" y1="210.189" y2="210.189" gradientUnits="userSpaceOnUse">
        <stop stop-color="#1840D1"/>
        <stop offset="1" stop-color="#5761D7"/>
      </linearGradient>
      <linearGradient id="g" x1="93.104" x2="412.642" y1="244.685" y2="244.685" gradientUnits="userSpaceOnUse">
        <stop stop-color="#0B3BB6"/>
        <stop offset="1" stop-color="#5761D7"/>
      </linearGradient>
      <linearGradient id="h" x1="252.873" x2="412.642" y1="302.461" y2="302.461" gradientUnits="userSpaceOnUse">
        <stop stop-color="#1840D1"/>
        <stop offset="1" stop-color="#5761D7"/>
      </linearGradient>
      <linearGradient id="i" x1="93.104" x2="252.873" y1="302.435" y2="302.435" gradientUnits="userSpaceOnUse">
        <stop stop-color="#2065EA"/>
        <stop offset="1" stop-color="#5761D7"/>
      </linearGradient>
      <clipPath id="a">
        <path fill="#fff" d="M0 0h505v478H0z"/>
      </clipPath>
    </defs>
  </svg>