<svg xmlns="http://www.w3.org/2000/svg" fill="none" viewBox="0 0 377 308">
    <g clip-path="url(#a)">
      <path fill="#242993" d="m100.711 164.069 156.466 89.218a1.985 1.985 0 0 1 0 3.48l-86.883 49.553a12.873 12.873 0 0 1-6.377 1.688c-2.239 0-4.438-.582-6.377-1.688L7.46 220.731a2.011 2.011 0 0 1-.757-.733 1.983 1.983 0 0 1 .757-2.756l93.251-53.173Z" opacity=".5"/>
      <path fill="url(#b)" d="M105.58 124.914 126.493 2.34l-1.68-.7 2.521-1.43a1.828 1.828 0 0 1 1.943.14l167.106 95.297a4.678 4.678 0 0 1 1.665 1.803c.382.736.559 1.56.511 2.387l-21.075 123.514a1.55 1.55 0 0 1-.275.743 1.588 1.588 0 0 1-.606.517l-2.47 1.41-.425-2.28h.142l-166.094-94.678a4.691 4.691 0 0 1-1.651-1.786 4.628 4.628 0 0 1-.525-2.363Z"/>
      <path fill="url(#c)" d="m295.451 99.007 2.754-1.2a3.76 3.76 0 0 1 .354 2l-21.075 123.544a1.58 1.58 0 0 1-.881 1.26l-2.47 1.41-.425-2.28h.142l-8.412-4.789 30.013-119.945Z"/>
      <path fill="#242993" d="m105.134 130.553 167.106 95.288c1.286.739 2.389.32 2.622-1l21.075-123.504a4.595 4.595 0 0 0-.509-2.393 4.665 4.665 0 0 0-1.667-1.807L126.655 1.84c-1.285-.73-2.389-.31-2.621 1l-21.076 123.514a4.634 4.634 0 0 0 .515 2.389 4.708 4.708 0 0 0 1.661 1.81Z"/>
      <path fill="#4553C7" d="m128.842 9.719 161.072 91.858-19.972 116.315-160.971-91.788L128.842 9.719Z" opacity=".51"/>
      <path fill="url(#d)" d="m.091 189.015 9.11 4.71 91.439-52.154a6.722 6.722 0 0 1 5.972.25l157.712 89.989c1.508-.83 8.392-4.1 8.392-4.1l-3.341 8.589a2.005 2.005 0 0 1-.931 1l-96.307 54.923a6.683 6.683 0 0 1-5.973-.24L4.768 199.904a2.916 2.916 0 0 1-1.347-1.42l-3.33-9.469Z"/>
      <path fill="url(#e)" d="m1.498 190.505 165.405 94.328a6.902 6.902 0 0 0 6.125.25l98.696-56.293c1.569-.889 1.377-2.459-.435-3.489l-165.405-94.328a6.9 6.9 0 0 0-6.125-.25L1.063 187.016c-1.569.89-1.356 2.449.435 3.489Z"/>
      <path fill="#2859CB" d="M216.798 264.426v-1.79c0-.17-.101-.25-.233-.18l-6.397 3.65a.54.54 0 0 0-.233.439v1.79c0 .17.101.25.233.18l6.397-3.649a.54.54 0 0 0 .233-.44Zm-9.576 5.469v-1.8c0-.17-.111-.25-.233-.17l-6.397 3.65a.526.526 0 0 0-.233.44v1.789c0 .17.101.25.233.17l6.397-3.639a.571.571 0 0 0 .233-.44Z"/>
      <path fill="#ADC8FF" d="m245.992 223.521-137.446-78.39a3.072 3.072 0 0 0-2.966 0l-48.944 27.997a1.001 1.001 0 0 0-.57.899.996.996 0 0 0 .57.9l137.426 78.33a2.948 2.948 0 0 0 2.956 0l49.014-27.936a.988.988 0 0 0 .385-1.44 1.012 1.012 0 0 0-.425-.36Z"/>
      <path fill="#91AFFF" d="m245.992 225.321-.486.28-136.96-78.1a3.06 3.06 0 0 0-2.966 0l-48.458 27.686-.486-.28a1.004 1.004 0 0 1-.57-.9.995.995 0 0 1 .57-.899l48.944-27.997a3.072 3.072 0 0 1 2.966 0l137.446 78.39a.99.99 0 0 1 .432 1.451 1.02 1.02 0 0 1-.432.369Z"/>
      <path fill="#242993" d="m101.885 152.21 119.397 68.091 5.305-3.029-119.398-68.081-5.304 3.019Zm-13.018 7.429 111.988 63.862 5.314-3.03L94.182 156.61l-5.315 3.029Zm-8.473 4.83 131.859 75.2 5.304-3.03-131.858-75.2-5.305 3.03Zm-8.482 4.839 131.858 75.19 5.304-3.029-131.848-75.191-5.314 3.03Zm-8.473 4.829 131.858 75.2 5.305-3.029-131.859-75.2-5.304 3.029Zm165.051 50.284 5.314 3.019 5.304-3.019-5.304-3.03-5.314 3.03Zm-18.717 4.159 11.013 6.29 5.315-3.03-11.024-6.279-5.304 3.019Z"/>
      <path fill="url(#f)" d="m103.252 242.488-37.07-21.137c-1.447-.83-1.447-2.17 0-2.999l25.307-14.459a5.896 5.896 0 0 1 5.244 0l37.069 21.138c1.448.83 1.448 2.169 0 2.999l-25.307 14.458a5.829 5.829 0 0 1-5.243 0Z"/>
      <path fill="#91AFFF" d="m133.842 226.27-37.069-21.137a5.829 5.829 0 0 0-5.243 0l-25.307 14.448c-.384.205-.7.514-.911.89-.375-.73-.091-1.54.91-2.109l25.308-14.459a5.895 5.895 0 0 1 5.243 0l37.069 21.138c1.013.57 1.286 1.389.911 2.109a2.257 2.257 0 0 0-.911-.88Z"/>
      <g opacity=".11">
        <mask id="g" width="182" height="209" x="108" y="9" maskUnits="userSpaceOnUse" style="mask-type:luminance">
          <path fill="#fff" d="m128.842 9.729 161.082 91.858-19.982 116.315-160.961-91.798L128.842 9.729Z"/>
        </mask>
        <g mask="url(#g)">
          <path fill="url(#h)" d="m105.722 130.783 165.405 94.328a6.898 6.898 0 0 0 6.073.25l98.707-56.293c1.569-.89 1.366-2.45-.446-3.489L210.056 71.251a6.884 6.884 0 0 0-6.073-.25l-98.707 56.293c-1.569.889-1.366 2.449.446 3.489Z"/>
          <path fill="url(#i)" d="m271.612 147.691-37.059-21.137c-1.447-.82-1.447-2.16 0-3l25.307-14.448a5.828 5.828 0 0 1 5.244 0l37.059 21.127c1.447.83 1.447 2.17 0 3l-25.307 14.448a5.853 5.853 0 0 1-5.244.01Z"/>
          <path fill="#91AFFF" d="m302.203 131.473-37.059-21.137a5.829 5.829 0 0 0-5.243 0l-25.307 14.448a2.327 2.327 0 0 0-.911.89c-.385-.72-.091-1.54.911-2.11l25.307-14.448a5.824 5.824 0 0 1 5.243 0l37.059 21.127c1.013.58 1.296 1.39.911 2.11a2.25 2.25 0 0 0-.911-.88Z"/>
          <path fill="#ADC8FF" d="m318.501 180.727-137.456-78.39a3 3 0 0 0-2.956 0l-48.954 27.996a1.01 1.01 0 0 0-.416.369.99.99 0 0 0 .416 1.431l137.396 78.35a2.997 2.997 0 0 0 2.956 0l49.014-27.937a1.002 1.002 0 0 0 .592-.909.997.997 0 0 0-.592-.91Z"/>
          <path fill="#91AFFF" d="m318.501 182.526-.496.28-136.96-78.099a2.938 2.938 0 0 0-2.956 0l-48.458 27.686-.496-.28a1.01 1.01 0 0 1-.416-.369.99.99 0 0 1 .416-1.431l48.954-27.996a2.995 2.995 0 0 1 2.956 0l137.456 78.39a.997.997 0 0 1 0 1.819Z"/>
          <path fill="#242993" d="m141.941 128.394 119.751 68.291-4.747 2.709-119.742-68.291 4.738-2.709Zm12.623-7.19 113.819 64.902-4.747 2.71-113.82-64.912 4.748-2.7Zm122.312 69.751 10.629 6.06-4.737 2.709-10.639-6.059 4.747-2.71Zm-9.383 9.039 7.399 4.22-4.747 2.699-7.4-4.219 4.748-2.7Zm-105.024-83.299 132.942 75.81-4.737 2.71-132.952-75.81 4.747-2.71Zm7.906-4.509 132.942 75.82-4.738 2.699-132.951-75.81 4.747-2.709Zm7.906-4.51 132.942 75.82-4.738 2.7-132.951-75.81 4.747-2.71Z"/>
        </g>
      </g>
      <path fill="url(#j)" d="m182.3 216.532 35.632-21.657-80.111-45.684-37.809 25.096 82.288 42.245Z" opacity=".42"/>
      <path fill="url(#k)" d="m217.932 194.875 8.169-50.934-75.182-42.594v55.203l67.013 38.325Z" opacity=".42"/>
      <path fill="url(#l)" d="M143.054 76.61 151 72.09a.381.381 0 0 1 .405 0l99.658 56.823a1.414 1.414 0 0 1 .588 1.11v18.588a.564.564 0 0 1-.162.44l-8.028 4.569-.061-8.999-91.964-52.443a1.393 1.393 0 0 1-.598-1.12V84.69l-7.784-8.079Z"/>
      <path fill="url(#m)" d="m143.449 96.787 99.658 56.843c.324.18.587 0 .587-.44v-18.587a1.376 1.376 0 0 0-.587-1.11L143.449 76.66c-.324-.19-.597 0-.597.44v18.578a1.388 1.388 0 0 0 .597 1.109Z"/>
      <path fill="#242993" d="m157.155 93.028 77.601 45.064a53.336 53.336 0 0 0-6.752 6.939l-78.178-44.584a52.789 52.789 0 0 1 7.329-7.42Z" opacity=".6"/>
      <path fill="#242993" d="m146.253 91.208 93.969 53.593c.223.13.405 0 .405-.3v-4.669a1.002 1.002 0 0 0-.405-.76l-93.969-53.593c-.223-.13-.405 0-.405.3v4.67a.99.99 0 0 0 .405.76Z"/>
      <path fill="#4553C7" d="m146.253 85.479 1.903 1.09v2.52a.99.99 0 0 0 .405.76l92.066 52.503v2.149c0 .29-.182.43-.405.3l-93.969-53.593a.996.996 0 0 1-.405-.76v-4.67c0-.29.182-.429.405-.3Z"/>
      <path fill="url(#n)" d="m93.453 292.292-78.178-44.584c10.123-5.759 18.586-18.348 21.177-30.386a17.5 17.5 0 0 1 2.98-6.69c1.455-2 3.32-3.675 5.472-4.919l59.066-33.685a56.195 56.195 0 0 0 19.866-18.979 55.342 55.342 0 0 0 8.377-26.015c.941-15.818 13.048-31.376 22.452-36.736l78.188 44.615c-9.252 5.279-19.446 19.997-20.61 35.575a56.056 56.056 0 0 1-8.412 26.005 56.91 56.91 0 0 1-19.77 19.079l-60.979 34.726a17.722 17.722 0 0 0-5.467 4.914 17.477 17.477 0 0 0-2.975 6.684c-2.602 11.998-11.135 24.627-21.187 30.376v.02Z" opacity=".96"/>
      <path fill="#4553C7" d="m154.675 90.278 78.178 44.635c-.628.349-1.245.739-1.863 1.139l-78.178-44.584c.618-.44 1.235-.83 1.863-1.19Z" opacity=".8"/>
      <path fill="url(#o)" d="M79.787 128.783h24.943v52.613c0 1.82-1.225 3.64-3.655 5-4.869 2.779-12.764 2.779-17.633 0-2.44-1.39-3.655-3.21-3.655-5v-52.613Z"/>
      <path fill="url(#p)" d="M79.787 128.783h24.943v52.613c0 1.82-1.225 3.64-3.655 5-4.869 2.779-12.764 2.779-17.633 0-2.44-1.39-3.655-3.21-3.655-5v-52.613Z"/>
      <path fill="url(#q)" d="M83.442 133.813c4.869 2.779 12.764 2.779 17.633 0 4.869-2.78 4.869-7.279 0-10.059-4.869-2.78-12.764-2.78-17.633 0-4.87 2.78-4.87 7.279 0 10.059Z"/>
      <path fill="url(#r)" d="M86.57 132.033a12.708 12.708 0 0 0 5.688 1.343c1.977 0 3.926-.46 5.69-1.343 3.147-1.8 3.147-4.699 0-6.499a12.707 12.707 0 0 0-5.69-1.343c-1.976 0-3.925.46-5.689 1.343-3.148 1.8-3.148 4.699 0 6.499Z" opacity=".3"/>
      <path fill="#fff" d="M83.442 133.283c4.869 2.779 12.764 2.779 17.633 0 2.318-1.32 3.523-3 3.634-4.76.122 1.9-1.083 3.83-3.634 5.289-4.869 2.78-12.764 2.78-17.633 0-2.551-1.459-3.756-3.389-3.635-5.289.112 1.73 1.316 3.44 3.635 4.76Z" opacity=".5"/>
      <path fill="url(#s)" d="M79.787 117.355h24.943v4.799c0 1.82-1.225 3.64-3.655 4.999-4.869 2.78-12.764 2.78-17.633 0-2.44-1.389-3.655-3.209-3.655-4.999v-4.799Z"/>
      <path fill="url(#t)" d="M79.787 117.355h24.943v4.799c0 1.82-1.225 3.64-3.655 4.999-4.869 2.78-12.764 2.78-17.633 0-2.44-1.389-3.655-3.209-3.655-4.999v-4.799Z"/>
      <path fill="url(#u)" d="M92.258 124.454c6.888 0 12.472-3.183 12.472-7.109 0-3.927-5.584-7.109-12.472-7.109-6.887 0-12.47 3.182-12.47 7.109 0 3.926 5.583 7.109 12.47 7.109Z"/>
      <path fill="#fff" d="M83.442 121.854c4.869 2.78 12.764 2.78 17.633 0 2.318-1.32 3.523-3 3.634-4.769.122 1.909-1.083 3.839-3.634 5.299-4.869 2.77-12.764 2.77-17.633 0-2.551-1.46-3.756-3.39-3.635-5.299.112 1.739 1.316 3.449 3.635 4.769Z" opacity=".5"/>
      <path fill="url(#v)" d="M100.407 158.069h24.942v35.076c0 1.82-1.214 3.639-3.654 4.999-4.869 2.78-12.765 2.78-17.634 0-2.439-1.39-3.654-3.209-3.654-4.999v-35.076Z"/>
      <path fill="url(#w)" d="M100.407 158.069h24.942v35.076c0 1.82-1.214 3.639-3.654 4.999-4.869 2.78-12.765 2.78-17.634 0-2.439-1.39-3.654-3.209-3.654-4.999v-35.076Z"/>
      <path fill="url(#x)" d="M104.061 163.099c4.869 2.769 12.765 2.769 17.634 0 4.869-2.77 4.869-7.279 0-10.059-4.869-2.78-12.765-2.78-17.634 0s-4.869 7.279 0 10.059Z"/>
      <path fill="#fff" d="M104.061 162.569c4.869 2.78 12.765 2.78 17.634 0 2.318-1.32 3.523-3 3.634-4.769.122 1.909-1.083 3.839-3.634 5.299-4.869 2.77-12.765 2.77-17.634 0-2.55-1.46-3.755-3.39-3.634-5.299.112 1.729 1.316 3.449 3.634 4.769Z" opacity=".5"/>
      <path fill="url(#y)" d="M121.027 151.85h24.942v53.053c0 1.82-1.214 3.64-3.654 5-4.869 2.769-12.765 2.769-17.634 0-2.439-1.39-3.654-3.21-3.654-5V151.85Z"/>
      <path fill="url(#z)" d="M121.027 151.85h24.942v53.053c0 1.82-1.214 3.64-3.654 5-4.869 2.769-12.765 2.769-17.634 0-2.439-1.39-3.654-3.21-3.654-5V151.85Z"/>
      <path fill="url(#A)" d="M124.681 156.91c4.869 2.779 12.765 2.779 17.634 0 4.869-2.78 4.869-7.28 0-10.059-4.869-2.78-12.765-2.78-17.634 0-4.869 2.779-4.869 7.249 0 10.059Z"/>
      <path fill="#fff" d="M124.681 156.35c4.869 2.779 12.765 2.779 17.634 0 2.318-1.32 3.523-3 3.634-4.76.122 1.9-1.083 3.83-3.634 5.29-4.869 2.779-12.765 2.779-17.634 0-2.551-1.46-3.755-3.39-3.634-5.29.132 1.73 1.316 3.44 3.634 4.76Z" opacity=".5"/>
      <path fill="url(#B)" d="M141.647 173.157h24.942v43.475c0 1.82-1.214 3.649-3.654 4.999-4.869 2.78-12.765 2.78-17.634 0-2.439-1.38-3.654-3.209-3.654-4.999v-43.475Z"/>
      <path fill="url(#C)" d="M141.647 173.157h24.942v43.475c0 1.82-1.214 3.649-3.654 4.999-4.869 2.78-12.765 2.78-17.634 0-2.439-1.38-3.654-3.209-3.654-4.999v-43.475Z"/>
      <path fill="url(#D)" d="M145.301 178.187c4.869 2.78 12.765 2.78 17.634 0s4.869-7.279 0-10.059c-4.869-2.779-12.765-2.779-17.634 0-4.869 2.78-4.889 7.279 0 10.059Z"/>
      <path fill="#fff" d="M145.301 177.657c4.869 2.779 12.765 2.779 17.634 0 2.318-1.32 3.523-3 3.634-4.76.122 1.9-1.083 3.83-3.634 5.29-4.869 2.779-12.765 2.779-17.634 0-2.551-1.46-3.755-3.39-3.634-5.29.112 1.73 1.316 3.44 3.634 4.76Z" opacity=".5"/>
      <path fill="url(#E)" d="M162.267 195.625h24.942v32.755c0 1.82-1.214 3.64-3.654 5-4.869 2.779-12.765 2.779-17.634 0-2.439-1.39-3.654-3.21-3.654-5v-32.755Z"/>
      <path fill="url(#F)" d="M162.267 195.625h24.942v32.755c0 1.82-1.214 3.64-3.654 5-4.869 2.779-12.765 2.779-17.634 0-2.439-1.39-3.654-3.21-3.654-5v-32.755Z"/>
      <path fill="url(#G)" d="M165.921 200.654c4.869 2.77 12.765 2.77 17.634 0s4.869-7.279 0-10.059c-4.869-2.779-12.765-2.779-17.634 0-4.869 2.78-4.869 7.309 0 10.059Z"/>
      <path fill="#fff" d="M165.921 200.124c4.869 2.78 12.765 2.78 17.634 0 2.318-1.32 3.523-2.999 3.634-4.769.122 1.909-1.083 3.839-3.634 5.299-4.869 2.77-12.765 2.77-17.634 0-2.551-1.46-3.755-3.39-3.634-5.299.112 1.74 1.316 3.449 3.634 4.769Z" opacity=".5"/>
      <path fill="#42FFFF" d="m274.599 107.306 2.409 1.52.283-1.76-2.409-1.51-.283 1.75Zm-1.934 11.888 2.409 1.52 1.671-10.288-2.409-1.51-1.671 10.278Zm-.921 5.69 2.409 1.509.668-4.079-2.409-1.52-.668 4.09Zm-.951 5.889 2.409 1.52.658-4.09-2.409-1.509-.658 4.079Zm-.709-20.037 2.409 1.52.668-4.09-2.409-1.51-.668 4.08Zm-1.265 7.809 2.409 1.509.972-5.989-2.41-1.52-.971 6Zm-1.175 7.179 2.42 1.519.83-5.149-2.409-1.51-.841 5.14Zm2.187 10.948 2.409 1.51.668-4.079-2.409-1.52-.668 4.089Zm1.174-31.626 2.409 1.52.284-1.76-2.409-1.509-.284 1.749Zm-3.897 36.206 4.201 2.649.283-1.71-4.211-2.639-.273 1.7Z"/>
    </g>
    <defs>
      <linearGradient id="b" x1="298.59" x2="105.549" y1="113.015" y2="113.015" gradientUnits="userSpaceOnUse">
        <stop stop-color="#C0D6FF"/>
        <stop offset=".3" stop-color="#C5DBFF"/>
        <stop offset=".65" stop-color="#D3E9FF"/>
        <stop offset="1" stop-color="#E9FFFF"/>
      </linearGradient>
      <linearGradient id="c" x1="298.589" x2="265.438" y1="161.909" y2="161.909" gradientUnits="userSpaceOnUse">
        <stop stop-color="#5778FF"/>
        <stop offset=".18" stop-color="#5C7DFF"/>
        <stop offset=".39" stop-color="#6A8AFF"/>
        <stop offset=".61" stop-color="#82A0FF"/>
        <stop offset=".85" stop-color="#A3BEFF"/>
        <stop offset="1" stop-color="#BCD5FF"/>
      </linearGradient>
      <linearGradient id="d" x1="272.726" x2=".091" y1="216.882" y2="216.882" gradientUnits="userSpaceOnUse">
        <stop stop-color="#5778FF"/>
        <stop offset=".18" stop-color="#5C7DFF"/>
        <stop offset=".39" stop-color="#6A8AFF"/>
        <stop offset=".61" stop-color="#82A0FF"/>
        <stop offset=".85" stop-color="#A3BEFF"/>
        <stop offset="1" stop-color="#BCD5FF"/>
      </linearGradient>
      <linearGradient id="e" x1="181.116" x2="-91.661" y1="207.903" y2="207.903" gradientUnits="userSpaceOnUse">
        <stop stop-color="#C0D6FF"/>
        <stop offset=".3" stop-color="#C5DBFF"/>
        <stop offset=".65" stop-color="#D3E9FF"/>
        <stop offset="1" stop-color="#E9FFFF"/>
      </linearGradient>
      <linearGradient id="f" x1="134.926" x2="65.099" y1="223.201" y2="223.201" gradientUnits="userSpaceOnUse">
        <stop stop-color="#C0D6FF"/>
        <stop offset=".3" stop-color="#C5DBFF"/>
        <stop offset=".65" stop-color="#D3E9FF"/>
        <stop offset="1" stop-color="#E9FFFF"/>
      </linearGradient>
      <linearGradient id="h" x1="285.339" x2="12.552" y1="148.181" y2="148.181" gradientUnits="userSpaceOnUse">
        <stop stop-color="#C0D6FF"/>
        <stop offset=".3" stop-color="#C5DBFF"/>
        <stop offset=".65" stop-color="#D3E9FF"/>
        <stop offset="1" stop-color="#E9FFFF"/>
      </linearGradient>
      <linearGradient id="i" x1="303.297" x2="233.47" y1="128.403" y2="128.403" gradientUnits="userSpaceOnUse">
        <stop stop-color="#C0D6FF"/>
        <stop offset=".3" stop-color="#C5DBFF"/>
        <stop offset=".65" stop-color="#D3E9FF"/>
        <stop offset="1" stop-color="#E9FFFF"/>
      </linearGradient>
      <linearGradient id="l" x1="231.921" x2="180.179" y1="165.179" y2="70.859" gradientUnits="userSpaceOnUse">
        <stop stop-color="#5778FF"/>
        <stop offset=".04" stop-color="#5C7DFF"/>
        <stop offset=".09" stop-color="#6A8AFF"/>
        <stop offset=".14" stop-color="#82A0FF"/>
        <stop offset=".19" stop-color="#A3BEFF"/>
        <stop offset=".22" stop-color="#BCD5FF"/>
      </linearGradient>
      <linearGradient id="m" x1="167.146" x2="201.561" y1="165.519" y2="97.403" gradientUnits="userSpaceOnUse">
        <stop stop-color="#C0D6FF"/>
        <stop offset=".3" stop-color="#C5DBFF"/>
        <stop offset=".65" stop-color="#D3E9FF"/>
        <stop offset="1" stop-color="#E9FFFF"/>
      </linearGradient>
      <linearGradient id="n" x1="72.286" x2="181.756" y1="287.333" y2="90.953" gradientUnits="userSpaceOnUse">
        <stop stop-color="#C0D6FF"/>
        <stop offset=".08" stop-color="#C3D9FF"/>
        <stop offset=".13" stop-color="#CCE2FF"/>
        <stop offset=".18" stop-color="#DCF2FF"/>
        <stop offset=".21" stop-color="#E9FFFF"/>
        <stop offset=".26" stop-color="#D8EEFF"/>
        <stop offset=".31" stop-color="#CBE1FF"/>
        <stop offset=".39" stop-color="#C2D8FF"/>
        <stop offset=".51" stop-color="#C0D6FF"/>
        <stop offset=".62" stop-color="#D0E6FF"/>
        <stop offset=".75" stop-color="#E9FFFF"/>
        <stop offset="1" stop-color="#C0D6FF"/>
      </linearGradient>
      <linearGradient id="o" x1="104.73" x2="79.929" y1="158.649" y2="158.649" gradientUnits="userSpaceOnUse">
        <stop stop-color="#C0D6FF"/>
        <stop offset=".5" stop-color="#D2E8FF"/>
        <stop offset="1" stop-color="#E9FFFF"/>
      </linearGradient>
      <linearGradient id="p" x1="132.516" x2="84.596" y1="158.649" y2="158.649" gradientUnits="userSpaceOnUse">
        <stop stop-color="#5778FF"/>
        <stop offset=".18" stop-color="#5C7DFF"/>
        <stop offset=".39" stop-color="#6A8AFF"/>
        <stop offset=".61" stop-color="#82A0FF"/>
        <stop offset=".85" stop-color="#A3BEFF"/>
        <stop offset="1" stop-color="#BCD5FF"/>
      </linearGradient>
      <linearGradient id="q" x1="93.432" x2="84.795" y1="123.759" y2="138.973" gradientUnits="userSpaceOnUse">
        <stop stop-color="#C0D6FF"/>
        <stop offset=".3" stop-color="#C5DBFF"/>
        <stop offset=".65" stop-color="#D3E9FF"/>
        <stop offset="1" stop-color="#E9FFFF"/>
      </linearGradient>
      <linearGradient id="r" x1="90.288" x2="84.712" y1="125.544" y2="135.367" gradientUnits="userSpaceOnUse">
        <stop stop-color="#5778FF"/>
        <stop offset=".18" stop-color="#5C7DFF"/>
        <stop offset=".39" stop-color="#6A8AFF"/>
        <stop offset=".61" stop-color="#82A0FF"/>
        <stop offset=".85" stop-color="#A3BEFF"/>
        <stop offset="1" stop-color="#BCD5FF"/>
      </linearGradient>
      <linearGradient id="s" x1="104.73" x2="79.929" y1="123.314" y2="123.314" gradientUnits="userSpaceOnUse">
        <stop stop-color="#C0D6FF"/>
        <stop offset=".5" stop-color="#D2E8FF"/>
        <stop offset="1" stop-color="#E9FFFF"/>
      </linearGradient>
      <linearGradient id="t" x1="132.516" x2="84.596" y1="123.314" y2="123.314" gradientUnits="userSpaceOnUse">
        <stop stop-color="#5778FF"/>
        <stop offset=".18" stop-color="#5C7DFF"/>
        <stop offset=".39" stop-color="#6A8AFF"/>
        <stop offset=".61" stop-color="#82A0FF"/>
        <stop offset=".85" stop-color="#A3BEFF"/>
        <stop offset="1" stop-color="#BCD5FF"/>
      </linearGradient>
      <linearGradient id="u" x1="93.432" x2="84.795" y1="112.32" y2="127.535" gradientUnits="userSpaceOnUse">
        <stop stop-color="#C0D6FF"/>
        <stop offset=".3" stop-color="#C5DBFF"/>
        <stop offset=".65" stop-color="#D3E9FF"/>
        <stop offset="1" stop-color="#E9FFFF"/>
      </linearGradient>
      <linearGradient id="v" x1="125.35" x2="100.549" y1="179.167" y2="179.167" gradientUnits="userSpaceOnUse">
        <stop stop-color="#C0D6FF"/>
        <stop offset=".5" stop-color="#D2E8FF"/>
        <stop offset="1" stop-color="#E9FFFF"/>
      </linearGradient>
      <linearGradient id="w" x1="153.146" x2="105.215" y1="179.167" y2="179.167" gradientUnits="userSpaceOnUse">
        <stop stop-color="#5778FF"/>
        <stop offset=".18" stop-color="#5C7DFF"/>
        <stop offset=".39" stop-color="#6A8AFF"/>
        <stop offset=".61" stop-color="#82A0FF"/>
        <stop offset=".85" stop-color="#A3BEFF"/>
        <stop offset="1" stop-color="#BCD5FF"/>
      </linearGradient>
      <linearGradient id="x" x1="114.146" x2="105.509" y1="153.045" y2="168.26" gradientUnits="userSpaceOnUse">
        <stop stop-color="#C0D6FF"/>
        <stop offset=".3" stop-color="#C5DBFF"/>
        <stop offset=".65" stop-color="#D3E9FF"/>
        <stop offset="1" stop-color="#E9FFFF"/>
      </linearGradient>
      <linearGradient id="y" x1="145.969" x2="121.169" y1="181.926" y2="181.926" gradientUnits="userSpaceOnUse">
        <stop stop-color="#C0D6FF"/>
        <stop offset=".5" stop-color="#D2E8FF"/>
        <stop offset="1" stop-color="#E9FFFF"/>
      </linearGradient>
      <linearGradient id="z" x1="173.766" x2="125.846" y1="181.926" y2="181.926" gradientUnits="userSpaceOnUse">
        <stop stop-color="#5778FF"/>
        <stop offset=".18" stop-color="#5C7DFF"/>
        <stop offset=".39" stop-color="#6A8AFF"/>
        <stop offset=".61" stop-color="#82A0FF"/>
        <stop offset=".85" stop-color="#A3BEFF"/>
        <stop offset="1" stop-color="#BCD5FF"/>
      </linearGradient>
      <linearGradient id="A" x1="134.859" x2="126.222" y1="146.826" y2="162.04" gradientUnits="userSpaceOnUse">
        <stop stop-color="#C0D6FF"/>
        <stop offset=".3" stop-color="#C5DBFF"/>
        <stop offset=".65" stop-color="#D3E9FF"/>
        <stop offset="1" stop-color="#E9FFFF"/>
      </linearGradient>
      <linearGradient id="B" x1="166.589" x2="141.789" y1="198.454" y2="198.454" gradientUnits="userSpaceOnUse">
        <stop stop-color="#C0D6FF"/>
        <stop offset=".5" stop-color="#D2E8FF"/>
        <stop offset="1" stop-color="#E9FFFF"/>
      </linearGradient>
      <linearGradient id="C" x1="194.386" x2="146.465" y1="198.454" y2="198.454" gradientUnits="userSpaceOnUse">
        <stop stop-color="#5778FF"/>
        <stop offset=".18" stop-color="#5C7DFF"/>
        <stop offset=".39" stop-color="#6A8AFF"/>
        <stop offset=".61" stop-color="#82A0FF"/>
        <stop offset=".85" stop-color="#A3BEFF"/>
        <stop offset="1" stop-color="#BCD5FF"/>
      </linearGradient>
      <linearGradient id="D" x1="155.573" x2="146.936" y1="168.133" y2="183.348" gradientUnits="userSpaceOnUse">
        <stop stop-color="#C0D6FF"/>
        <stop offset=".3" stop-color="#C5DBFF"/>
        <stop offset=".65" stop-color="#D3E9FF"/>
        <stop offset="1" stop-color="#E9FFFF"/>
      </linearGradient>
      <linearGradient id="E" x1="187.209" x2="162.419" y1="215.562" y2="215.562" gradientUnits="userSpaceOnUse">
        <stop stop-color="#C0D6FF"/>
        <stop offset=".5" stop-color="#D2E8FF"/>
        <stop offset="1" stop-color="#E9FFFF"/>
      </linearGradient>
      <linearGradient id="F" x1="215.006" x2="167.085" y1="215.562" y2="215.562" gradientUnits="userSpaceOnUse">
        <stop stop-color="#5778FF"/>
        <stop offset=".18" stop-color="#5C7DFF"/>
        <stop offset=".39" stop-color="#6A8AFF"/>
        <stop offset=".61" stop-color="#82A0FF"/>
        <stop offset=".85" stop-color="#A3BEFF"/>
        <stop offset="1" stop-color="#BCD5FF"/>
      </linearGradient>
      <linearGradient id="G" x1="176.295" x2="167.658" y1="190.595" y2="205.81" gradientUnits="userSpaceOnUse">
        <stop stop-color="#C0D6FF"/>
        <stop offset=".3" stop-color="#C5DBFF"/>
        <stop offset=".65" stop-color="#D3E9FF"/>
        <stop offset="1" stop-color="#E9FFFF"/>
      </linearGradient>
      <radialGradient id="j" cx="0" cy="0" r="1" gradientTransform="matrix(-78.1979 0 0 -77.24 193.273 182.866)" gradientUnits="userSpaceOnUse">
        <stop stop-color="#2B3AA5"/>
        <stop offset="1" stop-color="#182484"/>
      </radialGradient>
      <radialGradient id="k" cx="0" cy="0" r="1" gradientTransform="matrix(-59.8556 0 0 -59.1223 210.37 148.111)" gradientUnits="userSpaceOnUse">
        <stop stop-color="#2B3AA5"/>
        <stop offset="1" stop-color="#182484"/>
      </radialGradient>
      <clipPath id="a">
        <path fill="#fff" d="M0 0h377v308H0z"/>
      </clipPath>
    </defs>
  </svg>