<svg xmlns="http://www.w3.org/2000/svg" fill="none" viewBox="0 0 326 270">
    <g clip-path="url(#a)">
      <path fill="#0F054C" d="M122.183 83.32c18.077-6.325 31.159-15.945 29.219-21.486-1.94-5.542-18.167-4.907-36.245 1.419C97.08 69.578 83.998 79.198 85.938 84.74c1.94 5.541 18.168 4.906 36.245-1.42Z" opacity=".5"/>
      <path fill="#DD821F" d="m105.623 41.693.229-5.712 1.335-3.331.842 2.766-2.406 6.277Z"/>
      <path fill="#FFD85A" d="m165.502 42.775.228-5.592s-4.739 4.714-4.739 4.81c0 .097 4.511.782 4.511.782Z"/>
      <path fill="#FFD85A" d="M135.154 59.37c-16.528-.396-29.651-8.79-29.302-23.39.349-14.598 14.037-26.095 30.565-25.698 16.527.397 29.65 12.543 29.301 27.142-.348 14.599-14.037 22.343-30.564 21.947Z"/>
      <path fill="#FFD85A" d="M165.473 43.107c.349-14.587-12.768-26.733-29.299-27.128-16.53-.396-30.213 11.11-30.562 25.697-.349 14.587 12.768 26.733 29.299 27.128 16.53.395 30.213-11.11 30.562-25.697Z"/>
      <path fill="#DD821F" d="M114.669 23.366a24.848 24.848 0 0 0-9.034 18.327c-.36 14.587 12.763 26.733 29.29 27.13a32.014 32.014 0 0 0 21.171-7.083l-41.427-38.374Z"/>
      <path fill="#F9BF30" d="M164.138 43.075c.334-13.937-12.199-25.54-27.992-25.918-15.793-.378-28.866 10.614-29.199 24.55-.334 13.937 12.199 25.542 27.992 25.92 15.793.377 28.866-10.615 29.199-24.552Z"/>
      <path fill="#F2B42A" d="M158.499 42.952c.267-11.187-9.794-20.503-22.472-20.806-12.678-.303-23.173 8.52-23.441 19.709-.267 11.188 9.794 20.503 22.472 20.806 12.678.303 23.173-8.52 23.441-19.709Z"/>
      <path fill="#FFD85A" d="M158.513 42.956v-1.383c-1.058 10.534-11.198 18.627-23.347 18.339-12.149-.289-21.892-8.863-22.446-19.434 0 .457-.084.914-.096 1.371-.265 11.196 9.803 20.516 22.482 20.817 12.678.3 23.143-8.527 23.407-19.71Z"/>
      <path fill="#FFD85A" d="m139.965 44.11-4.703-4.353a2447.338 2447.338 0 0 0-19.739 4.534 19.235 19.235 0 0 0 11.114 11.424l13.328-11.605Zm-7.409 13.156c.745.084 1.503.144 2.285.168a21.979 21.979 0 0 0 14.434-4.75l-7.674-7.107-9.045 11.69Zm-2.346-22.187-8.877-8.214c-2.983 2.598-5.642 5.472-6.363 9.308l15.24-1.094Z"/>
      <path fill="#DD821F" d="M134.841 24.569c12.678.3 22.746 9.62 22.482 20.804a18.208 18.208 0 0 1-1.372 6.458 18.126 18.126 0 0 0 2.562-8.875c.277-11.196-9.791-20.444-22.469-20.817-10.104-.24-18.825 5.328-22.073 13.229 3.898-6.59 11.824-11.016 20.87-10.8ZM105.852 35.98a19.545 19.545 0 0 0 .265 5.773c.649-2.128 2.081-8.538 2.081-8.538l2.285-5.087 1.901-1.563 3.211-2.345.265-7.336a25.087 25.087 0 0 0-10.008 19.097Zm57.93-.745.132-1.503a.385.385 0 0 1 .105-.271.376.376 0 0 1 .268-.114h.12a.372.372 0 0 1 .349.397l-.12 1.503a.398.398 0 0 1-.373.385h-.12a.371.371 0 0 1-.361-.397Zm-2.622-5.76.156-2.706a.432.432 0 0 1 .421-.433h.313a.436.436 0 0 1 .409.445l-.157 2.706a.417.417 0 0 1-.433.433h-.252a.43.43 0 0 1-.426-.27.437.437 0 0 1-.031-.175Zm-3.645-5.027.144-2.621a.504.504 0 0 1 .493-.494h.458a.505.505 0 0 1 .457.518l-.157 2.621a.485.485 0 0 1-.294.455.48.48 0 0 1-.187.038h-.457a.48.48 0 0 1-.457-.517Zm-5.461-4.052.168-3.175a.489.489 0 0 1 .295-.455.479.479 0 0 1 .187-.038h.457a.468.468 0 0 1 .457.505l-.169 3.187a.456.456 0 0 1-.137.343.47.47 0 0 1-.344.138h-.457a.463.463 0 0 1-.337-.154.46.46 0 0 1-.12-.35Zm-5.497-2.67.18-3.608a.503.503 0 0 1 .481-.493h.457a.49.49 0 0 1 .441.326.495.495 0 0 1 .029.191l-.181 3.608a.506.506 0 0 1-.481.493h-.457a.504.504 0 0 1-.469-.517Zm-5.509-1.624.168-3.511a.491.491 0 0 1 .493-.493h.457a.48.48 0 0 1 .458.505l-.181 3.524a.482.482 0 0 1-.481.492h-.457a.49.49 0 0 1-.338-.161.484.484 0 0 1-.119-.356Zm-5.545-.552.18-3.609a.482.482 0 0 1 .481-.493h.457a.485.485 0 0 1 .434.328c.02.06.028.125.023.19l-.168 3.607a.504.504 0 0 1-.493.493h-.457a.505.505 0 0 1-.457-.517Zm-5.558.12.169-3.344a.485.485 0 0 1 .294-.455.48.48 0 0 1 .187-.038h.457a.48.48 0 0 1 .469.505l-.168 3.356a.48.48 0 0 1-.493.48h-.458a.48.48 0 0 1-.457-.505Zm-5.581 1.214.168-3.247a.474.474 0 0 1 .482-.48h.457a.47.47 0 0 1 .457.504l-.169 3.247a.456.456 0 0 1-.137.344.47.47 0 0 1-.344.137h-.457a.48.48 0 0 1-.457-.505Zm-5.617 2.73.168-3.512a.503.503 0 0 1 .481-.493h.457a.48.48 0 0 1 .457.518l-.168 3.499a.482.482 0 0 1-.481.493h-.457a.47.47 0 0 1-.457-.505Z"/>
      <path fill="url(#b)" d="M326 183.8v11.821a.496.496 0 0 1-.277.433l-128.706 73.814a1.838 1.838 0 0 1-1.636-.072l-20.966-12.182a.704.704 0 0 1-.337-.457v-11.942l10.177 5.808 118.722-68.101c.259-.119.542-.174.827-.161.284.012.562.092.809.233l7.217 4.173L326 183.8Z"/>
      <path fill="url(#c)" d="m303.001 170.945-128.706 73.813c-.409.241-.361.662.12.938l20.966 12.182c.248.138.526.217.809.23.284.012.567-.042.827-.158l128.706-73.813c.421-.241.373-.662-.12-.938l-20.966-12.182a1.824 1.824 0 0 0-1.636-.072Z"/>
      <path fill="#24126A" d="m298.346 188.731-101.04 56.929a68.58 68.58 0 0 0-3.453-12.026l100.921-57.903a68.812 68.812 0 0 1 3.572 13Z" opacity=".6"/>
      <path fill="#24126A" d="m307.464 177.787-121.357 69.581c-.289.168-.253.457.084.649l5.269 3.055a1.207 1.207 0 0 0 1.118 0l121.321-69.593c.289-.168.253-.457-.084-.649l-5.232-3.043a1.214 1.214 0 0 0-1.119 0Z"/>
      <path fill="#453C9E" d="m313.923 181.527-2.405 1.419-2.839-1.659a1.202 1.202 0 0 0-1.119 0l-118.867 68.185-2.406-1.407c-.336-.192-.372-.481-.084-.649l121.261-69.629a1.207 1.207 0 0 1 1.119 0l5.268 3.055c.325.228.361.553.072.685Z"/>
      <path fill="url(#d)" d="M1.624 57.904 102.556 0c0 18.038 12.582 40.093 28.219 49.173l139.099 80.788c18.38 10.667 33.235 36.558 33.175 57.808L202.117 245.66c.06-21.249-14.795-47.128-33.175-57.795L29.843 107.076C14.206 97.997 1.576 75.978 1.623 57.904Z" opacity=".96"/>
      <path fill="#453C9E" d="M303.049 187.769 202.117 245.66c0-.926 0-1.876-.084-2.826l100.932-57.831c.048.89.084 1.828.084 2.766Z" opacity=".8"/>
      <path fill="#453C9E" d="m156.889 144.344-22.854 13.12 2.201 1.275 22.855-13.12-2.202-1.275Zm11.728-6.722-8.227 4.726 2.189 1.274 8.24-4.726-2.202-1.274Zm9.082-5.207-5.593 3.21 2.201 1.275 5.593-3.211-2.201-1.274Zm-36.23 14.983-12.462 7.144 2.201 1.274 12.462-7.143-2.201-1.275Zm18.752-10.763-15.264 8.755 2.201 1.287 15.265-8.767-2.202-1.275Zm9.082-5.207-5.593 3.211 2.201 1.275 5.593-3.211-2.201-1.275Zm8.649-4.966-5.594 3.211 2.202 1.274 5.593-3.198-2.201-1.287Zm-44.951 19.998-9.022 5.171 2.201 1.275 9.01-5.171-2.189-1.275Zm6.567-3.776-3.079 1.768 2.201 1.275 3.079-1.768-2.201-1.275Zm9.082-5.207-5.581 3.199 2.189 1.287 5.593-3.211-2.201-1.275Zm3.572-7.852-33.259 19.084 2.201 1.275 33.26-19.085-2.202-1.274Zm11.728-6.723-8.227 4.726 2.189 1.275 8.24-4.726-2.202-1.275Zm-41.005 17.714-9.01 5.171 2.201 1.287 9.01-5.171-2.201-1.287Zm21.158-12.134-17.658 10.138 2.201 1.275 17.658-10.126-2.201-1.287Zm9.082-5.207-5.594 3.211 2.202 1.274 5.593-3.21-2.201-1.275Zm-25.826 9.019-18.452 10.583 2.202 1.274 18.439-10.582-2.189-1.275Zm16.816-9.656-13.328 7.648 2.202 1.287 13.327-7.649-2.201-1.286Zm12.51-7.168-9.009 5.171 2.201 1.275 9.009-5.171-2.201-1.275Zm-46.563 20.913-6.231 3.572 2.202 1.274 6.218-3.571-2.189-1.275Zm11.716-6.722-8.228 4.714 2.202 1.286 8.227-4.726-2.201-1.274Zm16.756-9.621-13.268 7.612 2.202 1.275 13.267-7.6-2.201-1.287Zm-20.653 6.049-19.078 10.943 2.202 1.287 19.077-10.943-2.201-1.287Zm21.375-12.254-17.887 10.258 2.201 1.275 17.875-10.258-2.189-1.275Zm9.081-5.207-5.593 3.199 2.201 1.286 5.594-3.211-2.202-1.274Zm8.721-5.003-5.593 3.199 2.201 1.287 5.593-3.211-2.201-1.275Zm-51.843 23.943-11.44 6.554 2.202 1.275 11.427-6.554-2.189-1.275Zm97.985-9.825 15.854-9.091 2.201 1.275-15.854 9.091-2.201-1.275Zm-1.624-4.858 12.462-7.156 2.189 1.287-12.45 7.143-2.201-1.274Zm-1.576-4.895 9.01-5.171 2.201 1.275-9.022 5.171-2.189-1.275Zm-9.129-.565 13.111-7.528 2.201 1.287-13.111 7.516-2.201-1.275Zm-.927-5.279 9.022-5.16 2.189 1.275-9.009 5.172-2.202-1.287Zm-7.433-1.527 11.427-6.554 2.201 1.274-11.439 6.554-2.189-1.274Zm.168-5.893 6.231-3.584 2.201 1.287-6.231 3.572-2.201-1.275Zm-10.862.421 12.077-6.915 2.189 1.275-12.065 6.927-2.201-1.287Zm-4.378-3.283 11.427-6.554 2.201 1.275-11.439 6.566-2.189-1.287Zm-53.876 30.906-4.86 2.79 2.201 1.275 4.86-2.79-2.201-1.275Zm14.434-8.286-10.946 6.278 2.201 1.286 10.946-6.277-2.201-1.287Zm-13.665-22.379-18.464 10.594 2.202 1.275 18.464-10.595-2.202-1.275Zm12.642-7.252-7.265 4.173 2.201 1.275 7.266-4.173-2.202-1.275Z" opacity=".32"/>
      <path fill="#0F054C" d="M183.507 151.789c23.275-8.145 40.117-20.535 37.618-27.675-2.5-7.14-23.395-6.326-46.67 1.818-23.275 8.144-40.117 20.535-37.617 27.675 2.499 7.14 23.394 6.326 46.669-1.818Z" opacity=".3"/>
      <path fill="#DD821F" d="m162.194 98.165.289-7.335 1.708-4.305 1.082 3.56-3.079 8.08Z"/>
      <path fill="#FFD85A" d="m239.274 99.62.288-7.215s-6.098 6.085-6.098 6.23c0 .144 5.81.985 5.81.985Z"/>
      <path fill="#FFD85A" d="M200.205 120.93c-21.279-.505-38.167-11.328-37.722-30.064.445-18.736 18.043-33.6 39.345-33.095 21.303.505 38.179 16.15 37.722 34.935-.457 18.784-18.067 28.741-39.345 28.224Z"/>
      <path fill="#FFD85A" d="M239.256 100.005c.45-18.784-16.441-34.423-37.727-34.932-21.285-.51-38.905 14.305-39.354 33.089-.449 18.784 16.442 34.423 37.727 34.932 21.286.509 38.905-14.305 39.354-33.089Z"/>
      <path fill="#DD821F" d="M173.826 74.583a31.975 31.975 0 0 0-11.632 23.582c-.457 18.784 16.431 34.43 37.722 34.935a41.11 41.11 0 0 0 27.245-9.128l-53.335-49.389Z"/>
      <path fill="#F9BF30" d="M237.537 99.964c.429-17.947-15.708-32.89-36.044-33.376-20.336-.487-37.169 13.668-37.598 31.615-.43 17.947 15.708 32.89 36.043 33.377 20.336.486 37.17-13.669 37.599-31.616Z"/>
      <path fill="#F2B42A" d="M230.274 99.79c.344-14.408-12.61-26.405-28.934-26.795-16.325-.39-29.838 10.974-30.182 25.382-.345 14.408 12.609 26.404 28.934 26.795 16.324.39 29.837-10.974 30.182-25.382Z"/>
      <path fill="#FFD85A" d="M230.276 99.8v-1.779c-1.359 13.553-14.434 23.979-30.071 23.606-15.638-.372-28.184-11.412-28.869-25.025-.06.59-.108 1.203-.12 1.78-.337 14.431 12.606 26.396 28.928 26.793 16.323.397 29.795-10.967 30.132-25.374Z"/>
      <path fill="#FFD85A" d="m206.399 101.292-6.014-5.616c-5.846 1.323-16.72 3.8-25.416 5.844a24.8 24.8 0 0 0 14.326 14.708l17.104-14.936Zm-9.538 16.92c.974.122 1.953.194 2.935.217a28.363 28.363 0 0 0 18.524-6.097l-9.9-9.104-11.559 14.984Zm-3.032-28.561-11.415-10.57c-3.837 3.355-7.277 7.047-8.203 12.025l19.618-1.455Z"/>
      <path fill="#DD821F" d="M199.808 76.122c16.323.385 29.277 12.387 28.928 26.793a23.212 23.212 0 0 1-1.756 8.31 23.45 23.45 0 0 0 3.296-11.424c.349-14.431-12.606-26.457-28.929-26.793-13.015-.313-24.237 6.842-28.423 17.064 5.028-8.49 15.24-14.226 26.884-13.95ZM162.483 90.83a25.416 25.416 0 0 0 .325 7.432c.854-2.754 2.694-11.004 2.694-11.004l2.935-6.554 2.406-2.008 4.138-3.019.336-9.44a32.211 32.211 0 0 0-12.834 24.593Zm74.577-.974.169-1.936a.457.457 0 0 1 .137-.344.471.471 0 0 1 .344-.137h.12a.472.472 0 0 1 .437.325.46.46 0 0 1 .02.192l-.156 1.936a.482.482 0 0 1-.481.48h-.145a.493.493 0 0 1-.445-.516Zm-3.38-7.408.193-3.488a.552.552 0 0 1 .553-.553h.337a.575.575 0 0 1 .529.59l-.204 3.475a.566.566 0 0 1-.158.399.558.558 0 0 1-.396.166h-.312a.539.539 0 0 1-.515-.367.556.556 0 0 1-.027-.222Zm-4.691-6.47.193-3.38a.637.637 0 0 1 .625-.637h.589a.614.614 0 0 1 .59.662l-.193 3.367a.637.637 0 0 1-.625.637h-.589a.625.625 0 0 1-.59-.649Zm-7.037-5.219.217-4.089a.626.626 0 0 1 .625-.625h.602a.63.63 0 0 1 .556.42c.027.077.038.16.033.241l-.216 4.09a.616.616 0 0 1-.172.444.597.597 0 0 1-.442.18h-.589a.635.635 0 0 1-.574-.415.625.625 0 0 1-.04-.246Zm-7.06-3.439.228-4.714a.608.608 0 0 1 .376-.578.615.615 0 0 1 .238-.048h.589a.636.636 0 0 1 .601.662l-.228 4.714a.627.627 0 0 1-.626.625h-.589a.628.628 0 0 1-.556-.42.622.622 0 0 1-.033-.241Zm-7.133-2.093.228-4.522a.633.633 0 0 1 .383-.589.63.63 0 0 1 .243-.048h.589a.626.626 0 0 1 .589.662l-.228 4.533a.627.627 0 0 1-.175.442.626.626 0 0 1-.439.183h-.601a.636.636 0 0 1-.589-.66Zm-7.109-.71.228-4.605a.626.626 0 0 1 .626-.626h.589a.626.626 0 0 1 .59.662l-.229 4.594a.64.64 0 0 1-.626.637h-.589a.626.626 0 0 1-.589-.662Zm-7.157.145.216-4.305a.638.638 0 0 1 .626-.638h.589a.614.614 0 0 1 .589.662l-.216 4.305a.622.622 0 0 1-.18.446.612.612 0 0 1-.446.18h-.589a.635.635 0 0 1-.589-.65Zm-7.182 1.563.205-4.16a.612.612 0 0 1 .179-.45.628.628 0 0 1 .446-.188h.59a.633.633 0 0 1 .432.208.621.621 0 0 1 .157.453l-.204 4.173a.638.638 0 0 1-.626.638h-.589a.614.614 0 0 1-.59-.674ZM31.527 196.03l.265-6.446 1.491-3.776.962 3.127-2.718 7.095Z"/>
      <path fill="#FFD85A" d="m99.212 197.257.253-6.326s-5.353 5.34-5.353 5.472c0 .132 5.1.854 5.1.854Z"/>
      <path fill="#FFD85A" d="M64.906 216.017c-18.68-.445-33.511-9.945-33.114-26.457.397-16.511 15.865-29.498 34.546-29.054 18.68.445 33.512 14.179 33.115 30.666-.397 16.487-15.866 25.29-34.547 24.845Z"/>
      <path fill="#FFD85A" d="M97.712 196.09c.33-16.498-14.552-30.175-33.24-30.549-18.687-.373-34.104 12.698-34.434 29.195-.33 16.498 14.552 30.175 33.24 30.549 18.687.373 34.103-12.698 34.434-29.195Z"/>
      <path fill="#DD821F" d="m179.07 69.737.229-4.51a.617.617 0 0 1 .174-.446.632.632 0 0 1 .439-.191h.59a.639.639 0 0 1 .601.661l-.228 4.51a.638.638 0 0 1-.626.637h-.589a.61.61 0 0 1-.56-.417.63.63 0 0 1-.03-.244ZM41.763 175.382a28.084 28.084 0 0 0-10.212 20.708c-.397 16.487 14.435 30.221 33.115 30.666a36.152 36.152 0 0 0 23.913-8.082l-46.816-43.292Z"/>
      <path fill="#F9BF30" d="M96.208 196.06c.315-15.761-13.905-28.827-31.762-29.184-17.857-.357-32.589 12.13-32.904 27.891-.315 15.76 13.905 28.826 31.762 29.183 17.857.357 32.589-12.13 32.904-27.89Z"/>
      <path fill="#F2B42A" d="M91.303 197.45c.303-12.649-11.07-23.18-25.402-23.523-14.332-.343-26.196 9.633-26.498 22.282-.303 12.649 11.07 23.18 25.402 23.523 14.332.342 26.196-9.633 26.498-22.282Z"/>
      <path fill="#FFD85A" d="M91.31 197.461v-1.563c-1.204 11.893-12.655 21.057-26.392 20.72-13.736-.336-24.778-9.969-25.392-21.995-.064.513-.1 1.03-.108 1.552-.3 12.651 11.066 23.185 25.404 23.522 14.338.337 26.187-9.597 26.487-22.236Z"/>
      <path fill="#FFD85A" d="m70.344 198.772-5.317-4.93c-5.124 1.202-14.687 3.331-22.313 5.122a21.724 21.724 0 0 0 12.57 12.916l15.06-13.108Zm-8.373 14.852c.843.108 1.709.168 2.575.192a24.834 24.834 0 0 0 16.262-5.351l-8.684-8.046-10.152 13.205Zm-2.658-25.014-10.02-9.283c-3.38 2.946-6.387 6.193-7.217 10.534l17.237-1.251Z"/>
      <path fill="#DD821F" d="M64.618 176.669c14.326.349 25.705 10.883 25.392 23.522a20.444 20.444 0 0 1-1.54 7.3 20.528 20.528 0 0 0 2.9-10.03c.312-12.651-11.067-23.185-25.393-23.522-11.427-.277-21.279 6.013-24.96 14.984 4.355-7.528 13.316-12.495 23.6-12.254Zm-32.826 12.915a22.155 22.155 0 0 0 .288 6.518c.746-2.405 2.406-9.62 2.406-9.62l2.574-5.748 2.153-1.768 3.609-2.646.3-8.298a28.322 28.322 0 0 0-11.33 21.562Zm65.471-.853.145-1.696a.432.432 0 0 1 .433-.433h.12a.445.445 0 0 1 .41.457l-.145 1.696a.435.435 0 0 1-.421.433h-.133a.449.449 0 0 1-.409-.457Zm-2.97-6.506.18-3.055a.475.475 0 0 1 .136-.348.48.48 0 0 1 .345-.145h.3a.506.506 0 0 1 .458.517l-.18 3.055a.483.483 0 0 1-.482.493h-.3a.477.477 0 0 1-.434-.328.478.478 0 0 1-.023-.189Zm-4.114-5.64.168-2.959a.555.555 0 0 1 .541-.553h.518a.567.567 0 0 1 .53.577l-.182 2.971a.555.555 0 0 1-.54.553h-.518a.551.551 0 0 1-.385-.184.536.536 0 0 1-.132-.405Zm-6.171-4.63.18-3.608a.563.563 0 0 1 .554-.565h.517a.537.537 0 0 1 .489.365c.023.068.033.14.028.212l-.192 3.608a.534.534 0 0 1-.15.394.523.523 0 0 1-.391.159h-.518a.541.541 0 0 1-.517-.565Zm-6.158-3.007.192-4.137a.554.554 0 0 1 .553-.553h.457a.538.538 0 0 1 .38.18.546.546 0 0 1 .137.398l-.192 4.136a.555.555 0 0 1-.553.554h-.518a.559.559 0 0 1-.457-.578Zm-6.292-1.84.205-3.98a.552.552 0 0 1 .541-.553h.517a.565.565 0 0 1 .53.589l-.205 3.968a.542.542 0 0 1-.541.554h-.517a.547.547 0 0 1-.385-.179.563.563 0 0 1-.145-.399Zm-6.255-.625.193-4.04a.555.555 0 0 1 .553-.554h.517a.556.556 0 0 1 .518.578l-.205 4.04a.542.542 0 0 1-.541.553h-.517a.537.537 0 0 1-.518-.577Zm-6.291.132.193-3.788a.564.564 0 0 1 .553-.553h.517a.564.564 0 0 1 .518.589l-.193 3.776a.539.539 0 0 1-.331.511.542.542 0 0 1-.21.043h-.517a.547.547 0 0 1-.385-.179.563.563 0 0 1-.145-.399Zm-6.302 1.371.18-3.607a.555.555 0 0 1 .553-.554h.518a.538.538 0 0 1 .38.18.546.546 0 0 1 .137.398l-.193 3.607a.568.568 0 0 1-.541.566h-.517a.536.536 0 0 1-.385-.184.545.545 0 0 1-.133-.406Zm-6.352 3.091.193-3.968a.552.552 0 0 1 .541-.554h.517a.566.566 0 0 1 .385.179.562.562 0 0 1 .145.399l-.205 3.968a.552.552 0 0 1-.541.553h-.517a.537.537 0 0 1-.49-.364.544.544 0 0 1-.028-.213Z"/>
    </g>
    <defs>
      <linearGradient id="b" x1="171.129" x2="310.362" y1="232.179" y2="234.912" gradientUnits="userSpaceOnUse">
        <stop stop-color="#5761D7"/>
        <stop offset=".04" stop-color="#5C66D9"/>
        <stop offset=".09" stop-color="#6A73DF"/>
        <stop offset=".14" stop-color="#8289E8"/>
        <stop offset=".19" stop-color="#A3A7F5"/>
        <stop offset=".22" stop-color="#BCBEFF"/>
      </linearGradient>
      <linearGradient id="c" x1="212.508" x2="265.923" y1="160.168" y2="243.283" gradientUnits="userSpaceOnUse">
        <stop stop-color="#C0BFF6"/>
        <stop offset=".29" stop-color="#C5C4F7"/>
        <stop offset=".64" stop-color="#D3D2F9"/>
        <stop offset="1" stop-color="#E9E9FD"/>
      </linearGradient>
      <linearGradient id="d" x1="85.173" x2="230.268" y1="10.378" y2="257.857" gradientUnits="userSpaceOnUse">
        <stop stop-color="#C0BFF6"/>
        <stop offset=".12" stop-color="#D0CFF9"/>
        <stop offset=".26" stop-color="#E9E9FD"/>
        <stop offset=".51" stop-color="#C0BFF6"/>
        <stop offset=".62" stop-color="#D0CFF9"/>
        <stop offset=".75" stop-color="#E9E9FD"/>
        <stop offset="1" stop-color="#C0BFF6"/>
      </linearGradient>
      <clipPath id="a">
        <path fill="#fff" d="M0 0h326v270H0z"/>
      </clipPath>
    </defs>
  </svg>