<svg viewBox="0 0 326 270" fill="none" xmlns="http://www.w3.org/2000/svg">
<g clip-path="url(#clip0_83_559)">
<path opacity="0.5" d="M122.183 83.3206C140.26 76.9951 153.342 67.375 151.402 61.8335C149.462 56.2919 133.235 56.9274 115.157 63.2528C97.0801 69.5783 83.9984 79.1984 85.9384 84.7399C87.8784 90.2815 104.106 89.646 122.183 83.3206Z" fill="#0F054C"/>
<path d="M105.623 41.6929L105.852 35.9808L107.187 32.6497L108.029 35.4156L105.623 41.6929Z" fill="#DD821F"/>
<path d="M165.502 42.7753L165.73 37.1833C165.73 37.1833 160.991 41.8974 160.991 41.9936C160.991 42.0898 165.502 42.7753 165.502 42.7753Z" fill="#FFD85A"/>
<path d="M135.154 59.3707C118.626 58.9738 105.503 50.5799 105.852 35.9808C106.201 21.3816 119.889 9.8851 136.417 10.2819C152.944 10.6788 166.067 22.8247 165.718 37.4238C165.37 52.023 151.681 59.7675 135.154 59.3707Z" fill="#FFD85A"/>
<path d="M165.473 43.1071C165.822 28.5197 152.705 16.3739 136.174 15.9786C119.644 15.5834 105.961 27.0884 105.612 41.6758C105.263 56.2632 118.38 68.409 134.911 68.8043C151.441 69.1995 165.124 57.6945 165.473 43.1071Z" fill="#FFD85A"/>
<path d="M114.669 23.3657C111.95 25.6063 109.739 28.3989 108.182 31.5585C106.624 34.7181 105.756 38.1725 105.635 41.6928C105.275 56.2799 118.398 68.4259 134.925 68.8227C142.604 69.0782 150.118 66.5642 156.096 61.7396L114.669 23.3657Z" fill="#DD821F"/>
<path d="M164.138 43.0752C164.472 29.1385 151.939 17.5344 136.146 17.1568C120.353 16.7792 107.28 27.771 106.947 41.7077C106.613 55.6444 119.146 67.2485 134.939 67.6261C150.732 68.0037 163.805 57.0119 164.138 43.0752Z" fill="#F9BF30"/>
<path d="M158.499 42.9524C158.766 31.7645 148.705 22.4492 136.027 22.1461C123.349 21.8429 112.854 30.6667 112.586 41.8546C112.319 53.0425 122.38 62.3578 135.058 62.6609C147.736 62.9641 158.231 54.1402 158.499 42.9524Z" fill="#F2B42A"/>
<path d="M158.513 42.9556C158.513 42.4866 158.513 42.0296 158.513 41.5726C157.455 52.1071 147.315 60.2003 135.166 59.9117C123.017 59.6231 113.274 51.0488 112.72 40.4783C112.72 40.9352 112.636 41.3922 112.624 41.8492C112.359 53.0451 122.427 62.365 135.106 62.6656C147.784 62.9662 158.249 54.1394 158.513 42.9556Z" fill="#FFD85A"/>
<path d="M139.965 44.1101L135.262 39.7568C130.727 40.779 122.271 42.7031 115.523 44.2905C116.452 46.878 117.924 49.2365 119.842 51.2072C121.759 53.1779 124.076 54.715 126.637 55.7149L139.965 44.1101Z" fill="#FFD85A"/>
<path d="M132.556 57.2661C133.301 57.3503 134.059 57.4104 134.841 57.4344C140.064 57.6175 145.182 55.9333 149.275 52.6843L141.601 45.5771L132.556 57.2661Z" fill="#FFD85A"/>
<path d="M130.21 35.0788L121.333 26.8652C118.35 29.4628 115.691 32.3369 114.97 36.1731L130.21 35.0788Z" fill="#FFD85A"/>
<path d="M134.841 24.5685C147.519 24.8691 157.587 34.189 157.323 45.3729C157.263 47.5911 156.798 49.7797 155.951 51.8307C157.557 49.143 158.44 46.0856 158.513 42.9557C158.79 31.7599 148.722 22.5121 136.044 22.1393C125.94 21.8988 117.219 27.4667 113.971 35.3676C117.869 28.7775 125.795 24.352 134.841 24.5685Z" fill="#DD821F"/>
<path d="M105.852 35.9808C105.654 37.9074 105.743 39.8526 106.117 41.7531C106.766 39.6246 108.198 33.2149 108.198 33.2149L110.483 28.128L112.384 26.5647L115.595 24.2197L115.86 16.884C112.877 19.1232 110.43 21.9992 108.699 25.3027C106.968 28.6062 105.995 32.2541 105.852 35.9808Z" fill="#DD821F"/>
<path d="M163.782 35.2352L163.914 33.732C163.913 33.682 163.921 33.6322 163.939 33.5856C163.957 33.539 163.984 33.4965 164.019 33.4606C164.054 33.4247 164.096 33.3961 164.142 33.3767C164.188 33.3572 164.237 33.3471 164.287 33.3472H164.407C164.456 33.3502 164.504 33.3629 164.548 33.3845C164.592 33.4062 164.632 33.4363 164.664 33.4732C164.697 33.51 164.721 33.5529 164.737 33.5994C164.753 33.6459 164.759 33.695 164.756 33.744L164.636 35.2472C164.633 35.3463 164.593 35.4408 164.524 35.512C164.455 35.5833 164.362 35.6261 164.263 35.632H164.143C164.093 35.6305 164.043 35.619 163.998 35.598C163.953 35.5771 163.912 35.5472 163.878 35.5102C163.844 35.4732 163.819 35.4297 163.802 35.3825C163.786 35.3352 163.779 35.2851 163.782 35.2352Z" fill="#DD821F"/>
<path d="M161.16 29.4749L161.316 26.7691C161.316 26.6563 161.36 26.548 161.439 26.4672C161.517 26.3863 161.624 26.3393 161.737 26.3362H162.05C162.162 26.3424 162.268 26.3924 162.345 26.4755C162.421 26.5586 162.462 26.6683 162.459 26.7811L162.302 29.4869C162.304 29.5442 162.294 29.6012 162.273 29.6545C162.252 29.7078 162.22 29.7562 162.179 29.7967C162.139 29.8373 162.09 29.8691 162.037 29.8903C161.984 29.9114 161.927 29.9215 161.869 29.9198H161.617C161.557 29.9232 161.497 29.9141 161.441 29.893C161.385 29.872 161.333 29.8396 161.29 29.7978C161.247 29.7559 161.214 29.7056 161.191 29.65C161.169 29.5945 161.158 29.5348 161.16 29.4749Z" fill="#DD821F"/>
<path d="M157.515 24.4482L157.659 21.8266C157.662 21.6967 157.715 21.5731 157.807 21.4813C157.899 21.3895 158.023 21.3366 158.152 21.3335H158.61C158.737 21.3456 158.855 21.4058 158.94 21.5018C159.025 21.5978 159.07 21.7225 159.067 21.8506L158.91 24.4722C158.912 24.5364 158.901 24.6002 158.877 24.66C158.854 24.7197 158.818 24.7742 158.774 24.8201C158.729 24.8661 158.675 24.9026 158.616 24.9275C158.557 24.9524 158.493 24.9653 158.429 24.9652H157.972C157.908 24.9622 157.845 24.9463 157.787 24.9185C157.729 24.8907 157.677 24.8515 157.634 24.8033C157.592 24.7551 157.559 24.6988 157.539 24.6378C157.518 24.5768 157.51 24.5123 157.515 24.4482Z" fill="#DD821F"/>
<path d="M152.054 20.3956L152.222 17.2208C152.221 17.1567 152.232 17.0928 152.255 17.0331C152.279 16.9733 152.314 16.9189 152.359 16.8729C152.404 16.827 152.457 16.7904 152.517 16.7655C152.576 16.7406 152.639 16.7278 152.704 16.7278H153.161C153.224 16.7292 153.287 16.7436 153.345 16.7702C153.403 16.7967 153.455 16.8347 153.498 16.882C153.541 16.9293 153.573 16.9848 153.594 17.0451C153.615 17.1054 153.623 17.1693 153.618 17.2329L153.449 20.4197C153.451 20.4833 153.44 20.5466 153.416 20.6057C153.392 20.6648 153.357 20.7185 153.312 20.7635C153.267 20.8085 153.213 20.8439 153.154 20.8674C153.095 20.891 153.032 20.9023 152.968 20.9007H152.511C152.447 20.8992 152.384 20.8848 152.327 20.8583C152.269 20.8318 152.217 20.7937 152.174 20.7465C152.131 20.6992 152.098 20.6437 152.078 20.5834C152.057 20.5231 152.049 20.4592 152.054 20.3956Z" fill="#DD821F"/>
<path d="M146.557 17.7258L146.737 14.1181C146.74 13.9903 146.791 13.8683 146.881 13.7768C146.97 13.6853 147.091 13.6311 147.218 13.625H147.675C147.74 13.6281 147.804 13.6439 147.862 13.6716C147.921 13.6993 147.974 13.7382 148.017 13.7863C148.061 13.8343 148.095 13.8904 148.116 13.9515C148.138 14.0126 148.148 14.0773 148.145 14.1421L147.964 17.7498C147.961 17.8776 147.91 17.9995 147.821 18.091C147.731 18.1825 147.611 18.2368 147.483 18.2429H147.026C146.896 18.2336 146.775 18.1747 146.688 18.0784C146.6 17.982 146.553 17.8557 146.557 17.7258Z" fill="#DD821F"/>
<path d="M141.048 16.1024L141.216 12.5909C141.216 12.4602 141.268 12.3348 141.361 12.2423C141.453 12.1498 141.579 12.0979 141.709 12.0979H142.166C142.23 12.101 142.292 12.1165 142.349 12.1436C142.406 12.1706 142.457 12.2087 142.5 12.2556C142.542 12.3025 142.575 12.3574 142.596 12.417C142.617 12.4766 142.627 12.5398 142.624 12.603L142.443 16.1265C142.445 16.1907 142.433 16.2545 142.41 16.3143C142.387 16.374 142.351 16.4285 142.306 16.4744C142.262 16.5204 142.208 16.5569 142.149 16.5818C142.09 16.6067 142.026 16.6196 141.962 16.6195H141.505C141.441 16.6165 141.378 16.6006 141.319 16.5728C141.261 16.545 141.21 16.5058 141.167 16.4576C141.124 16.4094 141.092 16.3531 141.071 16.2921C141.051 16.2311 141.043 16.1666 141.048 16.1024Z" fill="#DD821F"/>
<path d="M135.503 15.5492L135.683 11.9415C135.681 11.8774 135.693 11.8135 135.716 11.7538C135.74 11.694 135.775 11.6395 135.82 11.5936C135.864 11.5476 135.918 11.5111 135.977 11.4862C136.036 11.4613 136.1 11.4485 136.164 11.4485H136.621C136.685 11.4515 136.749 11.4674 136.807 11.4952C136.865 11.5231 136.916 11.5622 136.959 11.6104C137.002 11.6587 137.034 11.7149 137.055 11.7759C137.075 11.8369 137.083 11.9014 137.078 11.9656L136.91 15.5733C136.907 15.7031 136.854 15.8267 136.762 15.9185C136.67 16.0104 136.547 16.0633 136.417 16.0663H135.96C135.832 16.0542 135.714 15.994 135.629 15.898C135.544 15.802 135.499 15.6773 135.503 15.5492Z" fill="#DD821F"/>
<path d="M129.945 15.6694L130.114 12.3263C130.112 12.2621 130.123 12.1983 130.147 12.1385C130.17 12.0788 130.206 12.0243 130.25 11.9784C130.295 11.9324 130.349 11.8959 130.408 11.871C130.467 11.8461 130.531 11.8332 130.595 11.8333H131.052C131.116 11.8348 131.18 11.8492 131.238 11.8755C131.297 11.9019 131.349 11.9398 131.393 11.9868C131.437 12.0339 131.471 12.0893 131.493 12.1496C131.515 12.21 131.524 12.2742 131.521 12.3383L131.353 15.6935C131.353 15.7577 131.34 15.8212 131.315 15.8804C131.29 15.9395 131.254 15.9931 131.208 16.0379C131.162 16.0828 131.107 16.118 131.047 16.1414C130.988 16.1649 130.924 16.1761 130.86 16.1745H130.402C130.339 16.1714 130.277 16.1559 130.22 16.1289C130.163 16.1018 130.112 16.0637 130.069 16.0168C130.027 15.9699 129.994 15.915 129.973 15.8554C129.951 15.7958 129.942 15.7326 129.945 15.6694Z" fill="#DD821F"/>
<path d="M124.364 16.8841L124.532 13.6372C124.531 13.5736 124.542 13.5103 124.566 13.4512C124.589 13.3921 124.625 13.3384 124.67 13.2934C124.715 13.2484 124.768 13.213 124.828 13.1894C124.887 13.1658 124.95 13.1545 125.014 13.1562H125.471C125.534 13.1576 125.597 13.172 125.655 13.1985C125.713 13.2251 125.765 13.2631 125.808 13.3104C125.851 13.3577 125.883 13.4132 125.904 13.4735C125.925 13.5338 125.933 13.5977 125.928 13.6612L125.759 16.9082C125.761 16.9718 125.75 17.0351 125.726 17.0942C125.703 17.1533 125.667 17.207 125.622 17.252C125.577 17.297 125.523 17.3324 125.464 17.3559C125.405 17.3795 125.342 17.3909 125.278 17.3892H124.821C124.758 17.3861 124.696 17.3706 124.639 17.3435C124.582 17.3165 124.53 17.2784 124.488 17.2315C124.445 17.1845 124.413 17.1297 124.391 17.0701C124.37 17.0105 124.361 16.9473 124.364 16.8841Z" fill="#DD821F"/>
<path d="M118.747 19.6139L118.915 16.1024C118.918 15.9746 118.969 15.8527 119.059 15.7612C119.148 15.6697 119.268 15.6154 119.396 15.6094H119.853C119.918 15.6124 119.981 15.6283 120.039 15.6561C120.097 15.6839 120.149 15.7231 120.191 15.7713C120.234 15.8195 120.266 15.8758 120.287 15.9368C120.307 15.9978 120.315 16.0623 120.31 16.1265L120.142 19.6259C120.144 19.6901 120.132 19.754 120.109 19.8137C120.085 19.8735 120.05 19.9279 120.005 19.9739C119.961 20.0198 119.907 20.0563 119.848 20.0813C119.789 20.1062 119.725 20.119 119.661 20.119H119.204C119.14 20.1176 119.077 20.1031 119.019 20.0766C118.961 20.0501 118.909 20.012 118.866 19.9648C118.824 19.9175 118.791 19.862 118.77 19.8017C118.75 19.7414 118.742 19.6775 118.747 19.6139Z" fill="#DD821F"/>
<path d="M326 183.8V195.621C325.998 195.712 325.971 195.8 325.923 195.877C325.874 195.953 325.805 196.014 325.723 196.054L197.017 269.868C196.757 269.984 196.474 270.037 196.19 270.025C195.907 270.012 195.629 269.934 195.381 269.796L174.415 257.614C174.33 257.565 174.256 257.5 174.198 257.421C174.14 257.342 174.099 257.252 174.078 257.157V245.215L184.255 251.023L302.977 182.922C303.236 182.803 303.519 182.748 303.804 182.761C304.088 182.773 304.366 182.853 304.613 182.994L311.83 187.167L326 183.8Z" fill="url(#paint0_linear_83_559)"/>
<path d="M303.001 170.945L174.295 244.758C173.886 244.999 173.934 245.42 174.415 245.696L195.381 257.878C195.629 258.016 195.907 258.095 196.19 258.108C196.474 258.12 196.757 258.066 197.017 257.95L325.723 184.137C326.144 183.896 326.096 183.475 325.603 183.199L304.637 171.017C304.389 170.878 304.112 170.8 303.828 170.787C303.544 170.775 303.261 170.829 303.001 170.945Z" fill="url(#paint1_linear_83_559)"/>
<path opacity="0.6" d="M298.346 188.731L197.306 245.66C196.524 241.555 195.368 237.529 193.853 233.634L294.774 175.731C296.387 179.937 297.584 184.291 298.346 188.731Z" fill="#24126A"/>
<path d="M307.464 177.787L186.107 247.368C185.818 247.536 185.854 247.825 186.191 248.017L191.46 251.072C191.632 251.162 191.824 251.21 192.019 251.21C192.214 251.21 192.406 251.162 192.578 251.072L313.899 181.479C314.188 181.311 314.152 181.022 313.815 180.83L308.583 177.787C308.41 177.697 308.218 177.649 308.023 177.649C307.828 177.649 307.636 177.697 307.464 177.787Z" fill="#24126A"/>
<path d="M313.923 181.527L311.518 182.946L308.679 181.287C308.506 181.196 308.314 181.149 308.119 181.149C307.925 181.149 307.733 181.196 307.56 181.287L188.693 249.472L186.287 248.065C185.951 247.873 185.915 247.584 186.203 247.416L307.464 177.787C307.636 177.697 307.828 177.649 308.023 177.649C308.218 177.649 308.41 177.697 308.583 177.787L313.851 180.842C314.176 181.07 314.212 181.395 313.923 181.527Z" fill="#453C9E"/>
<path opacity="0.96" d="M1.62386 57.9035L102.556 0C102.556 18.0385 115.138 40.0935 130.775 49.1729L269.874 129.961C288.254 140.628 303.109 166.519 303.049 187.769L202.117 245.66C202.177 224.411 187.322 198.532 168.942 187.865L29.843 107.076C14.2058 97.997 1.57574 75.9781 1.62386 57.9035Z" fill="url(#paint2_linear_83_559)"/>
<path opacity="0.8" d="M303.049 187.769L202.117 245.66C202.117 244.734 202.117 243.784 202.033 242.834L302.965 185.003C303.013 185.893 303.049 186.831 303.049 187.769Z" fill="#453C9E"/>
<g opacity="0.32">
<path d="M156.889 144.344L134.035 157.464L136.236 158.739L159.091 145.619L156.889 144.344Z" fill="#453C9E"/>
<path d="M168.617 137.622L160.39 142.348L162.579 143.622L170.819 138.896L168.617 137.622Z" fill="#453C9E"/>
<path d="M177.699 132.415L172.106 135.625L174.307 136.9L179.9 133.689L177.699 132.415Z" fill="#453C9E"/>
<path d="M141.469 147.398L129.007 154.542L131.208 155.816L143.67 148.673L141.469 147.398Z" fill="#453C9E"/>
<path d="M160.221 136.635L144.957 145.39L147.158 146.677L162.423 137.91L160.221 136.635Z" fill="#453C9E"/>
<path d="M169.303 131.428L163.71 134.639L165.911 135.914L171.504 132.703L169.303 131.428Z" fill="#453C9E"/>
<path d="M177.952 126.462L172.358 129.673L174.56 130.947L180.153 127.749L177.952 126.462Z" fill="#453C9E"/>
<path d="M133.001 146.46L123.979 151.631L126.18 152.906L135.19 147.735L133.001 146.46Z" fill="#453C9E"/>
<path d="M139.568 142.684L136.489 144.452L138.69 145.727L141.769 143.959L139.568 142.684Z" fill="#453C9E"/>
<path d="M148.65 137.477L143.069 140.676L145.258 141.963L150.851 138.752L148.65 137.477Z" fill="#453C9E"/>
<path d="M152.222 129.625L118.963 148.709L121.164 149.984L154.424 130.899L152.222 129.625Z" fill="#453C9E"/>
<path d="M163.95 122.902L155.723 127.628L157.912 128.903L166.152 124.177L163.95 122.902Z" fill="#453C9E"/>
<path d="M122.945 140.616L113.935 145.787L116.136 147.074L125.146 141.903L122.945 140.616Z" fill="#453C9E"/>
<path d="M144.103 128.482L126.445 138.62L128.646 139.895L146.304 129.769L144.103 128.482Z" fill="#453C9E"/>
<path d="M153.185 123.275L147.591 126.486L149.793 127.76L155.386 124.55L153.185 123.275Z" fill="#453C9E"/>
<path d="M127.359 132.294L108.907 142.877L111.109 144.151L129.548 133.569L127.359 132.294Z" fill="#453C9E"/>
<path d="M144.175 122.638L130.847 130.286L133.049 131.573L146.376 123.924L144.175 122.638Z" fill="#453C9E"/>
<path d="M156.685 115.47L147.676 120.641L149.877 121.916L158.886 116.745L156.685 115.47Z" fill="#453C9E"/>
<path d="M110.122 136.383L103.891 139.955L106.093 141.229L112.311 137.658L110.122 136.383Z" fill="#453C9E"/>
<path d="M121.838 129.661L113.61 134.375L115.812 135.661L124.039 130.935L121.838 129.661Z" fill="#453C9E"/>
<path d="M138.594 120.04L125.326 127.652L127.528 128.927L140.795 121.327L138.594 120.04Z" fill="#453C9E"/>
<path d="M117.941 126.089L98.8633 137.032L101.065 138.319L120.142 127.376L117.941 126.089Z" fill="#453C9E"/>
<path d="M139.316 113.835L121.429 124.093L123.63 125.368L141.505 115.11L139.316 113.835Z" fill="#453C9E"/>
<path d="M148.397 108.628L142.804 111.827L145.005 113.113L150.599 109.902L148.397 108.628Z" fill="#453C9E"/>
<path d="M157.118 103.625L151.525 106.824L153.726 108.111L159.319 104.9L157.118 103.625Z" fill="#453C9E"/>
<path d="M105.275 127.568L93.8354 134.122L96.0366 135.397L107.464 128.843L105.275 127.568Z" fill="#453C9E"/>
<path d="M203.26 117.743L219.114 108.652L221.315 109.927L205.461 119.018L203.26 117.743Z" fill="#453C9E"/>
<path d="M201.636 112.885L214.098 105.729L216.287 107.016L203.837 114.159L201.636 112.885Z" fill="#453C9E"/>
<path d="M200.06 107.99L209.07 102.819L211.271 104.094L202.249 109.265L200.06 107.99Z" fill="#453C9E"/>
<path d="M190.931 107.425L204.042 99.8972L206.243 101.184L193.132 108.7L190.931 107.425Z" fill="#453C9E"/>
<path d="M190.004 102.146L199.026 96.9868L201.215 98.2615L192.206 103.433L190.004 102.146Z" fill="#453C9E"/>
<path d="M182.571 100.619L193.998 94.0647L196.199 95.3394L184.76 101.893L182.571 100.619Z" fill="#453C9E"/>
<path d="M182.739 94.726L188.97 91.1423L191.171 92.4291L184.94 96.0007L182.739 94.726Z" fill="#453C9E"/>
<path d="M171.877 95.1469L183.954 88.2322L186.143 89.5069L174.078 96.4337L171.877 95.1469Z" fill="#453C9E"/>
<path d="M167.499 91.864L178.926 85.3101L181.127 86.5848L169.688 93.1508L167.499 91.864Z" fill="#453C9E"/>
<path d="M113.623 122.77L108.763 125.56L110.964 126.835L115.824 124.045L113.623 122.77Z" fill="#453C9E"/>
<path d="M128.057 114.484L117.111 120.762L119.312 122.048L130.258 115.771L128.057 114.484Z" fill="#453C9E"/>
<path d="M114.392 92.1045L95.9283 102.699L98.1296 103.974L116.594 93.3792L114.392 92.1045Z" fill="#453C9E"/>
<path d="M127.034 84.853L119.769 89.0259L121.97 90.3006L129.236 86.1278L127.034 84.853Z" fill="#453C9E"/>
</g>
<path opacity="0.3" d="M183.507 151.789C206.782 143.644 223.624 131.254 221.125 124.114C218.625 116.974 197.73 117.788 174.455 125.932C151.18 134.076 134.338 146.467 136.838 153.607C139.337 160.747 160.232 159.933 183.507 151.789Z" fill="#0F054C"/>
<path d="M162.194 98.1655L162.483 90.8298L164.191 86.5247L165.273 90.0843L162.194 98.1655Z" fill="#DD821F"/>
<path d="M239.274 99.6204L239.562 92.405C239.562 92.405 233.464 98.49 233.464 98.6343C233.464 98.7786 239.274 99.6204 239.274 99.6204Z" fill="#FFD85A"/>
<path d="M200.205 120.93C178.926 120.425 162.038 109.602 162.483 90.8659C162.928 72.1299 180.526 57.2662 201.828 57.7713C223.131 58.2764 240.007 73.9217 239.55 92.7058C239.093 111.49 221.483 121.447 200.205 120.93Z" fill="#FFD85A"/>
<path d="M239.256 100.005C239.706 81.2213 222.815 65.5816 201.529 65.0726C180.244 64.5637 162.624 79.3783 162.175 98.162C161.726 116.946 178.617 132.585 199.902 133.094C221.188 133.603 238.807 118.789 239.256 100.005Z" fill="#FFD85A"/>
<path d="M173.826 74.583C170.326 77.4649 167.479 81.0579 165.473 85.1236C163.468 89.1893 162.35 93.6348 162.194 98.1653C161.737 116.949 178.625 132.595 199.916 133.1C209.8 133.433 219.473 130.193 227.161 123.972L173.826 74.583Z" fill="#DD821F"/>
<path d="M237.537 99.9639C237.966 82.0169 221.829 67.0737 201.493 66.5875C181.157 66.1013 164.324 80.2561 163.895 98.2032C163.465 116.15 179.603 131.093 199.938 131.58C220.274 132.066 237.108 117.911 237.537 99.9639Z" fill="#F9BF30"/>
<path d="M230.274 99.7901C230.618 85.382 217.664 73.3855 201.34 72.9951C185.015 72.6048 171.502 83.9685 171.158 98.3767C170.813 112.785 183.767 124.781 200.092 125.172C216.416 125.562 229.929 114.198 230.274 99.7901Z" fill="#F2B42A"/>
<path d="M230.276 99.8009C230.276 99.1996 230.276 98.5983 230.276 98.0211C228.917 111.574 215.842 122 200.205 121.627C184.567 121.255 172.021 110.215 171.336 96.6021C171.276 97.1913 171.228 97.8046 171.216 98.3818C170.879 112.813 183.822 124.778 200.144 125.175C216.467 125.572 229.939 114.208 230.276 99.8009Z" fill="#FFD85A"/>
<path d="M206.399 101.292L200.385 95.676C194.539 96.9988 183.665 99.4761 174.969 101.52C176.168 104.852 178.067 107.889 180.538 110.426C183.009 112.963 185.995 114.941 189.295 116.228L206.399 101.292Z" fill="#FFD85A"/>
<path d="M196.861 118.212C197.835 118.334 198.814 118.406 199.796 118.429C206.497 118.65 213.06 116.49 218.32 112.332L208.42 103.228L196.861 118.212Z" fill="#FFD85A"/>
<path d="M193.829 89.6514L182.414 79.0808C178.577 82.436 175.137 86.1278 174.211 91.1065L193.829 89.6514Z" fill="#FFD85A"/>
<path d="M199.808 76.1223C216.131 76.5071 229.085 88.5087 228.736 102.915C228.667 105.77 228.071 108.587 226.98 111.225C229.042 107.763 230.177 103.829 230.276 99.8008C230.625 85.37 217.67 73.3444 201.347 73.0077C188.332 72.695 177.11 79.8503 172.924 90.0721C177.952 81.582 188.164 75.8457 199.808 76.1223Z" fill="#DD821F"/>
<path d="M162.483 90.8298C162.226 93.3096 162.336 95.8136 162.808 98.2616C163.662 95.5077 165.502 87.2581 165.502 87.2581L168.437 80.7042L170.843 78.6959L174.981 75.6774L175.317 66.2373C171.48 69.1214 168.337 72.8263 166.116 77.0812C163.895 81.3362 162.654 86.0335 162.483 90.8298Z" fill="#DD821F"/>
<path d="M237.06 89.8558L237.229 87.9197C237.227 87.8561 237.238 87.7928 237.262 87.7336C237.286 87.6745 237.321 87.6209 237.366 87.5759C237.411 87.5309 237.465 87.4955 237.524 87.4719C237.583 87.4483 237.646 87.437 237.71 87.4386H237.83C237.895 87.44 237.959 87.4547 238.018 87.482C238.077 87.5092 238.129 87.5484 238.172 87.597C238.215 87.6456 238.247 87.7025 238.267 87.7643C238.287 87.826 238.294 87.8912 238.287 87.9557L238.131 89.8919C238.131 90.0195 238.08 90.1418 237.99 90.232C237.9 90.3222 237.777 90.3729 237.65 90.3729H237.505C237.379 90.3607 237.262 90.3001 237.179 90.2037C237.096 90.1074 237.053 89.9827 237.06 89.8558Z" fill="#DD821F"/>
<path d="M233.68 82.4478L233.873 78.9604C233.873 78.8137 233.931 78.673 234.035 78.5693C234.139 78.4655 234.279 78.4072 234.426 78.4072H234.763C234.91 78.4195 235.046 78.4873 235.144 78.5968C235.243 78.7063 235.296 78.8493 235.292 78.9965L235.088 82.4719C235.089 82.5456 235.076 82.6188 235.049 82.6873C235.022 82.7558 234.981 82.8182 234.93 82.8708C234.878 82.9235 234.817 82.9653 234.749 82.9939C234.681 83.0224 234.608 83.0371 234.534 83.0371H234.222C234.146 83.0374 234.072 83.022 234.003 82.9918C233.934 82.9617 233.872 82.9175 233.821 82.862C233.77 82.8065 233.731 82.741 233.707 82.6697C233.683 82.5984 233.674 82.5229 233.68 82.4478Z" fill="#DD821F"/>
<path d="M228.989 75.978L229.182 72.5988C229.182 72.4318 229.247 72.2715 229.364 72.1523C229.481 72.0331 229.64 71.9646 229.807 71.9614H230.396C230.479 71.9644 230.56 71.9841 230.635 72.0193C230.71 72.0545 230.777 72.1046 230.832 72.1664C230.887 72.2282 230.929 72.3004 230.956 72.3789C230.982 72.4573 230.992 72.5403 230.986 72.6228L230.793 75.99C230.793 76.157 230.728 76.3173 230.611 76.4365C230.494 76.5557 230.335 76.6242 230.168 76.6274H229.579C229.415 76.6181 229.261 76.5448 229.151 76.4233C229.041 76.3018 228.983 76.1419 228.989 75.978Z" fill="#DD821F"/>
<path d="M221.952 70.759L222.169 66.6703C222.169 66.5044 222.235 66.3453 222.352 66.2281C222.469 66.1108 222.628 66.0449 222.794 66.0449H223.396C223.478 66.0495 223.558 66.0703 223.633 66.1061C223.707 66.1418 223.773 66.1919 223.828 66.2533C223.883 66.3147 223.925 66.3864 223.952 66.4641C223.979 66.5419 223.99 66.6242 223.985 66.7063L223.769 70.7951C223.772 70.877 223.758 70.9588 223.729 71.0354C223.699 71.112 223.655 71.1817 223.597 71.2403C223.54 71.2988 223.471 71.345 223.395 71.376C223.319 71.407 223.237 71.4221 223.155 71.4204H222.566C222.482 71.4173 222.4 71.3977 222.324 71.3628C222.247 71.3279 222.179 71.2783 222.122 71.2168C222.065 71.1554 222.021 71.0834 221.992 71.0048C221.962 70.9262 221.949 70.8427 221.952 70.759Z" fill="#DD821F"/>
<path d="M214.892 67.3196L215.12 62.6056C215.118 62.524 215.133 62.443 215.163 62.3672C215.193 62.2914 215.238 62.2223 215.295 62.1641C215.353 62.1059 215.421 62.0596 215.496 62.028C215.571 61.9965 215.652 61.9802 215.734 61.9802H216.323C216.49 61.9896 216.647 62.0641 216.759 62.1879C216.872 62.3116 216.931 62.4746 216.924 62.6416L216.696 67.3557C216.696 67.5215 216.63 67.6806 216.513 67.7979C216.395 67.9151 216.236 67.981 216.07 67.981H215.481C215.399 67.9764 215.318 67.9556 215.244 67.9199C215.17 67.8841 215.104 67.8341 215.049 67.7727C214.994 67.7112 214.952 67.6396 214.925 67.5618C214.898 67.4841 214.887 67.4018 214.892 67.3196Z" fill="#DD821F"/>
<path d="M207.759 65.2271L207.987 60.7055C207.986 60.6223 208.001 60.5397 208.031 60.4625C208.062 60.3852 208.108 60.3148 208.166 60.2555C208.224 60.1962 208.294 60.149 208.37 60.1168C208.447 60.0847 208.529 60.0681 208.613 60.0681H209.202C209.284 60.0727 209.365 60.0935 209.439 60.1293C209.513 60.165 209.579 60.215 209.634 60.2765C209.689 60.3379 209.731 60.4096 209.758 60.4873C209.785 60.5651 209.796 60.6474 209.791 60.7295L209.563 65.2632C209.564 65.3447 209.55 65.4258 209.52 65.5016C209.49 65.5774 209.445 65.6464 209.388 65.7047C209.33 65.7629 209.262 65.8092 209.187 65.8407C209.112 65.8723 209.031 65.8885 208.949 65.8885H208.348C208.183 65.8762 208.03 65.8003 207.92 65.6769C207.81 65.5535 207.752 65.3922 207.759 65.2271Z" fill="#DD821F"/>
<path d="M200.65 64.5175L200.878 59.9117C200.878 59.7458 200.944 59.5868 201.061 59.4695C201.179 59.3523 201.338 59.2864 201.504 59.2864H202.093C202.175 59.291 202.256 59.3117 202.33 59.3475C202.404 59.3833 202.47 59.4333 202.525 59.4948C202.58 59.5562 202.622 59.6278 202.649 59.7056C202.676 59.7833 202.687 59.8656 202.683 59.9478L202.454 64.5416C202.454 64.7086 202.388 64.8689 202.272 64.9881C202.155 65.1073 201.995 65.1758 201.828 65.1789H201.239C201.157 65.1743 201.076 65.1536 201.002 65.1178C200.928 65.082 200.862 65.032 200.807 64.9706C200.752 64.9091 200.71 64.8375 200.683 64.7597C200.656 64.682 200.645 64.5997 200.65 64.5175Z" fill="#DD821F"/>
<path d="M193.493 64.662L193.709 60.3568C193.709 60.1899 193.775 60.0295 193.892 59.9104C194.008 59.7912 194.168 59.7226 194.335 59.7195H194.924C195.007 59.7225 195.088 59.7422 195.163 59.7774C195.238 59.8126 195.305 59.8626 195.36 59.9244C195.415 59.9862 195.457 60.0585 195.483 60.137C195.51 60.2154 195.52 60.2984 195.513 60.3809L195.297 64.6861C195.299 64.7686 195.283 64.8507 195.253 64.9273C195.222 65.0039 195.176 65.0735 195.117 65.1319C195.059 65.1903 194.989 65.2363 194.913 65.2671C194.836 65.298 194.754 65.313 194.671 65.3114H194.082C193.919 65.2991 193.767 65.2249 193.658 65.1041C193.548 64.9833 193.489 64.8251 193.493 64.662Z" fill="#DD821F"/>
<path d="M186.311 66.2252L186.516 62.0644C186.514 61.9812 186.529 61.8986 186.56 61.8214C186.591 61.7441 186.637 61.6737 186.695 61.6144C186.753 61.555 186.823 61.5079 186.899 61.4757C186.976 61.4435 187.058 61.427 187.141 61.427H187.731C187.813 61.4316 187.893 61.4524 187.968 61.4881C188.042 61.5239 188.108 61.5739 188.163 61.6354C188.218 61.6968 188.26 61.7685 188.287 61.8462C188.314 61.9239 188.325 62.0062 188.32 62.0884L188.116 66.2613C188.116 66.4283 188.05 66.5886 187.933 66.7078C187.816 66.827 187.657 66.8955 187.49 66.8987H186.901C186.817 66.8958 186.735 66.8758 186.659 66.8398C186.583 66.8038 186.515 66.7527 186.46 66.6896C186.405 66.6265 186.363 66.5527 186.338 66.4728C186.312 66.393 186.303 66.3087 186.311 66.2252Z" fill="#DD821F"/>
<path d="M31.527 196.03L31.7917 189.584L33.2832 185.808L34.2455 188.935L31.527 196.03Z" fill="#DD821F"/>
<path d="M99.2122 197.257L99.4648 190.931C99.4648 190.931 94.112 196.271 94.112 196.403C94.112 196.535 99.2122 197.257 99.2122 197.257Z" fill="#FFD85A"/>
<path d="M64.9065 216.017C46.226 215.572 31.3947 206.072 31.7917 189.56C32.1886 173.049 47.6574 160.062 66.3379 160.506C85.0184 160.951 99.8497 174.685 99.4527 191.172C99.0558 207.659 83.5869 216.462 64.9065 216.017Z" fill="#FFD85A"/>
<path d="M97.7115 196.09C98.0415 179.592 83.1599 165.915 64.4725 165.541C45.7851 165.168 30.3684 178.239 30.0384 194.736C29.7083 211.234 44.5899 224.911 63.2773 225.285C81.9647 225.658 97.3814 212.587 97.7115 196.09Z" fill="#FFD85A"/>
<path d="M179.07 69.7368L179.299 65.2272C179.297 65.1451 179.312 65.0634 179.342 64.987C179.372 64.9105 179.417 64.8407 179.473 64.7815C179.53 64.7223 179.599 64.6749 179.674 64.642C179.749 64.6092 179.83 64.5914 179.912 64.5898H180.502C180.669 64.5992 180.825 64.6738 180.938 64.7975C181.05 64.9212 181.11 65.0842 181.103 65.2513L180.875 69.7609C180.875 69.9279 180.809 70.0882 180.692 70.2074C180.575 70.3266 180.416 70.3951 180.249 70.3982H179.66C179.577 70.3953 179.496 70.3756 179.421 70.3403C179.346 70.3051 179.279 70.2551 179.224 70.1933C179.169 70.1315 179.127 70.0592 179.1 69.9808C179.074 69.9023 179.064 69.8193 179.07 69.7368Z" fill="#DD821F"/>
<path d="M41.7634 175.382C38.6903 177.913 36.1906 181.068 34.4299 184.638C32.6693 188.208 31.688 192.112 31.5511 196.09C31.1542 212.577 45.9855 226.311 64.6659 226.756C73.3493 227.022 81.8383 224.154 88.5789 218.674L41.7634 175.382Z" fill="#DD821F"/>
<path d="M96.2079 196.06C96.5232 180.299 82.3028 167.233 64.4458 166.876C46.5888 166.519 31.8572 179.006 31.5419 194.767C31.2267 210.527 45.447 223.593 63.304 223.95C81.161 224.307 95.8926 211.82 96.2079 196.06Z" fill="#F9BF30"/>
<path d="M91.3034 197.45C91.606 184.801 80.2329 174.27 65.9009 173.927C51.5689 173.584 39.7052 183.56 39.4027 196.209C39.1001 208.858 50.4732 219.389 64.8052 219.732C79.1372 220.074 91.0008 210.099 91.3034 197.45Z" fill="#F2B42A"/>
<path d="M91.3094 197.461C91.3094 196.932 91.3094 196.415 91.3094 195.898C90.1065 207.791 78.6552 216.955 64.9185 216.618C51.1818 216.282 40.1396 206.649 39.5261 194.623C39.462 195.136 39.4258 195.653 39.4178 196.175C39.1171 208.826 50.4842 219.36 64.8223 219.697C79.1605 220.034 91.0086 210.1 91.3094 197.461Z" fill="#FFD85A"/>
<path d="M70.3435 198.772L65.0268 193.842C59.9026 195.044 50.3398 197.173 42.7137 198.964C43.7629 201.891 45.4279 204.558 47.5964 206.786C49.7649 209.014 52.3862 210.751 55.2836 211.88L70.3435 198.772Z" fill="#FFD85A"/>
<path d="M61.9715 213.624C62.8135 213.732 63.6796 213.792 64.5456 213.816C70.4297 214.016 76.1936 212.12 80.8083 208.465L72.1237 200.419L61.9715 213.624Z" fill="#FFD85A"/>
<path d="M59.3132 188.61L49.2934 179.327C45.9133 182.273 42.9061 185.52 42.0762 189.861L59.3132 188.61Z" fill="#FFD85A"/>
<path d="M64.6178 176.669C78.9439 177.018 90.323 187.552 90.0102 200.191C89.9492 202.698 89.4273 205.172 88.4706 207.491C90.2853 204.453 91.2838 200.998 91.3695 197.461C91.6822 184.81 80.3032 174.276 65.9771 173.939C54.5499 173.662 44.6984 179.952 41.0176 188.923C45.372 181.395 54.3333 176.428 64.6178 176.669Z" fill="#DD821F"/>
<path d="M31.7917 189.584C31.5657 191.759 31.6631 193.956 32.0804 196.102C32.8261 193.697 34.4861 186.482 34.4861 186.482L37.0602 180.734L39.2133 178.966L42.8219 176.32L43.1226 168.022C39.7478 170.547 36.9793 173.793 35.019 177.523C33.0587 181.253 31.9561 185.374 31.7917 189.584Z" fill="#DD821F"/>
<path d="M97.2635 188.731L97.4078 187.035C97.4078 186.92 97.4535 186.81 97.5347 186.729C97.6159 186.648 97.726 186.602 97.8409 186.602H97.9612C98.0749 186.611 98.1808 186.664 98.257 186.749C98.3331 186.834 98.3736 186.945 98.3701 187.059L98.2258 188.755C98.2258 188.867 98.1818 188.976 98.1032 189.057C98.0246 189.137 97.9175 189.184 97.8048 189.188H97.6725C97.5587 189.178 97.4528 189.126 97.3767 189.041C97.3006 188.956 97.2601 188.845 97.2635 188.731Z" fill="#DD821F"/>
<path d="M94.2925 182.225L94.4729 179.17C94.4713 179.106 94.4825 179.042 94.506 178.983C94.5295 178.923 94.5646 178.868 94.6095 178.822C94.6543 178.776 94.7079 178.74 94.7671 178.715C94.8262 178.69 94.8898 178.677 94.954 178.677H95.2547C95.3823 178.689 95.5005 178.75 95.5854 178.846C95.6703 178.942 95.7155 179.066 95.7118 179.194L95.5314 182.249C95.533 182.313 95.5218 182.377 95.4983 182.437C95.4748 182.496 95.4396 182.551 95.3948 182.597C95.35 182.643 95.2964 182.679 95.2372 182.704C95.178 182.729 95.1145 182.742 95.0502 182.742H94.7495C94.6852 182.739 94.6222 182.723 94.5642 182.695C94.5062 182.667 94.4543 182.628 94.4117 182.58C94.369 182.532 94.3366 182.475 94.3161 182.414C94.2956 182.353 94.2876 182.289 94.2925 182.225Z" fill="#DD821F"/>
<path d="M90.1787 176.585L90.3471 173.626C90.3471 173.482 90.4037 173.343 90.5049 173.239C90.6061 173.136 90.7437 173.076 90.8884 173.073H91.4056C91.5513 173.083 91.6878 173.148 91.7864 173.255C91.8851 173.363 91.9383 173.505 91.9349 173.65L91.7544 176.621C91.7545 176.765 91.6979 176.904 91.5967 177.008C91.4955 177.111 91.3578 177.171 91.2131 177.174H90.6959C90.6226 177.171 90.5507 177.153 90.4846 177.122C90.4184 177.09 90.3593 177.045 90.311 176.99C90.2626 176.935 90.2259 176.871 90.2032 176.801C90.1804 176.731 90.1721 176.658 90.1787 176.585Z" fill="#DD821F"/>
<path d="M84.008 171.955L84.1884 168.347C84.1884 168.199 84.2463 168.057 84.3498 167.952C84.4532 167.846 84.5939 167.785 84.7418 167.782H85.259C85.3312 167.785 85.402 167.802 85.4673 167.833C85.5326 167.864 85.5911 167.908 85.6393 167.962C85.6875 168.015 85.7245 168.078 85.748 168.147C85.7715 168.215 85.7811 168.287 85.7762 168.359L85.5838 171.967C85.5871 172.039 85.5754 172.112 85.5496 172.18C85.5237 172.247 85.4842 172.309 85.4334 172.361C85.3826 172.413 85.3217 172.454 85.2545 172.481C85.1872 172.509 85.1151 172.522 85.0425 172.52H84.5252C84.4541 172.517 84.3843 172.5 84.3198 172.47C84.2553 172.44 84.1974 172.397 84.1494 172.345C84.1013 172.292 84.0641 172.231 84.0399 172.164C84.0156 172.097 84.0048 172.026 84.008 171.955Z" fill="#DD821F"/>
<path d="M77.8493 168.948L78.0418 164.811C78.0418 164.665 78.1001 164.524 78.2039 164.42C78.3076 164.317 78.4484 164.258 78.5951 164.258H79.0522C79.1244 164.261 79.1952 164.279 79.2605 164.31C79.3258 164.34 79.3843 164.384 79.4325 164.438C79.4807 164.492 79.5177 164.555 79.5412 164.623C79.5647 164.691 79.5743 164.763 79.5694 164.836L79.377 168.972C79.377 169.119 79.3187 169.26 79.2149 169.364C79.1111 169.467 78.9704 169.526 78.8237 169.526H78.3064C78.1727 169.502 78.0522 169.43 77.9679 169.324C77.8836 169.218 77.8414 169.084 77.8493 168.948Z" fill="#DD821F"/>
<path d="M71.5583 167.108L71.7628 163.128C71.7628 162.983 71.8194 162.844 71.9206 162.741C72.0218 162.638 72.1595 162.578 72.3042 162.575H72.8214C72.9692 162.584 73.1075 162.651 73.2065 162.761C73.3055 162.871 73.3572 163.016 73.3506 163.164L73.1461 167.132C73.1477 167.204 73.1349 167.276 73.1084 167.343C73.082 167.41 73.0423 167.471 72.9919 167.523C72.9415 167.574 72.8813 167.615 72.8148 167.643C72.7483 167.671 72.677 167.686 72.6049 167.686H72.0876C72.0149 167.683 71.9436 167.665 71.8776 167.634C71.8116 167.604 71.7524 167.56 71.7032 167.507C71.6541 167.453 71.616 167.39 71.5911 167.322C71.5663 167.254 71.5551 167.181 71.5583 167.108Z" fill="#DD821F"/>
<path d="M65.3034 166.483L65.4959 162.443C65.4959 162.296 65.5542 162.155 65.658 162.051C65.7617 161.948 65.9024 161.889 66.0492 161.889H66.5664C66.7111 161.899 66.8463 161.964 66.943 162.072C67.0398 162.18 67.0902 162.322 67.0836 162.467L66.8792 166.507C66.8808 166.579 66.868 166.651 66.8415 166.718C66.815 166.785 66.7754 166.846 66.725 166.898C66.6745 166.949 66.6143 166.99 66.5478 167.018C66.4814 167.046 66.41 167.06 66.3379 167.06H65.8206C65.7485 167.057 65.6776 167.04 65.6123 167.009C65.547 166.978 65.4885 166.935 65.4403 166.881C65.3921 166.827 65.3552 166.764 65.3317 166.696C65.3081 166.628 65.2985 166.555 65.3034 166.483Z" fill="#DD821F"/>
<path d="M59.0124 166.615L59.2049 162.827C59.208 162.682 59.2672 162.543 59.3704 162.44C59.4735 162.336 59.6124 162.277 59.7582 162.274H60.2755C60.4212 162.286 60.5564 162.355 60.6529 162.465C60.7493 162.574 60.7994 162.717 60.7927 162.863L60.6002 166.639C60.6018 166.712 60.589 166.783 60.5625 166.85C60.5361 166.917 60.4964 166.978 60.446 167.03C60.3956 167.081 60.3354 167.122 60.2689 167.15C60.2024 167.178 60.131 167.193 60.0589 167.193H59.5417C59.469 167.19 59.3977 167.172 59.3317 167.141C59.2657 167.111 59.2065 167.067 59.1573 167.014C59.1082 166.96 59.0701 166.897 59.0452 166.829C59.0204 166.761 59.0092 166.688 59.0124 166.615Z" fill="#DD821F"/>
<path d="M52.7095 167.986L52.8899 164.379C52.8899 164.232 52.9482 164.091 53.052 163.987C53.1558 163.884 53.2965 163.825 53.4432 163.825H53.9605C54.0327 163.828 54.1035 163.846 54.1688 163.877C54.2342 163.908 54.2926 163.951 54.3408 164.005C54.389 164.059 54.426 164.122 54.4495 164.19C54.473 164.258 54.4826 164.331 54.4777 164.403L54.2853 168.01C54.2854 168.156 54.2291 168.296 54.1283 168.402C54.0274 168.507 53.8897 168.569 53.744 168.576H53.2267C53.1535 168.573 53.0816 168.555 53.0154 168.523C52.9492 168.492 52.8902 168.447 52.8418 168.392C52.7934 168.337 52.7567 168.272 52.734 168.203C52.7113 168.133 52.7029 168.059 52.7095 167.986Z" fill="#DD821F"/>
<path d="M46.3584 171.077L46.5508 167.109C46.5508 166.964 46.6074 166.825 46.7086 166.722C46.8098 166.618 46.9474 166.559 47.0921 166.555H47.6093C47.682 166.559 47.7534 166.576 47.8193 166.607C47.8853 166.637 47.9445 166.681 47.9937 166.734C48.0428 166.788 48.081 166.851 48.1058 166.919C48.1307 166.987 48.1418 167.06 48.1386 167.133L47.9341 171.101C47.9341 171.246 47.8775 171.385 47.7763 171.488C47.6751 171.591 47.5375 171.651 47.3928 171.654H46.8756C46.8034 171.651 46.7326 171.634 46.6673 171.603C46.6019 171.572 46.5434 171.528 46.4952 171.475C46.447 171.421 46.4101 171.358 46.3866 171.29C46.3631 171.221 46.3535 171.149 46.3584 171.077Z" fill="#DD821F"/>
</g>
<defs>
<linearGradient id="paint0_linear_83_559" x1="171.129" y1="232.179" x2="310.362" y2="234.912" gradientUnits="userSpaceOnUse">
<stop stop-color="#5761D7"/>
<stop offset="0.04" stop-color="#5C66D9"/>
<stop offset="0.09" stop-color="#6A73DF"/>
<stop offset="0.14" stop-color="#8289E8"/>
<stop offset="0.19" stop-color="#A3A7F5"/>
<stop offset="0.22" stop-color="#BCBEFF"/>
</linearGradient>
<linearGradient id="paint1_linear_83_559" x1="212.508" y1="160.168" x2="265.923" y2="243.283" gradientUnits="userSpaceOnUse">
<stop stop-color="#C0BFF6"/>
<stop offset="0.29" stop-color="#C5C4F7"/>
<stop offset="0.64" stop-color="#D3D2F9"/>
<stop offset="1" stop-color="#E9E9FD"/>
</linearGradient>
<linearGradient id="paint2_linear_83_559" x1="85.1733" y1="10.3781" x2="230.268" y2="257.857" gradientUnits="userSpaceOnUse">
<stop stop-color="#C0BFF6"/>
<stop offset="0.12" stop-color="#D0CFF9"/>
<stop offset="0.26" stop-color="#E9E9FD"/>
<stop offset="0.51" stop-color="#C0BFF6"/>
<stop offset="0.62" stop-color="#D0CFF9"/>
<stop offset="0.75" stop-color="#E9E9FD"/>
<stop offset="1" stop-color="#C0BFF6"/>
</linearGradient>
<clipPath id="clip0_83_559">
<rect width="326" height="270" fill="white"/>
</clipPath>
</defs>
</svg>
