<svg xmlns="http://www.w3.org/2000/svg" xmlns:xlink="http://www.w3.org/1999/xlink" fill="none" viewBox="0 0 321 300">
    <defs>
      <path id="f" fill="#BCD5FF" d="M79.175 90.424c43.728 0 79.176-20.242 79.176-45.212C158.351 20.242 122.903 0 79.175 0 35.448 0 0 20.242 0 45.212c0 24.97 35.448 45.212 79.175 45.212Z"/>
    </defs>
    <g clip-path="url(#a)">
      <path fill="#242993" d="M79.175 255.494c35.707 0 64.653-16.528 64.653-36.917 0-20.39-28.946-36.918-64.653-36.918-35.706 0-64.652 16.528-64.652 36.918 0 20.389 28.946 36.917 64.652 36.917Z" opacity=".67"/>
      <path fill="url(#b)" d="M158.364 190.738v-17.373h-6.071a54.076 54.076 0 0 0-17.129-14.587c-30.924-17.661-81.053-17.661-111.977 0A54.067 54.067 0 0 0 6.07 173.365H0v17.386c0 11.565 7.738 23.142 23.2 31.96 30.91 17.661 81.053 17.661 111.964 0 15.462-8.818 23.2-20.395 23.2-31.973Z"/>
      <path fill="#BCD5FF" d="M79.175 218.577c43.728 0 79.176-20.242 79.176-45.212 0-24.97-35.448-45.212-79.176-45.212C35.448 128.153 0 148.395 0 173.365c0 24.97 35.448 45.212 79.175 45.212Z"/>
      <path fill="#242993" d="M152.306 172.658v-23.665h-5.608a49.867 49.867 0 0 0-15.872-13.488c-28.557-16.3-74.864-16.3-103.42 0A49.72 49.72 0 0 0 11.6 148.993H5.992v23.665c0 10.675 7.142 21.364 21.414 29.527 28.556 16.3 74.863 16.3 103.42 0 14.338-8.111 21.48-18.799 21.48-29.527Z"/>
      <path fill="#4553C7" d="M152.306 166.994v-23.718h-5.608a50.026 50.026 0 0 0-15.872-13.475c-28.557-16.313-74.864-16.313-103.42 0A49.873 49.873 0 0 0 11.6 143.276H5.992v23.718c0 10.688 7.142 21.376 21.414 29.526 28.556 16.314 74.863 16.314 103.42 0 14.338-8.163 21.48-18.838 21.48-29.526Z" opacity=".51"/>
      <path fill="#BCD5FF" d="M79.175 190.751c40.382 0 73.118-18.696 73.118-41.758 0-23.063-32.736-41.759-73.118-41.759-40.381 0-73.117 18.696-73.117 41.759 0 23.062 32.736 41.758 73.117 41.758Z"/>
      <path fill="#5368D8" d="M129.622 179.723c-12.565 15.829-29.099 24.293-43.172 28.78 16.242-.915 32.062-4.918 44.508-12.022 14.272-8.15 21.414-18.838 21.414-29.526v-7.091a76.453 76.453 0 0 0-22.75 19.859Z" opacity=".51"/>
      <path fill="url(#c)" d="M158.364 148.613V131.24h-6.071a53.929 53.929 0 0 0-17.129-14.6c-30.924-17.66-81.053-17.66-111.977 0a53.86 53.86 0 0 0-17.116 14.6H0v17.373c0 11.565 7.738 23.143 23.2 31.973 30.91 17.648 81.053 17.648 111.964 0 15.462-8.83 23.2-20.408 23.2-31.973Z"/>
      <path fill="#BCD5FF" d="M79.175 176.439c43.728 0 79.176-20.242 79.176-45.212 0-24.97-35.448-45.212-79.176-45.212C35.448 86.015 0 106.257 0 131.227c0 24.97 35.448 45.212 79.175 45.212Z"/>
      <path fill="#242993" d="M152.306 129.696v-23.757h-5.608a49.7 49.7 0 0 0-15.872-13.474c-28.557-16.314-74.864-16.314-103.42 0a49.542 49.542 0 0 0-15.74 13.474H6.058v23.718c0 10.688 7.142 21.376 21.414 29.527 28.556 16.3 74.863 16.3 103.42 0 14.272-8.111 21.414-18.799 21.414-29.488Z"/>
      <path fill="#4553C7" d="M152.306 124.254V100.55h-5.608a50.021 50.021 0 0 0-15.872-13.475c-28.557-16.314-74.864-16.314-103.42 0A49.87 49.87 0 0 0 11.6 100.55H5.992v23.704c0 10.689 7.142 21.377 21.414 29.527 28.556 16.313 74.863 16.313 103.42 0 14.338-8.137 21.48-18.825 21.48-29.527Z" opacity=".51"/>
      <path fill="#BCD5FF" d="M79.175 147.737c40.382 0 73.118-18.696 73.118-41.759 0-23.062-32.736-41.758-73.118-41.758-40.381 0-73.117 18.696-73.117 41.758 0 23.063 32.736 41.759 73.117 41.759Z"/>
      <path fill="#5368D8" d="M129.622 134.485c-15.634 19.688-37.445 27.969-52.907 31.475 19.536.38 39.284-3.65 54.23-12.166 14.271-8.15 21.414-18.838 21.414-29.527v-9.589a76.19 76.19 0 0 0-22.737 19.807Z" opacity=".51"/>
      <path fill="url(#d)" d="M158.364 105.599V88.226h-6.071a53.923 53.923 0 0 0-17.129-14.6c-30.924-17.647-81.053-17.647-111.977 0a53.854 53.854 0 0 0-17.116 14.6H0V105.6c0 11.578 7.738 23.143 23.2 31.973 30.91 17.661 81.053 17.661 111.964 0 15.462-8.83 23.2-20.395 23.2-31.973Z"/>
      <path fill="#BCD5FF" d="M79.175 133.438c43.728 0 79.176-20.242 79.176-45.212 0-24.97-35.448-45.212-79.176-45.212C35.448 43.014 0 63.256 0 88.226c0 24.97 35.448 45.212 79.175 45.212Z"/>
      <path fill="#242993" d="M152.306 86.682V62.964h-5.608a50.026 50.026 0 0 0-15.872-13.474c-28.557-16.314-74.864-16.314-103.42 0A49.874 49.874 0 0 0 11.6 62.964H5.992v23.718c0 10.688 7.142 21.377 21.414 29.527 28.556 16.313 74.863 16.313 103.42 0 14.338-8.15 21.48-18.839 21.48-29.527Z"/>
      <path fill="#4553C7" d="M152.306 80.05V56.332h-5.608a49.85 49.85 0 0 0-15.872-13.475c-28.557-16.313-74.864-16.313-103.42 0A49.542 49.542 0 0 0 11.6 56.332H5.992V80.05c0 10.688 7.142 21.376 21.414 29.526 28.556 16.314 74.863 16.314 103.42 0 14.338-8.15 21.48-18.838 21.48-29.526Z" opacity=".51"/>
      <path fill="#BCD5FF" d="M79.175 104.723c40.382 0 73.118-18.696 73.118-41.759 0-23.062-32.736-41.758-73.118-41.758-40.381 0-73.117 18.696-73.117 41.758 0 23.063 32.736 41.759 73.117 41.759Z"/>
      <path fill="url(#e)" d="M158.364 62.585V45.212h-6.071a54.077 54.077 0 0 0-17.129-14.587c-30.924-17.66-81.053-17.66-111.977 0A53.83 53.83 0 0 0 6.07 45.212H0v17.373c0 11.578 7.738 23.142 23.2 31.973 30.91 17.661 81.053 17.661 111.964 0 15.462-8.818 23.2-20.395 23.2-31.973Z"/>
      <use xlink:href="#f"/>
      <use xlink:href="#f"/>
      <path fill="#5368D8" d="M129.622 89.247c-17.195 21.624-41.796 29.5-57.18 32.378 20.912 1.112 42.498-2.904 58.516-12.049 14.272-8.15 21.414-18.838 21.414-29.526V69.44a76.192 76.192 0 0 0-22.75 19.807Z" opacity=".51"/>
      <path fill="url(#g)" d="M158.364 62.585V45.212h-6.071a54.077 54.077 0 0 0-17.129-14.587c-30.924-17.66-81.053-17.66-111.977 0A53.83 53.83 0 0 0 6.07 45.212H0v17.373c0 11.578 7.738 23.142 23.2 31.973 30.91 17.661 81.053 17.661 111.964 0 15.462-8.818 23.2-20.395 23.2-31.973Z"/>
      <use xlink:href="#f"/>
      <use xlink:href="#f"/>
      <path fill="#fff" d="M135.614 75.85c-30.911 17.661-81.054 17.661-111.965 0C4.71 65.044-2.606 50.118 1.64 36.107c-5.172 14.39 1.997 29.958 21.56 41.117 30.91 17.66 81.053 17.66 111.964 0 11.997-6.842 19.311-15.332 21.996-24.202-3.002 8.333-10.171 16.287-21.546 22.828Z"/>
      <path fill="#fff" d="M135.614 118.825c-30.911 17.661-81.054 17.661-111.965 0C4.71 108.006-2.606 93.079 1.64 79.082c-5.172 14.39 1.997 29.945 21.56 41.117 30.91 17.661 81.053 17.661 111.964 0 11.997-6.842 19.311-15.346 21.996-24.202-3.002 8.359-10.171 16.339-21.546 22.828Z"/>
      <path fill="#fff" d="M135.614 161.839c-30.911 17.648-81.054 17.648-111.965 0C4.71 151.02-2.606 136.094 1.64 122.096c-5.172 14.39 1.997 29.945 21.56 41.104 30.91 17.661 81.053 17.661 111.964 0 11.997-6.855 19.311-15.346 21.996-24.202-3.002 8.372-10.171 16.353-21.546 22.841Z"/>
      <path fill="#fff" d="M135.614 204.84c-30.911 17.661-81.054 17.661-111.965 0C4.71 194.034-2.606 179.108 1.64 165.097c-5.172 14.39 1.997 29.945 21.56 41.117 30.91 17.661 81.053 17.661 111.964 0 11.997-6.842 19.311-15.332 21.996-24.202-3.002 8.372-10.171 16.34-21.546 22.828Z"/>
      <path fill="url(#h)" d="M7.301 64.194h71.874v-41.98H10.94C-2.301 35.085-3.518 50.836 7.3 64.193Z" opacity=".78"/>
      <path fill="url(#i)" d="M119.834 40.986v-8.922h-3.121a27.843 27.843 0 0 0-8.783-7.496c-15.872-9.066-41.624-9.066-57.496 0a27.84 27.84 0 0 0-8.783 7.496h-3.122v8.922c0 5.94 3.969 11.879 11.905 16.418 15.872 9.066 41.611 9.066 57.496 0 7.936-4.54 11.904-10.478 11.904-16.418Z"/>
      <path fill="#BCD5FF" d="M79.175 55.272c22.456 0 40.659-10.39 40.659-23.208 0-12.817-18.203-23.207-40.659-23.207-22.455 0-40.659 10.39-40.659 23.207 0 12.818 18.204 23.208 40.66 23.208Z"/>
      <path fill="url(#j)" d="M79.175 55.272c22.456 0 40.659-10.39 40.659-23.208 0-12.817-18.203-23.207-40.659-23.207-22.455 0-40.659 10.39-40.659 23.207 0 12.818 18.204 23.208 40.66 23.208Z"/>
      <path fill="#242993" d="M98.54 43.145c-10.688 6.11-28.028 6.11-38.715 0a17.113 17.113 0 0 1-6.892-6.541c-2.75-5.325 4.14-9.157 11.494-13.37 10.688-6.11 18.267-7.627 28.967-1.518 7.341 4.2 14.788 9.563 12.036 14.875a17.106 17.106 0 0 1-6.89 6.554Z"/>
      <path fill="url(#k)" d="M59.825 29.932c10.687-6.096 28.027-6.096 38.714 0a17.113 17.113 0 0 1 6.878 6.541c2.765-5.311.476-11.316-6.878-15.515-10.687-6.097-28.027-6.097-38.714 0-7.355 4.2-9.643 10.204-6.878 15.515a16.968 16.968 0 0 1 6.878-6.54Z"/>
      <path fill="#677EEA" d="M123.75 111.172c-5.291 2.08-9.259 1.518-8.902-1.308.357-2.826 5.092-6.698 10.423-8.778 5.33-2.08 9.258-1.518 8.901 1.308-.357 2.826-5.092 6.724-10.422 8.778Zm0 43.655c-5.291 2.08-9.259 1.518-8.902-1.308.357-2.826 5.092-6.698 10.423-8.778 5.33-2.08 9.258-1.518 8.901 1.308-.357 2.826-5.092 6.698-10.422 8.778Zm.291 43.904c-5.291 2.08-9.259 1.518-8.889-1.308.37-2.826 5.079-6.711 10.41-8.791 5.33-2.08 9.258-1.505 8.901 1.308-.357 2.812-5.079 6.724-10.422 8.791Zm14.906-98.482a2.227 2.227 0 0 1-2.287-.46 2.167 2.167 0 0 1 .068-3.238 2.231 2.231 0 0 1 2.304-.364c.38.159.708.419.947.752.293.577.35 1.243.158 1.86a2.51 2.51 0 0 1-1.19 1.45Zm0 43.825a2.218 2.218 0 0 1-2.287-.459 2.167 2.167 0 0 1 .068-3.238 2.227 2.227 0 0 1 3.251.387c.293.577.35 1.243.158 1.86a2.509 2.509 0 0 1-1.19 1.45Zm0 43.668a2.214 2.214 0 0 1-1.785.827 2.211 2.211 0 0 1-1.742-.911 2.17 2.17 0 0 1 1.054-3.33 2.22 2.22 0 0 1 3.527.084 2.17 2.17 0 0 1 .312 1.925 2.177 2.177 0 0 1-.516.861c-.237.244-.528.43-.85.544Z" opacity=".51"/>
      <path fill="url(#l)" d="M245.819 109.354a60.495 60.495 0 0 0-14.946 12.467c-6.27-19.898-25.382-26.073-47.987-13.161-18.702 10.675-35.011 31.685-43.648 53.951a20.488 20.488 0 0 0-9.404 2.944c-12.209 6.972-22.102 23.914-22.102 37.859v.864a27.13 27.13 0 0 0-11.375 3.768c-15.62 8.922-28.279 30.599-28.279 48.403 0 17.805 12.658 25.053 28.279 16.144l149.462-85.322c18.848-10.767 34.125-36.931 34.125-58.451 0-21.52-15.277-30.22-34.125-19.466Z"/>
      <path fill="url(#m)" d="M245.819 109.354a55.344 55.344 0 0 0-8.981 6.541l-16.705-9.55c-9.18-6.384-22.486-6.096-37.247 2.342-18.702 10.675-35.011 31.685-43.648 53.95a20.488 20.488 0 0 0-9.404 2.944c-12.209 6.973-22.102 23.914-22.102 37.86v.863a27.144 27.144 0 0 0-11.375 3.768c-15.62 8.922-28.279 30.599-28.279 48.404 0 8.83 3.122 15.057 8.161 18.014l.119.078 40.924 23.548 8.941-42.53 119.53-68.25c18.848-10.766 34.125-36.93 34.125-58.451 0-21.52-15.211-30.285-34.059-19.531Z"/>
      <path fill="url(#n)" d="m311.596 130.926-41.466-23.822c-6.19-3.637-14.788-3.179-24.311 2.25a55.344 55.344 0 0 0-8.981 6.541l-16.705-9.55c-9.18-6.384-22.486-6.096-37.247 2.342-18.702 10.675-35.011 31.685-43.648 53.95a20.488 20.488 0 0 0-9.404 2.944c-12.209 6.973-22.102 23.914-22.102 37.86v.863a27.144 27.144 0 0 0-11.375 3.768c-15.62 8.922-28.279 30.599-28.279 48.404 0 8.83 3.122 15.057 8.161 18.014l.119.078 40.924 23.548 8.941-42.53 119.53-68.25c15.277-8.725 28.199-27.577 32.551-45.866l33.292-10.544Z"/>
      <path fill="url(#o)" d="M286.875 132.928a60.476 60.476 0 0 0-14.946 12.467c-6.27-19.898-25.382-26.073-47.987-13.161-18.703 10.675-35.011 31.685-43.648 53.938a20.34 20.34 0 0 0-9.404 2.957c-12.209 6.959-22.102 23.914-22.102 37.859v.864a26.785 26.785 0 0 0-11.375 3.767c-15.621 8.909-28.279 30.6-28.279 48.404 0 17.805 12.658 25.053 28.279 16.131l149.462-85.322C305.723 200.078 321 173.901 321 152.381c0-21.52-15.277-30.22-34.125-19.453Z"/>
      <path fill="#fff" d="M271.929 145.395a60.476 60.476 0 0 1 14.946-12.467c11.534-6.541 21.732-5.861 27.908.628-6.044-7.509-16.718-8.687-28.887-1.74a60.302 60.302 0 0 0-14.549 11.996c.225.523.41 1.047.582 1.583ZM109.187 280.05c0-17.831 12.658-39.522 28.279-48.404a26.773 26.773 0 0 1 11.375-3.768v-.863c0-13.946 9.893-30.9 22.102-37.86a20.352 20.352 0 0 1 9.404-2.957c8.624-22.239 24.932-43.262 43.648-53.938 17.195-9.785 32.247-8.608 41.294 1.191-8.915-10.806-24.509-12.454-42.326-2.302-18.702 10.675-34.998 31.684-43.648 53.937a20.345 20.345 0 0 0-9.417 2.957c-12.209 6.96-22.102 23.914-22.102 37.86v.863a26.832 26.832 0 0 0-11.375 3.768c-15.621 8.909-28.266 30.599-28.266 48.404 0 6.999 1.971 12.336 5.291 15.698-2.659-3.375-4.259-8.307-4.259-14.586Z"/>
    </g>
    <defs>
      <linearGradient id="b" x1="0" x2="158.364" y1="190.751" y2="190.751" gradientUnits="userSpaceOnUse">
        <stop stop-color="#5778FF"/>
        <stop offset=".18" stop-color="#5C7DFF"/>
        <stop offset=".39" stop-color="#6A8AFF"/>
        <stop offset=".61" stop-color="#82A0FF"/>
        <stop offset=".85" stop-color="#A3BEFF"/>
        <stop offset="1" stop-color="#BCD5FF"/>
      </linearGradient>
      <linearGradient id="c" x1="0" x2="158.364" y1="148.613" y2="148.613" gradientUnits="userSpaceOnUse">
        <stop stop-color="#5778FF"/>
        <stop offset=".18" stop-color="#5C7DFF"/>
        <stop offset=".39" stop-color="#6A8AFF"/>
        <stop offset=".61" stop-color="#82A0FF"/>
        <stop offset=".85" stop-color="#A3BEFF"/>
        <stop offset="1" stop-color="#BCD5FF"/>
      </linearGradient>
      <linearGradient id="d" x1="0" x2="158.364" y1="105.599" y2="105.599" gradientUnits="userSpaceOnUse">
        <stop stop-color="#5778FF"/>
        <stop offset=".18" stop-color="#5C7DFF"/>
        <stop offset=".39" stop-color="#6A8AFF"/>
        <stop offset=".61" stop-color="#82A0FF"/>
        <stop offset=".85" stop-color="#A3BEFF"/>
        <stop offset="1" stop-color="#BCD5FF"/>
      </linearGradient>
      <linearGradient id="e" x1="0" x2="158.364" y1="62.585" y2="62.585" gradientUnits="userSpaceOnUse">
        <stop stop-color="#5778FF"/>
        <stop offset=".18" stop-color="#5C7DFF"/>
        <stop offset=".39" stop-color="#6A8AFF"/>
        <stop offset=".61" stop-color="#82A0FF"/>
        <stop offset=".85" stop-color="#A3BEFF"/>
        <stop offset="1" stop-color="#BCD5FF"/>
      </linearGradient>
      <linearGradient id="g" x1="0" x2="158.364" y1="62.585" y2="62.585" gradientUnits="userSpaceOnUse">
        <stop stop-color="#5778FF"/>
        <stop offset=".18" stop-color="#5C7DFF"/>
        <stop offset=".39" stop-color="#6A8AFF"/>
        <stop offset=".61" stop-color="#82A0FF"/>
        <stop offset=".85" stop-color="#A3BEFF"/>
        <stop offset="1" stop-color="#BCD5FF"/>
      </linearGradient>
      <linearGradient id="h" x1="0" x2="79.175" y1="43.236" y2="43.236" gradientUnits="userSpaceOnUse">
        <stop stop-color="#E9FFFF"/>
        <stop offset=".04" stop-color="#D3EBFF"/>
        <stop offset=".11" stop-color="#B2CCFF"/>
        <stop offset=".18" stop-color="#96B2FF"/>
        <stop offset=".27" stop-color="#7F9DFF"/>
        <stop offset=".36" stop-color="#6D8CFF"/>
        <stop offset=".48" stop-color="#6081FF"/>
        <stop offset=".64" stop-color="#597AFF"/>
        <stop offset="1" stop-color="#5778FF"/>
      </linearGradient>
      <linearGradient id="i" x1="38.529" x2="119.834" y1="40.986" y2="40.986" gradientUnits="userSpaceOnUse">
        <stop stop-color="#5778FF"/>
        <stop offset=".18" stop-color="#5C7DFF"/>
        <stop offset=".39" stop-color="#6A8AFF"/>
        <stop offset=".61" stop-color="#82A0FF"/>
        <stop offset=".85" stop-color="#A3BEFF"/>
        <stop offset="1" stop-color="#BCD5FF"/>
      </linearGradient>
      <linearGradient id="j" x1="38.529" x2="119.834" y1="32.064" y2="32.064" gradientUnits="userSpaceOnUse">
        <stop stop-color="#C0D6FF"/>
        <stop offset=".3" stop-color="#C5DBFF"/>
        <stop offset=".65" stop-color="#D3E9FF"/>
        <stop offset="1" stop-color="#E9FFFF"/>
      </linearGradient>
      <linearGradient id="k" x1="51.809" x2="106.555" y1="26.478" y2="26.478" gradientUnits="userSpaceOnUse">
        <stop stop-color="#BCD5FF"/>
        <stop offset=".15" stop-color="#A3BEFF"/>
        <stop offset=".39" stop-color="#82A0FF"/>
        <stop offset=".61" stop-color="#6A8AFF"/>
        <stop offset=".82" stop-color="#5C7DFF"/>
        <stop offset="1" stop-color="#5778FF"/>
      </linearGradient>
      <linearGradient id="l" x1="69.817" x2="282.599" y1="231.438" y2="231.438" gradientUnits="userSpaceOnUse">
        <stop stop-color="#5778FF"/>
        <stop offset=".18" stop-color="#5C7DFF"/>
        <stop offset=".39" stop-color="#6A8AFF"/>
        <stop offset=".61" stop-color="#82A0FF"/>
        <stop offset=".85" stop-color="#A3BEFF"/>
        <stop offset="1" stop-color="#BCD5FF"/>
      </linearGradient>
      <linearGradient id="n" x1="68.131" x2="311.596" y1="199.987" y2="199.987" gradientUnits="userSpaceOnUse">
        <stop stop-color="#5778FF"/>
        <stop offset=".18" stop-color="#5C7DFF"/>
        <stop offset=".39" stop-color="#6A8AFF"/>
        <stop offset=".61" stop-color="#82A0FF"/>
        <stop offset=".85" stop-color="#A3BEFF"/>
        <stop offset="1" stop-color="#BCD5FF"/>
      </linearGradient>
      <linearGradient id="o" x1="111.071" x2="323.852" y1="254.807" y2="254.807" gradientUnits="userSpaceOnUse">
        <stop stop-color="#C0D6FF"/>
        <stop offset=".3" stop-color="#C5DBFF"/>
        <stop offset=".65" stop-color="#D3E9FF"/>
        <stop offset="1" stop-color="#E9FFFF"/>
      </linearGradient>
      <radialGradient id="m" cx="0" cy="0" r="1" gradientTransform="matrix(101.039 0 0 99.9346 117.916 168.59)" gradientUnits="userSpaceOnUse">
        <stop stop-color="#2B3AA5"/>
        <stop offset="1" stop-color="#182484"/>
      </radialGradient>
      <clipPath id="a">
        <path fill="#fff" d="M0 0h321v300H0z"/>
      </clipPath>
    </defs>
  </svg>