<svg xmlns="http://www.w3.org/2000/svg" fill="none" viewBox="0 0 242 210"><g clip-path="url(#a)"><path fill="#fff" d="m211.553 166.93-3.796-2.185.832-.481 3.796 2.191-.832.475Zm3.244 1.87-1.901-1.096.832-.475 1.894 1.096-.825.475Zm-4.062-.105-1.621-.928.831-.482 1.615.935-.825.475Zm2.713 1.563-1.902-1.095.825-.475 1.902 1.096-.825.474Zm1.188 2.924-7.459-4.299.825-.474 7.459 4.299-.825.474Zm-21.295 8.514-7.459-4.299.825-.481 7.459 4.305-.825.475Zm2.867 1.654-1.895-1.096.825-.475 1.902 1.096-.832.475Zm10.64-12.415-1.615-.935.825-.475 1.622.935-.832.475Zm2.713 1.563-1.902-1.095.832-.475 1.902 1.089-.832.481Zm-2.167.984-4.104-2.359.832-.481 4.097 2.366-.825.474Zm2.747 1.584-1.901-1.088.831-.482 1.895 1.096-.825.474Zm2.762 1.591-1.902-1.088.825-.482 1.902 1.096-.825.474Zm4.453 2.568-3.593-2.072.825-.475 3.593 2.073-.825.474Zm-6.04.998-1.895-1.095.825-.475 1.902 1.096-.832.474Zm4.453 2.568-3.586-2.072.825-.475 3.593 2.066-.832.481Zm-14.465-8.339-1.894-1.095.825-.475 1.901 1.096-.832.474Zm2.762 1.591-1.895-1.095.825-.475 1.902 1.096-.832.474Zm4.453 2.568-3.593-2.072.832-.475 3.593 2.073-.832.474Zm7.439 2.045-1.902-1.096.832-.474 1.895 1.095-.825.475Zm2.761 1.591-1.901-1.089.825-.481 1.901 1.095-.825.475Zm-19.54 2.812-1.895-1.088.825-.482 1.902 1.096-.832.474Zm4.46 2.568-3.593-2.072.825-.475 3.593 2.073-.825.474Zm-6.215-10.935-1.901-1.095.832-.475 1.894 1.096-.825.474Zm4.454 2.568-3.594-2.072.832-.475 3.587 2.066-.825.481Zm-2.224 8.311-1.901-1.095.832-.475 1.894 1.096-.825.474Zm4.454 2.569-3.594-2.073.832-.475 3.587 2.073-.825.475Zm16.205-13.685-1.901-1.096.832-.474 1.894 1.095-.825.475Zm-2.873-1.654-1.895-1.096.825-.474 1.902 1.096-.832.474Zm7.327 4.222-3.594-2.073.832-.474 3.594 2.072-.832.475Zm-21.708-5.792-1.713-.991.832-.474 1.713.983-.832.482Zm5.083 2.924-4.167-2.401.832-.474 4.167 2.4-.832.475Zm5.082 2.931-4.167-2.401.832-.481 4.16 2.4-.825.482Zm-11.556-2.184-4.167-2.401.832-.481 4.16 2.4-.825.482Zm2.195 1.263-1.279-.74.825-.475 1.279.74-.825.475Zm2.202 1.27-1.279-.74.825-.475 1.279.733-.825.482Zm4.062 2.345-3.146-1.815.832-.481 3.146 1.814-.832.482Z"/><path fill="#fff" d="m210.987 182.268-3.146-1.814.825-.475 3.146 1.814-.825.475Zm8.494-1.814-1.279-.74.825-.475 1.279.733-.825.482Zm-30.083 3.447-4.103-2.366.832-.474 4.096 2.358-.825.482Zm2.748 1.584-1.902-1.096.832-.481 1.895 1.095-.825.482Zm2.761 1.584-1.901-1.089.825-.481 1.901 1.096-.825.474Zm4.454 2.568-3.594-2.066.825-.481 3.594 2.073-.825.474Zm-6.132.949-1.901-1.095.832-.482 1.894 1.096-.825.481Zm4.454 2.568-3.594-2.072.832-.482 3.594 2.073-.832.481Zm-14.374-8.283-1.895-1.096.825-.481 1.902 1.095-.832.482Zm2.762 1.584-1.902-1.089.832-.481 1.895 1.095-.825.475Zm4.453 2.568-3.594-2.066.832-.481 3.594 2.073-.832.474Zm-5.46-5.38-1.713-.991.832-.475 1.713.984-.832.482Zm5.082 2.924-4.166-2.394.832-.481 4.166 2.4-.832.475Zm5.083 2.931-4.167-2.401.832-.475 4.16 2.401-.825.475Zm-14.919-4.118-4.16-2.4.825-.482 4.167 2.401-.832.481Zm2.195 1.263-1.279-.739.832-.475 1.279.733-.832.481Zm2.202 1.263-1.279-.732.832-.475 1.272.733-.825.474Zm4.069 2.345-3.146-1.807.825-.482 3.146 1.815-.825.474Z"/><path fill="#fff" d="m189.629 190.747-3.146-1.815.832-.474 3.146 1.814-.832.475Zm-1.056-9.561-1.279-.739.832-.475 1.279.74-.832.474Zm4.069 2.345-3.146-1.814.825-.475 3.146 1.815-.825.474Zm4.153 2.394-3.146-1.815.832-.474 3.146 1.814-.832.475Zm-5.194-10.349-1.28-.74.825-.475 1.28.733-.825.482Zm4.061 2.344-3.146-1.814.832-.481 3.146 1.814-.832.481Zm4.16 2.394-3.146-1.814.825-.482 3.146 1.814-.825.482Z"/><path fill="#fff" d="m171.081 88.409-33.117-19.086 44.772-25.8 33.11 19.087-44.765 25.799Z" opacity=".1"/><path fill="#fff" d="M74.987 129.595c-9.046 0-18.093-1.982-24.979-5.952-6.69-3.859-10.382-8.995-10.382-14.466 0-5.472 3.692-10.608 10.382-14.467 13.773-7.941 36.186-7.934 49.959 0 6.698 3.86 10.382 8.995 10.382 14.467 0 5.471-3.684 10.607-10.382 14.466-6.886 3.97-15.933 5.952-24.98 5.952Zm0-40.6c-9.004 0-18.002 1.975-24.86 5.925-6.614 3.817-10.256 8.876-10.256 14.257 0 5.38 3.642 10.467 10.263 14.256 13.703 7.9 36.004 7.9 49.714 0 6.621-3.817 10.263-8.876 10.263-14.256 0-5.381-3.649-10.44-10.277-14.278-6.837-3.929-15.842-5.904-24.847-5.904Z"/><path fill="#fff" d="M156.232 69.69 96.6 101.512l.116.216 59.631-31.822-.115-.216Z"/><path fill="#031450" d="M61.005 93.405c7.725-4.445 20.275-4.445 27.965 0a15.285 15.285 0 0 1 3.146 2.366c4.37-4.361 3.328-10.028-3.146-13.761-7.69-4.446-20.24-4.446-27.965 0-6.467 3.733-7.515 9.4-3.139 13.754a15.458 15.458 0 0 1 3.14-2.359Z"/><path fill="url(#b)" d="M104.805 90.126a27.658 27.658 0 0 0-5.069-3.692 41.711 41.711 0 0 0-10.34-4.117c7.201 4.557 6.992 11.612-.657 16.015-7.872 4.536-20.624 4.536-28.496 0-7.383-4.25-7.837-10.984-1.398-15.54a40.708 40.708 0 0 0-8.627 3.642 27.604 27.604 0 0 0-5.062 3.692H39.99v10.572c0 5.164 3.418 10.321 10.249 14.264 13.668 7.871 35.83 7.871 49.497 0 6.838-3.943 10.256-9.072 10.256-14.264V90.126h-5.187Z"/><path fill="#0F054C" d="M99.736 86.434a41.713 41.713 0 0 0-10.34-4.117c7.201 4.557 6.992 11.612-.657 16.015-3.81 2.198-8.76 3.329-13.752 3.399v19.134c8.956 0 17.919-1.968 24.75-5.903 6.83-3.936 10.255-9.072 10.255-14.264V90.126h-5.187a27.66 27.66 0 0 0-5.069-3.692Z" opacity=".3"/><path fill="#0D3180" d="M99.736 86.434a41.713 41.713 0 0 0-10.34-4.117c7.201 4.557 6.992 11.612-.657 16.015-3.81 2.198-8.76 3.329-13.752 3.399v19.134c8.956 0 17.919-1.968 24.75-5.903 6.83-3.936 10.255-9.072 10.255-14.264V90.126h-5.187a27.66 27.66 0 0 0-5.069-3.692Z" opacity=".5" style="mix-blend-mode:lighten"/><path fill="#031450" d="M99.736 76.755c-13.667-7.879-35.83-7.879-49.497 0-13.668 7.879-13.668 20.649 0 28.521 13.668 7.871 35.83 7.878 49.497 0 13.668-7.879 13.668-20.663 0-28.521Zm-10.745 22.47c-7.872 4.536-20.631 4.536-28.496 0-7.865-4.536-7.872-11.863 0-16.42 7.872-4.557 20.624-4.536 28.489 0 7.865 4.536 7.872 11.863.007 16.4v.02Z"/><path fill="#fff" d="M99.736 104.166c-13.668 7.879-35.83 7.879-49.497 0-6.593-3.796-10.005-8.737-10.235-13.72-.252 5.346 3.16 10.733 10.235 14.809 13.667 7.878 35.83 7.878 49.497 0 7.075-4.076 10.487-9.463 10.242-14.801-.237 4.975-3.649 9.916-10.242 13.712Z"/><path fill="#fff" d="M88.984 81.696c-7.865-4.536-20.624-4.536-28.49 0-4.194 2.407-6.138 5.582-5.879 8.758.224-2.792 2.181-5.541 5.88-7.677 7.865-4.536 20.624-4.536 28.489 0 3.698 2.129 5.656 4.885 5.88 7.677.258-3.155-1.7-6.35-5.88-8.758Z"/><path fill="url(#c)" d="M98.15 76.755c-12.725-7.327-33.349-7.327-46.073 0-12.724 7.327-12.724 19.225 0 26.553 12.724 7.327 33.348 7.334 46.072 0 12.724-7.335 12.724-19.254 0-26.553Zm-9.278 21.207c-7.6 4.383-19.918 4.383-27.517 0-7.6-4.382-7.6-11.48 0-15.855s19.918-4.382 27.517 0c7.6 4.383 7.6 11.445 0 15.82v.035Z"/><path fill="#fff" d="M104.805 80.419a27.656 27.656 0 0 0-5.069-3.685 41.717 41.717 0 0 0-10.34-4.124c7.201 4.557 6.992 11.619-.657 16.05-7.872 4.536-20.624 4.536-28.496 0-7.383-4.25-7.837-10.984-1.398-15.548a40.72 40.72 0 0 0-8.606 3.643 27.585 27.585 0 0 0-5.062 3.685H39.99v10.579c0 5.157 3.418 10.321 10.249 14.257 13.668 7.878 35.83 7.878 49.497 0 6.838-3.936 10.256-9.072 10.256-14.257v-10.6h-5.187Z" opacity=".4"/><path fill="#031450" d="M61.005 77.544c7.725-4.453 20.275-4.453 27.965 0a15.523 15.523 0 0 1 3.146 2.358c4.37-4.354 3.328-10.02-3.146-13.754-7.69-4.445-20.24-4.452-27.965 0-6.467 3.733-7.515 9.4-3.139 13.754a15.458 15.458 0 0 1 3.14-2.358Z"/><path fill="url(#d)" d="M104.805 74.264a27.658 27.658 0 0 0-5.069-3.692 41.992 41.992 0 0 0-10.34-4.124c7.201 4.564 6.992 11.619-.657 16.05-7.872 4.536-20.624 4.536-28.496 0-7.383-4.25-7.837-10.984-1.398-15.54a40.713 40.713 0 0 0-8.627 3.642 27.604 27.604 0 0 0-5.062 3.692H39.99v10.572c0 5.157 3.418 10.32 10.249 14.264 13.668 7.871 35.83 7.871 49.497 0 6.838-3.943 10.256-9.072 10.256-14.264v-10.6h-5.187Z"/><path fill="#0F054C" d="M99.736 70.572a41.992 41.992 0 0 0-10.34-4.124c7.201 4.564 6.992 11.619-.657 16.05-3.81 2.198-8.76 3.329-13.752 3.399v19.134c8.956 0 17.919-1.968 24.75-5.903 6.83-3.936 10.255-9.072 10.255-14.264v-10.6h-5.187a27.66 27.66 0 0 0-5.069-3.692Z" opacity=".3"/><path fill="#0D3180" d="M99.736 70.572a41.992 41.992 0 0 0-10.34-4.124c7.201 4.564 6.992 11.619-.657 16.05-3.81 2.198-8.76 3.329-13.752 3.399v19.134c8.956 0 17.919-1.968 24.75-5.903 6.83-3.936 10.255-9.072 10.255-14.264v-10.6h-5.187a27.66 27.66 0 0 0-5.069-3.692Z" opacity=".5" style="mix-blend-mode:lighten"/><path fill="#031450" d="M99.736 60.872c-13.667-7.878-35.83-7.878-49.497 0-13.668 7.879-13.668 20.642 0 28.52 13.668 7.88 35.83 7.88 49.497 0 13.668-7.878 13.668-20.648 0-28.52Zm-10.745 22.47c-7.872 4.537-20.631 4.537-28.496 0-7.865-4.535-7.872-11.863 0-16.42 7.872-4.556 20.624-4.535 28.489 0 7.865 4.537 7.872 11.885.007 16.42Z"/><path fill="#fff" d="M99.736 88.304c-13.668 7.879-35.83 7.879-49.497 0-6.593-3.796-10.005-8.737-10.235-13.72-.252 5.346 3.16 10.733 10.235 14.809 13.667 7.878 35.83 7.878 49.497 0 7.075-4.076 10.487-9.463 10.242-14.801-.237 4.954-3.649 9.916-10.242 13.712Zm-10.752-22.47c-7.865-4.536-20.624-4.536-28.49 0-4.194 2.407-6.138 5.582-5.879 8.75.224-2.79 2.181-5.533 5.88-7.675 7.865-4.536 20.624-4.536 28.489 0 3.698 2.093 5.656 4.884 5.88 7.676.258-3.147-1.7-6.344-5.88-8.751Z"/><path fill="url(#e)" d="M98.15 60.858c-12.725-7.327-33.349-7.327-46.073 0-12.724 7.328-12.724 19.226 0 26.553 12.724 7.327 33.348 7.334 46.072 0 12.724-7.334 12.724-19.219 0-26.553Zm-9.278 21.208c-7.6 4.382-19.918 4.382-27.517 0-7.6-4.383-7.6-11.48 0-15.862 7.6-4.383 19.918-4.376 27.517 0 7.6 4.375 7.6 11.486 0 15.862Z"/><path fill="#fff" d="M104.805 64.557a27.655 27.655 0 0 0-5.069-3.685 41.718 41.718 0 0 0-10.34-4.124c7.201 4.557 6.992 11.619-.657 16.05-7.872 4.536-20.624 4.536-28.496 0-7.383-4.25-7.837-10.984-1.398-15.547a40.718 40.718 0 0 0-8.627 3.65 27.58 27.58 0 0 0-5.062 3.684H39.99v10.579c0 5.157 3.418 10.321 10.249 14.257 13.668 7.878 35.83 7.878 49.497 0 6.838-3.936 10.256-9.072 10.256-14.257V64.557h-5.187Z" opacity=".4"/><path fill="#031450" d="M61.005 61.682c7.725-4.453 20.275-4.453 27.965 0a15.263 15.263 0 0 1 3.146 2.358c4.37-4.354 3.328-10.028-3.146-13.754-7.69-4.452-20.24-4.452-27.965 0-6.467 3.727-7.515 9.4-3.139 13.754a14.973 14.973 0 0 1 3.14-2.358Z"/><path fill="url(#f)" d="M104.805 58.402a27.658 27.658 0 0 0-5.069-3.692 41.992 41.992 0 0 0-10.34-4.124c7.201 4.557 6.992 11.62-.657 16.05-7.872 4.536-20.624 4.536-28.496 0-7.383-4.25-7.837-10.983-1.398-15.54a40.708 40.708 0 0 0-8.627 3.642 27.266 27.266 0 0 0-5.062 3.692H39.99v10.572c0 5.157 3.418 10.321 10.249 14.257 13.668 7.879 35.83 7.879 49.497 0 6.838-3.936 10.256-9.072 10.256-14.257v-10.6h-5.187Z"/><path fill="#0D3180" d="M99.736 54.71a41.992 41.992 0 0 0-10.34-4.124c7.201 4.557 6.992 11.62-.657 16.05-3.81 2.199-8.76 3.322-13.752 3.399V89.17c8.956 0 17.919-1.968 24.75-5.911 6.83-3.943 10.255-9.072 10.255-14.257v-10.6h-5.187a27.66 27.66 0 0 0-5.069-3.692Z" opacity=".3"/><path fill="#031450" d="M99.736 45.01c-13.667-7.878-35.83-7.878-49.497 0-13.668 7.88-13.668 20.65 0 28.528 13.668 7.879 35.83 7.879 49.497 0 13.668-7.879 13.668-20.656 0-28.527ZM88.991 67.48c-7.872 4.537-20.631 4.537-28.496 0-7.865-4.535-7.872-11.862 0-16.42 7.872-4.556 20.624-4.535 28.489 0 7.865 4.537 7.872 11.885.007 16.42Z"/><path fill="#fff" d="M99.736 72.442c-13.668 7.879-35.83 7.879-49.497 0-6.593-3.796-10.005-8.736-10.235-13.72-.252 5.346 3.16 10.734 10.235 14.809 13.667 7.879 35.83 7.879 49.497 0 7.075-4.075 10.487-9.463 10.242-14.808-.237 4.983-3.649 9.923-10.242 13.72Z"/><path fill="#fff" d="M88.984 49.972c-7.865-4.536-20.624-4.536-28.49 0-4.194 2.4-6.138 5.583-5.879 8.75.224-2.79 2.181-5.533 5.88-7.675 7.865-4.536 20.624-4.536 28.489 0 3.698 2.093 5.656 4.885 5.88 7.676.258-3.147-1.7-6.343-5.88-8.751Z"/><path fill="url(#g)" d="M98.15 44.996c-12.725-7.334-33.349-7.334-46.073 0-12.724 7.335-12.724 19.219 0 26.553s33.348 7.334 46.072 0c12.724-7.334 12.724-19.218 0-26.553Zm-9.278 21.208c-7.6 4.382-19.918 4.382-27.517 0-7.6-4.383-7.6-11.48 0-15.862s19.918-4.375 27.517 0c7.6 4.375 7.6 11.486 0 15.862Z"/><path fill="#fff" d="M104.805 48.695a27.66 27.66 0 0 0-5.069-3.685 41.721 41.721 0 0 0-10.34-4.124c7.201 4.557 6.992 11.62-.657 16.05-7.872 4.536-20.624 4.536-28.496 0-7.383-4.256-7.837-10.983-1.398-15.547a40.708 40.708 0 0 0-8.627 3.642 27.608 27.608 0 0 0-5.062 3.692H39.99v10.572c0 5.164 3.418 10.328 10.249 14.264 13.668 7.879 35.83 7.879 49.497 0 6.838-3.936 10.256-9.072 10.256-14.264v-10.6h-5.187Z" opacity=".4"/><path fill="#031450" d="M61.005 45.82c7.725-4.452 20.275-4.452 27.965 0a15.022 15.022 0 0 1 3.146 2.359c4.37-4.355 3.328-10.028-3.146-13.755-7.69-4.452-20.24-4.452-27.965 0-6.467 3.727-7.515 9.4-3.139 13.755a14.973 14.973 0 0 1 3.14-2.359Z"/><path fill="url(#h)" d="M104.805 42.561a27.656 27.656 0 0 0-5.069-3.685 41.721 41.721 0 0 0-10.34-4.124c7.201 4.557 6.992 11.62-.657 16.05-7.872 4.536-20.624 4.536-28.496 0-7.383-4.25-7.837-10.983-1.398-15.547a40.729 40.729 0 0 0-8.627 3.65 27.59 27.59 0 0 0-5.04 3.656H39.99v10.551c0 5.157 3.418 10.321 10.249 14.257 13.668 7.879 35.83 7.879 49.497 0 6.838-3.936 10.256-9.072 10.256-14.257V42.561h-5.187Z"/><path fill="url(#i)" d="M104.805 42.561a27.656 27.656 0 0 0-5.069-3.685 41.721 41.721 0 0 0-10.34-4.124c7.201 4.557 6.992 11.62-.657 16.05-7.872 4.536-20.624 4.536-28.496 0-7.383-4.25-7.837-10.983-1.398-15.547a40.729 40.729 0 0 0-8.627 3.65 27.59 27.59 0 0 0-5.04 3.656H39.99v10.551c0 5.157 3.418 10.321 10.249 14.257 13.668 7.879 35.83 7.879 49.497 0 6.838-3.936 10.256-9.072 10.256-14.257V42.561h-5.187Z"/><path fill="#0F054C" d="M99.736 38.849a41.718 41.718 0 0 0-10.34-4.125c7.201 4.557 6.992 11.62-.657 16.05-3.81 2.192-8.76 3.322-13.752 3.392v19.1c8.956 0 17.919-1.968 24.75-5.91 6.83-3.944 10.255-9.073 10.255-14.258V42.561h-5.187a27.654 27.654 0 0 0-5.069-3.712Z" opacity=".3"/><path fill="#0D3180" d="M99.736 38.849a41.718 41.718 0 0 0-10.34-4.125c7.201 4.557 6.992 11.62-.657 16.05-3.81 2.192-8.76 3.322-13.752 3.392v19.1c8.956 0 17.919-1.968 24.75-5.91 6.83-3.944 10.255-9.073 10.255-14.258V42.561h-5.187a27.654 27.654 0 0 0-5.069-3.712Z" opacity=".5" style="mix-blend-mode:lighten"/><path fill="url(#j)" d="M99.736 29.142c-13.667-7.872-35.83-7.872-49.497 0-13.668 7.871-13.668 20.649 0 28.527 13.668 7.879 35.83 7.879 49.497 0 13.668-7.878 13.668-20.649 0-28.527ZM88.991 51.633c-7.872 4.536-20.631 4.536-28.496 0-7.865-4.536-7.872-11.863 0-16.42 7.872-4.557 20.624-4.536 28.489 0 7.865 4.536 7.872 11.87.007 16.42Z"/><path fill="#fff" d="M99.736 56.58c-13.668 7.88-35.83 7.88-49.497 0-6.593-3.803-10.005-8.736-10.235-13.719-.252 5.346 3.16 10.733 10.235 14.808 13.667 7.879 35.83 7.879 49.497 0 7.075-4.075 10.487-9.462 10.242-14.808-.237 4.983-3.649 9.923-10.242 13.72Z"/><path fill="#051756" d="M98.15 29.874c-12.725-7.327-33.349-7.334-46.073 0-12.724 7.335-12.724 19.226 0 26.553 12.724 7.327 33.348 7.334 46.072 0 12.724-7.334 12.724-19.218 0-26.553Zm-9.278 21.208c-7.6 4.382-19.918 4.382-27.517 0-7.6-4.383-7.6-11.48 0-15.862 7.6-4.383 19.918-4.376 27.517 0 7.6 4.375 7.6 11.486 0 15.862Z"/><path fill="#fff" d="M111.838 199.1a8.842 8.842 0 0 1-4.299-.984l-56.245-32.415a3.031 3.031 0 0 1-1.747-2.547c0-1.186.895-2.386 2.454-3.287l107.258-61.814c2.916-1.675 7.348-1.856 9.879-.398l56.237 32.408a3.017 3.017 0 0 1 1.755 2.547c0 1.193-.895 2.386-2.454 3.287l-107.259 61.814a11.542 11.542 0 0 1-5.579 1.389Zm53.014-102.191a11.253 11.253 0 0 0-5.46 1.395L52.119 160.077c-1.482.858-2.328 1.975-2.328 3.077a2.788 2.788 0 0 0 1.63 2.338l56.236 32.414c2.461 1.396 6.789 1.236 9.634-.404l107.266-61.815c1.475-.851 2.328-1.975 2.328-3.077a2.789 2.789 0 0 0-1.629-2.338l-56.209-32.407a8.566 8.566 0 0 0-4.195-.956Z"/><path fill="url(#k)" d="m227.004 117.641-8.075 1.396L169.047 90.3c-2.496-1.444-6.865-1.263-9.788.405l-95.31 54.961-14.277 2.45v5.059a2.879 2.879 0 0 0 1.678 2.463l56.244 32.408c2.496 1.445 6.866 1.263 9.753-.405l107.266-61.814c1.552-.893 2.349-2.038 2.377-3.126l.014-5.06Z"/><path fill="#051756" d="m107.601 182.952-56.244-32.408c-2.502-1.444-2.188-3.963.7-5.624l107.265-61.815c2.888-1.66 7.257-1.842 9.788-.404l56.209 32.435c2.496 1.438 2.188 3.957-.699 5.618l-107.266 61.793c-2.887 1.675-7.257 1.849-9.753.405Z"/><path fill="#fff" d="m224.62 120.719-107.266 61.828c-2.887 1.668-7.257 1.849-9.753.405l-56.244-32.408a3.036 3.036 0 0 1-1.657-2.128c-.153 1.033.385 2.045 1.657 2.791l56.244 32.408c2.496 1.444 6.866 1.263 9.753-.405l107.266-61.793c1.727-.998 2.524-2.296 2.356-3.49-.147.97-.944 1.989-2.356 2.792Z"/><path fill="#0B044E" d="m107.856 181.688-54.231-31.263c-2.419-1.395-2.097-3.831.699-5.443L159.59 84.333c2.797-1.612 6.992-1.786 9.445-.39l54.238 31.263c2.419 1.395 2.097 3.831-.699 5.443l-105.273 60.649c-2.797 1.612-7.019 1.786-9.445.39Z" opacity=".51"/><path fill="url(#l)" d="m107.856 181.688-54.231-31.263c-2.419-1.395-2.097-3.831.699-5.443L159.59 84.333c2.797-1.612 6.992-1.786 9.445-.39l54.238 31.263c2.419 1.395 2.097 3.831-.699 5.443l-105.273 60.649c-2.797 1.612-7.019 1.786-9.445.39Z" opacity=".5" style="mix-blend-mode:lighten"/><path fill="url(#m)" d="M111.81 181.431a8.574 8.574 0 0 1-4.195-.956l-54.237-31.264a2.982 2.982 0 0 1-1.72-2.519c0-1.172.874-2.344 2.398-3.224l105.273-60.656c2.839-1.633 7.152-1.807 9.613-.39l54.238 31.27a2.961 2.961 0 0 1 1.72 2.512c0 1.172-.874 2.351-2.398 3.231l-105.267 60.6a11.15 11.15 0 0 1-5.425 1.396Zm-4.013-1.257c2.37 1.361 6.523 1.187 9.264-.397l105.273-60.649c1.398-.817 2.223-1.877 2.223-2.924a2.645 2.645 0 0 0-1.545-2.212l-54.238-31.264c-2.363-1.395-6.522-1.193-9.263.391L54.238 143.747c-1.398.817-2.224 1.885-2.224 2.924a2.655 2.655 0 0 0 1.546 2.212l54.237 31.291Z" opacity=".8" style="mix-blend-mode:lighten"/><path fill="#fff" d="M158.602 146.441a8.968 8.968 0 0 1-4.397-1.005l-37.557-21.633a3.08 3.08 0 0 1-1.79-2.603c0-1.214.916-2.435 2.51-3.356 2.978-1.717 7.509-1.898 10.095-.412l37.564 21.633a3.079 3.079 0 0 1 1.783 2.589c0 1.214-.909 2.435-2.503 3.356a11.777 11.777 0 0 1-5.705 1.431Zm-35.529-29.791a11.472 11.472 0 0 0-5.593 1.396c-1.517.872-2.384 2.024-2.384 3.147a2.87 2.87 0 0 0 1.664 2.394l37.564 21.633c2.516 1.451 6.942 1.27 9.857-.412 1.51-.872 2.384-2.024 2.384-3.147a2.85 2.85 0 0 0-1.671-2.394l-37.556-21.633a8.745 8.745 0 0 0-4.265-.984Z"/><path fill="#fff" d="M97.038 30.502c-12.123-6.978-31.782-6.978-43.905 0-12.123 6.979-12.095 18.34.028 25.318 12.123 6.978 31.782 6.978 43.905 0 12.122-6.978 12.122-18.332-.028-25.318Z" opacity=".1"/><path fill="#fff" d="M75.113 54.347c10.727 0 19.422-5.01 19.422-11.193 0-6.182-8.695-11.193-19.422-11.193-10.726 0-19.421 5.011-19.421 11.193 0 6.182 8.695 11.193 19.421 11.193Z" opacity=".4"/><path fill="#fff" d="M62.41 192.366a6.2 6.2 0 0 1-3.083-.824L1.258 158.144a2.515 2.515 0 0 1-.918-3.429 2.52 2.52 0 0 1 .918-.919l50.798-29.309.12.209-50.799 29.31a2.276 2.276 0 0 0-1.13 1.964 2.27 2.27 0 0 0 1.13 1.964l58.07 33.399a5.955 5.955 0 0 0 5.935 0l15.324-8.891.12.21-15.319 8.883c-.941.543-2.01.83-3.097.831Z"/><path fill="#fff" d="M84.209 36.908a.794.794 0 0 1-.948.788.797.797 0 0 1-.586-1.083.796.796 0 0 1 .737-.493.792.792 0 0 1 .797.788ZM70.38.788a.787.787 0 0 1-.948.766.79.79 0 0 1-.57-1.076.789.789 0 0 1 1.29-.252.788.788 0 0 1 .228.562Zm1.545 26.992a1.164 1.164 0 0 1-.72 1.078 1.17 1.17 0 0 1-1.592-.85 1.163 1.163 0 0 1 .496-1.196 1.169 1.169 0 0 1 1.816.969Z" opacity=".4"/><path fill="#fff" d="M69.772 47.67a.823.823 0 0 1-.986.807.826.826 0 0 1-.601-1.123.824.824 0 0 1 1.587.315Zm11.78-33.288a1.261 1.261 0 0 1-.775 1.164 1.268 1.268 0 0 1-1.728-.9 1.261 1.261 0 0 1 1.21-1.527 1.268 1.268 0 0 1 1.194.773c.066.155.1.322.1.49Zm-1.845 4.934a.852.852 0 1 0 .001-1.704.852.852 0 0 0-.001 1.704Z" opacity=".8"/><path fill="url(#n)" d="m171.081 81.144-33.117-19.086 44.772-25.798 33.11 19.085-44.765 25.8Z" opacity=".5" style="mix-blend-mode:lighten"/><path fill="#fff" d="M171.046 77.78a4.2 4.2 0 0 1-2.097-.557L144.48 63.119a1.203 1.203 0 0 1-.449-1.653 1.2 1.2 0 0 1 .449-.44l36.2-20.865a4.203 4.203 0 0 1 4.16 0l24.469 14.103a1.2 1.2 0 0 1 .607 1.047 1.202 1.202 0 0 1-.607 1.046l-36.2 20.859a4.202 4.202 0 0 1-2.063.565Zm11.725-37.913a3.934 3.934 0 0 0-1.958.517l-36.2 20.865a.958.958 0 0 0-.354 1.31.957.957 0 0 0 .354.351l24.469 14.103a3.919 3.919 0 0 0 3.915 0l36.2-20.858a.957.957 0 0 0 .483-.834.959.959 0 0 0-.483-.834l-24.469-14.103a3.89 3.89 0 0 0-1.957-.517Z"/><path fill="#fff" d="m176.912 54.075-3.838-2.212.958-.551 3.838 2.212-.958.551Z"/><path fill="#fff" d="m180.191 55.967-1.916-1.11.951-.544 1.923 1.102-.958.552Zm-5.516-.601-3.838-2.212.957-.551 3.839 2.212-.958.551Zm3.279 1.891-1.923-1.11.958-.55 1.923 1.11-.958.55Z" opacity=".5"/><path fill="#fff" d="m172.438 56.657-3.839-2.212.958-.551 3.838 2.212-.957.551Zm3.279 1.884-1.923-1.102.958-.551 1.922 1.11-.957.543Zm-5.517-.593-3.838-2.219.951-.544 3.845 2.212-.958.551Zm3.279 1.885-1.922-1.103.958-.551 1.915 1.102-.951.552Zm-5.516-.601-3.838-2.212.951-.551 3.845 2.219-.958.544Zm3.279 1.891-1.922-1.11.957-.543 1.923 1.102-.958.551Zm-5.516-.6-3.838-2.212.951-.551 3.845 2.212-.958.551Zm3.279 1.891-1.923-1.109.958-.551 1.916 1.11-.951.55Zm-5.516-.6-3.838-2.212.951-.551 3.845 2.212-.958.551Z"/><path fill="#fff" d="m166.768 63.706-1.923-1.11.958-.551 1.916 1.11-.951.55Z" opacity=".5"/><path fill="#fff" d="m161.252 63.105-3.838-2.212.95-.551 3.846 2.212-.958.551Z"/><path fill="#fff" d="m164.531 64.99-1.923-1.103.958-.551 1.915 1.11-.95.543Z" opacity=".5"/><path fill="#fff" d="m185.441 59.044-3.838-2.22.958-.543 3.838 2.212-.958.551Zm3.279 1.884-1.915-1.102.95-.552 1.923 1.103-.958.551Zm-5.516-.6-3.838-2.212.958-.551 3.838 2.219-.958.544Zm3.279 1.892-1.916-1.11.951-.545 1.923 1.103-.958.551Zm-5.516-.601-3.838-2.212.958-.551 3.838 2.212-.958.55Zm3.279 1.891-1.916-1.11.951-.55 1.923 1.109-.958.551Zm-.657-13.28-3.839-2.212.951-.551 3.845 2.212-.957.551Zm3.279 1.891-1.923-1.11.958-.55 1.915 1.11-.95.55Zm-5.517-.6-3.838-2.212.951-.551 3.845 2.212-.958.551Zm3.279 1.885-1.922-1.103.958-.551 1.915 1.11-.951.544Zm-5.516-.594-3.838-2.219.951-.544 3.845 2.212-.958.551Zm3.279 1.884-1.922-1.102.957-.552 1.916 1.103-.951.551Zm9.725.496-3.838-2.212.958-.551 3.838 2.219-.958.544Zm3.279 1.891-1.923-1.11.958-.544 1.922 1.103-.957.551Z"/><path fill="#fff" d="m189.881 56.483-3.839-2.212.951-.552 3.845 2.213-.957.55Z" opacity=".5"/><path fill="#fff" d="m193.16 58.374-1.923-1.11.958-.55 1.915 1.109-.95.551Zm-5.516-.6-3.839-2.212.951-.551 3.845 2.212-.957.55Zm3.278 1.891L189 58.555l.958-.55 1.915 1.109-.951.551ZM178.73 62.91l-3.838-2.212.957-.551 3.839 2.212-.958.55Zm3.279 1.891-1.923-1.11.958-.55 1.922 1.109-.957.551Z"/><path fill="#fff" d="m176.493 64.2-3.839-2.211.951-.551 3.845 2.212-.957.55Z" opacity=".5"/><path fill="#fff" d="m179.771 66.085-1.922-1.102.958-.552 1.915 1.11-.951.544Zm-5.516-.6-3.838-2.212.951-.545 3.845 2.213-.958.544Zm3.279 1.891-1.922-1.103.957-.55 1.923 1.102-.958.551Zm-5.516-.6-3.838-2.212.951-.551 3.845 2.219-.958.544Zm3.279 1.891-1.922-1.11.957-.544 1.916 1.103-.951.551Zm-5.474-.621-3.838-2.22.951-.543 3.845 2.212-.958.551Zm3.279 1.884-1.923-1.102.958-.552 1.916 1.103-.951.551Z"/><path fill="#24126A" d="m81.112 171.284-2.992-1.717a1.205 1.205 0 0 1-.51-.97c0-.369.23-.544.51-.383l2.992 1.723a1.214 1.214 0 0 1 .503.97c0 .363-.224.538-.503.377Z"/><path fill="#fff" d="m197.235 210-33.117-19.086 44.772-25.799L242 184.201 197.235 210Z" opacity=".1"/><path fill="url(#o)" d="m197.235 202.736-33.117-19.079 44.772-25.799L242 176.937l-44.765 25.799Z" opacity=".5" style="mix-blend-mode:lighten"/><path fill="#fff" d="M197.193 199.372a4.202 4.202 0 0 1-2.097-.551l-24.469-14.104a1.192 1.192 0 0 1-.444-.442 1.198 1.198 0 0 1 0-1.209 1.2 1.2 0 0 1 .444-.442l36.207-20.858a4.204 4.204 0 0 1 4.16 0l24.469 14.082a1.193 1.193 0 0 1 .614 1.047 1.197 1.197 0 0 1-.614 1.046l-36.2 20.866a4.201 4.201 0 0 1-2.07.565Zm11.704-37.914a3.92 3.92 0 0 0-1.958.524l-36.172 20.844a.956.956 0 0 0-.353.353.956.956 0 0 0 .353 1.315l24.469 14.103a3.951 3.951 0 0 0 3.915 0l36.207-20.865a.958.958 0 0 0 .477-.83.96.96 0 0 0-.477-.831l-24.469-14.103a3.902 3.902 0 0 0-1.992-.51Zm-21.988 9.128-3.404-1.933a5.754 5.754 0 0 1-2.902-4.989v-6.979a5.492 5.492 0 0 0-2.796-4.773l-12.906-7.383.119-.209 12.906 7.383a5.755 5.755 0 0 1 2.894 4.982v6.979a5.503 5.503 0 0 0 2.797 4.78l3.397 1.933-.105.209Zm-41.178-42.435-.126-.21 51.036-29.714a1.747 1.747 0 0 1 1.747-.008 1.743 1.743 0 0 1 .875 1.509h-.245a1.493 1.493 0 0 0-1.502-1.495 1.497 1.497 0 0 0-.749.204l-51.036 29.714Zm55.336-26.972-.126-.209 21.127-12.47a2.337 2.337 0 0 0 1.156-2.036 2.327 2.327 0 0 0-1.198-2.011l-31.076-17.58.119-.209L222.18 84.25a2.575 2.575 0 0 1 .981 3.514 2.582 2.582 0 0 1-.939.952l-21.155 12.463Zm-72.737 24.432-.986-.573.986-.565.993.565-.993.573Zm2.685.083-.986-.565.986-.572.993.572-.993.565Zm-1.293 2.485-.993-.573.993-.565.985.565-.985.573Zm-4.286-4.515-.986-.566.986-.572.993.572-.993.566Zm7.704 4.152-.986-.573.986-.572.993.572-.993.573Zm2.265-.489-.992-.572.992-.565.986.565-.986.572Zm-2.3 1.891-.985-.565.985-.572.986.572-.986.565Zm3.929 1.696-.985-.565.985-.572.986.572-.986.565Zm3.041.572-.985-.565.985-.572.993.572-.993.565Zm0 2.478-.985-.573.985-.565.993.565-.993.573Zm1.79-.831-.986-.572.986-.565.986.565-.986.572Zm3.887 1.298-.985-.572.985-.565.986.565-.986.572Zm3.433.942-.993-.572.993-.565.986.565-.986.572Zm-3.195 1.27-.993-.565.993-.572.986.572-.986.565Zm4.803 1.912-.986-.572.986-.572.986.572-.986.572Zm2.929.224-.993-.566.993-.572.986.572-.986.566Zm-3.188-1.591-.985-.573.985-.565.986.565-.986.573Zm5.698 4.501-.986-.572.986-.566.986.566-.986.572Z"/><g clip-path="url(#p)"><path fill="#A3A3A3" d="M155 125.563c0-4.97-3.269-11.015-7.303-13.498-2.016-1.248-3.845-1.364-5.169-.544l-1.378.865.418.04c-.731.95-1.153 2.354-1.153 4.137 0 4.97 3.27 11.015 7.299 13.502 1.386.852 2.681 1.177 3.787 1.03l-.033.397 1.403-.892.058-.036c1.278-.829 2.071-2.554 2.071-5.001Z"/><path fill="#F2F2F2" d="M151.461 131.486c2.851-1.758 2.852-7.457 0-12.73-2.851-5.272-7.474-8.121-10.326-6.364-2.852 1.758-2.852 7.457-.001 12.73 2.852 5.273 7.475 8.122 10.327 6.364Z"/><path fill="#131782" d="M149.129 130.77a5.581 5.581 0 0 1-2.876-.941c-3.516-2.166-6.376-7.458-6.376-11.79 0-2.127.672-3.709 1.904-4.458 1.232-.749 2.852-.588 4.593.472 3.515 2.167 6.375 7.458 6.375 11.791 0 2.122-.676 3.709-1.908 4.458a3.177 3.177 0 0 1-1.712.468Zm-5.649-17.443a3.003 3.003 0 0 0-1.595.446c-1.161.717-1.799 2.228-1.799 4.275 0 4.261 2.81 9.463 6.263 11.589 1.67 1.021 3.202 1.191 4.363.477 1.161-.713 1.804-2.228 1.804-4.274 0-4.266-2.815-9.469-6.263-11.59a5.43 5.43 0 0 0-2.773-.923Z"/></g><g clip-path="url(#q)"><path fill="#A3A3A3" d="M144 120.563c0-4.97-3.269-11.015-7.303-13.498-2.016-1.248-3.845-1.364-5.169-.544l-1.378.865.418.04c-.731.95-1.153 2.354-1.153 4.137 0 4.97 3.27 11.015 7.299 13.502 1.386.852 2.681 1.177 3.787 1.03l-.033.397 1.403-.892.058-.036c1.278-.829 2.071-2.554 2.071-5.001Z"/><path fill="#F2F2F2" d="M140.461 126.486c2.851-1.758 2.852-7.457 0-12.73-2.851-5.272-7.474-8.121-10.326-6.364-2.852 1.758-2.852 7.457-.001 12.73 2.852 5.273 7.475 8.122 10.327 6.364Z"/><path fill="#131782" d="M138.129 125.77a5.581 5.581 0 0 1-2.876-.941c-3.516-2.166-6.376-7.458-6.376-11.79 0-2.127.672-3.709 1.904-4.458 1.232-.749 2.852-.588 4.593.472 3.515 2.167 6.375 7.458 6.375 11.791 0 2.122-.676 3.709-1.908 4.458a3.177 3.177 0 0 1-1.712.468Zm-5.649-17.443a3.003 3.003 0 0 0-1.595.446c-1.161.717-1.799 2.228-1.799 4.275 0 4.261 2.81 9.463 6.263 11.589 1.67 1.021 3.202 1.191 4.363.477 1.161-.713 1.804-2.228 1.804-4.274 0-4.266-2.815-9.469-6.263-11.59a5.43 5.43 0 0 0-2.773-.923Z"/></g><g clip-path="url(#r)"><path fill="#A3A3A3" d="M83 32.563c0-4.97-3.27-11.015-7.303-13.498-2.017-1.248-3.845-1.364-5.169-.544l-1.378.865.418.04c-.73.95-1.153 2.354-1.153 4.137 0 4.97 3.27 11.015 7.299 13.502 1.386.852 2.68 1.177 3.787 1.03l-.033.397 1.403-.892.058-.036C82.207 36.735 83 35.01 83 32.563Z"/><path fill="#F2F2F2" d="M79.46 38.486c2.852-1.758 2.853-7.457.001-12.73-2.851-5.272-7.474-8.122-10.326-6.364-2.852 1.758-2.852 7.457 0 12.73 2.85 5.272 7.474 8.122 10.326 6.364Z"/><path fill="#131782" d="M77.13 37.77a5.585 5.585 0 0 1-2.877-.94c-3.516-2.167-6.376-7.458-6.376-11.791 0-2.127.672-3.709 1.904-4.458 1.231-.749 2.852-.588 4.593.473 3.515 2.166 6.376 7.457 6.376 11.79 0 2.122-.677 3.709-1.909 4.458a3.175 3.175 0 0 1-1.712.468Zm-5.65-17.443c-.56-.005-1.11.15-1.595.446-1.16.718-1.8 2.229-1.8 4.275 0 4.261 2.81 9.463 6.264 11.59 1.67 1.02 3.202 1.19 4.363.477 1.16-.714 1.804-2.23 1.804-4.275 0-4.266-2.815-9.468-6.263-11.59a5.424 5.424 0 0 0-2.773-.923Z"/></g><ellipse cx="141.587" cy="132.744" fill="#000" opacity=".3" rx="13.5" ry="1.5" transform="rotate(28.42 141.587 132.744)"/></g><defs><linearGradient id="b" x1="39.99" x2="109.992" y1="101.581" y2="101.581" gradientUnits="userSpaceOnUse"><stop stop-color="#5E98F0"/><stop offset="1" stop-color="#06123F"/></linearGradient><linearGradient id="c" x1="42.534" x2="107.692" y1="90" y2="90" gradientUnits="userSpaceOnUse"><stop stop-color="#C0BFF6"/><stop offset=".29" stop-color="#C5C4F7"/><stop offset=".64" stop-color="#D3D2F9"/><stop offset="1" stop-color="#E9E9FD"/></linearGradient><linearGradient id="d" x1="39.99" x2="109.992" y1="85.73" y2="85.73" gradientUnits="userSpaceOnUse"><stop stop-color="#5E98F0"/><stop offset="1" stop-color="#06123F"/></linearGradient><linearGradient id="e" x1="42.534" x2="107.692" y1="74.138" y2="74.138" gradientUnits="userSpaceOnUse"><stop stop-color="#C0BFF6"/><stop offset=".29" stop-color="#C5C4F7"/><stop offset=".64" stop-color="#D3D2F9"/><stop offset="1" stop-color="#E9E9FD"/></linearGradient><linearGradient id="f" x1="39.99" x2="109.992" y1="69.867" y2="69.867" gradientUnits="userSpaceOnUse"><stop stop-color="#5E98F0"/><stop offset="1" stop-color="#06123F"/></linearGradient><linearGradient id="g" x1="42.534" x2="107.692" y1="58.276" y2="58.276" gradientUnits="userSpaceOnUse"><stop stop-color="#04033E"/><stop offset="1" stop-color="#E9E9FD"/></linearGradient><linearGradient id="h" x1="39.99" x2="109.992" y1="54.005" y2="54.005" gradientUnits="userSpaceOnUse"><stop stop-color="#BCBEFF"/><stop offset=".15" stop-color="#A3A7F5"/><stop offset=".39" stop-color="#8289E8"/><stop offset=".61" stop-color="#6A73DF"/><stop offset=".82" stop-color="#5C66D9"/><stop offset="1" stop-color="#5761D7"/></linearGradient><linearGradient id="i" x1="39.99" x2="109.992" y1="54.005" y2="54.005" gradientUnits="userSpaceOnUse"><stop stop-color="#5E98F0"/><stop offset="1" stop-color="#06123F"/></linearGradient><linearGradient id="j" x1="39.99" x2="109.992" y1="43.406" y2="43.406" gradientUnits="userSpaceOnUse"><stop stop-color="#C0BFF6"/><stop offset=".29" stop-color="#C5C4F7"/><stop offset=".64" stop-color="#D3D2F9"/><stop offset="1" stop-color="#E9E9FD"/></linearGradient><linearGradient id="k" x1="49.672" x2="227.004" y1="139.17" y2="139.17" gradientUnits="userSpaceOnUse"><stop stop-color="#BCBEFF"/><stop offset=".15" stop-color="#A3A7F5"/><stop offset=".39" stop-color="#8289E8"/><stop offset=".61" stop-color="#6A73DF"/><stop offset=".82" stop-color="#5C66D9"/><stop offset="1" stop-color="#5761D7"/></linearGradient><linearGradient id="m" x1="163.035" x2="113.653" y1="164.215" y2="98.552" gradientUnits="userSpaceOnUse"><stop stop-color="#061CE3"/><stop offset="1" stop-color="#0F054C"/></linearGradient><clipPath id="a"><path fill="#fff" d="M0 0h242v210H0z"/></clipPath><clipPath id="p"><path fill="#fff" d="M139 111h16v21h-16z"/></clipPath><clipPath id="q"><path fill="#fff" d="M128 106h16v21h-16z"/></clipPath><clipPath id="r"><path fill="#fff" d="M67 18h16v21H67z"/></clipPath><radialGradient id="l" cx="0" cy="0" r="1" gradientTransform="matrix(113.831 0 0 113.622 72.65 88.356)" gradientUnits="userSpaceOnUse"><stop stop-color="#07236B"/><stop offset="1" stop-color="#1E92FE"/></radialGradient><radialGradient id="n" cx="0" cy="0" r="1" gradientTransform="matrix(137.174 0 0 136.923 146.263 76.266)" gradientUnits="userSpaceOnUse"><stop stop-color="#305DCF"/><stop offset="1" stop-color="#0F054C"/></radialGradient><radialGradient id="o" cx="0" cy="0" r="1" gradientTransform="matrix(137.174 0 0 136.923 172.417 197.858)" gradientUnits="userSpaceOnUse"><stop stop-color="#42E8E0"/><stop offset=".063" stop-color="#396BEE"/><stop offset="1" stop-color="#0F054C"/></radialGradient></defs></svg>