<svg width="478" height="502" viewBox="0 0 478 502" fill="none" xmlns="http://www.w3.org/2000/svg">
<path opacity="0.5" d="M421.139 319.794L437.919 329.5V368.252L421.139 358.564V319.794Z" fill="#1B17CF"/>
<path opacity="0.2" d="M404.342 329.5L421.139 339.188V358.564L404.342 348.876V329.5Z" fill="#1B17CF"/>
<path opacity="0.7" d="M387.562 261.648L404.342 271.354V348.876L387.562 339.188V261.648Z" fill="#1B17CF"/>
<path opacity="0.2" d="M370.782 232.584L387.562 242.272V339.188L370.782 329.5V232.584Z" fill="#1B17CF"/>
<path opacity="0.5" d="M354.002 242.272L370.782 251.96V329.5L354.002 319.794V242.272Z" fill="#1B17CF"/>
<path opacity="0.2" d="M337.206 174.438L354.003 184.126V319.794L337.206 310.106V174.438Z" fill="#1B17CF"/>
<path opacity="0.5" d="M320.426 184.126L337.206 193.814V310.106L320.426 300.418V184.126Z" fill="#1B17CF"/>
<path opacity="0.2" d="M303.646 193.814L320.426 203.502V300.418L303.646 290.73V193.814Z" fill="#1B17CF"/>
<path opacity="0.5" d="M286.866 145.356L303.646 155.062V290.73L286.866 281.042V145.356Z" fill="#1B17CF"/>
<path opacity="0.2" d="M270.069 96.9157L286.866 106.604V281.042L270.069 271.336V96.9157Z" fill="#1B17CF"/>
<path opacity="0.5" d="M253.289 106.604L270.069 116.292V271.336L253.289 261.648V106.604Z" fill="#1B17CF"/>
<path opacity="0.2" d="M236.509 58.146L253.289 67.8341V261.648L236.509 251.96V58.146Z" fill="#1B17CF"/>
<path opacity="0.5" d="M219.729 48.4579L236.509 58.146V251.96L219.729 242.272V48.4579Z" fill="#1B17CF"/>
<path opacity="0.2" d="M202.95 0L219.729 9.68811V242.272L202.95 232.584V0Z" fill="#1B17CF"/>
<path d="M202.465 466.171C298.061 466.171 375.557 421.425 375.557 366.228C375.557 311.031 298.061 266.285 202.465 266.285C106.87 266.285 29.374 311.031 29.374 366.228C29.374 421.425 106.87 466.171 202.465 466.171Z" fill="url(#paint0_linear_106_100)"/>
<path opacity="0.48" d="M375.557 333.323H371.284C364.365 315.521 348.796 298.601 324.854 284.744C257.251 245.715 147.663 245.715 80.0596 284.744C57.3982 297.84 42.3483 313.653 34.8752 330.365H29.4434V352.526C28.0941 379.082 45.0123 405.88 80.0596 426.139C147.663 465.185 257.268 465.185 324.854 426.139C358.656 406.624 375.557 381.054 375.557 355.467V333.323Z" fill="url(#paint1_linear_106_100)"/>
<path opacity="0.48" d="M375.557 333.323H371.284C364.365 315.521 348.796 298.601 324.854 284.744C257.251 245.715 147.663 245.715 80.0596 284.744C57.3982 297.84 42.3483 313.653 34.8752 330.365H29.4434V352.526C28.0941 379.082 45.0123 405.88 80.0596 426.139C147.663 465.185 257.268 465.185 324.854 426.139C358.656 406.624 375.557 381.054 375.557 355.467V333.323Z" fill="url(#paint2_linear_106_100)"/>
<path opacity="0.48" d="M375.557 333.323H371.284C364.365 315.521 348.796 298.601 324.854 284.744C257.251 245.715 147.663 245.715 80.0596 284.744C57.3982 297.84 42.3483 313.653 34.8752 330.365H29.4434V352.526C28.0941 379.082 45.0123 405.88 80.0596 426.139C147.663 465.185 257.268 465.185 324.854 426.139C358.656 406.624 375.557 381.054 375.557 355.467V333.323Z" fill="url(#paint3_linear_106_100)"/>
<path d="M375.557 324.742H371.284C364.365 306.94 348.796 290.021 324.854 276.163C257.251 237.134 147.663 237.134 80.0596 276.163C57.3982 289.242 42.3483 305.054 34.8752 321.766H29.4434V343.928C28.0941 370.467 45.0123 397.282 80.0596 417.54C147.663 456.57 257.268 456.57 324.854 417.54C358.656 398.026 375.557 372.456 375.557 346.869V324.742Z" fill="url(#paint4_linear_106_100)"/>
<path opacity="0.48" d="M371.284 324.708C371.042 324.085 370.782 323.479 370.523 322.856V308.307H361.458V307.269C359.08 304.088 356.503 301.06 353.743 298.204V308.307H348.553V293.152C346.143 290.972 343.566 288.833 340.821 286.734V308.307H335.631V282.962C333.152 281.255 330.568 279.583 327.881 277.945V308.307H322.692V274.935C320.149 273.516 317.502 272.132 314.907 270.835V308.307H309.718V268.395C307.158 267.242 304.557 266.117 301.916 265.022V308.272H296.726V273.205H289.063V308.272H283.994V282.841H276.141V308.272H271.072V292.46H263.201V308.272H258.167V302.079H250.262V308.272H154.721V302.079H146.867V308.272H141.833V292.46H133.962V308.272H128.911V282.841H121.057V308.272H115.972V273.205H108.135V308.272H102.946V265.022C100.293 266.094 97.6926 267.219 95.1439 268.395V308.342H89.9543V270.783C87.3076 272.098 84.7647 273.464 82.1872 274.883V308.307H76.9975V277.893C74.2989 279.519 71.7099 281.192 69.2304 282.91V308.307H64.0408V286.664C61.2903 288.758 58.73 290.92 56.3082 293.1V308.307H51.1186V298.134C48.3608 300.976 45.7894 303.992 43.4206 307.165V308.307H34.4253V321.732H30.585V358.893C32.0797 365.836 34.6787 372.495 38.2829 378.615V355.363H43.4725V386.504C45.8501 389.67 48.421 392.686 51.1705 395.535V355.363H56.3601V400.517C58.7819 402.697 61.3595 404.836 64.0927 406.935V355.363H69.2823V410.724C71.756 412.454 74.3335 414.184 77.0494 415.758V355.363H82.239V418.717C84.782 420.135 87.4287 421.502 90.0062 422.817V355.346H95.1958V425.222C97.756 426.375 100.357 427.5 102.998 428.595V355.363H108.187V430.637C110.759 431.605 113.371 432.534 116.024 433.422V355.398H121.109V434.979C123.687 435.775 126.299 436.536 128.963 437.245V355.363H134.014V438.595C136.626 439.252 139.204 439.858 141.885 440.429V355.363H146.867V441.467C149.497 441.968 152.057 442.453 154.773 442.885V355.363H159.789V443.594C162.419 443.975 165.066 444.338 167.712 444.65V355.363H172.694V445.324C175.341 445.601 177.988 445.826 180.652 446.017V355.363H185.599V446.207C188.263 446.345 190.91 446.466 193.574 446.553V355.363H198.521V446.726C201.203 446.726 203.884 446.726 206.583 446.726V355.363H211.513V446.605C214.177 446.605 216.841 446.414 219.487 446.276V355.363H224.452V445.947C227.099 445.74 229.763 445.515 232.392 445.255V355.294H237.392V444.633C240.038 444.321 242.685 443.975 245.314 443.594V355.363H250.314V442.868C252.96 442.435 255.607 441.968 258.219 441.449V355.363H263.253V440.411C265.9 439.84 268.529 439.235 271.124 438.681V355.363H276.193V437.263C278.839 436.553 281.382 435.792 284.046 434.996V355.415H289.115V433.405C291.767 432.528 294.379 431.605 296.951 430.637V355.363H302.141V428.578C304.793 427.505 307.394 426.381 309.943 425.204V355.363H315.132V422.834C317.773 421.519 320.368 420.153 322.917 418.734V355.415H328.106V415.741C330.805 414.103 333.388 412.425 335.856 410.707V355.346H341.046V406.866C343.79 404.779 346.368 402.633 348.778 400.431V355.363H353.968V395.431C356.727 392.58 359.304 389.558 361.683 386.383V355.363H366.873V378.442C370.489 372.268 373.082 365.549 374.553 358.547V324.742L371.284 324.708Z" fill="url(#paint5_linear_106_100)"/>
<path d="M202.465 424.703C298.061 424.703 375.557 379.957 375.557 324.759C375.557 269.562 298.061 224.816 202.465 224.816C106.87 224.816 29.374 269.562 29.374 324.759C29.374 379.957 106.87 424.703 202.465 424.703Z" fill="url(#paint6_linear_106_100)"/>
<path opacity="0.3" d="M202.517 224.764C163.301 224.764 124.085 232.411 92.1339 247.704L40.4971 360C48.9216 372.923 62.0686 385.033 80.0593 395.413C91.6619 402.051 103.916 407.477 116.629 411.606L202.517 224.764Z" fill="#2182F4"/>
<path opacity="0.3" d="M251.023 228.812L162.177 421.987C183.645 424.908 205.367 425.488 226.961 423.717L308.732 245.905C290.302 237.772 270.909 232.028 251.023 228.812Z" fill="#2182F4"/>
<g opacity="0.05">
<path d="M202.466 413.267C287.132 413.267 355.767 373.641 355.767 324.76C355.767 275.878 287.132 236.252 202.466 236.252C117.8 236.252 49.1641 275.878 49.1641 324.76C49.1641 373.641 117.8 413.267 202.466 413.267Z" fill="url(#paint7_linear_106_100)"/>
<mask id="mask0_106_100" style="mask-type:luminance" maskUnits="userSpaceOnUse" x="49" y="236" width="307" height="178">
<path d="M202.466 413.25C287.132 413.25 355.767 373.624 355.767 324.742C355.767 275.861 287.132 236.234 202.466 236.234C117.8 236.234 49.1641 275.861 49.1641 324.742C49.1641 373.624 117.8 413.25 202.466 413.25Z" fill="white"/>
</mask>
<g mask="url(#mask0_106_100)">
<path d="M-71.3566 324.379L-73 323.427L194.058 169.231L195.702 170.182L-71.3566 324.379Z" fill="#2182F4"/>
<path d="M-66.6515 327.095L-68.2949 326.143L198.763 171.947L200.407 172.898L-66.6515 327.095Z" fill="#2182F4"/>
<path d="M-61.946 329.811L-63.5894 328.86L203.469 174.663L205.112 175.614L-61.946 329.811Z" fill="#2182F4"/>
<path d="M-57.2409 332.527L-58.8843 331.576L208.174 177.379L209.817 178.33L-57.2409 332.527Z" fill="#2182F4"/>
<path d="M-52.5353 335.243L-54.1787 334.292L212.879 180.095L214.523 181.047L-52.5353 335.243Z" fill="#2182F4"/>
<path d="M-47.8303 337.959L-49.4736 337.008L217.585 182.811L219.228 183.763L-47.8303 337.959Z" fill="#2182F4"/>
<path d="M-43.1252 340.676L-44.7686 339.724L222.29 185.527L223.933 186.479L-43.1252 340.676Z" fill="#2182F4"/>
<path d="M-38.4369 343.392L-40.063 342.44L226.995 188.243L228.639 189.195L-38.4369 343.392Z" fill="#2182F4"/>
<path d="M-33.7318 346.108L-35.3579 345.156L231.7 190.96L233.344 191.911L-33.7318 346.108Z" fill="#2182F4"/>
<path d="M-29.0094 348.824L-30.6528 347.872L236.405 193.676L238.049 194.627L-29.0094 348.824Z" fill="#2182F4"/>
<path d="M-24.3212 351.54L-25.9473 350.589L241.111 196.392L242.754 197.343L-24.3212 351.54Z" fill="#2182F4"/>
<path d="M-19.6161 354.256L-21.2422 353.305L245.816 199.108L247.459 200.06L-19.6161 354.256Z" fill="#2182F4"/>
<path d="M-14.8932 356.972L-16.5366 356.021L250.522 201.824L252.165 202.776L-14.8932 356.972Z" fill="#2182F4"/>
<path d="M-10.2055 359.689L-11.8315 358.754L255.227 204.54L256.87 205.492L-10.2055 359.689Z" fill="#2182F4"/>
<path d="M-5.50038 362.405L-7.12646 361.47L259.932 207.256L261.575 208.208L-5.50038 362.405Z" fill="#2182F4"/>
<path d="M-0.794811 365.121L-2.4209 364.187L264.637 209.99L266.281 210.924L-0.794811 365.121Z" fill="#2182F4"/>
<path d="M3.92756 367.837L2.28418 366.903L269.342 212.689L270.968 213.64L3.92756 367.837Z" fill="#2182F4"/>
<path d="M8.63263 370.553L6.98926 369.619L274.047 215.422L275.674 216.356L8.63263 370.553Z" fill="#2182F4"/>
<path d="M13.3209 373.269L11.6948 372.335L278.753 218.138L280.379 219.072L13.3209 373.269Z" fill="#2182F4"/>
<path d="M18.026 375.985L16.3999 375.051L283.458 220.854L285.084 221.789L18.026 375.985Z" fill="#2182F4"/>
<path d="M22.7315 378.701L21.1055 377.767L288.164 223.571L289.79 224.505L22.7315 378.701Z" fill="#2182F4"/>
<path d="M27.4366 381.418L25.8105 380.483L292.869 226.287L294.495 227.221L27.4366 381.418Z" fill="#2182F4"/>
<path d="M32.1417 384.134L30.5156 383.199L297.574 229.003L299.2 229.937L32.1417 384.134Z" fill="#2182F4"/>
<path d="M36.8473 386.867L35.2212 385.916L302.279 231.719L303.906 232.653L36.8473 386.867Z" fill="#2182F4"/>
<path d="M41.5524 389.583L39.9263 388.632L306.984 234.435L308.611 235.369L41.5524 389.583Z" fill="#2182F4"/>
<path d="M46.2574 392.299L44.6313 391.348L311.69 237.151L313.316 238.085L46.2574 392.299Z" fill="#2182F4"/>
<path d="M50.963 395.016L49.3369 394.064L316.395 239.867L318.021 240.802L50.963 395.016Z" fill="#2182F4"/>
<path d="M55.6681 397.732L54.042 396.78L321.1 242.583L322.726 243.518L55.6681 397.732Z" fill="#2182F4"/>
<path d="M60.3736 400.448L58.7476 399.496L325.806 245.3L327.432 246.251L60.3736 400.448Z" fill="#2182F4"/>
<path d="M65.0787 403.164L63.4526 402.212L330.511 248.016L332.137 248.967L65.0787 403.164Z" fill="#2182F4"/>
<path d="M69.7838 405.88L68.1577 404.929L335.216 250.732L336.842 251.683L69.7838 405.88Z" fill="#2182F4"/>
<path d="M74.4894 408.596L72.8633 407.645L339.922 253.448L341.548 254.399L74.4894 408.596Z" fill="#2182F4"/>
<path d="M79.1944 411.312L77.5684 410.361L344.627 256.164L346.253 257.116L79.1944 411.312Z" fill="#2182F4"/>
<path d="M83.8995 414.028L82.2734 413.077L349.332 258.88L350.958 259.832L83.8995 414.028Z" fill="#2182F4"/>
<path d="M88.6051 416.745L86.979 415.793L354.037 261.596L355.663 262.548L88.6051 416.745Z" fill="#2182F4"/>
<path d="M93.3102 419.461L91.6841 418.509L358.742 264.312L360.368 265.264L93.3102 419.461Z" fill="#2182F4"/>
<path d="M98.0157 422.177L96.3896 421.225L363.448 267.029L365.074 267.98L98.0157 422.177Z" fill="#2182F4"/>
<path d="M102.721 424.893L101.095 423.941L368.153 269.745L369.779 270.696L102.721 424.893Z" fill="#2182F4"/>
<path d="M107.426 427.609L105.8 426.658L372.858 272.461L374.484 273.412L107.426 427.609Z" fill="#2182F4"/>
<path d="M112.131 430.325L110.505 429.374L377.564 275.177L379.19 276.129L112.131 430.325Z" fill="#2182F4"/>
<path d="M116.837 433.041L115.21 432.09L382.269 277.893L383.895 278.845L116.837 433.041Z" fill="#2182F4"/>
<path d="M121.542 435.758L119.916 434.823L386.974 280.609L388.6 281.561L121.542 435.758Z" fill="#2182F4"/>
<path d="M126.247 438.474L124.621 437.539L391.679 283.325L393.305 284.277L126.247 438.474Z" fill="#2182F4"/>
<path d="M130.952 441.19L129.326 440.256L396.384 286.042L398.01 286.993L130.952 441.19Z" fill="#2182F4"/>
<path d="M135.658 443.906L134.032 442.972L401.09 288.758L402.716 289.709L135.658 443.906Z" fill="#2182F4"/>
<path d="M140.363 446.622L138.737 445.688L405.795 291.491L407.421 292.425L140.363 446.622Z" fill="#2182F4"/>
<path d="M145.068 449.338L143.442 448.404L410.5 294.207L412.126 295.141L145.068 449.338Z" fill="#2182F4"/>
<path d="M149.774 452.054L148.147 451.12L415.206 296.923L416.832 297.858L149.774 452.054Z" fill="#2182F4"/>
<path d="M154.479 454.77L152.853 453.836L419.911 299.64L421.537 300.574L154.479 454.77Z" fill="#2182F4"/>
<path d="M159.184 457.487L157.558 456.552L424.616 302.356L426.242 303.29L159.184 457.487Z" fill="#2182F4"/>
<path d="M163.889 460.203L162.263 459.268L429.321 305.072L430.948 306.006L163.889 460.203Z" fill="#2182F4"/>
<path d="M168.594 462.919L166.968 461.985L434.026 307.788L435.653 308.722L168.594 462.919Z" fill="#2182F4"/>
<path d="M173.3 465.635L171.674 464.701L438.732 310.504L440.358 311.438L173.3 465.635Z" fill="#2182F4"/>
<path d="M178.005 468.368L176.379 467.417L443.437 313.22L445.063 314.154L178.005 468.368Z" fill="#2182F4"/>
<path d="M182.71 471.084L181.084 470.133L448.142 315.936L449.768 316.871L182.71 471.084Z" fill="#2182F4"/>
<path d="M187.415 473.801L185.772 472.849L452.848 318.652L454.474 319.604L187.415 473.801Z" fill="#2182F4"/>
<path d="M192.121 476.517L190.478 475.565L457.553 321.369L459.179 322.32L192.121 476.517Z" fill="#2182F4"/>
<path d="M196.826 479.233L195.183 478.281L462.258 324.085L463.884 325.036L196.826 479.233Z" fill="#2182F4"/>
<path d="M201.531 481.949L199.888 480.998L466.963 326.801L468.589 327.752L201.531 481.949Z" fill="#2182F4"/>
<path d="M206.237 484.665L204.593 483.714L471.669 329.517L473.295 330.468L206.237 484.665Z" fill="#2182F4"/>
<path d="M210.942 487.381L209.298 486.43L476.357 332.233L478 333.185L210.942 487.381Z" fill="#2182F4"/>
</g>
</g>
<path d="M94.0542 268.119C153.925 233.518 250.989 233.518 310.86 268.119C339.472 284.658 354.401 306.092 355.663 327.735C357.03 304.103 342.101 280.211 310.86 262.167C250.989 227.567 153.925 227.567 94.0542 262.167C62.8127 280.125 47.8838 304.086 49.2677 327.735C50.5133 306.075 65.4421 284.64 94.0542 268.119Z" fill="url(#paint8_linear_106_100)"/>
<path d="M262.89 290.263L113.429 271.769L145.466 358.062L242.789 346.454L262.89 290.263Z" fill="url(#paint9_linear_106_100)"/>
<path opacity="0.4" d="M145.466 358.062L186.36 295.038L242.789 346.454L145.466 358.062Z" fill="#0F054C"/>
<path opacity="0.4" d="M262.89 290.263L186.36 295.038L242.789 346.454L262.89 290.263Z" fill="#0F054C"/>
<path opacity="0.4" d="M262.89 290.263L113.429 271.769L186.36 295.038L242.789 346.454L262.89 290.263Z" fill="#0F054C"/>
<path d="M159.582 366.211L296.969 377.75L276.989 298.411L256.87 341.973L159.582 366.211Z" fill="url(#paint10_linear_106_100)"/>
<path opacity="0.4" d="M256.87 341.973L296.969 377.75L276.989 298.411L256.87 341.973Z" fill="#0F054C"/>
<path d="M204.784 239.677C198.675 239.804 192.636 238.362 187.243 235.49C182.364 232.688 179.683 228.882 179.683 224.799C179.683 220.716 182.364 216.927 187.243 214.107C196.913 208.537 212.655 208.537 222.342 214.107C227.203 216.927 229.884 220.716 229.884 224.799C229.884 228.882 227.203 232.688 222.342 235.49C216.943 238.362 210.898 239.804 204.784 239.677ZM204.784 211.824C199.007 211.717 193.299 213.081 188.194 215.785C183.956 218.242 181.621 221.443 181.621 224.799C181.621 228.155 183.956 231.373 188.194 233.83C197.345 239.02 212.222 239.02 221.373 233.83C225.611 231.373 227.964 228.172 227.964 224.799C227.964 221.425 225.611 218.242 221.373 215.785C216.268 213.081 210.56 211.717 204.784 211.824Z" fill="#2182F4"/>
<path d="M215.18 230.802C211.965 232.437 208.408 233.289 204.801 233.289C201.194 233.289 197.637 232.437 194.422 230.802C188.678 227.498 188.678 222.152 194.422 218.813C197.637 217.178 201.194 216.326 204.801 216.326C208.408 216.326 211.965 217.178 215.18 218.813C220.906 222.117 220.906 227.498 215.18 230.802Z" fill="#2182F4"/>
<path d="M265.398 195.769L255.088 189.818L272.629 179.697L282.922 185.648L265.398 195.769Z" fill="#2182F4"/>
<path opacity="0.8" d="M246.872 186.375L233.897 182.569L245.159 169.801L258.133 173.625L246.872 186.375Z" fill="#2182F4"/>
<path opacity="0.6" d="M224.244 180.753L209.869 179.438L213.744 165.303L228.119 166.618L224.244 180.753Z" fill="#2182F4"/>
<path opacity="0.4" d="M199.715 179.438L185.339 180.753L181.447 166.618L195.84 165.303L199.715 179.438Z" fill="#2182F4"/>
<path opacity="0.2" d="M175.669 182.569L162.695 186.375L151.451 173.625L164.425 169.801L175.669 182.569Z" fill="#2182F4"/>
<path opacity="0.1" d="M154.479 189.818L144.186 195.769L126.662 185.648L136.955 179.697L154.479 189.818Z" fill="#2182F4"/>
<path opacity="0.2" d="M231.026 211.754L227.41 209.661L253.566 194.558L257.181 196.651L231.026 211.754Z" fill="#2182F4"/>
<path opacity="0.4" d="M222.757 207.706L218.19 206.374L234.987 187.344L239.554 188.676L222.757 207.706Z" fill="#2182F4"/>
<path opacity="0.6" d="M212.724 205.336L207.672 204.886L213.45 183.78L218.501 184.247L212.724 205.336Z" fill="#2182F4"/>
<path opacity="0.8" d="M201.912 204.886L196.861 205.336L191.083 184.247L196.134 183.78L201.912 204.886Z" fill="#2182F4"/>
<path d="M191.394 206.374L186.827 207.706L170.03 188.676L174.597 187.344L191.394 206.374Z" fill="#2182F4"/>
<path d="M182.174 209.661L178.559 211.754L152.403 196.651L156.018 194.558L182.174 209.661Z" fill="#2182F4"/>
<path d="M175.168 214.436L172.85 217.066L139.896 207.378L142.214 204.748L175.168 214.436Z" fill="#2182F4"/>
<path d="M171.068 220.232L170.272 223.155L133.737 219.816L134.533 216.893L171.068 220.232Z" fill="#2182F4"/>
<path d="M170.272 226.477L171.068 229.383L134.533 232.74L133.737 229.816L170.272 226.477Z" fill="#2182F4"/>
<path d="M172.85 232.549L175.168 235.179L142.214 244.884L139.896 242.255L172.85 232.549Z" fill="#2182F4"/>
<path d="M178.559 237.878L182.174 239.954L156.018 255.057L152.403 252.981L178.559 237.878Z" fill="#2182F4"/>
<path opacity="0.6" d="M307.521 175.77C345.976 202.551 348.121 240.836 314.008 268.932L327.847 281.682C374.917 247.808 373.879 199.039 324.785 165.771L307.521 175.77Z" fill="#2182F4"/>
<path opacity="0.2" d="M225.594 300.885C184.924 304.518 141.85 297.425 110.54 279.243C103.699 275.356 97.3162 270.713 91.511 265.402L68.0366 270.073C75.5885 277.5 84.0862 283.898 93.3101 289.104C132.942 311.975 188.453 320.106 239.346 313.514L225.594 300.885Z" fill="#2182F4"/>
<path d="M48.7834 237.722L72.2579 233.051C68.1062 210.699 80.9072 187.5 110.505 170.372C159.565 142.052 237.34 140.426 289.721 165.476L306.933 155.546C245.021 125.029 151.884 126.655 93.345 160.459C56.9139 181.514 42.0196 210.336 48.7834 237.722Z" fill="#2182F4"/>
<path d="M190.408 275.713L181.223 270.402L299.183 202.291L308.369 207.602L190.408 275.713Z" fill="#2182F4"/>
<path opacity="0.8" d="M203.469 283.239L194.266 277.945L245.539 248.344L254.725 253.638L203.469 283.239Z" fill="#2182F4"/>
<path opacity="0.6" d="M217.429 291.301L208.226 286.007L289.842 238.881L299.027 244.192L217.429 291.301Z" fill="#2182F4"/>
<path opacity="0.2" d="M231.164 299.242L221.979 293.93L285.5 257.254L294.685 262.565L231.164 299.242Z" fill="#2182F4"/>
<defs>
<linearGradient id="paint0_linear_106_100" x1="25.4391" y1="275.413" x2="211.712" y2="565.23" gradientUnits="userSpaceOnUse">
<stop stop-color="#4542E8"/>
<stop offset="1" stop-color="#24126A"/>
</linearGradient>
<linearGradient id="paint1_linear_106_100" x1="3.23579" y1="355.363" x2="345.993" y2="355.363" gradientUnits="userSpaceOnUse">
<stop stop-color="#000745"/>
<stop offset="1" stop-color="#5761D7"/>
</linearGradient>
<linearGradient id="paint2_linear_106_100" x1="3.23579" y1="355.363" x2="345.993" y2="355.363" gradientUnits="userSpaceOnUse">
<stop stop-color="#000745"/>
<stop offset="1" stop-color="#5761D7"/>
</linearGradient>
<linearGradient id="paint3_linear_106_100" x1="3.23579" y1="355.363" x2="345.993" y2="355.363" gradientUnits="userSpaceOnUse">
<stop stop-color="#000745"/>
<stop offset="1" stop-color="#5761D7"/>
</linearGradient>
<linearGradient id="paint4_linear_106_100" x1="3.23579" y1="346.8" x2="345.993" y2="346.8" gradientUnits="userSpaceOnUse">
<stop stop-color="#1C84FF"/>
<stop offset="1" stop-color="#24126A"/>
<stop offset="1" stop-color="#24126A"/>
</linearGradient>
<linearGradient id="paint5_linear_106_100" x1="30.6196" y1="355.865" x2="374.363" y2="355.865" gradientUnits="userSpaceOnUse">
<stop stop-color="#0032B1"/>
<stop offset="1" stop-color="#5761D7"/>
</linearGradient>
<linearGradient id="paint6_linear_106_100" x1="25.2766" y1="233.848" x2="211.55" y2="523.664" gradientUnits="userSpaceOnUse">
<stop stop-color="#1C48E3"/>
<stop offset="1" stop-color="#24126A"/>
</linearGradient>
<linearGradient id="paint7_linear_106_100" x1="185.651" y1="297.096" x2="271.294" y2="725.153" gradientUnits="userSpaceOnUse">
<stop offset="0.02" stop-color="#4440FF"/>
<stop offset="0.82" stop-color="#24126A"/>
</linearGradient>
<linearGradient id="paint8_linear_106_100" x1="49.1812" y1="281.993" x2="355.75" y2="281.993" gradientUnits="userSpaceOnUse">
<stop stop-color="#352AAA"/>
<stop offset="1" stop-color="#180D5B"/>
</linearGradient>
<linearGradient id="paint9_linear_106_100" x1="94.0039" y1="265.376" x2="212.437" y2="443.249" gradientUnits="userSpaceOnUse">
<stop stop-color="#28ABF4"/>
<stop offset="1" stop-color="#24126A"/>
</linearGradient>
<linearGradient id="paint10_linear_106_100" x1="169.736" y1="309.563" x2="243.233" y2="396.037" gradientUnits="userSpaceOnUse">
<stop offset="0.35" stop-color="#2B4486"/>
<stop offset="0.44" stop-color="#282E79"/>
<stop offset="0.54" stop-color="#261E71"/>
<stop offset="0.66" stop-color="#24156C"/>
<stop offset="0.82" stop-color="#24126A"/>
</linearGradient>
</defs>
</svg>
