<svg width="377" height="308" viewBox="0 0 377 308" fill="none" xmlns="http://www.w3.org/2000/svg">
<g clip-path="url(#clip0_83_196)">
<g opacity="0.5">
<path d="M100.711 164.069L257.177 253.287C257.489 253.461 257.748 253.714 257.929 254.02C258.109 254.326 258.204 254.673 258.204 255.027C258.204 255.381 258.109 255.728 257.929 256.034C257.748 256.339 257.489 256.592 257.177 256.767L170.294 306.32C168.355 307.426 166.156 308.008 163.917 308.008C161.678 308.008 159.479 307.426 157.54 306.32L7.46043 220.731C7.14643 220.558 6.88499 220.304 6.70301 219.998C6.52104 219.691 6.42511 219.342 6.42511 218.986C6.42511 218.631 6.52104 218.282 6.70301 217.975C6.88499 217.669 7.14643 217.415 7.46043 217.242L100.711 164.069Z" fill="#242993"/>
</g>
<path d="M105.58 124.914L126.493 2.33964L124.813 1.63973L127.334 0.209913C127.637 0.0479351 127.982 -0.0249421 128.326 -0.000142878C128.67 0.0246564 129 0.146099 129.277 0.349894L296.383 95.6475C297.09 96.0912 297.665 96.7135 298.048 97.45C298.43 98.1865 298.607 99.0105 298.559 99.837L277.484 223.351C277.458 223.618 277.364 223.874 277.209 224.094C277.055 224.315 276.846 224.492 276.603 224.611L274.133 226.021L273.708 223.741H273.85L107.756 129.063C107.056 128.621 106.487 128.005 106.105 127.277C105.723 126.548 105.542 125.733 105.58 124.914Z" fill="url(#paint0_linear_83_196)"/>
<path d="M295.451 99.0072L298.205 97.8074C298.504 98.4299 298.627 99.1211 298.559 99.8071L277.484 223.351C277.458 223.618 277.364 223.874 277.209 224.094C277.055 224.315 276.846 224.493 276.603 224.611L274.133 226.021L273.708 223.741H273.85L265.438 218.952L295.451 99.0072Z" fill="url(#paint1_linear_83_196)"/>
<path d="M105.134 130.553L272.24 225.841C273.526 226.58 274.629 226.161 274.862 224.841L295.937 101.337C295.987 100.509 295.811 99.6825 295.428 98.9441C295.046 98.2057 294.47 97.5819 293.761 97.1373L126.655 1.83969C125.37 1.10979 124.266 1.52973 124.034 2.83956L102.958 126.354C102.913 127.181 103.09 128.006 103.473 128.743C103.855 129.481 104.428 130.105 105.134 130.553Z" fill="#242993"/>
<g opacity="0.51">
<path d="M128.842 9.71875L289.914 101.577L269.942 217.892L108.971 126.104L128.842 9.71875Z" fill="#4553C7"/>
</g>
<path d="M0.091095 189.015L9.20153 193.725L100.64 141.571C101.586 141.149 102.619 140.952 103.656 140.995C104.693 141.039 105.706 141.322 106.612 141.821L264.324 231.81C265.832 230.98 272.716 227.71 272.716 227.71L269.375 236.299C269.193 236.73 268.863 237.083 268.444 237.299L172.137 292.222C171.192 292.648 170.159 292.849 169.121 292.807C168.084 292.765 167.071 292.483 166.164 291.982L4.76778 199.904C4.16688 199.598 3.69134 199.096 3.42147 198.484L0.091095 189.015Z" fill="url(#paint2_linear_83_196)"/>
<path d="M1.49829 190.505L166.903 284.833C167.834 285.343 168.872 285.631 169.936 285.674C170.999 285.718 172.058 285.515 173.028 285.083L271.724 228.79C273.293 227.901 273.101 226.331 271.289 225.301L105.884 130.973C104.953 130.463 103.915 130.175 102.852 130.132C101.788 130.088 100.729 130.291 99.7594 130.723L1.06303 187.016C-0.505994 187.906 -0.293425 189.465 1.49829 190.505Z" fill="url(#paint3_linear_83_196)"/>
<path d="M216.798 264.426V262.636C216.798 262.466 216.697 262.386 216.565 262.456L210.168 266.106C210.096 266.155 210.038 266.221 209.997 266.297C209.957 266.374 209.935 266.459 209.935 266.545V268.335C209.935 268.505 210.036 268.585 210.168 268.515L216.565 264.866C216.637 264.816 216.695 264.75 216.736 264.674C216.776 264.597 216.798 264.512 216.798 264.426Z" fill="#2859CB"/>
<path d="M207.222 269.895V268.095C207.222 267.925 207.111 267.845 206.989 267.925L200.592 271.575C200.52 271.624 200.461 271.69 200.421 271.767C200.38 271.843 200.359 271.928 200.359 272.015V273.804C200.359 273.974 200.46 274.054 200.592 273.974L206.989 270.335C207.059 270.283 207.115 270.217 207.156 270.141C207.196 270.065 207.219 269.981 207.222 269.895Z" fill="#2859CB"/>
<path d="M245.992 223.521L108.546 145.131C108.093 144.881 107.582 144.749 107.063 144.749C106.544 144.749 106.033 144.881 105.58 145.131L56.6365 173.128C56.4654 173.209 56.3211 173.337 56.2201 173.496C56.1191 173.656 56.0655 173.84 56.0655 174.027C56.0655 174.215 56.1191 174.399 56.2201 174.559C56.3211 174.718 56.4654 174.846 56.6365 174.927L194.062 253.257C194.51 253.517 195.021 253.655 195.54 253.655C196.06 253.655 196.57 253.517 197.018 253.257L246.032 225.321C246.202 225.235 246.343 225.104 246.441 224.943C246.538 224.782 246.588 224.596 246.583 224.408C246.579 224.221 246.522 224.038 246.417 223.881C246.312 223.724 246.165 223.599 245.992 223.521Z" fill="#ADC8FF"/>
<path d="M245.992 225.321L245.506 225.601L108.546 147.501C108.093 147.25 107.582 147.119 107.063 147.119C106.544 147.119 106.033 147.25 105.58 147.501L57.1224 175.187L56.6365 174.907C56.4654 174.825 56.3211 174.698 56.2201 174.538C56.1191 174.379 56.0655 174.195 56.0655 174.007C56.0655 173.82 56.1191 173.636 56.2201 173.476C56.3211 173.317 56.4654 173.189 56.6365 173.108L105.58 145.111C106.033 144.861 106.544 144.729 107.063 144.729C107.582 144.729 108.093 144.861 108.546 145.111L245.992 223.501C246.169 223.581 246.318 223.709 246.424 223.87C246.529 224.031 246.584 224.219 246.584 224.411C246.584 224.603 246.529 224.791 246.424 224.952C246.318 225.113 246.169 225.241 245.992 225.321Z" fill="#91AFFF"/>
<path d="M101.885 152.21L221.282 220.301L226.587 217.272L107.189 149.191L101.885 152.21Z" fill="#242993"/>
<path d="M88.8672 159.639L200.855 223.501L206.169 220.471L94.1817 156.61L88.8672 159.639Z" fill="#242993"/>
<path d="M80.3945 164.469L212.253 239.669L217.557 236.639L85.6988 161.439L80.3945 164.469Z" fill="#242993"/>
<path d="M71.9117 169.308L203.77 244.498L209.074 241.469L77.2261 166.278L71.9117 169.308Z" fill="#242993"/>
<path d="M63.439 174.137L195.297 249.337L200.602 246.308L68.7433 171.108L63.439 174.137Z" fill="#242993"/>
<path d="M228.49 224.421L233.804 227.44L239.108 224.421L233.804 221.391L228.49 224.421Z" fill="#242993"/>
<path d="M209.773 228.58L220.786 234.87L226.101 231.84L215.077 225.561L209.773 228.58Z" fill="#242993"/>
<path d="M103.252 242.488L66.1823 221.351C64.7347 220.521 64.7347 219.181 66.1823 218.352L91.489 203.893C92.3024 203.489 93.2003 203.278 94.1108 203.278C95.0214 203.278 95.9193 203.489 96.7326 203.893L133.802 225.031C135.25 225.861 135.25 227.2 133.802 228.03L108.495 242.488C107.683 242.897 106.785 243.111 105.873 243.111C104.962 243.111 104.064 242.897 103.252 242.488Z" fill="url(#paint4_linear_83_196)"/>
<path d="M133.842 226.27L96.7731 205.133C95.9612 204.724 95.0627 204.511 94.1513 204.511C93.2399 204.511 92.3414 204.724 91.5295 205.133L66.2227 219.581C65.8394 219.786 65.5234 220.095 65.3117 220.471C64.9372 219.741 65.2206 218.931 66.2227 218.362L91.5295 203.903C92.3428 203.499 93.2407 203.288 94.1513 203.288C95.0618 203.288 95.9598 203.499 96.7731 203.903L133.842 225.041C134.855 225.611 135.128 226.43 134.753 227.15C134.541 226.777 134.225 226.472 133.842 226.27Z" fill="#91AFFF"/>
<g opacity="0.11">
<mask id="mask0_83_196" style="mask-type:luminance" maskUnits="userSpaceOnUse" x="108" y="9" width="182" height="209">
<path d="M128.842 9.72876L289.924 101.587L269.942 217.902L108.981 126.104L128.842 9.72876Z" fill="white"/>
</mask>
<g mask="url(#mask0_83_196)">
<path d="M105.722 130.783L271.127 225.111C272.05 225.614 273.08 225.899 274.134 225.942C275.188 225.985 276.237 225.786 277.2 225.361L375.907 169.068C377.476 168.178 377.273 166.618 375.461 165.579L210.056 71.2509C209.133 70.7476 208.103 70.463 207.049 70.4197C205.995 70.3763 204.946 70.5753 203.983 71.0009L105.276 127.294C103.707 128.183 103.91 129.743 105.722 130.783Z" fill="url(#paint5_linear_83_196)"/>
<path d="M271.612 147.691L234.553 126.554C233.106 125.734 233.106 124.394 234.553 123.554L259.86 109.106C260.672 108.697 261.57 108.484 262.482 108.484C263.393 108.484 264.292 108.697 265.104 109.106L302.163 130.233C303.61 131.063 303.61 132.403 302.163 133.233L276.856 147.681C276.044 148.09 275.147 148.304 274.235 148.306C273.324 148.308 272.426 148.097 271.612 147.691Z" fill="url(#paint6_linear_83_196)"/>
<path d="M302.203 131.473L265.144 110.336C264.332 109.927 263.434 109.713 262.522 109.713C261.611 109.713 260.712 109.927 259.901 110.336L234.594 124.784C234.212 124.991 233.897 125.3 233.683 125.674C233.298 124.954 233.592 124.134 234.594 123.564L259.901 109.116C260.712 108.707 261.611 108.494 262.522 108.494C263.434 108.494 264.332 108.707 265.144 109.116L302.203 130.243C303.216 130.823 303.499 131.633 303.114 132.353C302.902 131.98 302.586 131.674 302.203 131.473Z" fill="#91AFFF"/>
<path d="M318.501 180.727L181.045 102.337C180.595 102.082 180.085 101.947 179.567 101.947C179.048 101.947 178.538 102.082 178.089 102.337L129.135 130.333C128.964 130.415 128.82 130.543 128.719 130.702C128.618 130.861 128.564 131.045 128.564 131.233C128.564 131.421 128.618 131.605 128.719 131.764C128.82 131.923 128.964 132.051 129.135 132.133L266.531 210.483C266.981 210.738 267.49 210.872 268.009 210.872C268.527 210.872 269.037 210.738 269.487 210.483L318.501 182.546C318.678 182.467 318.827 182.339 318.932 182.178C319.038 182.016 319.093 181.828 319.093 181.637C319.093 181.445 319.038 181.257 318.932 181.096C318.827 180.934 318.678 180.806 318.501 180.727Z" fill="#ADC8FF"/>
<path d="M318.501 182.526L318.005 182.806L181.045 104.707C180.597 104.446 180.086 104.309 179.567 104.309C179.047 104.309 178.537 104.446 178.089 104.707L129.631 132.393L129.135 132.113C128.964 132.031 128.82 131.903 128.719 131.744C128.618 131.585 128.564 131.401 128.564 131.213C128.564 131.025 128.618 130.841 128.719 130.682C128.82 130.523 128.964 130.395 129.135 130.313L178.089 102.317C178.538 102.062 179.048 101.927 179.567 101.927C180.085 101.927 180.595 102.062 181.045 102.317L318.501 180.707C318.678 180.786 318.827 180.914 318.932 181.076C319.038 181.237 319.093 181.425 319.093 181.617C319.093 181.808 319.038 181.996 318.932 182.158C318.827 182.319 318.678 182.447 318.501 182.526Z" fill="#91AFFF"/>
<path d="M141.941 128.394L261.692 196.685L256.945 199.394L137.203 131.103L141.941 128.394Z" fill="#242993"/>
<path d="M154.564 121.204L268.383 186.106L263.636 188.816L149.816 123.904L154.564 121.204Z" fill="#242993"/>
<path d="M276.876 190.955L287.505 197.015L282.768 199.724L272.129 193.665L276.876 190.955Z" fill="#242993"/>
<path d="M267.493 199.994L274.892 204.214L270.145 206.913L262.745 202.694L267.493 199.994Z" fill="#242993"/>
<path d="M162.469 116.695L295.411 192.505L290.674 195.215L157.722 119.405L162.469 116.695Z" fill="#242993"/>
<path d="M170.375 112.186L303.317 188.006L298.579 190.705L165.628 114.895L170.375 112.186Z" fill="#242993"/>
<path d="M178.281 107.676L311.223 183.496L306.485 186.196L173.534 110.386L178.281 107.676Z" fill="#242993"/>
</g>
</g>
<path opacity="0.42" d="M182.3 216.532L217.932 194.875L137.821 149.191L100.012 174.287L182.3 216.532Z" fill="url(#paint7_radial_83_196)"/>
<path opacity="0.42" d="M217.932 194.875L226.101 143.941L150.919 101.347V156.55L217.932 194.875Z" fill="url(#paint8_radial_83_196)"/>
<path d="M143.054 76.6101L151 72.0907C151.061 72.0524 151.131 72.032 151.203 72.032C151.275 72.032 151.345 72.0524 151.405 72.0907L251.063 128.913C251.241 129.041 251.387 129.208 251.489 129.4C251.59 129.593 251.646 129.806 251.651 130.023V148.611C251.657 148.691 251.646 148.772 251.618 148.848C251.59 148.924 251.546 148.993 251.489 149.051L243.461 153.62L243.4 144.621L151.436 92.1781C151.254 92.0509 151.105 91.8832 151.002 91.6886C150.898 91.4941 150.842 91.2781 150.838 91.0582V84.6891L143.054 76.6101Z" fill="url(#paint9_linear_83_196)"/>
<path d="M143.449 96.7875L243.107 153.63C243.431 153.81 243.694 153.63 243.694 153.19V134.603C243.692 134.385 243.637 134.171 243.535 133.978C243.433 133.785 243.287 133.619 243.107 133.493L143.449 76.6601C143.125 76.4701 142.852 76.6601 142.852 77.1V95.6776C142.856 95.8959 142.912 96.1102 143.016 96.303C143.12 96.4959 143.268 96.6618 143.449 96.7875Z" fill="url(#paint10_linear_83_196)"/>
<path opacity="0.6" d="M157.155 93.0278L234.756 138.092C232.297 140.198 230.037 142.521 228.004 145.031L149.826 100.447C152.015 97.7412 154.47 95.2561 157.155 93.0278Z" fill="#242993"/>
<path d="M146.253 91.2082L240.222 144.801C240.445 144.931 240.627 144.801 240.627 144.501V139.832C240.621 139.683 240.581 139.538 240.511 139.407C240.441 139.275 240.342 139.161 240.222 139.072L146.253 85.479C146.03 85.349 145.848 85.479 145.848 85.7789V90.4483C145.854 90.5967 145.894 90.7419 145.964 90.8734C146.034 91.0048 146.132 91.1192 146.253 91.2082Z" fill="#242993"/>
<path d="M146.253 85.4789L148.156 86.5688V89.0885C148.162 89.2369 148.202 89.3821 148.272 89.5135C148.342 89.645 148.44 89.7594 148.561 89.8484L240.627 142.352V144.501C240.627 144.791 240.445 144.931 240.222 144.801L146.253 91.2082C146.132 91.1192 146.034 91.0048 145.964 90.8734C145.894 90.7419 145.854 90.5967 145.848 90.4483V85.7789C145.848 85.4889 146.03 85.349 146.253 85.4789Z" fill="#4553C7"/>
<path opacity="0.96" d="M93.4528 292.292L15.2752 247.708C25.3979 241.949 33.8605 229.36 36.4519 217.322C36.9604 214.911 37.9755 212.631 39.4314 210.632C40.8874 208.632 42.7518 206.957 44.9043 205.713L103.97 172.028C112.081 167.423 118.907 160.902 123.836 153.049C128.765 145.196 131.644 136.256 132.213 127.034C133.154 111.216 145.261 95.6576 154.665 90.2983L232.853 134.913C223.601 140.192 213.407 154.91 212.243 170.488C211.632 179.705 208.743 188.634 203.831 196.493C198.918 204.353 192.13 210.903 184.061 215.572L123.082 250.298C120.932 251.54 119.069 253.214 117.615 255.212C116.161 257.21 115.147 259.487 114.64 261.896C112.038 273.894 103.505 286.523 93.4528 292.272V292.292Z" fill="url(#paint11_linear_83_196)"/>
<path opacity="0.8" d="M154.675 90.2783L232.853 134.913C232.225 135.262 231.608 135.652 230.99 136.052L152.812 91.4682C153.43 91.0282 154.047 90.6383 154.675 90.2783Z" fill="#4553C7"/>
<path d="M79.7872 128.783H104.73V181.396C104.73 183.216 103.505 185.036 101.075 186.396C96.2062 189.175 88.3105 189.175 83.4415 186.396C81.0019 185.006 79.7872 183.186 79.7872 181.396V128.783Z" fill="url(#paint12_linear_83_196)"/>
<path d="M79.7872 128.783H104.73V181.396C104.73 183.216 103.505 185.036 101.075 186.396C96.2062 189.175 88.3105 189.175 83.4415 186.396C81.0019 185.006 79.7872 183.186 79.7872 181.396V128.783Z" fill="url(#paint13_linear_83_196)"/>
<path d="M83.4415 133.813C88.3105 136.592 96.2062 136.592 101.075 133.813C105.944 131.033 105.944 126.534 101.075 123.754C96.2062 120.974 88.3105 120.974 83.4415 123.754C78.5724 126.534 78.5724 131.033 83.4415 133.813Z" fill="url(#paint14_linear_83_196)"/>
<path opacity="0.3" d="M86.5694 132.033C88.3326 132.916 90.2816 133.376 92.2584 133.376C94.2351 133.376 96.1841 132.916 97.9473 132.033C101.095 130.233 101.095 127.334 97.9473 125.534C96.1841 124.651 94.2351 124.191 92.2584 124.191C90.2816 124.191 88.3326 124.651 86.5694 125.534C83.4212 127.334 83.4212 130.233 86.5694 132.033Z" fill="url(#paint15_linear_83_196)"/>
<path opacity="0.5" d="M83.4415 133.283C88.3105 136.062 96.2062 136.062 101.075 133.283C103.393 131.963 104.598 130.283 104.709 128.523C104.831 130.423 103.626 132.353 101.075 133.812C96.2062 136.592 88.3105 136.592 83.4415 133.812C80.8906 132.353 79.686 130.423 79.8074 128.523C79.9188 130.253 81.1234 131.963 83.4415 133.283Z" fill="white"/>
<path d="M79.7872 117.355H104.73V122.154C104.73 123.974 103.505 125.794 101.075 127.153C96.2062 129.933 88.3105 129.933 83.4415 127.153C81.0019 125.764 79.7872 123.944 79.7872 122.154V117.355Z" fill="url(#paint16_linear_83_196)"/>
<path d="M79.7872 117.355H104.73V122.154C104.73 123.974 103.505 125.794 101.075 127.153C96.2062 129.933 88.3105 129.933 83.4415 127.153C81.0019 125.764 79.7872 123.944 79.7872 122.154V117.355Z" fill="url(#paint17_linear_83_196)"/>
<path d="M92.2583 124.454C99.146 124.454 104.73 121.271 104.73 117.345C104.73 113.418 99.146 110.236 92.2583 110.236C85.3707 110.236 79.7872 113.418 79.7872 117.345C79.7872 121.271 85.3707 124.454 92.2583 124.454Z" fill="url(#paint18_linear_83_196)"/>
<path opacity="0.5" d="M83.4415 121.854C88.3105 124.634 96.2062 124.634 101.075 121.854C103.393 120.534 104.598 118.854 104.709 117.085C104.831 118.994 103.626 120.924 101.075 122.384C96.2062 125.154 88.3105 125.154 83.4415 122.384C80.8906 120.924 79.686 118.994 79.8074 117.085C79.9188 118.824 81.1234 120.534 83.4415 121.854Z" fill="white"/>
<path d="M100.407 158.069H125.349V193.145C125.349 194.965 124.135 196.784 121.695 198.144C116.826 200.924 108.93 200.924 104.061 198.144C101.622 196.754 100.407 194.935 100.407 193.145V158.069Z" fill="url(#paint19_linear_83_196)"/>
<path d="M100.407 158.069H125.349V193.145C125.349 194.965 124.135 196.784 121.695 198.144C116.826 200.924 108.93 200.924 104.061 198.144C101.622 196.754 100.407 194.935 100.407 193.145V158.069Z" fill="url(#paint20_linear_83_196)"/>
<path d="M104.061 163.099C108.93 165.868 116.826 165.868 121.695 163.099C126.564 160.329 126.564 155.82 121.695 153.04C116.826 150.26 108.93 150.26 104.061 153.04C99.1924 155.82 99.1924 160.319 104.061 163.099Z" fill="url(#paint21_linear_83_196)"/>
<path opacity="0.5" d="M104.061 162.569C108.93 165.349 116.826 165.349 121.695 162.569C124.013 161.249 125.218 159.569 125.329 157.8C125.451 159.709 124.246 161.639 121.695 163.099C116.826 165.869 108.93 165.869 104.061 163.099C101.511 161.639 100.306 159.709 100.427 157.8C100.539 159.529 101.743 161.249 104.061 162.569Z" fill="white"/>
<path d="M121.027 151.85H145.969V204.903C145.969 206.723 144.755 208.543 142.315 209.903C137.446 212.672 129.55 212.672 124.681 209.903C122.242 208.513 121.027 206.693 121.027 204.903V151.85Z" fill="url(#paint22_linear_83_196)"/>
<path d="M121.027 151.85H145.969V204.903C145.969 206.723 144.755 208.543 142.315 209.903C137.446 212.672 129.55 212.672 124.681 209.903C122.242 208.513 121.027 206.693 121.027 204.903V151.85Z" fill="url(#paint23_linear_83_196)"/>
<path d="M124.681 156.91C129.55 159.689 137.446 159.689 142.315 156.91C147.184 154.13 147.184 149.63 142.315 146.851C137.446 144.071 129.55 144.071 124.681 146.851C119.812 149.63 119.812 154.1 124.681 156.91Z" fill="url(#paint24_linear_83_196)"/>
<path opacity="0.5" d="M124.681 156.35C129.55 159.129 137.446 159.129 142.315 156.35C144.633 155.03 145.838 153.35 145.949 151.59C146.071 153.49 144.866 155.42 142.315 156.88C137.446 159.659 129.55 159.659 124.681 156.88C122.13 155.42 120.926 153.49 121.047 151.59C121.179 153.32 122.363 155.03 124.681 156.35Z" fill="white"/>
<path d="M141.647 173.157H166.589V216.632C166.589 218.452 165.375 220.281 162.935 221.631C158.066 224.411 150.17 224.411 145.301 221.631C142.862 220.251 141.647 218.422 141.647 216.632V173.157Z" fill="url(#paint25_linear_83_196)"/>
<path d="M141.647 173.157H166.589V216.632C166.589 218.452 165.375 220.281 162.935 221.631C158.066 224.411 150.17 224.411 145.301 221.631C142.862 220.251 141.647 218.422 141.647 216.632V173.157Z" fill="url(#paint26_linear_83_196)"/>
<path d="M145.301 178.187C150.17 180.967 158.066 180.967 162.935 178.187C167.804 175.407 167.804 170.908 162.935 168.128C158.066 165.349 150.17 165.349 145.301 168.128C140.432 170.908 140.412 175.407 145.301 178.187Z" fill="url(#paint27_linear_83_196)"/>
<path opacity="0.5" d="M145.301 177.657C150.17 180.436 158.066 180.436 162.935 177.657C165.253 176.337 166.458 174.657 166.569 172.897C166.691 174.797 165.486 176.727 162.935 178.187C158.066 180.966 150.17 180.966 145.301 178.187C142.75 176.727 141.546 174.797 141.667 172.897C141.779 174.627 142.983 176.337 145.301 177.657Z" fill="white"/>
<path d="M162.267 195.625H187.209V228.38C187.209 230.2 185.995 232.02 183.555 233.38C178.686 236.159 170.79 236.159 165.921 233.38C163.482 231.99 162.267 230.17 162.267 228.38V195.625Z" fill="url(#paint28_linear_83_196)"/>
<path d="M162.267 195.625H187.209V228.38C187.209 230.2 185.995 232.02 183.555 233.38C178.686 236.159 170.79 236.159 165.921 233.38C163.482 231.99 162.267 230.17 162.267 228.38V195.625Z" fill="url(#paint29_linear_83_196)"/>
<path d="M165.921 200.654C170.79 203.424 178.686 203.424 183.555 200.654C188.424 197.884 188.424 193.375 183.555 190.595C178.686 187.816 170.79 187.816 165.921 190.595C161.052 193.375 161.052 197.904 165.921 200.654Z" fill="url(#paint30_linear_83_196)"/>
<path opacity="0.5" d="M165.921 200.124C170.79 202.904 178.686 202.904 183.555 200.124C185.873 198.804 187.078 197.125 187.189 195.355C187.311 197.264 186.106 199.194 183.555 200.654C178.686 203.424 170.79 203.424 165.921 200.654C163.37 199.194 162.166 197.264 162.287 195.355C162.399 197.095 163.603 198.804 165.921 200.124Z" fill="white"/>
<path d="M274.599 107.306L277.008 108.826L277.291 107.066L274.882 105.556L274.599 107.306Z" fill="#42FFFF"/>
<path d="M272.665 119.194L275.074 120.714L276.745 110.426L274.336 108.916L272.665 119.194Z" fill="#42FFFF"/>
<path d="M271.744 124.884L274.153 126.393L274.821 122.314L272.412 120.794L271.744 124.884Z" fill="#42FFFF"/>
<path d="M270.793 130.773L273.202 132.293L273.86 128.203L271.451 126.694L270.793 130.773Z" fill="#42FFFF"/>
<path d="M270.084 110.736L272.493 112.256L273.161 108.166L270.752 106.656L270.084 110.736Z" fill="#42FFFF"/>
<path d="M268.819 118.545L271.228 120.054L272.2 114.065L269.79 112.545L268.819 118.545Z" fill="#42FFFF"/>
<path d="M267.644 125.724L270.064 127.243L270.894 122.094L268.485 120.584L267.644 125.724Z" fill="#42FFFF"/>
<path d="M269.831 136.672L272.24 138.182L272.908 134.103L270.499 132.583L269.831 136.672Z" fill="#42FFFF"/>
<path d="M271.005 105.046L273.414 106.566L273.698 104.806L271.289 103.297L271.005 105.046Z" fill="#42FFFF"/>
<path d="M267.108 141.252L271.309 143.901L271.592 142.191L267.381 139.552L267.108 141.252Z" fill="#42FFFF"/>
</g>
<defs>
<linearGradient id="paint0_linear_83_196" x1="298.59" y1="113.015" x2="105.549" y2="113.015" gradientUnits="userSpaceOnUse">
<stop stop-color="#C0D6FF"/>
<stop offset="0.3" stop-color="#C5DBFF"/>
<stop offset="0.65" stop-color="#D3E9FF"/>
<stop offset="1" stop-color="#E9FFFF"/>
</linearGradient>
<linearGradient id="paint1_linear_83_196" x1="298.589" y1="161.909" x2="265.438" y2="161.909" gradientUnits="userSpaceOnUse">
<stop stop-color="#5778FF"/>
<stop offset="0.18" stop-color="#5C7DFF"/>
<stop offset="0.39" stop-color="#6A8AFF"/>
<stop offset="0.61" stop-color="#82A0FF"/>
<stop offset="0.85" stop-color="#A3BEFF"/>
<stop offset="1" stop-color="#BCD5FF"/>
</linearGradient>
<linearGradient id="paint2_linear_83_196" x1="272.726" y1="216.882" x2="0.091095" y2="216.882" gradientUnits="userSpaceOnUse">
<stop stop-color="#5778FF"/>
<stop offset="0.18" stop-color="#5C7DFF"/>
<stop offset="0.39" stop-color="#6A8AFF"/>
<stop offset="0.61" stop-color="#82A0FF"/>
<stop offset="0.85" stop-color="#A3BEFF"/>
<stop offset="1" stop-color="#BCD5FF"/>
</linearGradient>
<linearGradient id="paint3_linear_83_196" x1="181.116" y1="207.903" x2="-91.661" y2="207.903" gradientUnits="userSpaceOnUse">
<stop stop-color="#C0D6FF"/>
<stop offset="0.3" stop-color="#C5DBFF"/>
<stop offset="0.65" stop-color="#D3E9FF"/>
<stop offset="1" stop-color="#E9FFFF"/>
</linearGradient>
<linearGradient id="paint4_linear_83_196" x1="134.926" y1="223.201" x2="65.0991" y2="223.201" gradientUnits="userSpaceOnUse">
<stop stop-color="#C0D6FF"/>
<stop offset="0.3" stop-color="#C5DBFF"/>
<stop offset="0.65" stop-color="#D3E9FF"/>
<stop offset="1" stop-color="#E9FFFF"/>
</linearGradient>
<linearGradient id="paint5_linear_83_196" x1="285.339" y1="148.181" x2="12.5522" y2="148.181" gradientUnits="userSpaceOnUse">
<stop stop-color="#C0D6FF"/>
<stop offset="0.3" stop-color="#C5DBFF"/>
<stop offset="0.65" stop-color="#D3E9FF"/>
<stop offset="1" stop-color="#E9FFFF"/>
</linearGradient>
<linearGradient id="paint6_linear_83_196" x1="303.297" y1="128.403" x2="233.47" y2="128.403" gradientUnits="userSpaceOnUse">
<stop stop-color="#C0D6FF"/>
<stop offset="0.3" stop-color="#C5DBFF"/>
<stop offset="0.65" stop-color="#D3E9FF"/>
<stop offset="1" stop-color="#E9FFFF"/>
</linearGradient>
<radialGradient id="paint7_radial_83_196" cx="0" cy="0" r="1" gradientUnits="userSpaceOnUse" gradientTransform="translate(193.273 182.866) rotate(180) scale(78.1979 77.24)">
<stop stop-color="#2B3AA5"/>
<stop offset="1" stop-color="#182484"/>
</radialGradient>
<radialGradient id="paint8_radial_83_196" cx="0" cy="0" r="1" gradientUnits="userSpaceOnUse" gradientTransform="translate(210.37 148.111) rotate(180) scale(59.8556 59.1223)">
<stop stop-color="#2B3AA5"/>
<stop offset="1" stop-color="#182484"/>
</radialGradient>
<linearGradient id="paint9_linear_83_196" x1="231.921" y1="165.179" x2="180.179" y2="70.8593" gradientUnits="userSpaceOnUse">
<stop stop-color="#5778FF"/>
<stop offset="0.04" stop-color="#5C7DFF"/>
<stop offset="0.09" stop-color="#6A8AFF"/>
<stop offset="0.14" stop-color="#82A0FF"/>
<stop offset="0.19" stop-color="#A3BEFF"/>
<stop offset="0.22" stop-color="#BCD5FF"/>
</linearGradient>
<linearGradient id="paint10_linear_83_196" x1="167.146" y1="165.519" x2="201.561" y2="97.4034" gradientUnits="userSpaceOnUse">
<stop stop-color="#C0D6FF"/>
<stop offset="0.3" stop-color="#C5DBFF"/>
<stop offset="0.65" stop-color="#D3E9FF"/>
<stop offset="1" stop-color="#E9FFFF"/>
</linearGradient>
<linearGradient id="paint11_linear_83_196" x1="72.2863" y1="287.333" x2="181.756" y2="90.953" gradientUnits="userSpaceOnUse">
<stop stop-color="#C0D6FF"/>
<stop offset="0.08" stop-color="#C3D9FF"/>
<stop offset="0.13" stop-color="#CCE2FF"/>
<stop offset="0.18" stop-color="#DCF2FF"/>
<stop offset="0.21" stop-color="#E9FFFF"/>
<stop offset="0.26" stop-color="#D8EEFF"/>
<stop offset="0.31" stop-color="#CBE1FF"/>
<stop offset="0.39" stop-color="#C2D8FF"/>
<stop offset="0.51" stop-color="#C0D6FF"/>
<stop offset="0.62" stop-color="#D0E6FF"/>
<stop offset="0.75" stop-color="#E9FFFF"/>
<stop offset="1" stop-color="#C0D6FF"/>
</linearGradient>
<linearGradient id="paint12_linear_83_196" x1="104.73" y1="158.649" x2="79.9289" y2="158.649" gradientUnits="userSpaceOnUse">
<stop stop-color="#C0D6FF"/>
<stop offset="0.5" stop-color="#D2E8FF"/>
<stop offset="1" stop-color="#E9FFFF"/>
</linearGradient>
<linearGradient id="paint13_linear_83_196" x1="132.516" y1="158.649" x2="84.5955" y2="158.649" gradientUnits="userSpaceOnUse">
<stop stop-color="#5778FF"/>
<stop offset="0.18" stop-color="#5C7DFF"/>
<stop offset="0.39" stop-color="#6A8AFF"/>
<stop offset="0.61" stop-color="#82A0FF"/>
<stop offset="0.85" stop-color="#A3BEFF"/>
<stop offset="1" stop-color="#BCD5FF"/>
</linearGradient>
<linearGradient id="paint14_linear_83_196" x1="93.4321" y1="123.759" x2="84.7952" y2="138.973" gradientUnits="userSpaceOnUse">
<stop stop-color="#C0D6FF"/>
<stop offset="0.3" stop-color="#C5DBFF"/>
<stop offset="0.65" stop-color="#D3E9FF"/>
<stop offset="1" stop-color="#E9FFFF"/>
</linearGradient>
<linearGradient id="paint15_linear_83_196" x1="90.2881" y1="125.544" x2="84.7119" y2="135.367" gradientUnits="userSpaceOnUse">
<stop stop-color="#5778FF"/>
<stop offset="0.18" stop-color="#5C7DFF"/>
<stop offset="0.39" stop-color="#6A8AFF"/>
<stop offset="0.61" stop-color="#82A0FF"/>
<stop offset="0.85" stop-color="#A3BEFF"/>
<stop offset="1" stop-color="#BCD5FF"/>
</linearGradient>
<linearGradient id="paint16_linear_83_196" x1="104.73" y1="123.314" x2="79.9289" y2="123.314" gradientUnits="userSpaceOnUse">
<stop stop-color="#C0D6FF"/>
<stop offset="0.5" stop-color="#D2E8FF"/>
<stop offset="1" stop-color="#E9FFFF"/>
</linearGradient>
<linearGradient id="paint17_linear_83_196" x1="132.516" y1="123.314" x2="84.5955" y2="123.314" gradientUnits="userSpaceOnUse">
<stop stop-color="#5778FF"/>
<stop offset="0.18" stop-color="#5C7DFF"/>
<stop offset="0.39" stop-color="#6A8AFF"/>
<stop offset="0.61" stop-color="#82A0FF"/>
<stop offset="0.85" stop-color="#A3BEFF"/>
<stop offset="1" stop-color="#BCD5FF"/>
</linearGradient>
<linearGradient id="paint18_linear_83_196" x1="93.4321" y1="112.32" x2="84.7952" y2="127.535" gradientUnits="userSpaceOnUse">
<stop stop-color="#C0D6FF"/>
<stop offset="0.3" stop-color="#C5DBFF"/>
<stop offset="0.65" stop-color="#D3E9FF"/>
<stop offset="1" stop-color="#E9FFFF"/>
</linearGradient>
<linearGradient id="paint19_linear_83_196" x1="125.35" y1="179.167" x2="100.549" y2="179.167" gradientUnits="userSpaceOnUse">
<stop stop-color="#C0D6FF"/>
<stop offset="0.5" stop-color="#D2E8FF"/>
<stop offset="1" stop-color="#E9FFFF"/>
</linearGradient>
<linearGradient id="paint20_linear_83_196" x1="153.146" y1="179.167" x2="105.215" y2="179.167" gradientUnits="userSpaceOnUse">
<stop stop-color="#5778FF"/>
<stop offset="0.18" stop-color="#5C7DFF"/>
<stop offset="0.39" stop-color="#6A8AFF"/>
<stop offset="0.61" stop-color="#82A0FF"/>
<stop offset="0.85" stop-color="#A3BEFF"/>
<stop offset="1" stop-color="#BCD5FF"/>
</linearGradient>
<linearGradient id="paint21_linear_83_196" x1="114.146" y1="153.045" x2="105.509" y2="168.26" gradientUnits="userSpaceOnUse">
<stop stop-color="#C0D6FF"/>
<stop offset="0.3" stop-color="#C5DBFF"/>
<stop offset="0.65" stop-color="#D3E9FF"/>
<stop offset="1" stop-color="#E9FFFF"/>
</linearGradient>
<linearGradient id="paint22_linear_83_196" x1="145.969" y1="181.926" x2="121.169" y2="181.926" gradientUnits="userSpaceOnUse">
<stop stop-color="#C0D6FF"/>
<stop offset="0.5" stop-color="#D2E8FF"/>
<stop offset="1" stop-color="#E9FFFF"/>
</linearGradient>
<linearGradient id="paint23_linear_83_196" x1="173.766" y1="181.926" x2="125.846" y2="181.926" gradientUnits="userSpaceOnUse">
<stop stop-color="#5778FF"/>
<stop offset="0.18" stop-color="#5C7DFF"/>
<stop offset="0.39" stop-color="#6A8AFF"/>
<stop offset="0.61" stop-color="#82A0FF"/>
<stop offset="0.85" stop-color="#A3BEFF"/>
<stop offset="1" stop-color="#BCD5FF"/>
</linearGradient>
<linearGradient id="paint24_linear_83_196" x1="134.859" y1="146.826" x2="126.222" y2="162.04" gradientUnits="userSpaceOnUse">
<stop stop-color="#C0D6FF"/>
<stop offset="0.3" stop-color="#C5DBFF"/>
<stop offset="0.65" stop-color="#D3E9FF"/>
<stop offset="1" stop-color="#E9FFFF"/>
</linearGradient>
<linearGradient id="paint25_linear_83_196" x1="166.589" y1="198.454" x2="141.789" y2="198.454" gradientUnits="userSpaceOnUse">
<stop stop-color="#C0D6FF"/>
<stop offset="0.5" stop-color="#D2E8FF"/>
<stop offset="1" stop-color="#E9FFFF"/>
</linearGradient>
<linearGradient id="paint26_linear_83_196" x1="194.386" y1="198.454" x2="146.465" y2="198.454" gradientUnits="userSpaceOnUse">
<stop stop-color="#5778FF"/>
<stop offset="0.18" stop-color="#5C7DFF"/>
<stop offset="0.39" stop-color="#6A8AFF"/>
<stop offset="0.61" stop-color="#82A0FF"/>
<stop offset="0.85" stop-color="#A3BEFF"/>
<stop offset="1" stop-color="#BCD5FF"/>
</linearGradient>
<linearGradient id="paint27_linear_83_196" x1="155.573" y1="168.133" x2="146.936" y2="183.348" gradientUnits="userSpaceOnUse">
<stop stop-color="#C0D6FF"/>
<stop offset="0.3" stop-color="#C5DBFF"/>
<stop offset="0.65" stop-color="#D3E9FF"/>
<stop offset="1" stop-color="#E9FFFF"/>
</linearGradient>
<linearGradient id="paint28_linear_83_196" x1="187.209" y1="215.562" x2="162.419" y2="215.562" gradientUnits="userSpaceOnUse">
<stop stop-color="#C0D6FF"/>
<stop offset="0.5" stop-color="#D2E8FF"/>
<stop offset="1" stop-color="#E9FFFF"/>
</linearGradient>
<linearGradient id="paint29_linear_83_196" x1="215.006" y1="215.562" x2="167.085" y2="215.562" gradientUnits="userSpaceOnUse">
<stop stop-color="#5778FF"/>
<stop offset="0.18" stop-color="#5C7DFF"/>
<stop offset="0.39" stop-color="#6A8AFF"/>
<stop offset="0.61" stop-color="#82A0FF"/>
<stop offset="0.85" stop-color="#A3BEFF"/>
<stop offset="1" stop-color="#BCD5FF"/>
</linearGradient>
<linearGradient id="paint30_linear_83_196" x1="176.295" y1="190.595" x2="167.658" y2="205.81" gradientUnits="userSpaceOnUse">
<stop stop-color="#C0D6FF"/>
<stop offset="0.3" stop-color="#C5DBFF"/>
<stop offset="0.65" stop-color="#D3E9FF"/>
<stop offset="1" stop-color="#E9FFFF"/>
</linearGradient>
<clipPath id="clip0_83_196">
<rect width="377" height="308" fill="white"/>
</clipPath>
</defs>
</svg>
