<svg width="321" height="300" viewBox="0 0 321 300" fill="none" xmlns="http://www.w3.org/2000/svg">
<g clip-path="url(#clip0_83_497)">
<g opacity="0.67">
<path d="M79.1753 255.494C114.882 255.494 143.828 238.966 143.828 218.577C143.828 198.187 114.882 181.659 79.1753 181.659C43.4688 181.659 14.5229 198.187 14.5229 218.577C14.5229 238.966 43.4688 255.494 79.1753 255.494Z" fill="#242993"/>
</g>
<path d="M158.364 190.738V173.365H152.293C147.682 167.367 141.846 162.396 135.164 158.778C104.24 141.117 54.1106 141.117 23.1865 158.778C16.5092 162.398 10.6776 167.368 6.07107 173.365H0V190.751C0 202.316 7.73766 213.893 23.1997 222.711C54.1106 240.372 104.253 240.372 135.164 222.711C150.626 213.893 158.364 202.316 158.364 190.738Z" fill="url(#paint0_linear_83_497)"/>
<path d="M79.1753 218.577C122.903 218.577 158.351 198.335 158.351 173.365C158.351 148.395 122.903 128.153 79.1753 128.153C35.448 128.153 0 148.395 0 173.365C0 198.335 35.448 218.577 79.1753 218.577Z" fill="#BCD5FF"/>
<path d="M152.306 172.658V148.993H146.698C142.428 143.44 137.019 138.844 130.826 135.505C102.269 119.205 55.9624 119.205 27.4058 135.505C21.2342 138.848 15.8476 143.444 11.5998 148.993H5.9917V172.658C5.9917 183.333 13.1341 194.022 27.4058 202.185C55.9624 218.485 102.269 218.485 130.826 202.185C145.164 194.074 152.306 183.386 152.306 172.658Z" fill="#242993"/>
<g opacity="0.51">
<path d="M152.306 166.994V143.276H146.698C142.423 137.731 137.015 133.14 130.826 129.801C102.269 113.488 55.9624 113.488 27.4058 129.801C21.238 133.144 15.8522 137.735 11.5998 143.276H5.9917V166.994C5.9917 177.682 13.1341 188.37 27.4058 196.52C55.9624 212.834 102.269 212.834 130.826 196.52C145.164 188.357 152.306 177.682 152.306 166.994Z" fill="#4553C7"/>
</g>
<path d="M79.1753 190.751C119.557 190.751 152.293 172.055 152.293 148.993C152.293 125.93 119.557 107.234 79.1753 107.234C38.7937 107.234 6.05786 125.93 6.05786 148.993C6.05786 172.055 38.7937 190.751 79.1753 190.751Z" fill="#BCD5FF"/>
<g opacity="0.51">
<path d="M129.622 179.723C117.057 195.552 100.523 204.016 86.45 208.503C102.692 207.588 118.512 203.585 130.958 196.481C145.23 188.331 152.372 177.643 152.372 166.955V159.864C143.528 164.919 135.793 171.671 129.622 179.723Z" fill="#5368D8"/>
</g>
<path d="M158.364 148.613V131.24H152.293C147.687 125.234 141.85 120.259 135.164 116.64C104.24 98.9795 54.1106 98.9795 23.1865 116.64C16.5043 120.259 10.6715 125.234 6.07107 131.24H0V148.613C0 160.178 7.73766 171.756 23.1997 180.586C54.1106 198.234 104.253 198.234 135.164 180.586C150.626 171.756 158.364 160.178 158.364 148.613Z" fill="url(#paint1_linear_83_497)"/>
<path d="M79.1753 176.439C122.903 176.439 158.351 156.197 158.351 131.227C158.351 106.257 122.903 86.0151 79.1753 86.0151C35.448 86.0151 0 106.257 0 131.227C0 156.197 35.448 176.439 79.1753 176.439Z" fill="#BCD5FF"/>
<path d="M152.306 129.696V105.939H146.698C142.43 100.388 137.021 95.7951 130.826 92.4646C102.269 76.1511 55.9624 76.1511 27.4059 92.4646C21.2562 95.8066 15.892 100.399 11.666 105.939H6.05786V129.657C6.05786 140.345 13.2003 151.033 27.472 159.184C56.0285 175.484 102.335 175.484 130.892 159.184C145.164 151.073 152.306 140.385 152.306 129.696Z" fill="#242993"/>
<g opacity="0.51">
<path d="M152.306 124.254V100.55H146.698C142.423 95.0049 137.015 90.4136 130.826 87.0749C102.269 70.7615 55.9624 70.7615 27.4058 87.0749C21.238 90.4176 15.8522 95.009 11.5998 100.55H5.9917V124.254C5.9917 134.943 13.1341 145.631 27.4058 153.781C55.9624 170.094 102.269 170.094 130.826 153.781C145.164 145.644 152.306 134.956 152.306 124.254Z" fill="#4553C7"/>
</g>
<path d="M79.1753 147.737C119.557 147.737 152.293 129.041 152.293 105.978C152.293 82.916 119.557 64.2202 79.1753 64.2202C38.7937 64.2202 6.05786 82.916 6.05786 105.978C6.05786 129.041 38.7937 147.737 79.1753 147.737Z" fill="#BCD5FF"/>
<g opacity="0.51">
<path d="M129.622 134.485C113.988 154.173 92.1772 162.454 76.7151 165.96C96.2511 166.34 115.999 162.31 130.945 153.794C145.216 145.644 152.359 134.956 152.359 124.267V114.678C143.52 119.714 135.789 126.448 129.622 134.485Z" fill="#5368D8"/>
</g>
<path d="M158.364 105.599V88.2262H152.293C147.687 82.2203 141.85 77.245 135.164 73.6265C104.24 55.9787 54.1106 55.9787 23.1865 73.6265C16.5043 77.2449 10.6715 82.2204 6.07107 88.2262H0V105.599C0 117.177 7.73766 128.742 23.1997 137.572C54.1106 155.233 104.253 155.233 135.164 137.572C150.626 128.742 158.364 117.177 158.364 105.599Z" fill="url(#paint2_linear_83_497)"/>
<path d="M79.1753 133.438C122.903 133.438 158.351 113.196 158.351 88.2261C158.351 63.2562 122.903 43.0142 79.1753 43.0142C35.448 43.0142 0 63.2562 0 88.2261C0 113.196 35.448 133.438 79.1753 133.438Z" fill="#BCD5FF"/>
<path d="M152.306 86.6823V62.9643H146.698C142.423 57.4197 137.015 52.8284 130.826 49.4897C102.269 33.1763 55.9624 33.1763 27.4058 49.4897C21.238 52.8324 15.8522 57.4238 11.5998 62.9643H5.9917V86.6823C5.9917 97.3704 13.1341 108.059 27.4058 116.209C55.9624 132.522 102.269 132.522 130.826 116.209C145.164 108.059 152.306 97.3704 152.306 86.6823Z" fill="#242993"/>
<g opacity="0.51">
<path d="M152.306 80.0497V56.3318H146.698C142.427 50.7836 137.018 46.1916 130.826 42.8572C102.269 26.5437 55.9624 26.5437 27.4058 42.8572C21.2323 46.1916 15.8449 50.7844 11.5998 56.3318H5.9917V80.0497C5.9917 90.7379 13.1341 101.426 27.4058 109.576C55.9624 125.89 102.269 125.89 130.826 109.576C145.164 101.426 152.306 90.7379 152.306 80.0497Z" fill="#4553C7"/>
</g>
<path d="M79.1753 104.723C119.557 104.723 152.293 86.0267 152.293 62.9643C152.293 39.9019 119.557 21.2061 79.1753 21.2061C38.7937 21.2061 6.05786 39.9019 6.05786 62.9643C6.05786 86.0267 38.7937 104.723 79.1753 104.723Z" fill="#BCD5FF"/>
<path d="M158.364 62.585V45.2119H152.293C147.682 39.2138 141.846 34.2436 135.164 30.6253C104.24 12.9644 54.1106 12.9644 23.1865 30.6253C16.5051 34.2393 10.6723 39.2103 6.07107 45.2119H0V62.585C0 74.1627 7.73766 85.7274 23.1997 94.5578C54.1106 112.219 104.253 112.219 135.164 94.5578C150.626 85.7404 158.364 74.1627 158.364 62.585Z" fill="url(#paint3_linear_83_497)"/>
<path d="M79.1753 90.4239C122.903 90.4239 158.351 70.1818 158.351 45.2119C158.351 20.2421 122.903 0 79.1753 0C35.448 0 0 20.2421 0 45.2119C0 70.1818 35.448 90.4239 79.1753 90.4239Z" fill="#BCD5FF"/>
<path d="M79.1753 90.4239C122.903 90.4239 158.351 70.1818 158.351 45.2119C158.351 20.2421 122.903 0 79.1753 0C35.448 0 0 20.2421 0 45.2119C0 70.1818 35.448 90.4239 79.1753 90.4239Z" fill="#BCD5FF"/>
<g opacity="0.51">
<path d="M129.622 89.2466C112.427 110.871 87.8256 118.747 72.4429 121.625C93.3544 122.737 114.94 118.721 130.958 109.576C145.23 101.426 152.372 90.7379 152.372 80.0498V69.4402C143.528 74.4745 135.793 81.209 129.622 89.2466Z" fill="#5368D8"/>
</g>
<path d="M158.364 62.585V45.2119H152.293C147.682 39.2138 141.846 34.2436 135.164 30.6253C104.24 12.9644 54.1106 12.9644 23.1865 30.6253C16.5051 34.2393 10.6723 39.2103 6.07107 45.2119H0V62.585C0 74.1627 7.73766 85.7274 23.1997 94.5578C54.1106 112.219 104.253 112.219 135.164 94.5578C150.626 85.7404 158.364 74.1627 158.364 62.585Z" fill="url(#paint4_linear_83_497)"/>
<path d="M79.1753 90.4239C122.903 90.4239 158.351 70.1818 158.351 45.2119C158.351 20.2421 122.903 0 79.1753 0C35.448 0 0 20.2421 0 45.2119C0 70.1818 35.448 90.4239 79.1753 90.4239Z" fill="#BCD5FF"/>
<path d="M79.1753 90.4239C122.903 90.4239 158.351 70.1818 158.351 45.2119C158.351 20.2421 122.903 0 79.1753 0C35.448 0 0 20.2421 0 45.2119C0 70.1818 35.448 90.4239 79.1753 90.4239Z" fill="#BCD5FF"/>
<path d="M135.614 75.8503C104.703 93.5112 54.5603 93.5112 23.6494 75.8503C4.70871 65.0444 -2.6057 50.1177 1.64008 36.1067C-3.53158 50.4971 3.63735 66.0648 23.1997 77.2239C54.1106 94.8848 104.253 94.8848 135.164 77.2239C147.161 70.3819 154.475 61.8916 157.16 53.0219C154.158 61.3552 146.989 69.3092 135.614 75.8503Z" fill="white"/>
<path d="M135.614 118.825C104.703 136.486 54.5603 136.486 23.6494 118.825C4.70871 108.006 -2.6057 93.0794 1.64008 79.0815C-3.53158 93.4719 3.63735 109.027 23.1997 120.199C54.1106 137.86 104.253 137.86 135.164 120.199C147.161 113.357 154.475 104.853 157.16 95.9968C154.158 104.356 146.989 112.336 135.614 118.825Z" fill="white"/>
<path d="M135.614 161.839C104.703 179.487 54.5603 179.487 23.6494 161.839C4.70871 151.02 -2.6057 136.094 1.64008 122.096C-3.53158 136.486 3.63735 152.041 23.1997 163.2C54.1106 180.861 104.253 180.861 135.164 163.2C147.161 156.345 154.475 147.854 157.16 138.998C154.158 147.37 146.989 155.351 135.614 161.839Z" fill="white"/>
<path d="M135.614 204.84C104.703 222.501 54.5603 222.501 23.6494 204.84C4.70871 194.034 -2.6057 179.108 1.64008 165.097C-3.53158 179.487 3.63735 195.042 23.1997 206.214C54.1106 223.875 104.253 223.875 135.164 206.214C147.161 199.372 154.475 190.882 157.16 182.012C154.158 190.384 146.989 198.352 135.614 204.84Z" fill="white"/>
<path opacity="0.78" d="M7.30117 64.194H79.1753V22.2134H10.9385C-2.30145 35.0862 -3.51831 50.8371 7.30117 64.194Z" fill="url(#paint5_linear_83_497)"/>
<path d="M119.834 40.9863V32.0643H116.713C114.348 28.9851 111.356 26.4313 107.93 24.5682C92.0582 15.5023 66.3057 15.5023 50.4336 24.5682C47.0078 26.4313 44.0157 28.9851 41.651 32.0643H38.5295V40.9863C38.5295 46.9256 42.4976 52.8649 50.4336 57.4044C66.3057 66.4704 92.045 66.4704 107.93 57.4044C115.866 52.8649 119.834 46.9256 119.834 40.9863Z" fill="url(#paint6_linear_83_497)"/>
<path d="M79.1753 55.2722C101.631 55.2722 119.834 44.8817 119.834 32.0644C119.834 19.2472 101.631 8.85669 79.1753 8.85669C56.72 8.85669 38.5163 19.2472 38.5163 32.0644C38.5163 44.8817 56.72 55.2722 79.1753 55.2722Z" fill="#BCD5FF"/>
<path d="M79.1753 55.2722C101.631 55.2722 119.834 44.8817 119.834 32.0644C119.834 19.2472 101.631 8.85669 79.1753 8.85669C56.72 8.85669 38.5163 19.2472 38.5163 32.0644C38.5163 44.8817 56.72 55.2722 79.1753 55.2722Z" fill="url(#paint7_linear_83_497)"/>
<path d="M98.5393 43.145C87.852 49.2544 70.5118 49.2544 59.8246 43.145C56.9491 41.6521 54.5598 39.3842 52.9334 36.604C50.1822 31.2795 57.0734 27.4465 64.4275 23.234C75.1147 17.1246 82.6936 15.6071 93.394 21.7165C100.735 25.9158 108.182 31.2795 105.43 36.5909C103.806 39.376 101.417 41.6485 98.5393 43.145Z" fill="#242993"/>
<path d="M59.8246 29.9321C70.5118 23.8358 87.8521 23.8358 98.5393 29.9321C101.41 31.427 103.794 33.6947 105.417 36.4731C108.182 31.1618 105.893 25.1571 98.5393 20.9577C87.8521 14.8614 70.5118 14.8614 59.8246 20.9577C52.4705 25.1571 50.1823 31.1618 52.9467 36.4731C54.5632 33.6898 56.9493 31.4205 59.8246 29.9321Z" fill="url(#paint8_linear_83_497)"/>
<g opacity="0.51">
<path d="M123.75 111.172C118.459 113.252 114.491 112.69 114.848 109.864C115.205 107.038 119.94 103.166 125.271 101.086C130.601 99.0058 134.529 99.5683 134.172 102.394C133.815 105.22 129.08 109.118 123.75 111.172Z" fill="#677EEA"/>
</g>
<g opacity="0.51">
<path d="M123.75 154.827C118.459 156.907 114.491 156.345 114.848 153.519C115.205 150.693 119.94 146.821 125.271 144.741C130.601 142.661 134.529 143.223 134.172 146.049C133.815 148.875 129.08 152.747 123.75 154.827Z" fill="#677EEA"/>
</g>
<g opacity="0.51">
<path d="M124.041 198.731C118.75 200.811 114.782 200.249 115.152 197.423C115.522 194.597 120.231 190.712 125.562 188.632C130.892 186.552 134.82 187.127 134.463 189.94C134.106 192.752 129.384 196.664 124.041 198.731Z" fill="#677EEA"/>
</g>
<g opacity="0.51">
<path d="M138.947 100.249C138.56 100.391 138.141 100.424 137.737 100.342C137.333 100.261 136.96 100.07 136.66 99.7899C136.36 99.5099 136.145 99.1523 136.04 98.7578C135.935 98.3633 135.944 97.9475 136.065 97.5577C136.187 97.1678 136.416 96.8194 136.728 96.5518C137.039 96.2843 137.42 96.1084 137.827 96.044C138.235 95.9796 138.652 96.0293 139.032 96.1874C139.412 96.3456 139.74 96.6059 139.979 96.9388C140.272 97.5155 140.329 98.1822 140.137 98.7992C139.944 99.4162 139.518 99.9357 138.947 100.249Z" fill="#677EEA"/>
</g>
<g opacity="0.51">
<path d="M138.947 144.074C138.56 144.216 138.141 144.249 137.737 144.168C137.333 144.087 136.96 143.895 136.66 143.615C136.36 143.335 136.145 142.978 136.04 142.583C135.935 142.188 135.944 141.773 136.065 141.383C136.187 140.993 136.416 140.645 136.728 140.377C137.039 140.11 137.42 139.934 137.827 139.869C138.235 139.805 138.652 139.854 139.032 140.013C139.412 140.171 139.74 140.431 139.979 140.764C140.272 141.341 140.329 142.007 140.137 142.624C139.944 143.241 139.518 143.761 138.947 144.074Z" fill="#677EEA"/>
</g>
<g opacity="0.51">
<path d="M138.947 187.742C138.735 188.007 138.463 188.22 138.153 188.363C137.843 188.507 137.504 188.578 137.162 188.569C136.82 188.561 136.485 188.475 136.183 188.316C135.88 188.158 135.619 187.933 135.42 187.658C135.221 187.383 135.089 187.066 135.035 186.732C134.981 186.398 135.005 186.056 135.108 185.733C135.21 185.41 135.386 185.115 135.623 184.871C135.86 184.627 136.151 184.441 136.474 184.328C136.686 184.062 136.958 183.85 137.268 183.706C137.577 183.562 137.916 183.492 138.258 183.5C138.6 183.508 138.936 183.595 139.238 183.753C139.54 183.911 139.801 184.137 140.001 184.412C140.2 184.687 140.332 185.004 140.386 185.338C140.44 185.672 140.415 186.014 140.313 186.337C140.211 186.66 140.034 186.954 139.797 187.198C139.56 187.442 139.269 187.628 138.947 187.742Z" fill="#677EEA"/>
</g>
<path d="M245.819 109.354C240.188 112.683 235.141 116.893 230.873 121.821C224.603 101.923 205.491 95.7483 182.886 108.66C164.184 119.335 147.875 140.345 139.238 162.611C135.906 162.814 132.677 163.825 129.834 165.555C117.625 172.527 107.732 189.469 107.732 203.414C107.732 203.715 107.732 203.99 107.732 204.278C103.702 204.672 99.8141 205.96 96.3569 208.046C80.7361 216.968 68.0781 238.645 68.0781 256.449C68.0781 274.254 80.7361 281.502 96.3569 272.593L245.819 187.271C264.667 176.504 279.944 150.34 279.944 128.82C279.944 107.3 264.667 98.6002 245.819 109.354Z" fill="url(#paint9_linear_83_497)"/>
<path d="M245.819 109.354C242.61 111.23 239.602 113.421 236.838 115.895L220.133 106.345C210.953 99.9608 197.647 100.249 182.886 108.687C164.184 119.362 147.875 140.372 139.238 162.637C135.906 162.84 132.677 163.851 129.834 165.581C117.625 172.554 107.732 189.495 107.732 203.441C107.732 203.742 107.732 204.016 107.732 204.304C103.702 204.699 99.8141 205.986 96.3569 208.072C80.7361 216.994 68.0781 238.671 68.0781 256.476C68.0781 265.306 71.1996 271.533 76.239 274.49L76.358 274.568L117.282 298.116L126.223 255.586L245.753 187.336C264.601 176.57 279.878 150.406 279.878 128.885C279.878 107.365 264.667 98.6002 245.819 109.354Z" fill="url(#paint10_radial_83_497)"/>
<path d="M311.596 130.926L270.13 107.104C263.94 103.467 255.342 103.925 245.819 109.354C242.61 111.23 239.602 113.421 236.838 115.895L220.133 106.345C210.953 99.9608 197.647 100.249 182.886 108.687C164.184 119.362 147.875 140.372 139.238 162.637C135.906 162.84 132.677 163.851 129.834 165.581C117.625 172.554 107.732 189.495 107.732 203.441C107.732 203.742 107.732 204.016 107.732 204.304C103.702 204.699 99.8141 205.986 96.3569 208.072C80.7361 216.994 68.0781 238.671 68.0781 256.476C68.0781 265.306 71.1996 271.533 76.239 274.49L76.358 274.568L117.282 298.116L126.223 255.586L245.753 187.336C261.03 178.611 273.952 159.759 278.304 141.47L311.596 130.926Z" fill="url(#paint11_linear_83_497)"/>
<path d="M286.875 132.928C281.244 136.257 276.196 140.467 271.929 145.395C265.659 125.497 246.547 119.322 223.942 132.234C205.239 142.909 188.931 163.919 180.294 186.172C176.96 186.373 173.729 187.389 170.89 189.129C158.681 196.088 148.788 213.043 148.788 226.988C148.788 227.289 148.788 227.564 148.788 227.852C144.755 228.234 140.865 229.523 137.413 231.619C121.792 240.528 109.134 262.219 109.134 280.023C109.134 297.828 121.792 305.076 137.413 296.154L286.875 210.832C305.723 200.078 321 173.901 321 152.381C321 130.861 305.723 122.161 286.875 132.928Z" fill="url(#paint12_linear_83_497)"/>
<path d="M271.929 145.395C276.196 140.467 281.244 136.257 286.875 132.928C298.409 126.387 308.607 127.067 314.783 133.556C308.739 126.047 298.065 124.869 285.896 131.816C280.439 135.034 275.529 139.082 271.347 143.812C271.572 144.335 271.757 144.859 271.929 145.395Z" fill="white"/>
<path d="M109.187 280.05C109.187 262.219 121.845 240.528 137.466 231.646C140.918 229.549 144.808 228.26 148.841 227.878C148.841 227.59 148.841 227.315 148.841 227.015C148.841 213.069 158.734 196.115 170.943 189.155C173.782 187.415 177.013 186.4 180.347 186.198C188.971 163.959 205.279 142.936 223.995 132.26C241.19 122.475 256.242 123.652 265.289 133.451C256.374 122.645 240.78 120.997 222.963 131.149C204.261 141.824 187.965 162.833 179.315 185.086C175.977 185.285 172.741 186.301 169.898 188.043C157.689 195.003 147.796 211.957 147.796 225.903C147.796 226.203 147.796 226.478 147.796 226.766C143.764 227.15 139.873 228.439 136.421 230.534C120.8 239.443 108.155 261.133 108.155 278.938C108.155 285.937 110.126 291.274 113.446 294.636C110.787 291.261 109.187 286.329 109.187 280.05Z" fill="white"/>
</g>
<defs>
<linearGradient id="paint0_linear_83_497" x1="0" y1="190.751" x2="158.364" y2="190.751" gradientUnits="userSpaceOnUse">
<stop stop-color="#5778FF"/>
<stop offset="0.18" stop-color="#5C7DFF"/>
<stop offset="0.39" stop-color="#6A8AFF"/>
<stop offset="0.61" stop-color="#82A0FF"/>
<stop offset="0.85" stop-color="#A3BEFF"/>
<stop offset="1" stop-color="#BCD5FF"/>
</linearGradient>
<linearGradient id="paint1_linear_83_497" x1="0" y1="148.613" x2="158.364" y2="148.613" gradientUnits="userSpaceOnUse">
<stop stop-color="#5778FF"/>
<stop offset="0.18" stop-color="#5C7DFF"/>
<stop offset="0.39" stop-color="#6A8AFF"/>
<stop offset="0.61" stop-color="#82A0FF"/>
<stop offset="0.85" stop-color="#A3BEFF"/>
<stop offset="1" stop-color="#BCD5FF"/>
</linearGradient>
<linearGradient id="paint2_linear_83_497" x1="0" y1="105.599" x2="158.364" y2="105.599" gradientUnits="userSpaceOnUse">
<stop stop-color="#5778FF"/>
<stop offset="0.18" stop-color="#5C7DFF"/>
<stop offset="0.39" stop-color="#6A8AFF"/>
<stop offset="0.61" stop-color="#82A0FF"/>
<stop offset="0.85" stop-color="#A3BEFF"/>
<stop offset="1" stop-color="#BCD5FF"/>
</linearGradient>
<linearGradient id="paint3_linear_83_497" x1="0" y1="62.585" x2="158.364" y2="62.585" gradientUnits="userSpaceOnUse">
<stop stop-color="#5778FF"/>
<stop offset="0.18" stop-color="#5C7DFF"/>
<stop offset="0.39" stop-color="#6A8AFF"/>
<stop offset="0.61" stop-color="#82A0FF"/>
<stop offset="0.85" stop-color="#A3BEFF"/>
<stop offset="1" stop-color="#BCD5FF"/>
</linearGradient>
<linearGradient id="paint4_linear_83_497" x1="0" y1="62.585" x2="158.364" y2="62.585" gradientUnits="userSpaceOnUse">
<stop stop-color="#5778FF"/>
<stop offset="0.18" stop-color="#5C7DFF"/>
<stop offset="0.39" stop-color="#6A8AFF"/>
<stop offset="0.61" stop-color="#82A0FF"/>
<stop offset="0.85" stop-color="#A3BEFF"/>
<stop offset="1" stop-color="#BCD5FF"/>
</linearGradient>
<linearGradient id="paint5_linear_83_497" x1="5.48576e-06" y1="43.2364" x2="79.1753" y2="43.2364" gradientUnits="userSpaceOnUse">
<stop stop-color="#E9FFFF"/>
<stop offset="0.04" stop-color="#D3EBFF"/>
<stop offset="0.11" stop-color="#B2CCFF"/>
<stop offset="0.18" stop-color="#96B2FF"/>
<stop offset="0.27" stop-color="#7F9DFF"/>
<stop offset="0.36" stop-color="#6D8CFF"/>
<stop offset="0.48" stop-color="#6081FF"/>
<stop offset="0.64" stop-color="#597AFF"/>
<stop offset="1" stop-color="#5778FF"/>
</linearGradient>
<linearGradient id="paint6_linear_83_497" x1="38.5295" y1="40.9863" x2="119.834" y2="40.9863" gradientUnits="userSpaceOnUse">
<stop stop-color="#5778FF"/>
<stop offset="0.18" stop-color="#5C7DFF"/>
<stop offset="0.39" stop-color="#6A8AFF"/>
<stop offset="0.61" stop-color="#82A0FF"/>
<stop offset="0.85" stop-color="#A3BEFF"/>
<stop offset="1" stop-color="#BCD5FF"/>
</linearGradient>
<linearGradient id="paint7_linear_83_497" x1="38.5295" y1="32.0644" x2="119.834" y2="32.0644" gradientUnits="userSpaceOnUse">
<stop stop-color="#C0D6FF"/>
<stop offset="0.3" stop-color="#C5DBFF"/>
<stop offset="0.65" stop-color="#D3E9FF"/>
<stop offset="1" stop-color="#E9FFFF"/>
</linearGradient>
<linearGradient id="paint8_linear_83_497" x1="51.8092" y1="26.4784" x2="106.555" y2="26.4784" gradientUnits="userSpaceOnUse">
<stop stop-color="#BCD5FF"/>
<stop offset="0.15" stop-color="#A3BEFF"/>
<stop offset="0.39" stop-color="#82A0FF"/>
<stop offset="0.61" stop-color="#6A8AFF"/>
<stop offset="0.82" stop-color="#5C7DFF"/>
<stop offset="1" stop-color="#5778FF"/>
</linearGradient>
<linearGradient id="paint9_linear_83_497" x1="69.8175" y1="231.438" x2="282.599" y2="231.438" gradientUnits="userSpaceOnUse">
<stop stop-color="#5778FF"/>
<stop offset="0.18" stop-color="#5C7DFF"/>
<stop offset="0.39" stop-color="#6A8AFF"/>
<stop offset="0.61" stop-color="#82A0FF"/>
<stop offset="0.85" stop-color="#A3BEFF"/>
<stop offset="1" stop-color="#BCD5FF"/>
</linearGradient>
<radialGradient id="paint10_radial_83_497" cx="0" cy="0" r="1" gradientUnits="userSpaceOnUse" gradientTransform="translate(117.916 168.59) scale(101.039 99.9346)">
<stop stop-color="#2B3AA5"/>
<stop offset="1" stop-color="#182484"/>
</radialGradient>
<linearGradient id="paint11_linear_83_497" x1="68.131" y1="199.987" x2="311.596" y2="199.987" gradientUnits="userSpaceOnUse">
<stop stop-color="#5778FF"/>
<stop offset="0.18" stop-color="#5C7DFF"/>
<stop offset="0.39" stop-color="#6A8AFF"/>
<stop offset="0.61" stop-color="#82A0FF"/>
<stop offset="0.85" stop-color="#A3BEFF"/>
<stop offset="1" stop-color="#BCD5FF"/>
</linearGradient>
<linearGradient id="paint12_linear_83_497" x1="111.071" y1="254.807" x2="323.852" y2="254.807" gradientUnits="userSpaceOnUse">
<stop stop-color="#C0D6FF"/>
<stop offset="0.3" stop-color="#C5DBFF"/>
<stop offset="0.65" stop-color="#D3E9FF"/>
<stop offset="1" stop-color="#E9FFFF"/>
</linearGradient>
<clipPath id="clip0_83_497">
<rect width="321" height="300" fill="white"/>
</clipPath>
</defs>
</svg>
