<svg xmlns="http://www.w3.org/2000/svg" fill="none" viewBox="0 0 844 1077">
    <g fill="#1F50FF" fill-rule="evenodd" clip-path="url(#a)" clip-rule="evenodd">
        <path
            d="M843.21 661.844V165.386L469.11 18.501 421.996 0l-47.114 18.502L.782 165.385v496.458s-7.675 197.049 214.444 307.005a6673.857 6673.857 0 0 0 23.405 11.657c65.2 32.714 127.816 66.034 183.365 96.494 55.549-30.46 118.165-63.7 183.364-96.494a2236.2 2236.2 0 0 1 23.405-11.657C850.885 858.893 843.21 661.844 843.21 661.844ZM596.773 905.898l-24.089 11.959c-48.253 24.217-99.091 50.992-150.688 78.894-51.674-27.902-102.435-54.602-150.689-78.819l-24.165-12.034C76.62 821.513 72.745 678.991 72.745 666.281V212.617c74.242-29.181 330.101-129.586 330.101-129.586l19.15-7.52c9.195 3.61 275.008 108 349.251 137.106v453.739c0 12.56-3.876 155.157-174.474 239.542Z" />
        <path
            d="m231.188 589.492 1.52.752 188.532 92.207 191.647-93.711L422.76 870.55 231.188 589.492Zm381.699-101.984-1.596-.752-188.531-92.207-191.572 93.711L421.24 206.45l191.647 281.058Z" />
        <path d="m422 444.037-190.508 93.335L422 630.707l190.507-93.335L422 444.037Z" />
    </g>
    <defs>
        <clipPath id="a">
            <path fill="#fff" d="M0 0h842.427v1077H0z" transform="translate(.786)" />
        </clipPath>
    </defs>
</svg>