<svg width="409" height="386" viewBox="0 0 409 386" fill="none" xmlns="http://www.w3.org/2000/svg">
<path opacity="0.5" d="M392.139 238.794L408.919 248.5V287.252L392.139 277.564V238.794Z" fill="#1B17CF"/>
<path opacity="0.2" d="M375.342 248.5L392.139 258.188V277.564L375.342 267.876V248.5Z" fill="#1B17CF"/>
<path opacity="0.7" d="M358.562 180.648L375.342 190.354V267.876L358.562 258.188V180.648Z" fill="#1B17CF"/>
<path opacity="0.2" d="M341.782 151.584L358.562 161.272V258.188L341.782 248.5V151.584Z" fill="#1B17CF"/>
<path opacity="0.5" d="M325.003 161.272L341.782 170.96V248.5L325.003 238.794V161.272Z" fill="#1B17CF"/>
<path opacity="0.2" d="M308.205 93.438L325.003 103.126V238.794L308.205 229.106V93.438Z" fill="#1B17CF"/>
<path opacity="0.5" d="M291.426 103.126L308.205 112.814V229.106L291.426 219.418V103.126Z" fill="#1B17CF"/>
<path opacity="0.2" d="M274.646 112.814L291.426 122.502V219.418L274.646 209.73V112.814Z" fill="#1B17CF"/>
<path opacity="0.5" d="M257.866 64.3563L274.646 74.0617V209.73L257.866 200.042V64.3563Z" fill="#1B17CF"/>
<path opacity="0.2" d="M241.069 15.9158L257.866 25.6039V200.042L241.069 190.336V15.9158Z" fill="#1B17CF"/>
<path opacity="0.5" d="M224.289 25.6039L241.069 35.292V190.336L224.289 180.648V25.6039Z" fill="#1B17CF"/>
<path opacity="0.2" d="M207.509 40L224.289 49.6881V243.502L207.509 233.814V40Z" fill="#1B17CF"/>
<path opacity="0.5" d="M189.78 21.4579L206.56 31.146V224.96L189.78 215.272V21.4579Z" fill="#1B17CF"/>
<path opacity="0.2" d="M172 0L188.78 9.68811V242.272L172 232.584V0Z" fill="#1B17CF"/>
<path d="M173.465 385.171C269.061 385.171 346.557 340.425 346.557 285.228C346.557 230.031 269.061 185.285 173.465 185.285C77.8697 185.285 0.374023 230.031 0.374023 285.228C0.374023 340.425 77.8697 385.171 173.465 385.171Z" fill="url(#paint0_linear_167_104)"/>
<path opacity="0.48" d="M346.557 252.323H342.284C335.365 234.521 319.796 217.601 295.854 203.744C228.251 164.715 118.663 164.715 51.0594 203.744C28.398 216.84 13.3481 232.653 5.87503 249.365H0.443225V271.526C-0.906079 298.082 16.0121 324.88 51.0594 345.139C118.663 384.185 228.268 384.185 295.854 345.139C329.656 325.624 346.557 300.054 346.557 274.467V252.323Z" fill="url(#paint1_linear_167_104)"/>
<path opacity="0.48" d="M346.557 252.323H342.284C335.365 234.521 319.796 217.601 295.854 203.744C228.251 164.715 118.663 164.715 51.0594 203.744C28.398 216.84 13.3481 232.653 5.87503 249.365H0.443225V271.526C-0.906079 298.082 16.0121 324.88 51.0594 345.139C118.663 384.185 228.268 384.185 295.854 345.139C329.656 325.624 346.557 300.054 346.557 274.467V252.323Z" fill="url(#paint2_linear_167_104)"/>
<path opacity="0.48" d="M346.557 252.323H342.284C335.365 234.521 319.796 217.601 295.854 203.744C228.251 164.715 118.663 164.715 51.0594 203.744C28.398 216.84 13.3481 232.653 5.87503 249.365H0.443225V271.526C-0.906079 298.082 16.0121 324.88 51.0594 345.139C118.663 384.185 228.268 384.185 295.854 345.139C329.656 325.624 346.557 300.054 346.557 274.467V252.323Z" fill="url(#paint3_linear_167_104)"/>
<path d="M346.557 243.742H342.284C335.365 225.94 319.796 209.021 295.854 195.163C228.251 156.134 118.663 156.134 51.0594 195.163C28.398 208.242 13.3481 224.055 5.87503 240.767H0.443225V262.928C-0.906079 289.467 16.0121 316.282 51.0594 336.54C118.663 375.57 228.268 375.57 295.854 336.54C329.656 317.026 346.557 291.456 346.557 265.869V243.742Z" fill="url(#paint4_linear_167_104)"/>
<path opacity="0.48" d="M342.284 243.708C342.042 243.085 341.782 242.479 341.523 241.856V227.307H332.458V226.269C330.08 223.088 327.503 220.06 324.743 217.204V227.307H319.553V212.152C317.143 209.972 314.566 207.833 311.821 205.734V227.307H306.631V201.962C304.152 200.255 301.568 198.583 298.881 196.945V227.307H293.692V193.935C291.149 192.516 288.502 191.132 285.907 189.835V227.307H280.718V187.395C278.157 186.242 275.557 185.118 272.916 184.022V227.272H267.726V192.205H260.063V227.272H254.994V201.841H247.141V227.272H242.072V211.46H234.201V227.272H229.167V221.079H221.262V227.272H125.721V221.079H117.867V227.272H112.833V211.46H104.962V227.272H99.9111V201.841H92.0575V227.272H86.9716V192.205H79.1353V227.272H73.9457V184.022C71.2932 185.094 68.6926 186.219 66.1439 187.395V227.342H60.9543V189.783C58.3076 191.098 55.7647 192.464 53.1872 193.883V227.307H47.9975V196.893C45.2989 198.519 42.7099 200.192 40.2304 201.91V227.307H35.0408V205.664C32.2903 207.758 29.73 209.92 27.3082 212.1V227.307H22.1186V217.134C19.3608 219.976 16.7894 222.992 14.4206 226.165V227.307H5.42529V240.732H1.58496V277.893C3.07967 284.836 5.67869 291.495 9.28292 297.615V274.363H14.4725V305.504C16.8501 308.67 19.421 311.686 22.1705 314.535V274.363H27.3601V319.517C29.7819 321.697 32.3595 323.836 35.0927 325.935V274.363H40.2823V329.724C42.756 331.454 45.3335 333.184 48.0494 334.758V274.363H53.239V337.717C55.782 339.135 58.4287 340.502 61.0062 341.817V274.346H66.1958V344.222C68.756 345.375 71.3566 346.5 73.9976 347.595V274.363H79.1872V349.637C81.7589 350.605 84.371 351.534 87.0235 352.422V274.398H92.1094V353.979C94.6869 354.775 97.299 355.536 99.963 356.245V274.363H105.014V357.595C107.626 358.252 110.204 358.858 112.885 359.429V274.363H117.867V360.467C120.497 360.968 123.057 361.453 125.773 361.885V274.363H130.789V362.595C133.419 362.975 136.066 363.338 138.712 363.65V274.363H143.694V364.325C146.341 364.601 148.988 364.826 151.652 365.017V274.363H156.599V365.207C159.263 365.345 161.91 365.466 164.574 365.553V274.363H169.521V365.726C172.203 365.726 174.884 365.726 177.583 365.726V274.363H182.513V365.605C185.177 365.605 187.841 365.414 190.487 365.276V274.363H195.452V364.947C198.099 364.74 200.763 364.515 203.392 364.255V274.294H208.392V363.633C211.038 363.321 213.685 362.975 216.314 362.595V274.363H221.314V361.868C223.96 361.435 226.607 360.968 229.219 360.449V274.363H234.253V359.411C236.9 358.84 239.529 358.235 242.124 357.681V274.363H247.193V356.263C249.839 355.553 252.382 354.792 255.046 353.996V274.415H260.115V352.405C262.767 351.528 265.379 350.605 267.951 349.637V274.363H273.141V347.578C275.793 346.505 278.394 345.381 280.943 344.204V274.363H286.132V341.834C288.773 340.519 291.368 339.153 293.917 337.734V274.415H299.106V334.741C301.805 333.103 304.388 331.425 306.856 329.707V274.346H312.046V325.866C314.79 323.779 317.368 321.633 319.778 319.431V274.363H324.968V314.431C327.727 311.58 330.304 308.558 332.683 305.383V274.363H337.873V297.442C341.489 291.268 344.082 284.549 345.553 277.547V243.742L342.284 243.708Z" fill="url(#paint5_linear_167_104)"/>
<path d="M173.465 343.703C269.061 343.703 346.557 298.957 346.557 243.759C346.557 188.562 269.061 143.816 173.465 143.816C77.8697 143.816 0.374023 188.562 0.374023 243.759C0.374023 298.957 77.8697 343.703 173.465 343.703Z" fill="url(#paint6_linear_167_104)"/>
<path opacity="0.3" d="M173.517 143.764C134.301 143.764 95.0847 151.411 63.1339 166.704L11.4971 279C19.9216 291.923 33.0687 304.033 51.0594 314.413C62.6619 321.051 74.9163 326.477 87.629 330.606L173.517 143.764Z" fill="#2182F4"/>
<path opacity="0.3" d="M222.023 147.812L133.177 340.987C154.645 343.908 176.367 344.489 197.96 342.717L279.732 164.905C261.302 156.772 241.909 151.028 222.023 147.812Z" fill="#2182F4"/>
<g opacity="0.05">
<path d="M173.465 332.267C258.132 332.267 326.767 292.641 326.767 243.76C326.767 194.878 258.132 155.252 173.465 155.252C88.7993 155.252 20.1638 194.878 20.1638 243.76C20.1638 292.641 88.7993 332.267 173.465 332.267Z" fill="url(#paint7_linear_167_104)"/>
<mask id="mask0_167_104" style="mask-type:luminance" maskUnits="userSpaceOnUse" x="20" y="155" width="307" height="178">
<path d="M173.465 332.25C258.132 332.25 326.767 292.624 326.767 243.742C326.767 194.861 258.132 155.234 173.465 155.234C88.7993 155.234 20.1638 194.861 20.1638 243.742C20.1638 292.624 88.7993 332.25 173.465 332.25Z" fill="white"/>
</mask>
<g mask="url(#mask0_167_104)">
<path d="M-100.357 243.379L-102 242.427L165.058 88.2306L166.702 89.1821L-100.357 243.379Z" fill="#2182F4"/>
<path d="M-95.6514 246.095L-97.2947 245.143L169.763 90.9468L171.407 91.8983L-95.6514 246.095Z" fill="#2182F4"/>
<path d="M-90.9461 248.811L-92.5895 247.86L174.469 93.6628L176.112 94.6144L-90.9461 248.811Z" fill="#2182F4"/>
<path d="M-86.2408 251.527L-87.8842 250.576L179.174 96.379L180.817 97.3305L-86.2408 251.527Z" fill="#2182F4"/>
<path d="M-81.5356 254.243L-83.179 253.292L183.879 99.0951L185.523 100.047L-81.5356 254.243Z" fill="#2182F4"/>
<path d="M-76.8303 256.96L-78.4737 256.008L188.584 101.811L190.228 102.763L-76.8303 256.96Z" fill="#2182F4"/>
<path d="M-72.125 259.676L-73.7684 258.724L193.29 104.527L194.933 105.479L-72.125 259.676Z" fill="#2182F4"/>
<path d="M-67.4371 262.392L-69.0632 261.44L197.995 107.244L199.638 108.195L-67.4371 262.392Z" fill="#2182F4"/>
<path d="M-62.7318 265.108L-64.3579 264.156L202.7 109.96L204.344 110.911L-62.7318 265.108Z" fill="#2182F4"/>
<path d="M-58.0093 267.824L-59.6526 266.872L207.406 112.676L209.049 113.627L-58.0093 267.824Z" fill="#2182F4"/>
<path d="M-53.3213 270.54L-54.9474 269.589L212.111 115.392L213.754 116.343L-53.3213 270.54Z" fill="#2182F4"/>
<path d="M-48.616 273.256L-50.2421 272.305L216.816 118.108L218.459 119.06L-48.616 273.256Z" fill="#2182F4"/>
<path d="M-43.8935 275.972L-45.5369 275.021L221.521 120.824L223.165 121.776L-43.8935 275.972Z" fill="#2182F4"/>
<path d="M-39.2055 278.689L-40.8316 277.754L226.227 123.54L227.87 124.492L-39.2055 278.689Z" fill="#2182F4"/>
<path d="M-34.5003 281.405L-36.1263 280.47L230.932 126.256L232.575 127.208L-34.5003 281.405Z" fill="#2182F4"/>
<path d="M-29.795 284.121L-31.4211 283.187L235.637 128.99L237.281 129.924L-29.795 284.121Z" fill="#2182F4"/>
<path d="M-25.0724 286.837L-26.7158 285.903L240.342 131.689L241.968 132.64L-25.0724 286.837Z" fill="#2182F4"/>
<path d="M-20.3672 289.553L-22.0106 288.619L245.048 134.422L246.674 135.356L-20.3672 289.553Z" fill="#2182F4"/>
<path d="M-15.6792 292.269L-17.3053 291.335L249.753 137.138L251.379 138.073L-15.6792 292.269Z" fill="#2182F4"/>
<path d="M-10.974 294.985L-12.6 294.051L254.458 139.854L256.084 140.789L-10.974 294.985Z" fill="#2182F4"/>
<path d="M-6.26869 297.701L-7.89478 296.767L259.163 142.571L260.79 143.505L-6.26869 297.701Z" fill="#2182F4"/>
<path d="M-1.56343 300.418L-3.18951 299.483L263.869 145.287L265.495 146.221L-1.56343 300.418Z" fill="#2182F4"/>
<path d="M3.14183 303.134L1.51575 302.2L268.574 148.003L270.2 148.937L3.14183 303.134Z" fill="#2182F4"/>
<path d="M7.84709 305.867L6.22101 304.916L273.279 150.719L274.905 151.653L7.84709 305.867Z" fill="#2182F4"/>
<path d="M12.5524 308.583L10.9263 307.632L277.985 153.435L279.611 154.369L12.5524 308.583Z" fill="#2182F4"/>
<path d="M17.2576 311.299L15.6315 310.348L282.69 156.151L284.316 157.085L17.2576 311.299Z" fill="#2182F4"/>
<path d="M21.9629 314.016L20.3368 313.064L287.395 158.867L289.021 159.802L21.9629 314.016Z" fill="#2182F4"/>
<path d="M26.6681 316.732L25.0421 315.78L292.1 161.583L293.726 162.518L26.6681 316.732Z" fill="#2182F4"/>
<path d="M31.3734 319.448L29.7473 318.496L296.806 164.3L298.432 165.251L31.3734 319.448Z" fill="#2182F4"/>
<path d="M36.0787 322.164L34.4526 321.212L301.511 167.016L303.137 167.967L36.0787 322.164Z" fill="#2182F4"/>
<path d="M40.7839 324.88L39.1578 323.929L306.216 169.732L307.842 170.683L40.7839 324.88Z" fill="#2182F4"/>
<path d="M45.4892 327.596L43.8632 326.645L310.921 172.448L312.547 173.4L45.4892 327.596Z" fill="#2182F4"/>
<path d="M50.1944 330.312L48.5684 329.361L315.627 175.164L317.253 176.116L50.1944 330.312Z" fill="#2182F4"/>
<path d="M54.8998 333.028L53.2737 332.077L320.332 177.88L321.958 178.832L54.8998 333.028Z" fill="#2182F4"/>
<path d="M59.605 335.745L57.9789 334.793L325.037 180.596L326.663 181.548L59.605 335.745Z" fill="#2182F4"/>
<path d="M64.3102 338.461L62.6841 337.509L329.742 183.312L331.368 184.264L64.3102 338.461Z" fill="#2182F4"/>
<path d="M69.0155 341.177L67.3894 340.225L334.448 186.029L336.074 186.98L69.0155 341.177Z" fill="#2182F4"/>
<path d="M73.7208 343.893L72.0947 342.941L339.153 188.745L340.779 189.696L73.7208 343.893Z" fill="#2182F4"/>
<path d="M78.426 346.609L76.7999 345.658L343.858 191.461L345.484 192.412L78.426 346.609Z" fill="#2182F4"/>
<path d="M83.1313 349.325L81.5052 348.374L348.563 194.177L350.19 195.129L83.1313 349.325Z" fill="#2182F4"/>
<path d="M87.8365 352.041L86.2104 351.09L353.269 196.893L354.895 197.845L87.8365 352.041Z" fill="#2182F4"/>
<path d="M92.5419 354.757L90.9158 353.823L357.974 199.609L359.6 200.561L92.5419 354.757Z" fill="#2182F4"/>
<path d="M97.2471 357.474L95.621 356.539L362.679 202.325L364.305 203.277L97.2471 357.474Z" fill="#2182F4"/>
<path d="M101.952 360.19L100.326 359.256L367.385 205.042L369.011 205.993L101.952 360.19Z" fill="#2182F4"/>
<path d="M106.658 362.906L105.031 361.972L372.09 207.758L373.716 208.709L106.658 362.906Z" fill="#2182F4"/>
<path d="M111.363 365.622L109.737 364.688L376.795 210.491L378.421 211.425L111.363 365.622Z" fill="#2182F4"/>
<path d="M116.068 368.338L114.442 367.404L381.5 213.207L383.126 214.142L116.068 368.338Z" fill="#2182F4"/>
<path d="M120.773 371.054L119.147 370.12L386.206 215.923L387.832 216.858L120.773 371.054Z" fill="#2182F4"/>
<path d="M125.479 373.77L123.853 372.836L390.911 218.64L392.537 219.574L125.479 373.77Z" fill="#2182F4"/>
<path d="M130.184 376.487L128.558 375.552L395.616 221.356L397.242 222.29L130.184 376.487Z" fill="#2182F4"/>
<path d="M134.889 379.203L133.263 378.268L400.321 224.072L401.947 225.006L134.889 379.203Z" fill="#2182F4"/>
<path d="M139.594 381.919L137.968 380.985L405.027 226.788L406.653 227.722L139.594 381.919Z" fill="#2182F4"/>
<path d="M144.3 384.635L142.674 383.701L409.732 229.504L411.358 230.438L144.3 384.635Z" fill="#2182F4"/>
<path d="M149.005 387.368L147.379 386.417L414.437 232.22L416.063 233.154L149.005 387.368Z" fill="#2182F4"/>
<path d="M153.71 390.084L152.084 389.133L419.142 234.936L420.768 235.871L153.71 390.084Z" fill="#2182F4"/>
<path d="M158.415 392.801L156.772 391.849L423.848 237.652L425.474 238.604L158.415 392.801Z" fill="#2182F4"/>
<path d="M163.121 395.517L161.477 394.565L428.553 240.369L430.179 241.32L163.121 395.517Z" fill="#2182F4"/>
<path d="M167.826 398.233L166.183 397.281L433.258 243.085L434.884 244.036L167.826 398.233Z" fill="#2182F4"/>
<path d="M172.531 400.949L170.888 399.997L437.963 245.801L439.59 246.752L172.531 400.949Z" fill="#2182F4"/>
<path d="M177.237 403.665L175.593 402.714L442.669 248.517L444.295 249.468L177.237 403.665Z" fill="#2182F4"/>
<path d="M181.942 406.381L180.298 405.43L447.357 251.233L449 252.185L181.942 406.381Z" fill="#2182F4"/>
</g>
</g>
<path d="M65.0541 187.118C124.925 152.518 221.988 152.518 281.859 187.118C310.472 203.657 325.4 225.092 326.663 246.735C328.03 223.103 313.101 199.211 281.859 181.167C221.988 146.567 124.925 146.567 65.0541 181.167C33.8125 199.125 18.8837 223.086 20.2676 246.735C21.5131 225.075 36.442 203.64 65.0541 187.118Z" fill="url(#paint8_linear_167_104)"/>
<path d="M233.89 209.263L84.4287 190.769L116.466 277.062L213.789 265.454L233.89 209.263Z" fill="url(#paint9_linear_167_104)"/>
<path opacity="0.4" d="M116.466 277.062L157.36 214.038L213.789 265.454L116.466 277.062Z" fill="#0F054C"/>
<path opacity="0.4" d="M233.89 209.263L157.36 214.038L213.789 265.454L233.89 209.263Z" fill="#0F054C"/>
<path opacity="0.4" d="M233.89 209.263L84.4287 190.769L157.36 214.038L213.789 265.454L233.89 209.263Z" fill="#0F054C"/>
<path d="M130.582 285.211L267.969 296.75L247.988 217.411L227.87 260.973L130.582 285.211Z" fill="url(#paint10_linear_167_104)"/>
<path opacity="0.4" d="M227.87 260.973L267.969 296.75L247.988 217.411L227.87 260.973Z" fill="#0F054C"/>
<path d="M175.783 158.677C169.675 158.804 163.636 157.363 158.243 154.49C153.364 151.688 150.683 147.882 150.683 143.799C150.683 139.716 153.364 135.927 158.243 133.107C167.913 127.537 183.654 127.537 193.342 133.107C198.203 135.927 200.884 139.716 200.884 143.799C200.884 147.882 198.203 151.688 193.342 154.49C187.942 157.362 181.898 158.804 175.783 158.677ZM175.783 130.824C170.007 130.717 164.299 132.081 159.194 134.785C154.956 137.242 152.62 140.443 152.62 143.799C152.62 147.155 154.956 150.373 159.194 152.83C168.345 158.02 183.222 158.02 192.373 152.83C196.611 150.373 198.964 147.172 198.964 143.799C198.964 140.425 196.611 137.242 192.373 134.785C187.268 132.081 181.56 130.717 175.783 130.824Z" fill="#2182F4"/>
<path d="M186.18 149.802C182.964 151.437 179.408 152.289 175.801 152.289C172.193 152.289 168.637 151.437 165.422 149.802C159.678 146.498 159.678 141.152 165.422 137.813C168.637 136.178 172.193 135.326 175.801 135.326C179.408 135.326 182.964 136.178 186.18 137.813C191.906 141.117 191.906 146.498 186.18 149.802Z" fill="#2182F4"/>
<path d="M236.398 114.769L226.088 108.818L243.629 98.6973L253.922 104.649L236.398 114.769Z" fill="#2182F4"/>
<path opacity="0.8" d="M217.871 105.375L204.897 101.569L216.159 88.8015L229.133 92.6249L217.871 105.375Z" fill="#2182F4"/>
<path opacity="0.6" d="M195.245 99.7525L180.869 98.4377L184.744 84.3035L199.119 85.6183L195.245 99.7525Z" fill="#2182F4"/>
<path opacity="0.4" d="M170.715 98.4377L156.34 99.7525L152.447 85.6183L166.84 84.3035L170.715 98.4377Z" fill="#2182F4"/>
<path opacity="0.2" d="M146.67 101.569L133.696 105.375L122.451 92.6249L135.425 88.8015L146.67 101.569Z" fill="#2182F4"/>
<path opacity="0.1" d="M125.479 108.818L115.186 114.769L97.6622 104.649L107.955 98.6973L125.479 108.818Z" fill="#2182F4"/>
<path opacity="0.2" d="M202.026 130.755L198.41 128.661L224.566 113.558L228.181 115.651L202.026 130.755Z" fill="#2182F4"/>
<path opacity="0.4" d="M193.757 126.706L189.19 125.374L205.987 106.344L210.554 107.676L193.757 126.706Z" fill="#2182F4"/>
<path opacity="0.6" d="M183.724 124.336L178.672 123.886L184.45 102.78L189.501 103.247L183.724 124.336Z" fill="#2182F4"/>
<path opacity="0.8" d="M172.912 123.886L167.861 124.336L162.083 103.247L167.134 102.78L172.912 123.886Z" fill="#2182F4"/>
<path d="M162.394 125.374L157.827 126.706L141.03 107.676L145.597 106.344L162.394 125.374Z" fill="#2182F4"/>
<path d="M153.174 128.661L149.559 130.755L123.403 115.651L127.018 113.558L153.174 128.661Z" fill="#2182F4"/>
<path d="M146.168 133.436L143.85 136.066L110.896 126.378L113.214 123.748L146.168 133.436Z" fill="#2182F4"/>
<path d="M142.068 139.232L141.272 142.155L104.737 138.816L105.533 135.893L142.068 139.232Z" fill="#2182F4"/>
<path d="M141.272 145.477L142.068 148.383L105.533 151.74L104.737 148.816L141.272 145.477Z" fill="#2182F4"/>
<path d="M143.85 151.549L146.168 154.179L113.214 163.884L110.896 161.255L143.85 151.549Z" fill="#2182F4"/>
<path d="M149.559 156.878L153.174 158.954L127.018 174.057L123.403 171.981L149.559 156.878Z" fill="#2182F4"/>
<path opacity="0.6" d="M278.521 94.77C316.976 121.551 319.121 159.836 285.008 187.932L298.847 200.682C345.917 166.808 344.879 118.039 295.785 84.7705L278.521 94.77Z" fill="#2182F4"/>
<path opacity="0.2" d="M196.594 219.885C155.924 223.518 112.851 216.425 81.5398 198.243C74.6991 194.356 68.3163 189.713 62.5112 184.402L39.0367 189.073C46.5887 196.5 55.0863 202.898 64.3102 208.104C103.942 230.974 159.453 239.106 210.346 232.514L196.594 219.885Z" fill="#2182F4"/>
<path d="M19.7833 156.722L43.2577 152.051C39.106 129.699 51.9071 106.5 81.5052 89.3724C130.565 61.0519 208.34 59.4257 260.72 84.4764L277.933 74.5461C216.02 44.0285 122.884 45.6547 64.3449 79.4593C27.9137 100.514 13.0195 129.336 19.7833 156.722Z" fill="#2182F4"/>
<path d="M161.408 194.713L152.223 189.402L270.183 121.291L279.368 126.602L161.408 194.713Z" fill="#2182F4"/>
<path opacity="0.8" d="M174.469 202.239L165.266 196.945L216.539 167.344L225.725 172.638L174.469 202.239Z" fill="#2182F4"/>
<path opacity="0.6" d="M188.429 210.301L179.226 205.007L260.841 157.881L270.027 163.192L188.429 210.301Z" fill="#2182F4"/>
<path opacity="0.2" d="M202.164 218.242L192.978 212.93L256.499 176.254L265.685 181.565L202.164 218.242Z" fill="#2182F4"/>
<defs>
<linearGradient id="paint0_linear_167_104" x1="-3.56093" y1="194.413" x2="182.712" y2="484.23" gradientUnits="userSpaceOnUse">
<stop stop-color="#4542E8"/>
<stop offset="1" stop-color="#24126A"/>
</linearGradient>
<linearGradient id="paint1_linear_167_104" x1="-25.7644" y1="274.363" x2="316.993" y2="274.363" gradientUnits="userSpaceOnUse">
<stop stop-color="#000745"/>
<stop offset="1" stop-color="#5761D7"/>
</linearGradient>
<linearGradient id="paint2_linear_167_104" x1="-25.7644" y1="274.363" x2="316.993" y2="274.363" gradientUnits="userSpaceOnUse">
<stop stop-color="#000745"/>
<stop offset="1" stop-color="#5761D7"/>
</linearGradient>
<linearGradient id="paint3_linear_167_104" x1="-25.7644" y1="274.363" x2="316.993" y2="274.363" gradientUnits="userSpaceOnUse">
<stop stop-color="#000745"/>
<stop offset="1" stop-color="#5761D7"/>
</linearGradient>
<linearGradient id="paint4_linear_167_104" x1="-25.7644" y1="265.8" x2="316.993" y2="265.8" gradientUnits="userSpaceOnUse">
<stop stop-color="#1C84FF"/>
<stop offset="1" stop-color="#24126A"/>
<stop offset="1" stop-color="#24126A"/>
</linearGradient>
<linearGradient id="paint5_linear_167_104" x1="1.61956" y1="274.865" x2="345.363" y2="274.865" gradientUnits="userSpaceOnUse">
<stop stop-color="#0032B1"/>
<stop offset="1" stop-color="#5761D7"/>
</linearGradient>
<linearGradient id="paint6_linear_167_104" x1="-3.72336" y1="152.848" x2="182.55" y2="442.664" gradientUnits="userSpaceOnUse">
<stop stop-color="#1C48E3"/>
<stop offset="1" stop-color="#24126A"/>
</linearGradient>
<linearGradient id="paint7_linear_167_104" x1="156.651" y1="216.097" x2="242.294" y2="644.153" gradientUnits="userSpaceOnUse">
<stop offset="0.02" stop-color="#4440FF"/>
<stop offset="0.82" stop-color="#24126A"/>
</linearGradient>
<linearGradient id="paint8_linear_167_104" x1="20.1811" y1="200.993" x2="326.75" y2="200.993" gradientUnits="userSpaceOnUse">
<stop stop-color="#352AAA"/>
<stop offset="1" stop-color="#180D5B"/>
</linearGradient>
<linearGradient id="paint9_linear_167_104" x1="65.0039" y1="184.376" x2="183.437" y2="362.249" gradientUnits="userSpaceOnUse">
<stop stop-color="#28ABF4"/>
<stop offset="1" stop-color="#24126A"/>
</linearGradient>
<linearGradient id="paint10_linear_167_104" x1="140.736" y1="228.563" x2="214.232" y2="315.037" gradientUnits="userSpaceOnUse">
<stop offset="0.35" stop-color="#2B4486"/>
<stop offset="0.44" stop-color="#282E79"/>
<stop offset="0.54" stop-color="#261E71"/>
<stop offset="0.66" stop-color="#24156C"/>
<stop offset="0.82" stop-color="#24126A"/>
</linearGradient>
</defs>
</svg>
