<svg width="238" height="235" viewBox="0 0 238 235" fill="none" xmlns="http://www.w3.org/2000/svg">
<g opacity="0.67">
<path d="M119.09 234.57L0.72998 166.23L119.08 97.8999L237.44 166.23L119.09 234.57Z" fill="#0F054C"/>
</g>
<g opacity="0.9">
<path d="M119.09 219.99L25.9702 166.23L119.08 112.47L212.2 166.23L119.09 219.99Z" fill="#080344"/>
</g>
<g opacity="0.67">
<path d="M128.78 199.28L61.11 160.23C60.42 159.84 60.51 159.15 61.3 158.69L101.98 135.2C102.386 134.977 102.839 134.85 103.302 134.831C103.765 134.812 104.227 134.901 104.65 135.09L172.33 174.17C173.01 174.56 172.92 175.25 172.13 175.71L131.45 199.19C131.042 199.41 130.589 199.533 130.126 199.549C129.662 199.564 129.202 199.472 128.78 199.28Z" fill="#24126A"/>
</g>
<path d="M131.76 204.56C131.2 204.572 130.646 204.441 130.15 204.18L53.1498 159.75C52.9156 159.63 52.7173 159.45 52.575 159.229C52.4327 159.008 52.3516 158.753 52.3398 158.49C52.3619 158.175 52.4657 157.87 52.6411 157.607C52.8164 157.344 53.0572 157.132 53.3398 156.99L99.5998 130.29C100.149 129.987 100.762 129.817 101.389 129.794C102.016 129.772 102.64 129.897 103.21 130.16L180.21 174.59C180.445 174.708 180.645 174.887 180.787 175.109C180.93 175.331 181.01 175.587 181.02 175.85C181 176.165 180.897 176.468 180.721 176.73C180.546 176.992 180.304 177.202 180.02 177.34L133.76 204.05C133.149 204.392 132.46 204.568 131.76 204.56ZM130.76 203.18C131.152 203.343 131.576 203.416 132 203.393C132.424 203.371 132.837 203.253 133.21 203.05L179.47 176.34C179.83 176.14 179.93 175.94 179.93 175.85C179.93 175.76 179.84 175.68 179.69 175.59L102.74 131.16C102.346 130.997 101.921 130.924 101.495 130.947C101.07 130.969 100.654 131.086 100.28 131.29L54.0198 158C53.6598 158.2 53.5698 158.4 53.5698 158.49C53.5698 158.58 53.6599 158.66 53.7999 158.75L130.76 203.18Z" fill="url(#paint0_linear_171_249)"/>
<path d="M129.23 57.7299H136.68L134.89 53.6799L60.6699 24.6799V148.83C60.691 148.959 60.7429 149.081 60.8213 149.185C60.8996 149.29 61.0021 149.374 61.1199 149.43L128.79 188.5C128.928 188.569 129.072 188.625 129.22 188.67L129.23 57.7299Z" fill="#24126A"/>
<path d="M172.79 39.99L130.08 64.36V138.97V188.78C130.56 188.768 131.03 188.641 131.45 188.41L172.13 164.92C172.3 164.845 172.449 164.73 172.562 164.583C172.676 164.436 172.751 164.263 172.78 164.08L172.79 39.99Z" fill="url(#paint1_linear_171_249)"/>
<path d="M127.01 27.0699V187.48L128.78 188.48C129.172 188.679 129.611 188.769 130.05 188.74C130.54 188.74 130.57 188.45 130.97 188.22L131.34 188.07L130.94 169.07V139.23L131.83 27.0699H127.01Z" fill="#393091"/>
<path d="M131.83 169.32V63.3199L130.08 64.3199V138.93V188.74H130.38H130.44C130.665 188.705 130.886 188.648 131.1 188.57C131.208 188.53 131.312 188.48 131.41 188.42L131.79 188.2L131.83 169.32Z" fill="#CAD0F9"/>
<g opacity="0.51">
<path d="M63.9897 31.53L123.64 65.97V181.97L63.9897 147.53V31.53Z" fill="#453C9E"/>
</g>
<g opacity="0.51">
<path d="M60.6499 130.79L127.01 86.36V63.45L60.6499 24.71V130.79Z" fill="#453C9E"/>
</g>
<path d="M128.78 64.48L61.11 25.41C60.42 25.01 60.51 24.32 61.3 23.87L101.98 0.379964C102.385 0.152014 102.838 0.0231993 103.302 0.00407903C103.766 -0.0150412 104.228 0.0760769 104.65 0.269963L172.33 39.34C173.01 39.73 172.92 40.42 172.13 40.88L131.45 64.37C131.044 64.5934 130.591 64.7196 130.128 64.7387C129.665 64.7578 129.203 64.6692 128.78 64.48Z" fill="#BCBEFF"/>
<path opacity="0.78" d="M103.98 2.02002H99.14L61.3 23.87C60.51 24.32 60.42 25.01 61.11 25.41L62.94 26.47L121.73 60.41L129.46 60.32L103.98 2.02002Z" fill="url(#paint2_linear_171_249)"/>
<path d="M103.98 4.41992L71.4601 23.1999L68.3101 22.6099V25.0199L129.46 60.3199L160.42 39.2699L103.98 4.41992Z" fill="url(#paint3_linear_171_249)"/>
<path d="M165.13 37.3199V39.7299L129.46 60.3199V57.9099L165.13 37.3199Z" fill="url(#paint4_linear_171_249)"/>
<path d="M129.46 57.91L68.3101 22.61L103.98 2.02002L165.13 37.32L129.46 57.91Z" fill="url(#paint5_linear_171_249)"/>
<path d="M91.1301 20.04L90.1602 19.47L90.2402 19.02L99.2802 13.76L100.53 14.36L100.3 14.75L91.1301 20.04Z" fill="#3F21D3"/>
<path d="M99.3198 14.18L100.3 14.75L100.92 14.38L99.3198 13.46L89.5298 19.11L90.1598 19.47L99.3198 14.18Z" fill="url(#paint6_linear_171_249)"/>
<path d="M94.0901 21.74L93.1201 21.18L93.2001 20.72L102.23 15.46L103.49 16.06L103.25 16.45L94.0901 21.74Z" fill="#3F21D3"/>
<path d="M102.28 15.8899L103.25 16.4499L103.88 16.0899L102.28 15.1599L92.4897 20.8099L93.1198 21.1799L102.28 15.8899Z" fill="url(#paint7_linear_171_249)"/>
<path d="M97.0498 23.4399L96.0698 22.8799L96.1498 22.4199L105.19 17.1599L106.44 17.7599L106.21 18.1499L97.0498 23.4399Z" fill="#3F21D3"/>
<path d="M105.24 17.59L106.21 18.15L106.84 17.79L105.24 16.86L95.4502 22.52L96.0802 22.88L105.24 17.59Z" fill="url(#paint8_linear_171_249)"/>
<path d="M99.9998 25.14L99.0298 24.58L99.1098 24.12L108.15 18.86L109.4 19.46L109.17 19.85L99.9998 25.14Z" fill="#3F21D3"/>
<path d="M108.19 19.2899L109.17 19.8499L109.8 19.4899L108.19 18.5699L98.3999 24.2199L99.0299 24.5799L108.19 19.2899Z" fill="url(#paint9_linear_171_249)"/>
<path d="M108.65 30.1699L107.68 29.5999L107.76 29.1499L116.79 23.8899L118.05 24.4899L117.81 24.8799L108.65 30.1699Z" fill="#3F21D3"/>
<path d="M116.84 24.31L117.81 24.88L118.44 24.51L116.84 23.59L107.05 29.24L107.68 29.6L116.84 24.31Z" fill="url(#paint10_linear_171_249)"/>
<path d="M111.61 31.87L110.63 31.3L110.72 30.85L119.75 25.59L121.01 26.19L120.77 26.58L111.61 31.87Z" fill="#3F21D3"/>
<path d="M119.8 26.02L120.77 26.58L121.4 26.21L119.8 25.29L110.01 30.94L110.64 31.31L119.8 26.02Z" fill="url(#paint11_linear_171_249)"/>
<path d="M114.57 33.57L113.59 33.01L113.67 32.55L122.71 27.29L123.96 27.89L123.73 28.28L114.57 33.57Z" fill="#3F21D3"/>
<path d="M122.76 27.72L123.73 28.28L124.36 27.92L122.76 26.99L112.97 32.65L113.59 33.01L122.76 27.72Z" fill="url(#paint12_linear_171_249)"/>
<path d="M117.52 35.27L116.55 34.71L116.63 34.25L125.67 28.99L126.92 29.59L126.69 29.98L117.52 35.27Z" fill="#3F21D3"/>
<path d="M125.71 29.42L126.69 29.9799L127.31 29.62L125.71 28.7L115.92 34.3499L116.55 34.7099L125.71 29.42Z" fill="url(#paint13_linear_171_249)"/>
<path d="M126.17 40.3L125.19 39.73L125.28 39.28L134.31 34.02L135.57 34.62L135.33 35.01L126.17 40.3Z" fill="#3F21D3"/>
<path d="M134.36 34.44L135.33 35.01L135.96 34.64L134.36 33.72L124.57 39.37L125.2 39.73L134.36 34.44Z" fill="url(#paint14_linear_171_249)"/>
<path d="M129.13 42L128.15 41.44L128.23 40.98L137.27 35.72L138.53 36.32L138.29 36.71L129.13 42Z" fill="#3F21D3"/>
<path d="M137.32 36.1499L138.29 36.7099L138.92 36.3399L137.32 35.4199L127.53 41.0699L128.15 41.4399L137.32 36.1499Z" fill="url(#paint15_linear_171_249)"/>
<path d="M132.08 43.6999L131.11 43.1399L131.19 42.6799L140.23 37.4199L141.48 38.0199L141.25 38.4099L132.08 43.6999Z" fill="#3F21D3"/>
<path d="M140.28 37.85L141.25 38.41L141.88 38.05L140.28 37.12L130.48 42.77L131.11 43.14L140.28 37.85Z" fill="url(#paint16_linear_171_249)"/>
<path d="M135.04 45.4L134.07 44.84L134.15 44.38L143.18 39.12L144.44 39.72L144.21 40.11L135.04 45.4Z" fill="#3F21D3"/>
<path d="M143.23 39.5499L144.2 40.1099L144.83 39.7499L143.23 38.8199L133.44 44.4799L134.07 44.8399L143.23 39.5499Z" fill="url(#paint17_linear_171_249)"/>
<path d="M166.44 123.71L136.39 141.06V99.9899L166.44 82.6399V123.71Z" fill="#BCBEFF"/>
<path d="M164.77 83.5999V122.94L136.39 139.32V141.06L166.44 123.71V82.6399L164.77 83.5999Z" fill="url(#paint18_linear_171_249)"/>
<path d="M184.55 134.31L182.94 135.15L166.79 125.83C166.627 125.747 166.447 125.703 166.265 125.703C166.082 125.703 165.902 125.747 165.74 125.83L137.89 141.91C137.62 141.76 136.4 141.18 136.4 141.18L136.99 142.71C137.003 142.749 137.023 142.786 137.051 142.817C137.079 142.848 137.112 142.873 137.15 142.89L154.15 152.71C154.312 152.793 154.492 152.837 154.675 152.837C154.857 152.837 155.037 152.793 155.2 152.71L183.72 136.23C183.828 136.179 183.914 136.09 183.96 135.98L184.55 134.31Z" fill="url(#paint19_linear_171_249)"/>
<path d="M184.3 134.57L155.09 151.44C154.922 151.524 154.737 151.567 154.55 151.567C154.362 151.567 154.178 151.524 154.01 151.44L136.58 141.38C136.3 141.22 136.34 140.94 136.66 140.75L165.87 123.89C166.038 123.806 166.222 123.763 166.41 123.763C166.597 123.763 166.782 123.806 166.95 123.89L184.38 133.95C184.65 134.11 184.62 134.39 184.3 134.57Z" fill="url(#paint20_linear_171_249)"/>
<path d="M146.28 147.79V147.47L147.41 148.12C147.415 148.133 147.418 148.146 147.418 148.16C147.418 148.174 147.415 148.187 147.41 148.2V148.52L146.28 147.87C146.271 147.844 146.271 147.816 146.28 147.79Z" fill="#2842A2"/>
<path d="M147.97 148.76V148.44L149.1 149.09C149.109 149.116 149.109 149.144 149.1 149.17V149.49L147.97 148.83C147.962 148.807 147.962 148.783 147.97 148.76Z" fill="#2842A2"/>
<path d="M141.12 140.48L165.4 126.48C165.48 126.435 165.569 126.412 165.66 126.412C165.751 126.412 165.841 126.435 165.92 126.48L174.56 131.48C174.589 131.497 174.613 131.521 174.63 131.55C174.647 131.579 174.656 131.612 174.656 131.645C174.656 131.679 174.647 131.711 174.63 131.74C174.613 131.769 174.589 131.793 174.56 131.81L150.3 145.81C150.222 145.859 150.132 145.885 150.04 145.885C149.948 145.885 149.858 145.859 149.78 145.81L141.12 140.81C141.091 140.793 141.067 140.769 141.05 140.74C141.033 140.711 141.024 140.679 141.024 140.645C141.024 140.612 141.033 140.579 141.05 140.55C141.067 140.521 141.091 140.497 141.12 140.48Z" fill="#ADB1F2"/>
<path d="M141.12 140.8L141.21 140.85L165.4 126.85C165.478 126.801 165.568 126.775 165.66 126.775C165.752 126.775 165.842 126.801 165.92 126.85L174.48 131.85L174.56 131.8C174.589 131.783 174.613 131.759 174.63 131.73C174.647 131.701 174.656 131.669 174.656 131.635C174.656 131.602 174.647 131.569 174.63 131.54C174.613 131.511 174.589 131.487 174.56 131.47L165.92 126.47C165.841 126.425 165.751 126.402 165.66 126.402C165.569 126.402 165.48 126.425 165.4 126.47L141.12 140.47C141.091 140.487 141.067 140.511 141.05 140.54C141.033 140.569 141.024 140.602 141.024 140.635C141.024 140.669 141.033 140.701 141.05 140.73C141.067 140.759 141.091 140.783 141.12 140.8Z" fill="#9198DB"/>
<path d="M166.57 127.73L145.49 139.9L144.55 139.36L165.63 127.19L166.57 127.73Z" fill="#24126A"/>
<path d="M168.87 129.06L149.09 140.47L148.16 139.93L167.93 128.51L168.87 129.06Z" fill="#24126A"/>
<path d="M170.37 129.92L147.08 143.36L146.15 142.82L169.43 129.38L170.37 129.92Z" fill="#24126A"/>
<path d="M171.86 130.78L148.58 144.23L147.64 143.69L170.93 130.24L171.86 130.78Z" fill="#24126A"/>
<path d="M173.36 131.65L150.08 145.09L149.14 144.55L172.42 131.11L173.36 131.65Z" fill="#24126A"/>
<path d="M144.22 140.64L143.28 141.18L142.34 140.64L143.28 140.1L144.22 140.64Z" fill="#24126A"/>
<path d="M147.52 141.38L145.58 142.5L144.64 141.96L146.58 140.84L147.52 141.38Z" fill="#24126A"/>
<path d="M166.33 143.87L172.88 140.09C172.934 140.069 172.981 140.032 173.014 139.983C173.046 139.935 173.064 139.878 173.064 139.82C173.064 139.762 173.046 139.705 173.014 139.657C172.981 139.608 172.934 139.571 172.88 139.55L168.4 136.97C168.256 136.895 168.097 136.855 167.935 136.855C167.773 136.855 167.613 136.895 167.47 136.97L160.93 140.75C160.67 140.9 160.67 141.14 160.93 141.28L165.4 143.87C165.545 143.939 165.704 143.975 165.865 143.975C166.026 143.975 166.185 143.939 166.33 143.87Z" fill="url(#paint21_linear_171_249)"/>
<path d="M160.93 140.97L167.47 137.19C167.614 137.115 167.773 137.075 167.935 137.075C168.097 137.075 168.257 137.115 168.4 137.19L172.88 139.77C172.945 139.81 173 139.865 173.04 139.93C173.1 139.8 173.04 139.66 172.88 139.55L168.4 136.97C168.257 136.895 168.097 136.855 167.935 136.855C167.773 136.855 167.614 136.895 167.47 136.97L160.93 140.75C160.75 140.85 160.7 141 160.77 141.13C160.804 141.06 160.861 141.004 160.93 140.97Z" fill="#9198DB"/>
<path d="M164.77 83.6L136.39 99.99V139.32L164.77 122.94V83.6Z" fill="#24126A"/>
<path d="M164.77 83.6L136.39 99.99V139.32L164.77 122.94V83.6Z" fill="#24126A"/>
<g opacity="0.51">
<path d="M163.19 123.85V86.3199L136.39 101.79V139.32L163.19 123.85Z" fill="#453C9E"/>
</g>
<g opacity="0.11">
<mask id="mask0_171_249" style="mask-type:luminance" maskUnits="userSpaceOnUse" x="136" y="86" width="28" height="54">
<path d="M163.19 123.85V86.3199L136.39 101.79V139.32L163.19 123.85Z" fill="white"/>
</mask>
<g mask="url(#mask0_171_249)">
<path d="M165.94 123.88L136.87 140.66C136.704 140.743 136.521 140.786 136.335 140.786C136.149 140.786 135.966 140.743 135.8 140.66L118.45 130.66C118.17 130.5 118.21 130.22 118.53 130.04L147.6 113.26C147.761 113.166 147.943 113.113 148.129 113.104C148.315 113.095 148.501 113.132 148.67 113.21L166.02 123.21C166.29 123.42 166.23 123.69 165.94 123.88Z" fill="url(#paint22_linear_171_249)"/>
<path d="M136.79 126.89L143.3 123.13C143.354 123.109 143.401 123.072 143.434 123.023C143.467 122.975 143.484 122.918 143.484 122.86C143.484 122.802 143.467 122.745 143.434 122.697C143.401 122.648 143.354 122.611 143.3 122.59L138.84 120.02C138.696 119.951 138.539 119.915 138.38 119.915C138.221 119.915 138.063 119.951 137.92 120.02L131.41 123.78C131.351 123.796 131.299 123.831 131.261 123.88C131.224 123.929 131.204 123.989 131.204 124.05C131.204 124.111 131.224 124.171 131.261 124.22C131.299 124.268 131.351 124.304 131.41 124.32L135.86 126.89C136.005 126.959 136.164 126.995 136.325 126.995C136.486 126.995 136.645 126.959 136.79 126.89Z" fill="url(#paint23_linear_171_249)"/>
<path d="M131.41 124L137.92 120.24C138.062 120.166 138.22 120.128 138.38 120.128C138.54 120.128 138.698 120.166 138.84 120.24L143.3 122.81C143.367 122.847 143.423 122.903 143.46 122.97C143.53 122.84 143.46 122.7 143.3 122.59L138.84 120.02C138.697 119.951 138.539 119.915 138.38 119.915C138.221 119.915 138.064 119.951 137.92 120.02L131.41 123.78C131.23 123.88 131.18 124.03 131.25 124.16C131.287 124.093 131.343 124.037 131.41 124Z" fill="#9198DB"/>
<path d="M128.55 132.76L152.7 118.82C152.778 118.771 152.868 118.745 152.96 118.745C153.052 118.745 153.142 118.771 153.22 118.82L161.82 123.82C161.849 123.837 161.873 123.861 161.89 123.89C161.907 123.918 161.916 123.951 161.916 123.985C161.916 124.018 161.907 124.051 161.89 124.08C161.873 124.109 161.849 124.133 161.82 124.15L137.68 138.09C137.601 138.135 137.511 138.158 137.42 138.158C137.329 138.158 137.239 138.135 137.16 138.09L128.55 133.09C128.521 133.073 128.497 133.049 128.48 133.02C128.463 132.991 128.454 132.958 128.454 132.925C128.454 132.891 128.463 132.858 128.48 132.83C128.497 132.801 128.521 132.777 128.55 132.76Z" fill="#ADB1F2"/>
<path d="M128.55 133.09H128.63L152.7 119.23C152.779 119.185 152.869 119.162 152.96 119.162C153.051 119.162 153.141 119.185 153.22 119.23L161.74 124.16L161.82 124.11C161.849 124.093 161.873 124.069 161.89 124.04C161.907 124.011 161.916 123.978 161.916 123.945C161.916 123.911 161.907 123.879 161.89 123.85C161.873 123.821 161.849 123.797 161.82 123.78L153.22 118.78C153.142 118.731 153.052 118.705 152.96 118.705C152.868 118.705 152.778 118.731 152.7 118.78L128.55 132.72C128.508 132.73 128.471 132.753 128.444 132.787C128.418 132.821 128.403 132.862 128.403 132.905C128.403 132.948 128.418 132.989 128.444 133.023C128.471 133.057 128.508 133.08 128.55 133.09Z" fill="#9198DB"/>
<path d="M159.57 123.45L138.53 135.6L139.36 136.09L160.41 123.94L159.57 123.45Z" fill="#24126A"/>
<path d="M157.36 122.17L137.35 133.72L138.19 134.2L158.19 122.66L157.36 122.17Z" fill="#24126A"/>
<path d="M135.86 134.59L133.99 135.66L134.83 136.15L136.69 135.07L135.86 134.59Z" fill="#24126A"/>
<path d="M137.51 136.19L136.21 136.94L137.04 137.43L138.34 136.67L137.51 136.19Z" fill="#24126A"/>
<path d="M155.97 121.37L132.6 134.86L133.44 135.34L156.8 121.85L155.97 121.37Z" fill="#24126A"/>
<path d="M154.58 120.57L131.21 134.06L132.05 134.54L155.41 121.05L154.58 120.57Z" fill="#24126A"/>
<path d="M153.19 119.77L129.82 133.26L130.66 133.74L154.02 120.25L153.19 119.77Z" fill="#24126A"/>
</g>
</g>
<path d="M144.13 104.87L142.44 105.85V104.71L144.13 103.73V104.87Z" fill="#DBF2FC"/>
<path d="M144.13 112.56L142.44 113.54V106.88L144.13 105.9V112.56Z" fill="#DBF2FC"/>
<path d="M144.13 116.23L142.44 117.21V114.57L144.13 113.59V116.23Z" fill="#DBF2FC"/>
<path d="M144.13 120.05L142.44 121.03V118.38L144.13 117.4V120.05Z" fill="#DBF2FC"/>
<path d="M146.66 107.08L144.97 108.06V105.42L146.66 104.44V107.08Z" fill="#DBF2FC"/>
<path d="M146.66 112.13L144.97 113.11V109.23L146.66 108.25V112.13Z" fill="#DBF2FC"/>
<path d="M146.66 116.78L144.97 117.76V114.43L146.66 113.45V116.78Z" fill="#DBF2FC"/>
<path d="M144.13 123.86L142.44 124.84V122.19L144.13 121.22V123.86Z" fill="#DBF2FC"/>
<path d="M146.66 103.41L144.97 104.39V103.25L146.66 102.27V103.41Z" fill="#DBF2FC"/>
<path d="M145.4 126.82L142.44 128.53V127.43L145.4 125.72V126.82Z" fill="#DBF2FC"/>
<path d="M125.28 66.39C125.257 65.9711 125.135 65.5635 124.925 65.2004C124.714 64.8373 124.422 64.5288 124.07 64.3C123.948 64.2163 123.806 64.1658 123.659 64.1536C123.512 64.1413 123.364 64.1677 123.23 64.23L122.38 64.73H122.91C122.899 64.8164 122.899 64.9037 122.91 64.99C122.933 65.4079 123.053 65.8146 123.262 66.1775C123.47 66.5405 123.761 66.8496 124.11 67.08C124.192 67.1275 124.279 67.1645 124.37 67.19L124.12 67.65L124.96 67.16C125.076 67.0713 125.167 66.9534 125.224 66.8181C125.28 66.6829 125.299 66.5352 125.28 66.39Z" fill="url(#paint24_linear_171_249)"/>
<path d="M124.42 66.8899C124.42 67.6599 123.88 67.9699 123.21 67.5899C122.86 67.3595 122.57 67.0504 122.362 66.6874C122.153 66.3245 122.033 65.9178 122.01 65.4999C122.01 64.7299 122.55 64.4199 123.21 64.7999C123.562 65.0287 123.854 65.3372 124.065 65.7003C124.275 66.0634 124.396 66.471 124.42 66.8899Z" fill="url(#paint25_linear_171_249)"/>
<path d="M123.91 66.5999C123.91 67.0399 123.59 67.2199 123.21 66.9999C123.009 66.8676 122.842 66.6902 122.723 66.4818C122.603 66.2734 122.533 66.0399 122.52 65.7999C122.52 65.3499 122.83 65.1699 123.21 65.3999C123.413 65.5305 123.582 65.7073 123.704 65.9159C123.826 66.1244 123.896 66.3588 123.91 66.5999Z" fill="#3F21D3"/>
<path d="M65.63 32.1499C65.6083 31.7306 65.4872 31.3224 65.2769 30.9591C65.0665 30.5957 64.7728 30.2875 64.42 30.0599C64.2998 29.9688 64.1565 29.913 64.0064 29.8988C63.8562 29.8847 63.705 29.9128 63.57 29.9799L62.71 30.4799H63.23C63.2246 30.5665 63.2246 30.6533 63.23 30.7399C63.2521 31.158 63.3723 31.5649 63.5807 31.928C63.7892 32.2911 64.0801 32.6 64.43 32.8299C64.5115 32.8802 64.5988 32.9205 64.69 32.9499L64.45 33.4099L65.28 32.9199C65.4012 32.834 65.4975 32.7174 65.5589 32.5822C65.6204 32.4469 65.6449 32.2977 65.63 32.1499Z" fill="url(#paint26_linear_171_249)"/>
<path d="M64.7699 32.6499C64.7699 33.4199 64.2298 33.7299 63.5598 33.3499C63.2105 33.1195 62.9201 32.8104 62.7117 32.4474C62.5033 32.0845 62.3828 31.6778 62.3599 31.2599C62.3599 30.4899 62.8998 30.18 63.5598 30.56C63.9116 30.7887 64.2044 31.0972 64.4147 31.4603C64.6249 31.8234 64.7466 32.231 64.7699 32.6499Z" fill="url(#paint27_linear_171_249)"/>
<path d="M64.2298 32.35C64.2298 32.8 63.9198 32.98 63.5298 32.76C63.3289 32.6256 63.162 32.4463 63.0423 32.2363C62.9226 32.0263 62.8532 31.7914 62.8398 31.5501C62.8398 31.1101 63.1498 30.93 63.5298 31.15C63.7335 31.28 63.9032 31.4567 64.0249 31.6654C64.1467 31.8741 64.2169 32.1088 64.2298 32.35Z" fill="#3F21D3"/>
<path d="M125.28 182.36C125.258 181.941 125.137 181.532 124.927 181.169C124.716 180.806 124.423 180.498 124.07 180.27C123.945 180.191 123.802 180.146 123.655 180.139C123.508 180.132 123.361 180.163 123.23 180.23L122.38 180.73C122.516 180.666 122.666 180.64 122.816 180.654C122.965 180.668 123.108 180.722 123.23 180.81C123.582 181.039 123.874 181.347 124.085 181.71C124.295 182.073 124.417 182.481 124.44 182.9C124.453 183.044 124.43 183.189 124.372 183.322C124.315 183.455 124.224 183.571 124.11 183.66L124.95 183.17C125.075 183.079 125.172 182.955 125.23 182.812C125.289 182.669 125.306 182.512 125.28 182.36Z" fill="url(#paint28_linear_171_249)"/>
<path d="M124.07 183.06L123.83 182.89C123.71 183.08 123.48 183.12 123.21 182.97C123.009 182.838 122.842 182.66 122.722 182.452C122.603 182.243 122.533 182.01 122.52 181.77C122.52 181.46 122.67 181.28 122.89 181.27C122.89 181.17 122.89 181.07 122.89 180.97C122.879 180.884 122.879 180.796 122.89 180.71H122.36C122.236 180.796 122.138 180.914 122.077 181.051C122.015 181.189 121.992 181.34 122.01 181.49C122.033 181.908 122.153 182.315 122.362 182.677C122.57 183.04 122.86 183.349 123.21 183.58C123.335 183.674 123.485 183.73 123.641 183.74C123.797 183.751 123.953 183.716 124.09 183.64L124.33 183.19C124.24 183.154 124.153 183.11 124.07 183.06Z" fill="url(#paint29_linear_171_249)"/>
<path d="M124.42 182.86C124.397 182.441 124.275 182.033 124.065 181.67C123.854 181.307 123.562 180.999 123.21 180.77C123.088 180.682 122.945 180.628 122.796 180.614C122.646 180.6 122.496 180.626 122.36 180.69H122.89C122.879 180.776 122.879 180.864 122.89 180.95C122.89 181.05 122.89 181.15 122.89 181.25C123.002 181.253 123.112 181.284 123.21 181.34C123.412 181.474 123.581 181.653 123.702 181.863C123.823 182.073 123.895 182.308 123.91 182.55C123.912 182.662 123.884 182.772 123.83 182.87L124.07 183.04C124.154 183.083 124.24 183.12 124.33 183.15L124.09 183.6C124.201 183.513 124.29 183.4 124.347 183.271C124.405 183.142 124.43 183.001 124.42 182.86Z" fill="url(#paint30_linear_171_249)"/>
<path d="M124.42 182.86C124.397 182.441 124.275 182.033 124.065 181.67C123.854 181.307 123.562 180.999 123.21 180.77C123.088 180.682 122.945 180.628 122.796 180.614C122.646 180.6 122.496 180.626 122.36 180.69H122.89C122.879 180.776 122.879 180.864 122.89 180.95C122.89 181.05 122.89 181.15 122.89 181.25C123.002 181.253 123.112 181.284 123.21 181.34C123.412 181.474 123.581 181.653 123.702 181.863C123.823 182.073 123.895 182.308 123.91 182.55C123.912 182.662 123.884 182.772 123.83 182.87L124.07 183.04C124.154 183.083 124.24 183.12 124.33 183.15L124.09 183.6C124.201 183.513 124.29 183.4 124.347 183.271C124.405 183.142 124.43 183.001 124.42 182.86Z" fill="url(#paint31_linear_171_249)"/>
<path d="M122.52 181.77C122.533 182.01 122.603 182.244 122.723 182.452C122.842 182.66 123.009 182.838 123.21 182.97C123.48 183.12 123.71 183.08 123.83 182.89C123.342 182.472 123.01 181.901 122.89 181.27C122.67 181.28 122.52 181.46 122.52 181.77Z" fill="#3F21D3"/>
<path d="M123.83 182.89C123.885 182.792 123.912 182.682 123.91 182.57C123.895 182.328 123.824 182.093 123.702 181.883C123.581 181.673 123.412 181.494 123.21 181.36C123.113 181.304 123.003 181.273 122.89 181.27C123.011 181.901 123.342 182.472 123.83 182.89Z" fill="#3F21D3"/>
<path d="M64.42 146.03C64.2998 145.939 64.1565 145.883 64.0064 145.869C63.8562 145.855 63.705 145.883 63.57 145.95L62.71 146.44C62.8474 146.38 62.9979 146.358 63.1468 146.373C63.2957 146.389 63.438 146.443 63.56 146.53C63.9128 146.757 64.2065 147.066 64.4169 147.429C64.6273 147.792 64.7483 148.201 64.77 148.62C64.7834 148.764 64.7602 148.909 64.7025 149.042C64.6448 149.175 64.5545 149.291 64.44 149.38L65.28 148.89C65.4031 148.803 65.5012 148.685 65.5643 148.548C65.6275 148.411 65.6536 148.26 65.64 148.11C65.6156 147.691 65.4923 147.285 65.2803 146.923C65.0682 146.562 64.7733 146.255 64.42 146.03Z" fill="url(#paint32_linear_171_249)"/>
<path d="M64.4201 148.81C64.3355 148.76 64.2553 148.703 64.1801 148.64C64.0601 148.83 63.8301 148.88 63.5601 148.72C63.3594 148.588 63.1925 148.41 63.0727 148.202C62.9529 147.993 62.8835 147.76 62.8701 147.52C62.8701 147.21 63.0201 147.04 63.2401 147.03C63.2401 146.93 63.2401 146.82 63.2401 146.72C63.2348 146.633 63.2348 146.547 63.2401 146.46H62.7101C62.5872 146.549 62.4902 146.669 62.4287 146.808C62.3672 146.947 62.3436 147.099 62.3601 147.25C62.3831 147.668 62.5035 148.075 62.7119 148.437C62.9203 148.8 63.2108 149.109 63.5601 149.34C63.6868 149.431 63.8362 149.484 63.9916 149.495C64.147 149.505 64.3023 149.473 64.4401 149.4L64.6801 148.95L64.4201 148.81Z" fill="url(#paint33_linear_171_249)"/>
<path d="M64.77 148.62C64.7483 148.201 64.6273 147.792 64.4169 147.429C64.2065 147.066 63.9128 146.758 63.56 146.53C63.438 146.443 63.2957 146.389 63.1468 146.373C62.9979 146.358 62.8474 146.381 62.71 146.44H63.24C63.2346 146.527 63.2346 146.613 63.24 146.7C63.24 146.8 63.24 146.91 63.24 147.01C63.3524 147.013 63.4624 147.044 63.56 147.1C63.7636 147.23 63.9333 147.407 64.0551 147.615C64.1768 147.824 64.2471 148.059 64.26 148.3C64.2648 148.412 64.2371 148.523 64.18 148.62C64.2551 148.683 64.3354 148.74 64.42 148.79L64.68 148.91L64.44 149.36C64.5515 149.273 64.64 149.16 64.6976 149.031C64.7551 148.902 64.78 148.761 64.77 148.62Z" fill="url(#paint34_linear_171_249)"/>
<path d="M64.77 148.62C64.7483 148.201 64.6273 147.792 64.4169 147.429C64.2065 147.066 63.9128 146.758 63.56 146.53C63.438 146.443 63.2957 146.389 63.1468 146.373C62.9979 146.358 62.8474 146.381 62.71 146.44H63.24C63.2346 146.527 63.2346 146.613 63.24 146.7C63.24 146.8 63.24 146.91 63.24 147.01C63.3524 147.013 63.4624 147.044 63.56 147.1C63.7636 147.23 63.9333 147.407 64.0551 147.615C64.1768 147.824 64.2471 148.059 64.26 148.3C64.2648 148.412 64.2371 148.523 64.18 148.62C64.2551 148.683 64.3354 148.74 64.42 148.79L64.68 148.91L64.44 149.36C64.5515 149.273 64.64 149.16 64.6976 149.031C64.7551 148.902 64.78 148.761 64.77 148.62Z" fill="url(#paint35_linear_171_249)"/>
<path d="M62.8701 147.52C62.8835 147.76 62.9529 147.994 63.0727 148.202C63.1925 148.41 63.3594 148.588 63.5601 148.72C63.8301 148.88 64.0601 148.83 64.1801 148.64C63.6902 148.228 63.358 147.659 63.2401 147.03C63.0201 147.04 62.8701 147.23 62.8701 147.52Z" fill="#3F21D3"/>
<path d="M64.23 148.64C64.2871 148.543 64.3149 148.432 64.31 148.32C64.2971 148.079 64.2269 147.844 64.1052 147.635C63.9834 147.427 63.8137 147.25 63.61 147.12C63.5125 147.064 63.4025 147.033 63.29 147.03C63.4079 147.659 63.7401 148.228 64.23 148.64Z" fill="#3F21D3"/>
<defs>
<linearGradient id="paint0_linear_171_249" x1="52.3798" y1="167.17" x2="181.05" y2="167.17" gradientUnits="userSpaceOnUse">
<stop stop-color="#5761D7"/>
<stop offset="1" stop-color="#088FF0"/>
</linearGradient>
<linearGradient id="paint1_linear_171_249" x1="151.42" y1="188.76" x2="151.42" y2="39.99" gradientUnits="userSpaceOnUse">
<stop stop-color="#C0BFF6"/>
<stop offset="0.29" stop-color="#C5C4F7"/>
<stop offset="0.64" stop-color="#D3D2F9"/>
<stop offset="1" stop-color="#E9E9FD"/>
</linearGradient>
<linearGradient id="paint2_linear_171_249" x1="71.34" y1="31.21" x2="140.15" y2="31.21" gradientUnits="userSpaceOnUse">
<stop stop-color="#E9E9FD"/>
<stop offset="0.04" stop-color="#D3D5F7"/>
<stop offset="0.11" stop-color="#B2B6EF"/>
<stop offset="0.18" stop-color="#969BE7"/>
<stop offset="0.27" stop-color="#7F86E1"/>
<stop offset="0.36" stop-color="#6D75DD"/>
<stop offset="0.48" stop-color="#606AD9"/>
<stop offset="0.64" stop-color="#5963D8"/>
<stop offset="1" stop-color="#5761D7"/>
</linearGradient>
<linearGradient id="paint3_linear_171_249" x1="68.3101" y1="32.3699" x2="160.42" y2="32.3699" gradientUnits="userSpaceOnUse">
<stop stop-color="#5761D7"/>
<stop offset="0.18" stop-color="#5C66D9"/>
<stop offset="0.39" stop-color="#6A73DF"/>
<stop offset="0.61" stop-color="#8289E8"/>
<stop offset="0.85" stop-color="#A3A7F5"/>
<stop offset="1" stop-color="#BCBEFF"/>
</linearGradient>
<linearGradient id="paint4_linear_171_249" x1="129.46" y1="48.8199" x2="165.13" y2="48.8199" gradientUnits="userSpaceOnUse">
<stop stop-color="#C0BFF6"/>
<stop offset="0.29" stop-color="#C5C4F7"/>
<stop offset="0.64" stop-color="#D3D2F9"/>
<stop offset="1" stop-color="#E9E9FD"/>
</linearGradient>
<linearGradient id="paint5_linear_171_249" x1="68.3101" y1="29.97" x2="165.13" y2="29.97" gradientUnits="userSpaceOnUse">
<stop stop-color="#C0BFF6"/>
<stop offset="0.29" stop-color="#C5C4F7"/>
<stop offset="0.64" stop-color="#D3D2F9"/>
<stop offset="1" stop-color="#E9E9FD"/>
</linearGradient>
<linearGradient id="paint6_linear_171_249" x1="89.5298" y1="16.47" x2="100.92" y2="16.47" gradientUnits="userSpaceOnUse">
<stop stop-color="#5761D7"/>
<stop offset="0.18" stop-color="#5C66D9"/>
<stop offset="0.39" stop-color="#6A73DF"/>
<stop offset="0.61" stop-color="#8289E8"/>
<stop offset="0.85" stop-color="#A3A7F5"/>
<stop offset="1" stop-color="#BCBEFF"/>
</linearGradient>
<linearGradient id="paint7_linear_171_249" x1="92.4897" y1="18.1699" x2="103.88" y2="18.1699" gradientUnits="userSpaceOnUse">
<stop stop-color="#5761D7"/>
<stop offset="0.18" stop-color="#5C66D9"/>
<stop offset="0.39" stop-color="#6A73DF"/>
<stop offset="0.61" stop-color="#8289E8"/>
<stop offset="0.85" stop-color="#A3A7F5"/>
<stop offset="1" stop-color="#BCBEFF"/>
</linearGradient>
<linearGradient id="paint8_linear_171_249" x1="95.4502" y1="19.87" x2="106.84" y2="19.87" gradientUnits="userSpaceOnUse">
<stop stop-color="#5761D7"/>
<stop offset="0.18" stop-color="#5C66D9"/>
<stop offset="0.39" stop-color="#6A73DF"/>
<stop offset="0.61" stop-color="#8289E8"/>
<stop offset="0.85" stop-color="#A3A7F5"/>
<stop offset="1" stop-color="#BCBEFF"/>
</linearGradient>
<linearGradient id="paint9_linear_171_249" x1="98.3999" y1="21.5699" x2="109.8" y2="21.5699" gradientUnits="userSpaceOnUse">
<stop stop-color="#5761D7"/>
<stop offset="0.18" stop-color="#5C66D9"/>
<stop offset="0.39" stop-color="#6A73DF"/>
<stop offset="0.61" stop-color="#8289E8"/>
<stop offset="0.85" stop-color="#A3A7F5"/>
<stop offset="1" stop-color="#BCBEFF"/>
</linearGradient>
<linearGradient id="paint10_linear_171_249" x1="107.05" y1="26.6" x2="118.44" y2="26.6" gradientUnits="userSpaceOnUse">
<stop stop-color="#5761D7"/>
<stop offset="0.18" stop-color="#5C66D9"/>
<stop offset="0.39" stop-color="#6A73DF"/>
<stop offset="0.61" stop-color="#8289E8"/>
<stop offset="0.85" stop-color="#A3A7F5"/>
<stop offset="1" stop-color="#BCBEFF"/>
</linearGradient>
<linearGradient id="paint11_linear_171_249" x1="110.01" y1="28.3" x2="121.4" y2="28.3" gradientUnits="userSpaceOnUse">
<stop stop-color="#5761D7"/>
<stop offset="0.18" stop-color="#5C66D9"/>
<stop offset="0.39" stop-color="#6A73DF"/>
<stop offset="0.61" stop-color="#8289E8"/>
<stop offset="0.85" stop-color="#A3A7F5"/>
<stop offset="1" stop-color="#BCBEFF"/>
</linearGradient>
<linearGradient id="paint12_linear_171_249" x1="112.97" y1="30" x2="124.36" y2="30" gradientUnits="userSpaceOnUse">
<stop stop-color="#5761D7"/>
<stop offset="0.18" stop-color="#5C66D9"/>
<stop offset="0.39" stop-color="#6A73DF"/>
<stop offset="0.61" stop-color="#8289E8"/>
<stop offset="0.85" stop-color="#A3A7F5"/>
<stop offset="1" stop-color="#BCBEFF"/>
</linearGradient>
<linearGradient id="paint13_linear_171_249" x1="115.92" y1="31.7" x2="127.31" y2="31.7" gradientUnits="userSpaceOnUse">
<stop stop-color="#5761D7"/>
<stop offset="0.18" stop-color="#5C66D9"/>
<stop offset="0.39" stop-color="#6A73DF"/>
<stop offset="0.61" stop-color="#8289E8"/>
<stop offset="0.85" stop-color="#A3A7F5"/>
<stop offset="1" stop-color="#BCBEFF"/>
</linearGradient>
<linearGradient id="paint14_linear_171_249" x1="124.57" y1="36.73" x2="135.96" y2="36.73" gradientUnits="userSpaceOnUse">
<stop stop-color="#5761D7"/>
<stop offset="0.18" stop-color="#5C66D9"/>
<stop offset="0.39" stop-color="#6A73DF"/>
<stop offset="0.61" stop-color="#8289E8"/>
<stop offset="0.85" stop-color="#A3A7F5"/>
<stop offset="1" stop-color="#BCBEFF"/>
</linearGradient>
<linearGradient id="paint15_linear_171_249" x1="127.53" y1="38.4299" x2="138.92" y2="38.4299" gradientUnits="userSpaceOnUse">
<stop stop-color="#5761D7"/>
<stop offset="0.18" stop-color="#5C66D9"/>
<stop offset="0.39" stop-color="#6A73DF"/>
<stop offset="0.61" stop-color="#8289E8"/>
<stop offset="0.85" stop-color="#A3A7F5"/>
<stop offset="1" stop-color="#BCBEFF"/>
</linearGradient>
<linearGradient id="paint16_linear_171_249" x1="130.48" y1="40.13" x2="141.88" y2="40.13" gradientUnits="userSpaceOnUse">
<stop stop-color="#5761D7"/>
<stop offset="0.18" stop-color="#5C66D9"/>
<stop offset="0.39" stop-color="#6A73DF"/>
<stop offset="0.61" stop-color="#8289E8"/>
<stop offset="0.85" stop-color="#A3A7F5"/>
<stop offset="1" stop-color="#BCBEFF"/>
</linearGradient>
<linearGradient id="paint17_linear_171_249" x1="133.44" y1="41.8299" x2="144.83" y2="41.8299" gradientUnits="userSpaceOnUse">
<stop stop-color="#5761D7"/>
<stop offset="0.18" stop-color="#5C66D9"/>
<stop offset="0.39" stop-color="#6A73DF"/>
<stop offset="0.61" stop-color="#8289E8"/>
<stop offset="0.85" stop-color="#A3A7F5"/>
<stop offset="1" stop-color="#BCBEFF"/>
</linearGradient>
<linearGradient id="paint18_linear_171_249" x1="165.92" y1="122.62" x2="141.8" y2="104.7" gradientUnits="userSpaceOnUse">
<stop stop-color="#5761D7"/>
<stop offset="0.18" stop-color="#5C66D9"/>
<stop offset="0.39" stop-color="#6A73DF"/>
<stop offset="0.61" stop-color="#8289E8"/>
<stop offset="0.85" stop-color="#A3A7F5"/>
<stop offset="1" stop-color="#BCBEFF"/>
</linearGradient>
<linearGradient id="paint19_linear_171_249" x1="136.4" y1="139.29" x2="184.55" y2="139.29" gradientUnits="userSpaceOnUse">
<stop stop-color="#5761D7"/>
<stop offset="0.18" stop-color="#5C66D9"/>
<stop offset="0.39" stop-color="#6A73DF"/>
<stop offset="0.61" stop-color="#8289E8"/>
<stop offset="0.85" stop-color="#A3A7F5"/>
<stop offset="1" stop-color="#BCBEFF"/>
</linearGradient>
<linearGradient id="paint20_linear_171_249" x1="152.58" y1="137.68" x2="200.75" y2="137.68" gradientUnits="userSpaceOnUse">
<stop stop-color="#C0BFF6"/>
<stop offset="0.29" stop-color="#C5C4F7"/>
<stop offset="0.64" stop-color="#D3D2F9"/>
<stop offset="1" stop-color="#E9E9FD"/>
</linearGradient>
<linearGradient id="paint21_linear_171_249" x1="160.74" y1="140.42" x2="173.07" y2="140.42" gradientUnits="userSpaceOnUse">
<stop stop-color="#C0BFF6"/>
<stop offset="0.29" stop-color="#C5C4F7"/>
<stop offset="0.64" stop-color="#D3D2F9"/>
<stop offset="1" stop-color="#E9E9FD"/>
</linearGradient>
<linearGradient id="paint22_linear_171_249" x1="134.37" y1="126.97" x2="182.31" y2="126.97" gradientUnits="userSpaceOnUse">
<stop stop-color="#C0BFF6"/>
<stop offset="0.29" stop-color="#C5C4F7"/>
<stop offset="0.64" stop-color="#D3D2F9"/>
<stop offset="1" stop-color="#E9E9FD"/>
</linearGradient>
<linearGradient id="paint23_linear_171_249" x1="131.22" y1="123.46" x2="143.49" y2="123.46" gradientUnits="userSpaceOnUse">
<stop stop-color="#C0BFF6"/>
<stop offset="0.29" stop-color="#C5C4F7"/>
<stop offset="0.64" stop-color="#D3D2F9"/>
<stop offset="1" stop-color="#E9E9FD"/>
</linearGradient>
<linearGradient id="paint24_linear_171_249" x1="122.36" y1="65.9" x2="125.28" y2="65.9" gradientUnits="userSpaceOnUse">
<stop stop-color="#C0BFF6"/>
<stop offset="0.29" stop-color="#C5C4F7"/>
<stop offset="0.64" stop-color="#D3D2F9"/>
<stop offset="1" stop-color="#E9E9FD"/>
</linearGradient>
<linearGradient id="paint25_linear_171_249" x1="122.01" y1="66.1999" x2="124.42" y2="66.1999" gradientUnits="userSpaceOnUse">
<stop stop-color="#5761D7"/>
<stop offset="0.18" stop-color="#5C66D9"/>
<stop offset="0.39" stop-color="#6A73DF"/>
<stop offset="0.61" stop-color="#8289E8"/>
<stop offset="0.85" stop-color="#A3A7F5"/>
<stop offset="1" stop-color="#BCBEFF"/>
</linearGradient>
<linearGradient id="paint26_linear_171_249" x1="62.71" y1="31.6599" x2="65.63" y2="31.6599" gradientUnits="userSpaceOnUse">
<stop stop-color="#C0BFF6"/>
<stop offset="0.29" stop-color="#C5C4F7"/>
<stop offset="0.64" stop-color="#D3D2F9"/>
<stop offset="1" stop-color="#E9E9FD"/>
</linearGradient>
<linearGradient id="paint27_linear_171_249" x1="62.3599" y1="31.9499" x2="64.7699" y2="31.9499" gradientUnits="userSpaceOnUse">
<stop stop-color="#5761D7"/>
<stop offset="0.18" stop-color="#5C66D9"/>
<stop offset="0.39" stop-color="#6A73DF"/>
<stop offset="0.61" stop-color="#8289E8"/>
<stop offset="0.85" stop-color="#A3A7F5"/>
<stop offset="1" stop-color="#BCBEFF"/>
</linearGradient>
<linearGradient id="paint28_linear_171_249" x1="122.36" y1="181.87" x2="125.28" y2="181.87" gradientUnits="userSpaceOnUse">
<stop stop-color="#C0BFF6"/>
<stop offset="0.29" stop-color="#C5C4F7"/>
<stop offset="0.64" stop-color="#D3D2F9"/>
<stop offset="1" stop-color="#E9E9FD"/>
</linearGradient>
<linearGradient id="paint29_linear_171_249" x1="122.01" y1="182.2" x2="124.42" y2="182.2" gradientUnits="userSpaceOnUse">
<stop stop-color="#5761D7"/>
<stop offset="0.18" stop-color="#5C66D9"/>
<stop offset="0.39" stop-color="#6A73DF"/>
<stop offset="0.61" stop-color="#8289E8"/>
<stop offset="0.85" stop-color="#A3A7F5"/>
<stop offset="1" stop-color="#BCBEFF"/>
</linearGradient>
<linearGradient id="paint30_linear_171_249" x1="122.36" y1="182.12" x2="125.28" y2="182.12" gradientUnits="userSpaceOnUse">
<stop stop-color="#C0BFF6"/>
<stop offset="0.29" stop-color="#C5C4F7"/>
<stop offset="0.64" stop-color="#D3D2F9"/>
<stop offset="1" stop-color="#E9E9FD"/>
</linearGradient>
<linearGradient id="paint31_linear_171_249" x1="122.01" y1="182.12" x2="124.42" y2="182.12" gradientUnits="userSpaceOnUse">
<stop stop-color="#5761D7"/>
<stop offset="0.18" stop-color="#5C66D9"/>
<stop offset="0.39" stop-color="#6A73DF"/>
<stop offset="0.61" stop-color="#8289E8"/>
<stop offset="0.85" stop-color="#A3A7F5"/>
<stop offset="1" stop-color="#BCBEFF"/>
</linearGradient>
<linearGradient id="paint32_linear_171_249" x1="62.71" y1="147.63" x2="65.63" y2="147.63" gradientUnits="userSpaceOnUse">
<stop stop-color="#C0BFF6"/>
<stop offset="0.29" stop-color="#C5C4F7"/>
<stop offset="0.64" stop-color="#D3D2F9"/>
<stop offset="1" stop-color="#E9E9FD"/>
</linearGradient>
<linearGradient id="paint33_linear_171_249" x1="62.3601" y1="147.96" x2="64.7701" y2="147.96" gradientUnits="userSpaceOnUse">
<stop stop-color="#5761D7"/>
<stop offset="0.18" stop-color="#5C66D9"/>
<stop offset="0.39" stop-color="#6A73DF"/>
<stop offset="0.61" stop-color="#8289E8"/>
<stop offset="0.85" stop-color="#A3A7F5"/>
<stop offset="1" stop-color="#BCBEFF"/>
</linearGradient>
<linearGradient id="paint34_linear_171_249" x1="62.71" y1="147.87" x2="65.63" y2="147.87" gradientUnits="userSpaceOnUse">
<stop stop-color="#C0BFF6"/>
<stop offset="0.29" stop-color="#C5C4F7"/>
<stop offset="0.64" stop-color="#D3D2F9"/>
<stop offset="1" stop-color="#E9E9FD"/>
</linearGradient>
<linearGradient id="paint35_linear_171_249" x1="62.36" y1="147.87" x2="64.77" y2="147.87" gradientUnits="userSpaceOnUse">
<stop stop-color="#5761D7"/>
<stop offset="0.18" stop-color="#5C66D9"/>
<stop offset="0.39" stop-color="#6A73DF"/>
<stop offset="0.61" stop-color="#8289E8"/>
<stop offset="0.85" stop-color="#A3A7F5"/>
<stop offset="1" stop-color="#BCBEFF"/>
</linearGradient>
</defs>
</svg>
