<svg width="222" height="221" viewBox="0 0 222 221" fill="none" xmlns="http://www.w3.org/2000/svg">
<path d="M44.41 106.28C42.67 105.28 42.67 103.65 44.41 102.65C45.3819 102.152 46.4581 101.893 47.55 101.893C48.6418 101.893 49.7181 102.152 50.69 102.65C52.43 103.65 52.43 105.27 50.69 106.28C49.7155 106.769 48.6403 107.024 47.55 107.024C46.4597 107.024 45.3844 106.769 44.41 106.28Z" fill="url(#paint0_linear_172_104)"/>
<path d="M44.4099 106.06C45.3843 106.549 46.4596 106.804 47.5499 106.804C48.6402 106.804 49.7154 106.549 50.6899 106.06C51.0299 105.903 51.3262 105.665 51.5528 105.367C51.7794 105.069 51.9295 104.72 51.9899 104.35C51.9812 104.763 51.854 105.164 51.6235 105.506C51.393 105.848 51.0689 106.117 50.6899 106.28C49.7154 106.769 48.6402 107.024 47.5499 107.024C46.4596 107.024 45.3843 106.769 44.4099 106.28C44.0308 106.117 43.7067 105.848 43.4762 105.506C43.2457 105.164 43.1185 104.763 43.1099 104.35C43.1702 104.72 43.3203 105.069 43.5469 105.367C43.7736 105.665 44.0699 105.903 44.4099 106.06Z" fill="white"/>
<path d="M44.41 114.92C42.67 113.92 42.67 112.29 44.41 111.29C45.3844 110.801 46.4597 110.546 47.55 110.546C48.6403 110.546 49.7155 110.801 50.69 111.29C52.43 112.29 52.43 113.92 50.69 114.92C49.7155 115.409 48.6403 115.664 47.55 115.664C46.4597 115.664 45.3844 115.409 44.41 114.92Z" fill="url(#paint1_linear_172_104)"/>
<path d="M44.41 123.7C42.67 122.7 42.67 121.07 44.41 120.07C45.3819 119.572 46.4581 119.313 47.55 119.313C48.6418 119.313 49.7181 119.572 50.69 120.07C52.43 121.07 52.43 122.69 50.69 123.7C49.7155 124.189 48.6403 124.444 47.55 124.444C46.4597 124.444 45.3844 124.189 44.41 123.7Z" fill="url(#paint2_linear_172_104)"/>
<path d="M52 104.46V99.97C51.9632 100.361 51.8222 100.735 51.5919 101.054C51.3615 101.372 51.0501 101.623 50.69 101.78C49.7181 102.278 48.6419 102.537 47.55 102.537C46.4581 102.537 45.3819 102.278 44.41 101.78C44.0622 101.623 43.7602 101.38 43.5327 101.074C43.3052 100.768 43.1597 100.408 43.11 100.03V81.03H52V137.03C52.0285 137.631 51.9347 138.233 51.7242 138.797C51.5137 139.361 51.1909 139.876 50.7753 140.312C50.3597 140.748 49.8601 141.095 49.3065 141.332C48.753 141.569 48.1571 141.691 47.555 141.691C46.9528 141.691 46.357 141.569 45.8034 141.332C45.2499 141.095 44.7502 140.748 44.3347 140.312C43.9191 139.876 43.5963 139.361 43.3858 138.797C43.1753 138.233 43.0814 137.631 43.11 137.03V121.82C43.1303 122.223 43.2627 122.613 43.4924 122.945C43.7221 123.277 44.0398 123.539 44.41 123.7C45.3844 124.189 46.4597 124.444 47.55 124.444C48.6403 124.444 49.7155 124.189 50.69 123.7C51.0476 123.539 51.3569 123.288 51.5868 122.97C51.8166 122.652 51.9591 122.28 52 121.89V117.4C51.9632 117.791 51.8222 118.165 51.5919 118.484C51.3615 118.802 51.0501 119.053 50.69 119.21C49.7181 119.708 48.6419 119.967 47.55 119.967C46.4581 119.967 45.3819 119.708 44.41 119.21C44.0622 119.053 43.7602 118.81 43.5327 118.504C43.3052 118.198 43.1597 117.838 43.11 117.46V113.05C43.131 113.452 43.2638 113.84 43.4935 114.17C43.7232 114.501 44.0406 114.76 44.41 114.92C45.3844 115.409 46.4597 115.664 47.55 115.664C48.6403 115.664 49.7155 115.409 50.69 114.92C51.0489 114.761 51.3591 114.51 51.5893 114.192C51.8194 113.874 51.9611 113.501 52 113.11V108.62C51.9628 109.012 51.8219 109.388 51.5917 109.708C51.3614 110.027 51.0502 110.28 50.69 110.44C49.7155 110.929 48.6403 111.184 47.55 111.184C46.4597 111.184 45.3844 110.929 44.41 110.44C44.062 110.281 43.7602 110.036 43.5328 109.728C43.3054 109.42 43.1599 109.059 43.11 108.68V104.42C43.1303 104.823 43.2627 105.213 43.4924 105.545C43.7221 105.877 44.0398 106.139 44.41 106.3C45.3844 106.789 46.4597 107.044 47.55 107.044C48.6403 107.044 49.7155 106.789 50.69 106.3C51.0476 106.139 51.3569 105.888 51.5868 105.57C51.8166 105.252 51.9591 104.88 52 104.49V104.46Z" fill="url(#paint3_linear_172_104)"/>
<path d="M44.4099 114.69C45.3843 115.179 46.4596 115.434 47.5499 115.434C48.6402 115.434 49.7154 115.179 50.6899 114.69C51.0291 114.535 51.3251 114.298 51.5517 114.002C51.7784 113.706 51.9288 113.358 51.9899 112.99C51.9805 113.401 51.853 113.801 51.6224 114.141C51.3919 114.482 51.0681 114.749 50.6899 114.91C49.7154 115.399 48.6402 115.654 47.5499 115.654C46.4596 115.654 45.3843 115.399 44.4099 114.91C44.0316 114.749 43.7078 114.482 43.4773 114.141C43.2467 113.801 43.1192 113.401 43.1099 112.99C43.1709 113.358 43.3213 113.706 43.548 114.002C43.7747 114.298 44.0706 114.535 44.4099 114.69Z" fill="white"/>
<path d="M44.4099 123.48C45.3843 123.969 46.4596 124.224 47.5499 124.224C48.6402 124.224 49.7154 123.969 50.6899 123.48C51.0288 123.322 51.3243 123.083 51.5507 122.785C51.7772 122.487 51.9279 122.139 51.9899 121.77C51.98 122.182 51.8523 122.583 51.622 122.925C51.3916 123.267 51.0682 123.536 50.6899 123.7C49.7154 124.189 48.6402 124.444 47.5499 124.444C46.4596 124.444 45.3843 124.189 44.4099 123.7C44.0316 123.536 43.7081 123.267 43.4778 122.925C43.2474 122.583 43.1197 122.182 43.1099 121.77C43.1719 122.139 43.3226 122.487 43.549 122.785C43.7755 123.083 44.0709 123.322 44.4099 123.48Z" fill="white"/>
<path opacity="0.48" d="M44.4099 101.78C45.3818 102.278 46.458 102.537 47.5499 102.537C48.6417 102.537 49.718 102.278 50.6899 101.78C51.0487 101.622 51.3586 101.371 51.5873 101.053C51.816 100.734 51.955 100.36 51.9899 99.97V104.46C51.954 104.85 51.8145 105.224 51.586 105.542C51.3574 105.86 51.0481 106.111 50.6899 106.27C49.7154 106.759 48.6402 107.014 47.5499 107.014C46.4596 107.014 45.3843 106.759 44.4099 106.27C44.0397 106.109 43.7219 105.847 43.4923 105.515C43.2626 105.183 43.1302 104.793 43.1099 104.39V100.02C43.1532 100.402 43.2961 100.765 43.5243 101.074C43.7525 101.383 44.0579 101.626 44.4099 101.78Z" fill="url(#paint4_linear_172_104)"/>
<path opacity="0.48" d="M44.4099 110.42C45.3843 110.909 46.4596 111.164 47.5499 111.164C48.6402 111.164 49.7154 110.909 50.6899 110.42C51.0495 110.261 51.3598 110.008 51.5884 109.688C51.817 109.367 51.9557 108.992 51.9899 108.6V113.09C51.955 113.48 51.816 113.854 51.5873 114.173C51.3586 114.491 51.0487 114.742 50.6899 114.9C49.7154 115.389 48.6402 115.644 47.5499 115.644C46.4596 115.644 45.3843 115.389 44.4099 114.9C44.0405 114.74 43.7231 114.481 43.4934 114.15C43.2637 113.82 43.1309 113.432 43.1099 113.03V108.65C43.1545 109.032 43.2977 109.397 43.5257 109.707C43.7536 110.017 44.0583 110.263 44.4099 110.42Z" fill="url(#paint5_linear_172_104)"/>
<path opacity="0.48" d="M44.4099 119.2C45.3818 119.698 46.458 119.957 47.5499 119.957C48.6417 119.957 49.718 119.698 50.6899 119.2C51.0487 119.042 51.3586 118.791 51.5873 118.473C51.816 118.154 51.955 117.78 51.9899 117.39V121.92C51.954 122.31 51.8145 122.684 51.586 123.002C51.3574 123.32 51.0481 123.571 50.6899 123.73C49.7154 124.219 48.6402 124.474 47.5499 124.474C46.4596 124.474 45.3843 124.219 44.4099 123.73C44.0397 123.569 43.7219 123.307 43.4923 122.975C43.2626 122.643 43.1302 122.253 43.1099 121.85V117.48C43.1598 117.854 43.3057 118.21 43.5335 118.511C43.7613 118.812 44.0632 119.05 44.4099 119.2Z" fill="url(#paint6_linear_172_104)"/>
<path d="M63.6201 74.12C63.8201 74.0133 64.0201 73.8933 64.2201 73.76L66.39 61.45L63.6701 45.12L56.0901 36.92L48.2901 29.34L35.8701 24.19L35.5501 24.07C34.9577 24.3637 34.398 24.719 33.8801 25.13L24.5601 23.92C25.0455 22.6941 25.6731 21.5295 26.4301 20.45L24.9401 19.87L30.5001 16.66L30.7001 16.55L30.9101 16.43C35.7001 13.85 42.2101 14.32 49.3901 18.43C64.0701 26.91 75.9701 47.53 75.9701 64.48C75.9701 72.89 73.0401 78.82 68.2901 81.62L68.1201 81.72L62.2201 85.1L62.5201 83.38C61.7642 83.4302 61.0059 83.4302 60.2501 83.38C61.8701 80.56 64.0901 77.36 63.6201 74.12Z" fill="url(#paint7_linear_172_104)"/>
<path d="M22.8399 34.5C22.8399 34.27 22.8399 34.04 22.8399 33.81C22.7681 30.4331 23.3523 27.0744 24.5599 23.92L33.8699 25.08C30.8699 27.44 29.0799 31.67 29.0799 37.43C29.0799 50.43 38.1799 66.14 49.3999 72.62C54.9299 75.81 59.9399 76.15 63.6099 74.12C64.0799 77.36 61.8599 80.56 60.2299 83.45C57.4814 83.235 54.7946 82.5235 52.2999 81.35L53.1799 82.35C53.1799 82.35 42.1199 78.51 41.8999 78.27C41.6799 78.03 28.7999 65.02 28.7999 65.02L20.3999 46.92L22.8399 34.5Z" fill="url(#paint8_linear_172_104)"/>
<path opacity="0.5" d="M60.1486 76.7353C68.0835 72.1541 68.0846 57.3007 60.151 43.5593C52.2174 29.818 39.3535 22.3922 31.4186 26.9734C23.4838 31.5546 23.4827 46.408 31.4163 60.1493C39.3498 73.8907 52.2138 81.3165 60.1486 76.7353Z" fill="url(#paint9_linear_172_104)"/>
<path d="M16.98 37.18C16.98 54.18 28.88 74.75 43.56 83.23C58.24 91.71 70.15 84.83 70.15 67.88C70.15 50.93 58.25 30.31 43.56 21.83C28.87 13.35 16.98 20.23 16.98 37.18ZM23.25 40.8C23.25 27.85 32.34 22.59 43.56 29.07C54.78 35.55 63.88 51.31 63.88 64.26C63.88 77.21 54.78 82.47 43.56 75.99C32.34 69.51 23.25 53.76 23.25 40.8Z" fill="#BCBEFF"/>
<path d="M16.98 37.18C16.98 54.18 28.88 74.75 43.56 83.23C58.24 91.71 70.15 84.83 70.15 67.88C70.15 50.93 58.25 30.31 43.56 21.83C28.87 13.35 16.98 20.23 16.98 37.18ZM23.25 40.8C23.25 27.85 32.34 22.59 43.56 29.07C54.78 35.55 63.88 51.31 63.88 64.26C63.88 77.21 54.78 82.47 43.56 75.99C32.34 69.51 23.25 53.76 23.25 40.8Z" fill="#BCBEFF"/>
<path d="M69.7398 68.33C69.7398 51.38 57.8399 30.77 43.1599 22.33C34.1599 17.11 26.1598 17.72 21.3398 22.9C26.0898 17.3 34.2698 16.51 43.5598 21.9C58.2498 30.38 70.1498 51 70.1498 67.95C70.1498 74.47 68.3799 79.49 65.3799 82.73C68.1399 79.41 69.7398 74.55 69.7398 68.33Z" fill="white"/>
<path d="M43.1599 76.44C31.9399 69.97 22.8398 54.21 22.8398 41.26C22.8398 36.26 24.2098 32.38 26.5398 29.91C24.4598 32.39 23.2498 36.08 23.2498 40.8C23.2498 53.8 32.3398 69.51 43.5598 75.99C50.4398 79.99 56.5098 79.52 60.1798 75.61C56.5598 79.92 50.2899 80.56 43.1599 76.44Z" fill="white"/>
<path d="M78.5001 93.99L94.0401 1.76L92.7901 1.24001L94.6701 0.160007C94.8965 0.0378213 95.153 -0.0176516 95.4096 4.90407e-05C95.6663 0.0177497 95.9126 0.107889 96.1201 0.259998L220.36 72C220.885 72.3363 221.311 72.8063 221.594 73.3617C221.877 73.9171 222.007 74.5378 221.97 75.16L206.3 168.16C206.284 168.361 206.215 168.555 206.101 168.721C205.987 168.888 205.832 169.022 205.65 169.11L203.81 170.17L203.5 168.45H203.6L80.1101 97.15C79.5853 96.8137 79.1596 96.3437 78.8767 95.7883C78.5937 95.2329 78.4637 94.6122 78.5001 93.99Z" fill="url(#paint10_linear_172_104)"/>
<path d="M219.67 74.52L221.67 73.62C221.902 74.0979 221.992 74.6324 221.93 75.16L206.26 168.16C206.244 168.361 206.175 168.555 206.061 168.721C205.947 168.888 205.792 169.022 205.61 169.11L203.77 170.17L203.46 168.45H203.56L197.31 164.84L219.67 74.52Z" fill="url(#paint11_linear_172_104)"/>
<path d="M78.1599 98.27L202.4 170C203.4 170.55 204.18 170.23 204.4 169.24L220.07 76.24C220.105 75.6193 219.975 75.0002 219.692 74.4466C219.409 73.893 218.984 73.4247 218.46 73.09L94.1698 1.39C93.1698 0.829999 92.3898 1.14999 92.2198 2.14999L76.5498 95.15C76.5207 95.7656 76.6541 96.3781 76.9367 96.9258C77.2193 97.4735 77.6412 97.9371 78.1599 98.27Z" fill="#24126A"/>
<g opacity="0.51">
<path d="M95.79 7.32001L215.55 76.46L200.7 164.01L81.02 94.92L95.79 7.32001Z" fill="#453C9E"/>
</g>
<path d="M0.0600586 142.28L6.84006 145.82L74.8401 106.57C75.5424 106.25 76.3102 106.099 77.0815 106.13C77.8529 106.161 78.606 106.374 79.2801 106.75L196.56 174.45C197.68 173.82 202.8 171.36 202.8 171.36L200.32 177.83C200.186 178.162 199.938 178.435 199.62 178.6L127.98 219.92C127.278 220.24 126.51 220.391 125.739 220.36C124.967 220.329 124.214 220.116 123.54 219.74L3.56006 150.47C3.10913 150.245 2.75419 149.865 2.56006 149.4L0.0600586 142.28Z" fill="url(#paint12_linear_172_104)"/>
<path d="M1.1101 143.39L124.11 214.39C124.802 214.773 125.574 214.99 126.364 215.021C127.154 215.052 127.94 214.898 128.66 214.57L202.04 172.21C203.21 171.53 203.04 170.36 201.72 169.58L78.7201 98.58C78.0293 98.195 77.2579 97.9772 76.4677 97.9442C75.6775 97.9112 74.8906 98.0639 74.1701 98.39L0.780096 140.76C-0.379904 141.44 -0.239902 142.62 1.1101 143.39Z" fill="url(#paint13_linear_172_104)"/>
<path d="M161.18 199.04V197.69C161.18 197.56 161.11 197.5 161.01 197.56L156.25 200.3C156.199 200.341 156.157 200.392 156.127 200.451C156.098 200.51 156.082 200.574 156.08 200.64V201.98C156.08 202.11 156.16 202.17 156.25 202.12L161.01 199.37C161.063 199.333 161.106 199.283 161.136 199.226C161.165 199.168 161.181 199.105 161.18 199.04Z" fill="#2842A2"/>
<path d="M154.07 203.14V201.8C154.07 201.67 153.99 201.61 153.9 201.66L149.14 204.41C149.087 204.447 149.044 204.497 149.015 204.554C148.985 204.612 148.97 204.675 148.97 204.74V206.09C148.97 206.22 149.04 206.28 149.14 206.22L153.9 203.48C153.952 203.439 153.994 203.388 154.023 203.329C154.052 203.27 154.068 203.206 154.07 203.14Z" fill="#2842A2"/>
<path d="M182.89 168.25L80.6998 109.25C80.3638 109.056 79.9827 108.954 79.5948 108.954C79.2069 108.954 78.8258 109.056 78.4898 109.25L42.0998 130.25C41.9816 130.32 41.8837 130.419 41.8157 130.539C41.7477 130.658 41.7119 130.793 41.7119 130.93C41.7119 131.067 41.7477 131.202 41.8157 131.321C41.8837 131.441 41.9816 131.54 42.0998 131.61L144.25 190.61C144.583 190.806 144.963 190.909 145.35 190.909C145.737 190.909 146.116 190.806 146.45 190.61L182.89 169.61C183.008 169.54 183.106 169.441 183.174 169.321C183.242 169.202 183.278 169.067 183.278 168.93C183.278 168.793 183.242 168.658 183.174 168.539C183.106 168.419 183.008 168.32 182.89 168.25Z" fill="#ADB1F2"/>
<path d="M182.89 169.61L182.53 169.82L80.6998 111.03C80.3645 110.834 79.9832 110.731 79.5948 110.731C79.2065 110.731 78.8251 110.834 78.4898 111.03L42.4898 131.87L42.1198 131.66C42.0017 131.59 41.9037 131.491 41.8357 131.371C41.7677 131.252 41.7319 131.117 41.7319 130.98C41.7319 130.843 41.7677 130.708 41.8357 130.589C41.9037 130.469 42.0017 130.37 42.1198 130.3L78.5098 109.3C78.8458 109.106 79.2269 109.004 79.6148 109.004C80.0027 109.004 80.3839 109.106 80.7198 109.3L182.91 168.3C183.016 168.374 183.102 168.473 183.161 168.588C183.22 168.703 183.25 168.831 183.248 168.96C183.246 169.09 183.213 169.217 183.15 169.33C183.088 169.443 182.998 169.539 182.89 169.61Z" fill="#9198DB"/>
<path d="M75.75 114.57L164.52 165.83L168.47 163.55L79.7 112.3L75.75 114.57Z" fill="#24126A"/>
<path d="M66.0698 120.16L149.34 168.23L153.28 165.96L70.0198 117.88L66.0698 120.16Z" fill="#24126A"/>
<path d="M59.77 123.8L157.81 180.4L161.75 178.12L63.72 121.52L59.77 123.8Z" fill="#24126A"/>
<path d="M53.4702 127.44L151.5 184.04L155.45 181.76L57.4202 125.16L53.4702 127.44Z" fill="#24126A"/>
<path d="M47.1699 131.08L145.2 187.68L149.15 185.4L51.1099 128.8L47.1699 131.08Z" fill="#24126A"/>
<path d="M169.88 168.92L173.83 171.2L177.78 168.92L173.83 166.64L169.88 168.92Z" fill="#24126A"/>
<path d="M155.96 172.06L164.16 176.79L168.1 174.51L159.91 169.78L155.96 172.06Z" fill="#24126A"/>
<path d="M76.76 182.53L49.21 166.62C48.9722 166.542 48.7653 166.39 48.6187 166.187C48.472 165.984 48.3931 165.74 48.3931 165.49C48.3931 165.24 48.472 164.996 48.6187 164.793C48.7653 164.59 48.9722 164.439 49.21 164.36L68.05 153.49C68.6531 153.18 69.3216 153.018 70 153.018C70.6783 153.018 71.3469 153.18 71.95 153.49L99.5 169.39C99.7377 169.469 99.9446 169.62 100.091 169.823C100.238 170.026 100.317 170.27 100.317 170.52C100.317 170.77 100.238 171.014 100.091 171.217C99.9446 171.42 99.7377 171.572 99.5 171.65L80.66 182.53C80.0554 182.836 79.3874 182.995 78.71 182.995C78.0325 182.995 77.3645 182.836 76.76 182.53Z" fill="url(#paint14_linear_172_104)"/>
<path d="M99.5 170.32L71.95 154.41C71.3469 154.099 70.6783 153.938 70 153.938C69.3216 153.938 68.6531 154.099 68.0499 154.41L49.21 165.29C48.924 165.439 48.6877 165.669 48.53 165.95C48.24 165.41 48.46 164.79 49.21 164.36L68.0499 153.49C68.6531 153.18 69.3216 153.018 70 153.018C70.6783 153.018 71.3469 153.18 71.95 153.49L99.5 169.39C100.25 169.82 100.5 170.39 100.18 170.98C100.022 170.699 99.7859 170.469 99.5 170.32Z" fill="#9198DB"/>
<g opacity="0.11">
<mask id="mask0_172_104" style="mask-type:luminance" maskUnits="userSpaceOnUse" x="81" y="7" width="135" height="158">
<path d="M95.79 7.32001L215.55 76.46L200.7 164.02L81.02 94.92L95.79 7.32001Z" fill="white"/>
</mask>
<g mask="url(#mask0_172_104)">
<path d="M78.5598 98.44L201.56 169.44C202.248 169.828 203.018 170.048 203.807 170.081C204.596 170.114 205.382 169.959 206.1 169.63L279.56 127.26C280.73 126.59 280.56 125.41 279.23 124.64L156.23 53.64C155.541 53.2536 154.771 53.0358 153.981 53.0045C153.192 52.9732 152.407 53.1293 151.69 53.46L78.2698 95.82C77.0998 96.49 77.2498 97.66 78.5598 98.44Z" fill="url(#paint15_linear_172_104)"/>
<path d="M201.94 111.17L174.39 95.26C174.156 95.1793 173.953 95.0275 173.809 94.8258C173.665 94.6242 173.588 94.3827 173.588 94.135C173.588 93.8873 173.665 93.6458 173.809 93.4442C173.953 93.2425 174.156 93.0907 174.39 93.01L193.23 82.13C193.835 81.8242 194.502 81.6649 195.18 81.6649C195.857 81.6649 196.525 81.8242 197.13 82.13L224.69 98.04C224.924 98.1207 225.127 98.2725 225.271 98.4742C225.415 98.6758 225.492 98.9173 225.492 99.165C225.492 99.4127 225.415 99.6542 225.271 99.8558C225.127 100.057 224.924 100.209 224.69 100.29L205.84 111.17C205.235 111.476 204.567 111.635 203.89 111.635C203.212 111.635 202.545 111.476 201.94 111.17Z" fill="url(#paint16_linear_172_104)"/>
<path d="M224.69 98.92L197.13 83.01C196.525 82.7042 195.857 82.5448 195.18 82.5448C194.502 82.5448 193.834 82.7042 193.23 83.01L174.39 93.92C174.101 94.07 173.864 94.3034 173.71 94.59C173.42 94.04 173.64 93.43 174.39 93L193.23 82.12C193.834 81.8142 194.502 81.6548 195.18 81.6548C195.857 81.6548 196.525 81.8142 197.13 82.12L224.69 98.03C225.43 98.46 225.69 99.03 225.36 99.62C225.215 99.3226 224.98 99.0779 224.69 98.92Z" fill="#9198DB"/>
<path d="M236.8 136.03L134.6 77.03C134.265 76.8379 133.886 76.7368 133.5 76.7368C133.114 76.7368 132.735 76.8379 132.4 77.03L96.0099 98.09C95.8918 98.1599 95.7938 98.2594 95.7258 98.3786C95.6578 98.4978 95.6221 98.6328 95.6221 98.77C95.6221 98.9073 95.6578 99.0422 95.7258 99.1615C95.7938 99.2807 95.8918 99.3802 96.0099 99.45L198.16 158.45C198.495 158.642 198.874 158.743 199.26 158.743C199.646 158.743 200.025 158.642 200.36 158.45L236.8 137.45C236.933 137.385 237.045 137.284 237.124 137.159C237.202 137.033 237.244 136.888 237.244 136.74C237.244 136.592 237.202 136.447 237.124 136.321C237.045 136.196 236.933 136.095 236.8 136.03Z" fill="#ADB1F2"/>
<path d="M236.8 137.39L236.43 137.6L134.56 78.81C134.225 78.6179 133.846 78.5168 133.46 78.5168C133.074 78.5168 132.695 78.6179 132.36 78.81L96.3599 99.66L95.9899 99.45C95.8718 99.3802 95.7739 99.2807 95.7058 99.1615C95.6378 99.0422 95.6021 98.9073 95.6021 98.77C95.6021 98.6328 95.6378 98.4978 95.7058 98.3786C95.7739 98.2594 95.8718 98.1599 95.9899 98.09L132.38 77.03C132.715 76.8379 133.094 76.7368 133.48 76.7368C133.866 76.7368 134.245 76.8379 134.58 77.03L236.78 136.03C236.899 136.098 236.999 136.196 237.068 136.314C237.138 136.433 237.176 136.567 237.178 136.704C237.18 136.842 237.146 136.977 237.08 137.097C237.014 137.218 236.917 137.318 236.8 137.39Z" fill="#9198DB"/>
<path d="M105.54 96.65L194.57 148.05L191.04 150.09L102.01 98.68L105.54 96.65Z" fill="#24126A"/>
<path d="M114.92 91.23L199.54 140.09L196.01 142.12L111.39 93.27L114.92 91.23Z" fill="#24126A"/>
<path d="M205.86 143.74L213.76 148.3L210.23 150.34L202.33 145.77L205.86 143.74Z" fill="#24126A"/>
<path d="M198.88 150.54L204.38 153.72L200.85 155.75L195.35 152.57L198.88 150.54Z" fill="#24126A"/>
<path d="M120.8 87.84L219.64 144.91L216.11 146.94L117.27 89.87L120.8 87.84Z" fill="#24126A"/>
<path d="M126.67 84.44L225.52 141.51L221.99 143.55L123.15 86.48L126.67 84.44Z" fill="#24126A"/>
<path d="M132.55 81.05L231.39 138.12L227.87 140.15L129.02 83.09L132.55 81.05Z" fill="#24126A"/>
</g>
</g>
<path opacity="0.42" d="M135.54 162.99L162.03 146.69L102.47 112.3L74.3599 131.19L135.54 162.99Z" fill="url(#paint17_radial_172_104)"/>
<path opacity="0.42" d="M162.03 146.69L168.1 108.35L112.2 76.29V117.84L162.03 146.69Z" fill="url(#paint18_radial_172_104)"/>
<path d="M106.35 57.67L112.27 54.26C112.313 54.2312 112.363 54.2158 112.415 54.2158C112.467 54.2158 112.517 54.2312 112.56 54.26L186.66 97.04C186.794 97.1357 186.904 97.2616 186.98 97.4075C187.057 97.5534 187.098 97.7153 187.1 97.88V111.88C187.104 111.939 187.096 111.998 187.075 112.053C187.054 112.108 187.022 112.158 186.98 112.2L180.98 115.64V108.88L112.56 69.43C112.424 69.3383 112.313 69.2146 112.237 69.0699C112.16 68.9252 112.12 68.7638 112.12 68.6V63.8L106.35 57.67Z" fill="url(#paint19_linear_172_104)"/>
<path d="M106.62 72.86L180.72 115.64C180.96 115.78 181.15 115.64 181.15 115.31V101.31C181.148 101.146 181.108 100.985 181.034 100.839C180.959 100.694 180.852 100.567 180.72 100.47L106.62 57.69C106.38 57.55 106.18 57.69 106.18 58.02V72.02C106.184 72.1844 106.226 72.3457 106.302 72.4914C106.378 72.6371 106.487 72.7632 106.62 72.86Z" fill="url(#paint20_linear_172_104)"/>
<path opacity="0.6" d="M116.84 70.02L174.56 103.92C172.735 105.501 171.061 107.249 169.56 109.14L111.44 75.58C113.054 73.5545 114.862 71.6922 116.84 70.02Z" fill="#24126A"/>
<path d="M108.73 68.66L178.56 109C178.73 109.09 178.86 109 178.86 108.77V105.26C178.86 105.146 178.833 105.034 178.781 104.933C178.729 104.833 178.653 104.746 178.56 104.68L108.69 64.34C108.53 64.25 108.39 64.34 108.39 64.57V68.08C108.399 68.1963 108.434 68.3091 108.493 68.4096C108.551 68.5102 108.633 68.5959 108.73 68.66Z" fill="#24126A"/>
<path d="M108.73 64.34L110.15 65.16V67.06C110.152 67.1718 110.181 67.2815 110.233 67.3804C110.285 67.4793 110.359 67.5648 110.45 67.63L178.9 107.15V108.77C178.9 108.99 178.77 109.09 178.6 109L108.73 68.66C108.64 68.5917 108.567 68.5042 108.515 68.4038C108.463 68.3035 108.434 68.1929 108.43 68.08V64.57C108.43 64.35 108.56 64.25 108.73 64.34Z" fill="#453C9E"/>
<path opacity="0.96" d="M69.4801 220.01L11.3501 186.45C18.8501 182.12 25.1701 172.65 27.1001 163.59C27.4731 161.773 28.2252 160.056 29.3074 158.55C30.3895 157.044 31.7774 155.783 33.3801 154.85L77.3101 129.49C83.3428 126.024 88.4199 121.114 92.0854 115.2C95.7508 109.286 97.8898 102.555 98.3101 95.61C99.0201 83.7 108.02 71.99 115 67.96L173.13 101.52C166.25 105.52 158.67 116.6 157.81 128.3C157.35 135.243 155.195 141.967 151.534 147.883C147.873 153.8 142.818 158.73 136.81 162.24L91.5601 188.41C89.9574 189.343 88.5695 190.604 87.4874 192.11C86.4052 193.616 85.6531 195.333 85.2801 197.15C83.3501 206.21 77.0301 215.68 69.5301 220.01H69.4801Z" fill="url(#paint21_linear_172_104)"/>
<g opacity="0.32">
<path d="M133.29 110.21L140.82 114.56V113.72L133.29 109.38V110.21Z" fill="#4553C7"/>
<path d="M129.42 107.98L132.14 109.55V108.71L129.42 107.14V107.98Z" fill="#4553C7"/>
<path d="M126.43 106.25L128.27 107.32V106.48L126.43 105.42V106.25Z" fill="#4553C7"/>
<path d="M136.72 114.11L140.82 116.48V115.64L136.72 113.27V114.11Z" fill="#4553C7"/>
<path d="M130.53 110.54L135.56 113.45V112.61L130.53 109.7V110.54Z" fill="#4553C7"/>
<path d="M127.54 108.81L129.38 109.88V109.04L127.54 107.97V108.81Z" fill="#4553C7"/>
<path d="M124.69 107.17L126.53 108.23V107.39L124.69 106.33V107.17Z" fill="#4553C7"/>
<path d="M137.85 116.68L140.82 118.4V117.56L137.85 115.84V116.68Z" fill="#4553C7"/>
<path d="M135.69 115.43L136.7 116.02V115.18L135.69 114.59V115.43Z" fill="#4553C7"/>
<path d="M132.69 113.7L134.53 114.77V113.93L132.69 112.86V113.7Z" fill="#4553C7"/>
<path d="M129.86 113.99L140.82 120.32V119.48L129.86 113.15V113.99Z" fill="#4553C7"/>
<path d="M126 111.76L128.71 113.32V112.48L126 110.92V111.76Z" fill="#4553C7"/>
<path d="M137.85 120.52L140.82 122.23V121.39L137.85 119.68V120.52Z" fill="#4553C7"/>
<path d="M130.88 116.5L136.7 119.85V119.02L130.88 115.66V116.5Z" fill="#4553C7"/>
<path d="M127.89 114.77L129.73 115.83V114.99L127.89 113.93V114.77Z" fill="#4553C7"/>
<path d="M134.74 120.64L140.82 124.15V123.31L134.74 119.8V120.64Z" fill="#4553C7"/>
<path d="M129.2 117.44L133.59 119.98V119.14L129.2 116.6V117.44Z" fill="#4553C7"/>
<path d="M125.08 115.06L128.05 116.78V115.94L125.08 114.22V115.06Z" fill="#4553C7"/>
<path d="M138.77 124.88L140.82 126.07V125.23L138.77 124.04V124.88Z" fill="#4553C7"/>
<path d="M134.91 122.65L137.62 124.22V123.38L134.91 121.81V122.65Z" fill="#4553C7"/>
<path d="M129.38 119.47L133.75 121.99V121.15L129.38 118.63V119.47Z" fill="#4553C7"/>
<path d="M134.53 124.36L140.82 127.98V127.15L134.53 123.52V124.36Z" fill="#4553C7"/>
<path d="M127.49 120.29L133.38 123.69V122.85L127.49 119.45V120.29Z" fill="#4553C7"/>
<path d="M124.5 118.56L126.34 119.63V118.79L124.5 117.72V118.56Z" fill="#4553C7"/>
<path d="M121.63 116.9L123.47 117.97V117.13L121.63 116.06V116.9Z" fill="#4553C7"/>
<path d="M137.05 127.73L140.82 129.9V129.06L137.05 126.89V127.73Z" fill="#4553C7"/>
<path d="M118.01 101.39L112.78 98.38V97.54L118.01 100.55V101.39Z" fill="#4553C7"/>
<path d="M116.89 102.66L112.78 100.29V99.45L116.89 101.83V102.66Z" fill="#4553C7"/>
<path d="M115.75 103.93L112.78 102.21V101.37L115.75 103.09V103.93Z" fill="#4553C7"/>
<path d="M117.1 106.62L112.78 104.13V103.29L117.1 105.78V106.62Z" fill="#4553C7"/>
<path d="M115.75 107.76L112.78 106.05V105.21L115.75 106.92V107.76Z" fill="#4553C7"/>
<path d="M116.55 110.14L112.78 107.96V107.13L116.55 109.3V110.14Z" fill="#4553C7"/>
<path d="M114.84 111.07L112.78 109.88V109.04L114.84 110.23V111.07Z" fill="#4553C7"/>
<path d="M116.76 114.09L112.78 111.8V110.96L116.76 113.26V114.09Z" fill="#4553C7"/>
<path d="M116.55 115.89L112.78 113.72V112.88L116.55 115.05V115.89Z" fill="#4553C7"/>
<path d="M134.3 126.14L135.9 127.06V126.22L134.3 125.3V126.14Z" fill="#4553C7"/>
<path d="M129.54 123.39L133.15 125.47V124.64L129.54 122.55V123.39Z" fill="#4553C7"/>
</g>
<path opacity="0.8" d="M114.99 67.92L173.12 101.48C172.66 101.75 172.2 102.04 171.74 102.34L113.61 68.82C114.07 68.52 114.56 68.23 114.99 67.92Z" fill="#453C9E"/>
<path d="M59.3198 96.92H77.8598V136.52C77.8598 137.89 76.9598 139.26 75.1398 140.31C73.1084 141.34 70.8627 141.877 68.5848 141.877C66.307 141.877 64.0613 141.34 62.0298 140.31C60.2198 139.26 59.3198 137.89 59.3198 136.52V96.92Z" fill="url(#paint22_linear_172_104)"/>
<path d="M59.3198 96.92H77.8598V136.52C77.8598 137.89 76.9598 139.26 75.1398 140.31C73.1084 141.34 70.8627 141.877 68.5848 141.877C66.307 141.877 64.0613 141.34 62.0298 140.31C60.2198 139.26 59.3198 137.89 59.3198 136.52V96.92Z" fill="url(#paint23_linear_172_104)"/>
<path d="M62.0299 100.72C64.0614 101.75 66.3071 102.287 68.5849 102.287C70.8628 102.287 73.1085 101.75 75.1399 100.72C78.7699 98.63 78.7699 95.24 75.1399 93.15C73.1085 92.1195 70.8628 91.5825 68.5849 91.5825C66.3071 91.5825 64.0614 92.1195 62.0299 93.15C58.4099 95.24 58.4099 98.63 62.0299 100.72Z" fill="url(#paint24_linear_172_104)"/>
<path opacity="0.3" d="M64.36 99.38C65.6706 100.046 67.1199 100.393 68.59 100.393C70.06 100.393 71.5093 100.046 72.82 99.38C75.16 98.03 75.16 95.84 72.82 94.5C71.5093 93.8342 70.06 93.4872 68.59 93.4872C67.1199 93.4872 65.6706 93.8342 64.36 94.5C62.02 95.84 62.02 98.03 64.36 99.38Z" fill="url(#paint25_linear_172_104)"/>
<path opacity="0.5" d="M62.0299 100.33C64.0613 101.36 66.3071 101.897 68.5849 101.897C70.8627 101.897 73.1085 101.36 75.1399 100.33C76.8699 99.33 77.7599 98.04 77.8399 96.74C77.9399 98.18 77.0399 99.63 75.1399 100.74C73.1085 101.77 70.8627 102.307 68.5849 102.307C66.3071 102.307 64.0613 101.77 62.0299 100.74C60.1299 99.65 59.2399 98.2 59.3299 96.74C59.4489 97.5147 59.7576 98.2479 60.2287 98.8743C60.6998 99.5007 61.3186 100.001 62.0299 100.33Z" fill="white"/>
<path d="M59.3198 88.33H77.8598V91.92C77.8598 93.29 76.9598 94.66 75.1398 95.71C73.1084 96.7405 70.8627 97.2775 68.5848 97.2775C66.307 97.2775 64.0613 96.7405 62.0298 95.71C60.2198 94.71 59.3198 93.29 59.3198 91.92V88.33Z" fill="url(#paint26_linear_172_104)"/>
<path d="M59.3198 88.33H77.8598V91.92C77.8598 93.29 76.9598 94.66 75.1398 95.71C73.1084 96.7405 70.8627 97.2775 68.5848 97.2775C66.307 97.2775 64.0613 96.7405 62.0298 95.71C60.2198 94.71 59.3198 93.29 59.3198 91.92V88.33Z" fill="url(#paint27_linear_172_104)"/>
<path d="M62.0299 92.12C64.0614 93.1504 66.3071 93.6875 68.5849 93.6875C70.8628 93.6875 73.1085 93.1504 75.1399 92.12C78.7699 90.03 78.7699 86.64 75.1399 84.55C73.1085 83.5196 70.8628 82.9825 68.5849 82.9825C66.3071 82.9825 64.0614 83.5196 62.0299 84.55C58.4099 86.64 58.4099 90.03 62.0299 92.12Z" fill="url(#paint28_linear_172_104)"/>
<path opacity="0.5" d="M62.0299 91.72C64.0613 92.7505 66.3071 93.2875 68.5849 93.2875C70.8627 93.2875 73.1085 92.7505 75.1399 91.72C75.8536 91.397 76.4748 90.8999 76.9466 90.2744C77.4183 89.6489 77.7255 88.915 77.8399 88.14C77.9399 89.57 77.0399 91.02 75.1399 92.14C73.1085 93.1705 70.8627 93.7075 68.5849 93.7075C66.3071 93.7075 64.0613 93.1705 62.0299 92.14C60.1299 91.04 59.2399 89.59 59.3299 88.14C59.4478 88.9138 59.7563 89.6462 60.2277 90.2711C60.699 90.896 61.3183 91.394 62.0299 91.72Z" fill="white"/>
<path d="M74.6499 118.98H93.1899V145.38C93.1899 146.75 92.2899 148.12 90.4799 149.17C88.4467 150.201 86.1993 150.738 83.9199 150.738C81.6405 150.738 79.3931 150.201 77.3599 149.17C75.5499 148.12 74.6499 146.75 74.6499 145.38V118.98Z" fill="url(#paint29_linear_172_104)"/>
<path d="M74.6499 118.98H93.1899V145.38C93.1899 146.75 92.2899 148.12 90.4799 149.17C88.4467 150.201 86.1993 150.738 83.9199 150.738C81.6405 150.738 79.3931 150.201 77.3599 149.17C75.5499 148.12 74.6499 146.75 74.6499 145.38V118.98Z" fill="url(#paint30_linear_172_104)"/>
<path d="M83.9199 124.33C89.0396 124.33 93.1899 121.935 93.1899 118.98C93.1899 116.025 89.0396 113.63 83.9199 113.63C78.8002 113.63 74.6499 116.025 74.6499 118.98C74.6499 121.935 78.8002 124.33 83.9199 124.33Z" fill="url(#paint31_linear_172_104)"/>
<path opacity="0.5" d="M77.3599 122.37C79.3931 123.401 81.6405 123.938 83.9199 123.938C86.1994 123.938 88.4468 123.401 90.48 122.37C91.1912 122.041 91.81 121.541 92.2811 120.914C92.7522 120.288 93.061 119.555 93.1799 118.78C93.2699 120.22 92.37 121.67 90.48 122.78C88.4468 123.811 86.1994 124.348 83.9199 124.348C81.6405 124.348 79.3931 123.811 77.3599 122.78C75.4699 121.68 74.5699 120.23 74.6599 118.78C74.7789 119.555 75.0876 120.288 75.5587 120.914C76.0299 121.541 76.6486 122.041 77.3599 122.37Z" fill="white"/>
<path d="M89.98 114.3H108.56V154.23C108.56 155.6 107.66 156.97 105.85 158.01C103.819 159.04 101.573 159.577 99.295 159.577C97.0171 159.577 94.7714 159.04 92.74 158.01C90.92 157.01 90.02 155.6 90.02 154.23L89.98 114.3Z" fill="url(#paint32_linear_172_104)"/>
<path d="M89.98 114.3H108.56V154.23C108.56 155.6 107.66 156.97 105.85 158.01C103.819 159.04 101.573 159.577 99.295 159.577C97.0171 159.577 94.7714 159.04 92.74 158.01C90.92 157.01 90.02 155.6 90.02 154.23L89.98 114.3Z" fill="url(#paint33_linear_172_104)"/>
<path d="M99.25 119.65C104.37 119.65 108.52 117.255 108.52 114.3C108.52 111.345 104.37 108.95 99.25 108.95C94.1303 108.95 89.98 111.345 89.98 114.3C89.98 117.255 94.1303 119.65 99.25 119.65Z" fill="url(#paint34_linear_172_104)"/>
<path opacity="0.5" d="M92.7002 117.69C94.7316 118.72 96.9774 119.257 99.2552 119.257C101.533 119.257 103.779 118.72 105.81 117.69C106.521 117.361 107.14 116.861 107.611 116.234C108.082 115.608 108.391 114.875 108.51 114.1C108.6 115.54 107.71 116.99 105.81 118.1C103.779 119.13 101.533 119.667 99.2552 119.667C96.9774 119.667 94.7316 119.13 92.7002 118.1C90.8002 117 89.9002 115.55 90.0002 114.1C90.0802 115.4 90.9702 116.69 92.7002 117.69Z" fill="white"/>
<path d="M105.31 130.34H123.85V163.07C123.85 164.44 122.95 165.81 121.14 166.85C119.109 167.88 116.863 168.417 114.585 168.417C112.307 168.417 110.061 167.88 108.03 166.85C106.22 165.85 105.31 164.44 105.31 163.07V130.34Z" fill="url(#paint35_linear_172_104)"/>
<path d="M105.31 130.34H123.85V163.07C123.85 164.44 122.95 165.81 121.14 166.85C119.109 167.88 116.863 168.417 114.585 168.417C112.307 168.417 110.061 167.88 108.03 166.85C106.22 165.85 105.31 164.44 105.31 163.07V130.34Z" fill="url(#paint36_linear_172_104)"/>
<path d="M108.03 134.12C110.06 135.155 112.306 135.695 114.585 135.695C116.864 135.695 119.11 135.155 121.14 134.12C124.76 132.03 124.76 128.64 121.14 126.55C119.109 125.52 116.863 124.983 114.585 124.983C112.307 124.983 110.061 125.52 108.03 126.55C104.41 128.64 104.41 132.03 108.03 134.12Z" fill="url(#paint37_linear_172_104)"/>
<path opacity="0.5" d="M108.03 133.73C110.061 134.76 112.307 135.297 114.585 135.297C116.863 135.297 119.108 134.76 121.14 133.73C121.851 133.401 122.47 132.901 122.941 132.274C123.412 131.648 123.721 130.915 123.84 130.14C123.93 131.58 123.04 133.03 121.14 134.14C119.11 135.175 116.864 135.715 114.585 135.715C112.306 135.715 110.06 135.175 108.03 134.14C106.13 133.05 105.24 131.6 105.33 130.14C105.41 131.44 106.3 132.73 108.03 133.73Z" fill="white"/>
<path d="M120.64 147.25H139.19V171.92C139.19 173.29 138.28 174.66 136.47 175.7C134.439 176.73 132.193 177.267 129.915 177.267C127.637 177.267 125.392 176.73 123.36 175.7C121.55 174.7 120.64 173.29 120.64 171.92V147.25Z" fill="url(#paint38_linear_172_104)"/>
<path d="M120.64 147.25H139.19V171.92C139.19 173.29 138.28 174.66 136.47 175.7C134.439 176.73 132.193 177.267 129.915 177.267C127.637 177.267 125.392 176.73 123.36 175.7C121.55 174.7 120.64 173.29 120.64 171.92V147.25Z" fill="url(#paint39_linear_172_104)"/>
<path d="M129.92 152.6C135.04 152.6 139.19 150.205 139.19 147.25C139.19 144.295 135.04 141.9 129.92 141.9C124.8 141.9 120.65 144.295 120.65 147.25C120.65 150.205 124.8 152.6 129.92 152.6Z" fill="url(#paint40_linear_172_104)"/>
<path opacity="0.5" d="M123.36 150.64C125.391 151.67 127.637 152.207 129.915 152.207C132.193 152.207 134.439 151.67 136.47 150.64C138.19 149.64 139.09 148.35 139.17 147.05C139.26 148.49 138.37 149.94 136.47 151.05C134.439 152.08 132.193 152.617 129.915 152.617C127.637 152.617 125.391 152.08 123.36 151.05C121.46 149.96 120.57 148.51 120.66 147.05C120.74 148.35 121.64 149.64 123.36 150.64Z" fill="white"/>
<path d="M204.16 80.77L205.96 81.91L206.17 80.59L204.38 79.45L204.16 80.77Z" fill="#ACB9FF"/>
<path d="M202.73 89.72L204.52 90.86L205.76 83.12L203.97 81.98L202.73 89.72Z" fill="#ACB9FF"/>
<path d="M202.04 94L203.83 95.14L204.33 92.07L202.53 90.93L202.04 94Z" fill="#ACB9FF"/>
<path d="M201.33 98.44L203.12 99.58L203.62 96.5L201.82 95.36L201.33 98.44Z" fill="#ACB9FF"/>
<path d="M200.81 83.35L202.6 84.49L203.09 81.42L201.3 80.28L200.81 83.35Z" fill="#ACB9FF"/>
<path d="M199.86 89.23L201.66 90.37L202.38 85.86L200.59 84.72L199.86 89.23Z" fill="#ACB9FF"/>
<path d="M199 94.64L200.79 95.78L201.41 91.91L199.62 90.77L199 94.64Z" fill="#ACB9FF"/>
<path d="M200.62 102.87L202.41 104.01L202.9 100.94L201.11 99.8L200.62 102.87Z" fill="#ACB9FF"/>
<path d="M201.49 79.07L203.28 80.21L203.5 78.89L201.71 77.75L201.49 79.07Z" fill="#ACB9FF"/>
<path d="M198.59 106.33L201.72 108.31L201.93 107.03L198.8 105.04L198.59 106.33Z" fill="#ACB9FF"/>
<defs>
<linearGradient id="paint0_linear_172_104" x1="46.9946" y1="105.921" x2="43.8292" y2="111.378" gradientUnits="userSpaceOnUse">
<stop stop-color="#5761D7"/>
<stop offset="0.16" stop-color="#5E67DA"/>
<stop offset="0.41" stop-color="#727AE2"/>
<stop offset="0.69" stop-color="#9297EE"/>
<stop offset="1" stop-color="#BCBEFF"/>
</linearGradient>
<linearGradient id="paint1_linear_172_104" x1="46.9578" y1="114.579" x2="43.7924" y2="120.037" gradientUnits="userSpaceOnUse">
<stop stop-color="#5761D7"/>
<stop offset="0.16" stop-color="#5E67DA"/>
<stop offset="0.41" stop-color="#727AE2"/>
<stop offset="0.69" stop-color="#9297EE"/>
<stop offset="1" stop-color="#BCBEFF"/>
</linearGradient>
<linearGradient id="paint2_linear_172_104" x1="46.9292" y1="123.383" x2="43.7638" y2="128.84" gradientUnits="userSpaceOnUse">
<stop stop-color="#5761D7"/>
<stop offset="0.16" stop-color="#5E67DA"/>
<stop offset="0.41" stop-color="#727AE2"/>
<stop offset="0.69" stop-color="#9297EE"/>
<stop offset="1" stop-color="#BCBEFF"/>
</linearGradient>
<linearGradient id="paint3_linear_172_104" x1="63.91" y1="111.23" x2="39.62" y2="111.23" gradientUnits="userSpaceOnUse">
<stop stop-color="#5761D7"/>
<stop offset="0.16" stop-color="#5E67DA"/>
<stop offset="0.41" stop-color="#727AE2"/>
<stop offset="0.69" stop-color="#9297EE"/>
<stop offset="1" stop-color="#BCBEFF"/>
</linearGradient>
<linearGradient id="paint4_linear_172_104" x1="51.9899" y1="103.5" x2="43.1099" y2="103.5" gradientUnits="userSpaceOnUse">
<stop stop-color="#42E8E0"/>
<stop offset="0.15" stop-color="#43E3E0"/>
<stop offset="0.33" stop-color="#45D5DF"/>
<stop offset="0.52" stop-color="#49BDDD"/>
<stop offset="0.72" stop-color="#4E9CDB"/>
<stop offset="0.93" stop-color="#5472D8"/>
<stop offset="1" stop-color="#5761D7"/>
</linearGradient>
<linearGradient id="paint5_linear_172_104" x1="51.9899" y1="112.13" x2="43.1099" y2="112.13" gradientUnits="userSpaceOnUse">
<stop stop-color="#42E8E0"/>
<stop offset="0.15" stop-color="#43E3E0"/>
<stop offset="0.33" stop-color="#45D5DF"/>
<stop offset="0.52" stop-color="#49BDDD"/>
<stop offset="0.72" stop-color="#4E9CDB"/>
<stop offset="0.93" stop-color="#5472D8"/>
<stop offset="1" stop-color="#5761D7"/>
</linearGradient>
<linearGradient id="paint6_linear_172_104" x1="51.9899" y1="120.92" x2="43.1099" y2="120.92" gradientUnits="userSpaceOnUse">
<stop stop-color="#42E8E0"/>
<stop offset="0.15" stop-color="#43E3E0"/>
<stop offset="0.33" stop-color="#45D5DF"/>
<stop offset="0.52" stop-color="#49BDDD"/>
<stop offset="0.72" stop-color="#4E9CDB"/>
<stop offset="0.93" stop-color="#5472D8"/>
<stop offset="1" stop-color="#5761D7"/>
</linearGradient>
<linearGradient id="paint7_linear_172_104" x1="79.4601" y1="65.52" x2="22.0201" y2="32.22" gradientUnits="userSpaceOnUse">
<stop stop-color="#5761D7"/>
<stop offset="0.16" stop-color="#5E67DA"/>
<stop offset="0.41" stop-color="#727AE2"/>
<stop offset="0.69" stop-color="#9297EE"/>
<stop offset="1" stop-color="#BCBEFF"/>
</linearGradient>
<linearGradient id="paint8_linear_172_104" x1="16.4799" y1="35.99" x2="68.1899" y2="73.85" gradientUnits="userSpaceOnUse">
<stop stop-color="#5761D7"/>
<stop offset="0.16" stop-color="#5E67DA"/>
<stop offset="0.41" stop-color="#727AE2"/>
<stop offset="0.69" stop-color="#9297EE"/>
<stop offset="1" stop-color="#BCBEFF"/>
</linearGradient>
<linearGradient id="paint9_linear_172_104" x1="64.5442" y1="53.6716" x2="23.7744" y2="53.7524" gradientUnits="userSpaceOnUse">
<stop stop-color="#0A83F2"/>
<stop offset="1" stop-color="#5761D7"/>
</linearGradient>
<linearGradient id="paint10_linear_172_104" x1="222" y1="85.07" x2="78.4701" y2="85.07" gradientUnits="userSpaceOnUse">
<stop stop-color="#C0BFF6"/>
<stop offset="0.29" stop-color="#C5C4F7"/>
<stop offset="0.64" stop-color="#D3D2F9"/>
<stop offset="1" stop-color="#E9E9FD"/>
</linearGradient>
<linearGradient id="paint11_linear_172_104" x1="221.99" y1="121.87" x2="197.35" y2="121.87" gradientUnits="userSpaceOnUse">
<stop stop-color="#5761D7"/>
<stop offset="0.18" stop-color="#5C66D9"/>
<stop offset="0.39" stop-color="#6A73DF"/>
<stop offset="0.61" stop-color="#8289E8"/>
<stop offset="0.85" stop-color="#A3A7F5"/>
<stop offset="1" stop-color="#BCBEFF"/>
</linearGradient>
<linearGradient id="paint12_linear_172_104" x1="202.77" y1="163.25" x2="0.0600586" y2="163.25" gradientUnits="userSpaceOnUse">
<stop stop-color="#5761D7"/>
<stop offset="0.18" stop-color="#5C66D9"/>
<stop offset="0.39" stop-color="#6A73DF"/>
<stop offset="0.61" stop-color="#8289E8"/>
<stop offset="0.85" stop-color="#A3A7F5"/>
<stop offset="1" stop-color="#BCBEFF"/>
</linearGradient>
<linearGradient id="paint13_linear_172_104" x1="134.66" y1="156.49" x2="-68.1599" y2="156.49" gradientUnits="userSpaceOnUse">
<stop stop-color="#C0BFF6"/>
<stop offset="0.29" stop-color="#C5C4F7"/>
<stop offset="0.64" stop-color="#D3D2F9"/>
<stop offset="1" stop-color="#E9E9FD"/>
</linearGradient>
<linearGradient id="paint14_linear_172_104" x1="100.31" y1="168.01" x2="48.4" y2="168.01" gradientUnits="userSpaceOnUse">
<stop stop-color="#C0BFF6"/>
<stop offset="0.29" stop-color="#C5C4F7"/>
<stop offset="0.64" stop-color="#D3D2F9"/>
<stop offset="1" stop-color="#E9E9FD"/>
</linearGradient>
<linearGradient id="paint15_linear_172_104" x1="212.14" y1="111.54" x2="9.32984" y2="111.54" gradientUnits="userSpaceOnUse">
<stop stop-color="#C0BFF6"/>
<stop offset="0.29" stop-color="#C5C4F7"/>
<stop offset="0.64" stop-color="#D3D2F9"/>
<stop offset="1" stop-color="#E9E9FD"/>
</linearGradient>
<linearGradient id="paint16_linear_172_104" x1="225.49" y1="96.65" x2="173.58" y2="96.65" gradientUnits="userSpaceOnUse">
<stop stop-color="#C0BFF6"/>
<stop offset="0.29" stop-color="#C5C4F7"/>
<stop offset="0.64" stop-color="#D3D2F9"/>
<stop offset="1" stop-color="#E9E9FD"/>
</linearGradient>
<radialGradient id="paint17_radial_172_104" cx="0" cy="0" r="1" gradientUnits="userSpaceOnUse" gradientTransform="translate(143.69 137.65) rotate(180) scale(58.14 58.14)">
<stop stop-color="#2B237C"/>
<stop offset="1" stop-color="#180D5B"/>
</radialGradient>
<radialGradient id="paint18_radial_172_104" cx="0" cy="0" r="1" gradientUnits="userSpaceOnUse" gradientTransform="translate(156.41 111.49) rotate(180) scale(44.5 44.5)">
<stop stop-color="#2B237C"/>
<stop offset="1" stop-color="#180D5B"/>
</radialGradient>
<linearGradient id="paint19_linear_172_104" x1="172.43" y1="124.34" x2="133.23" y2="53.75" gradientUnits="userSpaceOnUse">
<stop stop-color="#5761D7"/>
<stop offset="0.04" stop-color="#5C66D9"/>
<stop offset="0.09" stop-color="#6A73DF"/>
<stop offset="0.14" stop-color="#8289E8"/>
<stop offset="0.19" stop-color="#A3A7F5"/>
<stop offset="0.22" stop-color="#BCBEFF"/>
</linearGradient>
<linearGradient id="paint20_linear_172_104" x1="124.27" y1="124.59" x2="150.36" y2="73.58" gradientUnits="userSpaceOnUse">
<stop stop-color="#C0BFF6"/>
<stop offset="0.29" stop-color="#C5C4F7"/>
<stop offset="0.64" stop-color="#D3D2F9"/>
<stop offset="1" stop-color="#E9E9FD"/>
</linearGradient>
<linearGradient id="paint21_linear_172_104" x1="53.7401" y1="216.28" x2="136.67" y2="69.33" gradientUnits="userSpaceOnUse">
<stop stop-color="#C0BFF6"/>
<stop offset="0.08" stop-color="#C3C2F6"/>
<stop offset="0.13" stop-color="#CCCBF8"/>
<stop offset="0.18" stop-color="#DBDBFB"/>
<stop offset="0.21" stop-color="#E9E9FD"/>
<stop offset="0.26" stop-color="#D8D7FA"/>
<stop offset="0.32" stop-color="#CACAF8"/>
<stop offset="0.39" stop-color="#C2C1F6"/>
<stop offset="0.51" stop-color="#C0BFF6"/>
<stop offset="0.62" stop-color="#D0CFF9"/>
<stop offset="0.75" stop-color="#E9E9FD"/>
<stop offset="1" stop-color="#C0BFF6"/>
</linearGradient>
<linearGradient id="paint22_linear_172_104" x1="77.8598" y1="119.42" x2="59.4298" y2="119.42" gradientUnits="userSpaceOnUse">
<stop stop-color="#C0BFF6"/>
<stop offset="0.49" stop-color="#D2D1F9"/>
<stop offset="1" stop-color="#E9E9FD"/>
</linearGradient>
<linearGradient id="paint23_linear_172_104" x1="98.5298" y1="119.42" x2="62.8998" y2="119.42" gradientUnits="userSpaceOnUse">
<stop stop-color="#5761D7"/>
<stop offset="0.18" stop-color="#5C66D9"/>
<stop offset="0.39" stop-color="#6A73DF"/>
<stop offset="0.61" stop-color="#8289E8"/>
<stop offset="0.85" stop-color="#A3A7F5"/>
<stop offset="1" stop-color="#BCBEFF"/>
</linearGradient>
<linearGradient id="paint24_linear_172_104" x1="67.3949" y1="93.16" x2="60.8542" y2="104.541" gradientUnits="userSpaceOnUse">
<stop stop-color="#C0BFF6"/>
<stop offset="0.29" stop-color="#C5C4F7"/>
<stop offset="0.64" stop-color="#D3D2F9"/>
<stop offset="1" stop-color="#E9E9FD"/>
</linearGradient>
<linearGradient id="paint25_linear_172_104" x1="65.0634" y1="94.5" x2="60.8382" y2="101.852" gradientUnits="userSpaceOnUse">
<stop stop-color="#5761D7"/>
<stop offset="0.18" stop-color="#5C66D9"/>
<stop offset="0.39" stop-color="#6A73DF"/>
<stop offset="0.61" stop-color="#8289E8"/>
<stop offset="0.85" stop-color="#A3A7F5"/>
<stop offset="1" stop-color="#BCBEFF"/>
</linearGradient>
<linearGradient id="paint26_linear_172_104" x1="77.8598" y1="92.82" x2="59.4298" y2="92.82" gradientUnits="userSpaceOnUse">
<stop stop-color="#C0BFF6"/>
<stop offset="0.49" stop-color="#D2D1F9"/>
<stop offset="1" stop-color="#E9E9FD"/>
</linearGradient>
<linearGradient id="paint27_linear_172_104" x1="98.5298" y1="92.82" x2="62.8998" y2="92.82" gradientUnits="userSpaceOnUse">
<stop stop-color="#5761D7"/>
<stop offset="0.18" stop-color="#5C66D9"/>
<stop offset="0.39" stop-color="#6A73DF"/>
<stop offset="0.61" stop-color="#8289E8"/>
<stop offset="0.85" stop-color="#A3A7F5"/>
<stop offset="1" stop-color="#BCBEFF"/>
</linearGradient>
<linearGradient id="paint28_linear_172_104" x1="67.3862" y1="84.555" x2="60.8455" y2="95.9359" gradientUnits="userSpaceOnUse">
<stop stop-color="#C0BFF6"/>
<stop offset="0.29" stop-color="#C5C4F7"/>
<stop offset="0.64" stop-color="#D3D2F9"/>
<stop offset="1" stop-color="#E9E9FD"/>
</linearGradient>
<linearGradient id="paint29_linear_172_104" x1="93.1899" y1="134.86" x2="74.7599" y2="134.86" gradientUnits="userSpaceOnUse">
<stop stop-color="#C0BFF6"/>
<stop offset="0.49" stop-color="#D2D1F9"/>
<stop offset="1" stop-color="#E9E9FD"/>
</linearGradient>
<linearGradient id="paint30_linear_172_104" x1="113.86" y1="134.86" x2="78.2299" y2="134.86" gradientUnits="userSpaceOnUse">
<stop stop-color="#5761D7"/>
<stop offset="0.18" stop-color="#5C66D9"/>
<stop offset="0.39" stop-color="#6A73DF"/>
<stop offset="0.61" stop-color="#8289E8"/>
<stop offset="0.85" stop-color="#A3A7F5"/>
<stop offset="1" stop-color="#BCBEFF"/>
</linearGradient>
<linearGradient id="paint31_linear_172_104" x1="82.7939" y1="115.19" x2="76.2531" y2="126.571" gradientUnits="userSpaceOnUse">
<stop stop-color="#C0BFF6"/>
<stop offset="0.29" stop-color="#C5C4F7"/>
<stop offset="0.64" stop-color="#D3D2F9"/>
<stop offset="1" stop-color="#E9E9FD"/>
</linearGradient>
<linearGradient id="paint32_linear_172_104" x1="108.53" y1="136.94" x2="90.09" y2="136.94" gradientUnits="userSpaceOnUse">
<stop stop-color="#C0BFF6"/>
<stop offset="0.49" stop-color="#D2D1F9"/>
<stop offset="1" stop-color="#E9E9FD"/>
</linearGradient>
<linearGradient id="paint33_linear_172_104" x1="129.19" y1="136.94" x2="93.56" y2="136.94" gradientUnits="userSpaceOnUse">
<stop stop-color="#5761D7"/>
<stop offset="0.18" stop-color="#5C66D9"/>
<stop offset="0.39" stop-color="#6A73DF"/>
<stop offset="0.61" stop-color="#8289E8"/>
<stop offset="0.85" stop-color="#A3A7F5"/>
<stop offset="1" stop-color="#BCBEFF"/>
</linearGradient>
<linearGradient id="paint34_linear_172_104" x1="98.193" y1="110.51" x2="91.6522" y2="121.891" gradientUnits="userSpaceOnUse">
<stop stop-color="#C0BFF6"/>
<stop offset="0.29" stop-color="#C5C4F7"/>
<stop offset="0.64" stop-color="#D3D2F9"/>
<stop offset="1" stop-color="#E9E9FD"/>
</linearGradient>
<linearGradient id="paint35_linear_172_104" x1="123.86" y1="149.38" x2="105.42" y2="149.38" gradientUnits="userSpaceOnUse">
<stop stop-color="#C0BFF6"/>
<stop offset="0.49" stop-color="#D2D1F9"/>
<stop offset="1" stop-color="#E9E9FD"/>
</linearGradient>
<linearGradient id="paint36_linear_172_104" x1="144.52" y1="149.38" x2="108.89" y2="149.38" gradientUnits="userSpaceOnUse">
<stop stop-color="#5761D7"/>
<stop offset="0.18" stop-color="#5C66D9"/>
<stop offset="0.39" stop-color="#6A73DF"/>
<stop offset="0.61" stop-color="#8289E8"/>
<stop offset="0.85" stop-color="#A3A7F5"/>
<stop offset="1" stop-color="#BCBEFF"/>
</linearGradient>
<linearGradient id="paint37_linear_172_104" x1="113.592" y1="126.56" x2="107.051" y2="137.941" gradientUnits="userSpaceOnUse">
<stop stop-color="#C0BFF6"/>
<stop offset="0.29" stop-color="#C5C4F7"/>
<stop offset="0.64" stop-color="#D3D2F9"/>
<stop offset="1" stop-color="#E9E9FD"/>
</linearGradient>
<linearGradient id="paint38_linear_172_104" x1="139.19" y1="162.26" x2="120.75" y2="162.26" gradientUnits="userSpaceOnUse">
<stop stop-color="#C0BFF6"/>
<stop offset="0.49" stop-color="#D2D1F9"/>
<stop offset="1" stop-color="#E9E9FD"/>
</linearGradient>
<linearGradient id="paint39_linear_172_104" x1="159.85" y1="162.26" x2="124.22" y2="162.26" gradientUnits="userSpaceOnUse">
<stop stop-color="#5761D7"/>
<stop offset="0.18" stop-color="#5C66D9"/>
<stop offset="0.39" stop-color="#6A73DF"/>
<stop offset="0.61" stop-color="#8289E8"/>
<stop offset="0.85" stop-color="#A3A7F5"/>
<stop offset="1" stop-color="#BCBEFF"/>
</linearGradient>
<linearGradient id="paint40_linear_172_104" x1="129" y1="143.455" x2="122.455" y2="154.843" gradientUnits="userSpaceOnUse">
<stop stop-color="#C0BFF6"/>
<stop offset="0.29" stop-color="#C5C4F7"/>
<stop offset="0.64" stop-color="#D3D2F9"/>
<stop offset="1" stop-color="#E9E9FD"/>
</linearGradient>
</defs>
</svg>
