<svg width="275" height="331" viewBox="0 0 275 331" fill="none" xmlns="http://www.w3.org/2000/svg">
<g clip-path="url(#clip0_32_154)">
<path d="M137.505 76.1709L71.5547 38.0911L137.505 0L203.456 38.0911L137.505 76.1709Z" fill="#BCD5FF"/>
<path d="M137.516 255.47C136.59 255.468 135.681 255.228 134.874 254.773L62.729 213.105C62.3373 212.875 62.0125 212.546 61.7868 212.152C61.5612 211.757 61.4425 211.311 61.4425 210.856C61.4425 210.402 61.5612 209.955 61.7868 209.56C62.0125 209.166 62.3373 208.837 62.729 208.607L134.874 166.939C135.675 166.481 136.582 166.24 137.505 166.24C138.428 166.24 139.335 166.481 140.136 166.939L212.293 208.607C212.684 208.837 213.009 209.166 213.235 209.56C213.46 209.955 213.579 210.402 213.579 210.856C213.579 211.311 213.46 211.757 213.235 212.152C213.009 212.546 212.684 212.875 212.293 213.105L140.147 254.773C139.345 255.228 138.439 255.468 137.516 255.47ZM137.516 168.12C136.928 168.122 136.351 168.277 135.841 168.57L63.6958 210.181C63.5911 210.244 63.5044 210.333 63.4442 210.44C63.384 210.546 63.3524 210.666 63.3524 210.789C63.3524 210.911 63.384 211.031 63.4442 211.138C63.5044 211.244 63.5911 211.333 63.6958 211.396L135.841 253.007C136.354 253.303 136.936 253.459 137.528 253.459C138.12 253.459 138.701 253.303 139.214 253.007L211.359 211.396C211.464 211.333 211.551 211.244 211.611 211.138C211.671 211.031 211.703 210.911 211.703 210.789C211.703 210.666 211.671 210.546 211.611 210.44C211.551 210.333 211.464 210.244 211.359 210.181L139.214 168.57C138.698 168.273 138.112 168.118 137.516 168.12Z" fill="url(#paint0_linear_32_154)"/>
<g opacity="0.67">
<path d="M137.505 243.122L81.6283 210.845L137.505 178.568L193.382 210.845L137.505 243.122Z" fill="#242993"/>
</g>
<path d="M137.505 222.372L71.5547 184.292L137.505 146.201L203.456 184.292L137.505 222.372Z" fill="white"/>
<path d="M203.456 38.0911V184.292L137.505 222.372V76.1709L203.456 38.0911Z" fill="url(#paint1_linear_32_154)"/>
<path d="M71.5547 38.0911V184.292L137.505 222.372V76.1709L71.5547 38.0911Z" fill="#242993"/>
<g opacity="0.51">
<path d="M76.0181 47.7854V179.198L133.042 212.127V80.7145L76.0181 47.7854Z" fill="#4553C7"/>
</g>
<path d="M193.562 73.4156V77.2731L147.399 103.938V100.069L193.562 73.4156Z" fill="#4553C7"/>
<path d="M193.562 89.7565V93.6139L147.399 120.279V116.41L193.562 89.7565Z" fill="#4553C7"/>
<path d="M193.562 106.086V109.955L147.399 136.62V132.751L193.562 106.086Z" fill="#4553C7"/>
<path d="M193.562 122.427V126.295L147.399 152.949V149.092L193.562 122.427Z" fill="#4553C7"/>
<path d="M193.562 138.768V142.636L147.399 169.29V165.432L193.562 138.768Z" fill="#4553C7"/>
<path d="M193.562 155.108V158.966L147.399 185.631V181.773L193.562 155.108Z" fill="#4553C7"/>
<path d="M137.505 74.8438L72.679 37.405L71.5547 38.0461L137.505 76.1372L203.456 38.0461L202.331 37.405L137.505 74.8438Z" fill="white"/>
<path opacity="0.78" d="M137.505 66.1618H120.18L71.5547 38.0911L124.464 7.53503H137.505V66.1618Z" fill="url(#paint2_linear_32_154)"/>
<path d="M137.505 62.7992L89.6556 35.1671L137.505 7.53503L185.355 35.1671L137.505 62.7992Z" fill="url(#paint3_linear_32_154)"/>
<path d="M185.355 35.1671V38.5297L137.505 66.1618V62.7992L185.355 35.1671Z" fill="url(#paint4_linear_32_154)"/>
<path d="M89.6556 35.1671V38.5297L137.505 66.1618V62.7992L89.6556 35.1671Z" fill="url(#paint5_linear_32_154)"/>
<path d="M118.943 35.6057L116.83 34.3911L116.998 33.3902L136.662 21.9528L139.394 23.2573L138.888 24.1008L118.943 35.6057Z" fill="#3F38FC"/>
<path d="M136.763 22.8749L138.888 24.1007L140.248 23.3135L136.763 21.3004L115.469 33.6038L116.83 34.3911L136.763 22.8749Z" fill="url(#paint6_linear_32_154)"/>
<path d="M125.385 39.3169L123.26 38.0911L123.44 37.1014L143.093 25.6527L145.825 26.9573L145.319 27.8007L125.385 39.3169Z" fill="#3F38FC"/>
<path d="M143.194 26.5862L145.319 27.8008L146.679 27.0136L143.194 25.0005L121.9 37.3039L123.261 38.0911L143.194 26.5862Z" fill="url(#paint7_linear_32_154)"/>
<path d="M131.816 43.017L129.691 41.7911L129.871 40.8015L149.524 29.3528L152.256 30.6573L151.75 31.5121L131.816 43.017Z" fill="#3F38FC"/>
<path d="M149.636 30.2862L151.75 31.512L153.11 30.7135L149.636 28.7004L128.331 41.0038L129.703 41.7911L149.636 30.2862Z" fill="url(#paint8_linear_32_154)"/>
<path d="M138.247 46.7282L136.122 45.5023L136.302 44.5014L155.966 33.064L158.687 34.3573L158.181 35.212L138.247 46.7282Z" fill="#3F38FC"/>
<path d="M156.067 33.9862L158.181 35.2121L159.541 34.4248L156.067 32.4117L134.762 44.7152L136.134 45.5024L156.067 33.9862Z" fill="url(#paint9_linear_32_154)"/>
<g opacity="0.51">
<path d="M71.5547 161.181L137.505 121.358V76.1709L71.5547 38.0911V161.181Z" fill="#4553C7"/>
</g>
<path d="M134.897 82.75C134.842 81.8475 134.577 80.9703 134.122 80.189C133.667 79.4078 133.035 78.7441 132.277 78.2515C132.012 78.055 131.698 77.9345 131.369 77.9028C131.04 77.8711 130.709 77.9294 130.411 78.0715L128.556 79.1961H129.68C129.643 79.3813 129.624 79.5696 129.624 79.7585C129.683 80.6611 129.952 81.5376 130.408 82.3184C130.865 83.0992 131.497 83.7629 132.255 84.257C132.432 84.3607 132.621 84.4437 132.817 84.5044L132.277 85.5053L134.099 84.3807C134.363 84.2032 134.577 83.959 134.717 83.6727C134.857 83.3863 134.919 83.068 134.897 82.75Z" fill="url(#paint10_linear_32_154)"/>
<path d="M133.019 83.8409C133.019 85.5166 131.839 86.1913 130.388 85.3591C129.633 84.8639 129.003 84.1996 128.548 83.4189C128.094 82.6381 127.827 81.7623 127.769 80.8606C127.769 79.1849 128.949 78.5101 130.388 79.3424C131.148 79.8344 131.781 80.4977 132.238 81.2789C132.695 82.0601 132.963 82.9376 133.019 83.8409Z" fill="url(#paint11_linear_32_154)"/>
<path d="M131.895 83.1998C131.895 84.167 131.22 84.5494 130.377 84.0658C129.937 83.7814 129.571 83.3965 129.31 82.9429C129.048 82.4892 128.897 81.9798 128.871 81.4567C128.871 80.4895 129.545 80.1071 130.377 80.5794C130.817 80.8677 131.183 81.2547 131.446 81.7097C131.71 82.1647 131.864 82.6749 131.895 83.1998Z" fill="#3F38FC"/>
<path d="M79.5933 48.7525C79.5367 47.8492 79.2692 46.9718 78.8123 46.1906C78.3554 45.4093 77.7219 44.7461 76.9625 44.254C76.697 44.0576 76.383 43.9371 76.0543 43.9054C75.7255 43.8737 75.3943 43.932 75.0962 44.0741L73.2411 45.1987H74.3654C74.3473 45.3895 74.3473 45.5815 74.3654 45.7723C74.4225 46.6742 74.689 47.5503 75.1437 48.3312C75.5985 49.1121 76.2289 49.7762 76.985 50.2708C77.1623 50.3745 77.3509 50.4575 77.5471 50.5182L77.0074 51.5191L78.8288 50.462C79.0963 50.2704 79.3081 50.0112 79.4424 49.7108C79.5768 49.4104 79.6289 49.0797 79.5933 48.7525Z" fill="url(#paint12_linear_32_154)"/>
<path d="M77.7157 49.8434C77.7157 51.5191 76.5915 52.2051 75.0962 51.3617C74.3368 50.8696 73.7032 50.2064 73.2463 49.4252C72.7894 48.6439 72.522 47.7665 72.4653 46.8632C72.4653 45.1875 73.6458 44.5127 75.0962 45.3449C75.8522 45.8395 76.4827 46.5036 76.9374 47.2845C77.3921 48.0654 77.6586 48.9416 77.7157 49.8434Z" fill="url(#paint13_linear_32_154)"/>
<path d="M76.6027 49.2024C76.6027 50.1696 75.9281 50.5632 75.0961 50.0796C74.6586 49.7902 74.2946 49.4026 74.0331 48.9477C73.7715 48.4928 73.6197 47.9831 73.5896 47.4593C73.5896 46.5033 74.2642 46.1097 75.0961 46.5933C75.5322 46.8817 75.8953 47.2675 76.1567 47.7203C76.4182 48.1731 76.5709 48.6805 76.6027 49.2024Z" fill="#3F38FC"/>
<path d="M134.897 213.679C134.842 212.776 134.577 211.899 134.122 211.118C133.667 210.337 133.035 209.673 132.277 209.181C132.01 208.987 131.697 208.869 131.369 208.837C131.041 208.806 130.71 208.862 130.411 209.001L128.556 210.125H129.68C129.644 210.314 129.625 210.506 129.624 210.699C129.681 211.602 129.948 212.479 130.405 213.261C130.862 214.042 131.495 214.705 132.255 215.197C132.434 215.3 132.622 215.386 132.817 215.456L132.277 216.446L134.099 215.388C134.374 215.203 134.594 214.945 134.734 214.644C134.875 214.343 134.931 214.01 134.897 213.679Z" fill="url(#paint14_linear_32_154)"/>
<path d="M133.019 214.781C133.019 216.446 131.839 217.132 130.388 216.288C129.632 215.793 129.002 215.129 128.547 214.349C128.092 213.568 127.826 212.691 127.769 211.79C127.769 210.114 128.949 209.439 130.388 210.271C131.147 210.766 131.78 211.432 132.237 212.215C132.694 212.998 132.962 213.876 133.019 214.781Z" fill="url(#paint15_linear_32_154)"/>
<path d="M131.895 214.129C131.895 215.096 131.22 215.49 130.377 215.006C129.94 214.717 129.576 214.329 129.314 213.874C129.053 213.419 128.901 212.91 128.871 212.386C128.871 211.43 129.545 211.036 130.377 211.52C130.815 211.807 131.181 212.192 131.444 212.645C131.707 213.098 131.862 213.606 131.895 214.129Z" fill="#3F38FC"/>
<path d="M79.5933 179.693C79.5341 178.79 79.2655 177.914 78.8088 177.133C78.3522 176.352 77.7201 175.688 76.9625 175.194C76.6945 175.003 76.3809 174.886 76.0534 174.855C75.7258 174.823 75.3958 174.878 75.0962 175.014L73.2411 176.139H74.3654C74.3473 176.326 74.3473 176.514 74.3654 176.701C74.4199 177.604 74.6853 178.481 75.1402 179.262C75.5952 180.044 76.227 180.707 76.985 181.2C77.162 181.307 77.3506 181.394 77.5471 181.458L77.0074 182.459L78.8288 181.391C79.0963 181.202 79.3083 180.945 79.4427 180.646C79.5772 180.348 79.6292 180.018 79.5933 179.693Z" fill="url(#paint16_linear_32_154)"/>
<path d="M77.7157 180.784C77.7157 182.459 76.5915 183.134 75.0962 182.302C74.3312 181.802 73.6945 181.13 73.2375 180.338C72.7805 179.547 72.516 178.66 72.4653 177.747C72.4653 176.071 73.6458 175.397 75.0962 176.24C75.86 176.737 76.4955 177.408 76.9507 178.198C77.406 178.987 77.6681 179.873 77.7157 180.784Z" fill="url(#paint17_linear_32_154)"/>
<path d="M76.6027 180.143C76.6027 181.099 75.9281 181.492 75.0961 181.009C74.6601 180.72 74.297 180.334 74.0355 179.882C73.774 179.429 73.6214 178.921 73.5896 178.399C73.5896 177.432 74.2642 177.039 75.0961 177.522C75.5337 177.812 75.8976 178.199 76.1592 178.654C76.4207 179.109 76.5726 179.619 76.6027 180.143Z" fill="#3F38FC"/>
<path d="M66.4954 289.659C66.3284 289.659 66.1648 289.612 66.0232 289.524L0.477399 251.68C0.332486 251.598 0.212001 251.478 0.128188 251.334C0.0443745 251.19 0.000244141 251.026 0.000244141 250.859C0.000244141 250.692 0.0443745 250.528 0.128188 250.384C0.212001 250.24 0.332486 250.121 0.477399 250.038L66.0232 212.194C66.1647 212.106 66.3283 212.058 66.4954 212.058C66.6624 212.058 66.8261 212.106 66.9676 212.194L132.513 250.038C132.658 250.121 132.779 250.24 132.863 250.384C132.946 250.528 132.991 250.692 132.991 250.859C132.991 251.026 132.946 251.19 132.863 251.334C132.779 251.478 132.658 251.598 132.513 251.68L66.9676 289.524C66.826 289.612 66.6623 289.659 66.4954 289.659ZM2.8384 250.915L66.4954 287.679L130.152 250.915L66.4954 214.151L2.8384 250.915Z" fill="url(#paint18_linear_32_154)"/>
<path d="M208.526 289.659C208.359 289.658 208.196 289.611 208.054 289.524L142.52 251.68C142.375 251.598 142.254 251.478 142.17 251.334C142.087 251.19 142.042 251.026 142.042 250.859C142.042 250.692 142.087 250.529 142.17 250.384C142.254 250.24 142.375 250.121 142.52 250.038L208.054 212.195C208.196 212.107 208.359 212.061 208.526 212.061C208.693 212.061 208.857 212.107 208.998 212.195L274.544 250.038C274.689 250.121 274.81 250.24 274.893 250.384C274.977 250.529 275.021 250.692 275.021 250.859C275.021 251.026 274.977 251.19 274.893 251.334C274.81 251.478 274.689 251.598 274.544 251.68L208.998 289.524C208.857 289.612 208.693 289.659 208.526 289.659ZM144.881 250.915L208.526 287.679L272.183 250.915L208.526 214.151L144.881 250.915Z" fill="url(#paint19_linear_32_154)"/>
<path d="M66.4953 117.141L0.5448 79.0499L66.4841 40.9701L132.435 79.0612L66.4953 117.141Z" fill="#BCD5FF"/>
<g opacity="0.67">
<path d="M66.4954 284.092L10.6072 251.815L66.4841 219.538L122.372 251.815L66.4954 284.092Z" fill="#242993"/>
</g>
<path d="M66.4953 263.342L0.5448 225.251L66.4841 187.172L132.435 225.251L66.4953 263.342Z" fill="white"/>
<path d="M132.435 79.0613V225.251L66.4954 263.343V117.141L132.435 79.0613Z" fill="url(#paint20_linear_32_154)"/>
<path d="M0.5448 79.0499V225.251L66.4953 263.342V117.141L0.5448 79.0499Z" fill="#242993"/>
<g opacity="0.51">
<path d="M5.0083 88.7555V220.168L62.0208 253.097V121.685L5.0083 88.7555Z" fill="#4553C7"/>
</g>
<path d="M122.552 114.375V118.243L76.389 144.908V141.039L122.552 114.375Z" fill="#4553C7"/>
<path d="M122.552 130.715V134.584L76.389 161.249V157.38L122.552 130.715Z" fill="#4553C7"/>
<path d="M122.552 147.056V150.925L76.389 177.579V173.721L122.552 147.056Z" fill="#4553C7"/>
<path d="M122.552 163.397V167.266L76.389 193.919V190.062L122.552 163.397Z" fill="#4553C7"/>
<path d="M122.552 179.738V183.595L76.389 210.26V206.403L122.552 179.738Z" fill="#4553C7"/>
<path d="M122.552 196.079V199.936L76.389 226.601V222.732L122.552 196.079Z" fill="#4553C7"/>
<path d="M66.4953 115.848L1.66908 78.4089L0.5448 79.05L66.4953 117.141L132.446 79.0612L131.31 78.4089L66.4953 115.848Z" fill="white"/>
<path opacity="0.78" d="M66.4953 107.132H49.1589L0.5448 79.05L53.4424 48.5051H66.4841L66.4953 107.132Z" fill="url(#paint21_linear_32_154)"/>
<path d="M66.4953 103.769L18.6345 76.1372L66.4841 48.5051L114.345 76.1372L66.4953 103.769Z" fill="url(#paint22_linear_32_154)"/>
<path d="M114.345 76.1372V79.4998L66.4954 107.132V103.769L114.345 76.1372Z" fill="url(#paint23_linear_32_154)"/>
<path d="M18.6345 76.1372V79.4998L66.4953 107.132V103.769L18.6345 76.1372Z" fill="url(#paint24_linear_32_154)"/>
<path d="M47.9335 76.5758L45.8086 75.35L45.9885 74.3603L65.641 62.9229L68.373 64.2162L67.8671 65.0709L47.9335 76.5758Z" fill="#3F38FC"/>
<path d="M65.7533 63.845L67.867 65.0708L69.2274 64.2836L65.7533 62.2705L44.4481 74.5739L45.8197 75.3612L65.7533 63.845Z" fill="url(#paint25_linear_32_154)"/>
<path d="M54.3643 80.287L52.2394 79.0612L52.4193 78.0715L72.083 66.6228L74.8038 67.9274L74.2978 68.7708L54.3643 80.287Z" fill="#3F38FC"/>
<path d="M72.1842 67.5451L74.2979 68.7709L75.6695 67.9837L72.1842 65.9706L50.879 78.274L52.2507 79.0612L72.1842 67.5451Z" fill="url(#paint26_linear_32_154)"/>
<path d="M60.7953 83.9871L58.6816 82.7612L58.8503 81.7716L78.514 70.3229L81.2348 71.6274L80.7289 72.4709L60.7953 83.9871Z" fill="#3F38FC"/>
<path d="M78.6151 71.2564L80.7288 72.471L82.1004 71.6837L78.6151 69.6707L57.3212 81.9741L58.6816 82.7613L78.6151 71.2564Z" fill="url(#paint27_linear_32_154)"/>
<path d="M67.2262 87.6871L65.1125 86.4613L65.2812 85.4716L84.9449 74.0342L87.6769 75.3275L87.171 76.1822L67.2262 87.6871Z" fill="#3F38FC"/>
<path d="M85.046 74.9563L87.1597 76.1822L88.5313 75.3837L85.046 73.3818L63.7521 85.6853L65.1125 86.4725L85.046 74.9563Z" fill="url(#paint28_linear_32_154)"/>
<g opacity="0.51">
<path d="M0.5448 202.152L66.4841 162.317L66.4953 117.141L0.5448 79.0499V202.152Z" fill="#4553C7"/>
</g>
<path d="M63.887 123.72C63.8364 122.808 63.5718 121.92 63.1148 121.129C62.6578 120.338 62.0211 119.665 61.2562 119.165C60.9908 118.973 60.6784 118.856 60.3518 118.826C60.0253 118.796 59.6969 118.855 59.4011 118.997L57.5348 120.121H58.6591C58.641 120.308 58.641 120.497 58.6591 120.684C58.7136 121.586 58.979 122.463 59.434 123.245C59.8889 124.026 60.5207 124.689 61.2787 125.182C61.4558 125.289 61.6443 125.376 61.8408 125.441L61.3124 126.442L63.1225 125.317C63.3751 125.138 63.578 124.897 63.7117 124.618C63.8455 124.338 63.9059 124.029 63.887 123.72Z" fill="url(#paint29_linear_32_154)"/>
<path d="M62.0094 124.811C62.0094 126.487 60.8852 127.161 59.3899 126.329C58.6338 125.835 58.0033 125.171 57.5486 124.39C57.0939 123.609 56.8274 122.733 56.7703 121.831C56.7703 120.155 57.8946 119.469 59.3899 120.313C60.1478 120.805 60.7796 121.469 61.2346 122.25C61.6895 123.031 61.9549 123.908 62.0094 124.811Z" fill="url(#paint30_linear_32_154)"/>
<path d="M60.8964 124.17C60.8964 125.126 60.2218 125.52 59.3898 125.036C58.9538 124.748 58.5907 124.362 58.3292 123.909C58.0677 123.456 57.9151 122.949 57.8833 122.427C57.8833 121.46 58.5579 121.066 59.3898 121.55C59.8274 121.839 60.1913 122.227 60.4529 122.682C60.7144 123.136 60.8663 123.646 60.8964 124.17Z" fill="#3F38FC"/>
<path d="M8.57227 89.7226C8.51776 88.8201 8.25236 87.943 7.7974 87.1617C7.34245 86.3804 6.71063 85.7168 5.9527 85.2241C5.68716 85.0277 5.37322 84.9072 5.04447 84.8755C4.71573 84.8438 4.38455 84.9021 4.08639 85.0442L2.23132 86.1688H3.35561C3.31855 86.354 3.2997 86.5423 3.29937 86.7311C3.36534 87.6358 3.6416 88.5126 4.10615 89.2917C4.5707 90.0707 5.21071 90.7305 5.97518 91.2184C6.15144 91.3241 6.34031 91.4072 6.53732 91.4658L5.99765 92.4667L7.81902 91.4096C8.08179 91.2195 8.28977 90.9634 8.42203 90.6673C8.55428 90.3711 8.6061 90.0452 8.57227 89.7226Z" fill="url(#paint31_linear_32_154)"/>
<path d="M6.70596 90.8135C6.70596 92.4892 5.58168 93.164 4.07513 92.3318C3.31721 91.8391 2.68539 91.1755 2.23043 90.3942C1.77548 89.6129 1.51008 88.7358 1.45557 87.8333C1.45557 86.1576 2.57984 85.4828 4.07513 86.315C4.83454 86.8071 5.46807 87.4703 5.92495 88.2515C6.38182 89.0328 6.64931 89.9102 6.70596 90.8135Z" fill="url(#paint32_linear_32_154)"/>
<path d="M5.59293 90.1726C5.59293 91.1398 4.90711 91.5222 4.07514 91.0498C3.63761 90.7603 3.27363 90.3727 3.0121 89.9178C2.75057 89.4629 2.59871 88.9533 2.5686 88.4294C2.5686 87.4622 3.24317 87.0799 4.07514 87.5522C4.51476 87.8405 4.88094 88.2275 5.14446 88.6825C5.40798 89.1375 5.56157 89.6477 5.59293 90.1726Z" fill="#3F38FC"/>
<path d="M63.887 254.649C63.8304 253.746 63.5629 252.868 63.106 252.087C62.6491 251.306 62.0156 250.643 61.2562 250.151C60.9924 249.955 60.6804 249.835 60.3536 249.803C60.0268 249.772 59.6976 249.83 59.4011 249.971L57.5348 251.095H58.6591C58.6411 251.286 58.6411 251.478 58.6591 251.669C58.7162 252.571 58.9827 253.447 59.4374 254.228C59.8922 255.009 60.5226 255.673 61.2787 256.167C61.456 256.271 61.6446 256.354 61.8408 256.415L61.3124 257.416L63.1225 256.359C63.39 256.167 63.6018 255.908 63.7361 255.607C63.8705 255.307 63.9226 254.976 63.887 254.649Z" fill="url(#paint33_linear_32_154)"/>
<path d="M62.0094 255.74C62.0094 257.416 60.8852 258.102 59.3899 257.258C58.6319 256.766 58.0001 256.102 57.5451 255.321C57.0902 254.539 56.8248 253.662 56.7703 252.76C56.7703 251.084 57.8946 250.409 59.3899 251.242C60.146 251.736 60.7764 252.4 61.2311 253.181C61.6858 253.962 61.9523 254.838 62.0094 255.74Z" fill="url(#paint34_linear_32_154)"/>
<path d="M60.8964 255.099C60.8964 256.066 60.2218 256.46 59.3898 255.976C58.9523 255.687 58.5883 255.299 58.3268 254.844C58.0652 254.389 57.9134 253.88 57.8833 253.356C57.8833 252.4 58.5579 252.006 59.3898 252.49C59.8259 252.778 60.189 253.164 60.4504 253.617C60.7119 254.07 60.8646 254.577 60.8964 255.099Z" fill="#3F38FC"/>
<path d="M8.57227 220.652C8.51688 219.749 8.25111 218.873 7.79624 218.091C7.34136 217.31 6.71002 216.646 5.9527 216.153C5.68563 215.96 5.37194 215.842 5.04392 215.81C4.71591 215.778 4.38541 215.835 4.08639 215.973L2.23132 217.098H3.35561C3.31913 217.287 3.30029 217.479 3.29937 217.671C3.35601 218.575 3.62351 219.452 4.08038 220.233C4.53726 221.015 5.17079 221.678 5.93019 222.17C6.10856 222.274 6.29686 222.361 6.49234 222.429L5.9527 223.429L7.77404 222.361C8.04774 222.174 8.26616 221.916 8.40655 221.615C8.54695 221.315 8.60417 220.982 8.57227 220.652Z" fill="url(#paint35_linear_32_154)"/>
<path d="M6.70596 221.754C6.70596 223.43 5.58168 224.104 4.07513 223.261C3.31721 222.768 2.68539 222.105 2.23043 221.323C1.77548 220.542 1.51008 219.665 1.45557 218.762C1.45557 217.087 2.57984 216.412 4.07513 217.244C4.83417 217.739 5.46724 218.405 5.92395 219.188C6.38067 219.971 6.64842 220.849 6.70596 221.754Z" fill="url(#paint36_linear_32_154)"/>
<path d="M5.59293 221.101C5.59293 222.069 4.90711 222.462 4.07514 221.979C3.63761 221.689 3.27363 221.302 3.0121 220.847C2.75057 220.392 2.59871 219.882 2.5686 219.358C2.5686 218.402 3.24317 218.009 4.07514 218.492C4.5133 218.78 4.87858 219.165 5.14202 219.618C5.40547 220.071 5.55986 220.579 5.59293 221.101Z" fill="#3F38FC"/>
<path d="M208.526 117.141L142.576 79.0499L208.526 40.9701L274.477 79.0612L208.526 117.141Z" fill="#BCD5FF"/>
<g opacity="0.67">
<path d="M208.526 284.092L152.638 251.815L208.526 219.538L264.403 251.815L208.526 284.092Z" fill="#242993"/>
</g>
<path d="M208.526 263.342L142.576 225.251L208.526 187.172L274.477 225.251L208.526 263.342Z" fill="white"/>
<path d="M274.477 79.0613V225.251L208.526 263.343V117.141L274.477 79.0613Z" fill="url(#paint37_linear_32_154)"/>
<path d="M142.576 79.0499V225.251L208.526 263.342V117.141L142.576 79.0499Z" fill="#242993"/>
<g opacity="0.51">
<path d="M147.039 88.7555V220.168L204.052 253.097V121.685L147.039 88.7555Z" fill="#4553C7"/>
</g>
<path d="M264.583 114.375V118.243L218.42 144.908V141.039L264.583 114.375Z" fill="#4553C7"/>
<path d="M264.583 130.715V134.584L218.42 161.249V157.38L264.583 130.715Z" fill="#4553C7"/>
<path d="M264.583 147.056V150.925L218.42 177.579V173.721L264.583 147.056Z" fill="#4553C7"/>
<path d="M264.583 163.397V167.266L218.42 193.919V190.062L264.583 163.397Z" fill="#4553C7"/>
<path d="M264.583 179.738V183.595L218.42 210.26V206.403L264.583 179.738Z" fill="#4553C7"/>
<path d="M264.583 196.079V199.936L218.42 226.601V222.732L264.583 196.079Z" fill="#4553C7"/>
<path d="M208.526 115.848L143.7 78.4089L142.576 79.05L208.526 117.141L274.477 79.0612L273.341 78.4089L208.526 115.848Z" fill="white"/>
<path opacity="0.78" d="M208.526 107.132H191.19L142.576 79.05L195.473 48.5051H208.526V107.132Z" fill="url(#paint38_linear_32_154)"/>
<path d="M208.526 103.769L160.665 76.1372L208.526 48.5051L256.376 76.1372L208.526 103.769Z" fill="url(#paint39_linear_32_154)"/>
<path d="M256.376 76.1372V79.4998L208.526 107.132V103.769L256.376 76.1372Z" fill="url(#paint40_linear_32_154)"/>
<path d="M160.665 76.1372V79.4998L208.526 107.132V103.769L160.665 76.1372Z" fill="url(#paint41_linear_32_154)"/>
<path d="M189.964 76.5758L187.839 75.35L188.019 74.3603L207.683 62.9229L210.404 64.2162L209.898 65.0709L189.964 76.5758Z" fill="#3F38FC"/>
<path d="M207.784 63.845L209.898 65.0708L211.269 64.2836L207.784 62.2705L186.479 74.5739L187.851 75.3612L207.784 63.845Z" fill="url(#paint42_linear_32_154)"/>
<path d="M196.395 80.287L194.27 79.0612L194.45 78.0715L214.114 66.6228L216.846 67.9274L216.329 68.7708L196.395 80.287Z" fill="#3F38FC"/>
<path d="M214.215 67.5451L216.329 68.7709L217.7 67.9837L214.215 65.9706L192.91 78.274L194.282 79.0612L214.215 67.5451Z" fill="url(#paint43_linear_32_154)"/>
<path d="M202.826 83.9871L200.712 82.7612L200.881 81.7716L220.545 70.3229L223.277 71.6274L222.76 72.4709L202.826 83.9871Z" fill="#3F38FC"/>
<path d="M220.646 71.2564L222.76 72.471L224.131 71.6837L220.646 69.6707L199.352 81.9741L200.712 82.7613L220.646 71.2564Z" fill="url(#paint44_linear_32_154)"/>
<path d="M209.257 87.6871L207.143 86.4613L207.312 85.4716L226.976 74.0342L229.708 75.3275L229.191 76.1822L209.257 87.6871Z" fill="#3F38FC"/>
<path d="M227.077 74.9563L229.191 76.1822L230.562 75.3837L227.077 73.3818L205.783 85.6853L207.143 86.4725L227.077 74.9563Z" fill="url(#paint45_linear_32_154)"/>
<g opacity="0.51">
<path d="M142.576 202.152L208.526 162.317V117.141L142.576 79.0499V202.152Z" fill="#4553C7"/>
</g>
<path d="M205.918 123.72C205.867 122.808 205.603 121.92 205.146 121.129C204.689 120.338 204.052 119.665 203.287 119.165C203.022 118.973 202.709 118.856 202.383 118.826C202.056 118.796 201.728 118.855 201.432 118.997L199.566 120.121H200.69C200.653 120.306 200.634 120.495 200.634 120.684C200.688 121.586 200.954 122.463 201.409 123.245C201.864 124.026 202.495 124.689 203.253 125.182C203.431 125.287 203.62 125.374 203.815 125.441L203.287 126.442L205.108 125.317C205.369 125.143 205.581 124.905 205.723 124.625C205.865 124.345 205.932 124.033 205.918 123.72Z" fill="url(#paint46_linear_32_154)"/>
<path d="M204.04 124.811C204.04 126.487 202.916 127.161 201.421 126.329C200.665 125.835 200.034 125.171 199.579 124.39C199.125 123.609 198.858 122.733 198.801 121.831C198.801 120.155 199.925 119.469 201.421 120.313C202.179 120.805 202.81 121.469 203.265 122.25C203.72 123.031 203.986 123.908 204.04 124.811Z" fill="url(#paint47_linear_32_154)"/>
<path d="M202.927 124.17C202.927 125.126 202.253 125.52 201.421 125.036C200.985 124.748 200.622 124.362 200.36 123.909C200.099 123.456 199.946 122.949 199.914 122.427C199.914 121.46 200.589 121.066 201.421 121.55C201.858 121.839 202.222 122.227 202.484 122.682C202.745 123.136 202.897 123.646 202.927 124.17Z" fill="#3F38FC"/>
<path d="M150.603 89.7226C150.549 88.8201 150.283 87.943 149.828 87.1617C149.373 86.3804 148.741 85.7168 147.983 85.2241C147.718 85.0277 147.404 84.9072 147.075 84.8755C146.746 84.8438 146.415 84.9021 146.117 85.0442L144.262 86.1688H145.386C145.368 86.3558 145.368 86.5441 145.386 86.7311C145.437 87.6435 145.702 88.5312 146.159 89.3224C146.616 90.1137 147.252 90.7863 148.017 91.2859C148.195 91.3895 148.383 91.4726 148.579 91.5333L148.04 92.5342L149.861 91.477C150.135 91.2825 150.35 91.0152 150.481 90.7053C150.612 90.3954 150.655 90.0551 150.603 89.7226Z" fill="url(#paint48_linear_32_154)"/>
<path d="M148.759 90.8135C148.759 92.4892 147.579 93.164 146.128 92.3318C145.37 91.8391 144.739 91.1755 144.284 90.3942C143.829 89.6129 143.563 88.7358 143.509 87.8333C143.509 86.1576 144.633 85.4828 146.128 86.315C146.888 86.8071 147.521 87.4703 147.978 88.2515C148.435 89.0328 148.703 89.9102 148.759 90.8135Z" fill="url(#paint49_linear_32_154)"/>
<path d="M147.635 90.1726C147.635 91.1398 146.96 91.5222 146.117 91.0498C145.68 90.7603 145.316 90.3727 145.054 89.9178C144.793 89.4629 144.641 88.9533 144.611 88.4294C144.611 87.4622 145.285 87.0799 146.117 87.5522C146.557 87.8405 146.923 88.2275 147.186 88.6825C147.45 89.1375 147.604 89.6477 147.635 90.1726Z" fill="#3F38FC"/>
<path d="M205.918 254.649C205.861 253.746 205.594 252.868 205.137 252.087C204.68 251.306 204.046 250.643 203.287 250.151C203.024 249.954 202.712 249.833 202.385 249.802C202.058 249.77 201.728 249.828 201.432 249.971L199.566 251.095H200.69C200.653 251.284 200.634 251.476 200.634 251.669C200.691 252.571 200.957 253.447 201.412 254.228C201.867 255.009 202.497 255.673 203.253 256.167C203.432 256.269 203.62 256.352 203.815 256.415L203.287 257.416L205.108 256.359C205.384 256.172 205.605 255.916 205.747 255.615C205.89 255.314 205.949 254.981 205.918 254.649Z" fill="url(#paint50_linear_32_154)"/>
<path d="M204.04 255.74C204.04 257.416 202.916 258.102 201.421 257.258C200.663 256.766 200.031 256.102 199.576 255.321C199.121 254.539 198.856 253.662 198.801 252.76C198.801 251.084 199.925 250.409 201.421 251.242C202.177 251.736 202.807 252.4 203.262 253.181C203.717 253.962 203.983 254.838 204.04 255.74Z" fill="url(#paint51_linear_32_154)"/>
<path d="M202.927 255.099C202.927 256.066 202.253 256.46 201.421 255.976C200.983 255.687 200.619 255.299 200.358 254.844C200.096 254.389 199.944 253.88 199.914 253.356C199.914 252.4 200.589 252.006 201.421 252.49C201.857 252.778 202.22 253.164 202.481 253.617C202.743 254.07 202.895 254.577 202.927 255.099Z" fill="#3F38FC"/>
<path d="M150.603 220.652C150.548 219.749 150.282 218.873 149.827 218.091C149.372 217.31 148.741 216.646 147.983 216.153C147.716 215.96 147.403 215.842 147.075 215.81C146.747 215.778 146.416 215.835 146.117 215.973L144.262 217.098H145.386C145.369 217.289 145.369 217.481 145.386 217.671C145.443 218.575 145.711 219.452 146.167 220.233C146.624 221.015 147.258 221.678 148.017 222.17C148.197 222.272 148.385 222.359 148.579 222.429L148.04 223.429L149.861 222.361C150.126 222.168 150.335 221.908 150.465 221.608C150.596 221.307 150.643 220.977 150.603 220.652Z" fill="url(#paint52_linear_32_154)"/>
<path d="M148.759 221.754C148.759 223.43 147.579 224.104 146.128 223.261C145.37 222.768 144.739 222.105 144.284 221.323C143.829 220.542 143.563 219.665 143.509 218.762C143.509 217.087 144.633 216.412 146.128 217.244C146.887 217.739 147.52 218.405 147.977 219.188C148.434 219.971 148.702 220.849 148.759 221.754Z" fill="url(#paint53_linear_32_154)"/>
<path d="M147.635 221.101C147.635 222.069 146.96 222.462 146.117 221.979C145.68 221.689 145.316 221.302 145.054 220.847C144.793 220.392 144.641 219.882 144.611 219.358C144.611 218.402 145.285 218.009 146.117 218.492C146.555 218.78 146.921 219.165 147.184 219.618C147.447 220.071 147.602 220.579 147.635 221.101Z" fill="#3F38FC"/>
<path d="M137.516 330.989C137.351 330.993 137.187 330.95 137.044 330.865L71.4985 293.021C71.356 292.937 71.2377 292.816 71.155 292.673C71.0723 292.529 71.028 292.366 71.0262 292.2C71.0257 292.034 71.0692 291.871 71.1521 291.726C71.235 291.582 71.3545 291.463 71.4985 291.379L137.033 253.525C137.177 253.442 137.339 253.398 137.505 253.398C137.671 253.398 137.834 253.442 137.977 253.525L203.523 291.402C203.668 291.484 203.789 291.604 203.872 291.748C203.956 291.892 204 292.056 204 292.223C204 292.39 203.956 292.554 203.872 292.698C203.789 292.842 203.668 292.961 203.523 293.044L137.989 330.888C137.843 330.964 137.68 330.999 137.516 330.989ZM73.8595 292.2L137.516 328.964L201.162 292.2L137.516 255.414L73.8595 292.2Z" fill="url(#paint54_linear_32_154)"/>
<path d="M137.505 157.526L71.5547 119.435L137.505 81.3555L203.456 119.435L137.505 157.526Z" fill="#BCD5FF"/>
<path d="M137.505 156.233L72.679 118.794L71.5547 119.435L137.505 157.526L203.456 119.435L202.331 118.794L137.505 156.233Z" fill="white"/>
<g opacity="0.67">
<path d="M137.505 324.477L81.6283 292.2L137.505 259.924L193.382 292.2L137.505 324.477Z" fill="#242993"/>
</g>
<path d="M137.505 303.728L71.5547 265.637L137.505 227.557L203.456 265.648L137.505 303.728Z" fill="white"/>
<path d="M203.456 119.435V265.648L137.505 303.728V157.526L203.456 119.435Z" fill="url(#paint55_linear_32_154)"/>
<path d="M71.5547 119.435V265.637L137.505 303.728V157.526L71.5547 119.435Z" fill="#242993"/>
<g opacity="0.51">
<path d="M76.0181 129.141V260.553L133.042 293.482V162.07L76.0181 129.141Z" fill="#4553C7"/>
</g>
<path d="M76.895 259.946V129.636L76.0181 129.141V260.553L133.042 293.482V292.38L76.895 259.946Z" fill="#93A8FF"/>
<path d="M193.562 154.76V158.628L147.399 185.293V181.425L193.562 154.76Z" fill="#4553C7"/>
<path d="M193.562 171.101V174.969L147.399 201.634V197.765L193.562 171.101Z" fill="#4553C7"/>
<path d="M193.562 187.441V191.31L147.399 217.964V214.106L193.562 187.441Z" fill="#4553C7"/>
<path d="M193.562 203.782V207.651L147.399 234.305V230.447L193.562 203.782Z" fill="#4553C7"/>
<path d="M193.562 220.123V223.981L147.399 250.645V246.788L193.562 220.123Z" fill="#4553C7"/>
<path d="M193.562 236.464V240.321L147.399 266.986V263.118L193.562 236.464Z" fill="#4553C7"/>
<path opacity="0.78" d="M137.505 147.517H120.18L71.5547 119.435L124.464 88.8905H137.505V147.517Z" fill="url(#paint56_linear_32_154)"/>
<path d="M137.505 144.155L89.6556 116.523L137.505 88.8905L185.355 116.523L137.505 144.155Z" fill="url(#paint57_linear_32_154)"/>
<path d="M185.355 116.522V119.885L137.505 147.517V144.155L185.355 116.522Z" fill="url(#paint58_linear_32_154)"/>
<path d="M89.6556 116.522V119.885L137.505 147.517V144.155L89.6556 116.522Z" fill="url(#paint59_linear_32_154)"/>
<path d="M118.943 116.961L116.83 115.735L116.998 114.746L136.662 103.308L139.394 104.601L138.888 105.456L118.943 116.961Z" fill="#3F38FC"/>
<path d="M136.763 104.23L138.888 105.456L140.248 104.658L136.763 102.656L115.469 114.959L116.83 115.747L136.763 104.23Z" fill="url(#paint60_linear_32_154)"/>
<path d="M125.385 120.672L123.26 119.447L123.44 118.457L143.093 107.008L145.825 108.313L145.319 109.156L125.385 120.672Z" fill="#3F38FC"/>
<path d="M143.194 107.93L145.319 109.156L146.679 108.369L143.194 106.356L121.9 118.659L123.261 119.447L143.194 107.93Z" fill="url(#paint61_linear_32_154)"/>
<path d="M131.816 124.372L129.691 123.147L129.871 122.157L149.524 110.708L152.256 112.013L151.75 112.856L131.816 124.372Z" fill="#3F38FC"/>
<path d="M149.636 111.642L151.75 112.856L153.11 112.069L149.636 110.056L128.331 122.359L129.703 123.147L149.636 111.642Z" fill="url(#paint62_linear_32_154)"/>
<path d="M138.247 128.072L136.122 126.847L136.302 125.857L155.966 114.408L158.687 115.713L158.181 116.567L138.247 128.072Z" fill="#3F38FC"/>
<path d="M156.067 115.342L158.181 116.568L159.541 115.769L156.067 113.767L134.762 126.059L136.134 126.858L156.067 115.342Z" fill="url(#paint63_linear_32_154)"/>
<g opacity="0.51">
<path d="M71.5547 242.537L137.505 202.703V157.526L71.5547 119.435V242.537Z" fill="#4553C7"/>
</g>
<path d="M134.897 164.106C134.848 163.194 134.586 162.307 134.131 161.515C133.676 160.724 133.041 160.051 132.277 159.551C132.01 159.358 131.695 159.241 131.367 159.212C131.039 159.182 130.709 159.241 130.411 159.382L128.556 160.507H129.68C129.643 160.692 129.624 160.88 129.624 161.069C129.681 161.972 129.948 162.85 130.405 163.631C130.862 164.412 131.495 165.075 132.255 165.568C132.432 165.675 132.62 165.761 132.817 165.826L132.277 166.827L134.099 165.702C134.358 165.528 134.568 165.289 134.708 165.009C134.848 164.729 134.913 164.418 134.897 164.106Z" fill="url(#paint64_linear_32_154)"/>
<path d="M133.019 165.196C133.019 166.872 131.839 167.547 130.388 166.715C129.634 166.218 129.005 165.553 128.551 164.773C128.096 163.992 127.828 163.117 127.769 162.216C127.769 160.552 128.949 159.866 130.388 160.709C131.146 161.2 131.779 161.861 132.236 162.641C132.693 163.42 132.961 164.295 133.019 165.196Z" fill="url(#paint65_linear_32_154)"/>
<path d="M131.895 164.555C131.895 165.511 131.22 165.905 130.377 165.421C129.941 165.133 129.578 164.747 129.317 164.294C129.055 163.841 128.902 163.334 128.871 162.812C128.871 161.845 129.545 161.451 130.377 161.935C130.817 162.223 131.183 162.61 131.446 163.065C131.71 163.52 131.864 164.03 131.895 164.555Z" fill="#3F38FC"/>
<path d="M79.5933 130.108C79.5367 129.205 79.2692 128.327 78.8123 127.546C78.3554 126.765 77.7219 126.102 76.9625 125.609C76.697 125.413 76.383 125.293 76.0543 125.261C75.7255 125.229 75.3943 125.287 75.0962 125.43L73.2411 126.554H74.3654C74.3473 126.741 74.3473 126.929 74.3654 127.116C74.4139 128.028 74.6764 128.915 75.1315 129.707C75.5866 130.498 76.2215 131.171 76.985 131.671C77.1623 131.775 77.3509 131.858 77.5471 131.919L77.0074 132.92L78.8288 131.862C79.1064 131.67 79.3249 131.404 79.4599 131.094C79.5949 130.784 79.6411 130.443 79.5933 130.108Z" fill="url(#paint66_linear_32_154)"/>
<path d="M77.7157 131.199C77.7157 132.875 76.5915 133.549 75.0962 132.717C74.3368 132.225 73.7032 131.562 73.2463 130.781C72.7894 129.999 72.522 129.122 72.4653 128.219C72.4653 126.543 73.6458 125.868 75.0962 126.7C75.8541 127.193 76.4859 127.857 76.9409 128.638C77.3958 129.419 77.6612 130.296 77.7157 131.199Z" fill="url(#paint67_linear_32_154)"/>
<path d="M76.6027 130.58C76.6027 131.547 75.9281 131.93 75.0961 131.458C74.6586 131.168 74.2946 130.78 74.0331 130.326C73.7715 129.871 73.6197 129.361 73.5896 128.837C73.5896 127.87 74.2642 127.488 75.0961 127.96C75.5337 128.249 75.8976 128.637 76.1592 129.092C76.4207 129.547 76.5726 130.056 76.6027 130.58Z" fill="#3F38FC"/>
<path d="M134.897 295.034C134.842 294.132 134.577 293.255 134.122 292.473C133.667 291.692 133.035 291.029 132.277 290.536C132.012 290.339 131.698 290.219 131.369 290.187C131.04 290.156 130.709 290.214 130.411 290.356L128.522 291.402H129.646C129.609 291.591 129.59 291.783 129.59 291.975C129.649 292.878 129.918 293.755 130.375 294.535C130.831 295.316 131.463 295.98 132.221 296.474C132.398 296.578 132.587 296.661 132.783 296.721L132.243 297.722L134.065 296.665C134.333 296.489 134.551 296.246 134.697 295.96C134.843 295.674 134.912 295.355 134.897 295.034Z" fill="url(#paint68_linear_32_154)"/>
<path d="M133.019 296.125C133.019 297.801 131.839 298.487 130.388 297.644C129.632 297.149 129.002 296.485 128.547 295.704C128.092 294.923 127.826 294.047 127.769 293.145C127.769 291.469 128.949 290.795 130.388 291.627C131.146 292.121 131.778 292.785 132.235 293.565C132.691 294.346 132.96 295.223 133.019 296.125Z" fill="url(#paint69_linear_32_154)"/>
<path d="M131.895 295.484C131.895 296.451 131.22 296.845 130.377 296.362C129.94 296.072 129.576 295.684 129.314 295.23C129.053 294.775 128.901 294.265 128.871 293.741C128.871 292.785 129.545 292.392 130.377 292.875C130.819 293.158 131.187 293.543 131.451 293.996C131.715 294.45 131.867 294.96 131.895 295.484Z" fill="#3F38FC"/>
<path d="M79.5933 261.037C79.5358 260.134 79.2679 259.257 78.8111 258.476C78.3544 257.695 77.7213 257.031 76.9625 256.539C76.6954 256.345 76.3817 256.227 76.0537 256.195C75.7257 256.164 75.3952 256.22 75.0962 256.359L73.2411 257.483H74.3654C74.3478 257.674 74.3478 257.866 74.3654 258.057C74.4199 258.959 74.6853 259.836 75.1402 260.618C75.5952 261.399 76.227 262.063 76.985 262.555C77.1644 262.658 77.3525 262.744 77.5471 262.814L77.0074 263.815L78.8288 262.69C79.0884 262.504 79.2953 262.254 79.4293 261.965C79.5633 261.675 79.6198 261.355 79.5933 261.037Z" fill="url(#paint70_linear_32_154)"/>
<path d="M77.7157 262.162C77.7157 263.826 76.5915 264.512 75.0962 263.669C74.3368 263.177 73.7032 262.513 73.2463 261.732C72.7894 260.951 72.522 260.073 72.4653 259.17C72.4653 257.494 73.6458 256.82 75.0962 257.652C75.8537 258.148 76.485 258.813 76.9398 259.596C77.3946 260.379 77.6603 261.258 77.7157 262.162Z" fill="url(#paint71_linear_32_154)"/>
<path d="M76.6027 261.487C76.6027 262.454 75.9281 262.848 75.0961 262.364C74.6586 262.075 74.2946 261.687 74.0331 261.232C73.7715 260.777 73.6197 260.268 73.5896 259.744C73.5896 258.788 74.2642 258.394 75.0961 258.878C75.5322 259.166 75.8953 259.552 76.1567 260.005C76.4182 260.458 76.5709 260.965 76.6027 261.487Z" fill="#3F38FC"/>
<path style="mix-blend-mode:lighten" opacity="0.2" d="M106.664 196.426C108.785 187.437 103.22 178.43 94.2336 176.309C85.2473 174.187 76.2431 179.754 74.1222 188.743C72.0012 197.732 77.5667 206.739 86.5529 208.861C95.5392 210.982 104.543 205.415 106.664 196.426Z" fill="url(#paint72_radial_32_154)"/>
<path style="mix-blend-mode:lighten" opacity="0.2" d="M104.519 195.92C106.361 188.116 101.529 180.296 93.7273 178.454C85.9255 176.612 78.1081 181.445 76.2667 189.249C74.4254 197.054 79.2572 204.873 87.059 206.715C94.8608 208.557 102.678 203.724 104.519 195.92Z" fill="url(#paint73_radial_32_154)"/>
<path style="mix-blend-mode:lighten" opacity="0.2" d="M101.434 195.191C102.873 189.092 99.0967 182.98 92.9991 181.541C86.9015 180.101 80.7917 183.878 79.3525 189.978C77.9134 196.077 81.6898 202.189 87.7874 203.629C93.885 205.068 99.9947 201.291 101.434 195.191Z" fill="url(#paint74_radial_32_154)"/>
<path style="mix-blend-mode:lighten" opacity="0.2" d="M90.4201 200.768C94.928 200.768 98.5824 197.113 98.5824 192.604C98.5824 188.094 94.928 184.439 90.4201 184.439C85.9122 184.439 82.2578 188.094 82.2578 192.604C82.2578 197.113 85.9122 200.768 90.4201 200.768Z" fill="url(#paint75_radial_32_154)"/>
<path style="mix-blend-mode:lighten" opacity="0.2" d="M94.7936 192.592C94.7958 193.454 94.5426 194.296 94.0658 195.013C93.5891 195.731 92.9103 196.29 92.1155 196.621C91.3206 196.952 90.4454 197.04 89.6007 196.874C88.756 196.707 87.9797 196.293 87.37 195.685C86.7604 195.077 86.3449 194.301 86.1761 193.457C86.0073 192.612 86.0928 191.737 86.4218 190.941C86.7508 190.145 87.3084 189.464 88.0242 188.985C88.74 188.507 89.5816 188.251 90.4426 188.251C91.5946 188.251 92.6996 188.708 93.5153 189.522C94.3309 190.336 94.7906 191.44 94.7936 192.592Z" fill="url(#paint76_radial_32_154)"/>
<path opacity="0.2" d="M107.917 196.97C111.53 194.883 111.533 188.12 107.922 181.865C104.311 175.609 98.4548 172.229 94.8412 174.316C91.2276 176.403 91.2252 183.166 94.8359 189.422C98.4466 195.678 104.303 199.057 107.917 196.97Z" fill="url(#paint77_linear_32_154)"/>
<path style="mix-blend-mode:lighten" opacity="0.2" d="M102.67 195.483C104.271 188.701 100.071 181.905 93.2909 180.304C86.5104 178.703 79.7164 182.904 78.116 189.686C76.5157 196.469 80.7151 203.265 87.4956 204.865C94.276 206.466 101.07 202.266 102.67 195.483Z" fill="url(#paint78_radial_32_154)"/>
<path style="mix-blend-mode:lighten" opacity="0.2" d="M101.062 195.103C102.453 189.209 98.8034 183.304 92.9113 181.913C87.0191 180.522 81.1152 184.172 79.7246 190.066C78.3339 195.96 81.9831 201.865 87.8752 203.256C93.7673 204.648 99.6712 200.997 101.062 195.103Z" fill="url(#paint79_radial_32_154)"/>
<path style="mix-blend-mode:lighten" opacity="0.2" d="M98.7202 194.55C99.8056 189.95 96.9575 185.341 92.3586 184.255C87.7597 183.169 83.1516 186.018 82.0662 190.619C80.9807 195.219 83.829 199.828 88.4279 200.914C93.0267 202 97.6348 199.151 98.7202 194.55Z" fill="url(#paint80_radial_32_154)"/>
<path style="mix-blend-mode:lighten" opacity="0.2" d="M90.4201 198.766C93.8228 198.766 96.5812 196.007 96.5812 192.603C96.5812 189.2 93.8228 186.441 90.4201 186.441C87.0174 186.441 84.259 189.2 84.259 192.603C84.259 196.007 87.0174 198.766 90.4201 198.766Z" fill="url(#paint81_radial_32_154)"/>
<path style="mix-blend-mode:lighten" opacity="0.2" d="M93.6693 192.592C93.6715 193.242 93.4809 193.878 93.1215 194.42C92.7621 194.961 92.2502 195.384 91.6505 195.634C91.0509 195.884 90.3904 195.951 89.7529 195.826C89.1153 195.7 88.5293 195.388 88.069 194.93C87.6088 194.471 87.295 193.886 87.1674 193.248C87.0398 192.611 87.1042 191.95 87.3523 191.349C87.6005 190.749 88.0212 190.235 88.5614 189.874C89.1015 189.512 89.7366 189.32 90.3864 189.32C91.2551 189.32 92.0885 189.664 92.7038 190.277C93.3192 190.891 93.6663 191.723 93.6693 192.592Z" fill="url(#paint82_radial_32_154)"/>
<path opacity="0.2" d="M35.6538 204.741C41.5098 201.359 41.5103 190.393 35.655 180.248C29.7996 170.104 20.3058 164.621 14.4498 168.003C8.59388 171.385 8.59336 182.351 14.4487 192.496C20.304 202.64 29.7979 208.123 35.6538 204.741Z" fill="url(#paint83_linear_32_154)"/>
</g>
<defs>
<linearGradient id="paint0_linear_32_154" x1="61.4248" y1="210.845" x2="213.597" y2="210.845" gradientUnits="userSpaceOnUse">
<stop stop-color="#5778FF"/>
<stop offset="0.07" stop-color="#5489FF"/>
<stop offset="0.28" stop-color="#4EB3FF"/>
<stop offset="0.48" stop-color="#49D4FF"/>
<stop offset="0.67" stop-color="#45ECFF"/>
<stop offset="0.85" stop-color="#43FAFF"/>
<stop offset="1" stop-color="#42FFFF"/>
</linearGradient>
<linearGradient id="paint1_linear_32_154" x1="170.48" y1="181.211" x2="170.48" y2="41.9935" gradientUnits="userSpaceOnUse">
<stop stop-color="#C0D6FF"/>
<stop offset="0.3" stop-color="#C5DBFF"/>
<stop offset="0.65" stop-color="#D3E9FF"/>
<stop offset="1" stop-color="#E9FFFF"/>
</linearGradient>
<linearGradient id="paint2_linear_32_154" x1="71.5547" y1="36.854" x2="137.505" y2="36.854" gradientUnits="userSpaceOnUse">
<stop stop-color="#E9FFFF"/>
<stop offset="0.04" stop-color="#D3EBFF"/>
<stop offset="0.11" stop-color="#B2CCFF"/>
<stop offset="0.18" stop-color="#96B2FF"/>
<stop offset="0.27" stop-color="#7F9DFF"/>
<stop offset="0.36" stop-color="#6D8CFF"/>
<stop offset="0.48" stop-color="#6081FF"/>
<stop offset="0.64" stop-color="#597AFF"/>
<stop offset="1" stop-color="#5778FF"/>
</linearGradient>
<linearGradient id="paint3_linear_32_154" x1="89.6556" y1="35.1671" x2="185.355" y2="35.1671" gradientUnits="userSpaceOnUse">
<stop stop-color="#C0D6FF"/>
<stop offset="0.3" stop-color="#C5DBFF"/>
<stop offset="0.65" stop-color="#D3E9FF"/>
<stop offset="1" stop-color="#E9FFFF"/>
</linearGradient>
<linearGradient id="paint4_linear_32_154" x1="167.613" y1="61.4496" x2="155.972" y2="41.1419" gradientUnits="userSpaceOnUse">
<stop stop-color="#C0D6FF"/>
<stop offset="0.3" stop-color="#C5DBFF"/>
<stop offset="0.65" stop-color="#D3E9FF"/>
<stop offset="1" stop-color="#E9FFFF"/>
</linearGradient>
<linearGradient id="paint5_linear_32_154" x1="113.58" y1="51.8116" x2="113.58" y2="20.8169" gradientUnits="userSpaceOnUse">
<stop stop-color="#5778FF"/>
<stop offset="0.18" stop-color="#5C7DFF"/>
<stop offset="0.39" stop-color="#6A8AFF"/>
<stop offset="0.61" stop-color="#82A0FF"/>
<stop offset="0.85" stop-color="#A3BEFF"/>
<stop offset="1" stop-color="#BCD5FF"/>
</linearGradient>
<linearGradient id="paint6_linear_32_154" x1="115.469" y1="27.8457" x2="140.248" y2="27.8457" gradientUnits="userSpaceOnUse">
<stop stop-color="#5778FF"/>
<stop offset="0.18" stop-color="#5C7DFF"/>
<stop offset="0.39" stop-color="#6A8AFF"/>
<stop offset="0.61" stop-color="#82A0FF"/>
<stop offset="0.85" stop-color="#A3BEFF"/>
<stop offset="1" stop-color="#BCD5FF"/>
</linearGradient>
<linearGradient id="paint7_linear_32_154" x1="121.9" y1="31.5458" x2="146.679" y2="31.5458" gradientUnits="userSpaceOnUse">
<stop stop-color="#5778FF"/>
<stop offset="0.18" stop-color="#5C7DFF"/>
<stop offset="0.39" stop-color="#6A8AFF"/>
<stop offset="0.61" stop-color="#82A0FF"/>
<stop offset="0.85" stop-color="#A3BEFF"/>
<stop offset="1" stop-color="#BCD5FF"/>
</linearGradient>
<linearGradient id="paint8_linear_32_154" x1="128.331" y1="35.257" x2="153.11" y2="35.257" gradientUnits="userSpaceOnUse">
<stop stop-color="#5778FF"/>
<stop offset="0.18" stop-color="#5C7DFF"/>
<stop offset="0.39" stop-color="#6A8AFF"/>
<stop offset="0.61" stop-color="#82A0FF"/>
<stop offset="0.85" stop-color="#A3BEFF"/>
<stop offset="1" stop-color="#BCD5FF"/>
</linearGradient>
<linearGradient id="paint9_linear_32_154" x1="134.762" y1="38.9571" x2="159.541" y2="38.9571" gradientUnits="userSpaceOnUse">
<stop stop-color="#5778FF"/>
<stop offset="0.18" stop-color="#5C7DFF"/>
<stop offset="0.39" stop-color="#6A8AFF"/>
<stop offset="0.61" stop-color="#82A0FF"/>
<stop offset="0.85" stop-color="#A3BEFF"/>
<stop offset="1" stop-color="#BCD5FF"/>
</linearGradient>
<linearGradient id="paint10_linear_32_154" x1="128.556" y1="81.6816" x2="134.897" y2="81.6816" gradientUnits="userSpaceOnUse">
<stop stop-color="#C0D6FF"/>
<stop offset="0.3" stop-color="#C5DBFF"/>
<stop offset="0.65" stop-color="#D3E9FF"/>
<stop offset="1" stop-color="#E9FFFF"/>
</linearGradient>
<linearGradient id="paint11_linear_32_154" x1="127.78" y1="82.3226" x2="133.03" y2="82.3226" gradientUnits="userSpaceOnUse">
<stop stop-color="#5778FF"/>
<stop offset="0.18" stop-color="#5C7DFF"/>
<stop offset="0.39" stop-color="#6A8AFF"/>
<stop offset="0.61" stop-color="#82A0FF"/>
<stop offset="0.85" stop-color="#A3BEFF"/>
<stop offset="1" stop-color="#BCD5FF"/>
</linearGradient>
<linearGradient id="paint12_linear_32_154" x1="73.2411" y1="47.6841" x2="79.5933" y2="47.6841" gradientUnits="userSpaceOnUse">
<stop stop-color="#C0D6FF"/>
<stop offset="0.3" stop-color="#C5DBFF"/>
<stop offset="0.65" stop-color="#D3E9FF"/>
<stop offset="1" stop-color="#E9FFFF"/>
</linearGradient>
<linearGradient id="paint13_linear_32_154" x1="72.4653" y1="48.3364" x2="77.7157" y2="48.3364" gradientUnits="userSpaceOnUse">
<stop stop-color="#5778FF"/>
<stop offset="0.18" stop-color="#5C7DFF"/>
<stop offset="0.39" stop-color="#6A8AFF"/>
<stop offset="0.61" stop-color="#82A0FF"/>
<stop offset="0.85" stop-color="#A3BEFF"/>
<stop offset="1" stop-color="#BCD5FF"/>
</linearGradient>
<linearGradient id="paint14_linear_32_154" x1="128.556" y1="212.611" x2="134.897" y2="212.611" gradientUnits="userSpaceOnUse">
<stop stop-color="#C0D6FF"/>
<stop offset="0.3" stop-color="#C5DBFF"/>
<stop offset="0.65" stop-color="#D3E9FF"/>
<stop offset="1" stop-color="#E9FFFF"/>
</linearGradient>
<linearGradient id="paint15_linear_32_154" x1="127.78" y1="213.263" x2="133.03" y2="213.263" gradientUnits="userSpaceOnUse">
<stop stop-color="#5778FF"/>
<stop offset="0.18" stop-color="#5C7DFF"/>
<stop offset="0.39" stop-color="#6A8AFF"/>
<stop offset="0.61" stop-color="#82A0FF"/>
<stop offset="0.85" stop-color="#A3BEFF"/>
<stop offset="1" stop-color="#BCD5FF"/>
</linearGradient>
<linearGradient id="paint16_linear_32_154" x1="73.2411" y1="178.624" x2="79.5933" y2="178.624" gradientUnits="userSpaceOnUse">
<stop stop-color="#C0D6FF"/>
<stop offset="0.3" stop-color="#C5DBFF"/>
<stop offset="0.65" stop-color="#D3E9FF"/>
<stop offset="1" stop-color="#E9FFFF"/>
</linearGradient>
<linearGradient id="paint17_linear_32_154" x1="72.4653" y1="179.265" x2="77.7157" y2="179.265" gradientUnits="userSpaceOnUse">
<stop stop-color="#5778FF"/>
<stop offset="0.18" stop-color="#5C7DFF"/>
<stop offset="0.39" stop-color="#6A8AFF"/>
<stop offset="0.61" stop-color="#82A0FF"/>
<stop offset="0.85" stop-color="#A3BEFF"/>
<stop offset="1" stop-color="#BCD5FF"/>
</linearGradient>
<linearGradient id="paint18_linear_32_154" x1="69.1937" y1="212.251" x2="63.7939" y2="289.467" gradientUnits="userSpaceOnUse">
<stop stop-color="#5778FF"/>
<stop offset="0.07" stop-color="#5489FF"/>
<stop offset="0.28" stop-color="#4EB3FF"/>
<stop offset="0.48" stop-color="#49D4FF"/>
<stop offset="0.67" stop-color="#45ECFF"/>
<stop offset="0.85" stop-color="#43FAFF"/>
<stop offset="1" stop-color="#42FFFF"/>
</linearGradient>
<linearGradient id="paint19_linear_32_154" x1="211.225" y1="212.251" x2="205.825" y2="289.467" gradientUnits="userSpaceOnUse">
<stop stop-color="#5778FF"/>
<stop offset="0.07" stop-color="#5489FF"/>
<stop offset="0.28" stop-color="#4EB3FF"/>
<stop offset="0.48" stop-color="#49D4FF"/>
<stop offset="0.67" stop-color="#45ECFF"/>
<stop offset="0.85" stop-color="#43FAFF"/>
<stop offset="1" stop-color="#42FFFF"/>
</linearGradient>
<linearGradient id="paint20_linear_32_154" x1="99.4706" y1="222.181" x2="99.4706" y2="82.9637" gradientUnits="userSpaceOnUse">
<stop stop-color="#C0D6FF"/>
<stop offset="0.3" stop-color="#C5DBFF"/>
<stop offset="0.65" stop-color="#D3E9FF"/>
<stop offset="1" stop-color="#E9FFFF"/>
</linearGradient>
<linearGradient id="paint21_linear_32_154" x1="0.5448" y1="77.8129" x2="66.4953" y2="77.8129" gradientUnits="userSpaceOnUse">
<stop stop-color="#E9FFFF"/>
<stop offset="0.04" stop-color="#D3EBFF"/>
<stop offset="0.11" stop-color="#B2CCFF"/>
<stop offset="0.18" stop-color="#96B2FF"/>
<stop offset="0.27" stop-color="#7F9DFF"/>
<stop offset="0.36" stop-color="#6D8CFF"/>
<stop offset="0.48" stop-color="#6081FF"/>
<stop offset="0.64" stop-color="#597AFF"/>
<stop offset="1" stop-color="#5778FF"/>
</linearGradient>
<linearGradient id="paint22_linear_32_154" x1="18.6345" y1="76.1372" x2="114.345" y2="76.1372" gradientUnits="userSpaceOnUse">
<stop stop-color="#C0D6FF"/>
<stop offset="0.3" stop-color="#C5DBFF"/>
<stop offset="0.65" stop-color="#D3E9FF"/>
<stop offset="1" stop-color="#E9FFFF"/>
</linearGradient>
<linearGradient id="paint23_linear_32_154" x1="96.5925" y1="102.42" x2="84.9508" y2="82.112" gradientUnits="userSpaceOnUse">
<stop stop-color="#C0D6FF"/>
<stop offset="0.3" stop-color="#C5DBFF"/>
<stop offset="0.65" stop-color="#D3E9FF"/>
<stop offset="1" stop-color="#E9FFFF"/>
</linearGradient>
<linearGradient id="paint24_linear_32_154" x1="42.5593" y1="92.7817" x2="42.5593" y2="61.787" gradientUnits="userSpaceOnUse">
<stop stop-color="#5778FF"/>
<stop offset="0.18" stop-color="#5C7DFF"/>
<stop offset="0.39" stop-color="#6A8AFF"/>
<stop offset="0.61" stop-color="#82A0FF"/>
<stop offset="0.85" stop-color="#A3BEFF"/>
<stop offset="1" stop-color="#BCD5FF"/>
</linearGradient>
<linearGradient id="paint25_linear_32_154" x1="44.4481" y1="68.8158" x2="69.2274" y2="68.8158" gradientUnits="userSpaceOnUse">
<stop stop-color="#5778FF"/>
<stop offset="0.18" stop-color="#5C7DFF"/>
<stop offset="0.39" stop-color="#6A8AFF"/>
<stop offset="0.61" stop-color="#82A0FF"/>
<stop offset="0.85" stop-color="#A3BEFF"/>
<stop offset="1" stop-color="#BCD5FF"/>
</linearGradient>
<linearGradient id="paint26_linear_32_154" x1="50.879" y1="72.5159" x2="75.6695" y2="72.5159" gradientUnits="userSpaceOnUse">
<stop stop-color="#5778FF"/>
<stop offset="0.18" stop-color="#5C7DFF"/>
<stop offset="0.39" stop-color="#6A8AFF"/>
<stop offset="0.61" stop-color="#82A0FF"/>
<stop offset="0.85" stop-color="#A3BEFF"/>
<stop offset="1" stop-color="#BCD5FF"/>
</linearGradient>
<linearGradient id="paint27_linear_32_154" x1="57.3099" y1="76.216" x2="82.1004" y2="76.216" gradientUnits="userSpaceOnUse">
<stop stop-color="#5778FF"/>
<stop offset="0.18" stop-color="#5C7DFF"/>
<stop offset="0.39" stop-color="#6A8AFF"/>
<stop offset="0.61" stop-color="#82A0FF"/>
<stop offset="0.85" stop-color="#A3BEFF"/>
<stop offset="1" stop-color="#BCD5FF"/>
</linearGradient>
<linearGradient id="paint28_linear_32_154" x1="63.7521" y1="79.9272" x2="88.5313" y2="79.9272" gradientUnits="userSpaceOnUse">
<stop stop-color="#5778FF"/>
<stop offset="0.18" stop-color="#5C7DFF"/>
<stop offset="0.39" stop-color="#6A8AFF"/>
<stop offset="0.61" stop-color="#82A0FF"/>
<stop offset="0.85" stop-color="#A3BEFF"/>
<stop offset="1" stop-color="#BCD5FF"/>
</linearGradient>
<linearGradient id="paint29_linear_32_154" x1="57.5348" y1="122.652" x2="63.887" y2="122.652" gradientUnits="userSpaceOnUse">
<stop stop-color="#C0D6FF"/>
<stop offset="0.3" stop-color="#C5DBFF"/>
<stop offset="0.65" stop-color="#D3E9FF"/>
<stop offset="1" stop-color="#E9FFFF"/>
</linearGradient>
<linearGradient id="paint30_linear_32_154" x1="56.7703" y1="123.293" x2="62.0094" y2="123.293" gradientUnits="userSpaceOnUse">
<stop stop-color="#5778FF"/>
<stop offset="0.18" stop-color="#5C7DFF"/>
<stop offset="0.39" stop-color="#6A8AFF"/>
<stop offset="0.61" stop-color="#82A0FF"/>
<stop offset="0.85" stop-color="#A3BEFF"/>
<stop offset="1" stop-color="#BCD5FF"/>
</linearGradient>
<linearGradient id="paint31_linear_32_154" x1="2.23132" y1="88.6542" x2="8.57227" y2="88.6542" gradientUnits="userSpaceOnUse">
<stop stop-color="#C0D6FF"/>
<stop offset="0.3" stop-color="#C5DBFF"/>
<stop offset="0.65" stop-color="#D3E9FF"/>
<stop offset="1" stop-color="#E9FFFF"/>
</linearGradient>
<linearGradient id="paint32_linear_32_154" x1="1.45557" y1="89.2953" x2="6.70596" y2="89.2953" gradientUnits="userSpaceOnUse">
<stop stop-color="#5778FF"/>
<stop offset="0.18" stop-color="#5C7DFF"/>
<stop offset="0.39" stop-color="#6A8AFF"/>
<stop offset="0.61" stop-color="#82A0FF"/>
<stop offset="0.85" stop-color="#A3BEFF"/>
<stop offset="1" stop-color="#BCD5FF"/>
</linearGradient>
<linearGradient id="paint33_linear_32_154" x1="57.5348" y1="253.581" x2="63.887" y2="253.581" gradientUnits="userSpaceOnUse">
<stop stop-color="#C0D6FF"/>
<stop offset="0.3" stop-color="#C5DBFF"/>
<stop offset="0.65" stop-color="#D3E9FF"/>
<stop offset="1" stop-color="#E9FFFF"/>
</linearGradient>
<linearGradient id="paint34_linear_32_154" x1="56.7703" y1="254.233" x2="62.0094" y2="254.233" gradientUnits="userSpaceOnUse">
<stop stop-color="#5778FF"/>
<stop offset="0.18" stop-color="#5C7DFF"/>
<stop offset="0.39" stop-color="#6A8AFF"/>
<stop offset="0.61" stop-color="#82A0FF"/>
<stop offset="0.85" stop-color="#A3BEFF"/>
<stop offset="1" stop-color="#BCD5FF"/>
</linearGradient>
<linearGradient id="paint35_linear_32_154" x1="2.23132" y1="219.583" x2="8.57227" y2="219.583" gradientUnits="userSpaceOnUse">
<stop stop-color="#C0D6FF"/>
<stop offset="0.3" stop-color="#C5DBFF"/>
<stop offset="0.65" stop-color="#D3E9FF"/>
<stop offset="1" stop-color="#E9FFFF"/>
</linearGradient>
<linearGradient id="paint36_linear_32_154" x1="1.45557" y1="220.236" x2="6.70596" y2="220.236" gradientUnits="userSpaceOnUse">
<stop stop-color="#5778FF"/>
<stop offset="0.18" stop-color="#5C7DFF"/>
<stop offset="0.39" stop-color="#6A8AFF"/>
<stop offset="0.61" stop-color="#82A0FF"/>
<stop offset="0.85" stop-color="#A3BEFF"/>
<stop offset="1" stop-color="#BCD5FF"/>
</linearGradient>
<linearGradient id="paint37_linear_32_154" x1="241.502" y1="222.181" x2="241.502" y2="82.9637" gradientUnits="userSpaceOnUse">
<stop stop-color="#C0D6FF"/>
<stop offset="0.3" stop-color="#C5DBFF"/>
<stop offset="0.65" stop-color="#D3E9FF"/>
<stop offset="1" stop-color="#E9FFFF"/>
</linearGradient>
<linearGradient id="paint38_linear_32_154" x1="142.576" y1="77.8129" x2="208.526" y2="77.8129" gradientUnits="userSpaceOnUse">
<stop stop-color="#E9FFFF"/>
<stop offset="0.04" stop-color="#D3EBFF"/>
<stop offset="0.11" stop-color="#B2CCFF"/>
<stop offset="0.18" stop-color="#96B2FF"/>
<stop offset="0.27" stop-color="#7F9DFF"/>
<stop offset="0.36" stop-color="#6D8CFF"/>
<stop offset="0.48" stop-color="#6081FF"/>
<stop offset="0.64" stop-color="#597AFF"/>
<stop offset="1" stop-color="#5778FF"/>
</linearGradient>
<linearGradient id="paint39_linear_32_154" x1="160.665" y1="76.1372" x2="256.376" y2="76.1372" gradientUnits="userSpaceOnUse">
<stop stop-color="#C0D6FF"/>
<stop offset="0.3" stop-color="#C5DBFF"/>
<stop offset="0.65" stop-color="#D3E9FF"/>
<stop offset="1" stop-color="#E9FFFF"/>
</linearGradient>
<linearGradient id="paint40_linear_32_154" x1="238.623" y1="102.42" x2="226.982" y2="82.112" gradientUnits="userSpaceOnUse">
<stop stop-color="#C0D6FF"/>
<stop offset="0.3" stop-color="#C5DBFF"/>
<stop offset="0.65" stop-color="#D3E9FF"/>
<stop offset="1" stop-color="#E9FFFF"/>
</linearGradient>
<linearGradient id="paint41_linear_32_154" x1="184.601" y1="92.7817" x2="184.601" y2="61.787" gradientUnits="userSpaceOnUse">
<stop stop-color="#5778FF"/>
<stop offset="0.18" stop-color="#5C7DFF"/>
<stop offset="0.39" stop-color="#6A8AFF"/>
<stop offset="0.61" stop-color="#82A0FF"/>
<stop offset="0.85" stop-color="#A3BEFF"/>
<stop offset="1" stop-color="#BCD5FF"/>
</linearGradient>
<linearGradient id="paint42_linear_32_154" x1="186.479" y1="68.8158" x2="211.258" y2="68.8158" gradientUnits="userSpaceOnUse">
<stop stop-color="#5778FF"/>
<stop offset="0.18" stop-color="#5C7DFF"/>
<stop offset="0.39" stop-color="#6A8AFF"/>
<stop offset="0.61" stop-color="#82A0FF"/>
<stop offset="0.85" stop-color="#A3BEFF"/>
<stop offset="1" stop-color="#BCD5FF"/>
</linearGradient>
<linearGradient id="paint43_linear_32_154" x1="192.91" y1="72.5159" x2="217.7" y2="72.5159" gradientUnits="userSpaceOnUse">
<stop stop-color="#5778FF"/>
<stop offset="0.18" stop-color="#5C7DFF"/>
<stop offset="0.39" stop-color="#6A8AFF"/>
<stop offset="0.61" stop-color="#82A0FF"/>
<stop offset="0.85" stop-color="#A3BEFF"/>
<stop offset="1" stop-color="#BCD5FF"/>
</linearGradient>
<linearGradient id="paint44_linear_32_154" x1="199.352" y1="76.216" x2="224.131" y2="76.216" gradientUnits="userSpaceOnUse">
<stop stop-color="#5778FF"/>
<stop offset="0.18" stop-color="#5C7DFF"/>
<stop offset="0.39" stop-color="#6A8AFF"/>
<stop offset="0.61" stop-color="#82A0FF"/>
<stop offset="0.85" stop-color="#A3BEFF"/>
<stop offset="1" stop-color="#BCD5FF"/>
</linearGradient>
<linearGradient id="paint45_linear_32_154" x1="205.783" y1="79.9272" x2="230.562" y2="79.9272" gradientUnits="userSpaceOnUse">
<stop stop-color="#5778FF"/>
<stop offset="0.18" stop-color="#5C7DFF"/>
<stop offset="0.39" stop-color="#6A8AFF"/>
<stop offset="0.61" stop-color="#82A0FF"/>
<stop offset="0.85" stop-color="#A3BEFF"/>
<stop offset="1" stop-color="#BCD5FF"/>
</linearGradient>
<linearGradient id="paint46_linear_32_154" x1="199.566" y1="122.652" x2="205.918" y2="122.652" gradientUnits="userSpaceOnUse">
<stop stop-color="#C0D6FF"/>
<stop offset="0.3" stop-color="#C5DBFF"/>
<stop offset="0.65" stop-color="#D3E9FF"/>
<stop offset="1" stop-color="#E9FFFF"/>
</linearGradient>
<linearGradient id="paint47_linear_32_154" x1="198.801" y1="123.293" x2="204.04" y2="123.293" gradientUnits="userSpaceOnUse">
<stop stop-color="#5778FF"/>
<stop offset="0.18" stop-color="#5C7DFF"/>
<stop offset="0.39" stop-color="#6A8AFF"/>
<stop offset="0.61" stop-color="#82A0FF"/>
<stop offset="0.85" stop-color="#A3BEFF"/>
<stop offset="1" stop-color="#BCD5FF"/>
</linearGradient>
<linearGradient id="paint48_linear_32_154" x1="144.262" y1="88.6542" x2="150.603" y2="88.6542" gradientUnits="userSpaceOnUse">
<stop stop-color="#C0D6FF"/>
<stop offset="0.3" stop-color="#C5DBFF"/>
<stop offset="0.65" stop-color="#D3E9FF"/>
<stop offset="1" stop-color="#E9FFFF"/>
</linearGradient>
<linearGradient id="paint49_linear_32_154" x1="143.486" y1="89.2953" x2="148.737" y2="89.2953" gradientUnits="userSpaceOnUse">
<stop stop-color="#5778FF"/>
<stop offset="0.18" stop-color="#5C7DFF"/>
<stop offset="0.39" stop-color="#6A8AFF"/>
<stop offset="0.61" stop-color="#82A0FF"/>
<stop offset="0.85" stop-color="#A3BEFF"/>
<stop offset="1" stop-color="#BCD5FF"/>
</linearGradient>
<linearGradient id="paint50_linear_32_154" x1="199.566" y1="253.581" x2="205.918" y2="253.581" gradientUnits="userSpaceOnUse">
<stop stop-color="#C0D6FF"/>
<stop offset="0.3" stop-color="#C5DBFF"/>
<stop offset="0.65" stop-color="#D3E9FF"/>
<stop offset="1" stop-color="#E9FFFF"/>
</linearGradient>
<linearGradient id="paint51_linear_32_154" x1="198.801" y1="254.233" x2="204.04" y2="254.233" gradientUnits="userSpaceOnUse">
<stop stop-color="#5778FF"/>
<stop offset="0.18" stop-color="#5C7DFF"/>
<stop offset="0.39" stop-color="#6A8AFF"/>
<stop offset="0.61" stop-color="#82A0FF"/>
<stop offset="0.85" stop-color="#A3BEFF"/>
<stop offset="1" stop-color="#BCD5FF"/>
</linearGradient>
<linearGradient id="paint52_linear_32_154" x1="144.262" y1="219.583" x2="150.603" y2="219.583" gradientUnits="userSpaceOnUse">
<stop stop-color="#C0D6FF"/>
<stop offset="0.3" stop-color="#C5DBFF"/>
<stop offset="0.65" stop-color="#D3E9FF"/>
<stop offset="1" stop-color="#E9FFFF"/>
</linearGradient>
<linearGradient id="paint53_linear_32_154" x1="143.486" y1="220.236" x2="148.737" y2="220.236" gradientUnits="userSpaceOnUse">
<stop stop-color="#5778FF"/>
<stop offset="0.18" stop-color="#5C7DFF"/>
<stop offset="0.39" stop-color="#6A8AFF"/>
<stop offset="0.61" stop-color="#82A0FF"/>
<stop offset="0.85" stop-color="#A3BEFF"/>
<stop offset="1" stop-color="#BCD5FF"/>
</linearGradient>
<linearGradient id="paint54_linear_32_154" x1="140.215" y1="253.592" x2="134.804" y2="330.809" gradientUnits="userSpaceOnUse">
<stop stop-color="#5778FF"/>
<stop offset="0.07" stop-color="#5489FF"/>
<stop offset="0.28" stop-color="#4EB3FF"/>
<stop offset="0.48" stop-color="#49D4FF"/>
<stop offset="0.67" stop-color="#45ECFF"/>
<stop offset="0.85" stop-color="#43FAFF"/>
<stop offset="1" stop-color="#42FFFF"/>
</linearGradient>
<linearGradient id="paint55_linear_32_154" x1="170.48" y1="262.567" x2="170.48" y2="123.349" gradientUnits="userSpaceOnUse">
<stop stop-color="#C0D6FF"/>
<stop offset="0.3" stop-color="#C5DBFF"/>
<stop offset="0.65" stop-color="#D3E9FF"/>
<stop offset="1" stop-color="#E9FFFF"/>
</linearGradient>
<linearGradient id="paint56_linear_32_154" x1="71.5547" y1="118.198" x2="137.505" y2="118.198" gradientUnits="userSpaceOnUse">
<stop stop-color="#E9FFFF"/>
<stop offset="0.04" stop-color="#D3EBFF"/>
<stop offset="0.11" stop-color="#B2CCFF"/>
<stop offset="0.18" stop-color="#96B2FF"/>
<stop offset="0.27" stop-color="#7F9DFF"/>
<stop offset="0.36" stop-color="#6D8CFF"/>
<stop offset="0.48" stop-color="#6081FF"/>
<stop offset="0.64" stop-color="#597AFF"/>
<stop offset="1" stop-color="#5778FF"/>
</linearGradient>
<linearGradient id="paint57_linear_32_154" x1="89.6556" y1="116.523" x2="185.355" y2="116.523" gradientUnits="userSpaceOnUse">
<stop stop-color="#C0D6FF"/>
<stop offset="0.3" stop-color="#C5DBFF"/>
<stop offset="0.65" stop-color="#D3E9FF"/>
<stop offset="1" stop-color="#E9FFFF"/>
</linearGradient>
<linearGradient id="paint58_linear_32_154" x1="167.613" y1="142.805" x2="155.972" y2="122.497" gradientUnits="userSpaceOnUse">
<stop stop-color="#C0D6FF"/>
<stop offset="0.3" stop-color="#C5DBFF"/>
<stop offset="0.65" stop-color="#D3E9FF"/>
<stop offset="1" stop-color="#E9FFFF"/>
</linearGradient>
<linearGradient id="paint59_linear_32_154" x1="113.58" y1="133.167" x2="113.58" y2="102.172" gradientUnits="userSpaceOnUse">
<stop stop-color="#5778FF"/>
<stop offset="0.18" stop-color="#5C7DFF"/>
<stop offset="0.39" stop-color="#6A8AFF"/>
<stop offset="0.61" stop-color="#82A0FF"/>
<stop offset="0.85" stop-color="#A3BEFF"/>
<stop offset="1" stop-color="#BCD5FF"/>
</linearGradient>
<linearGradient id="paint60_linear_32_154" x1="115.469" y1="109.201" x2="140.248" y2="109.201" gradientUnits="userSpaceOnUse">
<stop stop-color="#5778FF"/>
<stop offset="0.18" stop-color="#5C7DFF"/>
<stop offset="0.39" stop-color="#6A8AFF"/>
<stop offset="0.61" stop-color="#82A0FF"/>
<stop offset="0.85" stop-color="#A3BEFF"/>
<stop offset="1" stop-color="#BCD5FF"/>
</linearGradient>
<linearGradient id="paint61_linear_32_154" x1="121.9" y1="112.901" x2="146.679" y2="112.901" gradientUnits="userSpaceOnUse">
<stop stop-color="#5778FF"/>
<stop offset="0.18" stop-color="#5C7DFF"/>
<stop offset="0.39" stop-color="#6A8AFF"/>
<stop offset="0.61" stop-color="#82A0FF"/>
<stop offset="0.85" stop-color="#A3BEFF"/>
<stop offset="1" stop-color="#BCD5FF"/>
</linearGradient>
<linearGradient id="paint62_linear_32_154" x1="128.331" y1="116.601" x2="153.11" y2="116.601" gradientUnits="userSpaceOnUse">
<stop stop-color="#5778FF"/>
<stop offset="0.18" stop-color="#5C7DFF"/>
<stop offset="0.39" stop-color="#6A8AFF"/>
<stop offset="0.61" stop-color="#82A0FF"/>
<stop offset="0.85" stop-color="#A3BEFF"/>
<stop offset="1" stop-color="#BCD5FF"/>
</linearGradient>
<linearGradient id="paint63_linear_32_154" x1="134.762" y1="120.313" x2="159.541" y2="120.313" gradientUnits="userSpaceOnUse">
<stop stop-color="#5778FF"/>
<stop offset="0.18" stop-color="#5C7DFF"/>
<stop offset="0.39" stop-color="#6A8AFF"/>
<stop offset="0.61" stop-color="#82A0FF"/>
<stop offset="0.85" stop-color="#A3BEFF"/>
<stop offset="1" stop-color="#BCD5FF"/>
</linearGradient>
<linearGradient id="paint64_linear_32_154" x1="128.556" y1="163.037" x2="134.897" y2="163.037" gradientUnits="userSpaceOnUse">
<stop stop-color="#C0D6FF"/>
<stop offset="0.3" stop-color="#C5DBFF"/>
<stop offset="0.65" stop-color="#D3E9FF"/>
<stop offset="1" stop-color="#E9FFFF"/>
</linearGradient>
<linearGradient id="paint65_linear_32_154" x1="127.78" y1="163.678" x2="133.03" y2="163.678" gradientUnits="userSpaceOnUse">
<stop stop-color="#5778FF"/>
<stop offset="0.18" stop-color="#5C7DFF"/>
<stop offset="0.39" stop-color="#6A8AFF"/>
<stop offset="0.61" stop-color="#82A0FF"/>
<stop offset="0.85" stop-color="#A3BEFF"/>
<stop offset="1" stop-color="#BCD5FF"/>
</linearGradient>
<linearGradient id="paint66_linear_32_154" x1="73.2411" y1="129.04" x2="79.5933" y2="129.04" gradientUnits="userSpaceOnUse">
<stop stop-color="#C0D6FF"/>
<stop offset="0.3" stop-color="#C5DBFF"/>
<stop offset="0.65" stop-color="#D3E9FF"/>
<stop offset="1" stop-color="#E9FFFF"/>
</linearGradient>
<linearGradient id="paint67_linear_32_154" x1="72.4653" y1="129.681" x2="77.7157" y2="129.681" gradientUnits="userSpaceOnUse">
<stop stop-color="#5778FF"/>
<stop offset="0.18" stop-color="#5C7DFF"/>
<stop offset="0.39" stop-color="#6A8AFF"/>
<stop offset="0.61" stop-color="#82A0FF"/>
<stop offset="0.85" stop-color="#A3BEFF"/>
<stop offset="1" stop-color="#BCD5FF"/>
</linearGradient>
<linearGradient id="paint68_linear_32_154" x1="128.556" y1="293.966" x2="134.897" y2="293.966" gradientUnits="userSpaceOnUse">
<stop stop-color="#C0D6FF"/>
<stop offset="0.3" stop-color="#C5DBFF"/>
<stop offset="0.65" stop-color="#D3E9FF"/>
<stop offset="1" stop-color="#E9FFFF"/>
</linearGradient>
<linearGradient id="paint69_linear_32_154" x1="127.78" y1="294.618" x2="133.03" y2="294.618" gradientUnits="userSpaceOnUse">
<stop stop-color="#5778FF"/>
<stop offset="0.18" stop-color="#5C7DFF"/>
<stop offset="0.39" stop-color="#6A8AFF"/>
<stop offset="0.61" stop-color="#82A0FF"/>
<stop offset="0.85" stop-color="#A3BEFF"/>
<stop offset="1" stop-color="#BCD5FF"/>
</linearGradient>
<linearGradient id="paint70_linear_32_154" x1="73.2411" y1="259.969" x2="79.5933" y2="259.969" gradientUnits="userSpaceOnUse">
<stop stop-color="#C0D6FF"/>
<stop offset="0.3" stop-color="#C5DBFF"/>
<stop offset="0.65" stop-color="#D3E9FF"/>
<stop offset="1" stop-color="#E9FFFF"/>
</linearGradient>
<linearGradient id="paint71_linear_32_154" x1="72.4653" y1="260.621" x2="77.7157" y2="260.621" gradientUnits="userSpaceOnUse">
<stop stop-color="#5778FF"/>
<stop offset="0.18" stop-color="#5C7DFF"/>
<stop offset="0.39" stop-color="#6A8AFF"/>
<stop offset="0.61" stop-color="#82A0FF"/>
<stop offset="0.85" stop-color="#A3BEFF"/>
<stop offset="1" stop-color="#BCD5FF"/>
</linearGradient>
<radialGradient id="paint72_radial_32_154" cx="0" cy="0" r="1" gradientUnits="userSpaceOnUse" gradientTransform="translate(90.3905 192.601) scale(16.7181 16.7232)">
<stop stop-color="#42FFFF"/>
<stop offset="0.08" stop-color="#3FEAF6"/>
<stop offset="0.42" stop-color="#3497D4"/>
<stop offset="0.69" stop-color="#2C59BB"/>
<stop offset="0.89" stop-color="#2733AB"/>
<stop offset="1" stop-color="#2525A5"/>
</radialGradient>
<radialGradient id="paint73_radial_32_154" cx="0" cy="0" r="1" gradientUnits="userSpaceOnUse" gradientTransform="translate(90.3903 192.601) scale(14.5145 14.5189)">
<stop stop-color="#42FFFF"/>
<stop offset="0.08" stop-color="#3FEAF6"/>
<stop offset="0.42" stop-color="#3497D4"/>
<stop offset="0.69" stop-color="#2C59BB"/>
<stop offset="0.89" stop-color="#2733AB"/>
<stop offset="1" stop-color="#2525A5"/>
</radialGradient>
<radialGradient id="paint74_radial_32_154" cx="0" cy="0" r="1" gradientUnits="userSpaceOnUse" gradientTransform="translate(90.3905 192.601) scale(11.344 11.3475)">
<stop stop-color="#42FFFF"/>
<stop offset="0.08" stop-color="#3FEAF6"/>
<stop offset="0.42" stop-color="#3497D4"/>
<stop offset="0.69" stop-color="#2C59BB"/>
<stop offset="0.89" stop-color="#2733AB"/>
<stop offset="1" stop-color="#2525A5"/>
</radialGradient>
<radialGradient id="paint75_radial_32_154" cx="0" cy="0" r="1" gradientUnits="userSpaceOnUse" gradientTransform="translate(90.4201 192.604) scale(8.1623 8.16479)">
<stop stop-color="#42FFFF"/>
<stop offset="0.08" stop-color="#3FEAF6"/>
<stop offset="0.42" stop-color="#3497D4"/>
<stop offset="0.69" stop-color="#2C59BB"/>
<stop offset="0.89" stop-color="#2733AB"/>
<stop offset="1" stop-color="#2525A5"/>
</radialGradient>
<radialGradient id="paint76_radial_32_154" cx="0" cy="0" r="1" gradientUnits="userSpaceOnUse" gradientTransform="translate(90.4202 192.592) scale(4.35098 4.35231)">
<stop stop-color="#42FFFF"/>
<stop offset="0.08" stop-color="#3FEAF6"/>
<stop offset="0.42" stop-color="#3497D4"/>
<stop offset="0.69" stop-color="#2C59BB"/>
<stop offset="0.89" stop-color="#2733AB"/>
<stop offset="1" stop-color="#2525A5"/>
</radialGradient>
<linearGradient id="paint77_linear_32_154" x1="105.326" y1="185.23" x2="88.6982" y2="192.622" gradientUnits="userSpaceOnUse">
<stop stop-color="#42FFFF"/>
<stop offset="0.15" stop-color="#43FAFF"/>
<stop offset="0.33" stop-color="#45ECFF"/>
<stop offset="0.52" stop-color="#49D4FF"/>
<stop offset="0.72" stop-color="#4EB3FF"/>
<stop offset="0.93" stop-color="#5489FF"/>
<stop offset="1" stop-color="#5778FF"/>
</linearGradient>
<radialGradient id="paint78_radial_32_154" cx="0" cy="0" r="1" gradientUnits="userSpaceOnUse" gradientTransform="translate(90.3904 192.601) scale(12.6145 12.6183)">
<stop stop-color="#42FFFF"/>
<stop offset="0.08" stop-color="#3FEAF6"/>
<stop offset="0.42" stop-color="#3497D4"/>
<stop offset="0.69" stop-color="#2C59BB"/>
<stop offset="0.89" stop-color="#2733AB"/>
<stop offset="1" stop-color="#2525A5"/>
</radialGradient>
<radialGradient id="paint79_radial_32_154" cx="0" cy="0" r="1" gradientUnits="userSpaceOnUse" gradientTransform="translate(90.3905 192.601) scale(10.9618 10.9651)">
<stop stop-color="#42FFFF"/>
<stop offset="0.08" stop-color="#3FEAF6"/>
<stop offset="0.42" stop-color="#3497D4"/>
<stop offset="0.69" stop-color="#2C59BB"/>
<stop offset="0.89" stop-color="#2733AB"/>
<stop offset="1" stop-color="#2525A5"/>
</radialGradient>
<radialGradient id="paint80_radial_32_154" cx="0" cy="0" r="1" gradientUnits="userSpaceOnUse" gradientTransform="translate(90.3904 192.601) scale(8.55581 8.55841)">
<stop stop-color="#42FFFF"/>
<stop offset="0.08" stop-color="#3FEAF6"/>
<stop offset="0.42" stop-color="#3497D4"/>
<stop offset="0.69" stop-color="#2C59BB"/>
<stop offset="0.89" stop-color="#2733AB"/>
<stop offset="1" stop-color="#2525A5"/>
</radialGradient>
<radialGradient id="paint81_radial_32_154" cx="0" cy="0" r="1" gradientUnits="userSpaceOnUse" gradientTransform="translate(90.4201 192.604) scale(6.16108 6.16296)">
<stop stop-color="#42FFFF"/>
<stop offset="0.08" stop-color="#3FEAF6"/>
<stop offset="0.42" stop-color="#3497D4"/>
<stop offset="0.69" stop-color="#2C59BB"/>
<stop offset="0.89" stop-color="#2733AB"/>
<stop offset="1" stop-color="#2525A5"/>
</radialGradient>
<radialGradient id="paint82_radial_32_154" cx="0" cy="0" r="1" gradientUnits="userSpaceOnUse" gradientTransform="translate(90.4201 192.592) scale(3.28291 3.2839)">
<stop stop-color="#42FFFF"/>
<stop offset="0.08" stop-color="#3FEAF6"/>
<stop offset="0.42" stop-color="#3497D4"/>
<stop offset="0.69" stop-color="#2C59BB"/>
<stop offset="0.89" stop-color="#2733AB"/>
<stop offset="1" stop-color="#2525A5"/>
</radialGradient>
<linearGradient id="paint83_linear_32_154" x1="32.4626" y1="183.887" x2="5.51095" y2="195.873" gradientUnits="userSpaceOnUse">
<stop stop-color="#42FFFF"/>
<stop offset="0.15" stop-color="#43FAFF"/>
<stop offset="0.33" stop-color="#45ECFF"/>
<stop offset="0.52" stop-color="#49D4FF"/>
<stop offset="0.72" stop-color="#4EB3FF"/>
<stop offset="0.93" stop-color="#5489FF"/>
<stop offset="1" stop-color="#5778FF"/>
</linearGradient>
<clipPath id="clip0_32_154">
<rect width="275" height="331" fill="white"/>
</clipPath>
</defs>
</svg>
