<svg width="333" height="287" viewBox="0 0 333 287" fill="none" xmlns="http://www.w3.org/2000/svg">
<g clip-path="url(#clip0_32_404)">
<g opacity="0.3">
<path d="M95.6701 53.62L86.3101 40.97L93.9501 176.7L122.44 181.11L143.31 49.79L95.6701 53.62Z" fill="url(#paint0_linear_32_404)"/>
<path d="M86.3101 40.97L107.17 28.93L135.67 33.33L143.31 49.79L122.44 61.83L93.9501 57.43L86.3101 40.97Z" fill="url(#paint1_linear_32_404)"/>
<path d="M86.8701 40.65L94.2201 56.48L122.71 60.89L143.02 49.16L143.31 49.79L122.44 61.83L93.9501 57.43L86.3101 40.97L86.8701 40.65Z" fill="white"/>
<path d="M93.9501 57.43V176.7L122.44 181.11V61.83L93.9501 57.43Z" fill="url(#paint2_linear_32_404)"/>
<path d="M86.3101 40.97V160.24L93.9501 176.7V57.43L86.3101 40.97Z" fill="url(#paint3_linear_32_404)"/>
<path d="M143.31 49.79V169.06L122.44 181.11V61.83L143.31 49.79Z" fill="url(#paint4_linear_32_404)"/>
<path d="M140.55 99.64L131.19 87L138.83 201.18L167.33 205.59L188.19 95.81L140.55 99.64Z" fill="url(#paint5_linear_32_404)"/>
<path d="M131.19 87L152.05 74.95L180.55 79.36L188.19 95.81L167.33 107.86L138.83 103.45L131.19 87Z" fill="url(#paint6_linear_32_404)"/>
<path d="M131.75 86.67L139.1 102.5L167.6 106.91L187.9 95.19L188.19 95.81L167.33 107.86L138.83 103.45L131.19 87L131.75 86.67Z" fill="white"/>
<path d="M138.83 103.45V201.18L167.33 205.59V107.86L138.83 103.45Z" fill="url(#paint7_linear_32_404)"/>
<path d="M131.19 87V184.73L138.83 201.18V103.45L131.19 87Z" fill="url(#paint8_linear_32_404)"/>
<path d="M188.19 95.81V193.54L167.33 205.59V107.86L188.19 95.81Z" fill="url(#paint9_linear_32_404)"/>
<path d="M185.44 148.51L176.07 135.86L183.71 227.62L212.21 232.03L233.07 144.68L185.44 148.51Z" fill="url(#paint10_linear_32_404)"/>
<path d="M176.07 135.86L196.94 123.81L225.44 128.22L233.07 144.68L212.21 156.72L183.71 152.31L176.07 135.86Z" fill="url(#paint11_linear_32_404)"/>
<path d="M176.63 135.54L183.98 151.37L212.48 155.78L232.78 144.05L233.07 144.68L212.21 156.72L183.71 152.31L176.07 135.86L176.63 135.54Z" fill="white"/>
<path d="M183.71 152.31V227.62L212.21 232.03V156.72L183.71 152.31Z" fill="url(#paint12_linear_32_404)"/>
<path d="M176.07 135.86V211.16L183.71 227.62V152.31L176.07 135.86Z" fill="url(#paint13_linear_32_404)"/>
<path d="M233.07 144.68V219.98L212.21 232.03V156.72L233.07 144.68Z" fill="url(#paint14_linear_32_404)"/>
<path d="M230.32 183.65L220.95 171L228.59 254.05L257.09 258.46L277.95 179.82L230.32 183.65Z" fill="url(#paint15_linear_32_404)"/>
<path d="M220.95 171L241.82 158.95L270.32 163.36L277.95 179.82L257.09 191.86L228.59 187.45L220.95 171Z" fill="url(#paint16_linear_32_404)"/>
<path d="M221.51 170.68L228.86 186.5L257.36 190.91L277.66 179.19L277.95 179.82L257.09 191.86L228.59 187.45L220.95 171L221.51 170.68Z" fill="white"/>
<path d="M228.59 187.45V254.05L257.09 258.46V191.86L228.59 187.45Z" fill="url(#paint17_linear_32_404)"/>
<path d="M220.95 171V237.6L228.59 254.05V187.45L220.95 171Z" fill="url(#paint18_linear_32_404)"/>
<path d="M277.95 179.82V246.42L257.09 258.46V191.86L277.95 179.82Z" fill="url(#paint19_linear_32_404)"/>
<path d="M275.2 226.54L265.83 213.89L273.47 280.49L301.97 284.9L322.83 222.71L275.2 226.54Z" fill="url(#paint20_linear_32_404)"/>
<path d="M265.83 213.89L286.7 201.84L315.2 206.25L322.83 222.71L301.97 234.75L273.47 230.34L265.83 213.89Z" fill="url(#paint21_linear_32_404)"/>
<path d="M266.39 213.57L273.74 229.4L302.24 233.81L322.54 222.08L322.83 222.71L301.97 234.75L273.47 230.34L265.83 213.89L266.39 213.57Z" fill="white"/>
<path d="M273.47 230.34V280.49L301.97 284.9V234.75L273.47 230.34Z" fill="url(#paint22_linear_32_404)"/>
<path d="M265.83 213.89V264.04L273.47 280.49V230.34L265.83 213.89Z" fill="url(#paint23_linear_32_404)"/>
<path d="M322.83 222.71V272.85L301.97 284.9V234.75L322.83 222.71Z" fill="url(#paint24_linear_32_404)"/>
</g>
<path d="M95.6701 24.69L86.3101 12.04L93.9501 124.95L122.44 129.36L143.31 20.86L95.6701 24.69Z" fill="url(#paint25_linear_32_404)"/>
<path d="M86.3101 12.04L107.17 0L135.67 4.41L143.31 20.86L122.44 32.91L93.9501 28.5L86.3101 12.04Z" fill="url(#paint26_linear_32_404)"/>
<path d="M86.8701 11.72L94.2201 27.55L122.71 31.96L143.02 20.24L143.31 20.86L122.44 32.91L93.9501 28.5L86.3101 12.04L86.8701 11.72Z" fill="white"/>
<path d="M93.95 28.5V124.95L122.44 129.36V32.91L93.95 28.5Z" fill="url(#paint27_linear_32_404)"/>
<path d="M86.3101 12.04V108.5L93.9501 124.95V28.5L86.3101 12.04Z" fill="url(#paint28_linear_32_404)"/>
<path d="M143.31 20.86V117.32L122.44 129.36V32.91L143.31 20.86Z" fill="url(#paint29_linear_32_404)"/>
<path d="M140.55 70.72L131.19 58.07L138.83 151.39L167.33 155.8L188.19 66.89L140.55 70.72Z" fill="url(#paint30_linear_32_404)"/>
<path d="M131.19 58.07L152.05 46.02L180.55 50.43L188.19 66.89L167.33 78.93L138.83 74.52L131.19 58.07Z" fill="url(#paint31_linear_32_404)"/>
<path d="M131.75 57.75L139.1 73.58L167.6 77.98L187.9 66.26L188.19 66.89L167.33 78.93L138.83 74.52L131.19 58.07L131.75 57.75Z" fill="white"/>
<path d="M138.83 74.52V151.39L167.33 155.8V78.93L138.83 74.52Z" fill="url(#paint32_linear_32_404)"/>
<path d="M131.19 58.07V134.94L138.83 151.39V74.52L131.19 58.07Z" fill="url(#paint33_linear_32_404)"/>
<path d="M188.19 66.89V143.75L167.33 155.8V78.93L188.19 66.89Z" fill="url(#paint34_linear_32_404)"/>
<path d="M185.44 119.58L176.07 106.94L183.71 177.83L212.21 182.24L233.07 115.75L185.44 119.58Z" fill="url(#paint35_linear_32_404)"/>
<path d="M176.07 106.94L196.94 94.89L225.44 99.3L233.07 115.75L212.21 127.8L183.71 123.39L176.07 106.94Z" fill="url(#paint36_linear_32_404)"/>
<path d="M176.63 106.61L183.98 122.44L212.48 126.85L232.78 115.13L233.07 115.75L212.21 127.8L183.71 123.39L176.07 106.93L176.63 106.61Z" fill="white"/>
<path d="M183.71 123.39V177.83L212.21 182.24V127.8L183.71 123.39Z" fill="url(#paint37_linear_32_404)"/>
<path d="M176.07 106.94V161.37L183.71 177.83V123.39L176.07 106.94Z" fill="url(#paint38_linear_32_404)"/>
<path d="M233.07 115.75V170.19L212.21 182.24V127.8L233.07 115.75Z" fill="url(#paint39_linear_32_404)"/>
<path d="M230.32 154.72L220.95 142.07L228.59 204.27L257.09 208.67L277.95 150.89L230.32 154.72Z" fill="url(#paint40_linear_32_404)"/>
<path d="M220.95 142.07L241.82 130.03L270.32 134.44L277.95 150.89L257.09 162.94L228.59 158.53L220.95 142.07Z" fill="url(#paint41_linear_32_404)"/>
<path opacity="0.3" d="M230.32 143.52L244.33 135.44L263.46 138.4L268.58 149.44L254.58 157.53L235.45 154.57L230.32 143.52Z" fill="url(#paint42_linear_32_404)"/>
<path d="M221.51 141.75L228.86 157.58L257.36 161.99L277.66 150.26L277.95 150.89L257.09 162.94L228.59 158.53L220.95 142.07L221.51 141.75Z" fill="white"/>
<path d="M228.59 158.53V204.27L257.09 208.67V162.94L228.59 158.53Z" fill="url(#paint43_linear_32_404)"/>
<path d="M220.95 142.07V187.81L228.59 204.27V158.53L220.95 142.07Z" fill="url(#paint44_linear_32_404)"/>
<path d="M277.95 150.89V196.63L257.09 208.67V162.94L277.95 150.89Z" fill="url(#paint45_linear_32_404)"/>
<path d="M230.32 128.14L220.95 115.49L228.59 143.75L257.09 148.16L277.95 124.31L230.32 128.14Z" fill="url(#paint46_linear_32_404)"/>
<path d="M220.95 115.49L241.82 103.45L270.32 107.86L277.95 124.31L257.09 136.36L228.59 131.95L220.95 115.49Z" fill="url(#paint47_linear_32_404)"/>
<path d="M221.51 115.17L228.86 131L257.36 135.41L277.66 123.69L277.95 124.31L257.09 136.36L228.59 131.95L220.95 115.49L221.51 115.17Z" fill="white"/>
<path d="M228.59 131.95V143.75L257.09 148.16V136.36L228.59 131.95Z" fill="url(#paint48_linear_32_404)"/>
<path d="M220.95 115.49V127.3L228.59 143.75V131.95L220.95 115.49Z" fill="url(#paint49_linear_32_404)"/>
<path d="M277.95 124.31V136.11L257.09 148.16V136.36L277.95 124.31Z" fill="url(#paint50_linear_32_404)"/>
<path d="M275.2 197.61L265.83 184.96L273.47 230.7L301.97 235.11L322.83 193.78L275.2 197.61Z" fill="url(#paint51_linear_32_404)"/>
<path d="M265.83 184.96L286.7 172.92L315.2 177.33L322.83 193.78L301.97 205.83L273.47 201.42L265.83 184.96Z" fill="url(#paint52_linear_32_404)"/>
<path d="M266.39 184.64L273.74 200.47L302.24 204.88L322.54 193.16L322.83 193.78L301.97 205.83L273.47 201.42L265.83 184.96L266.39 184.64Z" fill="white"/>
<path d="M273.47 201.42V230.7L301.97 235.11V205.83L273.47 201.42Z" fill="url(#paint53_linear_32_404)"/>
<path d="M265.83 184.96V214.25L273.47 230.7V201.42L265.83 184.96Z" fill="url(#paint54_linear_32_404)"/>
<path d="M322.83 193.78V223.07L301.97 235.11V205.83L322.83 193.78Z" fill="url(#paint55_linear_32_404)"/>
<g opacity="0.3">
<path d="M141.54 285.78L70.59 244.58C69.59 244.02 69.74 243.03 70.87 242.37L118.34 214.96C118.922 214.637 119.572 214.456 120.237 214.43C120.902 214.404 121.564 214.534 122.17 214.81L193.11 256.01C194.11 256.57 193.97 257.56 192.84 258.22L145.37 285.62C144.789 285.946 144.14 286.131 143.474 286.159C142.809 286.187 142.146 286.057 141.54 285.78Z" fill="url(#paint56_linear_32_404)"/>
<path d="M195.48 247.26L178.81 246.18L122.03 213.18C121.404 212.898 120.722 212.766 120.036 212.794C119.351 212.822 118.681 213.009 118.08 213.34L81.38 234.54L68.22 233.68V242.86C68.2306 243.072 68.2985 243.277 68.4165 243.453C68.5345 243.629 68.6982 243.77 68.89 243.86L141.66 286.08C142.284 286.362 142.965 286.494 143.649 286.466C144.333 286.438 145.001 286.251 145.6 285.92L194.5 257.68C194.751 257.572 194.97 257.401 195.137 257.184C195.303 256.967 195.411 256.711 195.45 256.44L195.48 247.26Z" fill="url(#paint57_linear_32_404)"/>
<path d="M141.66 276.83L68.88 234.57C67.88 233.99 68 232.97 69.17 232.29L118.06 204.06C118.661 203.729 119.33 203.542 120.016 203.514C120.702 203.486 121.384 203.618 122.01 203.9L194.78 246.16C195.78 246.74 195.67 247.76 194.5 248.43L145.66 276.67C145.053 277.011 144.375 277.203 143.679 277.231C142.984 277.259 142.292 277.122 141.66 276.83Z" fill="url(#paint58_linear_32_404)"/>
</g>
<path d="M141.54 259.45L70.59 218.25C69.59 217.69 69.74 216.7 70.87 216.04L118.34 188.64C118.921 188.314 119.57 188.129 120.236 188.101C120.901 188.073 121.564 188.203 122.17 188.48L193.11 229.68C194.11 230.25 193.97 231.23 192.84 231.89L145.37 259.3C144.788 259.622 144.138 259.804 143.473 259.83C142.808 259.856 142.146 259.726 141.54 259.45Z" fill="url(#paint59_linear_32_404)"/>
<path d="M195.48 220.93L178.81 219.85L122.03 186.85C121.404 186.568 120.722 186.436 120.036 186.464C119.351 186.492 118.681 186.679 118.08 187.01L81.38 208.21L68.22 207.35V216.53C68.2306 216.742 68.2985 216.947 68.4165 217.123C68.5345 217.299 68.6982 217.44 68.89 217.53L141.66 259.75C142.284 260.032 142.965 260.164 143.649 260.136C144.333 260.108 145.001 259.921 145.6 259.59L194.52 231.38C194.772 231.27 194.991 231.097 195.158 230.879C195.324 230.66 195.431 230.402 195.47 230.13L195.48 220.93Z" fill="url(#paint60_linear_32_404)"/>
<path d="M141.66 250.5L68.88 208.24C67.88 207.66 68 206.64 69.17 205.97L118.06 177.73C118.661 177.399 119.33 177.212 120.016 177.184C120.702 177.156 121.384 177.288 122.01 177.57L194.78 219.83C195.78 220.41 195.67 221.43 194.5 222.11L145.66 250.38C145.05 250.715 144.37 250.9 143.674 250.921C142.979 250.942 142.289 250.798 141.66 250.5Z" fill="url(#paint61_linear_32_404)"/>
<path d="M129.66 197.74L129.73 198.06L129.83 197.85C130.083 198.651 130.108 199.506 129.9 200.32C129.355 201.373 128.719 202.377 128 203.32C127.13 204.47 125.73 206.86 125.36 207.32C123.959 208.703 122.143 209.588 120.19 209.84C117.53 210.12 116.85 208.59 117.07 207.76C117.885 206.003 118.968 204.384 120.28 202.96C121.341 201.701 122.267 200.334 123.04 198.88L129.66 197.74Z" fill="#162184"/>
<path d="M121.66 190.5C121.706 191.308 121.672 192.119 121.56 192.92C121.38 193.62 117.47 193.84 116.07 194.02C114.488 194.35 112.95 194.867 111.49 195.56C110.74 195.94 105.65 196.47 105.03 194.56C104.41 192.65 107.58 191.11 109.73 190.56C111.88 190.01 115.4 188.99 115.4 188.99L121.66 190.5Z" fill="#162184"/>
<path d="M135.21 156.63C135.178 160.482 134.684 164.316 133.74 168.05C132.798 171.725 132.327 175.506 132.34 179.3C132.34 179.3 134.01 186.8 132.54 191.91C131.07 197.02 129.82 198.46 129.82 198.46C129.435 198.987 128.939 199.422 128.367 199.734C127.795 200.046 127.16 200.228 126.509 200.266C125.858 200.304 125.207 200.198 124.602 199.955C123.997 199.712 123.453 199.338 123.01 198.86C124.258 194.75 125.073 190.52 125.44 186.24C124.304 183.751 123.442 181.146 122.87 178.47C122.87 178.47 122.31 184.29 121.98 186.65C121.98 186.65 122.31 190.11 121.39 191.5C120.47 192.89 116.32 193.31 114.99 190.88C113.66 188.45 116.1 189.64 115.36 178.47C115.36 178.47 111.54 173.7 110.99 164.93C110.44 156.16 110.49 152.68 110.99 150.93C111.49 149.18 119.99 143.06 119.99 143.06L124.77 149.17L135.21 156.63Z" fill="#242993"/>
<path d="M116.34 166.38C114.96 164.72 114.18 159.54 114.18 159.54C114.18 159.54 116.34 163.9 117.88 165.17C119.468 166.621 120.569 168.528 121.03 170.63C121.3 172.28 122.87 178.43 122.87 178.43C122.87 178.43 122.31 184.25 121.98 186.61C121.98 186.61 122.31 190.07 121.39 191.46C121.163 191.777 120.851 192.023 120.49 192.17C120.49 192.1 120.72 184.46 120.49 181.22C120.26 177.98 117.72 168.07 116.34 166.38Z" fill="#162184"/>
<path d="M147.94 121.25C147.94 121.25 151.59 128.39 151.94 128.94C152.29 129.49 159.15 138.21 159.81 143.25C159.81 143.25 160.33 145.2 157.97 146.92C155.61 148.64 143.74 156.19 142.97 156.3C142.2 156.41 137.97 154.3 137.75 149.61C137.75 149.61 147.06 145.27 149.08 143.1C149.08 143.1 145.46 137.01 143.68 135.22C143.185 134.568 142.89 133.786 142.83 132.97C142.571 130.991 142.801 128.979 143.498 127.108C144.195 125.238 145.339 123.567 146.83 122.24L147.94 121.25Z" fill="#485DCE"/>
<path d="M120.66 104.52C120.66 104.52 115.01 106.61 113.08 105.89C111.15 105.17 106.4 104.57 103.15 102.75C99.9 100.93 85.67 97.26 83.57 97.13C83.57 97.13 83.57 97.21 83.88 97.36C84.3966 97.4308 84.8811 97.6513 85.2738 97.9942C85.6666 98.3372 85.9503 98.7877 86.09 99.29C86.335 100.596 86.0778 101.946 85.37 103.07C85.13 103.21 84.99 102.62 83.63 102C82.9522 101.645 82.2044 101.443 81.44 101.41L80.92 102.06L80.61 102.54C80.793 103.088 81.1212 103.577 81.5596 103.954C81.998 104.33 82.5303 104.581 83.1 104.68C84.92 104.82 96.62 109.68 97.35 109.92C98.08 110.16 107.86 114.38 109.66 115.04C110.79 115.448 111.884 115.95 112.93 116.54C112.93 116.54 118.67 112.72 118.85 112.72C119.03 112.72 120.66 104.52 120.66 104.52Z" fill="#242993"/>
<path d="M69.48 94.75C69.72 94.81 72.68 95.75 72.68 95.75C72.68 95.75 71.5 96.36 71.39 96.89C71.3804 98.1353 71.4976 99.3784 71.7399 100.6C72.0059 100.874 72.3088 101.11 72.64 101.3C72.82 101.41 73.2799 102.44 73.7099 102.3C74.1399 102.16 74.26 101.64 74.26 101.64C74.26 101.64 74.59 101.48 74.69 101.41C75.6921 101.408 76.6848 101.605 77.61 101.99C78.5165 102.462 79.5495 102.634 80.56 102.48C81.1902 102.262 81.8021 101.995 82.39 101.68C82.7786 101.739 83.1582 101.846 83.5199 102C83.9199 102.21 85.21 103.08 85.4 103.15C85.59 103.22 88.2399 98.05 83.5199 97.07C82.5625 96.9967 81.6182 96.8018 80.7099 96.49C79.8699 96.09 77.48 94.25 76.59 94.21C75.9869 94.2067 75.3869 94.2944 74.81 94.47C74.81 94.47 69.48 92.94 69.04 93.42C68.6 93.9 69.24 94.69 69.48 94.75ZM73.34 98.3C73.5557 98.2792 73.764 98.2099 73.9493 98.0974C74.1346 97.9848 74.292 97.8319 74.41 97.65C74.5364 97.7249 74.6828 97.7593 74.8294 97.7486C74.9759 97.7378 75.1158 97.6825 75.23 97.59C75.23 97.69 75.97 97.83 75.97 97.83C75.97 97.83 76.2999 98.1 76.7099 98.41C77.1199 98.72 76.57 99.61 76.57 99.61C76.1268 99.5949 75.6942 99.4713 75.31 99.25C74.9816 99.1425 74.6478 99.0524 74.31 98.98C73.965 98.7859 73.6401 98.5581 73.34 98.3Z" fill="#FCE8EE"/>
<path d="M110.99 150.97C111.48 149.26 119.99 143.1 119.99 143.1L122.37 146.1L124.37 154.03L135.2 157.4C135.2 157.4 134.63 162.82 125.81 162.2C116.99 161.58 115.95 154.73 115.95 154.73C115.95 154.73 114.95 156.98 110.62 157.56C110.52 153.97 110.66 152.09 110.99 150.97Z" fill="#162184"/>
<path d="M137.21 108.97L138.7 112.79C138.7 112.79 145.88 119 147.94 121.25C145.752 125.644 144.329 130.378 143.73 135.25C142.22 136.459 140.79 137.765 139.45 139.16C138.45 140.39 135.95 146.09 135.15 147.97C134.35 149.85 136.59 155.5 136.59 155.5C136.59 155.5 133.53 161.13 128.59 160.95C123.65 160.77 120.34 157.77 119.71 152.44C119.08 147.11 119.27 146.33 119.27 146.33C119.27 146.33 117.06 152.88 113.71 152.88C110.36 152.88 105.05 147.19 105.05 147.19C105.05 147.19 101.47 143.94 101.8 142.47C102.13 141 110.24 128.27 110.68 126.17C111.12 124.07 112.94 116.57 112.94 116.57L120.58 104.57L125.24 104.79L137.21 108.97Z" fill="#4553C7"/>
<path d="M128.42 159.57C123.72 159.4 120.48 156.62 119.66 151.71C119.66 151.94 119.71 152.16 119.74 152.41C120.37 157.74 123.74 160.74 128.62 160.92C133.5 161.1 136.62 155.47 136.62 155.47C136.62 155.47 136.45 155.05 136.23 154.42C135.49 155.58 132.66 159.73 128.42 159.57Z" fill="url(#paint62_linear_32_404)"/>
<path d="M137.21 108.97C137.193 110.522 136.902 112.059 136.35 113.51C135.45 115.77 132.5 128.51 125.83 132.87L123.26 134.5V126.38C123.29 123.622 123.69 120.881 124.45 118.23C125.169 115.966 125.54 113.606 125.55 111.23C125.55 111.23 127.42 110.71 127.42 110.75C127.42 110.79 137.21 108.97 137.21 108.97Z" fill="#F0FFFF"/>
<path d="M128.99 114.89C128.99 114.89 127.8 115.37 127.29 114.6C126.703 113.691 126.391 112.632 126.39 111.55C126.39 111.55 123.23 111.71 122.61 110.05C122.415 109.638 122.328 109.184 122.356 108.729C122.384 108.275 122.526 107.835 122.77 107.45C122.865 106.48 123.069 105.524 123.38 104.6V104.18C123.38 104.18 122.73 103.62 123.03 103.04C123.33 102.46 125.03 100.66 125.22 100.36C125.41 100.06 125.22 97.82 125.85 96.71C126.462 95.7836 127.13 94.8953 127.85 94.05C127.85 94.05 134.58 88.8 139.85 94.05C145.12 99.3 137.16 108.97 137.16 108.97C137.16 108.97 136.52 112.09 134.98 113.33C133.44 114.57 128.99 114.89 128.99 114.89Z" fill="#FCE8EE"/>
<path d="M133.91 102.1C133.902 101.907 133.929 101.713 133.99 101.53C134.213 100.939 134.228 100.29 134.031 99.6898C133.835 99.0896 133.439 98.5745 132.91 98.23C130.91 96.75 127.32 95.43 127.43 93.96C127.54 92.49 133.17 88.85 137.32 90.8C141.47 92.75 145.38 97.67 142.54 102.9C139.7 108.13 137.21 108.97 137.21 108.97C137.21 108.97 136.37 108.79 137.12 107.92C137.87 107.05 139.26 104.86 138.12 104.17C136.98 103.48 134.99 104.97 134.72 105.3C134.615 105.441 134.518 105.588 134.43 105.74C134.36 105.861 134.247 105.952 134.114 105.992C133.98 106.033 133.835 106.022 133.71 105.96H133.62C133.491 105.903 133.389 105.798 133.335 105.668C133.281 105.538 133.279 105.392 133.33 105.26L133.83 103.91C133.903 103.708 133.937 103.494 133.93 103.28L133.91 102.1Z" fill="#AA9AAC"/>
<path d="M129.16 116.38C130.196 117.206 131.013 118.274 131.54 119.49C130.809 118.701 129.962 118.027 129.03 117.49C129.03 117.49 127.26 118.32 127.26 118.87C127.216 120.762 127.022 122.648 126.68 124.51C126.392 127.166 126.272 129.838 126.32 132.51L125.2 133.25L124.67 130.51L124.87 124.66L125.87 119.34C125.926 118.626 126.02 117.915 126.15 117.21C126.27 117.12 129.16 116.38 129.16 116.38Z" fill="#C4E3FF"/>
<path d="M129.16 116.38C129.16 116.38 127.45 114.56 126.58 114.52C126.329 114.484 126.073 114.515 125.837 114.61C125.602 114.705 125.396 114.86 125.24 115.06C125.24 115.16 124.41 118.06 124.41 118.06C123.377 121.551 122.888 125.18 122.96 128.82C123.12 134.62 123.26 134.57 123.26 134.57L125.38 133.23C125.073 130.235 125.272 127.209 125.97 124.28C127.12 119.48 126.1 118.76 126.65 118.28C127.2 117.8 129.42 116.95 129.16 116.38Z" fill="#242993"/>
<path d="M139.45 139.13C138.45 140.36 136 146.05 135.2 147.93C135.045 148.3 134.97 148.699 134.98 149.1L134.65 149.32L133.58 148.27C133.58 148.27 134.58 144.79 136.09 140.49C137.6 136.19 143.73 135.22 143.73 135.22C142.22 136.429 140.79 137.735 139.45 139.13Z" fill="#242993"/>
<path d="M137.8 149.76C137.123 148.735 136.353 147.774 135.5 146.89C135.5 146.89 135.63 147.61 134.64 148.05C133.65 148.49 128.45 150.5 128.27 150.74C128.09 150.98 128.27 151.26 128.61 151.33C128.122 151.506 127.615 151.627 127.1 151.69C126.65 151.69 126.1 152.24 126.36 152.69C126.62 153.14 126.9 153.13 126.9 153.13C126.9 153.13 126.77 153.66 127.1 153.78C127.457 153.867 127.823 153.914 128.19 153.92C128.145 154.057 128.148 154.205 128.199 154.339C128.25 154.474 128.346 154.587 128.47 154.66C129.299 154.881 130.145 155.031 131 155.11C131 155.11 132.65 154.93 133.12 154.92C134.287 155.158 135.47 155.312 136.66 155.38C138.101 155.035 139.513 154.573 140.88 154C141.17 153.78 137.8 149.76 137.8 149.76Z" fill="#FCE8EE"/>
<path d="M139.04 114.03L138.82 117.45L136.97 118.03L138.21 119.03C138.21 119.03 133.21 130.43 126.8 134.03C126.8 134.03 132.91 131.86 138.68 119.13C138.68 119.13 138.08 118.42 137.89 118.22L139.18 117.64L139.04 114.03Z" fill="#242993"/>
<path d="M122.66 113.67C122.66 113.67 120.39 125.3 122.33 134.05C122.33 134.05 120 129.84 122.1 113.67H122.66Z" fill="#242993"/>
<path d="M71.51 96.69C71.8417 96.3236 72.2384 96.0218 72.68 95.8C72.68 95.8 75.1 96.8 75.51 96.98C75.51 96.98 73.03 96.72 71.51 96.69Z" fill="#E2C8CF"/>
<path d="M85.4 103.21C85.31 103.21 84.92 102.93 84.51 102.67C86.12 100.51 84.35 97.38 84.35 97.37C87.9 98.76 85.58 103.28 85.4 103.21Z" fill="#E2C8CF"/>
<path d="M140.86 153.96C139.818 154.399 138.749 154.773 137.66 155.08C137.285 153.714 137.076 152.307 137.04 150.89C137.22 149.89 137.66 149.59 137.66 149.59L137.78 149.76C137.78 149.76 141.17 153.78 140.86 153.96Z" fill="#E2C8CF"/>
<path d="M137.8 149.61C137.655 150.163 137.641 150.743 137.761 151.302C137.881 151.862 138.131 152.385 138.49 152.83C139.72 154.24 139.85 154.42 139.85 154.42H141.26C141.525 153.677 141.732 152.915 141.88 152.14C141.77 152.09 137.8 149.61 137.8 149.61Z" fill="#485DCE"/>
<path d="M124.66 117.07C124.66 117.07 123.31 125.07 123.61 127.96C123.793 129.984 123.857 132.018 123.8 134.05L123.38 134.42L123.25 134.5C123.25 134.5 123.11 134.5 122.95 128.75C122.878 125.11 123.367 121.481 124.4 117.99C124.4 117.99 124.52 117.58 124.66 117.07Z" fill="#242993"/>
<path d="M124.23 199.74C123.79 199.496 123.381 199.2 123.01 198.86C124.258 194.75 125.073 190.52 125.44 186.24C124.304 183.751 123.442 181.146 122.87 178.47C123.05 179.2 125.28 183.14 126.28 187.16C127.28 191.18 124.23 199.74 124.23 199.74Z" fill="#162184"/>
<path d="M134.1 107.68C133.813 109.24 133.214 110.726 132.34 112.05C131.15 113.43 130.24 114.76 130.24 114.76C129.5 114.85 128.99 114.89 128.99 114.89C128.99 114.89 127.8 115.37 127.29 114.6C126.703 113.691 126.391 112.632 126.39 111.55C126.39 111.55 130.65 111.11 132.28 109.98C133.15 109.464 133.798 108.645 134.1 107.68Z" fill="#E2C8CF"/>
<path d="M135.66 146.91C135.66 146.91 135.43 147.4 135.39 147.44C135.35 147.48 135.29 147.07 135.29 147.07C135.29 147.07 135.48 146.67 135.49 146.67C135.5 146.67 135.66 146.91 135.66 146.91Z" fill="#1B4263"/>
<path d="M123.26 134.5C123.26 134.5 120.26 144 119.26 146.3L119.32 148.58C119.32 148.58 123.14 136.79 123.26 134.5Z" fill="#242993"/>
<path d="M120.39 137.89C120.342 138.081 120.351 138.282 120.416 138.468C120.482 138.654 120.601 138.816 120.759 138.935C120.916 139.053 121.105 139.122 121.302 139.134C121.499 139.145 121.694 139.098 121.865 138.998C122.035 138.899 122.172 138.751 122.258 138.574C122.344 138.397 122.377 138.198 122.351 138.003C122.324 137.807 122.241 137.624 122.111 137.476C121.981 137.328 121.81 137.221 121.62 137.17C121.492 137.135 121.358 137.127 121.227 137.144C121.095 137.162 120.969 137.205 120.854 137.272C120.74 137.339 120.64 137.429 120.56 137.535C120.48 137.641 120.423 137.761 120.39 137.89Z" fill="#242993"/>
<path d="M120.769 142.575C120.937 142.02 120.659 141.444 120.146 141.288C119.634 141.132 119.081 141.455 118.913 142.01C118.744 142.565 119.023 143.141 119.535 143.297C120.048 143.453 120.6 143.129 120.769 142.575Z" fill="#242993"/>
<path d="M133.83 103.87C133.903 103.668 133.937 103.454 133.93 103.24V102.1C133.922 101.907 133.949 101.713 134.01 101.53C134.093 101.301 134.147 101.062 134.17 100.82C134.17 100.82 138.8 104.2 141.73 104.33C139.26 108.33 137.23 108.97 137.23 108.97C137.23 108.97 136.39 108.79 137.14 107.92C137.89 107.05 139.28 104.86 138.14 104.17C137 103.48 135.01 104.97 134.74 105.3C134.635 105.441 134.539 105.588 134.45 105.74C134.38 105.861 134.267 105.952 134.134 105.993C134 106.033 133.856 106.022 133.73 105.96H133.64C133.511 105.903 133.409 105.798 133.355 105.668C133.301 105.538 133.299 105.392 133.35 105.26L133.83 103.87Z" fill="#938496"/>
<path d="M140.99 234.79C139.695 234.933 138.392 234.98 137.09 234.93C135.19 234.82 129.97 235.24 129.98 236.86C129.99 238.48 132.47 241.01 135.78 241.64C139.09 242.27 143.46 241.85 145.64 242.09C147.82 242.33 149.51 240.61 148.84 238.75C148.17 236.89 140.99 234.79 140.99 234.79Z" fill="#162184"/>
<path d="M152.88 231.38C152.88 231.38 153.49 232.43 153.07 233.01C152.65 233.59 151.52 235.01 148.58 233.28C145.64 231.55 139.86 228.93 139.86 228.93C139.86 228.93 136.56 227.07 136.86 225.24C137.16 223.41 140.38 223.96 140.38 223.96L152.88 231.38Z" fill="#162184"/>
<path d="M134.81 202.48C134.81 202.48 135.16 215.38 137.66 220.29C140.16 225.2 140.16 233.69 140.6 235.29C140.95 236.429 141.58 237.461 142.432 238.293C143.285 239.125 144.333 239.729 145.48 240.05C148.3 240.77 148.95 239.18 148.91 238.19C148.87 237.2 148.25 235.53 148.35 234.45C148.461 233.749 148.645 233.062 148.9 232.4C148.9 232.4 152.14 233.52 152.9 231.4C152.799 231.074 152.729 230.739 152.69 230.4C152.69 230.06 153.94 222.02 154.13 221.03C154.365 217.93 154.21 214.812 153.67 211.75C153.02 208.95 153.99 203.1 153.99 203.1L144.13 200.99L134.81 202.48Z" fill="#242993"/>
<path d="M153.66 211.77C153.01 208.97 153.98 203.12 153.98 203.12L153.12 202.94C152.99 203.76 152.22 208.89 152.82 211.46C153.361 214.525 153.515 217.646 153.28 220.75C153.09 221.75 151.83 229.75 151.84 230.11C151.879 230.449 151.949 230.784 152.05 231.11C151.29 233.25 148.05 232.11 148.05 232.11C147.795 232.772 147.611 233.459 147.5 234.16C147.4 235.24 148.03 236.91 148.06 237.9C148.09 238.89 147.45 240.49 144.63 239.76C144.545 239.736 144.461 239.706 144.38 239.67C144.73 239.838 145.095 239.972 145.47 240.07C148.29 240.79 148.94 239.2 148.9 238.21C148.86 237.22 148.24 235.55 148.34 234.47C148.454 233.735 148.645 233.015 148.91 232.32C148.91 232.32 152.13 233.54 152.91 231.4C152.809 231.074 152.739 230.739 152.7 230.4C152.7 230.06 153.95 222.02 154.14 221.03C154.367 217.935 154.205 214.825 153.66 211.77Z" fill="url(#paint63_linear_32_404)"/>
<path d="M150.91 203.81C150.717 205.105 150.246 206.343 149.53 207.44C149.53 207.44 148.85 214.18 147.72 217.44C147.944 220.414 148.321 223.375 148.85 226.31C149.145 228.329 149.145 230.381 148.85 232.4C149.143 232.507 149.449 232.578 149.76 232.61C150.3 232.68 151.21 224.77 150.52 223.28C149.83 221.79 149.86 215.35 150.4 213.41C150.94 211.47 151.4 205.73 151.97 204.75C152.122 204.483 152.168 204.168 152.1 203.868C152.031 203.568 151.853 203.305 151.6 203.13L150.91 203.81Z" fill="#162184"/>
<path d="M147.19 152.14C146.206 152.745 145.378 153.572 144.772 154.555C144.166 155.538 143.799 156.65 143.7 157.8L146.05 157.53C146.05 157.53 145.73 153.32 147.19 152.14Z" fill="#162184"/>
<path d="M143.39 205.99C149.94 206.75 153.77 204.48 153.77 204.48C153.88 203.66 153.97 203.12 153.97 203.12L144.11 201.01L134.81 202.48C134.81 202.48 134.88 205.06 135.18 208.35C136.77 208.64 138.64 205.29 138.64 205.29L143.13 205.94C143.13 205.94 136.84 205.24 143.39 205.99Z" fill="#162184"/>
<path d="M136.07 202.78C136.07 202.78 149.87 209.19 157.89 199.95C158.131 199.67 158.272 199.319 158.29 198.95L158.47 196.6C158.493 196.3 158.575 196.008 158.71 195.74C159.01 195.161 159.138 194.509 159.08 193.86C158.84 191.14 158.2 183.63 158.08 181.52C157.94 178.93 160.61 168.62 163.68 164.21C166.75 159.8 161.48 148.58 161.48 148.58C161.039 147.784 160.354 147.151 159.525 146.775C158.697 146.399 157.77 146.299 156.88 146.49C156.88 146.49 159.68 148.81 157.8 150.81C155.92 152.81 150.8 154.1 150.8 154.1C150.8 154.1 141.34 157.8 137.8 162.93C136.946 164.881 136.396 166.952 136.17 169.07C135.81 172.53 135.59 180.74 135.35 181.85C135.11 182.96 134.08 190.46 134.1 190.85C134.12 191.24 136.07 202.78 136.07 202.78Z" fill="#4553C7"/>
<path d="M158.19 148.23C158.33 147.966 158.414 147.676 158.436 147.379C158.459 147.081 158.419 146.782 158.32 146.5C157.843 146.426 157.357 146.426 156.88 146.5C157.426 146.985 157.871 147.573 158.19 148.23Z" fill="url(#paint64_linear_32_404)"/>
<path d="M140.32 204.22C140.32 204.22 150.89 184.09 151.32 176.11C151.75 168.13 137.16 190.5 137.16 190.5L136.16 202.78C137.508 203.366 138.899 203.847 140.32 204.22Z" fill="#242993"/>
<path d="M158.71 193.71C158.576 193.979 158.494 194.271 158.47 194.57L158.29 196.93C158.268 197.298 158.128 197.648 157.89 197.93C149.89 207.16 136.07 200.75 136.07 200.75C136.07 200.75 134.72 192.44 134.3 189.7C134.22 190.35 134.17 190.81 134.17 190.89C134.17 191.24 136.07 202.82 136.07 202.82C136.07 202.82 149.87 209.23 157.89 199.99C158.131 199.71 158.272 199.359 158.29 198.99L158.47 196.64C158.493 196.34 158.575 196.048 158.71 195.78C159.01 195.201 159.138 194.549 159.08 193.9C159.08 193.61 159.03 193.27 158.99 192.9C158.936 193.182 158.842 193.455 158.71 193.71Z" fill="url(#paint65_linear_32_404)"/>
<path d="M163.66 162.19C160.59 166.59 157.92 176.9 158.06 179.49C158.06 179.73 158.06 180.05 158.12 180.41C158.53 176.72 160.93 168.17 163.66 164.25C164.501 162.767 164.821 161.046 164.57 159.36C164.517 160.366 164.203 161.341 163.66 162.19Z" fill="url(#paint66_linear_32_404)"/>
<path d="M137.77 178.96C138.248 177.197 138.582 175.397 138.77 173.58C139.07 170.4 140.48 165.12 146.63 166.58C155.3 168.66 150.39 179.7 149.25 181.58C148.11 183.46 143.57 191.73 143.33 192.2C143.09 192.67 136.43 202.53 134.18 204.79C134.079 204.887 133.945 204.941 133.805 204.941C133.665 204.941 133.531 204.887 133.43 204.79C132.65 204.09 130.9 202.43 130.72 201.46C130.5 200.21 132.03 195.82 132.03 195.82C132.03 195.82 136.2 184.61 136.52 184.08C136.84 183.55 137.02 181.8 137.77 178.96Z" fill="#485DCE"/>
<path d="M147.32 152.43C147.137 151.951 146.84 151.524 146.455 151.186C146.07 150.848 145.608 150.609 145.11 150.49C143.46 150.18 142.56 149.66 142.45 149.05C142.393 148.285 142.259 147.528 142.05 146.79C141.784 145.739 141.623 144.663 141.57 143.58C141.57 143.58 140.34 143.04 140.33 142.49C140.32 141.94 141.13 140.03 141.07 139.87C140.717 139.135 140.548 138.325 140.58 137.51C140.739 136.323 141.076 135.167 141.58 134.08C142.19 132.96 146.42 126.08 155.51 130.63C164.6 135.18 156.59 142.32 156.99 147.34C156.99 147.34 157.71 148.45 155.99 150.06C154.27 151.67 149.93 151.67 147.32 152.43Z" fill="#FCE8EE"/>
<path d="M156.02 150.06C157.72 148.45 157.02 147.34 157.02 147.34C156.984 146.601 157.068 145.862 157.27 145.15L153.56 145.51C153.56 145.51 148.61 140.34 148.76 142.9C148.91 145.46 147.57 145.78 147.57 145.78L148.57 147.23C148.82 147.61 148.62 148 148.35 148.37C146.59 150.77 142.96 149.69 142.95 149.69C143.62 150.114 144.374 150.387 145.16 150.49C145.658 150.609 146.12 150.848 146.505 151.186C146.89 151.524 147.187 151.951 147.37 152.43C149.93 151.67 154.33 151.67 156.02 150.06Z" fill="#E2C8CF"/>
<path d="M141.41 131.38C141.41 131.38 140.6 133.23 141.59 134.12C142.58 135.01 143.48 135.85 143.48 135.85L143.28 138.24C143.246 138.587 143.319 138.936 143.49 139.24L144.64 141.36C144.861 141.767 144.958 142.229 144.92 142.69L144.84 143.69C144.83 143.826 144.87 143.962 144.953 144.07C145.036 144.179 145.156 144.254 145.29 144.28L145.63 144.35C145.776 144.377 145.926 144.346 146.049 144.264C146.172 144.182 146.259 144.055 146.29 143.91L146.55 142.59C146.55 142.59 147.34 141.59 148.74 142.99L150.05 143.66C150.233 143.748 150.394 143.875 150.521 144.032C150.649 144.19 150.741 144.373 150.79 144.57C151.08 145.62 151.69 147.7 152.27 148.09C153.04 148.61 156.38 147.29 156.88 146.62C157.38 145.95 158.97 141.29 159.88 139.05C160.79 136.81 161.03 131.05 154.16 128.95C147.29 126.85 142.54 129.38 141.41 131.38Z" fill="#AA9AAC"/>
<path d="M156.88 146.53C157.38 145.86 158.97 141.2 159.88 138.96C157.88 139.94 155.711 140.531 153.49 140.7C149.97 140.91 143.42 136.45 143.42 136.45L143.27 138.2C143.236 138.547 143.309 138.896 143.48 139.2L144.63 141.32C144.851 141.727 144.948 142.189 144.91 142.65L144.83 143.65C144.82 143.786 144.86 143.922 144.943 144.03C145.026 144.139 145.146 144.214 145.28 144.24L145.62 144.31C145.766 144.337 145.916 144.306 146.039 144.224C146.162 144.142 146.249 144.015 146.28 143.87L146.54 142.55C146.54 142.55 147.33 141.55 148.73 142.95L150.63 143.95C150.63 143.95 151.48 147.57 152.26 148.09C153.04 148.61 156.38 147.2 156.88 146.53Z" fill="#938496"/>
<path d="M156.99 146.77C156.99 146.77 159.48 148.59 157.91 150.77C156.34 152.95 146.42 156.01 145.91 156.55C145.91 156.55 145.83 153.21 147.2 152.19C147.2 152.19 154.67 151.46 155.99 149.75C156.367 149.358 156.652 148.888 156.825 148.372C156.998 147.857 157.054 147.31 156.99 146.77Z" fill="#F0FFFF"/>
<path d="M156.99 146.77C157.047 147.302 156.987 147.84 156.814 148.346C156.641 148.852 156.36 149.314 155.99 149.7C154.99 150.99 150.47 151.7 148.33 152.01C149.139 152.77 149.765 153.703 150.16 154.74C153.24 153.54 157.01 151.96 157.92 150.74C159.48 148.59 156.99 146.77 156.99 146.77Z" fill="#C4E3FF"/>
<path d="M158.01 154.08C158.01 154.08 153.52 156.08 151.35 156.91C149.18 157.74 146.81 158.98 146.81 158.98L146.09 158.16L144.96 160.06C143.197 160.871 141.522 161.859 139.96 163.01C138.733 164.08 137.68 165.335 136.84 166.73C136.84 166.73 141.25 162.12 144.55 160.9L145.44 160.57L146.06 159.04L146.77 159.9C146.77 159.9 156.57 155.38 158.01 154.08Z" fill="#242993"/>
<path d="M141.31 215.89C141.236 215.598 141.084 215.332 140.87 215.12L125.79 201.9C125.38 201.55 124.96 201.75 124.84 202.36L122.14 215.91C122.082 216.222 122.098 216.544 122.189 216.848C122.279 217.152 122.441 217.431 122.66 217.66L135.06 228.53L134.3 232.19L138.3 231.02C138.411 230.963 138.506 230.879 138.576 230.776C138.646 230.673 138.688 230.554 138.7 230.43L141.39 216.88C141.44 216.548 141.412 216.209 141.31 215.89Z" fill="url(#paint67_linear_32_404)"/>
<path d="M121.3 202.9L125.2 201.77H125.33C125.413 201.767 125.495 201.78 125.572 201.81C125.649 201.839 125.72 201.883 125.78 201.94L140.86 215.16C141.073 215.374 141.228 215.639 141.31 215.93L140.72 216.12L137.39 217.18L124.21 205.51L121.3 202.9Z" fill="#4553C7"/>
<path d="M118.66 218.81L133.73 232.03C134.14 232.39 134.57 232.18 134.73 231.57L137.42 218.02C137.48 217.709 137.465 217.388 137.376 217.084C137.287 216.779 137.128 216.5 136.91 216.27L121.83 203.05C121.42 202.7 121 202.91 120.88 203.52L118.18 217.06C118.116 217.369 118.127 217.688 118.21 217.993C118.294 218.297 118.448 218.577 118.66 218.81Z" fill="#242993"/>
<path d="M136.75 230.96L139.44 217.38C139.5 217.069 139.485 216.748 139.396 216.443C139.307 216.139 139.148 215.86 138.93 215.63L123.85 202.41C123.749 202.313 123.619 202.253 123.48 202.24C123.572 202.221 123.666 202.226 123.756 202.254C123.845 202.282 123.926 202.332 123.99 202.4L139.06 215.62C139.278 215.848 139.438 216.125 139.529 216.428C139.619 216.73 139.637 217.05 139.58 217.36L136.89 230.91C136.8 231.33 136.58 231.58 136.32 231.57C136.437 231.512 136.538 231.426 136.613 231.32C136.688 231.213 136.735 231.089 136.75 230.96Z" fill="#162184"/>
<path d="M132.66 210.07L133.52 209.78C133.692 209.721 133.878 209.721 134.05 209.78H134.11C134.2 209.78 134.23 209.89 134.21 210V210.13L131.79 210.96V210.82C131.82 210.697 131.89 210.588 131.99 210.51L132.07 210.44C132.242 210.282 132.442 210.156 132.66 210.07Z" fill="#162184"/>
<path d="M132.82 211.86L131.76 210.93L134.19 209.81L135.24 210.73L132.82 211.86Z" fill="#162184"/>
<path d="M133.72 211L134.58 210.71C134.753 210.656 134.937 210.656 135.11 210.71H135.18C135.26 210.71 135.29 210.82 135.27 210.93V211.06L132.84 211.89V211.75C132.87 211.627 132.94 211.518 133.04 211.44L133.12 211.37C133.296 211.212 133.5 211.087 133.72 211Z" fill="url(#paint68_linear_32_404)"/>
<path d="M134.2 211.4L134.31 210.8L134.24 210.83L134.12 211.42L134.2 211.4Z" fill="#723A41"/>
<path d="M134.31 210.8L133.22 209.88L133.16 209.9L134.24 210.83L134.31 210.8Z" fill="#723A41"/>
<path d="M127.85 205.86L128.71 205.57C128.883 205.517 129.067 205.517 129.24 205.57H129.3C129.39 205.57 129.42 205.68 129.4 205.79V205.92L126.98 206.74V206.61C127.012 206.485 127.082 206.373 127.18 206.29L127.26 206.22C127.435 206.068 127.635 205.946 127.85 205.86Z" fill="#162184"/>
<path d="M128.01 207.65L126.95 206.72L129.38 205.6L130.43 206.52L128.01 207.65Z" fill="#162184"/>
<path d="M128.91 206.79L129.77 206.5C129.943 206.447 130.127 206.447 130.3 206.5H130.36C130.45 206.5 130.48 206.61 130.46 206.72V206.85L128.03 207.68V207.54C128.062 207.415 128.132 207.303 128.23 207.22L128.31 207.16C128.487 207.002 128.69 206.877 128.91 206.79Z" fill="url(#paint69_linear_32_404)"/>
<path d="M129.38 207.19L129.5 206.59L129.43 206.62L129.31 207.21L129.38 207.19Z" fill="#723A41"/>
<path d="M129.5 206.59L128.41 205.67L128.35 205.69L129.43 206.62L129.5 206.59Z" fill="#723A41"/>
<path d="M134.99 207.97L134.48 210.5L133.77 209.88L134.26 207.41C134.291 207.212 134.274 207.009 134.209 206.819C134.145 206.63 134.035 206.458 133.89 206.32L130.8 203.61C130.52 203.37 130.24 203.46 130.17 203.82L129.68 206.29L128.97 205.67L129.47 203.13C129.63 202.33 130.25 202.13 130.87 202.66L134.17 205.55C134.487 205.861 134.726 206.242 134.869 206.662C135.011 207.083 135.053 207.531 134.99 207.97Z" fill="#4553C7"/>
<path d="M129.66 203.38H131.02L134.68 206.94V208.94L134.47 210.56L133.58 210.87L133.71 208.87L133.77 207.46L133.04 206.37C133.04 206.37 131.66 205.2 131.65 205.17C131.64 205.14 129.66 203.38 129.66 203.38Z" fill="#4553C7"/>
<path d="M128.79 206.59L129.68 206.29L130.04 204.47L129.21 204.46L128.96 204.47L128.79 206.59Z" fill="#4553C7"/>
<path d="M129.08 202.71L130.08 202.38L129.8 202.81L129.48 202.88L129.08 202.71Z" fill="#4553C7"/>
<path d="M134.09 208.27L133.59 210.81L132.88 210.19L133.37 207.72C133.396 207.521 133.377 207.318 133.312 207.127C133.248 206.936 133.141 206.763 133 206.62L129.9 203.91C129.63 203.67 129.35 203.77 129.27 204.13L128.78 206.59L128.07 205.97L128.58 203.44C128.74 202.64 129.36 202.44 129.97 202.96L133.27 205.86C133.587 206.169 133.826 206.548 133.969 206.967C134.111 207.386 134.153 207.832 134.09 208.27Z" fill="#162184"/>
<path d="M130.93 201.38C130.602 202.41 130.391 203.473 130.3 204.55C130.739 205.546 131.514 206.357 132.49 206.84C133.3 207.14 133.03 206.24 133.26 205.71C133.429 205.148 133.526 204.567 133.55 203.98L130.93 201.38Z" fill="#FCE8EE"/>
<path d="M133.55 204L130.93 201.4C130.93 201.4 130.77 201.92 130.62 202.54C131.211 203.766 132.164 204.782 133.35 205.45C133.454 204.973 133.521 204.488 133.55 204Z" fill="#E2C8CF"/>
<path d="M130.66 201.58C130.66 201.58 131.45 204.42 133.91 204.89L133.3 201.81L131.17 201.08C131.15 201.07 130.66 201.58 130.66 201.58Z" fill="#485DCE"/>
<path d="M150.27 168.76C152 175.87 144.99 185.76 143.87 188.68C142.75 191.6 132.79 204.25 132.78 204.26L132.66 204.38C132.834 204.523 133.017 204.653 133.21 204.77C133.33 204.839 133.457 204.893 133.59 204.93C133.68 204.954 133.774 204.954 133.864 204.93C133.954 204.905 134.035 204.857 134.1 204.79C136.35 202.53 143.03 192.63 143.25 192.2C143.47 191.77 148.03 183.44 149.17 181.58C150.13 180.1 153.45 172.71 150.27 168.76Z" fill="url(#paint70_linear_32_404)"/>
</g>
<defs>
<linearGradient id="paint0_linear_32_404" x1="143.31" y1="111.04" x2="86.3101" y2="111.04" gradientUnits="userSpaceOnUse">
<stop stop-color="#C0D6FF"/>
<stop offset="0.3" stop-color="#C5DBFF"/>
<stop offset="0.65" stop-color="#D3E9FF"/>
<stop offset="1" stop-color="#E9FFFF"/>
</linearGradient>
<linearGradient id="paint1_linear_32_404" x1="126.338" y1="33.335" x2="105.519" y2="69.5601" gradientUnits="userSpaceOnUse">
<stop stop-color="#C0D6FF"/>
<stop offset="0.3" stop-color="#C5DBFF"/>
<stop offset="0.65" stop-color="#D3E9FF"/>
<stop offset="1" stop-color="#E9FFFF"/>
</linearGradient>
<linearGradient id="paint2_linear_32_404" x1="122.44" y1="119.27" x2="93.9401" y2="119.27" gradientUnits="userSpaceOnUse">
<stop stop-color="#C0D6FF"/>
<stop offset="0.3" stop-color="#C5DBFF"/>
<stop offset="0.65" stop-color="#D3E9FF"/>
<stop offset="1" stop-color="#E9FFFF"/>
</linearGradient>
<linearGradient id="paint3_linear_32_404" x1="93.9401" y1="108.84" x2="86.3101" y2="108.84" gradientUnits="userSpaceOnUse">
<stop stop-color="#E9FFFF"/>
<stop offset="0.35" stop-color="#D3E9FF"/>
<stop offset="0.7" stop-color="#C5DBFF"/>
<stop offset="1" stop-color="#C0D6FF"/>
</linearGradient>
<linearGradient id="paint4_linear_32_404" x1="143.31" y1="115.45" x2="122.44" y2="115.45" gradientUnits="userSpaceOnUse">
<stop stop-color="#5778FF"/>
<stop offset="0.18" stop-color="#5C7DFF"/>
<stop offset="0.39" stop-color="#6A8AFF"/>
<stop offset="0.61" stop-color="#82A0FF"/>
<stop offset="0.85" stop-color="#A3BEFF"/>
<stop offset="1" stop-color="#BCD5FF"/>
</linearGradient>
<linearGradient id="paint5_linear_32_404" x1="188.19" y1="146.29" x2="131.19" y2="146.29" gradientUnits="userSpaceOnUse">
<stop stop-color="#C0D6FF"/>
<stop offset="0.3" stop-color="#C5DBFF"/>
<stop offset="0.65" stop-color="#D3E9FF"/>
<stop offset="1" stop-color="#E9FFFF"/>
</linearGradient>
<linearGradient id="paint6_linear_32_404" x1="171.422" y1="79.355" x2="150.603" y2="115.58" gradientUnits="userSpaceOnUse">
<stop stop-color="#C0D6FF"/>
<stop offset="0.3" stop-color="#C5DBFF"/>
<stop offset="0.65" stop-color="#D3E9FF"/>
<stop offset="1" stop-color="#E9FFFF"/>
</linearGradient>
<linearGradient id="paint7_linear_32_404" x1="167.33" y1="154.52" x2="138.83" y2="154.52" gradientUnits="userSpaceOnUse">
<stop stop-color="#C0D6FF"/>
<stop offset="0.3" stop-color="#C5DBFF"/>
<stop offset="0.65" stop-color="#D3E9FF"/>
<stop offset="1" stop-color="#E9FFFF"/>
</linearGradient>
<linearGradient id="paint8_linear_32_404" x1="138.83" y1="144.09" x2="131.19" y2="144.09" gradientUnits="userSpaceOnUse">
<stop stop-color="#E9FFFF"/>
<stop offset="0.35" stop-color="#D3E9FF"/>
<stop offset="0.7" stop-color="#C5DBFF"/>
<stop offset="1" stop-color="#C0D6FF"/>
</linearGradient>
<linearGradient id="paint9_linear_32_404" x1="188.19" y1="150.7" x2="167.33" y2="150.7" gradientUnits="userSpaceOnUse">
<stop stop-color="#5778FF"/>
<stop offset="0.18" stop-color="#5C7DFF"/>
<stop offset="0.39" stop-color="#6A8AFF"/>
<stop offset="0.61" stop-color="#82A0FF"/>
<stop offset="0.85" stop-color="#A3BEFF"/>
<stop offset="1" stop-color="#BCD5FF"/>
</linearGradient>
<linearGradient id="paint10_linear_32_404" x1="233.07" y1="183.95" x2="176.07" y2="183.95" gradientUnits="userSpaceOnUse">
<stop stop-color="#C0D6FF"/>
<stop offset="0.3" stop-color="#C5DBFF"/>
<stop offset="0.65" stop-color="#D3E9FF"/>
<stop offset="1" stop-color="#E9FFFF"/>
</linearGradient>
<linearGradient id="paint11_linear_32_404" x1="216.505" y1="128.225" x2="195.69" y2="164.443" gradientUnits="userSpaceOnUse">
<stop stop-color="#C0D6FF"/>
<stop offset="0.3" stop-color="#C5DBFF"/>
<stop offset="0.65" stop-color="#D3E9FF"/>
<stop offset="1" stop-color="#E9FFFF"/>
</linearGradient>
<linearGradient id="paint12_linear_32_404" x1="212.21" y1="192.17" x2="183.71" y2="192.17" gradientUnits="userSpaceOnUse">
<stop stop-color="#C0D6FF"/>
<stop offset="0.3" stop-color="#C5DBFF"/>
<stop offset="0.65" stop-color="#D3E9FF"/>
<stop offset="1" stop-color="#E9FFFF"/>
</linearGradient>
<linearGradient id="paint13_linear_32_404" x1="183.71" y1="181.74" x2="176.07" y2="181.74" gradientUnits="userSpaceOnUse">
<stop stop-color="#E9FFFF"/>
<stop offset="0.35" stop-color="#D3E9FF"/>
<stop offset="0.7" stop-color="#C5DBFF"/>
<stop offset="1" stop-color="#C0D6FF"/>
</linearGradient>
<linearGradient id="paint14_linear_32_404" x1="233.07" y1="188.35" x2="212.21" y2="188.35" gradientUnits="userSpaceOnUse">
<stop stop-color="#5778FF"/>
<stop offset="0.18" stop-color="#5C7DFF"/>
<stop offset="0.39" stop-color="#6A8AFF"/>
<stop offset="0.61" stop-color="#82A0FF"/>
<stop offset="0.85" stop-color="#A3BEFF"/>
<stop offset="1" stop-color="#BCD5FF"/>
</linearGradient>
<linearGradient id="paint15_linear_32_404" x1="277.95" y1="214.73" x2="220.95" y2="214.73" gradientUnits="userSpaceOnUse">
<stop stop-color="#C0D6FF"/>
<stop offset="0.3" stop-color="#C5DBFF"/>
<stop offset="0.65" stop-color="#D3E9FF"/>
<stop offset="1" stop-color="#E9FFFF"/>
</linearGradient>
<linearGradient id="paint16_linear_32_404" x1="261.597" y1="163.36" x2="240.782" y2="199.577" gradientUnits="userSpaceOnUse">
<stop stop-color="#C0D6FF"/>
<stop offset="0.3" stop-color="#C5DBFF"/>
<stop offset="0.65" stop-color="#D3E9FF"/>
<stop offset="1" stop-color="#E9FFFF"/>
</linearGradient>
<linearGradient id="paint17_linear_32_404" x1="257.09" y1="222.96" x2="228.59" y2="222.96" gradientUnits="userSpaceOnUse">
<stop stop-color="#C0D6FF"/>
<stop offset="0.3" stop-color="#C5DBFF"/>
<stop offset="0.65" stop-color="#D3E9FF"/>
<stop offset="1" stop-color="#E9FFFF"/>
</linearGradient>
<linearGradient id="paint18_linear_32_404" x1="228.59" y1="212.53" x2="220.95" y2="212.53" gradientUnits="userSpaceOnUse">
<stop stop-color="#E9FFFF"/>
<stop offset="0.35" stop-color="#D3E9FF"/>
<stop offset="0.7" stop-color="#C5DBFF"/>
<stop offset="1" stop-color="#C0D6FF"/>
</linearGradient>
<linearGradient id="paint19_linear_32_404" x1="277.95" y1="219.14" x2="257.09" y2="219.14" gradientUnits="userSpaceOnUse">
<stop stop-color="#5778FF"/>
<stop offset="0.18" stop-color="#5C7DFF"/>
<stop offset="0.39" stop-color="#6A8AFF"/>
<stop offset="0.61" stop-color="#82A0FF"/>
<stop offset="0.85" stop-color="#A3BEFF"/>
<stop offset="1" stop-color="#BCD5FF"/>
</linearGradient>
<linearGradient id="paint20_linear_32_404" x1="322.83" y1="249.4" x2="265.83" y2="249.4" gradientUnits="userSpaceOnUse">
<stop stop-color="#C0D6FF"/>
<stop offset="0.3" stop-color="#C5DBFF"/>
<stop offset="0.65" stop-color="#D3E9FF"/>
<stop offset="1" stop-color="#E9FFFF"/>
</linearGradient>
<linearGradient id="paint21_linear_32_404" x1="306.689" y1="206.255" x2="285.874" y2="242.473" gradientUnits="userSpaceOnUse">
<stop stop-color="#C0D6FF"/>
<stop offset="0.3" stop-color="#C5DBFF"/>
<stop offset="0.65" stop-color="#D3E9FF"/>
<stop offset="1" stop-color="#E9FFFF"/>
</linearGradient>
<linearGradient id="paint22_linear_32_404" x1="301.97" y1="257.62" x2="273.47" y2="257.62" gradientUnits="userSpaceOnUse">
<stop stop-color="#C0D6FF"/>
<stop offset="0.3" stop-color="#C5DBFF"/>
<stop offset="0.65" stop-color="#D3E9FF"/>
<stop offset="1" stop-color="#E9FFFF"/>
</linearGradient>
<linearGradient id="paint23_linear_32_404" x1="273.47" y1="247.19" x2="265.83" y2="247.19" gradientUnits="userSpaceOnUse">
<stop stop-color="#E9FFFF"/>
<stop offset="0.35" stop-color="#D3E9FF"/>
<stop offset="0.7" stop-color="#C5DBFF"/>
<stop offset="1" stop-color="#C0D6FF"/>
</linearGradient>
<linearGradient id="paint24_linear_32_404" x1="322.83" y1="253.81" x2="301.97" y2="253.81" gradientUnits="userSpaceOnUse">
<stop stop-color="#5778FF"/>
<stop offset="0.18" stop-color="#5C7DFF"/>
<stop offset="0.39" stop-color="#6A8AFF"/>
<stop offset="0.61" stop-color="#82A0FF"/>
<stop offset="0.85" stop-color="#A3BEFF"/>
<stop offset="1" stop-color="#BCD5FF"/>
</linearGradient>
<linearGradient id="paint25_linear_32_404" x1="143.31" y1="70.71" x2="86.3101" y2="70.71" gradientUnits="userSpaceOnUse">
<stop stop-color="#C0D6FF"/>
<stop offset="0.3" stop-color="#C5DBFF"/>
<stop offset="0.65" stop-color="#D3E9FF"/>
<stop offset="1" stop-color="#E9FFFF"/>
</linearGradient>
<linearGradient id="paint26_linear_32_404" x1="126.329" y1="4.41" x2="105.515" y2="40.6275" gradientUnits="userSpaceOnUse">
<stop stop-color="#C0D6FF"/>
<stop offset="0.3" stop-color="#C5DBFF"/>
<stop offset="0.65" stop-color="#D3E9FF"/>
<stop offset="1" stop-color="#E9FFFF"/>
</linearGradient>
<linearGradient id="paint27_linear_32_404" x1="122.44" y1="78.93" x2="93.94" y2="78.93" gradientUnits="userSpaceOnUse">
<stop stop-color="#C0D6FF"/>
<stop offset="0.3" stop-color="#C5DBFF"/>
<stop offset="0.65" stop-color="#D3E9FF"/>
<stop offset="1" stop-color="#E9FFFF"/>
</linearGradient>
<linearGradient id="paint28_linear_32_404" x1="93.9401" y1="68.5" x2="86.3101" y2="68.5" gradientUnits="userSpaceOnUse">
<stop stop-color="#E9FFFF"/>
<stop offset="0.35" stop-color="#D3E9FF"/>
<stop offset="0.7" stop-color="#C5DBFF"/>
<stop offset="1" stop-color="#C0D6FF"/>
</linearGradient>
<linearGradient id="paint29_linear_32_404" x1="143.31" y1="75.12" x2="122.44" y2="75.12" gradientUnits="userSpaceOnUse">
<stop stop-color="#5778FF"/>
<stop offset="0.18" stop-color="#5C7DFF"/>
<stop offset="0.39" stop-color="#6A8AFF"/>
<stop offset="0.61" stop-color="#82A0FF"/>
<stop offset="0.85" stop-color="#A3BEFF"/>
<stop offset="1" stop-color="#BCD5FF"/>
</linearGradient>
<linearGradient id="paint30_linear_32_404" x1="188.19" y1="106.94" x2="131.19" y2="106.94" gradientUnits="userSpaceOnUse">
<stop stop-color="#C0D6FF"/>
<stop offset="0.3" stop-color="#C5DBFF"/>
<stop offset="0.65" stop-color="#D3E9FF"/>
<stop offset="1" stop-color="#E9FFFF"/>
</linearGradient>
<linearGradient id="paint31_linear_32_404" x1="171.421" y1="50.435" x2="150.607" y2="86.6526" gradientUnits="userSpaceOnUse">
<stop stop-color="#C0D6FF"/>
<stop offset="0.3" stop-color="#C5DBFF"/>
<stop offset="0.65" stop-color="#D3E9FF"/>
<stop offset="1" stop-color="#E9FFFF"/>
</linearGradient>
<linearGradient id="paint32_linear_32_404" x1="167.33" y1="115.16" x2="138.83" y2="115.16" gradientUnits="userSpaceOnUse">
<stop stop-color="#C0D6FF"/>
<stop offset="0.3" stop-color="#C5DBFF"/>
<stop offset="0.65" stop-color="#D3E9FF"/>
<stop offset="1" stop-color="#E9FFFF"/>
</linearGradient>
<linearGradient id="paint33_linear_32_404" x1="138.83" y1="104.73" x2="131.19" y2="104.73" gradientUnits="userSpaceOnUse">
<stop stop-color="#E9FFFF"/>
<stop offset="0.35" stop-color="#D3E9FF"/>
<stop offset="0.7" stop-color="#C5DBFF"/>
<stop offset="1" stop-color="#C0D6FF"/>
</linearGradient>
<linearGradient id="paint34_linear_32_404" x1="188.19" y1="111.35" x2="167.33" y2="111.35" gradientUnits="userSpaceOnUse">
<stop stop-color="#5778FF"/>
<stop offset="0.18" stop-color="#5C7DFF"/>
<stop offset="0.39" stop-color="#6A8AFF"/>
<stop offset="0.61" stop-color="#82A0FF"/>
<stop offset="0.85" stop-color="#A3BEFF"/>
<stop offset="1" stop-color="#BCD5FF"/>
</linearGradient>
<linearGradient id="paint35_linear_32_404" x1="233.07" y1="144.59" x2="176.07" y2="144.59" gradientUnits="userSpaceOnUse">
<stop stop-color="#C0D6FF"/>
<stop offset="0.3" stop-color="#C5DBFF"/>
<stop offset="0.65" stop-color="#D3E9FF"/>
<stop offset="1" stop-color="#E9FFFF"/>
</linearGradient>
<linearGradient id="paint36_linear_32_404" x1="216.514" y1="99.3" x2="195.699" y2="135.518" gradientUnits="userSpaceOnUse">
<stop stop-color="#C0D6FF"/>
<stop offset="0.3" stop-color="#C5DBFF"/>
<stop offset="0.65" stop-color="#D3E9FF"/>
<stop offset="1" stop-color="#E9FFFF"/>
</linearGradient>
<linearGradient id="paint37_linear_32_404" x1="212.21" y1="152.82" x2="183.71" y2="152.82" gradientUnits="userSpaceOnUse">
<stop stop-color="#C0D6FF"/>
<stop offset="0.3" stop-color="#C5DBFF"/>
<stop offset="0.65" stop-color="#D3E9FF"/>
<stop offset="1" stop-color="#E9FFFF"/>
</linearGradient>
<linearGradient id="paint38_linear_32_404" x1="183.71" y1="142.38" x2="176.07" y2="142.38" gradientUnits="userSpaceOnUse">
<stop stop-color="#E9FFFF"/>
<stop offset="0.35" stop-color="#D3E9FF"/>
<stop offset="0.7" stop-color="#C5DBFF"/>
<stop offset="1" stop-color="#C0D6FF"/>
</linearGradient>
<linearGradient id="paint39_linear_32_404" x1="233.07" y1="149" x2="212.21" y2="149" gradientUnits="userSpaceOnUse">
<stop stop-color="#5778FF"/>
<stop offset="0.18" stop-color="#5C7DFF"/>
<stop offset="0.39" stop-color="#6A8AFF"/>
<stop offset="0.61" stop-color="#82A0FF"/>
<stop offset="0.85" stop-color="#A3BEFF"/>
<stop offset="1" stop-color="#BCD5FF"/>
</linearGradient>
<linearGradient id="paint40_linear_32_404" x1="277.95" y1="175.38" x2="220.95" y2="175.38" gradientUnits="userSpaceOnUse">
<stop stop-color="#C0D6FF"/>
<stop offset="0.3" stop-color="#C5DBFF"/>
<stop offset="0.65" stop-color="#D3E9FF"/>
<stop offset="1" stop-color="#E9FFFF"/>
</linearGradient>
<linearGradient id="paint41_linear_32_404" x1="261.597" y1="134.44" x2="240.782" y2="170.658" gradientUnits="userSpaceOnUse">
<stop stop-color="#C0D6FF"/>
<stop offset="0.3" stop-color="#C5DBFF"/>
<stop offset="0.65" stop-color="#D3E9FF"/>
<stop offset="1" stop-color="#E9FFFF"/>
</linearGradient>
<linearGradient id="paint42_linear_32_404" x1="254.707" y1="138.4" x2="240.735" y2="162.71" gradientUnits="userSpaceOnUse">
<stop stop-color="#5778FF"/>
<stop offset="0.18" stop-color="#5C7DFF"/>
<stop offset="0.39" stop-color="#6A8AFF"/>
<stop offset="0.61" stop-color="#82A0FF"/>
<stop offset="0.85" stop-color="#A3BEFF"/>
<stop offset="1" stop-color="#BCD5FF"/>
</linearGradient>
<linearGradient id="paint43_linear_32_404" x1="257.09" y1="183.6" x2="228.59" y2="183.6" gradientUnits="userSpaceOnUse">
<stop stop-color="#C0D6FF"/>
<stop offset="0.3" stop-color="#C5DBFF"/>
<stop offset="0.65" stop-color="#D3E9FF"/>
<stop offset="1" stop-color="#E9FFFF"/>
</linearGradient>
<linearGradient id="paint44_linear_32_404" x1="228.59" y1="173.17" x2="220.95" y2="173.17" gradientUnits="userSpaceOnUse">
<stop stop-color="#E9FFFF"/>
<stop offset="0.35" stop-color="#D3E9FF"/>
<stop offset="0.7" stop-color="#C5DBFF"/>
<stop offset="1" stop-color="#C0D6FF"/>
</linearGradient>
<linearGradient id="paint45_linear_32_404" x1="277.95" y1="179.78" x2="257.09" y2="179.78" gradientUnits="userSpaceOnUse">
<stop stop-color="#5778FF"/>
<stop offset="0.18" stop-color="#5C7DFF"/>
<stop offset="0.39" stop-color="#6A8AFF"/>
<stop offset="0.61" stop-color="#82A0FF"/>
<stop offset="0.85" stop-color="#A3BEFF"/>
<stop offset="1" stop-color="#BCD5FF"/>
</linearGradient>
<linearGradient id="paint46_linear_32_404" x1="277.95" y1="131.83" x2="220.95" y2="131.83" gradientUnits="userSpaceOnUse">
<stop stop-color="#C0D6FF"/>
<stop offset="0.3" stop-color="#C5DBFF"/>
<stop offset="0.65" stop-color="#D3E9FF"/>
<stop offset="1" stop-color="#E9FFFF"/>
</linearGradient>
<linearGradient id="paint47_linear_32_404" x1="261.597" y1="107.86" x2="240.782" y2="144.078" gradientUnits="userSpaceOnUse">
<stop stop-color="#C0D6FF"/>
<stop offset="0.3" stop-color="#C5DBFF"/>
<stop offset="0.65" stop-color="#D3E9FF"/>
<stop offset="1" stop-color="#E9FFFF"/>
</linearGradient>
<linearGradient id="paint48_linear_32_404" x1="257.09" y1="140.06" x2="228.59" y2="140.06" gradientUnits="userSpaceOnUse">
<stop stop-color="#C0D6FF"/>
<stop offset="0.3" stop-color="#C5DBFF"/>
<stop offset="0.65" stop-color="#D3E9FF"/>
<stop offset="1" stop-color="#E9FFFF"/>
</linearGradient>
<linearGradient id="paint49_linear_32_404" x1="228.59" y1="129.62" x2="220.95" y2="129.62" gradientUnits="userSpaceOnUse">
<stop stop-color="#E9FFFF"/>
<stop offset="0.35" stop-color="#D3E9FF"/>
<stop offset="0.7" stop-color="#C5DBFF"/>
<stop offset="1" stop-color="#C0D6FF"/>
</linearGradient>
<linearGradient id="paint50_linear_32_404" x1="277.95" y1="136.24" x2="257.09" y2="136.24" gradientUnits="userSpaceOnUse">
<stop stop-color="#5778FF"/>
<stop offset="0.18" stop-color="#5C7DFF"/>
<stop offset="0.39" stop-color="#6A8AFF"/>
<stop offset="0.61" stop-color="#82A0FF"/>
<stop offset="0.85" stop-color="#A3BEFF"/>
<stop offset="1" stop-color="#BCD5FF"/>
</linearGradient>
<linearGradient id="paint51_linear_32_404" x1="322.83" y1="210.04" x2="265.83" y2="210.04" gradientUnits="userSpaceOnUse">
<stop stop-color="#C0D6FF"/>
<stop offset="0.3" stop-color="#C5DBFF"/>
<stop offset="0.65" stop-color="#D3E9FF"/>
<stop offset="1" stop-color="#E9FFFF"/>
</linearGradient>
<linearGradient id="paint52_linear_32_404" x1="306.689" y1="177.325" x2="285.87" y2="213.55" gradientUnits="userSpaceOnUse">
<stop stop-color="#C0D6FF"/>
<stop offset="0.3" stop-color="#C5DBFF"/>
<stop offset="0.65" stop-color="#D3E9FF"/>
<stop offset="1" stop-color="#E9FFFF"/>
</linearGradient>
<linearGradient id="paint53_linear_32_404" x1="301.97" y1="218.27" x2="273.47" y2="218.27" gradientUnits="userSpaceOnUse">
<stop stop-color="#C0D6FF"/>
<stop offset="0.3" stop-color="#C5DBFF"/>
<stop offset="0.65" stop-color="#D3E9FF"/>
<stop offset="1" stop-color="#E9FFFF"/>
</linearGradient>
<linearGradient id="paint54_linear_32_404" x1="273.47" y1="207.84" x2="265.83" y2="207.84" gradientUnits="userSpaceOnUse">
<stop stop-color="#E9FFFF"/>
<stop offset="0.35" stop-color="#D3E9FF"/>
<stop offset="0.7" stop-color="#C5DBFF"/>
<stop offset="1" stop-color="#C0D6FF"/>
</linearGradient>
<linearGradient id="paint55_linear_32_404" x1="322.83" y1="214.45" x2="301.97" y2="214.45" gradientUnits="userSpaceOnUse">
<stop stop-color="#5778FF"/>
<stop offset="0.18" stop-color="#5C7DFF"/>
<stop offset="0.39" stop-color="#6A8AFF"/>
<stop offset="0.61" stop-color="#82A0FF"/>
<stop offset="0.85" stop-color="#A3BEFF"/>
<stop offset="1" stop-color="#BCD5FF"/>
</linearGradient>
<linearGradient id="paint56_linear_32_404" x1="82.7264" y1="228.73" x2="119.992" y2="293.573" gradientUnits="userSpaceOnUse">
<stop stop-color="#C0D6FF"/>
<stop offset="0.3" stop-color="#C5DBFF"/>
<stop offset="0.65" stop-color="#D3E9FF"/>
<stop offset="1" stop-color="#E9FFFF"/>
</linearGradient>
<linearGradient id="paint57_linear_32_404" x1="81.18" y1="249.61" x2="146.97" y2="249.61" gradientUnits="userSpaceOnUse">
<stop offset="0.35" stop-color="#BCD5FF"/>
<stop offset="0.44" stop-color="#B5CFFF"/>
<stop offset="0.57" stop-color="#A3BEFF"/>
<stop offset="0.72" stop-color="#84A2FF"/>
<stop offset="0.88" stop-color="#5A7BFF"/>
<stop offset="0.89" stop-color="#5778FF"/>
</linearGradient>
<linearGradient id="paint58_linear_32_404" x1="81.7433" y1="218.235" x2="119.981" y2="284.769" gradientUnits="userSpaceOnUse">
<stop stop-color="#E9FFFF"/>
<stop offset="0.35" stop-color="#D3E9FF"/>
<stop offset="0.7" stop-color="#C5DBFF"/>
<stop offset="1" stop-color="#C0D6FF"/>
</linearGradient>
<linearGradient id="paint59_linear_32_404" x1="82.7264" y1="202.4" x2="119.992" y2="267.243" gradientUnits="userSpaceOnUse">
<stop stop-color="#C0D6FF"/>
<stop offset="0.3" stop-color="#C5DBFF"/>
<stop offset="0.65" stop-color="#D3E9FF"/>
<stop offset="1" stop-color="#E9FFFF"/>
</linearGradient>
<linearGradient id="paint60_linear_32_404" x1="81.18" y1="223.29" x2="146.97" y2="223.29" gradientUnits="userSpaceOnUse">
<stop offset="0.35" stop-color="#BCD5FF"/>
<stop offset="0.44" stop-color="#B5CFFF"/>
<stop offset="0.57" stop-color="#A3BEFF"/>
<stop offset="0.72" stop-color="#84A2FF"/>
<stop offset="0.88" stop-color="#5A7BFF"/>
<stop offset="0.89" stop-color="#5778FF"/>
</linearGradient>
<linearGradient id="paint61_linear_32_404" x1="81.752" y1="191.91" x2="119.986" y2="258.437" gradientUnits="userSpaceOnUse">
<stop stop-color="#E9FFFF"/>
<stop offset="0.35" stop-color="#D3E9FF"/>
<stop offset="0.7" stop-color="#C5DBFF"/>
<stop offset="1" stop-color="#C0D6FF"/>
</linearGradient>
<linearGradient id="paint62_linear_32_404" x1="119.66" y1="156.32" x2="136.59" y2="156.32" gradientUnits="userSpaceOnUse">
<stop stop-color="#5778FF"/>
<stop offset="0.07" stop-color="#5489FF"/>
<stop offset="0.28" stop-color="#4EB3FF"/>
<stop offset="0.48" stop-color="#49D4FF"/>
<stop offset="0.67" stop-color="#45ECFF"/>
<stop offset="0.85" stop-color="#43FAFF"/>
<stop offset="1" stop-color="#42FFFF"/>
</linearGradient>
<linearGradient id="paint63_linear_32_404" x1="144.37" y1="221.6" x2="154.22" y2="221.6" gradientUnits="userSpaceOnUse">
<stop stop-color="#5778FF"/>
<stop offset="0.07" stop-color="#5489FF"/>
<stop offset="0.28" stop-color="#4EB3FF"/>
<stop offset="0.48" stop-color="#49D4FF"/>
<stop offset="0.67" stop-color="#45ECFF"/>
<stop offset="0.85" stop-color="#43FAFF"/>
<stop offset="1" stop-color="#42FFFF"/>
</linearGradient>
<linearGradient id="paint64_linear_32_404" x1="156.88" y1="147.35" x2="158.44" y2="147.35" gradientUnits="userSpaceOnUse">
<stop stop-color="#5778FF"/>
<stop offset="0.07" stop-color="#5489FF"/>
<stop offset="0.28" stop-color="#4EB3FF"/>
<stop offset="0.48" stop-color="#49D4FF"/>
<stop offset="0.67" stop-color="#45ECFF"/>
<stop offset="0.85" stop-color="#43FAFF"/>
<stop offset="1" stop-color="#42FFFF"/>
</linearGradient>
<linearGradient id="paint65_linear_32_404" x1="134.17" y1="197.3" x2="159.09" y2="197.3" gradientUnits="userSpaceOnUse">
<stop stop-color="#5778FF"/>
<stop offset="0.07" stop-color="#5489FF"/>
<stop offset="0.28" stop-color="#4EB3FF"/>
<stop offset="0.48" stop-color="#49D4FF"/>
<stop offset="0.67" stop-color="#45ECFF"/>
<stop offset="0.85" stop-color="#43FAFF"/>
<stop offset="1" stop-color="#42FFFF"/>
</linearGradient>
<linearGradient id="paint66_linear_32_404" x1="158.08" y1="169.88" x2="164.63" y2="169.88" gradientUnits="userSpaceOnUse">
<stop stop-color="#5778FF"/>
<stop offset="0.07" stop-color="#5489FF"/>
<stop offset="0.28" stop-color="#4EB3FF"/>
<stop offset="0.48" stop-color="#49D4FF"/>
<stop offset="0.67" stop-color="#45ECFF"/>
<stop offset="0.85" stop-color="#43FAFF"/>
<stop offset="1" stop-color="#42FFFF"/>
</linearGradient>
<linearGradient id="paint67_linear_32_404" x1="122.1" y1="216.96" x2="141.4" y2="216.96" gradientUnits="userSpaceOnUse">
<stop stop-color="#5778FF"/>
<stop offset="0.07" stop-color="#5489FF"/>
<stop offset="0.28" stop-color="#4EB3FF"/>
<stop offset="0.48" stop-color="#49D4FF"/>
<stop offset="0.67" stop-color="#45ECFF"/>
<stop offset="0.85" stop-color="#43FAFF"/>
<stop offset="1" stop-color="#42FFFF"/>
</linearGradient>
<linearGradient id="paint68_linear_32_404" x1="132.82" y1="211.26" x2="135.28" y2="211.26" gradientUnits="userSpaceOnUse">
<stop stop-color="#5778FF"/>
<stop offset="0.07" stop-color="#5489FF"/>
<stop offset="0.28" stop-color="#4EB3FF"/>
<stop offset="0.48" stop-color="#49D4FF"/>
<stop offset="0.67" stop-color="#45ECFF"/>
<stop offset="0.85" stop-color="#43FAFF"/>
<stop offset="1" stop-color="#42FFFF"/>
</linearGradient>
<linearGradient id="paint69_linear_32_404" x1="128.01" y1="207.05" x2="130.47" y2="207.05" gradientUnits="userSpaceOnUse">
<stop stop-color="#5778FF"/>
<stop offset="0.07" stop-color="#5489FF"/>
<stop offset="0.28" stop-color="#4EB3FF"/>
<stop offset="0.48" stop-color="#49D4FF"/>
<stop offset="0.67" stop-color="#45ECFF"/>
<stop offset="0.85" stop-color="#43FAFF"/>
<stop offset="1" stop-color="#42FFFF"/>
</linearGradient>
<linearGradient id="paint70_linear_32_404" x1="132.7" y1="186.86" x2="151.62" y2="186.86" gradientUnits="userSpaceOnUse">
<stop stop-color="#5778FF"/>
<stop offset="0.07" stop-color="#5489FF"/>
<stop offset="0.28" stop-color="#4EB3FF"/>
<stop offset="0.48" stop-color="#49D4FF"/>
<stop offset="0.67" stop-color="#45ECFF"/>
<stop offset="0.85" stop-color="#43FAFF"/>
<stop offset="1" stop-color="#42FFFF"/>
</linearGradient>
<clipPath id="clip0_32_404">
<rect width="332.49" height="286.47" fill="white"/>
</clipPath>
</defs>
</svg>
