<svg xmlns="http://www.w3.org/2000/svg" fill="none" viewBox="0 0 25 25">
    <path fill="#fff"
        d="M3.836 4.329a20.616 20.616 0 0 1 5.09-1.579.077.077 0 0 1 .08.039c.22.39.464.9.635 1.302a19.033 19.033 0 0 1 5.715 0c.17-.41.423-.911.643-1.302a.08.08 0 0 1 .082-.039c1.786.308 3.495.847 5.089 1.579a.072.072 0 0 1 .033.028c3.241 4.842 4.13 9.566 3.694 14.23a.086.086 0 0 1-.033.058 20.735 20.735 0 0 1-6.242 3.156.08.08 0 0 1-.088-.029 14.723 14.723 0 0 1-1.277-2.077.08.08 0 0 1 .043-.11 13.65 13.65 0 0 0 1.95-.93.08.08 0 0 0 .008-.133 10.68 10.68 0 0 1-.387-.303.077.077 0 0 0-.08-.011c-4.092 1.868-8.522 1.868-12.565 0a.077.077 0 0 0-.082.01 9.938 9.938 0 0 1-.388.304.08.08 0 0 0 .007.133c.623.364 1.27.672 1.951.929a.08.08 0 0 1 .042.111 16.64 16.64 0 0 1-1.276 2.076.08.08 0 0 1-.087.03A20.666 20.666 0 0 1 .14 18.646a.08.08 0 0 1-.032-.058C-.414 13.195.98 8.51 3.804 4.358a.064.064 0 0 1 .032-.03Zm12.81 11.418c1.232 0 2.247-1.131 2.247-2.52s-.996-2.52-2.247-2.52c-1.262 0-2.267 1.141-2.247 2.52 0 1.389.995 2.52 2.247 2.52Zm-8.307 0c1.232 0 2.246-1.131 2.246-2.52s-.995-2.52-2.246-2.52c-1.262 0-2.267 1.141-2.247 2.52 0 1.389.985 2.52 2.247 2.52Z" />
</svg>