<svg xmlns="http://www.w3.org/2000/svg" viewBox="0 0 32 32">
    <g fill="none" fill-rule="evenodd">
        <path d="M0 0h32v32H0z" />
        <path fill="#f8f8f8"
            d="m19 1.732 7.856 4.536a6 6 0 0 1 3 5.196v9.072a6 6 0 0 1-3 5.196L19 30.268a6 6 0 0 1-6 0l-7.856-4.536a6 6 0 0 1-3-5.196v-9.072a6 6 0 0 1 3-5.196L13 1.732a6 6 0 0 1 6 0zm4.02 9.825a1 1 0 0 0-1.352-.413l-5.68 3.019-5.679-3.02a1 1 0 0 0-.939 1.767l5.618 2.987v6.769a1 1 0 1 0 2 0v-6.77l5.619-2.986a1 1 0 0 0 .413-1.353z" />
    </g>
</svg>