<svg xmlns="http://www.w3.org/2000/svg" fill="none" viewBox="0 0 24 24">
    <path fill="#fff" fill-rule="evenodd"
        d="M2.512 10.849c5.906-2.573 9.844-4.27 11.814-5.089 5.626-2.34 6.795-2.746 7.557-2.76.168-.003.542.039.785.236.205.166.261.39.288.548.027.158.06.517.034.798-.305 3.203-1.624 10.976-2.295 14.564-.284 1.518-.843 2.027-1.384 2.077-1.177.108-2.07-.777-3.21-1.524-1.782-1.169-2.79-1.897-4.52-3.037-2-1.318-.704-2.042.436-3.226.298-.31 5.482-5.025 5.582-5.453.012-.053.024-.252-.094-.358-.119-.105-.294-.069-.42-.04-.179.04-3.027 1.923-8.545 5.648-.808.555-1.54.825-2.197.811-.723-.016-2.114-.409-3.149-.745-1.268-.412-2.276-.63-2.189-1.33.046-.366.548-.739 1.507-1.12Z"
        clip-rule="evenodd" />
</svg>