<svg xmlns="http://www.w3.org/2000/svg" fill="none" viewBox="0 0 1070 880">
    <path fill="#fff"
        d="M1001.95 431.03a381.252 381.252 0 0 1-111.64 269.554 381.127 381.127 0 0 1-123.654 82.63 381.058 381.058 0 0 1-145.858 29.009h-4.02a380.297 380.297 0 0 1-162.69-39.488 380.362 380.362 0 0 1-129.979-105.529h138.39a33.271 33.271 0 0 0 23.528-9.748 33.283 33.283 0 0 0 0-47.064 33.27 33.27 0 0 0-23.528-9.747H192.123l22.959-22.964c.19-.171.366-.356.528-.554l.221-.278.527-.666a12.901 12.901 0 0 0 2.551-7.682 12.842 12.842 0 0 0-2.413-7.432 13.446 13.446 0 0 0-1.414-1.692l-6.211-6.24-19.021-19.025h164.316a33.27 33.27 0 0 0 23.528-9.747 33.285 33.285 0 0 0 0-47.065 33.267 33.267 0 0 0-23.528-9.748H101.647l58.645-58.655a13.346 13.346 0 0 0 2.909-14.578 13.346 13.346 0 0 0-2.909-4.336l-55.456-55.466h192.016a33.28 33.28 0 0 0 0-66.56H164.091l26.119-26.126a12.979 12.979 0 0 0 0-18.331l-22.182-22.186h288.371a33.267 33.267 0 0 0 23.528-9.748 33.283 33.283 0 0 0 0-47.065 33.27 33.27 0 0 0-23.528-9.747h-72.98a379.496 379.496 0 0 1 239.792-84.864h7.375a381.115 381.115 0 0 1 263.179 115.031A381.268 381.268 0 0 1 1001.95 431.03Z" />
    <path fill="#fff"
        d="m195.589 573.106-11.479 11.482-13.697 13.7a6.49 6.49 0 0 1-9.151 0l-25.205-25.182a6.52 6.52 0 0 1 0-9.18l25.205-25.182a6.49 6.49 0 0 1 9.151 0l12.561 12.564 12.615 12.618a6.476 6.476 0 0 1 1.417 2.103 6.475 6.475 0 0 1-1.417 7.077ZM130.762 408.067l-31.999 31.92-23.485 23.296a11.672 11.672 0 0 1-16.415 0L3.407 408.205a11.431 11.431 0 0 1-2.52-12.552 11.442 11.442 0 0 1 2.52-3.728l55.456-55.077a11.728 11.728 0 0 1 16.415 0l24.955 24.96 30.501 30.228a11.428 11.428 0 0 1 .028 16.031ZM171.855 237.341l-11.48 11.48-13.698 13.867a6.487 6.487 0 0 1-9.15 0l-25.204-25.209a6.49 6.49 0 0 1 0-9.151l25.204-25.211a6.49 6.49 0 0 1 9.15 0l12.561 12.564 12.617 12.647a6.435 6.435 0 0 1 0 9.013ZM104.226 526.764l-8.623 4.769-10.26 5.713a3.935 3.935 0 0 1-5.351-1.524L69.51 516.808a3.914 3.914 0 0 1 1.526-5.353l18.91-10.482a3.9 3.9 0 0 1 4.338.357c.402.321.737.717.986 1.167l5.241 9.429 5.24 9.485a3.94 3.94 0 0 1-1.525 5.353ZM265.52 95.125l4.741 19.413 5.546 23.02a7.933 7.933 0 0 1-5.796 9.567l-42.313 10.4a7.906 7.906 0 0 1-5.984-.914 7.91 7.91 0 0 1-3.582-4.882l-10.398-42.322a7.957 7.957 0 0 1 5.823-9.567l21.073-5.186 21.212-5.187a7.903 7.903 0 0 1 9.678 5.658ZM85.399 292.281l-5.74.72-6.821.832a2.297 2.297 0 0 1-2.551-1.996l-1.553-12.564a2.3 2.3 0 0 1 1.17-2.276c.264-.147.554-.241.854-.275l12.533-1.553a2.296 2.296 0 0 1 1.695.483 2.307 2.307 0 0 1 .857 1.541l.776 6.24.776 6.295a2.278 2.278 0 0 1-.464 1.695 2.275 2.275 0 0 1-1.532.858ZM209.066 729.383l-17.136-3.384-20.464-4.049a6.97 6.97 0 0 1-4.476-2.935 6.949 6.949 0 0 1-1.069-5.246l7.431-37.606a6.953 6.953 0 0 1 5.549-5.583 6.96 6.96 0 0 1 2.769.036l37.599 7.432a7.022 7.022 0 0 1 5.565 5.556c.177.913.17 1.853-.019 2.764l-3.715 18.748-3.744 18.858a6.934 6.934 0 0 1-8.29 5.409ZM1051.97 431.029v6.851c0 2.274 0 5.213-.2 7.82 0 1.405-.05 2.819-.16 4.243a407.14 407.14 0 0 1-1.67 23.657l-.41 4.076c0 .86-.17 1.72-.28 2.58-.3 2.773-.64 5.379-1 8.042-.36 2.662-.72 5.353-1.13 8.015-.34 2.247-.7 4.466-1.08 6.684-.28 1.803-.59 3.605-.95 5.407-.36 1.803-.58 3.245-.89 4.854-1.63 8.569-3.52 16.972-5.54 25.32-.42 1.664-.86 3.356-1.3 4.993-.67 2.523-1.36 4.963-2.08 7.431-.89 3.162-1.86 6.324-2.78 9.458-.66 2.163-1.36 4.353-2.08 6.489-.86 2.634-1.74 5.27-2.77 7.877-1.02 2.607-1.86 5.242-2.77 7.793-.33.915-.69 1.831-1.05 2.773a376.53 376.53 0 0 1-6.44 15.863c-.52 1.276-1.08 2.524-1.63 3.8-.56 1.276-1.42 3.161-2.14 4.742-.72 1.581-1.41 3.134-2.16 4.687-1 2.145-2.03 4.28-3.08 6.406-.11.276-.24.545-.39.805a324.76 324.76 0 0 1-3.24 6.462c-1.42 2.773-2.78 5.547-4.38 8.32-1.612 2.773-2.998 5.546-4.523 8.32l-3.244 5.546-3.328 5.547c-1.331 2.219-2.772 4.41-4.076 6.573-1.857 2.912-3.743 5.823-5.545 8.652a331.831 331.831 0 0 1-4.409 6.462c-1.497 2.135-2.773 4.188-4.408 6.24-1.636 2.052-2.773 3.882-4.271 5.796-1.497 1.913-2.773 3.827-4.353 5.713l-2.495 3.19a245.631 245.631 0 0 1-5.075 6.323c-1.774 2.163-3.577 4.353-5.379 6.433-2.274 2.774-4.575 5.326-6.932 7.96l-.554.638a347.931 347.931 0 0 1-6.821 7.378.526.526 0 0 1-.167.193 359.458 359.458 0 0 1-7.126 7.405l-.138.139c-2.357 2.385-4.77 4.743-7.182 7.1l-.443.416c-1.415 1.359-2.773 2.773-4.271 4.049-1.497 1.275-2.468 2.302-3.688 3.411-1.22 1.109-2.468 2.246-3.716 3.355l-3.715 3.301a193.618 193.618 0 0 1-3.715 3.217c-2.44 2.08-4.88 4.132-7.348 6.156-4.769 3.883-9.594 7.682-14.502 11.315a279.92 279.92 0 0 1-4.935 3.662c-1.636 1.193-2.773 1.996-4.132 2.967l-1.054.749-4.491 3.106c-5.546 3.827-11.286 7.544-17.026 11.094l-5.268 3.216-7.209 4.215-.86.5-6.266 3.494a312.335 312.335 0 0 1-5.879 3.162l-4.519 2.357-4.548 2.302-4.187 2.052a407.401 407.401 0 0 1-9.261 4.355l-4.686 2.107-5.324 2.302-1.94.831-7.293 2.969a390.767 390.767 0 0 1-9.455 3.633c-1.387.527-2.773 1.082-4.215 1.553l-5.323 1.858a140.601 140.601 0 0 1-4.908 1.663l-6.295 2.026-6.35 1.94-.637.194-5.74 1.637c-1.997.61-3.993 1.109-6.017 1.636l-4.908 1.276-5.712 1.386c-1.848.481-3.762.925-5.74 1.331l-4.491.971c-2.385.527-4.798.999-7.182 1.442l-4.076.776-4.797.86-4.797.805c-3.216.527-6.46.998-9.705 1.442l-5.268.693c-2.773.333-5.545.667-8.318.944-2.773.277-4.881.499-7.321.72-3.697.333-7.329.61-10.897.832-1.497 0-2.967.195-4.464.25l-6.488.305-5.546.194h-21.711l-5.545-.194-6.71-.305-6.211-.388c-3.661-.25-7.293-.5-10.898-.86l-2.495-.249-5.213-.556c-4.049-.443-8.069-.915-12.089-1.497l-6.517-.971a410.821 410.821 0 0 1-9.898-1.691c-2.773-.5-5.546-1.026-8.319-1.581h-.222l-8.318-1.775h-.555l-.665-.167-7.597-1.774-.694-.166a351.441 351.441 0 0 1-7.764-1.998l-3.438-.915-3.438-.971h-.139l-2.773-.803h-.194c-2.329-.666-4.631-1.387-6.96-2.108a492.927 492.927 0 0 1-8.068-2.58l-2.773-.887a220.661 220.661 0 0 1-5.546-1.913l-5.379-1.942a289.72 289.72 0 0 1-12.062-4.659l-5.184-2.108-5.546-2.413-5.546-2.44-5.545-2.523-5.546-2.608c-1.996-.971-3.993-1.941-5.99-2.967l-4.713-2.718-5.296-2.773a242.863 242.863 0 0 0-5.269-2.774l-5.212-2.967-5.186-3.023c-1.691-1.027-3.41-2.024-5.101-3.106-1.692-1.081-3.411-2.08-5.102-3.161a478.949 478.949 0 0 1-10.011-6.545l-4.352-2.968a417.81 417.81 0 0 1-15.085-10.899 267.539 267.539 0 0 1-4.741-3.633l-3.826-3.024a768.874 768.874 0 0 1-5.546-4.436l-2.524-2.108a694.767 694.767 0 0 1-6.571-5.547l-4.464-3.966a178.248 178.248 0 0 1-4.409-3.994c-1.469-1.303-2.773-2.773-4.353-4.049l-4.298-4.131c-1.442-1.387-2.773-2.774-4.243-4.189-1.469-1.414-2.772-2.772-4.187-4.242a381.705 381.705 0 0 1-10.287-10.9l-.332-.389a54.946 54.946 0 0 1-2.052-2.273l-1.553-1.747a444.242 444.242 0 0 1-5.823-6.711c-1.303-1.498-2.578-3.052-3.826-4.577-1.248-1.526-2.524-3.079-3.771-4.632a323.223 323.223 0 0 1-4.742-6.017c-.887-1.138-1.746-2.218-2.606-3.383l-3.577-4.771a14.9 14.9 0 0 1-.638-4.354 15.613 15.613 0 0 1 15.611-15.614h17.136A393.914 393.914 0 0 0 492.77 804.167a393.84 393.84 0 0 0 232.193 7.04 393.891 393.891 0 0 0 195.782-125.053A394.076 394.076 0 0 0 1012.03 472.5a394.034 394.034 0 0 0-44.971-227.948A393.94 393.94 0 0 0 801.483 81.587a393.84 393.84 0 0 0-228.599-41.304 393.872 393.872 0 0 0-212.119 94.721h-18.772a15.321 15.321 0 0 1-14.2-9.415 15.342 15.342 0 0 1-1.189-5.865 13.375 13.375 0 0 1 .361-3.189c.038-.283.103-.562.194-.833.052-.244.116-.484.194-.72 0-.278.194-.583.305-.86l.139-.305a324.851 324.851 0 0 1 6.488-5.853 169.873 169.873 0 0 1 4.741-4.131l2.552-2.191 4.159-3.467.166-.138c.694-.61 1.414-1.166 2.135-1.748l1.414-1.136.472-.389c.943-.776 1.858-1.525 2.773-2.246.166-.14.36-.25.526-.416l.971-.778a.77.77 0 0 1 .249-.193 225.14 225.14 0 0 1 6.239-4.825l.915-.693c1.913-1.442 3.855-2.774 5.796-4.271A33.251 33.251 0 0 1 369 80.204a171.012 171.012 0 0 1 5.352-3.771c.777-.583 1.553-1.11 2.357-1.664a173.553 173.553 0 0 1 4.409-2.967l.304-.195c1.137-.805 2.33-1.526 3.494-2.302a130.873 130.873 0 0 1 3.3-2.136 121.21 121.21 0 0 1 4.714-2.967l2.495-1.525.61-.361a67.127 67.127 0 0 1 3.549-2.136c1.193-.665 3.161-1.913 4.77-2.773l1.469-.859c1.858-1.081 3.743-2.136 5.546-3.162a122.263 122.263 0 0 1 4.658-2.524l.444-.249c1.165-.638 2.329-1.275 3.494-1.858h.193l1.637-.86 5.739-2.94a399.696 399.696 0 0 1 9.206-4.437c2.246-1.082 4.492-2.08 6.738-3.107l1.026-.47.305-.139 6.183-2.773 2.191-.944c2.495-1.026 4.963-2.051 7.486-3.05a128.318 128.318 0 0 1 5.74-2.246l2.551-.971c2.107-.805 4.242-1.58 6.377-2.33l3.217-1.137 7.265-2.44c1.996-.666 3.992-1.276 6.016-1.914l3.661-1.137 7.153-2.108h.305l8.679-2.357h.277a474.919 474.919 0 0 1 8.485-2.08c2.94-.693 5.879-1.36 8.845-1.997l7.764-1.609 3.217-.61 6.848-1.22c2.773-.498 5.546-.942 8.485-1.386l.999-.14 6.765-.942h.471c.583 0 1.165-.167 1.748-.195l1.192-.194a353.58 353.58 0 0 1 7.597-.86c2.523-.249 5.546-.582 8.319-.804h.915l4.436-.36h.887l3.134-.194c1.969-.138 3.909-.278 5.878-.361l5.879-.276L609.319 0H629.949c2.468 0 4.935.138 7.375.25a.39.39 0 0 1 .25 0h3.965l3.549.193 3.633.222c1.857 0 3.715.25 5.545.444h1.608l1.747.138c2.607.222 5.213.472 7.82.749l1.247.14c3.55.388 7.071.804 10.565 1.275 2.468.36 4.935.665 7.375 1.054 2.44.388 4.963.777 7.431 1.193.319.038.635.102.943.193.634.064 1.264.165 1.885.305 4.742.804 9.484 1.72 14.17 2.773l3.188.667a438.613 438.613 0 0 1 17.108 4.104l4.687 1.276c.582.138 1.192.305 1.774.5l3.078.86c2.329.665 4.631 1.33 6.932 2.05 2.302.722 5.157 1.609 7.736 2.441l.748.25a233.28 233.28 0 0 1 5.768 1.941l1.248.444 2.772.998 3.079 1.11 4.88 1.803a315.003 315.003 0 0 1 11.951 4.742c2.356.97 4.685 1.941 7.014 2.967l2.08.887 4.686 2.109c6.489 2.94 12.894 6.018 19.188 9.29l3.133 1.636c1.691.888 3.383 1.775 5.074 2.774l2.385 1.304a194.15 194.15 0 0 1 4.658 2.606l5.546 3.19c2.19 1.275 4.381 2.58 6.544 3.91l3.743 2.301 2.967 1.886a385.267 385.267 0 0 1 10.37 6.823c1.303.86 2.579 1.747 3.854 2.773a252.46 252.46 0 0 1 6.239 4.41 174.576 174.576 0 0 1 4.548 3.328l3.604 2.773c3.3 2.468 6.571 5.047 9.788 7.627l4.659 3.8c2.772 2.301 5.545 4.714 8.318 7.126a90.561 90.561 0 0 1 3.993 3.495c1.331 1.165 2.772 2.33 3.965 3.578 1.746 1.609 3.466 3.161 5.157 4.769 1.692 1.609 3.078 2.912 4.603 4.41l2.578 2.497c.472.443.915.915 1.387 1.386a204.426 204.426 0 0 1 4.852 4.936l3.273 3.411c.115.088.217.19.304.305 2.468 2.579 4.881 5.159 7.21 7.793 1.22 1.331 2.44 2.773 3.632 4.049 1.193 1.276 1.747 1.998 2.579 2.968l2.773 3.245a105.001 105.001 0 0 1 2.772 3.327c.888 1.11 1.192 1.415 1.775 2.164.582.749 1.331 1.608 1.969 2.44.638.832 1.996 2.413 2.939 3.661.942 1.248 2.218 2.773 3.3 4.215 1.081 1.442 2.273 2.941 3.355 4.411a289.907 289.907 0 0 1 4.325 5.851 559.125 559.125 0 0 1 4.631 6.518c1.525 2.19 2.939 4.215 4.353 6.351 3.411 5.075 6.738 10.233 9.927 15.502a197.806 197.806 0 0 1 3.438 5.74 390.052 390.052 0 0 1 8.736 15.504c1.14 2.108 2.24 4.216 3.33 6.351 1.08 2.136 2.32 4.52 3.41 6.822.86 1.72 1.69 3.412 2.49 5.131 2.33 4.863 4.57 9.799 6.71 14.809.78 1.775 1.55 3.578 2.28 5.38.27.583.49 1.193.74 1.803a102.52 102.52 0 0 1 1.67 4.188c.52 1.415 1.05 2.579 1.52 3.883.2.554.42 1.109.64 1.664a204.67 204.67 0 0 1 5.02 13.866c.28.832.58 1.664.86 2.523.83 2.413 1.61 4.827 2.36 7.24.38 1.192.74 2.44 1.1 3.604 1.45 4.678 2.81 9.402 4.08 14.172.19.693.39 1.415.56 2.108a243.79 243.79 0 0 1 1.71 6.683c.23.776.42 1.582.59 2.386a432.22 432.22 0 0 1 12.67 100.255Z" />
</svg>