<svg xmlns="http://www.w3.org/2000/svg" fill="none" viewBox="0 0 1070 880">
    <path fill="url(#a)"
        d="M1018.56 438.174a387.497 387.497 0 0 1-29.497 148.302 387.508 387.508 0 0 1-83.994 125.721 387.409 387.409 0 0 1-273.98 113.491h-4.087a386.594 386.594 0 0 1-165.387-40.143 386.676 386.676 0 0 1-132.134-107.278h140.684a33.831 33.831 0 0 0 0-67.664H195.307l23.339-23.344a5 5 0 0 0 .536-.563l.225-.282.536-.678a13.11 13.11 0 0 0 2.594-7.809 13.057 13.057 0 0 0-2.453-7.555 13.592 13.592 0 0 0-1.438-1.721l-6.314-6.343-19.336-19.34h167.04a33.824 33.824 0 0 0 23.918-9.909 33.839 33.839 0 0 0 0-47.846 33.824 33.824 0 0 0-23.918-9.909H103.331l59.616-59.628a13.561 13.561 0 0 0 0-19.227l-56.375-56.386h195.2a33.83 33.83 0 0 0 33.825-33.831 33.833 33.833 0 0 0-9.907-23.923 33.82 33.82 0 0 0-23.918-9.909H166.809l26.553-26.559a13.195 13.195 0 0 0 0-18.635l-22.55-22.555h293.152a33.823 33.823 0 0 0 33.825-33.831 33.833 33.833 0 0 0-9.907-23.923 33.82 33.82 0 0 0-23.918-9.909h-74.19a385.792 385.792 0 0 1 243.768-86.27h7.498a387.435 387.435 0 0 1 267.542 116.937 387.59 387.59 0 0 1 109.978 270.519Z" />
    <path fill="url(#b)"
        d="m198.83 582.605-11.669 11.673-13.925 13.927a6.596 6.596 0 0 1-9.302 0l-25.623-25.6a6.627 6.627 0 0 1 0-9.332l25.623-25.599a6.596 6.596 0 0 1 9.302 0l12.769 12.772 12.825 12.827a6.577 6.577 0 0 1 1.44 2.138 6.59 6.59 0 0 1 0 5.057 6.573 6.573 0 0 1-1.44 2.137Z" />
    <path fill="url(#c)"
        d="m132.93 414.836-32.529 32.449-23.875 23.682a11.865 11.865 0 0 1-16.687 0L3.464 414.976a11.617 11.617 0 0 1 0-16.55l56.375-55.991a11.924 11.924 0 0 1 8.344-3.407c3.12 0 6.114 1.224 8.343 3.407l25.369 25.374 31.006 30.73a11.617 11.617 0 0 1 .029 16.297Z" />
    <path fill="url(#d)"
        d="m174.7 241.276-11.67 11.67-13.925 14.097a6.595 6.595 0 0 1-9.302 0l-25.622-25.627a6.597 6.597 0 0 1 0-9.303l25.622-25.629a6.599 6.599 0 0 1 9.302 0l12.769 12.773 12.826 12.856a6.541 6.541 0 0 1 0 9.163Z" />
    <path fill="url(#e)"
        d="m105.956 535.498-8.766 4.848-10.43 5.808a4 4 0 0 1-5.44-1.55l-10.655-19.227a3.98 3.98 0 0 1 1.55-5.442l19.225-10.656a3.968 3.968 0 0 1 5.412 1.55l5.327 9.585 5.328 9.642a4.009 4.009 0 0 1-1.551 5.442Z" />
    <path fill="url(#f)"
        d="m269.921 96.698 4.82 19.735 5.638 23.401a8.064 8.064 0 0 1-5.892 9.726l-43.014 10.572a8.038 8.038 0 0 1-6.084-.929 8.033 8.033 0 0 1-3.641-4.963l-10.57-43.023a8.09 8.09 0 0 1 5.919-9.726l21.422-5.272 21.564-5.273a8.031 8.031 0 0 1 8.468 2.919 8.043 8.043 0 0 1 1.37 2.833Z" />
    <path fill="url(#g)"
        d="m86.819 297.129-5.835.732-6.934.845a2.337 2.337 0 0 1-2.593-2.029l-1.58-12.772a2.336 2.336 0 0 1 1.19-2.314c.268-.15.563-.245.868-.28l12.741-1.579a2.333 2.333 0 0 1 1.724.492 2.333 2.333 0 0 1 .87 1.566l.79 6.344.788 6.4a2.31 2.31 0 0 1-2.03 2.595Z" />
    <path fill="url(#h)"
        d="m212.528 741.476-17.42-3.44-20.803-4.116a7.09 7.09 0 0 1-4.551-2.984 7.077 7.077 0 0 1-1.087-5.333l7.555-38.229a7.084 7.084 0 0 1 3.034-4.611 7.065 7.065 0 0 1 5.422-1.028l38.223 7.555a7.14 7.14 0 0 1 4.589 3.049 7.122 7.122 0 0 1 1.048 5.409l-3.777 19.059-3.805 19.171a7.058 7.058 0 0 1-3.061 4.519 7.033 7.033 0 0 1-5.367.979Z" />
    <path fill="url(#i)"
        d="M1069.41 438.176v6.964c0 2.312 0 5.3-.19 7.95 0 1.428-.06 2.866-.17 4.313-.34 8.101-.9 16.118-1.69 24.049l-.43 4.144c0 .874-.16 1.748-.28 2.622-.31 2.82-.65 5.469-1.01 8.176-.37 2.707-.74 5.442-1.16 8.148-.34 2.284-.7 4.54-1.1 6.795a117.09 117.09 0 0 1-.96 5.497c-.36 1.833-.59 3.299-.9 4.934-1.66 8.711-3.58 17.254-5.64 25.74-.42 1.691-.87 3.412-1.32 5.075-.68 2.566-1.38 5.046-2.11 7.555-.91 3.214-1.89 6.429-2.82 9.614-.68 2.199-1.38 4.426-2.12 6.597-.87 2.678-1.77 5.358-2.82 8.008-1.04 2.65-1.88 5.328-2.81 7.922-.34.931-.71 1.861-1.08 2.82a362.088 362.088 0 0 1-6.54 16.125c-.53 1.297-1.09 2.566-1.66 3.863-.56 1.297-1.44 3.214-2.17 4.821-.73 1.607-1.44 3.185-2.2 4.764a242.578 242.578 0 0 1-3.13 6.513c-.11.28-.24.554-.39.818-1.07 2.199-2.17 4.37-3.3 6.569-1.44 2.819-2.82 5.639-4.45 8.458-1.64 2.819-3.05 5.638-4.6 8.458l-3.29 5.638-3.39 5.639c-1.35 2.255-2.82 4.483-4.14 6.682-1.89 2.96-3.807 5.92-5.639 8.795a336.685 336.685 0 0 1-4.481 6.569c-1.522 2.171-2.819 4.258-4.482 6.344-1.663 2.086-2.819 3.946-4.341 5.892-1.523 1.945-2.819 3.891-4.426 5.808l-2.537 3.243a249.826 249.826 0 0 1-5.158 6.427c-1.804 2.199-3.636 4.426-5.469 6.541-2.311 2.819-4.651 5.413-7.046 8.091l-.564.649a354.365 354.365 0 0 1-6.934 7.5.541.541 0 0 1-.169.196 363.708 363.708 0 0 1-7.245 7.528l-.14.141c-2.396 2.425-4.849 4.822-7.301 7.218l-.451.423c-1.437 1.381-2.819 2.819-4.341 4.116-1.522 1.297-2.509 2.34-3.749 3.467-1.24 1.128-2.509 2.284-3.778 3.412l-3.776 3.354a193.173 193.173 0 0 1-3.778 3.271 507.9 507.9 0 0 1-7.469 6.258c-4.848 3.947-9.753 7.81-14.742 11.503a289.366 289.366 0 0 1-5.018 3.723c-1.663 1.212-2.818 2.029-4.2 3.016l-1.071.761-4.566 3.158c-5.638 3.891-11.473 7.669-17.308 11.277l-5.355 3.27-7.329 4.285-.874.508-6.37 3.552a311.19 311.19 0 0 1-5.976 3.214l-4.594 2.397-4.624 2.34-4.256 2.086a410.343 410.343 0 0 1-9.415 4.427l-4.764 2.142-5.411 2.34-1.973.845-7.414 3.018a393.828 393.828 0 0 1-9.612 3.693c-1.409.536-2.819 1.1-4.284 1.579l-5.412 1.889a144.617 144.617 0 0 1-4.99 1.691l-6.398 2.059-6.455 1.973-.649.196-5.835 1.665c-2.029.62-4.058 1.127-6.116 1.663l-4.989 1.297-5.807 1.409c-1.879.489-3.825.94-5.835 1.353l-4.566.987a222.346 222.346 0 0 1-7.301 1.466l-4.144.789-4.876.874-4.877.818a375.339 375.339 0 0 1-9.865 1.466l-5.356.705c-2.819.338-5.637.678-8.456.96-2.819.281-4.961.506-7.442.732-3.758.338-7.451.62-11.078.845-1.522 0-3.016.198-4.538.255l-6.596.31-5.637.196h-22.071l-5.638-.196-6.821-.31-6.314-.395c-3.721-.254-7.414-.508-11.078-.874l-2.537-.254-5.3-.564c-4.115-.451-8.202-.931-12.289-1.523l-6.625-.987a414.558 414.558 0 0 1-10.062-1.719 447.375 447.375 0 0 1-8.456-1.607h-.226l-8.456-1.804h-.564l-.677-.17-7.723-1.803-.705-.169a361.647 361.647 0 0 1-7.892-2.031l-3.496-.93-3.495-.987h-.141l-2.819-.817h-.197c-2.368-.676-4.708-1.41-7.075-2.143a492.426 492.426 0 0 1-8.203-2.623l-2.818-.901a228.052 228.052 0 0 1-5.638-1.945l-5.468-1.975a292.615 292.615 0 0 1-12.262-4.735l-5.271-2.143-5.638-2.454-5.637-2.48-5.638-2.565-5.637-2.651c-2.03-.987-4.06-1.973-6.089-3.016l-4.792-2.763-5.384-2.82a244.128 244.128 0 0 0-5.356-2.819l-5.299-3.016-5.271-3.074c-1.719-1.043-3.467-2.057-5.186-3.157-1.72-1.099-3.467-2.114-5.187-3.214a485.456 485.456 0 0 1-10.176-6.653l-4.425-3.018a423.746 423.746 0 0 1-15.335-11.079c-1.606-1.212-3.213-2.424-4.82-3.693l-3.889-3.074a767.277 767.277 0 0 1-5.638-4.51l-2.565-2.143a692.814 692.814 0 0 1-6.68-5.639l-4.539-4.032a178.356 178.356 0 0 1-4.481-4.06c-1.494-1.325-2.819-2.819-4.426-4.116l-4.369-4.2c-1.466-1.409-2.819-2.82-4.313-4.257-1.494-1.438-2.819-2.819-4.256-4.313a386.068 386.068 0 0 1-10.458-11.081l-.338-.395a55.417 55.417 0 0 1-2.086-2.311l-1.578-1.776a438.305 438.305 0 0 1-5.92-6.823c-1.325-1.522-2.621-3.102-3.89-4.652-1.268-1.551-2.565-3.13-3.833-4.708a325.618 325.618 0 0 1-4.82-6.118c-.902-1.156-1.776-2.255-2.65-3.439l-3.636-4.85a15.147 15.147 0 0 1-.649-4.426 15.875 15.875 0 0 1 15.87-15.873h17.42A400.439 400.439 0 0 0 500.945 817.5a400.364 400.364 0 0 0 236.043 7.157 400.427 400.427 0 0 0 199.028-127.126 400.562 400.562 0 0 0 92.794-217.197 400.553 400.553 0 0 0-45.712-231.727A400.47 400.47 0 0 0 814.776 82.939a400.367 400.367 0 0 0-232.389-41.987 400.398 400.398 0 0 0-215.636 96.291h-19.083a15.584 15.584 0 0 1-14.436-9.572 15.592 15.592 0 0 1-1.208-5.962c-.009-1.091.115-2.18.366-3.242.039-.287.106-.571.198-.846.053-.248.118-.492.197-.733 0-.282.197-.592.31-.874l.141-.31a332.535 332.535 0 0 1 6.596-5.949 169.426 169.426 0 0 1 4.82-4.2l2.593-2.228 4.229-3.524.169-.14c.705-.62 1.437-1.185 2.17-1.778l1.437-1.155.48-.395c.958-.79 1.889-1.55 2.819-2.283.169-.141.366-.254.535-.423l.987-.79a.786.786 0 0 1 .253-.197c2.086-1.673 4.2-3.307 6.342-4.905l.931-.705c1.945-1.466 3.918-2.82 5.891-4.342.536-.394 1.071-.79 1.635-1.156a172.012 172.012 0 0 1 5.441-3.834c.789-.592 1.578-1.128 2.395-1.692 1.466-1.015 2.96-2.03 4.482-3.016l.31-.198c1.156-.818 2.368-1.551 3.552-2.34 1.183-.79 2.227-1.466 3.354-2.171a123.542 123.542 0 0 1 4.792-3.016l2.537-1.55.62-.368a68.074 68.074 0 0 1 3.608-2.171c1.212-.677 3.213-1.945 4.848-2.82l1.494-.872c1.889-1.1 3.806-2.171 5.638-3.214a124.78 124.78 0 0 1 4.735-2.566l.452-.254a107.097 107.097 0 0 1 3.551-1.888h.197l1.663-.875 5.835-2.988c3.101-1.55 6.23-3.045 9.359-4.511 2.283-1.1 4.566-2.115 6.849-3.158l1.043-.48.31-.14 6.286-2.82 2.227-.959c2.537-1.043 5.046-2.085 7.611-3.1 1.879-.79 3.824-1.55 5.835-2.284l2.593-.987a253.73 253.73 0 0 1 6.483-2.367l3.27-1.157 7.385-2.48c2.03-.677 4.059-1.297 6.117-1.945l3.721-1.157 7.272-2.143h.31l8.822-2.396h.282a482.09 482.09 0 0 1 8.626-2.114 462.478 462.478 0 0 1 8.992-2.03l7.893-1.636 3.269-.62 6.962-1.24c2.819-.507 5.638-.958 8.626-1.41l1.015-.141 6.878-.958h.479c.592 0 1.184-.17 1.776-.199l1.212-.196c2.565-.31 5.158-.62 7.723-.875 2.565-.253 5.638-.592 8.456-.817h.931l4.509-.366h.903l3.185-.197c2.002-.141 3.974-.283 5.976-.368l5.976-.28 5.637-.17h20.972c2.509 0 5.017.14 7.498.253a.392.392 0 0 1 .253 0h4.031l3.608.197 3.693.226c1.889 0 3.777.254 5.638.451h1.634l1.776.14c2.65.226 5.3.48 7.949.762l1.269.142c3.608.395 7.188.817 10.739 1.297 2.509.366 5.017.676 7.498 1.07 2.48.395 5.045.79 7.554 1.213.325.039.645.105.959.197a15.93 15.93 0 0 1 1.916.31c4.82.818 9.641 1.748 14.404 2.82l3.242.677a445.983 445.983 0 0 1 17.391 4.172l4.765 1.297c.592.14 1.211.31 1.803.508l3.13.874a290.18 290.18 0 0 1 7.046 2.086c2.34.733 5.243 1.634 7.864 2.48l.761.255c1.945.62 3.919 1.296 5.864 1.973l1.268.451 2.819 1.015 3.129 1.127 4.961 1.834a320.426 320.426 0 0 1 12.149 4.82 324.63 324.63 0 0 1 7.131 3.017l2.114.902 4.764 2.143c6.596 2.988 13.107 6.118 19.506 9.445l3.185 1.663c1.719.902 3.439 1.804 5.158 2.82l2.425 1.325a200.84 200.84 0 0 1 4.735 2.65l5.638 3.242a316.309 316.309 0 0 1 6.652 3.975l3.805 2.34 3.017 1.917a393.463 393.463 0 0 1 10.542 6.935c1.325.874 2.621 1.776 3.918 2.82a256.779 256.779 0 0 1 6.342 4.482c1.55 1.1 3.101 2.228 4.623 3.384l3.664 2.819c3.355 2.509 6.68 5.13 9.95 7.753l4.736 3.863c2.819 2.34 5.638 4.792 8.456 7.245a90.466 90.466 0 0 1 4.059 3.553c1.353 1.184 2.819 2.368 4.031 3.637 1.776 1.635 3.524 3.213 5.243 4.848 1.72 1.635 3.129 2.96 4.679 4.483l2.621 2.538c.48.451.931.93 1.41 1.41a207.507 207.507 0 0 1 4.933 5.017l3.326 3.468c.117.089.221.193.31.31 2.509 2.622 4.961 5.244 7.329 7.922 1.24 1.353 2.481 2.819 3.693 4.116 1.212 1.297 1.775 2.031 2.621 3.018l2.819 3.298c.958 1.1 1.917 2.255 2.819 3.383.902 1.127 1.211 1.438 1.803 2.199.592.762 1.354 1.635 2.002 2.481.649.846 2.029 2.452 2.988 3.721.958 1.269 2.255 2.819 3.354 4.285 1.1 1.466 2.312 2.99 3.411 4.484a298.586 298.586 0 0 1 4.397 5.948 588.667 588.667 0 0 1 4.708 6.626c1.55 2.227 2.988 4.285 4.425 6.456 3.467 5.16 6.849 10.403 10.089 15.76 1.19 1.917 2.37 3.862 3.5 5.835a399.056 399.056 0 0 1 8.88 15.761c1.15 2.143 2.28 4.285 3.38 6.456 1.1 2.171 2.37 4.596 3.47 6.936a207.52 207.52 0 0 1 2.53 5.216c2.37 4.943 4.65 9.961 6.82 15.054.79 1.805 1.58 3.637 2.32 5.47.28.592.5 1.212.76 1.832.59 1.41 1.15 2.82 1.69 4.258.53 1.438 1.07 2.621 1.55 3.947.2.563.42 1.127.65 1.691 1.88 4.662 3.58 9.36 5.1 14.097.28.846.59 1.691.87 2.564.85 2.453 1.64 4.907 2.4 7.36.39 1.212.76 2.48 1.13 3.664 1.46 4.756 2.84 9.557 4.14 14.407.2.704.39 1.438.56 2.143.62 2.255 1.19 4.51 1.75 6.794.23.789.42 1.608.59 2.425a438.85 438.85 0 0 1 12.88 101.918Z" />
    <defs>
        <linearGradient id="a" x1="1015.54" x2="-88.943" y1="455.212" y2="451.84"
            gradientUnits="userSpaceOnUse">
            <stop stop-color="#6282D6" stop-opacity="0" />
            <stop offset="1" stop-color="#044CBD" />
        </linearGradient>
        <linearGradient id="b" x1="200.563" x2="122.863" y1="579.352" y2="579.151"
            gradientUnits="userSpaceOnUse">
            <stop stop-color="#2A60E8" />
            <stop offset="1" stop-color="#0B2855" />
        </linearGradient>
        <linearGradient id="c" x1="135.803" x2="-28.625" y1="409.683" y2="409.256"
            gradientUnits="userSpaceOnUse">
            <stop stop-color="#2A60E8" />
            <stop offset="1" stop-color="#0B2855" />
        </linearGradient>
        <linearGradient id="d" x1="176.36" x2="98.751" y1="238.178" y2="237.977"
            gradientUnits="userSpaceOnUse">
            <stop stop-color="#2A60E8" />
            <stop offset="1" stop-color="#0B2855" />
        </linearGradient>
        <linearGradient id="e" x1="107.885" x2="62.198" y1="528.549" y2="528.431"
            gradientUnits="userSpaceOnUse">
            <stop stop-color="#2A60E8" />
            <stop offset="1" stop-color="#0B2855" />
        </linearGradient>
        <linearGradient id="f" x1="280.376" x2="196.325" y1="127.051" y2="126.834"
            gradientUnits="userSpaceOnUse">
            <stop stop-color="#2A60E8" />
            <stop offset="1" stop-color="#0B2855" />
        </linearGradient>
        <linearGradient id="g" x1="88.805" x2="65.87" y1="289.637" y2="289.577"
            gradientUnits="userSpaceOnUse">
            <stop stop-color="#2A60E8" />
            <stop offset="1" stop-color="#0B2855" />
        </linearGradient>
        <linearGradient id="h" x1="228.489" x2="155.898" y1="712.926" y2="712.738"
            gradientUnits="userSpaceOnUse">
            <stop stop-color="#2A60E8" />
            <stop offset="1" stop-color="#0B2855" />
        </linearGradient>
        <linearGradient id="i" x1="1066.8" x2="110.15" y1="457.969" y2="455.735"
            gradientUnits="userSpaceOnUse">
            <stop stop-color="#2A60E8" />
            <stop offset="1" stop-color="#0B2855" />
        </linearGradient>
    </defs>
</svg>