<svg xmlns="http://www.w3.org/2000/svg" fill="none" viewBox="0 0 135 46">
    <path fill="#fff"
        d="M48.547 11.656V34h-2.89V11.656h2.89Zm15.719 0L54.203 22.203 64.484 34H60.47l-9.11-10.75V21.5l9.25-9.844h3.657Zm2.953 21.563v-2.657c2.344.834 4.875 1.25 7.594 1.25 3.843 0 5.765-1.406 5.765-4.218 0-2.396-1.416-3.594-4.25-3.594h-2.875c-4.677 0-7.016-2.031-7.016-6.094 0-4.27 2.995-6.406 8.985-6.406 2.604 0 5.026.313 7.266.938v2.656c-2.24-.834-4.662-1.25-7.266-1.25-4.063 0-6.094 1.354-6.094 4.062 0 2.396 1.375 3.594 4.125 3.594h2.875c4.76 0 7.14 2.031 7.14 6.094 0 4.375-2.885 6.562-8.656 6.562-2.718 0-5.25-.312-7.593-.937Zm22.734-10.453c0 6.03 2.724 9.047 8.172 9.047 5.333 0 8-3.016 8-9.047 0-5.948-2.667-8.922-8-8.922-5.448 0-8.172 2.974-8.172 8.922Zm-3.047.093c0-7.573 3.74-11.359 11.219-11.359 7.365 0 11.047 3.787 11.047 11.36 0 7.53-3.682 11.296-11.047 11.296-7.48 0-11.219-3.765-11.219-11.297Zm33.344-.03-8.797-11.173h3.516L122 20.594l7.031-8.938h3.516l-8.781 11.172L132.547 34h-3.516L122 25.062 114.969 34h-3.516l8.797-11.172Z" />
    <g fill="#1F50FF" fill-rule="evenodd" clip-path="url(#a)" clip-rule="evenodd">
        <path
            d="M36 28.268V7.064L20.013.79 18 0l-2.014.79L0 7.064v21.204s-.328 8.416 9.164 13.113l1 .498A244.702 244.702 0 0 1 18 46a252.74 252.74 0 0 1 7.836-4.121c.33-.167.665-.334 1-.498C36.328 36.684 36 28.268 36 28.268ZM25.469 38.692l-1.03.51a240.28 240.28 0 0 0-6.44 3.37 245.032 245.032 0 0 0-6.439-3.366l-1.032-.514c-7.287-3.604-7.453-9.691-7.453-10.234V9.08l14.107-5.535.818-.32c.393.153 11.752 4.612 14.925 5.855v19.38c0 .536-.166 6.627-7.456 10.231Z" />
        <path
            d="m9.846 25.178.065.032 8.057 3.938 8.19-4.002-8.126 12.036-8.186-12.004Zm16.311-4.356-.068-.032-8.056-3.938-8.187 4.002 8.122-12.036 8.19 12.004Z" />
        <path d="m18 18.965-8.141 3.987L18 26.938l8.141-3.986L18 18.965Z" />
    </g>
    <defs>
        <clipPath id="a">
            <path fill="#fff" d="M0 0h36v46H0z" />
        </clipPath>
    </defs>
</svg>